<svg id="Capa_1" data-name="Capa 1" xmlns="http://www.w3.org/2000/svg" viewBox="0 0 36 50">
  <defs>
    <style>
      .toolbox-icon {
        fill: #844C89;
      }
    </style>
  </defs>
  <title>iconos_svg</title>
  <g>
    <ellipse cx="18" cy="47.14" rx="9.78" ry="2.05" fill="#a7a9ab"/>
    <g>
      <path class="toolbox-icon" d="M9.2,34.31l.26.25.12.12L15.16,40a3.92,3.92,0,0,0,5.09,0l5.59-5.31.12-.12.26-.25Z" />
      <path class="toolbox-icon" d="M35.5,2.51V33.12a1.74,1.74,0,0,1-1.79,1.69H2.29A1.74,1.74,0,0,1,.5,33.12V2.51A1.66,1.66,0,0,1,1,1.32a1.09,1.09,0,0,1,.27-.21,1.79,1.79,0,0,1,1-.3h9.39l3,2.67a4.84,4.84,0,0,0,6,0l3-2.67H33.71a1.79,1.79,0,0,1,1,.3,1.09,1.09,0,0,1,.27.21A1.66,1.66,0,0,1,35.5,2.51Z"/>
      <path d="M10.21,23.9a7.5,7.5,0,0,0,15,0Z" fill="#fff"/>
      <circle cx="4.88" cy="21.11" r="2.21" fill="#fff"/>
      <circle cx="30.44" cy="21.11" r="2.21" fill="#fff"/>
    </g>
  </g>
</svg>
