<?xml version="1.0" encoding="utf-8"?>
<!-- Generator: Adobe Illustrator 22.0.0, SVG Export Plug-In . SVG Version: 6.00 Build 0)  -->
<svg version="1.1" xmlns="http://www.w3.org/2000/svg" xmlns:xlink="http://www.w3.org/1999/xlink" x="0px" y="0px"
	 viewBox="0 0 26.33 25.24" enable-background="new 0 0 26.33 25.24" xml:space="preserve">
<defs>
	<style>
	  .status-icon {
	  	fill: #149B84;
	  }
	</style>
</defs>
<g id="Capa_2">
	<defs>
		<path id="SVGID_24_" d="M-250.08,3.6v12.38c0,2.15,2.28,3.47,4.13,2.39l3.45-1.98c1.02-0.6,2.27-0.1,2.7,0.9V29.8
			c0,2.9-2.35,5.24-5.24,5.24h-43.93l-5.89,5.61c-1.43,1.35-4.07,1.35-5.49,0l-5.9-5.61h-3.52c-2.9,0-5.24-2.35-5.24-5.24v-39.89
			c0-2.9,2.35-5.24,5.24-5.24h64.73c2.9,0,5.24,2.35,5.24,5.24V2.29c-0.42,1-1.68,1.5-2.7,0.9l-3.45-1.98
			C-247.8,0.15-250.08,1.49-250.08,3.6z"/>
	</defs>
	<clipPath id="SVGID_2_">
		<use xlink:href="#SVGID_24_"  overflow="visible"/>
	</clipPath>
</g>
<g id="Capa_4">
	<defs>
		<path id="SVGID_26_" d="M-79.78,3.6v12.38c0,2.15,2.28,3.47,4.13,2.39l3.45-1.98c1.02-0.6,2.27-0.1,2.7,0.9V29.8
			c0,2.9-2.35,5.24-5.24,5.24h-43.93l-5.89,5.61c-1.43,1.35-4.07,1.35-5.49,0l-5.9-5.61h-3.52c-2.9,0-5.24-2.35-5.24-5.24v-39.89
			c0-2.9,2.35-5.24,5.24-5.24h64.73c2.9,0,5.24,2.35,5.24,5.24V2.29c-0.42,1-1.68,1.5-2.7,0.9l-3.45-1.98
			C-77.5,0.15-79.78,1.49-79.78,3.6z"/>
	</defs>
	<clipPath id="SVGID_3_">
		<use xlink:href="#SVGID_26_"  overflow="visible"/>
	</clipPath>
</g>
<g id="Capa_3">
	<g>
		<g>
			<path class="status-icon" d="M4.59,5.93c-0.21,0-0.38,0.17-0.38,0.38c0,0.21,0.17,0.38,0.38,0.38c0.21,0,0.38-0.17,0.38-0.38
				C4.97,6.1,4.8,5.93,4.59,5.93z M4.59,5.93c-0.21,0-0.38,0.17-0.38,0.38c0,0.21,0.17,0.38,0.38,0.38c0.21,0,0.38-0.17,0.38-0.38
				C4.97,6.1,4.8,5.93,4.59,5.93z M4.59,5.93c-0.21,0-0.38,0.17-0.38,0.38c0,0.21,0.17,0.38,0.38,0.38c0.21,0,0.38-0.17,0.38-0.38
				C4.97,6.1,4.8,5.93,4.59,5.93z M4.59,5.93c-0.21,0-0.38,0.17-0.38,0.38c0,0.21,0.17,0.38,0.38,0.38c0.21,0,0.38-0.17,0.38-0.38
				C4.97,6.1,4.8,5.93,4.59,5.93z M4.59,5.93c-0.21,0-0.38,0.17-0.38,0.38c0,0.21,0.17,0.38,0.38,0.38c0.21,0,0.38-0.17,0.38-0.38
				C4.97,6.1,4.8,5.93,4.59,5.93z M4.59,5.93c-0.21,0-0.38,0.17-0.38,0.38c0,0.21,0.17,0.38,0.38,0.38c0.21,0,0.38-0.17,0.38-0.38
				C4.97,6.1,4.8,5.93,4.59,5.93z M4.59,5.93c-0.21,0-0.38,0.17-0.38,0.38c0,0.21,0.17,0.38,0.38,0.38c0.21,0,0.38-0.17,0.38-0.38
				C4.97,6.1,4.8,5.93,4.59,5.93z M4.59,5.93c-0.21,0-0.38,0.17-0.38,0.38c0,0.21,0.17,0.38,0.38,0.38c0.21,0,0.38-0.17,0.38-0.38
				C4.97,6.1,4.8,5.93,4.59,5.93z M4.59,5.93c-0.21,0-0.38,0.17-0.38,0.38c0,0.21,0.17,0.38,0.38,0.38c0.21,0,0.38-0.17,0.38-0.38
				C4.97,6.1,4.8,5.93,4.59,5.93z M4.59,5.93c-0.21,0-0.38,0.17-0.38,0.38c0,0.21,0.17,0.38,0.38,0.38c0.21,0,0.38-0.17,0.38-0.38
				C4.97,6.1,4.8,5.93,4.59,5.93z M4.59,5.93c-0.21,0-0.38,0.17-0.38,0.38c0,0.21,0.17,0.38,0.38,0.38c0.21,0,0.38-0.17,0.38-0.38
				C4.97,6.1,4.8,5.93,4.59,5.93z M21.19,13.97c-0.1,0-0.18,0.08-0.18,0.18c0,0.1,0.08,0.18,0.18,0.18c0.1,0,0.18-0.08,0.18-0.18
				C21.37,14.05,21.29,13.97,21.19,13.97z M21.19,13.97c-0.1,0-0.18,0.08-0.18,0.18c0,0.1,0.08,0.18,0.18,0.18
				c0.1,0,0.18-0.08,0.18-0.18C21.37,14.05,21.29,13.97,21.19,13.97z M4.59,5.93c-0.21,0-0.38,0.17-0.38,0.38
				c0,0.21,0.17,0.38,0.38,0.38c0.21,0,0.38-0.17,0.38-0.38C4.97,6.1,4.8,5.93,4.59,5.93z M4.59,5.93c-0.21,0-0.38,0.17-0.38,0.38
				c0,0.21,0.17,0.38,0.38,0.38c0.21,0,0.38-0.17,0.38-0.38C4.97,6.1,4.8,5.93,4.59,5.93z M21.19,13.97c-0.1,0-0.18,0.08-0.18,0.18
				c0,0.1,0.08,0.18,0.18,0.18c0.1,0,0.18-0.08,0.18-0.18C21.37,14.05,21.29,13.97,21.19,13.97z M21.19,13.97
				c-0.1,0-0.18,0.08-0.18,0.18c0,0.1,0.08,0.18,0.18,0.18c0.1,0,0.18-0.08,0.18-0.18C21.37,14.05,21.29,13.97,21.19,13.97z
				 M4.59,5.93c-0.21,0-0.38,0.17-0.38,0.38c0,0.21,0.17,0.38,0.38,0.38c0.21,0,0.38-0.17,0.38-0.38C4.97,6.1,4.8,5.93,4.59,5.93z
				 M4.59,5.93c-0.21,0-0.38,0.17-0.38,0.38c0,0.21,0.17,0.38,0.38,0.38c0.21,0,0.38-0.17,0.38-0.38C4.97,6.1,4.8,5.93,4.59,5.93z
				 M21.19,13.97c-0.1,0-0.18,0.08-0.18,0.18c0,0.1,0.08,0.18,0.18,0.18c0.1,0,0.18-0.08,0.18-0.18
				C21.37,14.05,21.29,13.97,21.19,13.97z M21.19,13.97c-0.1,0-0.18,0.08-0.18,0.18c0,0.1,0.08,0.18,0.18,0.18
				c0.1,0,0.18-0.08,0.18-0.18C21.37,14.05,21.29,13.97,21.19,13.97z M4.59,5.93c-0.21,0-0.38,0.17-0.38,0.38
				c0,0.21,0.17,0.38,0.38,0.38c0.21,0,0.38-0.17,0.38-0.38C4.97,6.1,4.8,5.93,4.59,5.93z M23.1,9.38l-0.46-0.46
				c-0.09-0.09-0.14-0.21-0.14-0.34V5.61c0-0.13-0.05-0.25-0.14-0.34l-0.24-0.24c-0.09-0.09-0.22-0.14-0.34-0.14L3.12,4.94
				c-0.27,0-0.48,0.22-0.48,0.49v2.57c0.02,0,0.04-0.01,0.06-0.01h2.78v-0.1c0-0.08,0.06-0.14,0.14-0.14h0.34
				c0.08,0,0.14,0.07,0.14,0.14v0.1h0.36c0.25,0,0.45,0.2,0.45,0.45v2.19c0,0.25-0.2,0.45-0.45,0.45H6.11v0.1
				c0,0.08-0.06,0.14-0.14,0.14H5.62c-0.08,0-0.14-0.07-0.14-0.14v-0.1H2.7c-0.02,0-0.04,0-0.06-0.01v5.39H4.9
				c0.14,0,0.25,0.11,0.25,0.25v1.42c0,0.14-0.11,0.25-0.25,0.25H2.64v2.07c0,0.27,0.22,0.49,0.49,0.49h18.89
				c0.27,0,0.49-0.22,0.49-0.49c0-0.13,0.05-0.25,0.14-0.34l0.47-0.47c0.09-0.09,0.14-0.21,0.14-0.34V9.73
				C23.25,9.6,23.2,9.48,23.1,9.38z M5.32,6.87c0,0.09-0.07,0.16-0.16,0.16H4.02c-0.09,0-0.16-0.07-0.16-0.16V5.74
				c0-0.09,0.07-0.16,0.16-0.16h1.13c0.09,0,0.16,0.07,0.16,0.16V6.87z M21.68,7.98c0,0.05-0.04,0.09-0.09,0.09H8.77
				c-0.05,0-0.09-0.04-0.09-0.09c0-0.05,0.04-0.09,0.09-0.09H21.6C21.65,7.9,21.68,7.94,21.68,7.98z M21.48,10.43v0.51
				c0,0.07-0.06,0.13-0.13,0.13h-1.29c-0.07,0-0.13-0.06-0.13-0.13v-0.51c0-0.07,0.06-0.13,0.13-0.13h1.29
				C21.42,10.3,21.48,10.36,21.48,10.43z M9.18,14.89h10.17c0.23,0,0.41,0.18,0.41,0.41v0.99c0,0.22-0.18,0.41-0.41,0.41H9.18
				c-0.22,0-0.41-0.18-0.41-0.41V15.3C8.77,15.07,8.95,14.89,9.18,14.89z M8.77,11.97v-1.42c0-0.14,0.11-0.25,0.25-0.25h1.42
				c0.14,0,0.25,0.11,0.25,0.25v1.42c0,0.14-0.11,0.25-0.25,0.25H9.02C8.88,12.22,8.77,12.1,8.77,11.97z M11.65,10.3h1.29
				c0.07,0,0.13,0.06,0.13,0.13v0.51c0,0.07-0.06,0.13-0.13,0.13h-1.29c-0.07,0-0.13-0.06-0.13-0.13v-0.51
				C11.52,10.36,11.58,10.3,11.65,10.3z M11.52,9.91V9.4c0-0.07,0.06-0.13,0.13-0.13h1.29c0.07,0,0.13,0.06,0.13,0.13v0.51
				c0,0.07-0.06,0.13-0.13,0.13h-1.29C11.58,10.04,11.52,9.98,11.52,9.91z M10.61,6.16c0-0.22,0.18-0.41,0.41-0.41h10.17
				c0.23,0,0.41,0.18,0.41,0.41v0.09c0,0.23-0.18,0.41-0.41,0.41H11.02c-0.22,0-0.41-0.18-0.41-0.41V6.16z M9.45,5.84
				c0-0.04,0.03-0.07,0.07-0.07h0.46c0.04,0,0.07,0.03,0.07,0.07v1.3c0,0.04-0.03,0.07-0.07,0.07H9.52c-0.04,0-0.07-0.03-0.07-0.07
				V5.84z M8.33,7.15c0,0.04-0.03,0.07-0.07,0.07H7.8c-0.04,0-0.07-0.03-0.07-0.07v-1.3c0-0.04,0.03-0.07,0.07-0.07h0.46
				c0.04,0,0.07,0.03,0.07,0.07V7.15z M8.61,7.15v-1.3c0-0.04,0.03-0.07,0.07-0.07h0.46c0.04,0,0.07,0.03,0.07,0.07v1.3
				c0,0.04-0.03,0.07-0.07,0.07H8.68C8.64,7.22,8.61,7.19,8.61,7.15z M21.6,19.41c0,0.22-0.18,0.41-0.41,0.41H11.02
				c-0.22,0-0.41-0.18-0.41-0.41v-0.09c0-0.23,0.18-0.41,0.41-0.41h10.17c0.23,0,0.41,0.18,0.41,0.41V19.41z M21.6,17.5H8.77
				c-0.05,0-0.09-0.04-0.09-0.09c0-0.05,0.04-0.09,0.09-0.09H21.6c0.05,0,0.09,0.04,0.09,0.09C21.68,17.47,21.65,17.5,21.6,17.5z
				 M22.28,15.26c0,0.04-0.03,0.07-0.07,0.07h-1.3c-0.04,0-0.07-0.03-0.07-0.07V14.8c0-0.04,0.03-0.07,0.07-0.07h1.3
				c0.04,0,0.07,0.03,0.07,0.07V15.26z M22.28,14.38c0,0.04-0.03,0.07-0.07,0.07h-1.3c-0.04,0-0.07-0.03-0.07-0.07v-0.46
				c0-0.04,0.03-0.07,0.07-0.07h1.3c0.04,0,0.07,0.03,0.07,0.07V14.38z M22.28,13.54c0,0.04-0.03,0.07-0.07,0.07h-1.3
				c-0.04,0-0.07-0.03-0.07-0.07v-0.46c0-0.04,0.03-0.07,0.07-0.07h1.3c0.04,0,0.07,0.03,0.07,0.07V13.54z M21.19,13.97
				c-0.1,0-0.18,0.08-0.18,0.18c0,0.1,0.08,0.18,0.18,0.18c0.1,0,0.18-0.08,0.18-0.18C21.37,14.05,21.29,13.97,21.19,13.97z
				 M4.59,5.93c-0.21,0-0.38,0.17-0.38,0.38c0,0.21,0.17,0.38,0.38,0.38c0.21,0,0.38-0.17,0.38-0.38C4.97,6.1,4.8,5.93,4.59,5.93z
				 M4.59,5.93c-0.21,0-0.38,0.17-0.38,0.38c0,0.21,0.17,0.38,0.38,0.38c0.21,0,0.38-0.17,0.38-0.38C4.97,6.1,4.8,5.93,4.59,5.93z
				 M21.19,13.97c-0.1,0-0.18,0.08-0.18,0.18c0,0.1,0.08,0.18,0.18,0.18c0.1,0,0.18-0.08,0.18-0.18
				C21.37,14.05,21.29,13.97,21.19,13.97z M21.19,13.97c-0.1,0-0.18,0.08-0.18,0.18c0,0.1,0.08,0.18,0.18,0.18
				c0.1,0,0.18-0.08,0.18-0.18C21.37,14.05,21.29,13.97,21.19,13.97z M4.59,5.93c-0.21,0-0.38,0.17-0.38,0.38
				c0,0.21,0.17,0.38,0.38,0.38c0.21,0,0.38-0.17,0.38-0.38C4.97,6.1,4.8,5.93,4.59,5.93z M4.59,5.93c-0.21,0-0.38,0.17-0.38,0.38
				c0,0.21,0.17,0.38,0.38,0.38c0.21,0,0.38-0.17,0.38-0.38C4.97,6.1,4.8,5.93,4.59,5.93z M21.19,13.97c-0.1,0-0.18,0.08-0.18,0.18
				c0,0.1,0.08,0.18,0.18,0.18c0.1,0,0.18-0.08,0.18-0.18C21.37,14.05,21.29,13.97,21.19,13.97z M21.19,13.97
				c-0.1,0-0.18,0.08-0.18,0.18c0,0.1,0.08,0.18,0.18,0.18c0.1,0,0.18-0.08,0.18-0.18C21.37,14.05,21.29,13.97,21.19,13.97z
				 M4.59,5.93c-0.21,0-0.38,0.17-0.38,0.38c0,0.21,0.17,0.38,0.38,0.38c0.21,0,0.38-0.17,0.38-0.38C4.97,6.1,4.8,5.93,4.59,5.93z
				 M4.59,5.93c-0.21,0-0.38,0.17-0.38,0.38c0,0.21,0.17,0.38,0.38,0.38c0.21,0,0.38-0.17,0.38-0.38C4.97,6.1,4.8,5.93,4.59,5.93z
				 M4.59,5.93c-0.21,0-0.38,0.17-0.38,0.38c0,0.21,0.17,0.38,0.38,0.38c0.21,0,0.38-0.17,0.38-0.38C4.97,6.1,4.8,5.93,4.59,5.93z
				 M4.59,5.93c-0.21,0-0.38,0.17-0.38,0.38c0,0.21,0.17,0.38,0.38,0.38c0.21,0,0.38-0.17,0.38-0.38C4.97,6.1,4.8,5.93,4.59,5.93z
				 M4.59,5.93c-0.21,0-0.38,0.17-0.38,0.38c0,0.21,0.17,0.38,0.38,0.38c0.21,0,0.38-0.17,0.38-0.38C4.97,6.1,4.8,5.93,4.59,5.93z
				 M4.59,5.93c-0.21,0-0.38,0.17-0.38,0.38c0,0.21,0.17,0.38,0.38,0.38c0.21,0,0.38-0.17,0.38-0.38C4.97,6.1,4.8,5.93,4.59,5.93z
				 M4.59,5.93c-0.21,0-0.38,0.17-0.38,0.38c0,0.21,0.17,0.38,0.38,0.38c0.21,0,0.38-0.17,0.38-0.38C4.97,6.1,4.8,5.93,4.59,5.93z
				 M4.59,5.93c-0.21,0-0.38,0.17-0.38,0.38c0,0.21,0.17,0.38,0.38,0.38c0.21,0,0.38-0.17,0.38-0.38C4.97,6.1,4.8,5.93,4.59,5.93z
				 M4.59,5.93c-0.21,0-0.38,0.17-0.38,0.38c0,0.21,0.17,0.38,0.38,0.38c0.21,0,0.38-0.17,0.38-0.38C4.97,6.1,4.8,5.93,4.59,5.93z
				 M4.59,5.93c-0.21,0-0.38,0.17-0.38,0.38c0,0.21,0.17,0.38,0.38,0.38c0.21,0,0.38-0.17,0.38-0.38C4.97,6.1,4.8,5.93,4.59,5.93z
				 M4.59,5.93c-0.21,0-0.38,0.17-0.38,0.38c0,0.21,0.17,0.38,0.38,0.38c0.21,0,0.38-0.17,0.38-0.38C4.97,6.1,4.8,5.93,4.59,5.93z"
				/>
		</g>
		<path class="status-icon" d="M6.33,8.15H2.54c-0.18,0-0.33,0.15-0.33,0.33v2.09c0,0.18,0.15,0.33,0.33,0.33h3.79
			c0.18,0,0.33-0.15,0.33-0.33l0-2.09C6.66,8.3,6.51,8.15,6.33,8.15z"/>
		<path class="status-icon" d="M4.65,16.58H2.64c-0.17,0-0.31,0.14-0.31,0.31v1.05c0,0.17,0.14,0.31,0.31,0.31h2.02
			c0.17,0,0.31-0.14,0.31-0.31v-1.05C4.97,16.72,4.83,16.58,4.65,16.58z"/>
	</g>
</g>
</svg>
