<?xml version="1.0" encoding="utf-8"?>
<!-- Generator: Adobe Illustrator 22.0.0, SVG Export Plug-In . SVG Version: 6.00 Build 0)  -->
<svg version="1.1" xmlns="http://www.w3.org/2000/svg" xmlns:xlink="http://www.w3.org/1999/xlink" x="0px" y="0px"
	 viewBox="0 0 26.33 25.24" enable-background="new 0 0 26.33 25.24" xml:space="preserve">
<defs>
	<style>
	  .status-icon {
	  	fill: #149B84;
	  }
	</style>
</defs>
<g id="Capa_1">
</g>
<g id="Capa_2">
	<defs>
		<path id="SVGID_24_" d="M-219.45,3.6v12.38c0,2.15,2.28,3.47,4.13,2.39l3.45-1.98c1.02-0.6,2.27-0.1,2.7,0.9V29.8
			c0,2.9-2.35,5.24-5.24,5.24h-43.93l-5.89,5.61c-1.43,1.35-4.07,1.35-5.49,0l-5.9-5.61h-3.52c-2.9,0-5.24-2.35-5.24-5.24v-39.89
			c0-2.9,2.35-5.24,5.24-5.24h64.73c2.9,0,5.24,2.35,5.24,5.24V2.29c-0.42,1-1.68,1.5-2.7,0.9l-3.45-1.98
			C-217.17,0.15-219.45,1.49-219.45,3.6z"/>
	</defs>
	<clipPath id="SVGID_2_">
		<use xlink:href="#SVGID_24_"  overflow="visible"/>
	</clipPath>
</g>
<g id="Capa_4">
	<defs>
		<path id="SVGID_26_" d="M-49.16,3.6v12.38c0,2.15,2.28,3.47,4.13,2.39l3.45-1.98c1.02-0.6,2.27-0.1,2.7,0.9V29.8
			c0,2.9-2.35,5.24-5.24,5.24h-43.93l-5.89,5.61c-1.43,1.35-4.07,1.35-5.49,0l-5.9-5.61h-3.52c-2.9,0-5.24-2.35-5.24-5.24v-39.89
			c0-2.9,2.35-5.24,5.24-5.24h64.73c2.9,0,5.24,2.35,5.24,5.24V2.29c-0.42,1-1.68,1.5-2.7,0.9l-3.45-1.98
			C-46.87,0.15-49.16,1.49-49.16,3.6z"/>
	</defs>
	<clipPath id="SVGID_3_">
		<use xlink:href="#SVGID_26_"  overflow="visible"/>
	</clipPath>
</g>
<g id="Capa_3">
	<g>
		<g>
			<g>
				<g>
					<path class="status-icon" d="M22.09,11.69C21.9,11.88,21.64,12,21.35,12c-0.3,0-0.56-0.12-0.75-0.31c-1.94-1.94-4.52-3-7.27-3
						c-2.73,0-5.31,1.06-7.26,2.99c-0.19,0.21-0.46,0.31-0.74,0.31c-0.28,0-0.56-0.1-0.75-0.31c-0.41-0.41-0.41-1.08,0-1.49
						c2.33-2.32,5.45-3.61,8.75-3.61c3.31,0,6.43,1.29,8.76,3.62C22.51,10.61,22.51,11.28,22.09,11.69z"/>
					<path class="status-icon" d="M14.91,18.8c0,0.87-0.71,1.58-1.58,1.58c-0.86,0-1.57-0.71-1.57-1.58c0-0.86,0.71-1.57,1.57-1.57
						C14.2,17.23,14.91,17.94,14.91,18.8z"/>
					<path class="status-icon" d="M17.17,15.1c0.41,0.41,0.41,1.08,0,1.49c-0.21,0.21-0.47,0.31-0.75,0.31c-0.28,0-0.55-0.1-0.75-0.31
						c-0.62-0.62-1.45-0.96-2.33-0.96c-0.87,0-1.7,0.34-2.32,0.96c-0.21,0.19-0.47,0.3-0.75,0.3c-0.28,0-0.55-0.1-0.75-0.31
						c-0.41-0.4-0.41-1.08,0-1.49c1.03-1,2.39-1.57,3.83-1.57C14.78,13.52,16.15,14.08,17.17,15.1z"/>
					<path class="status-icon" d="M19.57,12.71c0.21,0.21,0.31,0.47,0.31,0.75c0,0.28-0.1,0.55-0.31,0.74c-0.19,0.21-0.46,0.31-0.74,0.31
						c-0.3,0-0.56-0.1-0.75-0.31c-1.27-1.26-2.96-1.95-4.74-1.95c-1.79,0-3.46,0.69-4.73,1.95c-0.19,0.19-0.46,0.31-0.74,0.31
						c-0.3,0-0.56-0.12-0.75-0.31C6.9,14,6.8,13.73,6.8,13.45s0.1-0.55,0.31-0.74c1.67-1.67,3.87-2.57,6.22-2.57
						C15.69,10.14,17.91,11.05,19.57,12.71z"/>
				</g>
			</g>
		</g>
	</g>
</g>
</svg>
