<?xml version="1.0" encoding="utf-8"?>
<!-- Generator: Adobe Illustrator 22.0.0, SVG Export Plug-In . SVG Version: 6.00 Build 0)  -->
<svg version="1.1" xmlns="http://www.w3.org/2000/svg" xmlns:xlink="http://www.w3.org/1999/xlink" x="0px" y="0px"
	 viewBox="0 0 26.33 25.24" enable-background="new 0 0 26.33 25.24" xml:space="preserve">
<defs>
	<style>
	  .status-icon {
	  	fill: #149B84;
	  }
	</style>
</defs>
<g id="Capa_1">
</g>
<g id="Capa_2">
	<defs>
		<path id="SVGID_24_" d="M-280.33,3.6v12.38c0,2.15,2.28,3.47,4.13,2.39l3.45-1.98c1.02-0.6,2.27-0.1,2.7,0.9V29.8
			c0,2.9-2.35,5.24-5.24,5.24h-43.93l-5.89,5.61c-1.43,1.35-4.07,1.35-5.49,0l-5.9-5.61h-3.52c-2.9,0-5.24-2.35-5.24-5.24v-39.89
			c0-2.9,2.35-5.24,5.24-5.24h64.73c2.9,0,5.24,2.35,5.24,5.24V2.29c-0.42,1-1.68,1.5-2.7,0.9l-3.45-1.98
			C-278.05,0.15-280.33,1.49-280.33,3.6z"/>
	</defs>
	<clipPath id="SVGID_2_">
		<use xlink:href="#SVGID_24_"  overflow="visible"/>
	</clipPath>
</g>
<g id="Capa_4">
	<defs>
		<path id="SVGID_26_" d="M-110.03,3.6v12.38c0,2.15,2.28,3.47,4.13,2.39l3.45-1.98c1.02-0.6,2.27-0.1,2.7,0.9V29.8
			c0,2.9-2.35,5.24-5.24,5.24h-43.93l-5.89,5.61c-1.43,1.35-4.07,1.35-5.49,0l-5.9-5.61h-3.52c-2.9,0-5.24-2.35-5.24-5.24v-39.89
			c0-2.9,2.35-5.24,5.24-5.24H-105c2.9,0,5.24,2.35,5.24,5.24V2.29c-0.42,1-1.68,1.5-2.7,0.9l-3.45-1.98
			C-107.75,0.15-110.03,1.49-110.03,3.6z"/>
	</defs>
	<clipPath id="SVGID_3_">
		<use xlink:href="#SVGID_26_"  overflow="visible"/>
	</clipPath>
</g>
<g id="Capa_3">
	<g>
		<g>
			<g>
				<path class="status-icon" d="M23.12,12.84c0.05,0.04,0.05,0.11,0,0.15l-2.97,2.15c-0.07,0.05-0.17,0.01-0.17-0.07l0-1.42l0-2.88
					c0-0.08,0.1-0.12,0.17-0.07L23.12,12.84z"/>
			</g>
		</g>
		<g>
			<path class="status-icon" d="M20.19,13.52H6.63c-0.34,0-0.61-0.27-0.61-0.61s0.27-0.61,0.61-0.61h13.56c0.34,0,0.61,0.27,0.61,0.61
				S20.52,13.52,20.19,13.52z"/>
		</g>
		<g>
			<path class="status-icon" d="M19.07,19.12h-2.39c-0.27,0-0.48-0.22-0.48-0.48v-2.35c0-0.27,0.22-0.48,0.48-0.48h2.39
				c0.27,0,0.48,0.22,0.48,0.48v2.35C19.55,18.9,19.34,19.12,19.07,19.12z"/>
		</g>
		<g>
			<ellipse class="status-icon" cx="16.67" cy="8.88" rx="1.68" ry="1.65"/>
		</g>
		<g>
			<ellipse class="status-icon" cx="4.81" cy="12.91" rx="2.48" ry="2.45"/>
		</g>
		<g>
			<path class="status-icon" d="M9.76,13.52c-0.12,0-0.25-0.04-0.36-0.12c-0.27-0.2-0.33-0.58-0.14-0.85l2.6-3.59
				c0.31-0.43,0.82-0.69,1.36-0.69h3.45c0.34,0,0.61,0.27,0.61,0.61s-0.27,0.61-0.61,0.61h-3.45c-0.15,0-0.29,0.07-0.38,0.19
				l-2.6,3.59C10.13,13.43,9.95,13.52,9.76,13.52z"/>
		</g>
		<g>
			<path class="status-icon" d="M17.87,18.06h-2.56c-0.51,0-0.98-0.22-1.3-0.61L10.6,13.3c-0.21-0.26-0.18-0.64,0.08-0.86
				c0.26-0.21,0.64-0.18,0.86,0.08l3.42,4.15c0.09,0.11,0.22,0.17,0.36,0.17h2.56c0.34,0,0.61,0.27,0.61,0.61
				C18.48,17.79,18.21,18.06,17.87,18.06z"/>
		</g>
	</g>
</g>
</svg>
