<svg xmlns="http://www.w3.org/2000/svg" viewBox="0 0 68.78 90.18"><defs><style>.cls-1{fill:#ccc;}</style></defs><title>bin_v0</title><g id="Capa_2" data-name="Capa 2"><g id="Capa_2-2" data-name="Capa 2"><path class="cls-1" d="M19.77,8.2a4.61,4.61,0,0,1,4.78-4.65H44.23A4.61,4.61,0,0,1,49,8.2v5.1h3.55V8.2A8.17,8.17,0,0,0,44.23,0H24.55a8.17,8.17,0,0,0-8.33,8.2v5.1h3.55Z"/><path class="cls-1" d="M13.43,90.18H55.35c4,0,7.18-3.55,7.18-8V27.48H6.25V82.21C6.25,86.63,9.39,90.18,13.43,90.18ZM45.69,35.94a1.78,1.78,0,0,1,3.55,0V77.82a1.78,1.78,0,0,1-3.55,0Zm-13.07,0a1.77,1.77,0,0,1,3.54,0V77.82a1.77,1.77,0,0,1-3.54,0Zm-13.08,0a1.78,1.78,0,0,1,3.55,0V77.82a1.78,1.78,0,0,1-3.55,0Z"/><path class="cls-1" d="M4.43,23.93H64.35a4.43,4.43,0,1,0,0-8.86H4.43a4.43,4.43,0,0,0,0,8.86Z"/></g></g></svg>