<svg id="Capa_1" data-name="Capa 1" xmlns="http://www.w3.org/2000/svg" viewBox="0 0 73 34">
  <title>iconos_svg_v1</title>
  <path d="M63.62,11.47v11a2.45,2.45,0,0,0,3.69,2.13l3.08-1.77a1.69,1.69,0,0,1,2.53,1.47v6.57A3.07,3.07,0,0,1,69.85,34H17.27a3.07,3.07,0,0,1-3.08-3.08V20.51a3.19,3.19,0,0,0-2.07-1.06h-.67a3.14,3.14,0,0,0-2,1l0,0-.08.09v0a5.43,5.43,0,0,1-4.74,1.64A5.37,5.37,0,0,1,.12,17.61a5.32,5.32,0,0,1,9.19-4.22l.08.09,0,0a3.19,3.19,0,0,0,2,1.05h.67a3.19,3.19,0,0,0,2.07-1.06V3.08A3.07,3.07,0,0,1,17.27,0H69.85a3.07,3.07,0,0,1,3.07,3.08V9.65a1.69,1.69,0,0,1-2.53,1.46L67.31,9.34A2.46,2.46,0,0,0,63.62,11.47Z" />
</svg>
