<svg id="Capa_1" data-name="Capa 1" xmlns="http://www.w3.org/2000/svg" viewBox="0 0 41.17 71">
  <title>iconos_svg_v1</title>
  <g>
    <path d="M37.7,18.89V44.67a3.58,3.58,0,0,1-3.59,3.58h-.42l-8,11.83C23,64,18.12,64,15.45,60.08l-8-11.83H7.06a3.58,3.58,0,0,1-3.59-3.58V18.89A3.59,3.59,0,0,1,7.06,15.3H34.11A3.59,3.59,0,0,1,37.7,18.89Z" fill="#008fc7"/>
    <ellipse cx="20.58" cy="68.61" rx="10.2" ry="2.13" fill="#a7a9ac"/>
    <g>
      <path d="M8.3,38.43A8.66,8.66,0,0,1,10.46,37a8.33,8.33,0,0,1,2.32-.87c2.49-.6,5.89-.36,7,1s-.37,2.43-2.19,3.59S12.9,41.89,12,43.29s-1.94,8-3.28,11.29-3.64,8-3.64,8l1.27-12.2s.67-6.56.91-8.26a13.64,13.64,0,0,1,.5-2.77A2.9,2.9,0,0,1,8.3,38.43Z" fill="#fff" stroke="#0085bf" stroke-miterlimit="10" stroke-width="0.25"/>
      <path d="M32.86,38.43A8.6,8.6,0,0,0,30.71,37a8.33,8.33,0,0,0-2.32-.87c-2.49-.6-5.89-.36-7,1s.36,2.43,2.18,3.59,4.68,1.21,5.59,2.61,1.94,8,3.28,11.29,3.64,8,3.64,8l-1.28-12.2s-.66-6.56-.91-8.26a13,13,0,0,0-.49-2.77A2.75,2.75,0,0,0,32.86,38.43Z" fill="#fff" stroke="#0085bf" stroke-miterlimit="10" stroke-width="0.25"/>
    </g>
    <g>
      <path d="M8.15,26.24c3-1.49,5.06-1.74,7.92.86" fill="none" stroke="#fff" stroke-linecap="round" stroke-miterlimit="10"/>
      <path d="M9.47,29.52c1.76.9,3.15,1.4,5.61,0" fill="none" stroke="#fff" stroke-linecap="round" stroke-miterlimit="10"/>
    </g>
    <g>
      <path d="M33,26.24c-3-1.49-5.06-1.74-7.92.85" fill="none" stroke="#fff" stroke-linecap="round" stroke-miterlimit="10"/>
      <path d="M31.69,29.52c-1.76.9-3.14,1.4-5.61,0" fill="none" stroke="#fff" stroke-linecap="round" stroke-miterlimit="10"/>
    </g>
    <path d="M20.23.36.82,12.65a.66.66,0,0,0,.36,1.22H40a.66.66,0,0,0,.35-1.22L20.94.36A.7.7,0,0,0,20.23.36Z" fill="#008fc7"/>
  </g>
</svg>
