<?xml version="1.0" encoding="utf-8"?>
<!-- Generator: Adobe Illustrator 22.0.0, SVG Export Plug-In . SVG Version: 6.00 Build 0)  -->
<svg version="1.1" xmlns="http://www.w3.org/2000/svg" xmlns:xlink="http://www.w3.org/1999/xlink" x="0px" y="0px"
	 viewBox="0 0 25 20" enable-background="new 0 0 25 20" xml:space="preserve">
<g id="Capa_1">
	<g>
		<path fill="#DAD7DC" d="M23.63,5.09c0-0.01,0-0.01-0.01-0.02c-0.19-0.45-0.51-0.75-1-0.85c-0.41-0.08-0.83-0.02-1.24-0.04
			c-0.7,0-1.39,0-2.09,0c-0.61,0-1.22,0-1.84,0c-0.14,0-0.22-0.04-0.29-0.17c-0.24-0.48-0.51-0.95-0.75-1.43
			C16.23,2.19,15.92,2,15.5,2c-2-0.01-3.99-0.01-5.99,0c-0.35,0-0.66,0.12-0.84,0.48c-0.25,0.5-0.54,0.98-0.79,1.48
			C7.8,4.13,7.71,4.19,7.52,4.19c-1.6-0.01-3.21-0.01-4.81,0c-0.59,0-1.02,0.28-1.28,0.82C1.41,5.03,1.41,5.07,1.4,5.09
			C1.39,5.11,1.38,5.13,1.36,5.14v2.29c0.07,0,0.14,0.01,0.21,0.01c1.91,0,3.81,0,5.72,0c0.27,0,0.53,0.01,0.8,0.01
			c0.09,0,0.18,0,0.27,0c0.03-0.03,0.06-0.05,0.09-0.08c0.06-0.05,0.11-0.1,0.17-0.15c0.03-0.03,0.07-0.06,0.11-0.1
			C8.75,7.1,8.77,7.08,8.8,7.05c0.02-0.02,0.05-0.04,0.07-0.06c0.02-0.02,0.04-0.04,0.06-0.06C8.97,6.9,9.01,6.87,9.04,6.84
			C9.96,6.1,11,5.69,12.18,5.62c1.71-0.09,3.15,0.49,4.33,1.71c0.03,0.04,0.08,0.07,0.11,0.1c1.23,0,2.46-0.01,3.69-0.01
			c1.11,0,2.22,0,3.32,0V5.15C23.63,5.13,23.63,5.11,23.63,5.09z M4.19,6.7C3.82,6.7,3.48,6.38,3.47,6.01
			C3.46,5.63,3.81,5.29,4.18,5.29c0.37,0,0.7,0.33,0.7,0.7C4.89,6.35,4.55,6.69,4.19,6.7z"/>
		<path fill="#DAD7DC" d="M23.64,14.73v2.31c-0.02,0.06-0.04,0.12-0.07,0.18C23.32,17.77,22.81,18,22.18,18c-1.63,0.01-3.27,0-4.9,0
			c-4.77,0-9.53,0-14.3,0c-0.67,0-1.23-0.16-1.53-0.79c-0.02-0.04-0.04-0.09-0.06-0.14c0-0.01-0.01-0.01-0.02-0.02v-2.33
			c0.06,0,0.13,0.01,0.19,0.01c2.28,0,4.56,0,6.85,0c0.96,1.01,2.12,1.65,3.53,1.8c1.16,0.12,2.25-0.1,3.27-0.66
			c0.54-0.3,0.99-0.71,1.43-1.14c0.04,0,0.07,0.01,0.11,0.01c2.27,0,4.53,0,6.8,0c0.01,0,0.02,0,0.03,0c0.02,0,0.03,0,0.05,0
			C23.62,14.73,23.63,14.73,23.64,14.73z"/>
		<path fill="#575B6D" d="M8.4,14.74c-2.28,0-4.56,0-6.85,0c-0.06,0-0.13-0.01-0.19-0.01v-7.3c0.07,0,0.14,0.01,0.21,0.01
			c1.91,0,3.81,0,5.72,0c0.27,0,0.53,0.01,0.8,0.01c0.09,0,0.18,0,0.27,0c0,0.06-0.03,0.11-0.07,0.15C7.88,8.07,7.58,8.61,7.36,9.19
			c-0.32,0.86-0.39,1.75-0.28,2.66c0.08,0.63,0.27,1.21,0.56,1.77C7.85,14.03,8.12,14.38,8.4,14.74z"/>
		<path fill="#575B6D" d="M23.64,7.43v7.3c-0.01,0-0.02,0-0.03,0c-0.02,0-0.03,0-0.05,0c-0.01,0-0.02,0-0.03,0c-2.27,0-4.53,0-6.8,0
			c-0.04,0-0.07,0-0.11-0.01c0.08-0.11,0.17-0.22,0.25-0.33c0.96-1.26,1.27-2.69,1.05-4.23c-0.12-0.83-0.46-1.58-0.95-2.27
			c-0.11-0.16-0.26-0.29-0.35-0.47c1.23,0,2.46-0.01,3.69-0.01C21.42,7.43,22.53,7.43,23.64,7.43z"/>
		<path fill="#696E83" d="M17.92,10.18c-0.12-0.83-0.46-1.58-0.95-2.27c-0.11-0.16-0.26-0.29-0.35-0.47
			c-0.04-0.03-0.08-0.07-0.11-0.1c-1.19-1.22-2.63-1.81-4.33-1.71C11,5.69,9.96,6.1,9.04,6.84C9.01,6.87,8.97,6.9,8.93,6.93
			C8.91,6.95,8.89,6.97,8.87,6.99C8.85,7.01,8.82,7.03,8.8,7.05C8.77,7.08,8.75,7.1,8.72,7.12c-0.04,0.03-0.07,0.06-0.11,0.1
			C8.56,7.27,8.5,7.32,8.45,7.37C8.42,7.4,8.39,7.42,8.36,7.45c0,0.06-0.03,0.11-0.07,0.15C7.88,8.07,7.58,8.61,7.36,9.19
			c-0.32,0.86-0.39,1.75-0.28,2.66c0.08,0.63,0.27,1.21,0.56,1.77c0.21,0.4,0.48,0.76,0.75,1.12c0.96,1.01,2.12,1.65,3.53,1.8
			c1.16,0.12,2.25-0.1,3.27-0.66c0.54-0.3,0.99-0.71,1.43-1.14c0.08-0.11,0.17-0.22,0.25-0.33C17.83,13.15,18.14,11.72,17.92,10.18z
			 M15.61,13.83c-0.89,1.01-2.04,1.49-3.38,1.4c-1.27-0.08-2.3-0.66-3.08-1.68c-0.01-0.02-0.01-0.04-0.02-0.06c0,0,0,0,0,0
			c-0.01-0.02-0.03-0.03-0.04-0.05c-0.45-0.6-0.68-1.29-0.73-2.02C8.27,10.13,8.69,9,9.64,8.09c0.66-0.64,1.46-1.01,2.38-1.12
			c0.99-0.12,1.89,0.11,2.72,0.62c0.06,0.04,0.11,0.09,0.17,0.13c0.04,0.01,0.05,0.04,0.05,0.08c0.03,0,0.04,0.02,0.04,0.04l0,0
			c0.09-0.02,0.15,0.05,0.2,0.1c0.83,0.75,1.32,1.66,1.42,2.78C16.72,11.92,16.39,12.95,15.61,13.83z"/>
		<path fill="#419AE7" d="M15.61,13.83c-0.89,1.01-2.04,1.49-3.38,1.4c-1.27-0.08-2.3-0.66-3.08-1.68
			c-0.01-0.02-0.01-0.04-0.02-0.06c0,0,0,0,0,0l0,0c0.35,0.16,0.69,0.36,1.07,0.47c1.37,0.39,2.63,0.19,3.76-0.69
			c0.93-0.72,1.46-1.69,1.59-2.85c0.08-0.75-0.04-1.48-0.37-2.16c-0.06-0.14-0.16-0.26-0.18-0.42c0.09-0.02,0.15,0.05,0.2,0.1
			c0.83,0.75,1.32,1.66,1.42,2.78C16.72,11.92,16.39,12.95,15.61,13.83z"/>
		<path fill="#419AE7" d="M14.96,7.81L14.96,7.81C14.96,7.81,14.96,7.81,14.96,7.81L14.96,7.81c-0.04-0.01-0.05-0.04-0.05-0.08
			C14.95,7.75,14.97,7.77,14.96,7.81z"/>
		<path fill="#419AE7" d="M15.01,7.85c-0.01-0.02-0.03-0.03-0.04-0.04l0,0c0,0,0,0,0,0C14.99,7.81,15,7.83,15.01,7.85z"/>
		<path fill="#69AFED" d="M15.56,10.43c-0.13,1.16-0.65,2.13-1.59,2.85c-1.13,0.88-2.39,1.08-3.76,0.69
			c-0.38-0.11-0.72-0.31-1.07-0.47l0,0c-0.01-0.02-0.03-0.03-0.04-0.05c-0.45-0.6-0.68-1.29-0.73-2.02C8.27,10.13,8.69,9,9.64,8.09
			c0.66-0.64,1.46-1.01,2.38-1.12c0.99-0.12,1.89,0.11,2.72,0.62c0.06,0.04,0.11,0.09,0.17,0.13c0,0.03,0.01,0.06,0.05,0.08l0,0
			c0.02,0.02,0.03,0.03,0.04,0.04l0,0c0.02,0.16,0.12,0.28,0.18,0.42C15.52,8.96,15.64,9.69,15.56,10.43z"/>
	</g>
</g>
<g id="Capa_2">
	<defs>
		<path id="SVGID_24_" d="M-1322.29,24.74v12.38c0,2.15,2.28,3.47,4.13,2.39l3.45-1.98c1.02-0.6,2.27-0.1,2.7,0.9v12.52
			c0,2.9-2.35,5.24-5.24,5.24h-43.93l-5.89,5.61c-1.43,1.35-4.07,1.35-5.49,0l-5.9-5.61h-3.52c-2.9,0-5.24-2.35-5.24-5.24V11.06
			c0-2.9,2.35-5.24,5.24-5.24h64.73c2.9,0,5.24,2.35,5.24,5.24v12.37c-0.42,1-1.68,1.5-2.7,0.9l-3.45-1.98
			C-1320,21.29-1322.29,22.63-1322.29,24.74z"/>
	</defs>
	<clipPath id="SVGID_2_">
		<use xlink:href="#SVGID_24_"  overflow="visible"/>
	</clipPath>
</g>
<g id="Capa_4">
	<defs>
		<path id="SVGID_26_" d="M-1151.99,24.74v12.38c0,2.15,2.28,3.47,4.13,2.39l3.45-1.98c1.02-0.6,2.27-0.1,2.7,0.9v12.52
			c0,2.9-2.35,5.24-5.24,5.24h-43.93l-5.89,5.61c-1.43,1.35-4.07,1.35-5.49,0l-5.9-5.61h-3.52c-2.9,0-5.24-2.35-5.24-5.24V11.06
			c0-2.9,2.35-5.24,5.24-5.24h64.73c2.9,0,5.24,2.35,5.24,5.24v12.37c-0.42,1-1.68,1.5-2.7,0.9l-3.45-1.98
			C-1149.71,21.29-1151.99,22.63-1151.99,24.74z"/>
	</defs>
	<clipPath id="SVGID_3_">
		<use xlink:href="#SVGID_26_"  overflow="visible"/>
	</clipPath>
</g>
<g id="Capa_3">
</g>
</svg>
