<?xml version="1.0" encoding="utf-8"?>
<!-- Generator: Adobe Illustrator 22.0.0, SVG Export Plug-In . SVG Version: 6.00 Build 0)  -->
<svg version="1.1" xmlns="http://www.w3.org/2000/svg" xmlns:xlink="http://www.w3.org/1999/xlink" x="0px" y="0px"
	 viewBox="0 0 160 120" enable-background="new 0 0 160 120" xml:space="preserve">
<g id="Capa_1">
	<g>
		<g>
			<path fill="#384667" d="M105.86,35.08v12.14c-1.87-1.63-4.32-2.6-7.03-2.6C92.86,44.62,88,49.44,88,55.37
				c0,5.93,4.86,10.76,10.83,10.76c2.72,0,5.17-0.97,7.03-2.6v18.42c0,0.21-0.17,0.39-0.39,0.39h-45.7c-0.21,0-0.39-0.17-0.39-0.39
				V35.08c0-0.21,0.17-0.39,0.39-0.39h45.7C105.69,34.69,105.86,34.87,105.86,35.08z"/>
			<g>
				<path fill="#4365A8" d="M83.41,77.36c-4.6,0-9.09-0.94-11.22-2.82c-0.83-0.73-0.91-1.99-0.18-2.82
					c0.73-0.83,1.99-0.91,2.82-0.18c2.7,2.38,14.36,2.62,18.13-0.26c0.88-0.67,2.13-0.5,2.8,0.38c0.67,0.88,0.5,2.13-0.38,2.8
					C92.86,76.39,88.08,77.36,83.41,77.36z"/>
			</g>
			<path fill="#384667" d="M70.94,82.11l0.34,0.34l0.16,0.15l7.41,7.06c1.77,1.66,5.02,1.66,6.77,0l7.42-7.06l0.16-0.15l0.34-0.34
				H70.94z"/>
			<path fill="#384667" d="M70.94,24.79l0.34,0.34l0.16,0.15l7.41,7.06c1.77,1.66,5.02,1.66,6.77,0l7.42-7.06l0.16-0.15l0.34-0.34
				H70.94z"/>
			<path fill="#0090D1" d="M113.81,53.22h-2.34c-0.6-3.6-2.69-6.7-5.6-8.63c-2.02-1.34-4.44-2.12-7.03-2.12
				c-6.26,0-11.5,4.43-12.72,10.3c-1.04-0.87-2.24-1.34-3.49-1.34s-2.45,0.47-3.49,1.34c-1.2-5.87-6.38-10.3-12.56-10.3
				c-2.66,0-5.13,0.8-7.19,2.17c-3.2,2.13-5.4,5.64-5.74,9.66h-2.2c-0.59,0-1.08,0.48-1.08,1.08s0.48,1.08,1.08,1.08h2.2
				c0.34,4.03,2.54,7.53,5.74,9.66c2.06,1.37,4.53,2.17,7.19,2.17c6.95,0,12.62-5.6,12.81-12.55c0.92-1.38,2.06-2.15,3.25-2.15
				c1.19,0,2.33,0.77,3.24,2.15c0.19,6.95,5.93,12.55,12.96,12.55c2.6,0,5.01-0.78,7.03-2.12c3.49-2.31,5.79-6.28,5.79-10.79h2.15
				c0.59,0,1.08-0.48,1.08-1.08C114.88,53.7,114.4,53.22,113.81,53.22z M66.57,66.13c-2.76,0-5.27-1.03-7.19-2.72
				c-2.24-1.97-3.64-4.85-3.64-8.04s1.41-6.07,3.64-8.04c1.91-1.69,4.43-2.72,7.19-2.72c5.99,0,10.68,4.72,10.68,10.75
				C77.25,61.4,72.56,66.13,66.57,66.13z M105.86,63.53c-1.87,1.63-4.32,2.6-7.03,2.6C92.86,66.13,88,61.3,88,55.37
				c0-5.93,4.86-10.75,10.83-10.75c2.72,0,5.17,0.97,7.03,2.6c2.25,1.96,3.64,4.86,3.64,8.15
				C109.51,58.67,108.11,61.57,105.86,63.53z"/>
			<path fill="#4365A8" d="M109.51,55.37c0,3.29-1.4,6.2-3.64,8.16c-1.87,1.63-4.32,2.6-7.03,2.6C92.86,66.13,88,61.3,88,55.37
				c0-5.93,4.86-10.75,10.83-10.75c2.72,0,5.17,0.97,7.03,2.6C108.11,49.18,109.51,52.08,109.51,55.37z"/>
			<path fill="#FFDCCF" d="M85.36,73.99C85.29,73.99,85.44,73.99,85.36,73.99L85.36,73.99z"/>
			<path fill="#08426D" d="M85.26,80.39l-4.8,8h-7.2c-2.64,0-4.8-2.16-4.8-4.8v-3.2H85.26z"/>
			<path fill="#7DC8FF" d="M82.06,40.41h-4.8V95.1h4.8c1.76,0,3.2-1.44,3.2-3.2V43.61C85.26,41.85,83.82,40.41,82.06,40.41z"/>
			<path fill="#BAE2FF" d="M80.46,91.9V43.61c0-1.76-1.44-3.2-3.2-3.2H53.51c-1.76,0-3.2,1.44-3.2,3.2V91.9c0,1.76,1.44,3.2,3.2,3.2
				h23.75C79.02,95.1,80.46,93.66,80.46,91.9z"/>
			<circle fill="#384667" cx="67.78" cy="47.6" r="2.4"/>
			<g>
				<path fill="#384667" d="M53.51,72.39h-3.2c-1.77,0-3.2,1.43-3.2,3.2c0,1.77,1.43,3.2,3.2,3.2h3.2c1.77,0,3.2-1.43,3.2-3.2
					C56.71,73.82,55.28,72.39,53.51,72.39z"/>
				<path fill="#384667" d="M53.51,65.99h-3.2c-1.77,0-3.2,1.43-3.2,3.2c0,1.77,1.43,3.2,3.2,3.2h3.2c1.77,0,3.2-1.43,3.2-3.2
					C56.71,67.43,55.28,65.99,53.51,65.99z"/>
				<path fill="#384667" d="M53.51,78.79h-3.2c-1.77,0-3.2,1.43-3.2,3.2c0,1.77,1.43,3.2,3.2,3.2h3.2c1.77,0,3.2-1.43,3.2-3.2
					C56.71,80.22,55.28,78.79,53.51,78.79z"/>
			</g>
			<path fill="#7DC8FF" d="M67.78,44.01c-1.98,0-3.6,1.61-3.6,3.6c0,1.98,1.61,3.6,3.6,3.6c1.98,0,3.6-1.61,3.6-3.6
				C71.38,45.62,69.77,44.01,67.78,44.01z M67.78,48.8c-0.66,0-1.2-0.54-1.2-1.2s0.54-1.2,1.2-1.2s1.2,0.54,1.2,1.2
				S68.45,48.8,67.78,48.8z"/>
			<g>
				<path fill="#FFFFFF" d="M100.68,63.92c-0.19,0-0.38-0.07-0.53-0.22c-0.29-0.29-0.29-0.77,0-1.06l6.87-6.87
					c0.29-0.29,0.77-0.29,1.06,0s0.29,0.77,0,1.06l-6.87,6.87C101.07,63.85,100.88,63.92,100.68,63.92z"/>
			</g>
			<g>
				<path fill="#FFFFFF" d="M95.75,64.79c-0.19,0-0.39-0.07-0.53-0.22c-0.29-0.29-0.29-0.77,0-1.06l11.92-11.82
					c0.3-0.29,0.77-0.29,1.06,0c0.29,0.29,0.29,0.77,0,1.06L96.28,64.57C96.13,64.72,95.94,64.79,95.75,64.79z"/>
			</g>
		</g>
		<g>
			<path fill="#4365A8" d="M135.93,30.95c0.01,0.69-0.23,1.45-0.37,1.64c-0.68,1.01-1.68,1.43-2.76,1.13
				c-1.15-0.32-1.86-1.21-1.88-2.43c-0.02-1.76,0-3.51-0.01-5.27c-0.02-8.83-7.23-15.98-16.06-16c-1.59,0-3.18,0-4.78,0
				c-1.6,0-2.5-0.6-2.86-1.89c-0.34-1.22,0.1-2.08,1.51-2.96c0.08-0.05,8.88-0.01,9.15,0.03c8.48,1.08,15.43,7.3,17.44,15.64
				c0.25,1.06,0.45,2.13,0.68,3.2c0,0.02,0.01,0.04,0.01,0.06C136,26.74,135.93,28.31,135.93,30.95z"/>
			<path fill="#4365A8" d="M136,95.87c-0.28,1.29-0.49,2.59-0.85,3.85c-2.32,8.23-9.06,14.05-17.58,14.99
				c-2.66,0.29-5.36,0.19-8.04,0.19c-1.36,0-2.45-1.21-2.44-2.51c0.01-1.29,1.13-2.44,2.5-2.46c1.93-0.04,3.87,0,5.8-0.01
				c7.68-0.06,14.33-5.82,15.3-13.44c0.3-2.36,0.19-4.78,0.23-7.18c0.03-1.82,0.55-2.71,1.89-3.08c1.24-0.35,2.03,0.07,3.02,1.6
				c0.03,0.05,0.15,0.73,0.16,0.93C135.99,91.4,136,93.22,136,95.87z"/>
			<path fill="#4365A8" d="M52.48,5.14c0.08,0,0.16,0.02,0.23,0.05c1.07,0.52,2.06,0.9,2,2.37c-0.06,1.49-1.06,2.41-2.81,2.44
				c-1.9,0.03-3.8,0-5.7,0.01c-7.11,0.03-13.87,5.7-14.91,12.75c-0.37,2.53-0.19,5.14-0.28,7.71c-0.02,0.53-0.06,1.08-0.2,1.59
				c-0.3,1.07-1.14,1.64-2.29,1.64c-1.06,0-1.98-0.72-2.31-1.72c-0.05-0.15-0.11-0.31-0.12-0.46c-0.33-6.57-0.05-12.99,4.35-18.44
				c3.74-4.62,8.5-7.34,14.47-7.87C45.26,5.17,52.48,5.14,52.48,5.14z"/>
			<path fill="#4365A8" d="M31.02,92.95c-0.31,3.31,0.44,6.94,2.71,10.13c3.15,4.42,7.42,6.82,12.92,6.85
				c1.76,0.01,3.51-0.02,5.27,0.01c1.66,0.03,2.69,0.89,2.78,2.23c0.1,1.47-0.65,2.57-2.19,2.65c-5.61,0.29-11.2,0.29-16.22-2.83
				c-5.99-3.71-9.48-9.01-10.07-16.08c-0.19-2.31-0.18-4.65-0.17-6.97c0.01-1.81,1.09-2.81,2.74-2.69c1.31,0.09,2.16,1.1,2.21,2.69
				C31.05,90.09,31.02,91.24,31.02,92.95z"/>
		</g>
		<path fill="#D9F1FF" d="M34.14,31.18h-0.38c0.06,0,0.13-0.01,0.19-0.01c-0.02,0-0.04,0-0.06,0h0.12
			c5.53-0.13,9.99-4.54,10.21-10.04h0.04c0.22,5.51,4.68,9.91,10.21,10.04h0.38c-0.06,0-0.12,0.01-0.19,0.01c0.02,0,0.04,0,0.06,0
			h-0.12c-5.53,0.13-9.99,4.54-10.21,10.04h-0.04C44.13,35.71,39.67,31.3,34.14,31.18"/>
		<path fill="#7DC8FF" d="M28.36,44.55h-0.28c0.05,0,0.09-0.01,0.14-0.01c-0.01,0-0.03,0-0.04,0h0.08c4.06-0.1,7.34-3.33,7.5-7.38
			h0.03c0.16,4.05,3.44,7.28,7.5,7.38h0.28c-0.05,0-0.09,0.01-0.14,0.01c0.01,0,0.03,0,0.04,0h-0.09c-4.06,0.09-7.34,3.33-7.5,7.38
			h-0.03C35.7,47.88,32.42,44.65,28.36,44.55"/>
	</g>
</g>
<g id="Capa_2">
	<defs>
		<path id="SVGID_24_" d="M-1362.76-58.33v12.38c0,2.15,2.28,3.47,4.13,2.39l3.45-1.98c1.02-0.6,2.27-0.1,2.7,0.9v12.52
			c0,2.9-2.35,5.24-5.24,5.24h-43.93l-5.89,5.61c-1.43,1.35-4.07,1.35-5.49,0l-5.9-5.61h-3.52c-2.9,0-5.24-2.35-5.24-5.24v-39.89
			c0-2.9,2.35-5.24,5.24-5.24h64.73c2.9,0,5.24,2.35,5.24,5.24v12.37c-0.42,1-1.68,1.5-2.7,0.9l-3.45-1.98
			C-1360.48-61.78-1362.76-60.44-1362.76-58.33z"/>
	</defs>
	<clipPath id="SVGID_2_">
		<use xlink:href="#SVGID_24_"  overflow="visible"/>
	</clipPath>
</g>
<g id="Capa_4">
	<defs>
		<path id="SVGID_26_" d="M-1192.47-58.33v12.38c0,2.15,2.28,3.47,4.13,2.39l3.45-1.98c1.02-0.6,2.27-0.1,2.7,0.9v12.52
			c0,2.9-2.35,5.24-5.24,5.24h-43.93l-5.89,5.61c-1.43,1.35-4.07,1.35-5.49,0l-5.9-5.61h-3.52c-2.9,0-5.24-2.35-5.24-5.24v-39.89
			c0-2.9,2.35-5.24,5.24-5.24h64.73c2.9,0,5.24,2.35,5.24,5.24v12.37c-0.42,1-1.68,1.5-2.7,0.9l-3.45-1.98
			C-1190.18-61.78-1192.47-60.44-1192.47-58.33z"/>
	</defs>
	<clipPath id="SVGID_3_">
		<use xlink:href="#SVGID_26_"  overflow="visible"/>
	</clipPath>
</g>
<g id="Capa_3">
</g>
</svg>
