<?xml version="1.0" encoding="utf-8"?>
<!-- Generator: Adobe Illustrator 22.0.0, SVG Export Plug-In . SVG Version: 6.00 Build 0)  -->
<svg version="1.1" id="Capa_1" xmlns="http://www.w3.org/2000/svg" xmlns:xlink="http://www.w3.org/1999/xlink" x="0px" y="0px"
	 viewBox="0 0 47.67 58.19" enable-background="new 0 0 47.67 58.19" xml:space="preserve">
<g>
	<path fill="#FEC048" d="M22.49,41.09l0.24,0.24l0.12,0.11l5.24,4.99c1.25,1.17,3.55,1.17,4.79,0l5.25-4.99l0.12-0.11l0.24-0.24
		H22.49z"/>
	<path fill="#FEC048" d="M44.19,7.56H16.78c-0.99,0-1.79,0.8-1.79,1.79v30.11c0,0.99,0.8,1.79,1.79,1.79h27.42
		c0.99,0,1.79-0.8,1.79-1.79V9.35C45.98,8.36,45.18,7.56,44.19,7.56z"/>
	<circle fill="#FFFFFF" cx="40.31" cy="14.67" r="2.05"/>
	<circle fill="#FFFFFF" cx="20.66" cy="14.67" r="2.05"/>
	<ellipse fill="#A7A9AC" cx="30.49" cy="53.8" rx="9.78" ry="2.05"/>
	<g>
		<path fill="#FEC048" d="M19.32,34.11c-8.34,0-14.88-9.5-14.88-21.63c0-1.1,0.9-2,2-2s2,0.9,2,2c0,9.55,4.98,17.63,10.87,17.63
			c1.1,0,2,0.9,2,2S20.42,34.11,19.32,34.11z"/>
	</g>
	<path fill="#FEC048" d="M12.71,9.87c-0.1,0.23-0.26,0.39-0.43,0.52c-0.46,0.39-0.97,0.7-1.45,1c-0.52,0.32-1.02,0.62-1.45,1
		l-0.2,0.18c-0.45,0.4-0.87,0.77-1.56,1.01c-0.49,0.18-1.01,0.27-1.53,0.27c-0.62,0-1.2-0.13-1.73-0.37
		c-0.44-0.2-0.84-0.49-1.18-0.84c-0.56-0.59-0.82-1.21-1.07-1.9c-0.4-1.07-0.49-2.15-0.26-3.22c0.2-0.96,0.81-1.57,1.72-1.71
		C4,5.74,4.43,5.71,4.84,5.69l0.38-0.02c0.1-0.01,0.21-0.01,0.31-0.01h0.09c0.04-0.2,0.1-0.56,0.18-1.17l0.05-0.34
		c0.1-0.62,0.23-1.46,0.82-1.93c0.18-0.14,0.38-0.23,0.61-0.27c0.09-0.02,0.17-0.03,0.26-0.03c0.37,0,0.73,0.15,1.01,0.39
		C9.26,2.94,9.22,3.99,9.2,4.77L9.19,4.99C9.17,5.7,9.14,6.41,9.12,7.13L9.07,8.28c0.04-0.02,0.08-0.03,0.12-0.05
		C9.72,8,10.32,7.88,10.88,7.88c0.32,0,0.62,0.04,0.9,0.12c0.36,0.1,0.63,0.27,0.78,0.52c0.1,0.16,0.13,0.31,0.16,0.43
		C12.77,9.16,12.86,9.52,12.71,9.87z"/>
</g>
<line fill="none" stroke="#FFFFFF" stroke-width="2" stroke-linecap="round" stroke-miterlimit="10" x1="27.61" y1="19.56" x2="33.54" y2="19.56"/>
</svg>
