<svg id="Capa_1" data-name="Capa 1" xmlns="http://www.w3.org/2000/svg" viewBox="0 0 36 50">
  <title>iconos_svg</title>
  <g>
    <ellipse cx="18" cy="47.14" rx="9.78" ry="2.05" fill="#a7a9ab"/>
    <g>
      <path d="M9.2,34.3l.26.25.12.12L15.16,40a3.92,3.92,0,0,0,5.09,0l5.59-5.31.12-.12.26-.25Z" fill="#6e6f72"/>
      <path d="M35.5,2.5V33.12a1.74,1.74,0,0,1-1.79,1.69H2.29A1.74,1.74,0,0,1,.5,33.12V2.5A1.74,1.74,0,0,1,2.29.81H9.2l.26.24.12.1L15.16,6.2a4.1,4.1,0,0,0,5.09,0l5.59-5.05.12-.1.26-.24h7.49A1.74,1.74,0,0,1,35.5,2.5Z" fill="#6e6f72"/>
      <g>
        <path d="M23.43,24.57a2.72,2.72,0,0,0,5.43,0" fill="none" stroke="#fff" stroke-linecap="round" stroke-miterlimit="10"/>
        <path d="M6.56,24.57a2.72,2.72,0,0,0,5.43,0" fill="none" stroke="#fff" stroke-linecap="round" stroke-miterlimit="10"/>
      </g>
      <line x1="16.27" y1="27.7" x2="19.16" y2="27.7" fill="none" stroke="#fff" stroke-linecap="round" stroke-miterlimit="10"/>
    </g>
  </g>
</svg>
