<svg id="Capa_1" data-name="Capa 1" xmlns="http://www.w3.org/2000/svg" viewBox="0 0 50 72">
  <title>iconos_svg</title>
  <g>
    <path d="M32.93,57.13l-.24.24-.12.11-5.24,5a3.69,3.69,0,0,1-4.78,0l-5.25-5-.12-.11-.24-.24Z" fill="#c162a2"/>
    <rect x="11.88" y="7.68" width="26.11" height="49.84" rx="1.79" ry="1.79" transform="translate(49.87 65.21) rotate(-180)" fill="#c162a2"/>
    <path d="M30.08,6.62a1.18,1.18,0,0,1-1-1.78l1.23-2.15A1.71,1.71,0,0,0,28.8.12H21.08a1.7,1.7,0,0,0-1.49,2.57l1.23,2.15a1.18,1.18,0,0,1-1,1.78" fill="#c162a2"/>
    <ellipse cx="25" cy="69.84" rx="24.81" ry="2.05" fill="#d1d2d4"/>
    <circle cx="43.83" cy="11.51" r="2.62" fill="#c162a2"/>
    <path d="M8.27,24.8a5.25,5.25,0,0,0,0,7.41,5.24,5.24,0,0,0-7.41,0,5.23,5.23,0,0,0,0-7.41A5.25,5.25,0,0,0,8.27,24.8Z" fill="#c162a2"/>
    <g>
      <g>
        <g>
          <line x1="21.38" y1="16.22" x2="18.81" y2="12.82" fill="none" stroke="#fff" stroke-linecap="round" stroke-miterlimit="10" stroke-width="1.5"/>
          <line x1="16.26" y1="16.22" x2="18.83" y2="12.82" fill="none" stroke="#fff" stroke-linecap="round" stroke-miterlimit="10" stroke-width="1.5"/>
        </g>
        <g>
          <line x1="33.61" y1="16.22" x2="31.04" y2="12.82" fill="none" stroke="#fff" stroke-linecap="round" stroke-miterlimit="10" stroke-width="1.5"/>
          <line x1="28.49" y1="16.22" x2="31.06" y2="12.82" fill="none" stroke="#fff" stroke-linecap="round" stroke-miterlimit="10" stroke-width="1.5"/>
        </g>
      </g>
      <path d="M18.17,18.57a7,7,0,0,0,14.08,0Z" fill="#fff"/>
    </g>
  </g>
</svg>
