<svg id="Capa_1" data-name="Capa 1" xmlns="http://www.w3.org/2000/svg" viewBox="0 0 52 54">
  <title>iconos_svg</title>
  <g>
    <g>
      <path d="M44.94,45.24a1.18,1.18,0,0,1,1.77-1l2.15,1.23A1.72,1.72,0,0,0,51.44,44V36.24a1.71,1.71,0,0,0-2.58-1.49L46.71,36a1.18,1.18,0,0,1-1.77-1" fill="#e5867b"/>
      <path d="M44.94,15.09a1.17,1.17,0,0,1,1.77-1l2.15,1.23a1.72,1.72,0,0,0,2.58-1.49V6.09A1.71,1.71,0,0,0,48.86,4.6L46.71,5.83a1.17,1.17,0,0,1-1.77-1" fill="#e5867b"/>
    </g>
    <ellipse cx="25.74" cy="51.74" rx="24.81" ry="2.05" fill="#d1d2d4"/>
    <rect x="-2.06" y="2.83" width="49.62" height="44.37" rx="1.79" ry="1.79" transform="translate(-2.27 47.77) rotate(-90)" fill="#e5867b"/>
    <path d="M21.77,27.69a2.67,2.67,0,0,0,0-5.34Z" fill="#fff"/>
    <g>
      <circle cx="19.31" cy="36.85" r="6.43" fill="#fff"/>
      <circle cx="19.31" cy="13.19" r="6.43" fill="#fff"/>
    </g>
  </g>
</svg>
