<svg id="Capa_1" data-name="Capa 1" xmlns="http://www.w3.org/2000/svg" viewBox="0 0 160 120">
  <title>iconos_svg_v1</title>
  <g>
    <g>
      <path d="M139.62,61.7a2.23,2.23,0,0,1,3.16-.69l8.09,5a2.25,2.25,0,0,1,.78,3.14l-1.31,2.09,1.46.91,1.3-2.09a4,4,0,0,0-1.32-5.51l-8.09-5a4,4,0,0,0-5.53,1.24l-1.31,2.1,1.46.9Z" fill="#d1d2d4"/>
      <path d="M130,113.14h20.31a3.65,3.65,0,0,0,3.47-3.86V82.77H126.5v26.51A3.65,3.65,0,0,0,130,113.14Zm15.63-26.27a.86.86,0,1,1,1.71,0v20.28a.86.86,0,1,1-1.71,0Zm-6.34,0a.86.86,0,1,1,1.72,0v20.28a.86.86,0,1,1-1.72,0Zm-6.33,0a.86.86,0,0,1,1.72,0v20.28a.86.86,0,0,1-1.72,0Z" fill="#d1d2d4"/>
      <path d="M129.28,64.24l24.64,15.34a2.14,2.14,0,1,0,2.27-3.64L131.55,60.6a2.14,2.14,0,0,0-2.27,3.64Z" fill="#d1d2d4"/>
    </g>
    <rect x="48.46" y="78.14" width="4.45" height="12.18" rx="2.23" ry="2.23" fill="#e5867b" stroke="#fff" stroke-miterlimit="10" stroke-width="0.75"/>
    <rect x="69.54" y="78.14" width="4.45" height="12.18" rx="2.23" ry="2.23" fill="#e5867b" stroke="#fff" stroke-miterlimit="10" stroke-width="0.75"/>
    <path d="M82.59,78.35l0-26.68,0-7.17V35.16A2.14,2.14,0,0,0,80.38,33h-16a1.43,1.43,0,0,0-1.24,2.15l1.5,2.61A2.1,2.1,0,0,1,62.8,41H53.41a2.09,2.09,0,0,1-1.81-3.15l1.49-2.6a1.44,1.44,0,0,0-1.23-2.16l-9.14,0a2.15,2.15,0,0,0-2.15,2.15l.07,43.19a2.12,2.12,0,0,0,2.15,2.13l37.66,0A2.14,2.14,0,0,0,82.59,78.35Z" fill="#e5867b"/>
    <circle cx="62.23" cy="72.83" r="4.47" fill="#fff"/>
    <g>
      <circle cx="47.4" cy="67.36" r="2.13" fill="#fff"/>
      <circle cx="77.06" cy="67.36" r="2.13" fill="#fff"/>
    </g>
    <path d="M58,108.59a.8.8,0,0,0,0,1.25l1.68,1.37,0,0,.09.06V113a1.14,1.14,0,0,0,0,.37h0a.9.9,0,0,1-.9.9H30a.9.9,0,0,1-.9-.9v-1.86a.51.51,0,0,0-.76-.44l-.92.53a.74.74,0,0,1-1.11-.64v-3.31a.74.74,0,0,1,1.11-.64l.92.53a.51.51,0,0,0,.76-.44v-1.87a.9.9,0,0,1,.9-.9H59a.9.9,0,0,1,.9.9v0a1.14,1.14,0,0,0,0,.37v1.53l-.09.06,0,0Z" fill="#fcc865"/>
    <path d="M90.69,93.37v7A1.63,1.63,0,0,1,89.06,102H60.65A1.63,1.63,0,0,1,59,100.36V99L57.46,97.7a1.16,1.16,0,0,1-.43-.9,1.2,1.2,0,0,1,.43-.91L59,94.63V93.37a1.63,1.63,0,0,1,1.63-1.63H89.06A1.63,1.63,0,0,1,90.69,93.37Z" fill="#375179"/>
    <path d="M39.38,91.38l-.52,3.17a.71.71,0,0,0,1,.79l1-.37a.5.5,0,0,1,.66.54l-.31,1.89a.9.9,0,0,1-1,.74L7,92.72a.9.9,0,0,1-.74-1l.49-3a1,1,0,0,0-.54-.4l-.2,0a.89.89,0,0,0-.63.2h0l0,0h0a1.54,1.54,0,1,1,.34-2.07l0,0h0a.93.93,0,0,0,.53.4l.2,0a.93.93,0,0,0,.64-.2l.49-3a.9.9,0,0,1,1-.74l33.16,5.42a.89.89,0,0,1,.73,1l-.3,1.89a.5.5,0,0,1-.8.3l-.8-.66A.72.72,0,0,0,39.38,91.38Z" fill="#2faf7d"/>
    <path d="M93.83,9.25l.33,3.2a.71.71,0,0,0,1.13.51l.83-.61a.5.5,0,0,1,.78.36l.19,1.9a.89.89,0,0,1-.8,1L55,19a.9.9,0,0,1-1-.8l-.3-3a.91.91,0,0,0-.63-.25l-.19,0a.93.93,0,0,0-.56.36h0l0,0h0a1.55,1.55,0,0,1-2.75-.6,1.55,1.55,0,0,1,2.54-1.49l0,0h0a.94.94,0,0,0,.62.24l.2,0a.89.89,0,0,0,.56-.36l-.3-3a.9.9,0,0,1,.8-1L95.3,5.75a.9.9,0,0,1,1,.8l.19,1.9a.49.49,0,0,1-.69.5l-.94-.42A.72.72,0,0,0,93.83,9.25Z" fill="#0085bf"/>
    <path d="M82.89,59.15a2.36,2.36,0,0,1-.09-4.71l11.3-.95-1-38a2.36,2.36,0,0,1,4.71-.13l1.05,40.34a2.35,2.35,0,0,1-2.26,2.41L83,59.15Z" fill="#e5867b" stroke="#fff" stroke-miterlimit="10" stroke-width="0.75"/>
    <path d="M43,62.5a2.36,2.36,0,0,1,0-4.71l7.38-.87-.56-38a2.36,2.36,0,1,1,4.71-.07l.6,40.34a2.36,2.36,0,0,1-2.29,2.39l-9.7.94Z" fill="#e5867b" stroke="#fff" stroke-miterlimit="10" stroke-width="0.75"/>
  </g>
</svg>
