<svg xmlns="http://www.w3.org/2000/svg" viewBox="0 0 78.2 23.16">
    <title>serial_on_v0</title>
    <g id="Capa_2" data-name="Capa 2">
        <g id="Capa_2-2" data-name="Capa 2">
            <path class="cls-1" d="M74.05,10a1.87,1.87,0,0,0,0,2.91L78,16.06l.08.07.15.12v3.91a3,3,0,0,1-3,3H9.5a3,3,0,0,1-3-3V16.71a1.18,1.18,0,0,0-1.77-1L2.58,16.93A1.71,1.71,0,0,1,0,15.44V7.71A1.73,1.73,0,0,1,2.58,6.22L4.73,7.46a1.18,1.18,0,0,0,1.77-1V3a3,3,0,0,1,3-3H75.2a3,3,0,0,1,3,3V6.6l-.15.11L78,6.78Z"/>
        </g>
    </g>
</svg>