<?xml version="1.0" encoding="utf-8"?>
<!-- Generator: Adobe Illustrator 22.0.0, SVG Export Plug-In . SVG Version: 6.00 Build 0)  -->
<svg version="1.1" id="Capa_1" xmlns="http://www.w3.org/2000/svg" xmlns:xlink="http://www.w3.org/1999/xlink" x="0px" y="0px"
	 viewBox="0 0 98.17 96.89" enable-background="new 0 0 98.17 96.89" xml:space="preserve">
<g>
	<g>
		<defs>
			<path id="SVGID_1_" d="M-344.89-7.35v124.35c0,5.66-4.56,10.28-10.32,10.63c-0.09,0.01-0.18,0.01-0.28,0.01
				c-0.14,0-0.28,0.01-0.43,0.01h-118.27c-0.14,0-0.28,0-0.43-0.01c-0.09,0-0.18-0.01-0.28-0.01c-5.76-0.35-10.32-4.98-10.32-10.63
				V-7.35c0-0.18,0.01-0.37,0.01-0.55c0-0.05,0-0.09,0.01-0.14c0.33-4.99,4.21-9.05,9.22-9.83h0c0.58-0.09,1.17-0.14,1.77-0.14
				h118.27c5.85,0,10.64,4.41,11,9.98c0.01,0.09,0.01,0.18,0.01,0.27c0,0.07,0,0.14,0.01,0.21C-344.89-7.49-344.89-7.42-344.89-7.35
				"/>
		</defs>
		<clipPath id="SVGID_2_">
			<use xlink:href="#SVGID_1_"  overflow="visible"/>
		</clipPath>
		<polygon clip-path="url(#SVGID_2_)" fill="#FFFFFF" points="473.08,-240.12 473.08,-240.16 -492.05,-240.16 -492.05,603.93 
			473.11,603.93 473.11,-240.16 473.08,-240.16 473.08,-240.12 473.04,-240.12 473.04,603.86 -491.97,603.86 -491.97,-240.09 
			473.08,-240.09 473.08,-240.12 473.04,-240.12 		"/>
	</g>
</g>
<g>
	<path fill="#F1F2F1" stroke="#FFFFFF" stroke-miterlimit="10" d="M73.86,70.1c-0.21,0.23-0.42,0.45-0.64,0.68
		c-2.37,2.41-6.31,2.24-8.44-0.37c-1.8-2.19-1.74-4.83,0.17-7.52c0.55-0.29,0.74-0.68,0.69-1.35c-0.28-3.5-1.09-6.88-2.16-10.2
		c-1.81-5.65-4.09-11.07-8.03-15.64c1.12-1.62,1.06-2.01-0.48-3.3c-0.57-0.48-1.15-0.94-1.73-1.42c2.36-1.13,2.4-4.62,1.33-6.18
		c-1.17-1.72-3.11-1.72-4.23,0.04c-0.76,1.19-0.74,2.49-0.54,3.81c-0.08,0.05-0.19,0.17-0.22,0.15c-1.4-0.94-2.87-0.88-4.39-0.36
		c0.35-1.46,0.14-2.81-0.82-3.98c-1.03-1.27-2.61-1.27-3.66-0.02c-1.78,2.12-1,5.73,1.09,6.54c-0.22,0.21-0.45,0.42-0.66,0.65
		c-2.23,2.53-2.87,2.3,0.24,4.93c-2.37,2.94-4.08,6.25-5.49,9.73c-1.94,4.77-3.38,9.67-3.92,14.81c-0.04,0.41-0.11,0.81,0.23,1.17
		c2.69,2.86,5.38,5.71,9,7.45c1.7,0.82,1.74,2.04,0.15,3.08c-0.49,0.33-1.03,0.58-1.61,0.69c-0.67,0.14-1.34,0.26-2.01,0.39
		c-0.81-1.28-1.61-2.56-2.43-3.84c-1.3-2.05-2.58-4.11-3.93-6.13c-1.03-1.53-2.82-1.49-3.86,0.03c-0.23,0.34-0.45,0.7-0.67,1.04
		c-0.33-3.4-0.35-6.78,0.5-10.13c0.95-3.73,2.68-7.05,5.23-9.93c1.81-2.04,3.36-4.22,4.24-6.84c1.18-3.51,0.9-7.01,0.22-10.58
		c-1.3-6.82,3.29-13.3,10.11-14.45c4.61-0.78,8.37,0.77,11.45,4.17c0.3,0.33,0.6,0.67,0.9,1c0.06,0.09,0.11,0.17,0.17,0.26
		c0,0.01,0.01,0.01,0.01,0.02l-0.02-0.02c0.05,0.16,0.09,0.33,0.28,0.39l-0.01,0c1.75,3.07,1.82,6.35,1.5,9.77
		c-0.5,5.37,1.17,10.05,5.08,13.84c4.31,4.18,6.61,9.33,7.34,15.21c0.21,1.68,0.19,3.4-0.05,5.09c-0.04,0.28-0.11,0.52,0.06,0.8
		C75.21,65.77,75.05,67.93,73.86,70.1z"/>
	<path fill="#F1F2F1" stroke="#FFFFFF" stroke-miterlimit="10" d="M37.07,85.65c-0.45,0-0.95-0.05-1.47-0.16
		c-4.06-0.82-8.19-1.59-12.19-2.33c-1.66-0.31-3.32-0.62-4.98-0.93c-1.01-0.53-1.62-1.18-1.81-1.92c-0.19-0.75,0.05-1.6,0.7-2.53
		c1.02-1.45,1.65-3.02,1.88-4.66c0.27-1.89,1.28-3.03,3.18-3.58c2.03-0.59,3.56-1.96,4.81-4.31c0.07-0.11,0.14-0.23,0.22-0.34
		c0.14-0.23,0.29-0.46,0.44-0.68c0.43-0.62,1.01-0.98,1.62-0.98c0.59,0,1.15,0.34,1.55,0.95c0.99,1.48,1.96,3.01,2.9,4.49
		c0.34,0.54,0.69,1.08,1.03,1.62c0.59,0.93,1.18,1.87,1.77,2.8l0.65,1.04c0.95,1.48,1.9,2.96,2.85,4.43l0.02,0.04l0.03,0.03
		c0.04,0.04,0.09,0.09,0.14,0.13c1.07,1.73,1.23,3.25,0.49,4.76C39.93,84.97,38.71,85.65,37.07,85.65z"/>
	<path fill="#F1F2F1" stroke="#FFFFFF" stroke-miterlimit="10" d="M59.92,18.89c-0.19-0.06-0.23-0.23-0.28-0.39
		C59.91,18.51,59.94,18.69,59.92,18.89z"/>
	<path fill="#F1F2F1" stroke="#FFFFFF" stroke-miterlimit="10" d="M59.67,18.52c-0.06-0.09-0.12-0.18-0.18-0.28
		C59.62,18.29,59.69,18.38,59.67,18.52z"/>
	<path fill="#F1F2F1" stroke="#FFFFFF" stroke-miterlimit="10" d="M57.04,85.68c-1.65,0-2.92-0.83-3.88-2.53
		c-0.25-1.01-0.26-2.02-0.04-3.03l2.76-4.36c2.42-3.82,4.92-7.77,7.39-11.64c0.23-0.36,0.51-0.6,0.85-0.72
		c-1.52,2.58-1.41,5.14,0.34,7.27c1.16,1.41,2.87,2.22,4.71,2.22c1.65,0,3.2-0.65,4.36-1.83c0.13-0.13,0.25-0.26,0.37-0.39
		c0.6,0.58,0.96,1.28,1.07,2.11c0.26,1.87,0.91,3.52,1.99,5.06c0.7,1,0.9,2.01,0.57,2.83c-0.33,0.82-1.18,1.4-2.38,1.64
		c-4.5,0.89-9.08,1.75-13.5,2.59l-3.53,0.67C57.73,85.65,57.37,85.68,57.04,85.68z"/>
	<path fill="#F1F2F1" stroke="#FFFFFF" stroke-miterlimit="10" d="M41.96,83.12c0.4-1.24,0.29-2.52-0.32-3.85
		c2.12,0.93,4.13,1.42,6.16,1.48c0.39,0.05,0.79,0.07,1.21,0.07c1.08,0,2.15-0.16,3.19-0.34c-0.12,0.78-0.11,1.57,0.03,2.35
		c-0.25-0.03-0.49-0.06-0.74-0.09c-1.23-0.15-2.5-0.31-3.78-0.33c-0.1,0-0.2,0-0.3,0C45.75,82.41,44,82.64,41.96,83.12z"/>
	<path fill="#F1F2F1" stroke="#FFFFFF" stroke-miterlimit="10" d="M49.01,79.98c-0.39,0-0.76-0.02-1.12-0.07l-0.02,0
		c-1.97-0.06-3.93-0.54-5.99-1.46c-0.06-0.03-0.12-0.06-0.18-0.09l-0.02-0.01c-0.15-0.08-0.32-0.18-0.52-0.23l-0.1-0.03l-0.09-0.06
		l-0.12-0.07l-0.09-0.13l-2.34-3.64l0.9-0.18c0.17-0.03,0.34-0.07,0.51-0.1c0.59-0.12,1.18-0.37,1.76-0.76
		c0.93-0.61,1.39-1.31,1.34-2.03c-0.05-0.7-0.58-1.32-1.55-1.78c-3.56-1.7-6.25-4.57-8.86-7.34l-0.16-0.17l-0.01-0.24
		c0-0.1,0.01-0.22,0.03-0.37l0.01-0.08c0.48-4.63,1.75-9.43,3.89-14.69c1.48-3.63,3.02-6.45,4.84-8.87l0.35-0.46l0.49,0.31
		c1.82,1.15,3.63,2.21,5.86,2.39l0.05,0l0.09-0.01c0.61-0.09,1.3-0.2,1.94-0.43c1.81-0.64,3.51-1.56,5.03-2.71l0.49-0.37l0.38,0.48
		c3.82,4.76,5.9,10.36,7.29,14.71c1.21,3.77,1.88,6.98,2.14,10.1c0.01,0.13,0.01,0.23,0,0.33l-0.06,0.54l-0.54,0.02
		c-0.86,0.03-1.57,0.45-2.05,1.21c-2.48,3.89-4.96,7.81-7.36,11.61l-2.72,4.3l-0.27,0.05C51.23,79.8,50.1,79.98,49.01,79.98
		L49.01,79.98z"/>
	<path fill="#F1F2F1" stroke="#FFFFFF" stroke-miterlimit="10" d="M51.21,29.5h-0.02c0,0,0-0.01,0-0.01L51.21,29.5z"/>
	<path fill="#F1F2F1" stroke="#FFFFFF" stroke-miterlimit="10" d="M47.83,38.99c-2.2-0.19-3.98-1.33-5.86-2.53l-0.34-0.22
		c-1.13-0.96-1.93-1.67-1.95-2.09c-0.02-0.29,0.38-0.71,0.97-1.35c0.24-0.25,0.51-0.54,0.81-0.88c0.13-0.14,0.27-0.28,0.42-0.42
		c0.07-0.07,0.15-0.14,0.22-0.21c0.1-0.09,0.19-0.19,0.29-0.28l0.13-0.13c0.14-0.11,0.29-0.22,0.44-0.33
		c0.35-0.24,0.73-0.51,1.02-0.92c0.53-0.14,1.01-0.42,1.43-0.82c0.65-0.21,1.23-0.32,1.77-0.32c0.79,0,1.49,0.22,2.16,0.66
		l0.11,0.07l0.13,0c0.05,0,0.09-0.01,0.13-0.02c0.28,0.31,0.65,0.59,1.16,0.67c0.06,0.08,0.15,0.15,0.29,0.21
		c0.4,0.35,0.79,0.61,1.2,0.8c0.18,0.26,0.44,0.39,0.67,0.46c0.18,0.15,0.36,0.29,0.53,0.44c0.38,0.31,0.76,0.62,1.13,0.93
		c1.36,1.14,1.4,1.31,0.44,2.7c-1.64,1.38-3.5,2.45-5.52,3.17C49.04,38.8,48.45,38.89,47.83,38.99z"/>
	<path fill="#F1F2F1" stroke="#FFFFFF" stroke-miterlimit="10" d="M42.24,30.57c-1.17-0.98-1.46-3.07-0.58-4.28
		c0.54-0.74,1.26-0.76,1.75,0.02c0.59,0.92,0.64,1.93,0.31,2.96C43.37,29.86,42.75,30.15,42.24,30.57z"/>
	<path fill="#F1F2F1" stroke="#FFFFFF" stroke-miterlimit="10" d="M51.21,29.5c-0.01-0.92-0.23-1.85,0.18-2.75
		c0.22-0.5,0.5-0.97,1.09-0.95c0.58,0.01,0.86,0.48,1.06,0.99c0.58,1.44,0.23,2.96-0.89,3.79c-0.47-0.2-0.88-0.49-1.26-0.83
		c0.02-0.14-0.04-0.23-0.19-0.25L51.21,29.5z"/>
	<path fill="#F1F2F1" stroke="#FFFFFF" stroke-miterlimit="10" d="M51.2,29.48c0.15,0.02,0.21,0.11,0.19,0.25
		C51.27,29.69,51.13,29.66,51.2,29.48z"/>
</g>
</svg>
