<?xml version="1.0" encoding="utf-8"?>
<!-- Generator: Adobe Illustrator 22.0.0, SVG Export Plug-In . SVG Version: 6.00 Build 0)  -->
<svg version="1.1" id="Capa_1" xmlns="http://www.w3.org/2000/svg" xmlns:xlink="http://www.w3.org/1999/xlink" x="0px" y="0px"
	 viewBox="0 0 17.33 17.05" enable-background="new 0 0 17.33 17.05" xml:space="preserve">
<g>
	<g>
		<defs>
			<path id="SVGID_1_" d="M-54.55-36.98V87.37c0,5.66-4.56,10.28-10.32,10.63c-0.09,0.01-0.18,0.01-0.28,0.01
				c-0.14,0-0.28,0.01-0.43,0.01h-118.27c-0.14,0-0.28,0-0.43-0.01c-0.09,0-0.18-0.01-0.28-0.01c-5.76-0.35-10.32-4.98-10.32-10.63
				V-36.98c0-0.18,0.01-0.37,0.01-0.55c0-0.05,0-0.09,0.01-0.14c0.33-4.99,4.21-9.05,9.22-9.83h0c0.58-0.09,1.17-0.14,1.77-0.14
				h118.27c5.85,0,10.64,4.41,11,9.98c0.01,0.09,0.01,0.18,0.01,0.27c0,0.07,0,0.14,0.01,0.21C-54.55-37.12-54.55-37.05-54.55-36.98
				"/>
		</defs>
		<clipPath id="SVGID_2_">
			<use xlink:href="#SVGID_1_"  overflow="visible"/>
		</clipPath>
		<polygon clip-path="url(#SVGID_2_)" fill="#FFFFFF" points="763.41,-269.75 763.41,-269.79 -201.71,-269.79 -201.71,574.31 
			763.45,574.31 763.45,-269.79 763.41,-269.79 763.41,-269.75 763.38,-269.75 763.38,574.23 -201.64,574.23 -201.64,-269.71 
			763.41,-269.71 763.41,-269.75 763.38,-269.75 		"/>
	</g>
</g>
<g>
	<g>
		<path fill="#808285" d="M9.3,2.59c0.01,1.52,0,3.03,0,4.54l-4.85,4.84c-0.05-0.05-0.1-0.09-0.15-0.14
			c-0.48-0.44-1.01-0.67-1.66-0.64c-0.22,0.01-0.43,0.01-0.65,0c-0.76-0.01-1.31-0.57-1.31-1.33V6.62c0-0.75,0.54-1.31,1.29-1.33
			c0.39-0.02,0.78-0.01,1.17-0.04c0.35-0.02,0.65-0.17,0.91-0.4C5.14,3.9,6.22,2.94,7.31,1.99c0.24-0.22,0.47-0.45,0.82-0.48
			C8.8,1.46,9.3,1.92,9.3,2.59z"/>
		<path fill="#808285" d="M9.31,13.81c0,0.48-0.17,0.86-0.63,1.07c-0.44,0.2-0.83,0.09-1.19-0.22c-0.55-0.49-1.11-0.98-1.66-1.47
			L9.3,9.72C9.3,11.08,9.3,12.45,9.31,13.81z"/>
	</g>
	<g>
		<path fill="#808285" d="M12.51,3.48c-0.33-0.3-0.35-0.7-0.08-0.99c0.27-0.28,0.67-0.28,1,0.01c0.09,0.08,0.17,0.16,0.25,0.25
			L12.73,3.7C12.66,3.62,12.59,3.55,12.51,3.48z"/>
		<path fill="#808285" d="M15.6,7.8c-0.04,2.03-0.42,3.66-1.47,5.09c-0.21,0.28-0.46,0.54-0.72,0.79c-0.26,0.24-0.68,0.21-0.92-0.04
			c-0.25-0.27-0.27-0.67,0-0.92c0.94-0.89,1.41-2.02,1.63-3.26c0.25-1.42,0.14-2.82-0.41-4.15l1.04-1.04
			c0.29,0.58,0.49,1.21,0.63,1.87C15.51,6.78,15.56,7.44,15.6,7.8z"/>
	</g>
	<g>
		<path fill="#808285" d="M11.75,4.68l-0.96,0.96c-0.03-0.04-0.07-0.08-0.1-0.12c-0.29-0.33-0.33-0.71-0.05-1
			c0.28-0.28,0.68-0.27,1,0.04C11.68,4.6,11.72,4.64,11.75,4.68z"/>
		<path fill="#808285" d="M13,7.97c-0.05,1.35-0.34,2.49-1.18,3.44c-0.17,0.2-0.35,0.38-0.64,0.38c-0.28,0.01-0.49-0.12-0.62-0.36
			c-0.13-0.23-0.09-0.55,0.09-0.75c0.9-0.99,1.14-2.08,0.93-3.24l1.13-1.13c0.08,0.23,0.13,0.48,0.18,0.73
			C12.95,7.39,12.97,7.74,13,7.97z"/>
	</g>
</g>
<g>
	<path fill="#808285" d="M16.63,2.04l-3.01,3.01v0.01l-1,0.99l-1.1,1.1L9.3,9.36l-6.7,6.7c-0.12,0.13-0.29,0.2-0.47,0.2
		c-0.18,0-0.34-0.07-0.47-0.2c-0.12-0.12-0.19-0.29-0.19-0.47s0.07-0.35,0.19-0.47l9.28-9.28l0.98-0.98l0.97-0.97l2.8-2.8
		c0.13-0.12,0.3-0.19,0.47-0.19c0.17,0,0.34,0.07,0.47,0.19C16.89,1.35,16.89,1.78,16.63,2.04z"/>
</g>
</svg>
