<?xml version="1.0" encoding="utf-8"?>
<!-- Generator: Adobe Illustrator 22.0.0, SVG Export Plug-In . SVG Version: 6.00 Build 0)  -->
<svg version="1.1" id="Capa_1" xmlns="http://www.w3.org/2000/svg" xmlns:xlink="http://www.w3.org/1999/xlink" x="0px" y="0px"
	 viewBox="0 0 17.33 17.05" enable-background="new 0 0 17.33 17.05" xml:space="preserve">
<g>
	<g>
		<defs>
			<path id="SVGID_1_" d="M-93.27-36.98V87.37c0,5.66-4.56,10.28-10.32,10.63c-0.09,0.01-0.18,0.01-0.28,0.01
				c-0.14,0-0.28,0.01-0.43,0.01h-118.27c-0.14,0-0.28,0-0.43-0.01c-0.09,0-0.18-0.01-0.28-0.01c-5.76-0.35-10.32-4.98-10.32-10.63
				V-36.98c0-0.18,0.01-0.37,0.01-0.55c0-0.05,0-0.09,0.01-0.14c0.33-4.99,4.21-9.05,9.22-9.83h0c0.58-0.09,1.17-0.14,1.77-0.14
				h118.27c5.85,0,10.64,4.41,11,9.98c0.01,0.09,0.01,0.18,0.01,0.27c0,0.07,0,0.14,0.01,0.21C-93.28-37.12-93.27-37.05-93.27-36.98
				"/>
		</defs>
		<clipPath id="SVGID_2_">
			<use xlink:href="#SVGID_1_"  overflow="visible"/>
		</clipPath>
		<polygon clip-path="url(#SVGID_2_)" fill="#FFFFFF" points="724.69,-269.75 724.69,-269.79 -240.43,-269.79 -240.43,574.31 
			724.73,574.31 724.73,-269.79 724.69,-269.79 724.69,-269.75 724.65,-269.75 724.65,574.23 -240.36,574.23 -240.36,-269.71 
			724.69,-269.71 724.69,-269.75 724.65,-269.75 		"/>
	</g>
</g>
<g>
	<path fill="#22A075" d="M9.83,8.58c0,1.85,0,3.71,0,5.56c0,0.48-0.17,0.86-0.62,1.07c-0.44,0.2-0.83,0.09-1.19-0.22
		c-1.06-0.94-2.14-1.87-3.19-2.82c-0.48-0.44-1.01-0.68-1.66-0.64c-0.22,0.01-0.43,0.01-0.65,0c-0.76-0.02-1.31-0.57-1.31-1.33
		c0-1.08,0-2.16,0-3.24c0-0.75,0.54-1.31,1.29-1.33c0.39-0.01,0.78-0.01,1.17-0.03c0.35-0.02,0.65-0.17,0.92-0.4
		c1.09-0.95,2.17-1.91,3.25-2.86C8.08,2.11,8.3,1.87,8.65,1.84c0.67-0.05,1.17,0.41,1.17,1.08C9.83,4.81,9.83,6.7,9.83,8.58z"/>
	<path fill="#22A075" d="M16.13,8.13c-0.04,2.03-0.42,3.66-1.47,5.09c-0.21,0.29-0.46,0.55-0.72,0.79
		c-0.26,0.24-0.69,0.21-0.92-0.04c-0.25-0.27-0.27-0.66,0-0.92c0.94-0.89,1.41-2.01,1.63-3.25c0.27-1.51,0.12-2.99-0.5-4.4
		c-0.26-0.6-0.63-1.13-1.11-1.58c-0.33-0.3-0.35-0.7-0.08-0.99c0.27-0.29,0.67-0.28,1,0.01c1.07,0.99,1.66,2.24,1.96,3.64
		C16.04,7.12,16.08,7.77,16.13,8.13z"/>
	<path fill="#22A075" d="M13.52,8.31c-0.05,1.34-0.33,2.49-1.17,3.44c-0.17,0.19-0.35,0.38-0.64,0.38
		c-0.29,0.01-0.49-0.12-0.63-0.37c-0.12-0.23-0.08-0.55,0.1-0.74c1.16-1.28,1.21-2.74,0.64-4.27c-0.12-0.33-0.37-0.62-0.61-0.9
		c-0.29-0.33-0.33-0.71-0.05-1c0.28-0.28,0.67-0.27,1,0.03c0.72,0.68,1.08,1.54,1.25,2.49C13.48,7.72,13.5,8.07,13.52,8.31z"/>
</g>
</svg>
