<?xml version="1.0" encoding="utf-8"?>
<!-- Generator: Adobe Illustrator 22.0.0, SVG Export Plug-In . SVG Version: 6.00 Build 0)  -->
<svg version="1.1" id="Capa_1" xmlns="http://www.w3.org/2000/svg" xmlns:xlink="http://www.w3.org/1999/xlink" x="0px" y="0px"
	 viewBox="0 0 98.17 96.89" enable-background="new 0 0 98.17 96.89" xml:space="preserve">
<g>
	<g>
		<defs>
			<path id="SVGID_1_" d="M-128.89-7.35v124.35c0,5.66-4.56,10.28-10.32,10.63c-0.09,0.01-0.18,0.01-0.28,0.01
				c-0.14,0-0.28,0.01-0.43,0.01h-118.27c-0.14,0-0.28,0-0.43-0.01c-0.09,0-0.18-0.01-0.28-0.01c-5.76-0.35-10.32-4.98-10.32-10.63
				V-7.35c0-0.18,0.01-0.37,0.01-0.55c0-0.05,0-0.09,0.01-0.14c0.33-4.99,4.21-9.05,9.22-9.83h0c0.58-0.09,1.17-0.14,1.77-0.14
				h118.27c5.85,0,10.64,4.41,11,9.98c0.01,0.09,0.01,0.18,0.01,0.27c0,0.07,0,0.14,0.01,0.21C-128.89-7.49-128.89-7.42-128.89-7.35
				"/>
		</defs>
		<clipPath id="SVGID_2_">
			<use xlink:href="#SVGID_1_"  overflow="visible"/>
		</clipPath>
		<polygon clip-path="url(#SVGID_2_)" fill="#FFFFFF" points="689.08,-240.12 689.08,-240.16 -276.05,-240.16 -276.05,603.93 
			689.11,603.93 689.11,-240.16 689.08,-240.16 689.08,-240.12 689.04,-240.12 689.04,603.86 -275.97,603.86 -275.97,-240.09 
			689.08,-240.09 689.08,-240.12 689.04,-240.12 		"/>
	</g>
</g>
<g>
	<path fill="#F1F2F1" d="M86.83,51.12c0,12.73,0,25.25,0,37.88c-7.61-1.05-15.08-2.06-22.54-3.11c-6.2-0.87-12.4-1.75-18.57-2.74
		c-0.68-0.11-1.77-1-1.77-1.54c-0.08-9.97-0.03-19.93,0-29.9c0-0.15,0.12-0.29,0.24-0.59C58.31,51.12,72.49,51.12,86.83,51.12z"/>
	<path fill="#F1F2F1" d="M43.85,47.17c0-1.78,0-3.45,0-5.12c0-8.12,0.03-16.24-0.03-24.36c-0.01-1.57,0.44-2.26,2.09-2.49
		c13.27-1.87,26.54-3.83,39.8-5.75c0.31-0.05,0.64-0.01,1.1-0.01c0,12.51,0,25.03,0,37.73C72.68,47.17,58.5,47.17,43.85,47.17z"/>
	<path fill="#F1F2F1" d="M39.98,82.5c-10.9-1.49-21.63-2.96-32.46-4.45c0-9.06,0-17.95,0-26.96c10.85,0,21.59,0,32.46,0
		C39.98,61.52,39.98,71.87,39.98,82.5z"/>
	<path fill="#F1F2F1" d="M7.46,47.17c0-8.94,0-17.68,0-26.62C18.31,19.07,29.09,17.6,40,16.11c0,10.35,0,20.61,0,31.06
		C29.24,47.17,18.45,47.17,7.46,47.17z"/>
</g>
</svg>
