<svg xmlns="http://www.w3.org/2000/svg" viewBox="0 0 17 20">
  <title>iconos_svg_v1</title>
  <g id="Capa_3" data-name="Capa 3">
    <g>
      <path d="M15.59,7.73C14.66,9,13.37,9.32,11.44,8.8L9.9,10.35l-.33-.28h0L9.37,9.9l-.08-.08-.18-.16L9,9.54l-.1-.11a.19.19,0,0,1-.06-.07,1.8,1.8,0,0,1-.19-.2h0L8.54,9l-.12-.16L10,7.37a3.41,3.41,0,0,1,.93-4.11,3.23,3.23,0,0,1,3.36-.42c.08.22-.13.3-.23.41-.43.45-.89.87-1.31,1.32a1,1,0,0,0,0,1.53,1,1,0,0,0,1.47,0c.55-.53,1.06-1.1,1.61-1.68A3,3,0,0,1,15.59,7.73Z" fill="#e2e2e2"/>
      <path d="M9.16,12.6a1.84,1.84,0,0,1,1.41-1.48,2.07,2.07,0,0,1,1.5.69c1,1,2,2,3,3a1.62,1.62,0,0,1,.55,1.53,1.51,1.51,0,0,1-2.2,1.14,2.23,2.23,0,0,1-.65-.49c-1-1-1.95-2-2.94-2.95A2.05,2.05,0,0,1,9.16,12.6Z" fill="#f38f1c"/>
      <path d="M7.92,11.43a3.58,3.58,0,0,0-.55-.55,2.55,2.55,0,0,0-.58-.37l-3.3,3.27c-1.58.06-2.42.75-2.44,2a1.92,1.92,0,0,0,1.84,2c1.3.06,2-.7,2.13-2.49L8.26,12A3,3,0,0,0,7.92,11.43ZM3.08,16.66a.92.92,0,0,1-.92-.89,1,1,0,0,1,.9-.91.88.88,0,0,1,.89.89A.86.86,0,0,1,3.08,16.66Z" fill="#e2e2e2"/>
      <polygon points="11.03 11.54 9.52 13.04 9.16 12.68 8.54 12.05 8.54 12.05 7.92 11.43 7.37 10.88 6.73 10.23 6.73 10.23 5.05 8.55 5.06 8.54 6.55 7.06 6.56 7.05 7.99 8.49 8.65 9.16 8.65 9.16 9.56 10.06 9.57 10.07 10.32 10.83 10.61 11.12 11.03 11.54" fill="none"/>
      <rect x="5.43" y="9.03" width="6.59" height="2.07" transform="translate(-4.55 9) rotate(-44.52)" fill="#e2e2e2"/>
      <path d="M10.57,11.12A1.84,1.84,0,0,0,9.16,12.6a2.56,2.56,0,0,1-.6-.54c0-.06-.26-.26-.31-.31L8,11.47c-.26-.28-.55-.53-.8-.81s-.49-.47-.72-.71C6,9.47,5.52,9,5.06,8.54l-.34-.33A3.34,3.34,0,0,1,3.08,7.9a.54.54,0,0,1-.31-.3L1.33,4.83l-.27-.52L1.33,4c.29-.33.6-.6.91-.9A15.36,15.36,0,0,1,4,3.89a7.41,7.41,0,0,0,.94.46c1,.31,1.13,1.2,1.36,2,0,0,0,0,0,.07s0,.14,0,.26l.35.35C7,7.54,7.49,8,8,8.49s.69.71,1,1.06l.66.65.36.35c.05,0,.28.2.28.28Z" fill="#b2b2b2"/>
    </g>
  </g>
</svg>
