<svg id="Capa_1" data-name="Capa 1" xmlns="http://www.w3.org/2000/svg" viewBox="0 0 34 34">
  <title>iconos_svg</title>
  <g>
    <rect width="34" height="34" rx="6" ry="6" transform="translate(0 34) rotate(-90)" fill="#c162a2"/>
    <path d="M27,25.4V19.54A5.94,5.94,0,0,0,21.1,13.6H13.81a.38.38,0,0,1-.37-.37V10.55a.37.37,0,0,0-.58-.31l-7.39,5a.36.36,0,0,0,0,.61l7.39,5a.37.37,0,0,0,.58-.31V17.88a.38.38,0,0,1,.37-.37H21.1a3.92,3.92,0,0,1,3.71,2.23,26.33,26.33,0,0,1,1.85,6h0A.38.38,0,0,0,27,25.4Z" fill="#fff"/>
  </g>
</svg>
