<svg xmlns="http://www.w3.org/2000/svg" xmlns:xlink="http://www.w3.org/1999/xlink" viewBox="0 0 82.67 64.78"><defs><clipPath id="clip-path"><path d="M69.51,23.41V35.79a2.75,2.75,0,0,0,4.14,2.39l3.44-2a1.9,1.9,0,0,1,2.7.89V49.61a5.25,5.25,0,0,1-5.24,5.25H30.61l-5.89,5.61a4.21,4.21,0,0,1-5.48,0l-5.9-5.61H9.81a5.25,5.25,0,0,1-5.24-5.25V9.73A5.25,5.25,0,0,1,9.81,4.48H74.55a5.25,5.25,0,0,1,5.24,5.25V22.1a1.9,1.9,0,0,1-2.7.9l-3.44-2A2.76,2.76,0,0,0,69.51,23.41Z" fill="none"/></clipPath></defs><title>idioma_v0</title><g id="Capa_4" data-name="Capa 4"><g clip-path="url(#clip-path)"><rect x="3.29" y="11.19" width="77.63" height="53.67" fill="#fbd250"/><path d="M80.92,2.73H3.29V13.44H80.92Z" fill="#c8414b"/><path d="M80.92,24.15H3.29v10.7H80.92Z" fill="#c8414b"/><path d="M80.92,45.56H3.29V56.27H80.92Z" fill="#c8414b"/></g></g></svg>