<svg xmlns="http://www.w3.org/2000/svg" xmlns:xlink="http://www.w3.org/1999/xlink" viewBox="0 0 83.25 64.86"><defs><clipPath id="clip-path"><path d="M69.38,23.41V35.79a2.74,2.74,0,0,0,4.13,2.39l3.45-2a1.9,1.9,0,0,1,2.7.89V49.61a5.25,5.25,0,0,1-5.25,5.25H30.48l-5.89,5.61a4.21,4.21,0,0,1-5.48,0L13.2,54.86H9.68a5.25,5.25,0,0,1-5.24-5.25V9.73A5.25,5.25,0,0,1,9.68,4.48H74.41a5.25,5.25,0,0,1,5.25,5.25V22.1A1.9,1.9,0,0,1,77,23l-3.45-2A2.76,2.76,0,0,0,69.38,23.41Z" fill="none"/></clipPath></defs><title>idioma_v0</title><g id="Capa_2" data-name="Capa 2"><g clip-path="url(#clip-path)"><path d="M3.16,53.75c0,6.09,2.6,11,5.81,11H75c3.21,0,5.81-4.94,5.81-11V44.46H3.16Z" fill="#c8414b"/><path d="M75,4.3H9a5.81,5.81,0,0,0-5.81,5.82V15H80.79V10.12A5.81,5.81,0,0,0,75,4.3Z" fill="#c8414b"/><rect x="3.16" y="15.01" width="77.63" height="29.45" fill="#fbd250"/><path d="M36.13,29.08l1.1-4.95a.73.73,0,0,0-.71-.89h-.78a.73.73,0,0,0-.71.89Z" fill="#c8414b"/><rect x="34.83" y="26.48" width="2.6" height="11.04" fill="#f5f5f5"/><rect x="34.18" y="25.19" width="3.9" height="1.3" fill="#f6b446"/><rect x="31.58" y="29.08" width="6.5" height="1.3" fill="#c8414b"/><polygon points="38.08 34.28 34.18 32.98 34.18 31.68 38.08 32.98 38.08 34.28" fill="#c8414b"/><path d="M16.64,29.08l1.1-4.95a.73.73,0,0,0-.71-.89h-.78a.73.73,0,0,0-.71.89Z" fill="#c8414b"/><path d="M21.19,25.19a1.3,1.3,0,0,0-1.3,1.3v8.44c0,1.58,1.47,4.55,6.49,4.55s6.5-3,6.5-4.55V26.49a1.3,1.3,0,0,0-1.3-1.3Z" fill="#f5f5f5"/><path d="M26.38,31.68H19.89V26.49a1.3,1.3,0,0,1,1.3-1.3h5.19Z" fill="#c8414b"/><path d="M26.38,31.68h6.5v3.25a3.25,3.25,0,0,1-3.25,3.25h0a3.26,3.26,0,0,1-3.25-3.25Z" fill="#c8414b"/><path d="M19.89,31.68h6.49v3.25a3.25,3.25,0,0,1-3.24,3.25h0a3.25,3.25,0,0,1-3.25-3.25Z" fill="#f6b446"/><path d="M25.08,37.51V31.68h-1.3v6.43A3,3,0,0,0,25.08,37.51Z" fill="#c8414b"/><path d="M22.49,38.11V31.68h-1.3v5.83A3,3,0,0,0,22.49,38.11Z" fill="#c8414b"/><rect x="21.19" y="29.08" width="3.9" height="1.3" fill="#f9b441"/><rect x="21.19" y="26.48" width="3.9" height="1.3" fill="#f6b446"/><rect x="21.84" y="27.26" width="2.6" height="2.35" fill="#f6b446"/><rect x="15.34" y="26.48" width="2.6" height="11.04" fill="#f5f5f5"/><rect x="14.69" y="36.88" width="3.9" height="1.3" fill="#f6b446"/><rect x="14.69" y="25.19" width="3.9" height="1.3" fill="#f6b446"/><rect x="14.04" y="38.18" width="5.2" height="1.3" fill="#4d64a5"/><rect x="34.83" y="36.88" width="3.9" height="1.3" fill="#f6b446"/><rect x="33.53" y="38.18" width="5.2" height="1.3" fill="#4d64a5"/><rect x="22.49" y="23.89" width="7.8" height="1.3" fill="#f6b446"/><rect x="25.73" y="19.99" width="1.3" height="3.9" fill="#f9b441"/><path d="M25.08,21.94a1.95,1.95,0,1,1,2-2A2,2,0,0,1,25.08,21.94Zm0-2.6a.65.65,0,1,0,.65.65A.66.66,0,0,0,25.08,19.34Z" fill="#f5f5f5"/><path d="M27.68,21.94a1.95,1.95,0,1,1,1.95-2A2,2,0,0,1,27.68,21.94Zm0-2.6a.65.65,0,1,0,.65.65A.65.65,0,0,0,27.68,19.34Z" fill="#f5f5f5"/><path d="M30.28,23.24a1.95,1.95,0,1,1,1.95-1.95A2,2,0,0,1,30.28,23.24Zm0-2.6a.65.65,0,1,0,.65.65A.65.65,0,0,0,30.28,20.64Z" fill="#f5f5f5"/><path d="M22.49,23.24a2,2,0,1,1,1.94-1.95A2,2,0,0,1,22.49,23.24Zm0-2.6a.65.65,0,1,0,.65.65A.65.65,0,0,0,22.49,20.64Z" fill="#f5f5f5"/><path d="M30.28,34.28v.65a.65.65,0,0,1-1.3,0v-.65h1.3m1.3-1.3h-3.9v2a1.95,1.95,0,0,0,3.9,0V33Z" fill="#f6b446"/><path d="M29.63,30.38h0a1.3,1.3,0,0,1-1.3-1.3v-1.3a1.3,1.3,0,0,1,1.3-1.3h0a1.3,1.3,0,0,1,1.3,1.3v1.3A1.3,1.3,0,0,1,29.63,30.38Z" fill="#f79fc7"/><circle cx="26.38" cy="31.68" r="1.95" fill="#4d64a5"/><rect x="25.73" y="17.39" width="1.3" height="3.9" fill="#f6b446"/><path d="M22.49,23.89l-1.3-1.3.76-.76A6.24,6.24,0,0,1,26.38,20h0a6.27,6.27,0,0,1,4.44,1.84l.76.76-1.3,1.3Z" fill="#c8414b"/><circle cx="26.38" cy="22.59" r="0.65" fill="#fbd250"/><circle cx="23.78" cy="22.59" r="0.65" fill="#fbd250"/><circle cx="28.98" cy="22.59" r="0.65" fill="#fbd250"/><rect x="14.69" y="29.08" width="6.5" height="1.3" fill="#c8414b"/><polygon points="14.69 34.28 18.59 32.98 18.59 31.68 14.69 32.98 14.69 34.28" fill="#c8414b"/></g></g></svg>