<svg xmlns="http://www.w3.org/2000/svg" xmlns:xlink="http://www.w3.org/1999/xlink" viewBox="0 0 83.25 64.86">
    <defs>
        <style>.cls-1{fill:none;}.cls-2{clip-path:url(#clip-path);}.cls-3{fill:#006bb4;}.cls-4{clip-path:url(#clip-path-2);}.cls-5{fill:#fff;}.cls-6{fill:#2eae7d;}.cls-7{fill:#ed6d64;}</style>
        <clipPath id="clip-path">
            <path class="cls-1" d="M67.1-48.87v12.39a2.74,2.74,0,0,0,4.13,2.39l3.45-2a1.9,1.9,0,0,1,2.69.9v12.52a5.23,5.23,0,0,1-5.24,5.24H28.2L22.31-11.8a4.25,4.25,0,0,1-5.49,0l-5.9-5.62H7.4a5.24,5.24,0,0,1-5.24-5.24V-62.55A5.25,5.25,0,0,1,7.4-67.79H72.13a5.24,5.24,0,0,1,5.24,5.24v12.38a1.9,1.9,0,0,1-2.69.9l-3.45-2A2.76,2.76,0,0,0,67.1-48.87Z" />
        </clipPath>
        <clipPath id="clip-path-2">
            <path class="cls-1" d="M68.93,22.3V34.68a2.74,2.74,0,0,0,4.14,2.39l3.44-2a1.9,1.9,0,0,1,2.7.9V48.51A5.25,5.25,0,0,1,74,53.75H30l-5.89,5.61a4.21,4.21,0,0,1-5.48,0l-5.9-5.61H9.24A5.25,5.25,0,0,1,4,48.51V8.62A5.25,5.25,0,0,1,9.24,3.38H74a5.25,5.25,0,0,1,5.24,5.24V21a1.9,1.9,0,0,1-2.7.9l-3.44-2A2.77,2.77,0,0,0,68.93,22.3Z" />
        </clipPath>
    </defs>
    <title>iconos_svg_v1</title>
    <g id="Capa_3" data-name="Capa 3">
        <g class="cls-2">
            <polygon class="cls-3" points="31.65 -31.85 31.65 9.52 5.91 -17.55 31.65 -31.85" />
        </g>
        <g class="cls-4">
            <path class="cls-5" d="M86.3,25.22v7.92H55.51l-11,0c-.24,0-.31.08-.3.31,0,.85,0,1.69,0,2.53,0,.17,0,.34,0,.51V55H36.29V46.69c0-3.57,0-7.14,0-10.72,0-.84,0-1.68,0-2.53,0-.24-.06-.31-.3-.31l-11,0H-5.8V25.22H36c.24,0,.31-.07.3-.31,0-.84,0-1.69,0-2.53,0-.18,0-.37,0-.55V3.39h7.92v8.28c0,3.57,0,7.14,0,10.71,0,.84,0,1.69,0,2.53,0,.24.06.31.3.31H86.3Z" />
            <path class="cls-6" d="M44.22,36c0-.84,0-1.68,0-2.53,0-.23.06-.31.3-.31l11,0c.09.06.17.13.26.18L85.85,50.17c.14.08.26.22.45.19,0,1.44,0,2.89,0,4.33,0,.23,0,.28-.28.28H78.11a1.3,1.3,0,0,0-.49-.32L48.51,38.34Z" />
            <path class="cls-6" d="M55.52,25.21h-11c-.24,0-.31-.07-.3-.31,0-.84,0-1.69,0-2.53.14-.07.28-.12.41-.2l30-16.82c1.16-.65,2.34-1.24,3.45-2H86c.28,0,.34.05.33.33,0,1.43,0,2.85,0,4.28a1.55,1.55,0,0,0-.65.3L59.77,22.79C58.35,23.59,56.9,24.34,55.52,25.21Z" />
            <path class="cls-6" d="M25,33.15l11,0c.24,0,.31.07.3.31,0,.85,0,1.69,0,2.53l-.41.2L5.84,53c-1.15.65-2.34,1.24-3.45,2H-5.5c-.24,0-.32,0-.31-.29,0-1.44,0-2.88,0-4.32a1.34,1.34,0,0,0,.65-.3L20.73,35.57C22.15,34.77,23.6,34,25,33.15Z" />
            <path class="cls-6" d="M36.28,22.38c0,.84,0,1.69,0,2.53,0,.24-.06.31-.3.31H25a2.27,2.27,0,0,0-.25-.18L-5.43,8.14C-5.55,8.07-5.65,8-5.8,8c0-1.44,0-2.88,0-4.33,0-.23,0-.28.28-.28H2.39a1.09,1.09,0,0,0,.45.29L32,20Z" />
            <path class="cls-7" d="M36.28,22.38,32,20,2.84,3.68a1.09,1.09,0,0,1-.45-.29h33.9V21.83C36.29,22,36.28,22.2,36.28,22.38Z" />
            <path class="cls-7" d="M2.39,55c1.11-.74,2.3-1.33,3.45-2l30-16.82.41-.2c0,3.58,0,7.15,0,10.72V55C32.42,55,14.9,68.29,11,68.29,3.6,68.29,9.82,55,2.39,55Z" />
            <path class="cls-7" d="M78.11,3.39c-1.11.73-2.29,1.32-3.45,2l-30,16.82c-.13.08-.27.13-.41.2,0-3.57,0-7.14,0-10.71V3.39Z" />
            <path class="cls-7" d="M44.22,36l4.29,2.37L77.62,54.65a1.3,1.3,0,0,1,.49.32H44.21V36.48C44.21,36.31,44.22,36.14,44.22,36Z" />
            <path class="cls-7" d="M-5.8,8c.15,0,.25.08.37.15L24.73,25a2.27,2.27,0,0,1,.25.18H-5.8Z" />
            <path class="cls-7" d="M55.52,25.21c1.38-.87,2.83-1.62,4.25-2.42L85.65,8.29A1.55,1.55,0,0,1,86.3,8V25.22H55.52Z" />
            <path class="cls-7" d="M25,33.15c-1.38.86-2.83,1.62-4.25,2.42L-5.15,50.06a1.34,1.34,0,0,1-.65.3V33.14H25Z" />
            <path class="cls-7" d="M86.3,50.36c-.19,0-.31-.11-.45-.19L55.77,33.33c-.09,0-.17-.12-.26-.18H86.3Z" />
        </g>
    </g>
</svg>