<svg xmlns="http://www.w3.org/2000/svg" xmlns:xlink="http://www.w3.org/1999/xlink" viewBox="0 0 83.25 64.86">
  <defs>
    <clipPath id="clip-path">
      <path d="M68.93,22.3V34.68a2.74,2.74,0,0,0,4.14,2.39l3.44-2a1.9,1.9,0,0,1,2.7.9V48.51A5.25,5.25,0,0,1,74,53.75H30l-5.89,5.61a4.21,4.21,0,0,1-5.48,0l-5.9-5.61H9.24A5.25,5.25,0,0,1,4,48.51V8.62A5.25,5.25,0,0,1,9.24,3.38H74a5.25,5.25,0,0,1,5.24,5.24V21a1.9,1.9,0,0,1-2.7.9l-3.44-2A2.77,2.77,0,0,0,68.93,22.3Z" fill="none"/>
    </clipPath>
  </defs>
  <title>iconos_svg_v1</title>
  <g id="Capa_3" data-name="Capa 3">
    <g clip-path="url(#clip-path)">
      <g>
        <path d="M96.11,25.22v7.92H65.32l-11,0c-.25,0-.31.08-.31.31,0,.85,0,1.69,0,2.53,0,.17,0,.34,0,.51V55H46.1V46.69q0-5.36,0-10.72c0-.84,0-1.68,0-2.53,0-.24-.06-.31-.3-.31l-11,0H4V25.22H45.8c.24,0,.31-.07.3-.31,0-.84,0-1.69,0-2.53,0-.18,0-.37,0-.55V3.39H54v8.28Q54,17,54,22.38c0,.84,0,1.69,0,2.53,0,.24.06.31.31.31H96.11Z" fill="#fff"/>
        <path d="M54,36c0-.84,0-1.68,0-2.53,0-.23.06-.31.31-.31l11,0c.09.06.17.13.26.18L95.66,50.17c.14.08.26.22.45.19,0,1.44,0,2.89,0,4.33,0,.23-.06.28-.29.28H87.91a1.19,1.19,0,0,0-.48-.32L58.32,38.34Z" fill="#69ab8c"/>
        <path d="M65.32,25.21h-11c-.25,0-.31-.07-.31-.31,0-.84,0-1.69,0-2.53.13-.07.27-.12.41-.2l30-16.82c1.15-.65,2.34-1.24,3.44-2h7.88c.27,0,.33.05.33.33,0,1.43,0,2.85,0,4.28a1.55,1.55,0,0,0-.65.3q-12.94,7.25-25.88,14.5C68.16,23.59,66.71,24.34,65.32,25.21Z" fill="#69ab8c"/>
        <path d="M34.79,33.15l11,0c.24,0,.31.07.3.31,0,.85,0,1.69,0,2.53l-.41.2L15.65,53c-1.16.65-2.34,1.24-3.45,2H4.31c-.24,0-.32,0-.32-.29,0-1.44,0-2.88,0-4.32a1.37,1.37,0,0,0,.66-.3L30.53,35.57C32,34.77,33.41,34,34.79,33.15Z" fill="#69ab8c"/>
        <path d="M46.09,22.38c0,.84,0,1.69,0,2.53,0,.24-.06.31-.3.31h-11a2.4,2.4,0,0,0-.26-.18Q19.45,16.58,4.37,8.14C4.26,8.07,4.16,8,4,8,4,6.55,4,5.11,4,3.66c0-.23,0-.28.28-.28H12.2a1,1,0,0,0,.45.29Q27.2,11.84,41.76,20Z" fill="#69ab8c"/>
        <path d="M46.09,22.38,41.76,20Q27.19,11.85,12.65,3.68a1,1,0,0,1-.45-.29H46.1V21.83C46.1,22,46.09,22.2,46.09,22.38Z" fill="#b46b68"/>
        <path d="M12.2,55c1.11-.74,2.29-1.33,3.45-2l30-16.82.41-.2q0,5.37,0,10.72V55c-3.88,0-21.39,13.32-25.27,13.32C13.41,68.29,19.63,55,12.2,55Z" fill="#b46b68"/>
        <path d="M87.91,3.39c-1.1.73-2.29,1.32-3.44,2l-30,16.82c-.14.08-.28.13-.41.2Q54,17,54,11.67V3.39Z" fill="#b46b68"/>
        <path d="M54,36l4.29,2.37L87.43,54.65a1.19,1.19,0,0,1,.48.32H54V36.48C54,36.31,54,36.14,54,36Z" fill="#b46b68"/>
        <path d="M4,8c.16,0,.26.08.37.15Q19.46,16.57,34.53,25a2.4,2.4,0,0,1,.26.18H4Z" fill="#b46b68"/>
        <path d="M65.32,25.21c1.39-.87,2.84-1.62,4.26-2.42q12.93-7.26,25.88-14.5a1.55,1.55,0,0,1,.65-.3V25.22H65.32Z" fill="#b46b68"/>
        <path d="M34.79,33.15c-1.38.86-2.83,1.62-4.26,2.42L4.66,50.06a1.37,1.37,0,0,1-.66.3V33.14H34.79Z" fill="#b46b68"/>
        <path d="M96.11,50.36c-.19,0-.31-.11-.45-.19L65.58,33.33c-.09,0-.17-.12-.26-.18H96.11Z" fill="#b46b68"/>
      </g>
    </g>
  </g>
</svg>
