<svg id="Capa_1" data-name="Capa 1" xmlns="http://www.w3.org/2000/svg" xmlns:xlink="http://www.w3.org/1999/xlink" viewBox="0 0 16 16">
  <defs>
    <clipPath id="clip-path">
      <path d="M-16.39,12V136.35A10.82,10.82,0,0,1-26.71,147H-146.38a10.82,10.82,0,0,1-10.32-10.64V12c0-.19,0-.37,0-.55s0-.09,0-.14a10.8,10.8,0,0,1,9.22-9.83h0a11.33,11.33,0,0,1,1.77-.14H-27.41a10.87,10.87,0,0,1,11,10,2.17,2.17,0,0,1,0,.26,1.48,1.48,0,0,1,0,.21V12" fill="none"/>
    </clipPath>
  </defs>
  <title>iconos_svg</title>
  <g clip-path="url(#clip-path)">
    <polygon points="801.58 -220.76 801.58 -220.8 -163.55 -220.8 -163.55 623.29 801.61 623.29 801.61 -220.8 801.58 -220.8 801.58 -220.76 801.54 -220.76 801.54 623.22 -163.47 623.22 -163.47 -220.73 801.58 -220.73 801.58 -220.76 801.54 -220.76 801.58 -220.76" fill="#fff"/>
  </g>
  <path d="M8.3,8.34v4.51h-4a1,1,0,0,1-1-1V7.59H7.55A.74.74,0,0,1,8.3,8.34Z" fill="#f2b148"/>
  <path d="M15.5,1.5V11.85a1,1,0,0,1-1,1H8.8V8.34A1.25,1.25,0,0,0,7.55,7.09H3.32V1.5a1,1,0,0,1,1-1H14.5A1,1,0,0,1,15.5,1.5Z" fill="#f2b148"/>
  <path d="M8.3,8.34V14.5a.75.75,0,0,1-.75.75h-6a.76.76,0,0,1-.75-.75V8.34a.75.75,0,0,1,.75-.75H7.55A.74.74,0,0,1,8.3,8.34Z" fill="#fcc865"/>
  <path d="M13.78,2.62l-.44,2.57A.2.2,0,0,1,13,5.3l-.75-.76-2,2a.5.5,0,0,1-.35.15.46.46,0,0,1-.35-.14.5.5,0,0,1,0-.71l2-2-.65-.66A.2.2,0,0,1,11,2.83l2.54-.44A.2.2,0,0,1,13.78,2.62Z" fill="#384667"/>
</svg>
