<svg xmlns="http://www.w3.org/2000/svg" viewBox="0 0 32.41 30.16">
  <defs>
    <style>
      .cls-1, .cls-2, .cls-3, .cls-4, .cls-5, .cls-6 {
        fill: #fff;
        stroke: #b2b2b2;
        stroke-miterlimit: 10;
        stroke-width: 0.5px;
      }

      .cls-1, .cls-2 {
        stroke-linecap: round;
      }

      .cls-3, .cls-5 {
        fill: transparent;
      }

      .cls-4, .cls-6 {
        fill: #b2b2b2;
      }
    </style>
  </defs>
  <title>Recurso 23</title>
  <g id="Capa_2" data-name="Capa 2">
    <g id="Capa_2-2" data-name="Capa 2">
      <g>
        <path class="cls-1" d="M9.15,23.19A10.73,10.73,0,0,1,6.38,19.6"/>
        <path class="cls-2" d="M23.53,7.41a10.49,10.49,0,0,1,2.23,3.19"/>
        <path class="cls-3" d="M22.08,6.55,19.19,8.88v7.56a1.79,1.79,0,0,1-1.79,1.79H2A1.79,1.79,0,0,1,.25,16.44V2A1.79,1.79,0,0,1,2,.25H17.4A1.79,1.79,0,0,1,19.19,2V4.22Z"/>
        <path class="cls-4" d="M13.15,8.25a.63.63,0,0,0,0-1.26h-2.8V5.46a.63.63,0,0,0-1.26,0V7H6.29a.63.63,0,0,0,0,1.26h.87a6,6,0,0,0,1.57,3.46,4.71,4.71,0,0,1-2.44.68.63.63,0,1,0,0,1.26,6,6,0,0,0,3.43-1.08,6,6,0,0,0,3.43,1.08.63.63,0,0,0,0-1.26,4.71,4.71,0,0,1-2.44-.68,6,6,0,0,0,1.57-3.46ZM9.72,10.93A4.73,4.73,0,0,1,8.43,8.25H11A4.73,4.73,0,0,1,9.72,10.93Z"/>
        <path class="cls-5" d="M32.16,13.72v14.4a1.79,1.79,0,0,1-1.79,1.79H15a1.79,1.79,0,0,1-1.78-1.79V26.07l-2.9-2.33,2.9-2.33V13.72A1.79,1.79,0,0,1,15,11.93H30.37A1.79,1.79,0,0,1,32.16,13.72Z"/>
        <path class="cls-6" d="M25,25,24.27,23H21.12L20.41,25H19.06L22,16.87h1.49L26.33,25Zm-3.46-3.19h2.35l-1.18-3.4Z"/>
      </g>
    </g>
  </g>
</svg>
