<svg id="Capa_1" data-name="Capa 1" xmlns="http://www.w3.org/2000/svg" xmlns:xlink="http://www.w3.org/1999/xlink" viewBox="0 0 16 16">
  <defs>
    <clipPath id="clip-path">
      <path d="M-42.39,12V136.35A10.82,10.82,0,0,1-52.71,147H-172.38a10.82,10.82,0,0,1-10.32-10.64V12c0-.19,0-.37,0-.55s0-.09,0-.14a10.8,10.8,0,0,1,9.22-9.83h0a11.33,11.33,0,0,1,1.77-.14H-53.41a10.87,10.87,0,0,1,11,10,2.17,2.17,0,0,1,0,.26,1.48,1.48,0,0,1,0,.21V12" fill="none"/>
    </clipPath>
  </defs>
  <title>iconos_svg</title>
  <g clip-path="url(#clip-path)">
    <polygon points="775.58 -220.76 775.58 -220.8 -189.55 -220.8 -189.55 623.29 775.61 623.29 775.61 -220.8 775.58 -220.8 775.58 -220.76 775.54 -220.76 775.54 623.22 -189.47 623.22 -189.47 -220.73 775.58 -220.73 775.58 -220.76 775.54 -220.76 775.58 -220.76" fill="#fff"/>
  </g>
  <g>
    <rect x="0.4" y="0.5" width="10.58" height="15" rx="1" ry="1" fill="#2faf7d"/>
    <rect x="7.54" y="4.4" width="7.2" height="7.2" rx="1" ry="1" fill="#394767"/>
    <line x1="15.6" y1="8" x2="10.6" y2="8" fill="none" stroke="#fff" stroke-linecap="round" stroke-linejoin="round"/>
    <path d="M8.81,8.16l2.71,1.92a.21.21,0,0,0,.32-.17V6.09a.21.21,0,0,0-.32-.17L8.81,7.84A.2.2,0,0,0,8.81,8.16Z" fill="#fff"/>
  </g>
</svg>
