<svg viewBox="0 0 216.7 114" xmlns="http://www.w3.org/2000/svg" xml:space="preserve" version="1.1">

 <g>
  <title>Layer 1</title>
  <g id="Capa_3"/>
  <g id="Capa_1"/>
  <g id="Capa_4">
   <g id="svg_1">
    <path id="svg_2" fill="#FFFFFF" d="m173.66572,62.38766l35.95885,0c3.66373,0 6.649,2.84957 6.649,6.37761l0,38.67273c0,3.52804 -2.98526,6.37761 -6.649,6.37761l-200.96249,0c-4.61359,0 -8.27732,-3.52804 -8.27732,-7.87024l0,-38.12995c0,-2.71388 1.49263,-5.15636 3.66373,-6.5133c-2.30679,-1.89971 -3.66373,-4.74928 -3.66373,-7.87024l0,-43.15062c0,-5.69914 4.61359,-10.31273 10.31273,-10.31273l158.08326,0c5.69914,0 10.31273,4.61359 10.31273,10.31273l0,7.32746l31.48096,0c3.25665,0 5.83483,2.57818 5.83483,5.83483l0,21.57531c0,3.25665 -2.57818,5.83483 -5.83483,5.83483l-31.61665,0l0,2.44249c0,4.07081 -2.1711,7.46316 -5.29206,9.09148z" class="st0"/>
    <polygon id="svg_3" fill="#FFFFFF" points="39.46457615494728,14.216371536254883 45.70648518204689,14.216371536254883 45.70648518204689,45.83301544189453 39.46457615494728,45.83301544189453 39.46457615494728,32.67072296142578 26.980742841959,32.67072296142578 26.980742841959,45.83301544189453 20.603135496377945,45.83301544189453 20.603135496377945,14.216371536254883 26.980742841959,14.216371536254883 26.980742841959,26.971588134765625 39.46457615494728,26.971588134765625 " class="st0"/>
    <path id="svg_4" fill="#FFFFFF" d="m69.04582,26.7002c1.76402,2.57818 2.44249,5.83483 1.89971,9.90565l-15.06201,0c0.54278,3.12096 2.30679,4.61359 5.42775,4.61359c2.03541,0 3.52804,-0.81416 4.61359,-2.30679l4.47789,2.71388c-0.81416,1.49263 -2.03541,2.57818 -3.79943,3.52804c-1.62833,0.81416 -3.52804,1.35694 -5.56345,1.35694c-3.25665,0 -5.97053,-1.08555 -8.00593,-3.12096c-2.03541,-2.1711 -3.12096,-4.88498 -3.12096,-8.41301c0,-3.52804 0.94986,-6.37761 2.98526,-8.54871s4.61359,-3.25665 7.87024,-3.25665c3.79943,-0.27139 6.5133,0.94986 8.27732,3.52804z" class="st0"/>
    <rect id="svg_5" fill="#FFFFFF" height="33.65206" width="6.10622" class="st0" y="12.18096" x="75.42342"/>
    <rect id="svg_6" fill="#FFFFFF" height="33.65206" width="6.10622" class="st0" y="12.18096" x="86.68601"/>
    <path id="svg_7" fill="#FFFFFF" d="m119.5239,34.57044c0,3.39234 -1.08555,6.10622 -3.12096,8.41301c-2.03541,2.1711 -4.74928,3.39234 -8.14163,3.39234c-3.39234,0 -6.10622,-1.08555 -8.14163,-3.39234c-2.03541,-2.1711 -3.12096,-5.02067 -3.12096,-8.41301c0,-3.39234 1.08555,-6.24191 3.12096,-8.41301c2.03541,-2.1711 4.74928,-3.25665 8.14163,-3.25665c3.39234,0 6.10622,1.08555 8.14163,3.25665s3.12096,5.02067 3.12096,8.41301z" class="st0"/>
    <polygon id="svg_8" fill="#FFFFFF" points="129.02247563004494,38.36985778808594 129.02247563004494,45.83301544189453 125.49442234635353,51.260765075683594 119.25250950455666,51.260765075683594 123.05195561051369,44.88316345214844 123.05195561051369,38.36985778808594 " class="st0"/>
    <path id="svg_9" fill="#FEC542" d="m28.06629,87.49101c0.27139,2.71388 2.44249,5.15636 5.29206,5.56345c2.1711,0.27139 4.20651,-0.54278 5.56345,-1.89971l0,0l0.13569,-0.13569l0,0c0.67847,-0.67847 1.49263,-1.08555 2.44249,-1.22124l0.81416,0c0.94986,0.13569 1.76402,0.54278 2.44249,1.22124l0,15.74048c0,2.30679 -1.89971,4.07081 -4.3422,4.07081l-32.56651,0c-2.44249,0 -4.3422,-1.76402 -4.3422,-4.07081l0,-39.07981c0,-2.30679 1.89971,-4.07081 4.3422,-4.07081l13.29799,0l0.27139,0.27139l0.13569,0.13569l6.10622,5.69914c1.49263,1.35694 4.20651,1.35694 5.56345,0l6.10622,-5.69914l0.13569,-0.13569l0.27139,-0.27139l0.67847,0c0.67847,0 1.22124,0.13569 1.76402,0.40708c0.27139,0.13569 0.40708,0.27139 0.67847,0.27139c0.13569,0.13569 0.40708,0.27139 0.54278,0.40708c0.81416,0.67847 1.35694,1.76402 1.35694,2.98526l0,15.06201c-0.67847,0.67847 -1.49263,1.08555 -2.44249,1.22124l-0.81416,0c-0.94986,-0.13569 -1.76402,-0.54278 -2.44249,-1.22124l0,0l-0.13569,-0.13569c-1.08555,-1.22124 -2.84957,-2.03541 -4.61359,-2.03541c-3.79943,0 -6.78469,3.25665 -6.24191,6.92038z" class="st1"/>
    <path id="svg_10" fill="#3EAA5F" d="m45.70649,45.83302l-6.24191,0l0,-13.1623l-12.48383,0l0,13.29799l-6.24191,0l0,-31.75235l6.24191,0l0,12.75522l12.48383,0l0,-12.75522l6.24191,0l0,31.61665zm25.23904,-9.22718l-15.06201,0c0.54278,3.12096 2.30679,4.61359 5.42775,4.61359c2.03541,0 3.52804,-0.81416 4.61359,-2.30679l4.47789,2.71388c-0.81416,1.49263 -2.03541,2.57818 -3.79943,3.52804c-1.62833,0.81416 -3.52804,1.35694 -5.56345,1.35694c-3.25665,0 -5.97053,-1.08555 -8.00593,-3.12096c-2.03541,-2.1711 -3.12096,-4.88498 -3.12096,-8.41301c0,-3.52804 0.94986,-6.37761 2.98526,-8.54871s4.61359,-3.25665 7.87024,-3.25665c3.52804,0 6.24191,1.22124 8.14163,3.79943c1.89971,2.1711 2.57818,5.56345 2.03541,9.63426zm10.58412,9.22718l-6.10622,0l0,-33.65206l6.10622,0l0,33.65206zm11.26258,0l-6.10622,0l0,-33.65206l6.10622,0l0,33.65206zm15.46909,0.54278c-3.39234,0 -6.10622,-1.08555 -8.14163,-3.39234c-2.03541,-2.1711 -3.12096,-5.02067 -3.12096,-8.41301c0,-3.39234 1.08555,-6.24191 3.12096,-8.41301c2.03541,-2.1711 4.74928,-3.25665 8.14163,-3.25665c3.39234,0 6.10622,1.08555 8.14163,3.25665s3.12096,5.02067 3.12096,8.41301c0,3.39234 -1.08555,6.10622 -3.12096,8.41301c-2.03541,2.1711 -4.74928,3.39234 -8.14163,3.39234zm20.76115,-0.54278l-3.52804,5.42775l-6.24191,0l3.79943,-6.5133l0,-6.5133l5.97053,0l0,7.59885z" class="st2"/>
    <path id="svg_11" fill="#3EAA5F" d="m145.8485,30.36393l0,7.87024c0,1.35694 0.54278,2.57818 1.49263,3.52804c0.94986,0.94986 2.1711,1.35694 3.39234,1.35694c0.54278,0 1.22124,-0.13569 1.76402,-0.27139l0,2.44249c0,3.25665 2.57818,5.83483 5.83483,5.83483l17.64019,0l0,2.44249c0,3.93512 -3.25665,7.19177 -7.19177,7.19177l-125.65244,0l-0.54278,0.54278l-0.67847,0.67847l-2.03541,1.89971l-0.40708,0l-0.13569,0.13569l-6.10622,5.69914c-1.49263,1.35694 -4.20651,1.35694 -5.56345,0l-6.10622,-5.69914l-0.27139,-0.13569l-0.27139,-0.27139l-2.1711,-1.89971l-0.94986,-0.81416l-0.27139,-0.27139l-7.05608,0c-0.94986,0 -1.76402,-0.13569 -2.57818,-0.54278l0,0c-2.71388,-1.08555 -4.61359,-3.66373 -4.61359,-6.649l0,-43.28632c0,-3.93512 3.25665,-7.19177 7.19177,-7.19177l158.08326,0c3.93512,0 7.19177,3.25665 7.19177,7.19177l0,7.46316l-17.64019,0c-3.25665,0 -5.83483,2.57818 -5.83483,5.83483l0,2.44249c-0.54278,-0.27139 -1.08555,-0.27139 -1.76402,-0.27139c-2.57818,-0.13569 -4.74928,2.1711 -4.74928,4.74928z" class="st2"/>
    <polygon id="svg_12" fill="#3EAA5F" points="39.46457615494728,14.216371536254883 45.70648518204689,14.216371536254883 45.70648518204689,45.83301544189453 39.46457615494728,45.83301544189453 39.46457615494728,32.67072296142578 26.980742841959,32.67072296142578 26.980742841959,45.83301544189453 20.603135496377945,45.83301544189453 20.603135496377945,14.216371536254883 26.980742841959,14.216371536254883 26.980742841959,26.971588134765625 39.46457615494728,26.971588134765625 " class="st2"/>
    <rect id="svg_13" fill="#3EAA5F" height="33.65206" width="6.10622" class="st2" y="12.18096" x="75.42342"/>
    <rect id="svg_14" fill="#3EAA5F" height="33.65206" width="6.10622" class="st2" y="12.18096" x="86.68601"/>
    <polygon id="svg_15" fill="#3EAA5F" points="129.02247563004494,38.36985778808594 129.02247563004494,45.83301544189453 125.49442234635353,51.260765075683594 119.25250950455666,51.260765075683594 123.05195561051369,44.88316345214844 123.05195561051369,38.36985778808594 " class="st2"/>
    <g id="svg_16">
     <path id="svg_17" fill="#FFFFFF" d="m207.58917,33.07781l-1.49263,1.76402l-1.89971,2.30679c-0.27139,0.40708 -0.81416,0.40708 -1.22124,0l-1.89971,-2.30679l-1.49263,-1.76402c-0.40708,-0.54278 0,-1.35694 0.54278,-1.35694l6.78469,0c0.81416,0.13569 1.22124,0.81416 0.67847,1.35694z" class="st0"/>
     <path id="svg_18" fill="#FA504B" d="m213.15262,23.44355l0,20.08268c0,0 0,0 0,0l0,1.49263c0,1.49263 -1.22124,2.71388 -2.71388,2.71388l-52.10641,0c-1.49263,0 -2.71388,-1.22124 -2.71388,-2.71388l0,-5.56345c0,-0.94986 -0.94986,-1.49263 -1.76402,-1.08555l-2.1711,1.22124c-1.22124,0.67847 -2.57818,-0.13569 -2.57818,-1.49263l0,-7.87024c0,-1.35694 1.49263,-2.1711 2.57818,-1.49263l2.1711,1.22124c0.81416,0.40708 1.76402,-0.13569 1.76402,-1.08555l0,-5.56345c0,-1.49263 1.22124,-2.71388 2.71388,-2.71388l52.10641,0c1.49263,0.13569 2.71388,1.35694 2.71388,2.84957z" class="st3"/>
     <path id="svg_19" fill="#FA504B" d="m207.58917,33.07781l-1.49263,1.76402l-1.89971,2.30679c-0.27139,0.40708 -0.81416,0.40708 -1.22124,0l-1.89971,-2.30679l-1.49263,-1.76402c-0.40708,-0.54278 0,-1.35694 0.54278,-1.35694l6.78469,0c0.81416,0.13569 1.22124,0.81416 0.67847,1.35694z" class="st3"/>
     <path id="svg_20" fill="#FFFFFF" d="m207.58917,33.07781l-1.49263,1.76402l-1.89971,2.30679c-0.27139,0.40708 -0.81416,0.40708 -1.22124,0l-1.89971,-2.30679l-1.49263,-1.76402c-0.40708,-0.54278 0,-1.35694 0.54278,-1.35694l6.78469,0c0.81416,0.13569 1.22124,0.81416 0.67847,1.35694z" class="st0"/>
     <g id="svg_21">
      <path id="svg_22" fill="#FFFFFF" d="m194.01979,36.60584c0,0.40708 -0.27139,0.67847 -0.67847,0.67847l-30.6668,0c-0.40708,0 -0.67847,-0.27139 -0.67847,-0.67847c0,-0.40708 0.27139,-0.67847 0.67847,-0.67847l30.6668,0c0.40708,0 0.67847,0.40708 0.67847,0.67847z" class="st0"/>
     </g>
     <g id="svg_23">
      <path id="svg_24" fill="#FFFFFF" d="m194.01979,32.53503c0,0.40708 -0.27139,0.67847 -0.67847,0.67847l-30.6668,0c-0.40708,0 -0.67847,-0.27139 -0.67847,-0.67847c0,-0.40708 0.27139,-0.67847 0.67847,-0.67847l30.6668,0c0.40708,0 0.67847,0.27139 0.67847,0.67847z" class="st0"/>
     </g>
    </g>
    <rect id="svg_25" fill="#FFFFFF" height="33.65206" width="6.10622" class="st0" y="68.2225" x="88.58572"/>
    <path id="svg_26" fill="#FFFFFF" d="m145.7128,96.4468c-0.67847,1.62833 -1.89971,3.12096 -3.52804,4.20651c-1.62833,1.08555 -3.79943,1.76402 -6.37761,1.76402c-3.25665,0 -5.83483,-1.08555 -8.00593,-3.25665c-2.03541,-2.1711 -3.12096,-5.02067 -3.12096,-8.54871c0,-3.52804 1.08555,-6.37761 3.12096,-8.54871c2.03541,-2.03541 4.74928,-3.12096 7.87024,-3.12096c2.44249,0 4.47789,0.67847 6.24191,1.89971c1.62833,1.22124 2.84957,2.71388 3.39234,4.47789l-4.61359,2.30679c-0.94986,-2.1711 -2.57818,-3.25665 -4.88498,-3.25665c-1.62833,0 -2.84957,0.54278 -3.79943,1.76402c-0.94986,1.22124 -1.49263,2.71388 -1.49263,4.61359c0,1.89971 0.54278,3.39234 1.49263,4.61359c0.94986,1.22124 2.30679,1.76402 3.93512,1.76402c2.30679,0 3.79943,-1.08555 4.74928,-2.98526l5.02067,2.30679z" class="st0"/>
    <polygon id="svg_27" fill="#FFFFFF" points="170.1376794874668,101.87456512451172 163.48869267106056,101.87456512451172 157.51815739274025,91.56183624267578 154.93998661637306,94.27571105957031 154.93998661637306,101.87456512451172 149.10514774918556,101.87456512451172 149.10514774918556,68.22249603271484 154.93998661637306,68.22249603271484 154.93998661637306,86.5411605834961 162.13175907731056,79.34939575195312 169.73060551285744,79.34939575195312 161.99606266617775,87.08393096923828 " class="st0"/>
    <path id="svg_28" fill="#FFFFFF" d="m186.55663,91.15475c1.08555,1.08555 1.62833,2.57818 1.62833,4.61359c0,2.03541 -0.81416,3.66373 -2.44249,4.88498c-1.62833,1.22124 -3.52804,1.76402 -5.69914,1.76402c-2.44249,0 -4.47789,-0.54278 -6.10622,-1.76402c-1.62833,-1.08555 -2.57818,-2.71388 -3.12096,-4.88498l5.15636,-1.35694c0.54278,2.1711 1.76402,3.25665 3.79943,3.25665c0.81416,0 1.35694,-0.13569 1.89971,-0.54278c0.54278,-0.40708 0.67847,-0.81416 0.67847,-1.35694c0,-0.27139 0,-0.40708 -0.13569,-0.67847c-0.13569,-0.27139 -0.13569,-0.40708 -0.27139,-0.54278c-0.13569,-0.13569 -0.27139,-0.27139 -0.40708,-0.40708c-0.13569,-0.13569 -0.40708,-0.27139 -0.54278,-0.40708c-0.13569,-0.13569 -0.40708,-0.13569 -0.67847,-0.40708c-0.27139,-0.13569 -0.54278,-0.27139 -0.67847,-0.27139c-0.13569,-0.13569 -0.40708,-0.13569 -0.81416,-0.40708c-0.40708,-0.13569 -0.67847,-0.27139 -0.81416,-0.27139c-1.89971,-0.67847 -3.39234,-1.62833 -4.3422,-2.71388c-0.94986,-1.08555 -1.35694,-2.30679 -1.35694,-3.93512c0,-2.03541 0.81416,-3.79943 2.30679,-5.02067c1.49263,-1.22124 3.52804,-1.89971 5.69914,-1.89971c2.1711,0 3.93512,0.54278 5.42775,1.62833c1.49263,1.08555 2.44249,2.57818 2.71388,4.47789l-4.88498,1.35694c-0.54278,-1.89971 -1.76402,-2.84957 -3.39234,-2.84957c-0.67847,0 -1.22124,0.13569 -1.76402,0.54278c-0.40708,0.40708 -0.67847,0.81416 -0.67847,1.49263c0,0.67847 0.27139,1.08555 0.67847,1.49263c0.54278,0.40708 1.35694,0.67847 2.44249,1.22124c2.84957,0.94986 4.61359,1.89971 5.69914,2.98526z" class="st0"/>
    <rect id="svg_29" fill="#FFFFFF" height="7.59885" width="5.97053" class="st0" y="94.4114" x="193.8841"/>
    <polygon id="svg_30" fill="#FFFFFF" points="200.66879215836525,70.25790405273438 199.447539716959,91.56183624267578 194.4268640577793,91.56183624267578 193.341338545084,70.25790405273438 " class="st0"/>
    <polygon id="svg_31" fill="#FFFFFF" points="45.70648518204689,14.216371536254883 45.70648518204689,45.83301544189453 39.46457615494728,45.83301544189453 39.46457615494728,32.67072296142578 26.980742841959,32.67072296142578 26.980742841959,45.83301544189453 20.603135496377945,45.83301544189453 20.603135496377945,14.216371536254883 26.980742841959,14.216371536254883 26.980742841959,26.971588134765625 39.46457615494728,26.971588134765625 39.46457615494728,14.216371536254883 " class="st0"/>
    <path id="svg_32" fill="#FFFFFF" d="m69.04582,26.7002c-1.76402,-2.57818 -4.47789,-3.79943 -8.14163,-3.79943c-3.25665,0 -5.83483,1.08555 -7.87024,3.25665s-2.98526,5.02067 -2.98526,8.54871c0,3.52804 1.08555,6.24191 3.12096,8.41301c2.03541,2.1711 4.74928,3.12096 8.00593,3.12096c2.03541,0 3.93512,-0.40708 5.56345,-1.35694c1.62833,-0.94986 2.98526,-2.03541 3.79943,-3.52804l-4.47789,-2.71388c-1.08555,1.62833 -2.57818,2.30679 -4.61359,2.30679c-3.12096,0 -4.88498,-1.49263 -5.42775,-4.61359l15.06201,0c0.40708,-3.79943 -0.27139,-7.19177 -2.03541,-9.63426zm-13.0266,5.56345c0.27139,-1.35694 0.81416,-2.44249 1.76402,-3.25665c0.81416,-0.81416 1.89971,-1.08555 3.25665,-1.08555c1.49263,0 2.57818,0.40708 3.39234,1.35694s1.22124,1.89971 1.22124,3.12096l-9.63426,0l0,-0.13569z" class="st0"/>
    <rect id="svg_33" fill="#FFFFFF" height="33.65206" width="6.10622" class="st0" y="12.18096" x="75.42342"/>
    <rect id="svg_34" fill="#FFFFFF" height="33.65206" width="6.10622" class="st0" y="12.18096" x="86.68601"/>
    <path id="svg_35" fill="#FFFFFF" d="m116.40295,26.15742c-2.03541,-2.1711 -4.74928,-3.25665 -8.14163,-3.25665c-3.39234,0 -6.10622,1.08555 -8.14163,3.25665c-2.03541,2.1711 -3.12096,5.02067 -3.12096,8.41301c0,3.39234 1.08555,6.10622 3.12096,8.41301c2.03541,2.1711 4.74928,3.39234 8.14163,3.39234c3.39234,0 6.10622,-1.08555 8.14163,-3.39234c2.03541,-2.1711 3.12096,-5.02067 3.12096,-8.41301c0,-3.39234 -0.94986,-6.24191 -3.12096,-8.41301zm-4.3422,12.89091c-0.94986,1.22124 -2.30679,1.76402 -3.79943,1.76402c-1.49263,0 -2.84957,-0.54278 -3.79943,-1.76402c-0.94986,-1.22124 -1.49263,-2.71388 -1.49263,-4.47789c0,-1.76402 0.54278,-3.25665 1.49263,-4.47789c1.08555,-1.08555 2.30679,-1.76402 3.79943,-1.76402c1.49263,0 2.84957,0.54278 3.79943,1.76402c0.94986,1.22124 1.49263,2.71388 1.49263,4.47789c0,1.76402 -0.40708,3.25665 -1.49263,4.47789z" class="st0"/>
    <polygon id="svg_36" fill="#FFFFFF" points="129.02247563004494,38.36985778808594 129.02247563004494,45.83301544189453 125.49442234635353,51.260765075683594 119.25250950455666,51.260765075683594 123.05195561051369,44.88316345214844 123.05195561051369,38.36985778808594 " class="st0"/>
    <rect id="svg_37" fill="#23234B" height="33.65206" width="6.10622" class="st4" y="68.2225" x="88.58572"/>
    <path id="svg_38" fill="#23234B" d="m118.30266,82.19896c-2.03541,-2.1711 -4.74928,-3.25665 -8.14163,-3.25665c-3.39234,0 -6.10622,1.08555 -8.14163,3.25665c-2.03541,2.1711 -3.12096,5.02067 -3.12096,8.41301c0,3.39234 1.08555,6.10622 3.12096,8.41301c2.03541,2.1711 4.74928,3.39234 8.14163,3.39234c3.39234,0 6.10622,-1.08555 8.14163,-3.39234c2.03541,-2.1711 3.12096,-5.02067 3.12096,-8.41301c0,-3.39234 -1.08555,-6.24191 -3.12096,-8.41301zm-4.3422,12.89091c-1.08555,1.08555 -2.30679,1.76402 -3.79943,1.76402c-1.49263,0 -2.84957,-0.54278 -3.79943,-1.76402c-0.94986,-1.22124 -1.49263,-2.71388 -1.49263,-4.47789s0.54278,-3.25665 1.49263,-4.47789c1.08555,-1.22124 2.30679,-1.76402 3.79943,-1.76402c1.49263,0 2.84957,0.54278 3.79943,1.76402c0.94986,1.08555 1.49263,2.57818 1.49263,4.47789s-0.54278,3.25665 -1.49263,4.47789z" class="st4"/>
    <path id="svg_39" fill="#23234B" d="m145.7128,96.4468c-0.67847,1.62833 -1.89971,3.12096 -3.52804,4.20651c-1.62833,1.08555 -3.79943,1.76402 -6.37761,1.76402c-3.25665,0 -5.83483,-1.08555 -8.00593,-3.25665c-2.03541,-2.1711 -3.12096,-5.02067 -3.12096,-8.54871c0,-3.52804 1.08555,-6.37761 3.12096,-8.54871c2.03541,-2.03541 4.74928,-3.12096 7.87024,-3.12096c2.44249,0 4.47789,0.67847 6.24191,1.89971c1.62833,1.22124 2.84957,2.71388 3.39234,4.47789l-4.61359,2.30679c-0.94986,-2.1711 -2.57818,-3.25665 -4.88498,-3.25665c-1.62833,0 -2.84957,0.54278 -3.79943,1.76402c-0.94986,1.22124 -1.49263,2.71388 -1.49263,4.61359c0,1.89971 0.54278,3.39234 1.49263,4.61359c0.94986,1.22124 2.30679,1.76402 3.93512,1.76402c2.30679,0 3.79943,-1.08555 4.74928,-2.98526l5.02067,2.30679z" class="st4"/>
    <polygon id="svg_40" fill="#23234B" points="170.1376794874668,101.87456512451172 163.48869267106056,101.87456512451172 157.51815739274025,91.56183624267578 154.93998661637306,94.27571105957031 154.93998661637306,101.87456512451172 149.10514774918556,101.87456512451172 149.10514774918556,68.22249603271484 154.93998661637306,68.22249603271484 154.93998661637306,86.5411605834961 162.13175907731056,79.34939575195312 169.73060551285744,79.34939575195312 161.99606266617775,87.08393096923828 " class="st4"/>
    <path id="svg_41" fill="#23234B" d="m186.55663,91.15475c1.08555,1.08555 1.62833,2.57818 1.62833,4.61359c0,2.03541 -0.81416,3.66373 -2.44249,4.88498c-1.62833,1.22124 -3.52804,1.76402 -5.69914,1.76402c-2.44249,0 -4.47789,-0.54278 -6.10622,-1.76402c-1.62833,-1.08555 -2.57818,-2.71388 -3.12096,-4.88498l5.15636,-1.35694c0.54278,2.1711 1.76402,3.25665 3.79943,3.25665c0.81416,0 1.35694,-0.13569 1.89971,-0.54278c0.54278,-0.40708 0.67847,-0.81416 0.67847,-1.35694c0,-0.27139 0,-0.40708 -0.13569,-0.67847c-0.13569,-0.27139 -0.13569,-0.40708 -0.27139,-0.54278c-0.13569,-0.13569 -0.27139,-0.27139 -0.40708,-0.40708c-0.13569,-0.13569 -0.40708,-0.27139 -0.54278,-0.40708c-0.13569,-0.13569 -0.40708,-0.13569 -0.67847,-0.40708c-0.27139,-0.13569 -0.54278,-0.27139 -0.67847,-0.27139c-0.13569,-0.13569 -0.40708,-0.13569 -0.81416,-0.40708c-0.40708,-0.13569 -0.67847,-0.27139 -0.81416,-0.27139c-1.89971,-0.67847 -3.39234,-1.62833 -4.3422,-2.71388c-0.94986,-1.08555 -1.35694,-2.30679 -1.35694,-3.93512c0,-2.03541 0.81416,-3.79943 2.30679,-5.02067c1.49263,-1.22124 3.52804,-1.89971 5.69914,-1.89971c2.1711,0 3.93512,0.54278 5.42775,1.62833c1.49263,1.08555 2.44249,2.57818 2.71388,4.47789l-4.88498,1.35694c-0.54278,-1.89971 -1.76402,-2.84957 -3.39234,-2.84957c-0.67847,0 -1.22124,0.13569 -1.76402,0.54278c-0.40708,0.40708 -0.67847,0.81416 -0.67847,1.49263c0,0.67847 0.27139,1.08555 0.67847,1.49263c0.54278,0.40708 1.35694,0.67847 2.44249,1.22124c2.84957,0.94986 4.61359,1.89971 5.69914,2.98526z" class="st4"/>
    <path id="svg_42" fill="#23234B" d="m193.8841,94.4114l0,7.59885l5.97053,0l0,-7.59885l-5.97053,0zm-0.54278,-24.15349l1.22124,21.16823l4.88498,0l1.22124,-21.16823l-7.32746,0z" class="st4"/>
    <path id="svg_43" fill="#23234B" d="m82.75089,88.44087c-0.94986,-1.49263 -2.30679,-2.44249 -3.93512,-2.98526c1.35694,-0.54278 2.44249,-1.49263 3.25665,-2.71388c0.94986,-1.22124 1.35694,-2.71388 1.35694,-4.47789c0,-2.44249 -0.81416,-4.3422 -2.44249,-5.83483c-1.62833,-1.49263 -3.93512,-2.1711 -6.78469,-2.1711l-11.94105,0l0,31.61665l11.53397,0c3.39234,0 5.97053,-0.81416 7.73455,-2.30679c1.76402,-1.49263 2.71388,-3.52804 2.71388,-6.10622c-0.13569,-1.89971 -0.54278,-3.52804 -1.49263,-5.02067zm-14.51923,-12.75522l5.83483,0c1.22124,0 2.1711,0.40708 2.84957,0.94986c0.67847,0.67847 0.94986,1.49263 0.94986,2.57818c0,1.08555 -0.40708,1.89971 -0.94986,2.57818c-0.67847,0.67847 -1.62833,0.94986 -2.84957,0.94986l-5.83483,0l0,-7.05608zm8.6844,19.6756c-0.81416,0.67847 -1.89971,1.08555 -3.39234,1.08555l-5.29206,0l0,-8.14163l5.02067,0c1.62833,0 2.84957,0.40708 3.66373,1.08555c0.81416,0.67847 1.22124,1.76402 1.22124,3.12096c0,1.22124 -0.40708,2.1711 -1.22124,2.84957z" class="st4"/>
    <rect id="svg_44" fill="#23234B" height="33.65206" width="6.10622" class="st4" y="68.2225" x="88.58572"/>
   </g>
  </g>
  <g id="Capa_2"/>
  <g id="Capa_5"/>
 </g>
</svg>