<svg id="Capa_1" data-name="Capa 1" xmlns="http://www.w3.org/2000/svg" xmlns:xlink="http://www.w3.org/1999/xlink" viewBox="0 0 19 15">
  <defs>
    <clipPath id="clip-path">
      <path d="M-68.39,12V136.35A10.82,10.82,0,0,1-78.71,147H-198.38a10.82,10.82,0,0,1-10.32-10.64V12c0-.19,0-.37,0-.55s0-.09,0-.14a10.8,10.8,0,0,1,9.22-9.83h0a11.33,11.33,0,0,1,1.77-.14H-79.41a10.87,10.87,0,0,1,11,10,2.17,2.17,0,0,1,0,.26,1.48,1.48,0,0,1,0,.21V12" fill="none"/>
    </clipPath>
  </defs>
  <title>iconos_svg</title>
  <g clip-path="url(#clip-path)">
    <polygon points="749.58 -220.76 749.58 -220.8 -215.55 -220.8 -215.55 623.29 749.61 623.29 749.61 -220.8 749.58 -220.8 749.58 -220.76 749.54 -220.76 749.54 623.22 -215.47 623.22 -215.47 -220.73 749.58 -220.73 749.58 -220.76 749.54 -220.76 749.58 -220.76" fill="#fff"/>
  </g>
  <g>
    <path d="M18.22,6.8l-1-.13a4.55,4.55,0,0,0-.3-.72l.62-.79a.81.81,0,0,0-.07-1l-.83-.83a.79.79,0,0,0-1.05-.06l-.78.61a4.66,4.66,0,0,0-.73-.3l-.12-1a.8.8,0,0,0-.79-.7H12a.78.78,0,0,0-.78.7l-.13,1a4.55,4.55,0,0,0-.72.3l-.79-.61a.79.79,0,0,0-1.05.06l-.83.83a.79.79,0,0,0-.06,1L8.24,6a4.55,4.55,0,0,0-.3.72L7,6.8a.78.78,0,0,0-.7.78V8.76a.8.8,0,0,0,.7.79l1,.12a4.66,4.66,0,0,0,.3.73l-.61.79a.78.78,0,0,0,.06,1l.83.83a.79.79,0,0,0,1.05.07l.79-.62a4.55,4.55,0,0,0,.72.3l.13,1a.78.78,0,0,0,.78.7h1.18a.8.8,0,0,0,.79-.69l.12-1a4.66,4.66,0,0,0,.73-.3l.78.62a.81.81,0,0,0,1.05-.07l.83-.83a.81.81,0,0,0,.07-1.05l-.62-.78a4.66,4.66,0,0,0,.3-.73l1-.12a.8.8,0,0,0,.7-.79V7.58a.78.78,0,0,0-.69-.78Zm-5.64,4a2.64,2.64,0,1,1,2.64-2.64,2.64,2.64,0,0,1-2.64,2.64Z" fill="#7c8a8e"/>
    <path d="M12.05,5.45l-1-.12a4.66,4.66,0,0,0-.3-.73l.61-.78a.79.79,0,0,0-.06-1l-.83-.83a.81.81,0,0,0-1.05-.07l-.78.62a4.66,4.66,0,0,0-.73-.3l-.13-1A.78.78,0,0,0,7,.5H5.83a.78.78,0,0,0-.78.69l-.13,1a4.66,4.66,0,0,0-.73.3l-.78-.62a.81.81,0,0,0-1.05.07l-.83.83a.81.81,0,0,0-.07,1l.62.78a4.66,4.66,0,0,0-.3.73l-1,.12a.8.8,0,0,0-.7.79V7.42a.78.78,0,0,0,.7.78l1,.13a4.55,4.55,0,0,0,.3.72l-.62.79a.81.81,0,0,0,.07,1.05l.83.83a.79.79,0,0,0,1.05.06l.78-.61a5.1,5.1,0,0,0,.73.3l.13,1a.78.78,0,0,0,.78.7H7a.78.78,0,0,0,.78-.7l.13-1a4.55,4.55,0,0,0,.72-.3l.79.61a.79.79,0,0,0,1.05-.06l.83-.83a.79.79,0,0,0,.06-1.05l-.61-.79a4.55,4.55,0,0,0,.3-.72l1-.13a.78.78,0,0,0,.7-.78V6.24a.8.8,0,0,0-.7-.79Zm-5.63,4A2.64,2.64,0,1,1,9.06,6.83,2.65,2.65,0,0,1,6.42,9.47Z" fill="#90a4ae"/>
  </g>
</svg>
