<svg xmlns="http://www.w3.org/2000/svg" viewBox="0 0 39.42 35.75">
  <defs>
    <style>
      .cls-1, .cls-2, .cls-3 {
      fill: none;
      stroke: #b2b2b2;
        stroke-miterlimit: 10;
        stroke-width: 0.75px;
      }
    </style>
  </defs>
  <title>Recurso 24</title>
  <g id="Capa_2" data-name="Capa 2">
    <g id="Capa_7" data-name="Capa 7">
      <path class="cls-1" d="M39,2.17V33.58a1.8,1.8,0,0,1-1.79,1.8H7.13a1.79,1.79,0,0,1-1.78-1.8V23.66L.53,18.83,5.35,14V2.17A1.79,1.79,0,0,1,7.13.38H37.25A1.79,1.79,0,0,1,39,2.17Z"/>
    </g>
    <g id="Capa_2-2" data-name="Capa 2">
      <circle class="cls-2" cx="22.19" cy="14.17" r="6.39"/>
      <path class="cls-3" d="M34.44,32.8a12.12,12.12,0,0,1-.27,2.57h-24A12.12,12.12,0,0,1,10,32.8a12.25,12.25,0,1,1,24.49,0Z"/>
    </g>
  </g>
</svg>
