<svg xmlns="http://www.w3.org/2000/svg" viewBox="0 0 100 100">
  <title>Iconos_ledmatrix</title>
  <g id="Fondo">
    <rect x="-1.26" y="-1.54" width="102.51" height="103.09" fill="#e9655b"/>
  </g>
  <g id="Capa_1" data-name="Capa 1">
    <path d="M14.22,11.79a3.4,3.4,0,0,1-2.85,3.36,3.39,3.39,0,0,1,0-6.7A3.38,3.38,0,0,1,14.22,11.79Z" fill="#c1423e"/>
    <g>
      <path d="M87.55,91.58a2.64,2.64,0,0,1-.63.06,3.85,3.85,0,0,1,0-7.69,2.64,2.64,0,0,1,.63.06,3.83,3.83,0,0,0,0,7.57Z" fill="#c1423e"/>
      <path d="M90.76,87.79a3.82,3.82,0,0,1-3.21,3.79,3.83,3.83,0,0,1,0-7.57A3.82,3.82,0,0,1,90.76,87.79Z" fill="#c1423e"/>
    </g>
    <g>
      <path d="M87.55,80.79a2.64,2.64,0,0,1-.63.06,3.85,3.85,0,0,1,0-7.69,3.28,3.28,0,0,1,.63,0,3.84,3.84,0,0,0,0,7.58Z" fill="#c1423e"/>
      <path d="M90.76,77a3.83,3.83,0,0,1-3.21,3.79,3.84,3.84,0,0,1,0-7.58A3.82,3.82,0,0,1,90.76,77Z" fill="#c1423e"/>
    </g>
    <g>
      <path d="M87.55,70a3.28,3.28,0,0,1-.63,0,3.85,3.85,0,0,1,0-7.69,2.64,2.64,0,0,1,.63.06,3.84,3.84,0,0,0,0,7.58Z" fill="#c1423e"/>
      <path d="M90.76,66.2A3.83,3.83,0,0,1,87.55,70a3.84,3.84,0,0,1,0-7.58A3.82,3.82,0,0,1,90.76,66.2Z" fill="#c1423e"/>
    </g>
    <g>
      <path d="M87.55,59.2a2.64,2.64,0,0,1-.63.06,3.85,3.85,0,0,1,0-7.69,2.64,2.64,0,0,1,.63.06,3.83,3.83,0,0,0,0,7.57Z" fill="#c1423e"/>
      <path d="M90.76,55.41a3.82,3.82,0,0,1-3.21,3.79,3.83,3.83,0,0,1,0-7.57A3.82,3.82,0,0,1,90.76,55.41Z" fill="#c1423e"/>
    </g>
    <g>
      <path d="M87.55,48.41a2.64,2.64,0,0,1-.63.06,3.85,3.85,0,0,1,0-7.69,3.28,3.28,0,0,1,.63,0,3.84,3.84,0,0,0,0,7.58Z" fill="#fff"/>
      <path d="M90.76,44.62a3.83,3.83,0,0,1-3.21,3.79,3.84,3.84,0,0,1,0-7.58A3.82,3.82,0,0,1,90.76,44.62Z" fill="#fff"/>
    </g>
    <g>
      <path d="M87.55,37.62a3.28,3.28,0,0,1-.63.05,3.85,3.85,0,0,1,0-7.69,2.64,2.64,0,0,1,.63.06,3.84,3.84,0,0,0,0,7.58Z" fill="#fff"/>
      <path d="M90.76,33.82a3.83,3.83,0,0,1-3.21,3.8,3.84,3.84,0,0,1,0-7.58A3.82,3.82,0,0,1,90.76,33.82Z" fill="#fff"/>
    </g>
    <g>
      <path d="M87.55,26.82a2.64,2.64,0,0,1-.63.06,3.85,3.85,0,0,1,0-7.69,2.64,2.64,0,0,1,.63.06,3.83,3.83,0,0,0,0,7.57Z" fill="#fff"/>
      <path d="M90.76,23a3.82,3.82,0,0,1-3.21,3.79,3.83,3.83,0,0,1,0-7.57A3.82,3.82,0,0,1,90.76,23Z" fill="#fff"/>
    </g>
    <g>
      <path d="M87.55,16a2.64,2.64,0,0,1-.63.06,3.85,3.85,0,0,1,0-7.69,3.28,3.28,0,0,1,.63,0,3.84,3.84,0,0,0,0,7.58Z" fill="#fff"/>
      <path d="M90.76,12.24A3.83,3.83,0,0,1,87.55,16a3.84,3.84,0,0,1,0-7.58A3.82,3.82,0,0,1,90.76,12.24Z" fill="#fff"/>
    </g>
    <g>
      <path d="M76.75,91.58a2.51,2.51,0,0,1-.62.06,3.85,3.85,0,0,1,0-7.69,2.51,2.51,0,0,1,.62.06,3.83,3.83,0,0,0,0,7.57Z" fill="#fff"/>
      <path d="M80,87.79a3.83,3.83,0,0,1-3.22,3.79,3.83,3.83,0,0,1,0-7.57A3.83,3.83,0,0,1,80,87.79Z" fill="#fff"/>
    </g>
    <g>
      <path d="M76.75,80.79a2.51,2.51,0,0,1-.62.06,3.85,3.85,0,0,1,0-7.69,3.12,3.12,0,0,1,.62,0,3.84,3.84,0,0,0,0,7.58Z" fill="#fff"/>
      <path d="M80,77a3.84,3.84,0,0,1-3.22,3.79,3.84,3.84,0,0,1,0-7.58A3.83,3.83,0,0,1,80,77Z" fill="#fff"/>
    </g>
    <g>
      <path d="M76.75,70a3.12,3.12,0,0,1-.62,0,3.85,3.85,0,0,1,0-7.69,2.51,2.51,0,0,1,.62.06,3.84,3.84,0,0,0,0,7.58Z" fill="#fff"/>
      <path d="M80,66.2A3.84,3.84,0,0,1,76.75,70a3.84,3.84,0,0,1,0-7.58A3.83,3.83,0,0,1,80,66.2Z" fill="#fff"/>
    </g>
    <g>
      <path d="M76.75,59.2a2.51,2.51,0,0,1-.62.06,3.85,3.85,0,0,1,0-7.69,2.51,2.51,0,0,1,.62.06,3.83,3.83,0,0,0,0,7.57Z" fill="#fff"/>
      <path d="M80,55.41a3.83,3.83,0,0,1-3.22,3.79,3.83,3.83,0,0,1,0-7.57A3.83,3.83,0,0,1,80,55.41Z" fill="#fff"/>
    </g>
    <g>
      <path d="M76.75,48.41a2.51,2.51,0,0,1-.62.06,3.85,3.85,0,0,1,0-7.69,3.12,3.12,0,0,1,.62,0,3.84,3.84,0,0,0,0,7.58Z" fill="#fff"/>
      <path d="M80,44.62a3.84,3.84,0,0,1-3.22,3.79,3.84,3.84,0,0,1,0-7.58A3.83,3.83,0,0,1,80,44.62Z" fill="#fff"/>
    </g>
    <g>
      <path d="M76.75,37.62a3.12,3.12,0,0,1-.62.05,3.85,3.85,0,0,1,0-7.69,2.51,2.51,0,0,1,.62.06,3.84,3.84,0,0,0,0,7.58Z" fill="#fff"/>
      <path d="M80,33.82a3.84,3.84,0,0,1-3.22,3.8,3.84,3.84,0,0,1,0-7.58A3.83,3.83,0,0,1,80,33.82Z" fill="#fff"/>
    </g>
    <g>
      <path d="M76.75,26.82a2.51,2.51,0,0,1-.62.06,3.85,3.85,0,0,1,0-7.69,2.51,2.51,0,0,1,.62.06,3.83,3.83,0,0,0,0,7.57Z" fill="#c1423e"/>
      <path d="M80,23a3.83,3.83,0,0,1-3.22,3.79,3.83,3.83,0,0,1,0-7.57A3.83,3.83,0,0,1,80,23Z" fill="#c1423e"/>
    </g>
    <g>
      <path d="M76.75,16a2.51,2.51,0,0,1-.62.06,3.85,3.85,0,0,1,0-7.69,3.12,3.12,0,0,1,.62,0,3.84,3.84,0,0,0,0,7.58Z" fill="#c1423e"/>
      <path d="M80,12.24A3.84,3.84,0,0,1,76.75,16a3.84,3.84,0,0,1,0-7.58A3.83,3.83,0,0,1,80,12.24Z" fill="#c1423e"/>
    </g>
    <g>
      <path d="M66,91.58a2.61,2.61,0,0,1-.62.06,3.85,3.85,0,0,1,0-7.69A2.61,2.61,0,0,1,66,84a3.83,3.83,0,0,0,0,7.57Z" fill="#fff"/>
      <path d="M69.18,87.79A3.83,3.83,0,0,1,66,91.58,3.83,3.83,0,0,1,66,84,3.83,3.83,0,0,1,69.18,87.79Z" fill="#fff"/>
    </g>
    <g>
      <path d="M66,80.79a2.61,2.61,0,0,1-.62.06,3.85,3.85,0,0,1,0-7.69,3.24,3.24,0,0,1,.62,0,3.84,3.84,0,0,0,0,7.58Z" fill="#fff"/>
      <path d="M69.18,77A3.84,3.84,0,0,1,66,80.79a3.84,3.84,0,0,1,0-7.58A3.83,3.83,0,0,1,69.18,77Z" fill="#fff"/>
    </g>
    <g>
      <path d="M66,70a3.24,3.24,0,0,1-.62,0,3.85,3.85,0,0,1,0-7.69,2.61,2.61,0,0,1,.62.06A3.84,3.84,0,0,0,66,70Z" fill="#fff"/>
      <path d="M69.18,66.2A3.84,3.84,0,0,1,66,70a3.84,3.84,0,0,1,0-7.58A3.83,3.83,0,0,1,69.18,66.2Z" fill="#fff"/>
    </g>
    <g>
      <path d="M66,59.2a2.61,2.61,0,0,1-.62.06,3.85,3.85,0,0,1,0-7.69,2.61,2.61,0,0,1,.62.06,3.83,3.83,0,0,0,0,7.57Z" fill="#c1423e"/>
      <path d="M69.18,55.41A3.83,3.83,0,0,1,66,59.2a3.83,3.83,0,0,1,0-7.57A3.83,3.83,0,0,1,69.18,55.41Z" fill="#c1423e"/>
    </g>
    <g>
      <path d="M66,48.41a2.61,2.61,0,0,1-.62.06,3.85,3.85,0,0,1,0-7.69,3.24,3.24,0,0,1,.62,0,3.84,3.84,0,0,0,0,7.58Z" fill="#c1423e"/>
      <path d="M69.18,44.62A3.84,3.84,0,0,1,66,48.41a3.84,3.84,0,0,1,0-7.58A3.83,3.83,0,0,1,69.18,44.62Z" fill="#c1423e"/>
    </g>
    <g>
      <path d="M66,37.62a3.24,3.24,0,0,1-.62.05,3.85,3.85,0,0,1,0-7.69A2.61,2.61,0,0,1,66,30a3.84,3.84,0,0,0,0,7.58Z" fill="#c1423e"/>
      <path d="M69.18,33.82A3.84,3.84,0,0,1,66,37.62,3.84,3.84,0,0,1,66,30,3.83,3.83,0,0,1,69.18,33.82Z" fill="#c1423e"/>
    </g>
    <g>
      <path d="M66,26.82a2.61,2.61,0,0,1-.62.06,3.85,3.85,0,0,1,0-7.69,2.61,2.61,0,0,1,.62.06,3.83,3.83,0,0,0,0,7.57Z" fill="#c1423e"/>
      <path d="M69.18,23A3.83,3.83,0,0,1,66,26.82a3.83,3.83,0,0,1,0-7.57A3.83,3.83,0,0,1,69.18,23Z" fill="#c1423e"/>
    </g>
    <g>
      <path d="M66,16a2.61,2.61,0,0,1-.62.06,3.85,3.85,0,0,1,0-7.69,3.24,3.24,0,0,1,.62,0A3.84,3.84,0,0,0,66,16Z" fill="#c1423e"/>
      <path d="M69.18,12.24A3.84,3.84,0,0,1,66,16a3.84,3.84,0,0,1,0-7.58A3.83,3.83,0,0,1,69.18,12.24Z" fill="#c1423e"/>
    </g>
    <g>
      <path d="M55.17,91.58a2.64,2.64,0,0,1-.63.06,3.85,3.85,0,0,1,0-7.69,2.64,2.64,0,0,1,.63.06,3.83,3.83,0,0,0,0,7.57Z" fill="#c1423e"/>
      <path d="M58.38,87.79a3.82,3.82,0,0,1-3.21,3.79,3.83,3.83,0,0,1,0-7.57A3.82,3.82,0,0,1,58.38,87.79Z" fill="#c1423e"/>
    </g>
    <g>
      <path d="M55.17,80.79a2.64,2.64,0,0,1-.63.06,3.85,3.85,0,0,1,0-7.69,3.28,3.28,0,0,1,.63,0,3.84,3.84,0,0,0,0,7.58Z" fill="#c1423e"/>
      <path d="M58.38,77a3.83,3.83,0,0,1-3.21,3.79,3.84,3.84,0,0,1,0-7.58A3.82,3.82,0,0,1,58.38,77Z" fill="#c1423e"/>
    </g>
    <g>
      <path d="M55.17,70a3.28,3.28,0,0,1-.63,0,3.85,3.85,0,0,1,0-7.69,2.64,2.64,0,0,1,.63.06,3.84,3.84,0,0,0,0,7.58Z" fill="#fff"/>
      <path d="M58.38,66.2A3.83,3.83,0,0,1,55.17,70a3.84,3.84,0,0,1,0-7.58A3.82,3.82,0,0,1,58.38,66.2Z" fill="#fff"/>
    </g>
    <g>
      <path d="M55.17,59.2a2.64,2.64,0,0,1-.63.06,3.85,3.85,0,0,1,0-7.69,2.64,2.64,0,0,1,.63.06,3.83,3.83,0,0,0,0,7.57Z" fill="#fff"/>
      <path d="M58.38,55.41a3.82,3.82,0,0,1-3.21,3.79,3.83,3.83,0,0,1,0-7.57A3.82,3.82,0,0,1,58.38,55.41Z" fill="#fff"/>
    </g>
    <g>
      <path d="M55.17,48.41a2.64,2.64,0,0,1-.63.06,3.85,3.85,0,0,1,0-7.69,3.28,3.28,0,0,1,.63,0,3.84,3.84,0,0,0,0,7.58Z" fill="#c1423e"/>
      <path d="M58.38,44.62a3.83,3.83,0,0,1-3.21,3.79,3.84,3.84,0,0,1,0-7.58A3.82,3.82,0,0,1,58.38,44.62Z" fill="#c1423e"/>
    </g>
    <g>
      <path d="M55.17,37.62a3.28,3.28,0,0,1-.63.05,3.85,3.85,0,0,1,0-7.69,2.64,2.64,0,0,1,.63.06,3.84,3.84,0,0,0,0,7.58Z" fill="#c1423e"/>
      <path d="M58.38,33.82a3.83,3.83,0,0,1-3.21,3.8,3.84,3.84,0,0,1,0-7.58A3.82,3.82,0,0,1,58.38,33.82Z" fill="#c1423e"/>
    </g>
    <g>
      <path d="M55.17,26.82a2.64,2.64,0,0,1-.63.06,3.85,3.85,0,0,1,0-7.69,2.64,2.64,0,0,1,.63.06,3.83,3.83,0,0,0,0,7.57Z" fill="#c1423e"/>
      <path d="M58.38,23a3.82,3.82,0,0,1-3.21,3.79,3.83,3.83,0,0,1,0-7.57A3.82,3.82,0,0,1,58.38,23Z" fill="#c1423e"/>
    </g>
    <g>
      <path d="M55.17,16a2.64,2.64,0,0,1-.63.06,3.85,3.85,0,0,1,0-7.69,3.28,3.28,0,0,1,.63,0,3.84,3.84,0,0,0,0,7.58Z" fill="#c1423e"/>
      <path d="M58.38,12.24A3.83,3.83,0,0,1,55.17,16a3.84,3.84,0,0,1,0-7.58A3.82,3.82,0,0,1,58.38,12.24Z" fill="#c1423e"/>
    </g>
    <g>
      <path d="M44.37,91.58a2.51,2.51,0,0,1-.62.06,3.85,3.85,0,0,1,0-7.69,2.51,2.51,0,0,1,.62.06,3.83,3.83,0,0,0,0,7.57Z" fill="#c1423e"/>
      <path d="M47.59,87.79a3.83,3.83,0,0,1-3.22,3.79,3.83,3.83,0,0,1,0-7.57A3.83,3.83,0,0,1,47.59,87.79Z" fill="#c1423e"/>
    </g>
    <g>
      <path d="M44.37,80.79a2.51,2.51,0,0,1-.62.06,3.85,3.85,0,0,1,0-7.69,3.12,3.12,0,0,1,.62,0,3.84,3.84,0,0,0,0,7.58Z" fill="#c1423e"/>
      <path d="M47.59,77a3.84,3.84,0,0,1-3.22,3.79,3.84,3.84,0,0,1,0-7.58A3.83,3.83,0,0,1,47.59,77Z" fill="#c1423e"/>
    </g>
    <g>
      <path d="M44.37,70a3.12,3.12,0,0,1-.62,0,3.85,3.85,0,0,1,0-7.69,2.51,2.51,0,0,1,.62.06,3.84,3.84,0,0,0,0,7.58Z" fill="#fff"/>
      <path d="M47.59,66.2A3.84,3.84,0,0,1,44.37,70a3.84,3.84,0,0,1,0-7.58A3.83,3.83,0,0,1,47.59,66.2Z" fill="#fff"/>
    </g>
    <g>
      <path d="M44.37,59.2a2.51,2.51,0,0,1-.62.06,3.85,3.85,0,0,1,0-7.69,2.51,2.51,0,0,1,.62.06,3.83,3.83,0,0,0,0,7.57Z" fill="#fff"/>
      <path d="M47.59,55.41a3.83,3.83,0,0,1-3.22,3.79,3.83,3.83,0,0,1,0-7.57A3.83,3.83,0,0,1,47.59,55.41Z" fill="#fff"/>
    </g>
    <g>
      <path d="M44.37,48.41a2.51,2.51,0,0,1-.62.06,3.85,3.85,0,0,1,0-7.69,3.12,3.12,0,0,1,.62,0,3.84,3.84,0,0,0,0,7.58Z" fill="#c1423e"/>
      <path d="M47.59,44.62a3.84,3.84,0,0,1-3.22,3.79,3.84,3.84,0,0,1,0-7.58A3.83,3.83,0,0,1,47.59,44.62Z" fill="#c1423e"/>
    </g>
    <g>
      <path d="M44.37,37.62a3.12,3.12,0,0,1-.62.05,3.85,3.85,0,0,1,0-7.69,2.51,2.51,0,0,1,.62.06,3.84,3.84,0,0,0,0,7.58Z" fill="#c1423e"/>
      <path d="M47.59,33.82a3.84,3.84,0,0,1-3.22,3.8,3.84,3.84,0,0,1,0-7.58A3.83,3.83,0,0,1,47.59,33.82Z" fill="#c1423e"/>
    </g>
    <g>
      <path d="M44.37,26.82a2.51,2.51,0,0,1-.62.06,3.85,3.85,0,0,1,0-7.69,2.51,2.51,0,0,1,.62.06,3.83,3.83,0,0,0,0,7.57Z" fill="#c1423e"/>
      <path d="M47.59,23a3.83,3.83,0,0,1-3.22,3.79,3.83,3.83,0,0,1,0-7.57A3.83,3.83,0,0,1,47.59,23Z" fill="#c1423e"/>
    </g>
    <g>
      <path d="M44.37,16a2.51,2.51,0,0,1-.62.06,3.85,3.85,0,0,1,0-7.69,3.12,3.12,0,0,1,.62,0,3.84,3.84,0,0,0,0,7.58Z" fill="#c1423e"/>
      <path d="M47.59,12.24A3.84,3.84,0,0,1,44.37,16a3.84,3.84,0,0,1,0-7.58A3.83,3.83,0,0,1,47.59,12.24Z" fill="#c1423e"/>
    </g>
    <g>
      <path d="M33.58,91.58a2.61,2.61,0,0,1-.62.06A3.85,3.85,0,0,1,33,84a2.61,2.61,0,0,1,.62.06,3.83,3.83,0,0,0,0,7.57Z" fill="#fff"/>
      <path d="M36.8,87.79a3.83,3.83,0,0,1-3.22,3.79,3.83,3.83,0,0,1,0-7.57A3.83,3.83,0,0,1,36.8,87.79Z" fill="#fff"/>
    </g>
    <g>
      <path d="M33.58,80.79a2.61,2.61,0,0,1-.62.06,3.85,3.85,0,0,1,0-7.69,3.24,3.24,0,0,1,.62,0,3.84,3.84,0,0,0,0,7.58Z" fill="#fff"/>
      <path d="M36.8,77a3.84,3.84,0,0,1-3.22,3.79,3.84,3.84,0,0,1,0-7.58A3.83,3.83,0,0,1,36.8,77Z" fill="#fff"/>
    </g>
    <g>
      <path d="M33.58,70a3.24,3.24,0,0,1-.62,0,3.85,3.85,0,0,1,0-7.69,2.61,2.61,0,0,1,.62.06,3.84,3.84,0,0,0,0,7.58Z" fill="#fff"/>
      <path d="M36.8,66.2A3.84,3.84,0,0,1,33.58,70a3.84,3.84,0,0,1,0-7.58A3.83,3.83,0,0,1,36.8,66.2Z" fill="#fff"/>
    </g>
    <g>
      <path d="M33.58,59.2a2.61,2.61,0,0,1-.62.06,3.85,3.85,0,0,1,0-7.69,2.61,2.61,0,0,1,.62.06,3.83,3.83,0,0,0,0,7.57Z" fill="#c1423e"/>
      <path d="M36.8,55.41a3.83,3.83,0,0,1-3.22,3.79,3.83,3.83,0,0,1,0-7.57A3.83,3.83,0,0,1,36.8,55.41Z" fill="#c1423e"/>
    </g>
    <g>
      <path d="M33.58,48.41a2.61,2.61,0,0,1-.62.06,3.85,3.85,0,0,1,0-7.69,3.24,3.24,0,0,1,.62,0,3.84,3.84,0,0,0,0,7.58Z" fill="#c1423e"/>
      <path d="M36.8,44.62a3.84,3.84,0,0,1-3.22,3.79,3.84,3.84,0,0,1,0-7.58A3.83,3.83,0,0,1,36.8,44.62Z" fill="#c1423e"/>
    </g>
    <g>
      <path d="M33.58,37.62a3.24,3.24,0,0,1-.62.05A3.85,3.85,0,0,1,33,30a2.61,2.61,0,0,1,.62.06,3.84,3.84,0,0,0,0,7.58Z" fill="#c1423e"/>
      <path d="M36.8,33.82a3.84,3.84,0,0,1-3.22,3.8,3.84,3.84,0,0,1,0-7.58A3.83,3.83,0,0,1,36.8,33.82Z" fill="#c1423e"/>
    </g>
    <g>
      <path d="M33.58,26.82a2.61,2.61,0,0,1-.62.06,3.85,3.85,0,0,1,0-7.69,2.61,2.61,0,0,1,.62.06,3.83,3.83,0,0,0,0,7.57Z" fill="#c1423e"/>
      <path d="M36.8,23a3.83,3.83,0,0,1-3.22,3.79,3.83,3.83,0,0,1,0-7.57A3.83,3.83,0,0,1,36.8,23Z" fill="#c1423e"/>
    </g>
    <g>
      <path d="M33.58,16a2.61,2.61,0,0,1-.62.06A3.85,3.85,0,0,1,33,8.4a3.24,3.24,0,0,1,.62,0,3.84,3.84,0,0,0,0,7.58Z" fill="#c1423e"/>
      <path d="M36.8,12.24A3.84,3.84,0,0,1,33.58,16a3.84,3.84,0,0,1,0-7.58A3.83,3.83,0,0,1,36.8,12.24Z" fill="#c1423e"/>
    </g>
    <g>
      <path d="M22.79,91.58a2.64,2.64,0,0,1-.63.06,3.85,3.85,0,0,1,0-7.69,2.64,2.64,0,0,1,.63.06,3.83,3.83,0,0,0,0,7.57Z" fill="#fff"/>
      <path d="M26,87.79a3.82,3.82,0,0,1-3.21,3.79,3.83,3.83,0,0,1,0-7.57A3.82,3.82,0,0,1,26,87.79Z" fill="#fff"/>
    </g>
    <g>
      <path d="M22.79,80.79a2.64,2.64,0,0,1-.63.06,3.85,3.85,0,0,1,0-7.69,3.28,3.28,0,0,1,.63,0,3.84,3.84,0,0,0,0,7.58Z" fill="#fff"/>
      <path d="M26,77a3.83,3.83,0,0,1-3.21,3.79,3.84,3.84,0,0,1,0-7.58A3.82,3.82,0,0,1,26,77Z" fill="#fff"/>
    </g>
    <g>
      <path d="M22.79,70a3.28,3.28,0,0,1-.63,0,3.85,3.85,0,0,1,0-7.69,2.64,2.64,0,0,1,.63.06,3.84,3.84,0,0,0,0,7.58Z" fill="#fff"/>
      <path d="M26,66.2A3.83,3.83,0,0,1,22.79,70a3.84,3.84,0,0,1,0-7.58A3.82,3.82,0,0,1,26,66.2Z" fill="#fff"/>
    </g>
    <g>
      <path d="M22.79,59.2a2.64,2.64,0,0,1-.63.06,3.85,3.85,0,0,1,0-7.69,2.64,2.64,0,0,1,.63.06,3.83,3.83,0,0,0,0,7.57Z" fill="#fff"/>
      <path d="M26,55.41a3.82,3.82,0,0,1-3.21,3.79,3.83,3.83,0,0,1,0-7.57A3.82,3.82,0,0,1,26,55.41Z" fill="#fff"/>
    </g>
    <g>
      <path d="M22.79,48.41a2.64,2.64,0,0,1-.63.06,3.85,3.85,0,0,1,0-7.69,3.28,3.28,0,0,1,.63,0,3.84,3.84,0,0,0,0,7.58Z" fill="#fff"/>
      <path d="M26,44.62a3.83,3.83,0,0,1-3.21,3.79,3.84,3.84,0,0,1,0-7.58A3.82,3.82,0,0,1,26,44.62Z" fill="#fff"/>
    </g>
    <g>
      <path d="M22.79,37.62a3.28,3.28,0,0,1-.63.05,3.85,3.85,0,0,1,0-7.69,2.64,2.64,0,0,1,.63.06,3.84,3.84,0,0,0,0,7.58Z" fill="#fff"/>
      <path d="M26,33.82a3.83,3.83,0,0,1-3.21,3.8,3.84,3.84,0,0,1,0-7.58A3.82,3.82,0,0,1,26,33.82Z" fill="#fff"/>
    </g>
    <g>
      <path d="M22.79,26.82a2.64,2.64,0,0,1-.63.06,3.85,3.85,0,0,1,0-7.69,2.64,2.64,0,0,1,.63.06,3.83,3.83,0,0,0,0,7.57Z" fill="#c1423e"/>
      <path d="M26,23a3.82,3.82,0,0,1-3.21,3.79,3.83,3.83,0,0,1,0-7.57A3.82,3.82,0,0,1,26,23Z" fill="#c1423e"/>
    </g>
    <g>
      <path d="M22.79,16a2.64,2.64,0,0,1-.63.06,3.85,3.85,0,0,1,0-7.69,3.28,3.28,0,0,1,.63,0,3.84,3.84,0,0,0,0,7.58Z" fill="#c1423e"/>
      <path d="M26,12.24A3.83,3.83,0,0,1,22.79,16a3.84,3.84,0,0,1,0-7.58A3.82,3.82,0,0,1,26,12.24Z" fill="#c1423e"/>
    </g>
    <g>
      <path d="M12,91.58a2.51,2.51,0,0,1-.62.06,3.85,3.85,0,0,1,0-7.69A2.51,2.51,0,0,1,12,84a3.83,3.83,0,0,0,0,7.57Z" fill="#c1423e"/>
      <path d="M15.21,87.79A3.83,3.83,0,0,1,12,91.58,3.83,3.83,0,0,1,12,84,3.83,3.83,0,0,1,15.21,87.79Z" fill="#c1423e"/>
    </g>
    <g>
      <path d="M12,80.79a2.51,2.51,0,0,1-.62.06,3.85,3.85,0,0,1,0-7.69,3.12,3.12,0,0,1,.62,0,3.84,3.84,0,0,0,0,7.58Z" fill="#c1423e"/>
      <path d="M15.21,77A3.84,3.84,0,0,1,12,80.79a3.84,3.84,0,0,1,0-7.58A3.83,3.83,0,0,1,15.21,77Z" fill="#c1423e"/>
    </g>
    <g>
      <path d="M12,70a3.12,3.12,0,0,1-.62,0,3.85,3.85,0,0,1,0-7.69,2.51,2.51,0,0,1,.62.06A3.84,3.84,0,0,0,12,70Z" fill="#c1423e"/>
      <path d="M15.21,66.2A3.84,3.84,0,0,1,12,70a3.84,3.84,0,0,1,0-7.58A3.83,3.83,0,0,1,15.21,66.2Z" fill="#c1423e"/>
    </g>
    <g>
      <path d="M12,59.2a2.51,2.51,0,0,1-.62.06,3.85,3.85,0,0,1,0-7.69,2.51,2.51,0,0,1,.62.06,3.83,3.83,0,0,0,0,7.57Z" fill="#fff"/>
      <path d="M15.21,55.41A3.83,3.83,0,0,1,12,59.2a3.83,3.83,0,0,1,0-7.57A3.83,3.83,0,0,1,15.21,55.41Z" fill="#fff"/>
    </g>
    <g>
      <path d="M12,48.41a2.51,2.51,0,0,1-.62.06,3.85,3.85,0,0,1,0-7.69,3.12,3.12,0,0,1,.62,0,3.84,3.84,0,0,0,0,7.58Z" fill="#fff"/>
      <path d="M15.21,44.62A3.84,3.84,0,0,1,12,48.41a3.84,3.84,0,0,1,0-7.58A3.83,3.83,0,0,1,15.21,44.62Z" fill="#fff"/>
    </g>
    <g>
      <path d="M12,37.62a3.12,3.12,0,0,1-.62.05,3.85,3.85,0,0,1,0-7.69A2.51,2.51,0,0,1,12,30a3.84,3.84,0,0,0,0,7.58Z" fill="#fff"/>
      <path d="M15.21,33.82A3.84,3.84,0,0,1,12,37.62,3.84,3.84,0,0,1,12,30,3.83,3.83,0,0,1,15.21,33.82Z" fill="#fff"/>
    </g>
    <g>
      <path d="M12,26.82a2.51,2.51,0,0,1-.62.06,3.85,3.85,0,0,1,0-7.69,2.51,2.51,0,0,1,.62.06,3.83,3.83,0,0,0,0,7.57Z" fill="#fff"/>
      <path d="M15.21,23A3.83,3.83,0,0,1,12,26.82a3.83,3.83,0,0,1,0-7.57A3.83,3.83,0,0,1,15.21,23Z" fill="#fff"/>
    </g>
    <g>
      <path d="M12,16a2.51,2.51,0,0,1-.62.06,3.85,3.85,0,0,1,0-7.69,3.12,3.12,0,0,1,.62,0A3.84,3.84,0,0,0,12,16Z" fill="#fff"/>
      <path d="M15.21,12.24A3.84,3.84,0,0,1,12,16a3.84,3.84,0,0,1,0-7.58A3.83,3.83,0,0,1,15.21,12.24Z" fill="#fff"/>
    </g>
  </g>
</svg>
