<svg xmlns="http://www.w3.org/2000/svg" viewBox="0 0 37.57 37.57"><defs><style>.cls-1{fill:#3eaa5f;}.cls-2{fill:#fff;}.cls-3{fill:none;stroke:#fff;stroke-linecap:round;stroke-miterlimit:10;stroke-width:3px;}</style></defs><title>compile_v0</title><g id="Capa_2" data-name="Capa 2"><g id="Capa_2-2" data-name="Capa 2"><rect class="cls-1" width="37.57" height="37.57" rx="8.36" ry="8.36" transform="translate(0 37.57) rotate(-90)"/><path class="cls-2" d="M31.33,18.63a.19.19,0,0,1,0,.3l-6.07,4.46a.21.21,0,0,1-.34-.15V14.33a.21.21,0,0,1,.34-.15Z"/><line class="cls-3" x1="13.9" y1="18.78" x2="24.92" y2="18.78"/><path class="cls-3" d="M29.57,24.83v3a1.74,1.74,0,0,1-1.74,1.74H9.74A1.74,1.74,0,0,1,8,27.83V9.74A1.74,1.74,0,0,1,9.74,8H27.83a1.74,1.74,0,0,1,1.74,1.74v3"/></g></g></svg>