<svg xmlns="http://www.w3.org/2000/svg" viewBox="0 0 37.57 37.57"><defs><style>.cls-1{fill:#23234b;}.cls-2{fill:#fff;}.cls-3{fill:none;stroke:#fff;stroke-linecap:round;stroke-miterlimit:10;stroke-width:2px;}</style></defs><title>conection_v0</title><g id="Capa_2" data-name="Capa 2"><g id="Capa_2-2" data-name="Capa 2"><rect class="cls-1" width="37.57" height="37.57" rx="8.36" ry="8.36" transform="translate(0 37.57) rotate(-90)"/><path class="cls-2" d="M32.3,18.69a.12.12,0,0,1,0,.19l-3.91,2.86a.13.13,0,0,1-.22-.09V15.92a.14.14,0,0,1,.22-.1Z"/><line class="cls-3" x1="10.59" y1="18.78" x2="28.43" y2="18.78"/><rect class="cls-2" x="23.17" y="22.62" width="4.43" height="4.43" rx="0.48" ry="0.48"/><circle class="cls-2" cx="23.81" cy="13.41" r="2.2"/><circle class="cls-2" cx="8.2" cy="18.78" r="3.26"/><path class="cls-3" d="M14.71,18.78,18.12,14a1.42,1.42,0,0,1,1.15-.59h4.54"/><path class="cls-3" d="M16.43,18.78l4.5,5.54a1.4,1.4,0,0,0,1.09.51h3.36"/></g></g></svg>