<svg xmlns="http://www.w3.org/2000/svg" viewBox="0 0 110.93 23.16">
    <defs>
        <style>
            .cls-2 {
                fill: #fff;
            }

            .cls-3 {
                fill: none;
                stroke: #fff;
                stroke-linecap: round;
                stroke-miterlimit: 10;
            }
        </style>
    </defs>
    <title>connect_on_v0</title>
    <g id="Capa_2-2" data-name="Capa 2">
        <path class="cls-1" d="M104.43,7.71v7.72a1.71,1.71,0,0,0,2.58,1.5l2.14-1.24a1.19,1.19,0,0,1,1.78,1v3.45a3,3,0,0,1-3,3H12.61a3,3,0,0,1-3-3V14a2.17,2.17,0,0,0-1.41-.72H7.74a2.15,2.15,0,0,0-1.39.7l0,0,0,.06h0a3.67,3.67,0,0,1-3.23,1.12A3.66,3.66,0,0,1,0,12,3.62,3.62,0,0,1,6.28,9.12l0,.06,0,0a2.24,2.24,0,0,0,1.39.7H8.2a2.21,2.21,0,0,0,1.41-.71V3a3,3,0,0,1,3-3h95.32a3,3,0,0,1,3,3V6.44a1.19,1.19,0,0,1-1.78,1L107,6.22A1.72,1.72,0,0,0,104.43,7.71Z"/>
    </g>
</svg>