<?xml version="1.0" encoding="utf-8"?>
<!-- Generator: Adobe Illustrator 22.0.0, SVG Export Plug-In . SVG Version: 6.00 Build 0)  -->
<svg version="1.1" xmlns="http://www.w3.org/2000/svg" xmlns:xlink="http://www.w3.org/1999/xlink" x="0px" y="0px"
	 viewBox="0 0 54.8 57.54" enable-background="new 0 0 54.8 57.54" xml:space="preserve">
<g id="Capa_1">
</g>
<g id="Capa_2">
	<defs>
		<path id="SVGID_24_" d="M1890.68-83.47v12.38c0,2.15,2.28,3.47,4.13,2.39l3.45-1.98c1.02-0.6,2.27-0.1,2.69,0.9v12.52
			c0,2.9-2.35,5.24-5.24,5.24h-43.93l-5.89,5.61c-1.43,1.35-4.07,1.35-5.49,0l-5.9-5.61h-3.52c-2.9,0-5.24-2.35-5.24-5.24v-39.89
			c0-2.9,2.35-5.24,5.24-5.24h64.73c2.9,0,5.24,2.35,5.24,5.24v12.37c-0.42,1-1.67,1.5-2.69,0.9l-3.45-1.98
			C1892.96-86.92,1890.68-85.58,1890.68-83.47z"/>
	</defs>
	<clipPath id="SVGID_2_">
		<use xlink:href="#SVGID_24_"  overflow="visible"/>
	</clipPath>
</g>
<g id="Capa_4">
	<defs>
		<path id="SVGID_26_" d="M2060.97-83.47v12.38c0,2.15,2.28,3.47,4.13,2.39l3.45-1.98c1.02-0.6,2.27-0.1,2.7,0.9v12.52
			c0,2.9-2.35,5.24-5.24,5.24h-43.93l-5.89,5.61c-1.43,1.35-4.07,1.35-5.49,0l-5.9-5.61h-3.52c-2.9,0-5.24-2.35-5.24-5.24v-39.89
			c0-2.9,2.35-5.24,5.24-5.24h64.73c2.9,0,5.24,2.35,5.24,5.24v12.37c-0.42,1-1.68,1.5-2.7,0.9l-3.45-1.98
			C2063.26-86.92,2060.97-85.58,2060.97-83.47z"/>
	</defs>
	<clipPath id="SVGID_3_">
		<use xlink:href="#SVGID_26_"  overflow="visible"/>
	</clipPath>
</g>
<g id="Capa_3">
	<g>
		<g>
			<path fill="#D1D3D3" d="M11.52,44.02V16.77c0-1.06,0.86-1.92,1.92-1.92h20.11h4.04l-3.84,3.84h-0.2H15.36v23.4h23.4v-4.2v-5.74
				l3.84-3.84v9.58v6.12c0,1.06-0.86,1.92-1.92,1.92H13.45C12.38,45.94,11.52,45.08,11.52,44.02z M28.24,29.28l-4.1-4.1
				c-1.15-1.15-3.02-1.15-4.17,0c-0.56,0.56-0.87,1.3-0.87,2.09s0.31,1.53,0.87,2.08l6.18,6.18c1.15,1.15,3.02,1.15,4.17,0
				L49.2,16.65c0.56-0.56,0.87-1.3,0.87-2.08c0-0.79-0.31-1.53-0.87-2.09c-1.15-1.15-3.02-1.15-4.17,0L28.24,29.28z"/>
		</g>
	</g>
</g>
</svg>
