<svg id="Capa_1" data-name="Capa 1" xmlns="http://www.w3.org/2000/svg" viewBox="0 0 88 25">
<defs>
	<style>
	  .status-icon {
	  }
	</style>
</defs>
  <title>iconos_svg</title>
  <g>
    <path class="status-icon" d="M87,3.92V21.08a3,3,0,0,1-3,3H8.29a3,3,0,0,1-3-3V16.81l-.17-.13-.07-.06L1.57,13.78a1.66,1.66,0,0,1,0-2.58L5.05,8.37l.07-.06.17-.13V3.92a3,3,0,0,1,3-3H84A3,3,0,0,1,87,3.92Z" />
    <text transform="translate(18.84 16.11)" font-size="11.65" fill="#fff" font-family="Lemur-Medium, Lemur"><tspan letter-spacing="0em">E</tspan><tspan x="5.92" y="0" letter-spacing="-0.02em">n</tspan><tspan x="12.12" y="0" letter-spacing="-0.02em">t</tspan><tspan x="16.21" y="0" letter-spacing="-0.01em">e</tspan><tspan x="22.48" y="0" letter-spacing="-0.01em">n</tspan><tspan x="28.77" y="0" letter-spacing="0em">d</tspan><tspan x="35.51" y="0" letter-spacing="0em">i</tspan><tspan x="38.22" y="0" letter-spacing="-0.01em">d</tspan><tspan x="44.81" y="0">o!</tspan></text>
  </g>
</svg>
