<?xml version="1.0" encoding="utf-8"?>
<!-- Generator: Adobe Illustrator 22.0.0, SVG Export Plug-In . SVG Version: 6.00 Build 0)  -->
<svg version="1.1" xmlns="http://www.w3.org/2000/svg" xmlns:xlink="http://www.w3.org/1999/xlink" x="0px" y="0px"
	 viewBox="0 0 88.89 93.33" enable-background="new 0 0 88.89 93.33" xml:space="preserve">
<g id="Capa_1">
</g>
<g id="Capa_2">
	<defs>
		<path id="SVGID_24_" d="M1871.6,43.32v12.38c0,2.15,2.28,3.47,4.13,2.39l3.45-1.98c1.02-0.6,2.27-0.1,2.7,0.9v12.52
			c0,2.9-2.35,5.24-5.24,5.24h-43.93l-5.89,5.61c-1.43,1.35-4.07,1.35-5.49,0l-5.9-5.61h-3.52c-2.9,0-5.24-2.35-5.24-5.24V29.64
			c0-2.9,2.35-5.24,5.24-5.24h64.73c2.9,0,5.24,2.35,5.24,5.24v12.37c-0.42,1-1.68,1.5-2.7,0.9l-3.45-1.98
			C1873.89,39.88,1871.6,41.21,1871.6,43.32z"/>
	</defs>
	<clipPath id="SVGID_2_">
		<use xlink:href="#SVGID_24_"  overflow="visible"/>
	</clipPath>
</g>
<g id="Capa_4">
	<defs>
		<path id="SVGID_26_" d="M2041.9,43.32v12.38c0,2.15,2.28,3.47,4.13,2.39l3.45-1.98c1.02-0.6,2.27-0.1,2.69,0.9v12.52
			c0,2.9-2.35,5.24-5.24,5.24H2003l-5.89,5.61c-1.43,1.35-4.07,1.35-5.49,0l-5.9-5.61h-3.52c-2.9,0-5.24-2.35-5.24-5.24V29.64
			c0-2.9,2.35-5.24,5.24-5.24h64.73c2.9,0,5.24,2.35,5.24,5.24v12.37c-0.42,1-1.67,1.5-2.69,0.9l-3.45-1.98
			C2044.18,39.88,2041.9,41.21,2041.9,43.32z"/>
	</defs>
	<clipPath id="SVGID_3_">
		<use xlink:href="#SVGID_26_"  overflow="visible"/>
	</clipPath>
</g>
<g id="Capa_3">
	<g>
		<path fill="#149B84" d="M78.23,89.25c3.31,0,6-2.5,6-5.6V9.68c0-3.09-2.69-5.6-6-5.6H10.65c-3.31,0-6,2.51-6,5.6v73.98
			c0,3.1,2.69,5.6,6,5.6H78.23z"/>
		<text transform="matrix(1 0 0 1 36.6104 76.6044)" fill="#FFFFFF" font-size="11px">Linux</text>
		<g>
			<path fill="#FFFFFF" stroke="#149B83" stroke-width="0.25" stroke-miterlimit="10" d="M59.91,49.92
				c-0.12,0.13-0.24,0.26-0.37,0.39c-1.37,1.39-3.65,1.29-4.88-0.21c-1.04-1.27-1.01-2.79,0.1-4.34c0.32-0.17,0.43-0.4,0.4-0.78
				c-0.16-2.02-0.63-3.97-1.25-5.89c-1.04-3.27-2.37-6.4-4.64-9.04c0.65-0.94,0.61-1.16-0.28-1.91c-0.33-0.28-0.67-0.55-1-0.82
				c1.36-0.65,1.39-2.67,0.77-3.57c-0.68-0.99-1.8-0.99-2.44,0.03c-0.44,0.69-0.43,1.44-0.31,2.2c-0.04,0.03-0.11,0.1-0.13,0.09
				c-0.81-0.54-1.66-0.51-2.54-0.21c0.2-0.84,0.08-1.63-0.47-2.3c-0.6-0.73-1.51-0.73-2.11-0.01c-1.03,1.23-0.58,3.31,0.63,3.78
				c-0.13,0.12-0.26,0.24-0.38,0.37c-1.29,1.46-1.66,1.33,0.14,2.85c-1.37,1.7-2.36,3.61-3.17,5.62c-1.12,2.75-1.96,5.59-2.26,8.56
				c-0.03,0.24-0.07,0.47,0.13,0.68c1.56,1.65,3.11,3.3,5.2,4.3c0.98,0.47,1.01,1.18,0.09,1.78c-0.28,0.19-0.59,0.33-0.93,0.4
				c-0.39,0.08-0.77,0.15-1.16,0.23c-0.47-0.74-0.93-1.48-1.4-2.22c-0.75-1.18-1.49-2.38-2.27-3.54c-0.59-0.89-1.63-0.86-2.23,0.02
				c-0.14,0.2-0.26,0.4-0.39,0.6c-0.19-1.97-0.2-3.92,0.29-5.86c0.55-2.16,1.55-4.08,3.02-5.74c1.05-1.18,1.94-2.44,2.45-3.96
				c0.68-2.03,0.52-4.05,0.13-6.11c-0.75-3.94,1.9-7.69,5.85-8.35c2.66-0.45,4.84,0.45,6.62,2.41c0.17,0.19,0.35,0.38,0.52,0.58
				c0.03,0.05,0.07,0.1,0.1,0.15c0,0,0,0.01,0.01,0.01l-0.01-0.01c0.03,0.1,0.05,0.19,0.16,0.23l-0.01,0
				c1.01,1.77,1.05,3.67,0.87,5.65c-0.29,3.1,0.68,5.81,2.94,8c2.49,2.42,3.82,5.39,4.24,8.79c0.12,0.97,0.11,1.96-0.03,2.94
				c-0.02,0.16-0.06,0.3,0.04,0.46C60.69,47.41,60.59,48.66,59.91,49.92z"/>
			<path fill="#FFFFFF" stroke="#149B83" stroke-width="0.25" stroke-miterlimit="10" d="M38.64,58.91c-0.26,0-0.55-0.03-0.85-0.09
				c-2.34-0.47-4.74-0.92-7.05-1.35c-0.96-0.18-1.92-0.36-2.88-0.54c-0.59-0.31-0.94-0.68-1.04-1.11c-0.11-0.43,0.03-0.92,0.41-1.46
				c0.59-0.84,0.95-1.75,1.09-2.7c0.16-1.09,0.74-1.75,1.84-2.07c1.17-0.34,2.06-1.14,2.78-2.49c0.04-0.07,0.08-0.13,0.12-0.2
				c0.08-0.13,0.17-0.26,0.25-0.39c0.25-0.36,0.59-0.56,0.93-0.56c0.34,0,0.66,0.19,0.9,0.55c0.57,0.85,1.13,1.74,1.67,2.6
				c0.2,0.31,0.4,0.63,0.6,0.94c0.34,0.54,0.68,1.08,1.02,1.62l0.38,0.6c0.55,0.86,1.1,1.71,1.65,2.56l0.01,0.02l0.02,0.02
				c0.03,0.03,0.05,0.05,0.08,0.08c0.62,1,0.71,1.88,0.28,2.75C40.29,58.51,39.59,58.91,38.64,58.91z"/>
			<path fill="#FFFFFF" stroke="#149B83" stroke-width="0.25" stroke-miterlimit="10" d="M51.85,20.32
				c-0.11-0.04-0.13-0.13-0.16-0.23C51.84,20.1,51.86,20.2,51.85,20.32z"/>
			<path fill="#FFFFFF" stroke="#149B83" stroke-width="0.25" stroke-miterlimit="10" d="M51.71,20.1
				c-0.04-0.05-0.07-0.11-0.11-0.16C51.68,19.97,51.72,20.02,51.71,20.1z"/>
			<path fill="#FFFFFF" stroke="#149B83" stroke-width="0.25" stroke-miterlimit="10" d="M50.18,58.92c-0.96,0-1.69-0.48-2.24-1.46
				c-0.15-0.58-0.15-1.17-0.02-1.75l1.6-2.52c1.4-2.21,2.84-4.49,4.27-6.73c0.13-0.21,0.3-0.35,0.49-0.42
				c-0.88,1.49-0.82,2.97,0.19,4.2c0.67,0.82,1.66,1.29,2.72,1.29c0.95,0,1.85-0.38,2.52-1.06c0.07-0.07,0.14-0.15,0.21-0.23
				c0.34,0.33,0.55,0.74,0.62,1.22c0.15,1.08,0.53,2.03,1.15,2.92c0.4,0.58,0.52,1.16,0.33,1.63c-0.19,0.47-0.68,0.81-1.38,0.95
				c-2.6,0.51-5.25,1.01-7.81,1.5l-2.04,0.39C50.58,58.9,50.38,58.92,50.18,58.92z"/>
			<path fill="#FFFFFF" stroke="#149B83" stroke-width="0.25" stroke-miterlimit="10" d="M41.47,57.44
				c0.23-0.72,0.17-1.45-0.19-2.23c1.22,0.54,2.39,0.82,3.56,0.85c0.23,0.03,0.46,0.04,0.7,0.04c0.63,0,1.24-0.09,1.84-0.2
				c-0.07,0.45-0.06,0.9,0.02,1.36c-0.14-0.02-0.28-0.03-0.43-0.05c-0.71-0.09-1.45-0.18-2.18-0.19c-0.06,0-0.12,0-0.18,0
				C43.66,57.03,42.64,57.16,41.47,57.44z"/>
			<path fill="#FFFFFF" stroke="#149B83" stroke-width="0.25" stroke-miterlimit="10" d="M45.54,55.63c-0.23,0-0.44-0.01-0.65-0.04
				l-0.01,0c-1.14-0.03-2.27-0.31-3.46-0.84c-0.03-0.02-0.07-0.03-0.1-0.05l-0.01-0.01c-0.09-0.05-0.18-0.1-0.3-0.13l-0.06-0.02
				l-0.05-0.03l-0.07-0.04l-0.05-0.07l-1.35-2.1l0.52-0.1c0.1-0.02,0.2-0.04,0.29-0.06c0.34-0.07,0.68-0.22,1.02-0.44
				c0.54-0.35,0.81-0.76,0.78-1.17c-0.03-0.41-0.34-0.76-0.89-1.03c-2.06-0.98-3.61-2.64-5.12-4.24l-0.1-0.1l0-0.14
				c0-0.06,0.01-0.13,0.02-0.21l0-0.04c0.28-2.67,1.01-5.45,2.25-8.49c0.85-2.1,1.74-3.73,2.8-5.13l0.2-0.27l0.28,0.18
				c1.05,0.67,2.1,1.27,3.38,1.38l0.03,0l0.05-0.01c0.35-0.05,0.75-0.11,1.12-0.25c1.05-0.37,2.03-0.9,2.91-1.57l0.28-0.21
				l0.22,0.27c2.21,2.75,3.41,5.99,4.21,8.5c0.7,2.18,1.09,4.03,1.24,5.84c0.01,0.07,0.01,0.14,0,0.19l-0.03,0.31l-0.31,0.01
				c-0.5,0.02-0.91,0.26-1.19,0.7c-1.43,2.25-2.87,4.52-4.26,6.71l-1.57,2.48l-0.16,0.03C46.83,55.52,46.18,55.63,45.54,55.63
				L45.54,55.63z"/>
			<polygon fill="#FFFFFF" stroke="#149B83" stroke-width="0.25" stroke-miterlimit="10" points="46.81,26.44 46.8,26.44 
				46.8,26.44 			"/>
			<path fill="#FFFFFF" stroke="#149B83" stroke-width="0.25" stroke-miterlimit="10" d="M44.86,31.93
				c-1.27-0.11-2.3-0.77-3.39-1.46l-0.2-0.13c-0.65-0.55-1.11-0.97-1.13-1.21c-0.01-0.17,0.22-0.41,0.56-0.78
				c0.14-0.15,0.29-0.31,0.47-0.51c0.07-0.08,0.16-0.16,0.24-0.24c0.04-0.04,0.08-0.08,0.13-0.12c0.06-0.05,0.11-0.11,0.17-0.16
				l0.08-0.07c0.08-0.07,0.17-0.13,0.26-0.19c0.2-0.14,0.42-0.3,0.59-0.53c0.31-0.08,0.58-0.24,0.82-0.48
				c0.37-0.12,0.71-0.18,1.02-0.18c0.45,0,0.86,0.13,1.25,0.38l0.06,0.04l0.08,0c0.03,0,0.05,0,0.07-0.01
				c0.16,0.18,0.38,0.34,0.67,0.39c0.04,0.05,0.09,0.09,0.17,0.12c0.23,0.2,0.46,0.35,0.69,0.46c0.11,0.15,0.25,0.22,0.39,0.27
				c0.1,0.08,0.21,0.17,0.31,0.25c0.22,0.18,0.44,0.36,0.66,0.54c0.79,0.66,0.81,0.75,0.25,1.56c-0.95,0.8-2.02,1.42-3.19,1.83
				C45.56,31.82,45.22,31.88,44.86,31.93z"/>
			<path fill="#FFFFFF" stroke="#149B83" stroke-width="0.25" stroke-miterlimit="10" d="M41.63,27.07
				c-0.68-0.57-0.84-1.77-0.34-2.47c0.31-0.43,0.73-0.44,1.01,0.01c0.34,0.53,0.37,1.11,0.18,1.71
				C42.28,26.66,41.92,26.82,41.63,27.07z"/>
			<path fill="#FFFFFF" stroke="#149B83" stroke-width="0.25" stroke-miterlimit="10" d="M46.81,26.44c0-0.53-0.13-1.07,0.1-1.59
				c0.13-0.29,0.29-0.56,0.63-0.55c0.34,0.01,0.5,0.28,0.61,0.57c0.33,0.83,0.13,1.71-0.52,2.19c-0.27-0.11-0.51-0.28-0.73-0.48
				C46.92,26.5,46.89,26.45,46.81,26.44L46.81,26.44z"/>
			<path fill="#FFFFFF" stroke="#149B83" stroke-width="0.25" stroke-miterlimit="10" d="M46.81,26.44
				c0.09,0.01,0.12,0.06,0.11,0.15C46.85,26.56,46.77,26.54,46.81,26.44z"/>
		</g>
		<g>
			<rect x="25.46" y="67.76" fill="#FFFFFF" width="2.65" height="6.27"/>
			<path fill="#FFFFFF" d="M26.78,72.24h3.69c0.31,0,0.5,0.19,0.35,0.34l-1.85,1.8l-1.85,1.8c-0.15,0.15-0.54,0.15-0.69,0l-1.85-1.8
				l-1.85-1.8c-0.15-0.15,0.04-0.34,0.35-0.34H26.78z"/>
			<path fill="#FFFFFF" d="M31.02,76.93h-8.47c-0.11,0-0.2,0.09-0.2,0.2v0.16c0,0.11,0.09,0.2,0.2,0.2h8.47c0.11,0,0.2-0.09,0.2-0.2
				v-0.16C31.22,77.02,31.13,76.93,31.02,76.93z"/>
		</g>
	</g>
</g>
</svg>
