<svg id="Capa_1" data-name="Capa 1" xmlns="http://www.w3.org/2000/svg" viewBox="0 0 37 53">
  <title>iconos_svg</title>
  <ellipse cx="17.57" cy="50.34" rx="9.78" ry="2.05" fill="#a7a9ab"/>
  <path d="M9.06,37.81l.26.26.12.11L15,43.49a3.92,3.92,0,0,0,5.09,0l5.59-5.31.12-.11.26-.26Z" fill="#6e6f72"/>
  <path d="M35.35,5.74V36.35a1.74,1.74,0,0,1-1.78,1.7H2.14a1.75,1.75,0,0,1-1.79-1.7V5.74A1.75,1.75,0,0,1,2.14,4.05H9.06l.25.23.13.12,5.57,5a4.12,4.12,0,0,0,5.1,0l5.59-5,.12-.12.26-.23h7.49A1.74,1.74,0,0,1,35.35,5.74Z" fill="#6e6f72"/>
  <path d="M10.1,29.21a7.5,7.5,0,0,0,15,0Z" fill="#fff"/>
  <g>
    <path d="M6,20.35c.46-2.65,2.91-4.15,4.83-3.63a4,4,0,0,1,2.67,3.59" fill="none" stroke="#fff" stroke-linecap="round" stroke-miterlimit="10"/>
    <path d="M29.73,20.35c-.46-2.65-2.91-4.15-4.83-3.63a4,4,0,0,0-2.67,3.59" fill="none" stroke="#fff" stroke-linecap="round" stroke-miterlimit="10"/>
  </g>
  <path d="M35.51,9.92A3.48,3.48,0,0,1,31,9.9a3.42,3.42,0,0,1-.64-.78A3.84,3.84,0,0,1,30,6a10.47,10.47,0,0,1,1.34-2.75A23.18,23.18,0,0,1,33.09.76c.15-.17.21-.15.33,0C34.2,1.93,35.08,3,35.76,4.25a6.78,6.78,0,0,1,.87,2.61A3.6,3.6,0,0,1,35.51,9.92Z" fill="#a7a9ab"/>
</svg>
