<svg id="Capa_1" data-name="Capa 1" xmlns="http://www.w3.org/2000/svg" viewBox="0 0 52 54">
  <title>iconos_svg</title>
  <g>
    <ellipse cx="25.21" cy="51.72" rx="24.81" ry="2.05" fill="#d1d2d4"/>
    <rect x="8.39" y="5.9" width="35.67" height="35.67" rx="2.71" ry="2.71" transform="translate(55.51 43.57) rotate(171.96)" fill="#f3cb7b"/>
    <path d="M49.67,36.54a3.66,3.66,0,0,1-2.48,4.52.43.43,0,0,1-.5-.63.4.4,0,0,1,.26-.21,2.79,2.79,0,0,0,1.88-3.43.45.45,0,0,1,0-.34.49.49,0,0,1,.26-.21.45.45,0,0,1,.34,0,.49.49,0,0,1,.21.26" fill="#f3cb7b"/>
    <path d="M51.46,37.53A3.65,3.65,0,0,1,49,42a.42.42,0,0,1-.33,0,.44.44,0,0,1-.17-.6.46.46,0,0,1,.26-.21,2.72,2.72,0,0,0,1.65-1.32,2.82,2.82,0,0,0,.23-2.11.42.42,0,0,1,0-.33.4.4,0,0,1,.26-.21.42.42,0,0,1,.33,0,.4.4,0,0,1,.21.26" fill="#f3cb7b"/>
    <path d="M4.35,31.36a3.66,3.66,0,0,1-1.63-4.89A.45.45,0,0,1,3,26.25a.42.42,0,0,1,.33,0,.43.43,0,0,1,.22.26.42.42,0,0,1,0,.33,2.76,2.76,0,0,0,1.24,3.71.38.38,0,0,1,.22.26.42.42,0,0,1,0,.33.45.45,0,0,1-.25.22.45.45,0,0,1-.34,0" fill="#f3cb7b"/>
    <path d="M2.41,32A3.66,3.66,0,0,1,.78,27.12.39.39,0,0,1,1,26.9a.42.42,0,0,1,.33,0,.39.39,0,0,1,.22.25.44.44,0,0,1,0,.34A2.76,2.76,0,0,0,2.8,31.22a.42.42,0,0,1,.22.25.45.45,0,0,1,0,.34.45.45,0,0,1-.25.22.5.5,0,0,1-.34,0" fill="#f3cb7b"/>
    <path d="M41.69,1.56A3.65,3.65,0,0,1,45,5.48a.46.46,0,0,1-.15.29.43.43,0,0,1-.32.11.45.45,0,0,1-.3-.16.41.41,0,0,1-.1-.32,2.8,2.8,0,0,0-.66-2,2.76,2.76,0,0,0-1.88-1,.42.42,0,0,1-.3-.15A.43.43,0,0,1,41.22,2a.48.48,0,0,1,.15-.3.42.42,0,0,1,.32-.1" fill="#f3cb7b"/>
    <path d="M43.25.23a3.65,3.65,0,0,1,3.34,3.92.4.4,0,0,1-.15.3.46.46,0,0,1-.32.1.41.41,0,0,1-.29-.15.42.42,0,0,1-.11-.32,2.72,2.72,0,0,0-.65-2,2.78,2.78,0,0,0-1.89-1,.46.46,0,0,1-.3-.15.45.45,0,0,1,0-.62.46.46,0,0,1,.32-.1" fill="#f3cb7b"/>
    <g>
      <g>
        <line x1="20.82" y1="26.49" x2="25.89" y2="23.14" fill="#fff" stroke="#fff" stroke-linecap="round" stroke-miterlimit="10"/>
        <path d="M20.8,26.52l1.48.64a.21.21,0,0,1-.16.32l-1.35.08-1.35.08a.2.2,0,0,1-.19-.3l.6-1.2.6-1.21a.21.21,0,0,1,.36,0Z" fill="#fff"/>
        <line x1="34.91" y1="24.35" x2="25.89" y2="23.14" fill="#fff" stroke="#fff" stroke-linecap="round" stroke-miterlimit="10"/>
        <path d="M34.6,24.54l-.69-1.46a.2.2,0,0,1,.33-.13l1.07.82,1.06.83a.2.2,0,0,1,0,.35l-1.25.51L33.83,26a.2.2,0,0,1-.28-.22Z" fill="#fff"/>
      </g>
      <circle cx="26.14" cy="23.15" r="1.65" fill="#fff"/>
    </g>
    <path d="M18.73,31.3c1.2-.17,1.39,1.16,2.58,1s1-1.5,2.21-1.67,1.39,1.16,2.58,1,1-1.49,2.21-1.66,1.39,1.16,2.59,1,1-1.5,2.21-1.67,1.39,1.16,2.59,1" fill="none" stroke="#fff" stroke-miterlimit="10" stroke-width="0.75"/>
    <circle cx="14.82" cy="23.91" r="1.51" fill="#fff"/>
    <circle cx="35.75" cy="16.14" r="3.54" fill="#fff"/>
  </g>
</svg>
