<?xml version="1.0" encoding="utf-8"?>
<!-- Generator: Adobe Illustrator 22.0.0, SVG Export Plug-In . SVG Version: 6.00 Build 0)  -->
<svg version="1.1" xmlns="http://www.w3.org/2000/svg" xmlns:xlink="http://www.w3.org/1999/xlink" x="0px" y="0px"
	 viewBox="0 0 88.89 93.33" enable-background="new 0 0 88.89 93.33" xml:space="preserve">
<g id="Capa_1">
</g>
<g id="Capa_2">
	<defs>
		<path id="SVGID_24_" d="M2055.82,43.32v12.38c0,2.15,2.28,3.47,4.13,2.39l3.45-1.98c1.02-0.6,2.27-0.1,2.7,0.9v12.52
			c0,2.9-2.35,5.24-5.24,5.24h-43.93l-5.89,5.61c-1.43,1.35-4.07,1.35-5.49,0l-5.9-5.61h-3.52c-2.9,0-5.24-2.35-5.24-5.24V29.64
			c0-2.9,2.35-5.24,5.24-5.24h64.73c2.9,0,5.24,2.35,5.24,5.24v12.37c-0.42,1-1.68,1.5-2.7,0.9l-3.45-1.98
			C2058.11,39.88,2055.82,41.21,2055.82,43.32z"/>
	</defs>
	<clipPath id="SVGID_2_">
		<use xlink:href="#SVGID_24_"  overflow="visible"/>
	</clipPath>
</g>
<g id="Capa_4">
	<defs>
		<path id="SVGID_26_" d="M2226.12,43.32v12.38c0,2.15,2.28,3.47,4.13,2.39l3.45-1.98c1.02-0.6,2.27-0.1,2.7,0.9v12.52
			c0,2.9-2.35,5.24-5.24,5.24h-43.93l-5.89,5.61c-1.43,1.35-4.07,1.35-5.49,0l-5.9-5.61h-3.52c-2.9,0-5.24-2.35-5.24-5.24V29.64
			c0-2.9,2.35-5.24,5.24-5.24h64.73c2.9,0,5.24,2.35,5.24,5.24v12.37c-0.42,1-1.68,1.5-2.7,0.9l-3.45-1.98
			C2228.41,39.88,2226.12,41.21,2226.12,43.32z"/>
	</defs>
	<clipPath id="SVGID_3_">
		<use xlink:href="#SVGID_26_"  overflow="visible"/>
	</clipPath>
</g>
<g id="Capa_3">
	<g>
		<path fill="#F7C863" d="M78.23,89.25c3.31,0,6-2.5,6-5.6V9.68c0-3.09-2.69-5.6-6-5.6H10.65c-3.31,0-6,2.51-6,5.6v73.98
			c0,3.1,2.69,5.6,6,5.6H78.23z"/>
		<text transform="matrix(1 0 0 1 27.2023 76.6044)" fill="#FFFFFF" font-size="11px">Windows</text>
		<g>
			<path fill="#FFFFFF" d="M65.28,38.84c0,6.68,0,13.26,0,19.89c-3.99-0.55-7.92-1.08-11.84-1.63c-3.25-0.46-6.51-0.92-9.75-1.44
				c-0.36-0.06-0.93-0.53-0.93-0.81c-0.04-5.23-0.02-10.47,0-15.7c0-0.08,0.06-0.15,0.13-0.31C50.3,38.84,57.75,38.84,65.28,38.84z"
				/>
			<path fill="#FFFFFF" d="M42.71,36.77c0-0.93,0-1.81,0-2.69c0-4.26,0.02-8.53-0.01-12.79c-0.01-0.83,0.23-1.19,1.1-1.31
				c6.97-0.98,13.94-2.01,20.9-3.02c0.16-0.02,0.34,0,0.58,0c0,6.57,0,13.14,0,19.81C57.85,36.77,50.41,36.77,42.71,36.77z"/>
			<path fill="#FFFFFF" d="M40.68,55.32c-5.72-0.78-11.36-1.56-17.05-2.34c0-4.76,0-9.42,0-14.16c5.7,0,11.34,0,17.05,0
				C40.68,44.31,40.68,49.74,40.68,55.32z"/>
			<path fill="#FFFFFF" d="M23.6,36.77c0-4.69,0-9.28,0-13.98c5.7-0.78,11.36-1.55,17.09-2.33c0,5.43,0,10.82,0,16.31
				C35.04,36.77,29.38,36.77,23.6,36.77z"/>
		</g>
		<g>
			<rect x="17.75" y="67.76" fill="#FFFFFF" width="2.65" height="6.27"/>
			<path fill="#FFFFFF" d="M19.08,72.24h3.69c0.31,0,0.5,0.19,0.35,0.34l-1.85,1.8l-1.85,1.8c-0.15,0.15-0.54,0.15-0.69,0l-1.85-1.8
				l-1.85-1.8c-0.15-0.15,0.04-0.34,0.35-0.34H19.08z"/>
			<path fill="#FFFFFF" d="M23.31,76.93h-8.47c-0.11,0-0.2,0.09-0.2,0.2v0.16c0,0.11,0.09,0.2,0.2,0.2h8.47c0.11,0,0.2-0.09,0.2-0.2
				v-0.16C23.52,77.02,23.43,76.93,23.31,76.93z"/>
		</g>
	</g>
</g>
</svg>
