<?xml version="1.0" encoding="utf-8"?>
<!-- Generator: Adobe Illustrator 22.0.0, SVG Export Plug-In . SVG Version: 6.00 Build 0)  -->
<svg version="1.1" xmlns="http://www.w3.org/2000/svg" xmlns:xlink="http://www.w3.org/1999/xlink" x="0px" y="0px"
	 viewBox="0 0 54.8 57.54" enable-background="new 0 0 54.8 57.54" xml:space="preserve">
<g id="Capa_1">
</g>
<g id="Capa_2">
	<defs>
		<path id="SVGID_24_" d="M2023.68-83.47v12.38c0,2.15,2.28,3.47,4.13,2.39l3.45-1.98c1.02-0.6,2.27-0.1,2.69,0.9v12.52
			c0,2.9-2.35,5.24-5.24,5.24h-43.93l-5.89,5.61c-1.43,1.35-4.07,1.35-5.49,0l-5.9-5.61h-3.52c-2.9,0-5.24-2.35-5.24-5.24v-39.89
			c0-2.9,2.35-5.24,5.24-5.24h64.73c2.9,0,5.24,2.35,5.24,5.24v12.37c-0.42,1-1.67,1.5-2.69,0.9l-3.45-1.98
			C2025.96-86.92,2023.68-85.58,2023.68-83.47z"/>
	</defs>
	<clipPath id="SVGID_2_">
		<use xlink:href="#SVGID_24_"  overflow="visible"/>
	</clipPath>
</g>
<g id="Capa_4">
	<defs>
		<path id="SVGID_26_" d="M2193.97-83.47v12.38c0,2.15,2.28,3.47,4.13,2.39l3.45-1.98c1.02-0.6,2.27-0.1,2.7,0.9v12.52
			c0,2.9-2.35,5.24-5.24,5.24h-43.93l-5.89,5.61c-1.43,1.35-4.07,1.35-5.49,0l-5.9-5.61h-3.52c-2.9,0-5.24-2.35-5.24-5.24v-39.89
			c0-2.9,2.35-5.24,5.24-5.24h64.73c2.9,0,5.24,2.35,5.24,5.24v12.37c-0.42,1-1.68,1.5-2.7,0.9l-3.45-1.98
			C2196.26-86.92,2193.97-85.58,2193.97-83.47z"/>
	</defs>
	<clipPath id="SVGID_3_">
		<use xlink:href="#SVGID_26_"  overflow="visible"/>
	</clipPath>
</g>
<g id="Capa_3">
	<g>
		<rect x="23.47" y="10.81" fill="#D1D3D3" width="9.55" height="22.62"/>
		<path fill="#D1D3D3" d="M28.24,26.96h13.33c1.11,0,1.8,0.68,1.25,1.22l-6.66,6.51l-6.66,6.51c-0.55,0.54-1.94,0.54-2.5,0
			l-6.66-6.51l-6.66-6.51c-0.55-0.54,0.14-1.22,1.25-1.22H28.24z"/>
		<path fill="#D1D3D3" d="M44.07,43.89l-31.65,0c-0.11,0-0.2,0.09-0.2,0.2l0,1.64c0,0.11,0.09,0.2,0.2,0.2h31.65
			c0.11,0,0.2-0.09,0.2-0.2V44.1C44.27,43.98,44.18,43.89,44.07,43.89z"/>
	</g>
</g>
</svg>
