<svg xmlns="http://www.w3.org/2000/svg" viewBox="0 0 17 20">
  <title>iconos_svg_v1</title>
  <g id="Capa_3" data-name="Capa 3">
    <g>
      <path d="M1.15,17.05a.74.74,0,0,1,.11-.91L2,15.42a1.21,1.21,0,0,1,.36-1.06L12.81,4l1.56,1.58L3.91,15.94a1.22,1.22,0,0,1-1.06.34L2.12,17a.72.72,0,0,1-.91.1l0,0Z" fill="#cecece"/>
      <path d="M2.17,15.48l-.79.78a.56.56,0,0,0-.08.7.56.56,0,0,0,.7-.08l.79-.78a1.1,1.1,0,0,0,1-.28L14.14,5.59,12.81,4.24,2.46,14.48a1.08,1.08,0,0,0-.29,1Z" fill="#cecece"/>
      <path d="M1.26,17.18a.68.68,0,0,1-.21-.42l0-.22.22,0a.39.39,0,0,0,.34-.11l.86-.85.09,0a.9.9,0,0,0,.85-.23L13.84,5l.72.73L4.09,16.12A1.23,1.23,0,0,1,3,16.47l-.73.72a.74.74,0,0,1-.54.21.77.77,0,0,1-.5-.22Z" fill="#bfbfbf"/>
      <path d="M13.84,5.28,3.49,15.51a1.05,1.05,0,0,1-1,.29l-.79.78a.58.58,0,0,1-.48.16.57.57,0,0,0,1,.33L3,16.29A1.1,1.1,0,0,0,4,16L14.32,5.77Z" fill="#bfbfbf"/>
      <path d="M15.09,4.87,11.51,8.41,9.71,6.6l3.58-3.54a1.53,1.53,0,0,1,1.39-.43,1.4,1.4,0,0,1,.35.1h0l.35.35,0,0a1.21,1.21,0,0,0,.05.14A1.58,1.58,0,0,1,15.09,4.87Z" fill="#9c9c9c"/>
      <path d="M15,2.89a1.39,1.39,0,0,0-1.56.29L10,6.6l1.56,1.58L15,4.75a1.42,1.42,0,0,0,.3-1.56Z" fill="#9c9c9c"/>
      <path d="M1.26,17.18a.68.68,0,0,1-.21-.42l0-.22.22,0a.39.39,0,0,0,.34-.11l.86-.85.09,0a.9.9,0,0,0,.85-.23L13.84,5l.72.73L4.09,16.12A1.23,1.23,0,0,1,3,16.47l-.73.72a.74.74,0,0,1-.54.21.77.77,0,0,1-.5-.22Z" fill="#bfbfbf"/>
      <path d="M13.84,5.28,3.49,15.51a1.05,1.05,0,0,1-1,.29l-.79.78a.58.58,0,0,1-.48.16.57.57,0,0,0,1,.33L3,16.29A1.1,1.1,0,0,0,4,16L14.32,5.77Z" fill="#bfbfbf"/>
      <path d="M15.51,5.3,11.93,8.84l-1-1,3.58-3.54A1.26,1.26,0,0,0,14.82,3l-.06-.13-.08-.19a1.4,1.4,0,0,1,.35.1h0a1.6,1.6,0,0,1,.45.32A1.58,1.58,0,0,1,15.51,5.3Z" fill="#838383"/>
      <path d="M15.4,3.19a1.39,1.39,0,0,0-.43-.3,1.42,1.42,0,0,1-.3,1.56L11.21,7.87l.72.73,3.46-3.42a1.4,1.4,0,0,0,0-2Z" fill="#838383"/>
      <path d="M9.48,6.93a.82.82,0,0,1,1.16-1.15l1.69,1.71a.81.81,0,0,1,0,1.15.8.8,0,0,1-1.14,0Z" fill="#acacac"/>
      <path d="M12.21,7.61,10.52,5.9a.65.65,0,0,0-.91,0,.64.64,0,0,0,0,.91l1.7,1.71a.64.64,0,0,0,.91-.91Z" fill="#acacac"/>
      <path d="M10.87,8.33l.24-.23a.48.48,0,0,0,.68-.68L12,7.19l.72.73A.81.81,0,1,1,11.6,9.06Z" fill="#9c9c9c"/>
      <path d="M12.64,8l-.73-.73a.64.64,0,1,1-.92.9l.73.74A.65.65,0,0,0,12.64,8Z" fill="#9c9c9c"/>
    </g>
  </g>
</svg>
