<svg id="Capa_1" data-name="Capa 1" xmlns="http://www.w3.org/2000/svg" viewBox="0 0 40 56">
  <title>iconos_svg</title>
  <ellipse cx="21.8" cy="51.84" rx="9.78" ry="2.05" fill="#a7a9ab"/>
  <path d="M13.28,36.23l.26.25.13.11,5.57,5.32a3.94,3.94,0,0,0,5.1,0l5.59-5.32.12-.11.26-.25Z" fill="#384667"/>
  <path d="M39.59,2.31v32.3A1.79,1.79,0,0,1,37.8,36.4H6.38a1.79,1.79,0,0,1-1.79-1.79V2.31a1.8,1.8,0,0,1,.52-1.26A1.44,1.44,0,0,1,5.38.83a1.72,1.72,0,0,1,1-.31h9.39l2.95,2.81a4.64,4.64,0,0,0,6,0l3-2.81H37.8a1.72,1.72,0,0,1,1,.31,1.44,1.44,0,0,1,.27.22A1.8,1.8,0,0,1,39.59,2.31Z" fill="#384667"/>
  <circle cx="15.5" cy="12.38" r="2.21" fill="#fff"/>
  <circle cx="31.29" cy="13.94" r="2.21" fill="#fff"/>
  <path d="M20,34.82c-.51,1-2,1.48-3,1.84-.31.12-3.23,1.06-3.18,1.3.09.42.2.87.26,1.33.13,1,.31,2,.34,3a2.91,2.91,0,0,1-2,2.91A9.69,9.69,0,0,1,7,45.8,8.7,8.7,0,0,1,3.5,44.66,6.32,6.32,0,0,1,1.78,43,7.35,7.35,0,0,1,.57,37.75,8.64,8.64,0,0,1,2,34.43c1.12-1.93,1.57-4.13,2.63-6.08a1.8,1.8,0,0,1,.51-.65,1.94,1.94,0,0,1,1.12-.2,2,2,0,0,1,.55.08,1.47,1.47,0,0,1,.74.79A6.74,6.74,0,0,1,8,32.6c-.1.45-.12.91-.19,1.48a7.5,7.5,0,0,0,1-.07c2.1-.48,4.19-1,6.29-1.47,1.29-.29,3.21-.87,4.38,0A2,2,0,0,1,20.22,34,1.67,1.67,0,0,1,20,34.82Z" fill="#384667" stroke="#fff" stroke-miterlimit="10" stroke-width="0.75"/>
  <path d="M15.13,22.6a26.39,26.39,0,0,1,5.52-1.31,10.5,10.5,0,0,1,4.66.85,14.39,14.39,0,0,1,3.61,2.75" fill="none" stroke="#fff" stroke-linecap="round" stroke-miterlimit="10"/>
  <path d="M8.38,39.45c2.79-.73,5.5-1.56,5.5-1.56" fill="none" stroke="#fff" stroke-linecap="round" stroke-miterlimit="10" stroke-width="0.75"/>
  <path d="M8.38,42.35c2.79-.73,5.5-1.57,5.5-1.57" fill="none" stroke="#fff" stroke-linecap="round" stroke-miterlimit="10" stroke-width="0.75"/>
</svg>
