<?xml version="1.0" encoding="utf-8"?>
<!-- Generator: Adobe Illustrator 22.0.0, SVG Export Plug-In . SVG Version: 6.00 Build 0)  -->
<svg version="1.1" xmlns="http://www.w3.org/2000/svg" xmlns:xlink="http://www.w3.org/1999/xlink" x="0px" y="0px"
	 viewBox="0 0 54.8 57.54" enable-background="new 0 0 54.8 57.54" xml:space="preserve">
<g id="Capa_1">
</g>
<g id="Capa_2">
	<defs>
		<path id="SVGID_24_" d="M1956.68-83.47v12.38c0,2.15,2.28,3.47,4.13,2.39l3.45-1.98c1.02-0.6,2.27-0.1,2.69,0.9v12.52
			c0,2.9-2.35,5.24-5.24,5.24h-43.93l-5.89,5.61c-1.43,1.35-4.07,1.35-5.49,0l-5.9-5.61h-3.52c-2.9,0-5.24-2.35-5.24-5.24v-39.89
			c0-2.9,2.35-5.24,5.24-5.24h64.73c2.9,0,5.24,2.35,5.24,5.24v12.37c-0.42,1-1.67,1.5-2.69,0.9l-3.45-1.98
			C1958.96-86.92,1956.68-85.58,1956.68-83.47z"/>
	</defs>
	<clipPath id="SVGID_2_">
		<use xlink:href="#SVGID_24_"  overflow="visible"/>
	</clipPath>
</g>
<g id="Capa_4">
	<defs>
		<path id="SVGID_26_" d="M2126.97-83.47v12.38c0,2.15,2.28,3.47,4.13,2.39l3.45-1.98c1.02-0.6,2.27-0.1,2.7,0.9v12.52
			c0,2.9-2.35,5.24-5.24,5.24h-43.93l-5.89,5.61c-1.43,1.35-4.07,1.35-5.49,0l-5.9-5.61h-3.52c-2.9,0-5.24-2.35-5.24-5.24v-39.89
			c0-2.9,2.35-5.24,5.24-5.24h64.73c2.9,0,5.24,2.35,5.24,5.24v12.37c-0.42,1-1.68,1.5-2.7,0.9l-3.45-1.98
			C2129.26-86.92,2126.97-85.58,2126.97-83.47z"/>
	</defs>
	<clipPath id="SVGID_3_">
		<use xlink:href="#SVGID_26_"  overflow="visible"/>
	</clipPath>
</g>
<g id="Capa_3">
	<path fill="#D1D3D3" d="M44.72,40.57L44.72,40.57l-0.68,3.34c-0.24,1.18-1.28,2.03-2.49,2.03H12.12c-1.61,0-2.81-1.47-2.49-3.04
		l2.83-13.87c0.2-0.97,0.9-1.72,1.8-2.01l0,0c0.06-0.02,0.13-0.04,0.2-0.06c0,0,0.01,0,0.01,0c0.06-0.01,0.12-0.03,0.19-0.04
		c0.02,0,0.04-0.01,0.06-0.01c0.05-0.01,0.1-0.01,0.15-0.02c0.07-0.01,0.15-0.01,0.22-0.01h1.15h23.23h1.97h3.27h1.23
		c0.35,0,0.67,0.14,0.9,0.37c0.23,0.23,0.37,0.54,0.38,0.87c0,0.1-0.01,0.19-0.03,0.29L44.72,40.57z M44.7,24.91
		c-0.12-1.13-1.07-2.01-2.23-2.01h-1.02v2.01H44.7z M10.53,28.63c0.38-1.88,1.89-3.31,3.74-3.65v-5.43h-3.5
		c-1.45,0-2.63,1.18-2.63,2.63v18.19L10.53,28.63z M39.47,12.55v12.36H16.24V12.55c0-0.61,0.5-1.11,1.11-1.11h21.02
		C38.98,11.44,39.47,11.93,39.47,12.55z M36.63,21.28c0-0.54-0.44-0.99-0.99-0.99H20.07c-0.54,0-0.99,0.44-0.99,0.99
		c0,0.54,0.44,0.99,0.99,0.99h15.58C36.19,22.27,36.63,21.83,36.63,21.28z M36.63,16.19c0-0.54-0.44-0.99-0.99-0.99H20.07
		c-0.54,0-0.99,0.44-0.99,0.99s0.44,0.99,0.99,0.99h15.58C36.19,17.17,36.63,16.73,36.63,16.19z"/>
</g>
</svg>
