<?xml version="1.0" encoding="utf-8"?>
<!-- Generator: Adobe Illustrator 22.0.0, SVG Export Plug-In . SVG Version: 6.00 Build 0)  -->
<svg version="1.1" xmlns="http://www.w3.org/2000/svg" xmlns:xlink="http://www.w3.org/1999/xlink" x="0px" y="0px"
	 viewBox="0 0 88.89 93.33" enable-background="new 0 0 88.89 93.33" xml:space="preserve">
<g id="Capa_1">
</g>
<g id="Capa_2">
	<defs>
		<path id="SVGID_24_" d="M1962.49,43.32v12.38c0,2.15,2.28,3.47,4.13,2.39l3.45-1.98c1.02-0.6,2.27-0.1,2.69,0.9v12.52
			c0,2.9-2.35,5.24-5.24,5.24h-43.93l-5.89,5.61c-1.43,1.35-4.07,1.35-5.49,0l-5.9-5.61h-3.52c-2.9,0-5.24-2.35-5.24-5.24V29.64
			c0-2.9,2.35-5.24,5.24-5.24h64.73c2.9,0,5.24,2.35,5.24,5.24v12.37c-0.42,1-1.67,1.5-2.69,0.9l-3.45-1.98
			C1964.77,39.88,1962.49,41.21,1962.49,43.32z"/>
	</defs>
	<clipPath id="SVGID_2_">
		<use xlink:href="#SVGID_24_"  overflow="visible"/>
	</clipPath>
</g>
<g id="Capa_4">
	<defs>
		<path id="SVGID_26_" d="M2132.79,43.32v12.38c0,2.15,2.28,3.47,4.13,2.39l3.45-1.98c1.02-0.6,2.27-0.1,2.7,0.9v12.52
			c0,2.9-2.35,5.24-5.24,5.24h-43.93l-5.89,5.61c-1.43,1.35-4.07,1.35-5.49,0l-5.9-5.61h-3.52c-2.9,0-5.24-2.35-5.24-5.24V29.64
			c0-2.9,2.35-5.24,5.24-5.24h64.73c2.9,0,5.24,2.35,5.24,5.24v12.37c-0.42,1-1.68,1.5-2.7,0.9l-3.45-1.98
			C2135.07,39.88,2132.79,41.21,2132.79,43.32z"/>
	</defs>
	<clipPath id="SVGID_3_">
		<use xlink:href="#SVGID_26_"  overflow="visible"/>
	</clipPath>
</g>
<g id="Capa_3">
	<g>
		<path fill="#1A84B6" d="M78.23,89.25c3.31,0,6-2.5,6-5.6V9.68c0-3.09-2.69-5.6-6-5.6H10.65c-3.31,0-6,2.51-6,5.6v73.98
			c0,3.1,2.69,5.6,6,5.6H78.23z"/>
		<text transform="matrix(1 0 0 1 31.6204 76.6044)" fill="#FFFFFF" font-size="11px">Mac OS</text>
		<g>
			<path fill="#FFFFFF" d="M60.14,30.66c-6.51,4.26-5.56,12.58,1.03,15.57c-1.35,3.91-3.24,7.48-6.49,10.15
				c-1.62,1.33-3.59,1.37-5.4,0.51c-2.83-1.35-5.52-1.32-8.33,0.01c-2.09,0.99-4.2,0.8-5.84-0.92c-5.69-5.95-8.58-12.93-6.94-21.23
				c1.05-5.31,5.61-8.7,10.63-8.28c1.13,0.09,2.28,0.45,3.32,0.91c1.71,0.77,3.29,0.77,4.99-0.02c2.42-1.12,4.94-1.52,7.59-0.71
				C56.98,27.35,58.78,28.6,60.14,30.66z"/>
			<path fill="#FFFFFF" d="M52.56,16.57c1.19,4.81-3.94,10.79-8.43,9.8C43.08,21.88,47.53,16.71,52.56,16.57z"/>
		</g>
		<g>
			<rect x="20.26" y="67.76" fill="#FFFFFF" width="2.65" height="6.27"/>
			<path fill="#FFFFFF" d="M21.59,72.24h3.69c0.31,0,0.5,0.19,0.35,0.34l-1.85,1.8l-1.85,1.8c-0.15,0.15-0.54,0.15-0.69,0l-1.85-1.8
				l-1.85-1.8c-0.15-0.15,0.04-0.34,0.35-0.34H21.59z"/>
			<path fill="#FFFFFF" d="M25.82,76.93h-8.47c-0.11,0-0.2,0.09-0.2,0.2v0.16c0,0.11,0.09,0.2,0.2,0.2h8.47c0.11,0,0.2-0.09,0.2-0.2
				v-0.16C26.03,77.02,25.94,76.93,25.82,76.93z"/>
		</g>
	</g>
</g>
</svg>
