<svg id="Capa_1" data-name="Capa 1" xmlns="http://www.w3.org/2000/svg" viewBox="0 0 50 55">
  <title>iconos_svg</title>
  <g>
    <ellipse cx="25" cy="52.86" rx="24.81" ry="2.05" fill="#d1d2d4"/>
    <path d="M17.13,40.63l.24.23.12.11,5.24,5a3.67,3.67,0,0,0,4.78,0l5.25-5,.11-.11.25-.23Z" fill="#384667"/>
    <rect x="8.96" y="7.1" width="32.87" height="33.69" rx="1.79" ry="1.79" fill="#384667"/>
    <path d="M17.13.1l.24.23.12.11,5.24,5a3.67,3.67,0,0,0,4.78,0l5.25-5,.11-.11L33.12.1Z" fill="#384667"/>
    <path d="M47.45,20.2H45.79a9.09,9.09,0,0,0-8.94-7.6,9.19,9.19,0,0,0-9,7.28,3.67,3.67,0,0,0-4.93,0A9.13,9.13,0,0,0,4.9,21H3.34a.76.76,0,0,0,0,1.52H4.9A9.12,9.12,0,0,0,23.1,22a2.89,2.89,0,0,1,2.29-1.52A2.92,2.92,0,0,1,27.69,22a9.12,9.12,0,0,0,18.24-.25h1.52a.76.76,0,0,0,0-1.52ZM14,29.33a7.61,7.61,0,1,1,0-15.21,7.49,7.49,0,0,1,7.55,7.6A7.49,7.49,0,0,1,14,29.33Zm22.81,0a7.61,7.61,0,1,1,0-15.21,7.49,7.49,0,0,1,7.55,7.6A7.49,7.49,0,0,1,36.85,29.33Z" fill="#0085bf"/>
    <circle cx="13.99" cy="21.72" r="3.62" fill="#fff"/>
    <circle cx="36.8" cy="21.72" r="3.62" fill="#fff"/>
    <circle cx="25" cy="33.52" r="2.28" fill="#fff"/>
    <g>
      <circle cx="34.7" cy="32.75" r="0.26" fill="#f9d2e5"/>
      <circle cx="36.8" cy="32.75" r="0.26" fill="#f9d2e5"/>
      <circle cx="38.9" cy="32.75" r="0.26" fill="#f9d2e5"/>
      <g>
        <circle cx="35.79" cy="33.85" r="0.26" fill="#f9d2e5"/>
        <circle cx="37.8" cy="33.85" r="0.26" fill="#f9d2e5"/>
      </g>
    </g>
    <g>
      <circle cx="16.09" cy="32.75" r="0.26" fill="#f9d2e5"/>
      <circle cx="13.99" cy="32.75" r="0.26" fill="#f9d2e5"/>
      <circle cx="11.89" cy="32.75" r="0.26" fill="#f9d2e5"/>
      <g>
        <circle cx="15" cy="33.85" r="0.26" fill="#f9d2e5"/>
        <circle cx="12.99" cy="33.85" r="0.26" fill="#f9d2e5"/>
      </g>
    </g>
  </g>
</svg>
