<svg id="Capa_1" data-name="Capa 1" xmlns="http://www.w3.org/2000/svg" viewBox="0 0 50 50">
  <title>iconos_svg</title>
  <g>
    <ellipse cx="25.09" cy="47.67" rx="24.81" ry="2.05" fill="#d1d2d4"/>
    <g>
      <path d="M26.59,15.41a1.49,1.49,0,0,1-.49-1v-.31a1.53,1.53,0,0,1,.48-1h0l.05,0a2.48,2.48,0,0,0-2-4.28,2.48,2.48,0,0,0-1.4,4.28h0l0,0h0a1.48,1.48,0,0,1,.48,1v.31a1.54,1.54,0,0,1-.49,1" fill="#03ac8b"/>
      <path d="M37.21,27.08a1.52,1.52,0,0,1,1-.49h.31a1.49,1.49,0,0,1,1,.49h0l0,0a2.5,2.5,0,0,0,1.83.79,2.46,2.46,0,0,0,2.45-2.75A2.49,2.49,0,0,0,41.69,23a2.52,2.52,0,0,0-2.21.76h0l0,.05h0a1.53,1.53,0,0,1-1,.48h-.31a1.52,1.52,0,0,1-1-.49" fill="#03ac8b"/>
      <path d="M12.72,27.08a1.54,1.54,0,0,0-1-.49h-.31a1.49,1.49,0,0,0-1,.49h0l0,0a2.47,2.47,0,0,1-4.27-2,2.47,2.47,0,0,1,4.27-1.41h0l0,.05h0a1.53,1.53,0,0,0,1,.48h.31a1.54,1.54,0,0,0,1-.49" fill="#03ac8b"/>
      <g>
        <path d="M18.62,35.49l.18.18.09.08,4,3.79a2.81,2.81,0,0,0,3.64,0l4-3.79.08-.08.19-.18Z" fill="#03ac8b"/>
        <rect x="12.7" y="15.41" width="24.51" height="20.08" rx="1.79" ry="1.79" fill="#03ac8b"/>
      </g>
    </g>
    <g>
      <path d="M21.12,29.94a2.55,2.55,0,0,0-5.09,0" fill="none" stroke="#fff" stroke-linecap="round" stroke-miterlimit="10"/>
      <path d="M33.9,29.94a2.55,2.55,0,0,0-5.09,0" fill="none" stroke="#fff" stroke-linecap="round" stroke-miterlimit="10"/>
    </g>
    <circle cx="24.95" cy="31.79" r="1.03" fill="#fff"/>
    <path d="M27.43,6.41a3.9,3.9,0,0,0-5.5,0,.78.78,0,0,0,0,1.08.79.79,0,0,0,.54.22A.77.77,0,0,0,23,7.48a2.38,2.38,0,0,1,3.35,0,.76.76,0,0,0,1.07,0,.75.75,0,0,0,0-1.07" fill="#03ac8b"/>
    <path d="M31,2.89a8.91,8.91,0,0,0-12.57,0A.75.75,0,0,0,18.4,4a.76.76,0,0,0,1.07,0A7.39,7.39,0,0,1,29.9,4,.76.76,0,0,0,31,2.89" fill="#03ac8b"/>
    <path d="M29.16,4.69a6.34,6.34,0,0,0-8.95,0A.76.76,0,0,0,20.75,6a.79.79,0,0,0,.54-.22,4.82,4.82,0,0,1,6.79,0,.75.75,0,0,0,1.08,0,.75.75,0,0,0,.22-.53.79.79,0,0,0-.22-.54" fill="#03ac8b"/>
    <path d="M45.7,28.2a3.91,3.91,0,0,0,0-5.5.76.76,0,0,0-1.07,1.07,2.38,2.38,0,0,1,.69,1.67,2.35,2.35,0,0,1-.7,1.68.77.77,0,0,0-.22.54.79.79,0,0,0,.22.54.77.77,0,0,0,1.08,0" fill="#03ac8b"/>
    <path d="M47.41,29.92a6.35,6.35,0,0,0,0-9,.76.76,0,0,0-1.07,0,.75.75,0,0,0-.22.54.73.73,0,0,0,.22.54,4.8,4.8,0,0,1,0,6.79.79.79,0,0,0-.22.54.76.76,0,0,0,.22.54.73.73,0,0,0,.54.22.71.71,0,0,0,.53-.22" fill="#03ac8b"/>
    <path d="M3.67,28.2a3.9,3.9,0,0,1,0-5.5A.76.76,0,0,1,5,23.24a.71.71,0,0,1-.22.53A2.38,2.38,0,0,0,4,25.44a2.35,2.35,0,0,0,.7,1.68.77.77,0,0,1,.22.54.79.79,0,0,1-.22.54.76.76,0,0,1-1.07,0" fill="#03ac8b"/>
    <path d="M2,29.92a6.35,6.35,0,0,1,0-9,.77.77,0,0,1,1.3.54.74.74,0,0,1-.23.54,4.8,4.8,0,0,0,0,6.79.79.79,0,0,1,.22.54.76.76,0,0,1-.22.54.72.72,0,0,1-.54.22A.71.71,0,0,1,2,29.92" fill="#03ac8b"/>
  </g>
</svg>
