<svg xmlns="http://www.w3.org/2000/svg" viewBox="0 0 15 15">
  <title>iconos_svg_v1</title>
  <g id="Capa_3" data-name="Capa 3">
    <g>
      <path d="M2.31,14.55H.85a.4.4,0,0,1-.4-.4V.85a.4.4,0,0,1,.4-.4H2.31a.39.39,0,0,0-.39.4v13.3A.39.39,0,0,0,2.31,14.55Z" fill="#1e1f1d"/>
      <rect x="1.92" y="0.45" width="12.63" height="14.09" rx="0.39" ry="0.39" fill="#3d3d3b"/>
      <path d="M1.91,1.52A.53.53,0,0,1,1.47,2a.53.53,0,0,1,0-1A.53.53,0,0,1,1.91,1.52Z" fill="#fff"/>
      <g>
        <g>
          <g>
            <path d="M13.38,14h-.1a.6.6,0,0,1-.6-.6.6.6,0,0,1,.6-.6h.1a.61.61,0,0,0-.51.6A.59.59,0,0,0,13.38,14Z" fill="#ebebeb"/>
            <path d="M13.88,13.42a.59.59,0,0,1-.5.59.59.59,0,0,1-.51-.59.61.61,0,0,1,.51-.6A.61.61,0,0,1,13.88,13.42Z" fill="#fff"/>
          </g>
          <g>
            <path d="M13.38,12.32h-.1a.6.6,0,0,1-.6-.6.6.6,0,0,1,.6-.6h.1a.61.61,0,0,0-.51.6A.59.59,0,0,0,13.38,12.32Z" fill="#ebebeb"/>
            <path d="M13.88,11.73a.59.59,0,0,1-.5.59.59.59,0,0,1-.51-.59.61.61,0,0,1,.51-.6A.61.61,0,0,1,13.88,11.73Z" fill="#fff"/>
          </g>
          <g>
            <path d="M13.38,10.63h-.1a.6.6,0,0,1-.6-.6.6.6,0,0,1,.6-.6h.1a.61.61,0,0,0-.51.6A.59.59,0,0,0,13.38,10.63Z" fill="#ebebeb"/>
            <path d="M13.88,10a.59.59,0,0,1-.5.59.59.59,0,0,1-.51-.59.61.61,0,0,1,.51-.6A.61.61,0,0,1,13.88,10Z" fill="#fff"/>
          </g>
          <g>
            <path d="M13.38,8.94h-.1a.6.6,0,0,1-.6-.6.6.6,0,0,1,.6-.6h.1a.61.61,0,0,0-.51.6A.59.59,0,0,0,13.38,8.94Z" fill="#ebebeb"/>
            <path d="M13.88,8.35a.59.59,0,0,1-.5.59.59.59,0,0,1-.51-.59.61.61,0,0,1,.51-.6A.61.61,0,0,1,13.88,8.35Z" fill="#fff"/>
          </g>
          <g>
            <path d="M13.38,7.25h-.1a.6.6,0,0,1-.6-.6.6.6,0,0,1,.6-.6h.1a.6.6,0,0,0,0,1.18Z" fill="#ebebeb"/>
            <path d="M13.88,6.66a.59.59,0,0,1-.5.59.6.6,0,0,1,0-1.18A.59.59,0,0,1,13.88,6.66Z" fill="#fff"/>
          </g>
          <g>
            <path d="M13.38,5.56h-.1a.6.6,0,1,1,0-1.2h.1a.6.6,0,0,0,0,1.18Z" fill="#ebebeb"/>
            <path d="M13.88,5a.59.59,0,0,1-.5.59.6.6,0,0,1,0-1.18A.59.59,0,0,1,13.88,5Z" fill="#fff"/>
          </g>
          <g>
            <path d="M13.38,3.87h-.1a.6.6,0,1,1,0-1.2h.1a.6.6,0,0,0,0,1.18Z" fill="#ebebeb"/>
            <path d="M13.88,3.28a.59.59,0,0,1-.5.59.6.6,0,0,1,0-1.18A.59.59,0,0,1,13.88,3.28Z" fill="#fff"/>
          </g>
          <g>
            <path d="M13.38,2.18h-.1a.6.6,0,1,1,0-1.2h.1a.6.6,0,0,0,0,1.18Z" fill="#ebebeb"/>
            <path d="M13.88,1.59a.59.59,0,0,1-.5.59.6.6,0,0,1,0-1.18A.59.59,0,0,1,13.88,1.59Z" fill="#fff"/>
          </g>
        </g>
        <g>
          <g>
            <path d="M11.69,14h-.1a.6.6,0,0,1-.6-.6.6.6,0,0,1,.6-.6h.1a.61.61,0,0,0-.51.6A.59.59,0,0,0,11.69,14Z" fill="#ebebeb"/>
            <path d="M12.19,13.42a.59.59,0,0,1-.5.59.59.59,0,0,1-.51-.59.61.61,0,0,1,.51-.6A.61.61,0,0,1,12.19,13.42Z" fill="#fff"/>
          </g>
          <g>
            <path d="M11.69,12.32h-.1a.6.6,0,0,1-.6-.6.6.6,0,0,1,.6-.6h.1a.61.61,0,0,0-.51.6A.59.59,0,0,0,11.69,12.32Z" fill="#ebebeb"/>
            <path d="M12.19,11.73a.59.59,0,0,1-.5.59.59.59,0,0,1-.51-.59.61.61,0,0,1,.51-.6A.61.61,0,0,1,12.19,11.73Z" fill="#fff"/>
          </g>
          <g>
            <path d="M11.69,10.63h-.1A.6.6,0,0,1,11,10a.6.6,0,0,1,.6-.6h.1a.61.61,0,0,0-.51.6A.59.59,0,0,0,11.69,10.63Z" fill="#ebebeb"/>
            <path d="M12.19,10a.59.59,0,0,1-.5.59.59.59,0,0,1-.51-.59.61.61,0,0,1,.51-.6A.61.61,0,0,1,12.19,10Z" fill="#fff"/>
          </g>
          <g>
            <path d="M11.69,8.94h-.1a.6.6,0,0,1-.6-.6.6.6,0,0,1,.6-.6h.1a.61.61,0,0,0-.51.6A.59.59,0,0,0,11.69,8.94Z" fill="#ebebeb"/>
            <path d="M12.19,8.35a.59.59,0,0,1-.5.59.59.59,0,0,1-.51-.59.61.61,0,0,1,.51-.6A.61.61,0,0,1,12.19,8.35Z" fill="#fff"/>
          </g>
          <g>
            <path d="M11.69,7.25h-.1a.6.6,0,0,1-.6-.6.6.6,0,0,1,.6-.6h.1a.6.6,0,0,0,0,1.18Z" fill="#ebebeb"/>
            <path d="M12.19,6.66a.59.59,0,0,1-.5.59.6.6,0,0,1,0-1.18A.59.59,0,0,1,12.19,6.66Z" fill="#fff"/>
          </g>
          <g>
            <path d="M11.69,5.56h-.1a.6.6,0,0,1,0-1.2h.1a.6.6,0,0,0,0,1.18Z" fill="#ebebeb"/>
            <path d="M12.19,5a.59.59,0,0,1-.5.59.6.6,0,0,1,0-1.18A.59.59,0,0,1,12.19,5Z" fill="#fff"/>
          </g>
          <g>
            <path d="M11.69,3.87h-.1a.6.6,0,1,1,0-1.2h.1a.6.6,0,0,0,0,1.18Z" fill="#ebebeb"/>
            <path d="M12.19,3.28a.59.59,0,0,1-.5.59.6.6,0,0,1,0-1.18A.59.59,0,0,1,12.19,3.28Z" fill="#fff"/>
          </g>
          <g>
            <path d="M11.69,2.18h-.1a.6.6,0,1,1,0-1.2h.1a.6.6,0,0,0,0,1.18Z" fill="#ebebeb"/>
            <path d="M12.19,1.59a.59.59,0,0,1-.5.59.6.6,0,0,1,0-1.18A.59.59,0,0,1,12.19,1.59Z" fill="#fff"/>
          </g>
        </g>
        <g>
          <g>
            <path d="M10,14H9.9a.6.6,0,0,1-.6-.6.6.6,0,0,1,.6-.6H10a.61.61,0,0,0-.51.6A.59.59,0,0,0,10,14Z" fill="#ebebeb"/>
            <path d="M10.5,13.42A.59.59,0,0,1,10,14a.59.59,0,0,1-.51-.59.61.61,0,0,1,.51-.6A.61.61,0,0,1,10.5,13.42Z" fill="#fff"/>
          </g>
          <g>
            <path d="M10,12.32H9.9a.6.6,0,0,1-.6-.6.6.6,0,0,1,.6-.6H10a.61.61,0,0,0-.51.6A.59.59,0,0,0,10,12.32Z" fill="#ebebeb"/>
            <path d="M10.5,11.73a.59.59,0,0,1-.5.59.59.59,0,0,1-.51-.59.61.61,0,0,1,.51-.6A.61.61,0,0,1,10.5,11.73Z" fill="#fff"/>
          </g>
          <g>
            <path d="M10,10.63H9.9a.6.6,0,0,1-.6-.6.6.6,0,0,1,.6-.6H10a.61.61,0,0,0-.51.6A.59.59,0,0,0,10,10.63Z" fill="#ebebeb"/>
            <path d="M10.5,10a.59.59,0,0,1-.5.59A.59.59,0,0,1,9.49,10a.61.61,0,0,1,.51-.6A.61.61,0,0,1,10.5,10Z" fill="#fff"/>
          </g>
          <g>
            <path d="M10,8.94H9.9a.6.6,0,0,1-.6-.6.6.6,0,0,1,.6-.6H10a.61.61,0,0,0-.51.6A.59.59,0,0,0,10,8.94Z" fill="#ebebeb"/>
            <path d="M10.5,8.35a.59.59,0,0,1-.5.59.59.59,0,0,1-.51-.59.61.61,0,0,1,.51-.6A.61.61,0,0,1,10.5,8.35Z" fill="#fff"/>
          </g>
          <g>
            <path d="M10,7.25H9.9a.6.6,0,0,1-.6-.6.6.6,0,0,1,.6-.6H10a.6.6,0,0,0,0,1.18Z" fill="#ebebeb"/>
            <path d="M10.5,6.66a.59.59,0,0,1-.5.59.6.6,0,0,1,0-1.18A.59.59,0,0,1,10.5,6.66Z" fill="#fff"/>
          </g>
          <g>
            <path d="M10,5.56H9.9a.6.6,0,0,1,0-1.2H10a.6.6,0,0,0,0,1.18Z" fill="#ebebeb"/>
            <path d="M10.5,5a.59.59,0,0,1-.5.59.6.6,0,0,1,0-1.18A.59.59,0,0,1,10.5,5Z" fill="#fff"/>
          </g>
          <g>
            <path d="M10,3.87H9.9a.6.6,0,1,1,0-1.2H10a.6.6,0,0,0,0,1.18Z" fill="#ebebeb"/>
            <path d="M10.5,3.28a.59.59,0,0,1-.5.59.6.6,0,0,1,0-1.18A.59.59,0,0,1,10.5,3.28Z" fill="#fff"/>
          </g>
          <g>
            <path d="M10,2.18H9.9A.6.6,0,0,1,9.9,1H10a.6.6,0,0,0,0,1.18Z" fill="#ebebeb"/>
            <path d="M10.5,1.59a.59.59,0,0,1-.5.59A.6.6,0,0,1,10,1,.59.59,0,0,1,10.5,1.59Z" fill="#fff"/>
          </g>
        </g>
        <g>
          <g>
            <path d="M8.31,14h-.1a.6.6,0,0,1-.6-.6.6.6,0,0,1,.6-.6h.1a.6.6,0,0,0-.5.6A.59.59,0,0,0,8.31,14Z" fill="#ebebeb"/>
            <path d="M8.81,13.42a.59.59,0,0,1-.5.59.59.59,0,0,1-.5-.59.6.6,0,0,1,.5-.6A.61.61,0,0,1,8.81,13.42Z" fill="#fff"/>
          </g>
          <g>
            <path d="M8.31,12.32h-.1a.6.6,0,0,1-.6-.6.6.6,0,0,1,.6-.6h.1a.6.6,0,0,0-.5.6A.59.59,0,0,0,8.31,12.32Z" fill="#ebebeb"/>
            <path d="M8.81,11.73a.59.59,0,0,1-.5.59.59.59,0,0,1-.5-.59.6.6,0,0,1,.5-.6A.61.61,0,0,1,8.81,11.73Z" fill="#fff"/>
          </g>
          <g>
            <path d="M8.31,10.63h-.1a.6.6,0,0,1-.6-.6.6.6,0,0,1,.6-.6h.1a.6.6,0,0,0-.5.6A.59.59,0,0,0,8.31,10.63Z" fill="#ebebeb"/>
            <path d="M8.81,10a.59.59,0,0,1-.5.59.59.59,0,0,1-.5-.59.6.6,0,0,1,.5-.6A.61.61,0,0,1,8.81,10Z" fill="#fff"/>
          </g>
          <g>
            <path d="M8.31,8.94h-.1a.6.6,0,0,1-.6-.6.6.6,0,0,1,.6-.6h.1a.6.6,0,0,0-.5.6A.59.59,0,0,0,8.31,8.94Z" fill="#ebebeb"/>
            <path d="M8.81,8.35a.59.59,0,0,1-.5.59.59.59,0,0,1-.5-.59.6.6,0,0,1,.5-.6A.61.61,0,0,1,8.81,8.35Z" fill="#fff"/>
          </g>
          <g>
            <path d="M8.31,7.25h-.1a.6.6,0,0,1-.6-.6.6.6,0,0,1,.6-.6h.1a.6.6,0,0,0,0,1.18Z" fill="#ebebeb"/>
            <path d="M8.81,6.66a.59.59,0,0,1-.5.59.6.6,0,0,1,0-1.18A.59.59,0,0,1,8.81,6.66Z" fill="#fff"/>
          </g>
          <g>
            <path d="M8.31,5.56h-.1a.6.6,0,1,1,0-1.2h.1a.6.6,0,0,0,0,1.18Z" fill="#ebebeb"/>
            <path d="M8.81,5a.59.59,0,0,1-.5.59.6.6,0,0,1,0-1.18A.59.59,0,0,1,8.81,5Z" fill="#fff"/>
          </g>
          <g>
            <path d="M8.31,3.87h-.1a.6.6,0,0,1,0-1.2h.1a.6.6,0,0,0,0,1.18Z" fill="#ebebeb"/>
            <path d="M8.81,3.28a.59.59,0,0,1-.5.59.6.6,0,0,1,0-1.18A.59.59,0,0,1,8.81,3.28Z" fill="#fff"/>
          </g>
          <g>
            <path d="M8.31,2.18h-.1a.6.6,0,1,1,0-1.2h.1a.59.59,0,0,0-.5.59A.59.59,0,0,0,8.31,2.18Z" fill="#ebebeb"/>
            <path d="M8.81,1.59a.59.59,0,0,1-.5.59.59.59,0,0,1-.5-.59A.59.59,0,0,1,8.31,1,.59.59,0,0,1,8.81,1.59Z" fill="#fff"/>
          </g>
        </g>
        <g>
          <g>
            <path d="M6.62,14h-.1a.6.6,0,0,1-.6-.6.6.6,0,0,1,.6-.6h.1a.6.6,0,0,0-.5.6A.59.59,0,0,0,6.62,14Z" fill="#ebebeb"/>
            <path d="M7.12,13.42a.59.59,0,0,1-.5.59.59.59,0,0,1-.5-.59.6.6,0,0,1,.5-.6A.61.61,0,0,1,7.12,13.42Z" fill="#fff"/>
          </g>
          <g>
            <path d="M6.62,12.32h-.1a.6.6,0,0,1-.6-.6.6.6,0,0,1,.6-.6h.1a.6.6,0,0,0-.5.6A.59.59,0,0,0,6.62,12.32Z" fill="#ebebeb"/>
            <path d="M7.12,11.73a.59.59,0,0,1-.5.59.59.59,0,0,1-.5-.59.6.6,0,0,1,.5-.6A.61.61,0,0,1,7.12,11.73Z" fill="#fff"/>
          </g>
          <g>
            <path d="M6.62,10.63h-.1a.6.6,0,0,1-.6-.6.6.6,0,0,1,.6-.6h.1a.6.6,0,0,0-.5.6A.59.59,0,0,0,6.62,10.63Z" fill="#ebebeb"/>
            <path d="M7.12,10a.59.59,0,0,1-.5.59.59.59,0,0,1-.5-.59.6.6,0,0,1,.5-.6A.61.61,0,0,1,7.12,10Z" fill="#fff"/>
          </g>
          <g>
            <path d="M6.62,8.94h-.1a.6.6,0,0,1-.6-.6.6.6,0,0,1,.6-.6h.1a.6.6,0,0,0-.5.6A.59.59,0,0,0,6.62,8.94Z" fill="#ebebeb"/>
            <path d="M7.12,8.35a.59.59,0,0,1-.5.59.59.59,0,0,1-.5-.59.6.6,0,0,1,.5-.6A.61.61,0,0,1,7.12,8.35Z" fill="#fff"/>
          </g>
          <g>
            <path d="M6.62,7.25h-.1a.6.6,0,0,1-.6-.6.6.6,0,0,1,.6-.6h.1a.6.6,0,0,0,0,1.18Z" fill="#ebebeb"/>
            <path d="M7.12,6.66a.59.59,0,0,1-.5.59.6.6,0,0,1,0-1.18A.59.59,0,0,1,7.12,6.66Z" fill="#fff"/>
          </g>
          <g>
            <path d="M6.62,5.56h-.1a.6.6,0,0,1,0-1.2h.1a.6.6,0,0,0,0,1.18Z" fill="#ebebeb"/>
            <path d="M7.12,5a.59.59,0,0,1-.5.59.6.6,0,0,1,0-1.18A.59.59,0,0,1,7.12,5Z" fill="#fff"/>
          </g>
          <g>
            <path d="M6.62,3.87h-.1a.6.6,0,1,1,0-1.2h.1a.6.6,0,0,0,0,1.18Z" fill="#ebebeb"/>
            <path d="M7.12,3.28a.59.59,0,0,1-.5.59.6.6,0,0,1,0-1.18A.59.59,0,0,1,7.12,3.28Z" fill="#fff"/>
          </g>
          <g>
            <path d="M6.62,2.18h-.1a.6.6,0,1,1,0-1.2h.1a.59.59,0,0,0-.5.59A.59.59,0,0,0,6.62,2.18Z" fill="#ebebeb"/>
            <path d="M7.12,1.59a.59.59,0,0,1-.5.59.59.59,0,0,1-.5-.59A.59.59,0,0,1,6.62,1,.59.59,0,0,1,7.12,1.59Z" fill="#fff"/>
          </g>
        </g>
        <g>
          <g>
            <path d="M4.93,14h-.1a.6.6,0,0,1-.6-.6.6.6,0,0,1,.6-.6h.1a.6.6,0,0,0-.5.6A.59.59,0,0,0,4.93,14Z" fill="#ebebeb"/>
            <path d="M5.43,13.42a.59.59,0,0,1-.5.59.59.59,0,0,1-.5-.59.6.6,0,0,1,.5-.6A.61.61,0,0,1,5.43,13.42Z" fill="#fff"/>
          </g>
          <g>
            <path d="M4.93,12.32h-.1a.6.6,0,0,1-.6-.6.6.6,0,0,1,.6-.6h.1a.6.6,0,0,0-.5.6A.59.59,0,0,0,4.93,12.32Z" fill="#ebebeb"/>
            <path d="M5.43,11.73a.59.59,0,0,1-.5.59.59.59,0,0,1-.5-.59.6.6,0,0,1,.5-.6A.61.61,0,0,1,5.43,11.73Z" fill="#fff"/>
          </g>
          <g>
            <path d="M4.93,10.63h-.1a.6.6,0,0,1-.6-.6.6.6,0,0,1,.6-.6h.1a.6.6,0,0,0-.5.6A.59.59,0,0,0,4.93,10.63Z" fill="#ebebeb"/>
            <path d="M5.43,10a.59.59,0,0,1-.5.59.59.59,0,0,1-.5-.59.6.6,0,0,1,.5-.6A.61.61,0,0,1,5.43,10Z" fill="#fff"/>
          </g>
          <g>
            <path d="M4.93,8.94h-.1a.6.6,0,0,1-.6-.6.6.6,0,0,1,.6-.6h.1a.6.6,0,0,0-.5.6A.59.59,0,0,0,4.93,8.94Z" fill="#ebebeb"/>
            <path d="M5.43,8.35a.59.59,0,0,1-.5.59.59.59,0,0,1-.5-.59.6.6,0,0,1,.5-.6A.61.61,0,0,1,5.43,8.35Z" fill="#fff"/>
          </g>
          <g>
            <path d="M4.93,7.25h-.1a.6.6,0,0,1-.6-.6.6.6,0,0,1,.6-.6h.1a.6.6,0,0,0,0,1.18Z" fill="#ebebeb"/>
            <path d="M5.43,6.66a.59.59,0,0,1-.5.59.6.6,0,0,1,0-1.18A.59.59,0,0,1,5.43,6.66Z" fill="#fff"/>
          </g>
          <g>
            <path d="M4.93,5.56h-.1a.6.6,0,0,1,0-1.2h.1a.6.6,0,0,0,0,1.18Z" fill="#ebebeb"/>
            <path d="M5.43,5a.59.59,0,0,1-.5.59.6.6,0,0,1,0-1.18A.59.59,0,0,1,5.43,5Z" fill="#fff"/>
          </g>
          <g>
            <path d="M4.93,3.87h-.1a.6.6,0,0,1,0-1.2h.1a.6.6,0,0,0,0,1.18Z" fill="#ebebeb"/>
            <path d="M5.43,3.28a.59.59,0,0,1-.5.59.6.6,0,0,1,0-1.18A.59.59,0,0,1,5.43,3.28Z" fill="#fff"/>
          </g>
          <g>
            <path d="M4.93,2.18h-.1a.6.6,0,1,1,0-1.2h.1a.59.59,0,0,0-.5.59A.59.59,0,0,0,4.93,2.18Z" fill="#ebebeb"/>
            <path d="M5.43,1.59a.59.59,0,0,1-.5.59.59.59,0,0,1-.5-.59A.59.59,0,0,1,4.93,1,.59.59,0,0,1,5.43,1.59Z" fill="#fff"/>
          </g>
        </g>
        <g>
          <g>
            <path d="M3.24,14h-.1a.6.6,0,0,1-.6-.6.6.6,0,0,1,.6-.6h.1a.6.6,0,0,0-.5.6A.59.59,0,0,0,3.24,14Z" fill="#ebebeb"/>
            <path d="M3.74,13.42a.59.59,0,0,1-.5.59.59.59,0,0,1-.5-.59.6.6,0,0,1,.5-.6A.61.61,0,0,1,3.74,13.42Z" fill="#fff"/>
          </g>
          <g>
            <path d="M3.24,12.32h-.1a.6.6,0,0,1-.6-.6.6.6,0,0,1,.6-.6h.1a.6.6,0,0,0-.5.6A.59.59,0,0,0,3.24,12.32Z" fill="#ebebeb"/>
            <path d="M3.74,11.73a.59.59,0,0,1-.5.59.59.59,0,0,1-.5-.59.6.6,0,0,1,.5-.6A.61.61,0,0,1,3.74,11.73Z" fill="#fff"/>
          </g>
          <g>
            <path d="M3.24,10.63h-.1a.6.6,0,0,1-.6-.6.6.6,0,0,1,.6-.6h.1a.6.6,0,0,0-.5.6A.59.59,0,0,0,3.24,10.63Z" fill="#ebebeb"/>
            <path d="M3.74,10a.59.59,0,0,1-.5.59.59.59,0,0,1-.5-.59.6.6,0,0,1,.5-.6A.61.61,0,0,1,3.74,10Z" fill="#fff"/>
          </g>
          <g>
            <path d="M3.24,8.94h-.1a.6.6,0,0,1-.6-.6.6.6,0,0,1,.6-.6h.1a.6.6,0,0,0-.5.6A.59.59,0,0,0,3.24,8.94Z" fill="#ebebeb"/>
            <path d="M3.74,8.35a.59.59,0,0,1-.5.59.59.59,0,0,1-.5-.59.6.6,0,0,1,.5-.6A.61.61,0,0,1,3.74,8.35Z" fill="#fff"/>
          </g>
          <g>
            <path d="M3.24,7.25h-.1a.6.6,0,0,1-.6-.6.6.6,0,0,1,.6-.6h.1a.6.6,0,0,0,0,1.18Z" fill="#ebebeb"/>
            <path d="M3.74,6.66a.59.59,0,0,1-.5.59.6.6,0,0,1,0-1.18A.59.59,0,0,1,3.74,6.66Z" fill="#fff"/>
          </g>
          <g>
            <path d="M3.24,5.56h-.1a.6.6,0,1,1,0-1.2h.1a.6.6,0,0,0,0,1.18Z" fill="#ebebeb"/>
            <path d="M3.74,5a.59.59,0,0,1-.5.59.6.6,0,0,1,0-1.18A.59.59,0,0,1,3.74,5Z" fill="#fff"/>
          </g>
          <g>
            <path d="M3.24,3.87h-.1a.6.6,0,1,1,0-1.2h.1a.6.6,0,0,0,0,1.18Z" fill="#ebebeb"/>
            <path d="M3.74,3.28a.59.59,0,0,1-.5.59.6.6,0,0,1,0-1.18A.59.59,0,0,1,3.74,3.28Z" fill="#fff"/>
          </g>
          <g>
            <path d="M3.24,2.18h-.1a.6.6,0,1,1,0-1.2h.1a.59.59,0,0,0-.5.59A.59.59,0,0,0,3.24,2.18Z" fill="#ebebeb"/>
            <path d="M3.74,1.59a.59.59,0,0,1-.5.59.59.59,0,0,1-.5-.59A.59.59,0,0,1,3.24,1,.59.59,0,0,1,3.74,1.59Z" fill="#fff"/>
          </g>
        </g>
        <g>
          <g>
            <path d="M1.55,14h-.1a.6.6,0,0,1-.6-.6.6.6,0,0,1,.6-.6h.1a.6.6,0,0,0-.5.6A.59.59,0,0,0,1.55,14Z" fill="#ebebeb"/>
            <path d="M2.05,13.42a.59.59,0,0,1-.5.59.59.59,0,0,1-.5-.59.6.6,0,0,1,.5-.6A.61.61,0,0,1,2.05,13.42Z" fill="#fff"/>
          </g>
          <g>
            <path d="M1.55,12.32h-.1a.6.6,0,0,1-.6-.6.6.6,0,0,1,.6-.6h.1a.6.6,0,0,0-.5.6A.59.59,0,0,0,1.55,12.32Z" fill="#ebebeb"/>
            <path d="M2.05,11.73a.59.59,0,0,1-.5.59.59.59,0,0,1-.5-.59.6.6,0,0,1,.5-.6A.61.61,0,0,1,2.05,11.73Z" fill="#fff"/>
          </g>
          <g>
            <path d="M1.55,10.63h-.1a.6.6,0,0,1-.6-.6.6.6,0,0,1,.6-.6h.1a.6.6,0,0,0-.5.6A.59.59,0,0,0,1.55,10.63Z" fill="#ebebeb"/>
            <path d="M2.05,10a.59.59,0,0,1-.5.59.59.59,0,0,1-.5-.59.6.6,0,0,1,.5-.6A.61.61,0,0,1,2.05,10Z" fill="#fff"/>
          </g>
          <g>
            <path d="M1.55,8.94h-.1a.6.6,0,0,1-.6-.6.6.6,0,0,1,.6-.6h.1a.6.6,0,0,0-.5.6A.59.59,0,0,0,1.55,8.94Z" fill="#ebebeb"/>
            <path d="M2.05,8.35a.59.59,0,0,1-.5.59.59.59,0,0,1-.5-.59.6.6,0,0,1,.5-.6A.61.61,0,0,1,2.05,8.35Z" fill="#fff"/>
          </g>
          <g>
            <path d="M1.55,7.25h-.1a.6.6,0,0,1-.6-.6.6.6,0,0,1,.6-.6h.1a.6.6,0,0,0,0,1.18Z" fill="#ebebeb"/>
            <path d="M2.05,6.66a.59.59,0,0,1-.5.59.6.6,0,0,1,0-1.18A.59.59,0,0,1,2.05,6.66Z" fill="#fff"/>
          </g>
          <g>
            <path d="M1.55,5.56h-.1a.6.6,0,1,1,0-1.2h.1a.6.6,0,0,0,0,1.18Z" fill="#ebebeb"/>
            <path d="M2.05,5a.59.59,0,0,1-.5.59.6.6,0,0,1,0-1.18A.59.59,0,0,1,2.05,5Z" fill="#fff"/>
          </g>
          <g>
            <path d="M1.55,3.87h-.1a.6.6,0,1,1,0-1.2h.1a.6.6,0,0,0,0,1.18Z" fill="#ebebeb"/>
            <path d="M2.05,3.28a.59.59,0,0,1-.5.59.6.6,0,0,1,0-1.18A.59.59,0,0,1,2.05,3.28Z" fill="#fff"/>
          </g>
          <g>
            <path d="M1.55,2.18h-.1a.6.6,0,0,1,0-1.2h.1a.59.59,0,0,0-.5.59A.59.59,0,0,0,1.55,2.18Z" fill="#ebebeb"/>
            <path d="M2.05,1.59a.59.59,0,0,1-.5.59.59.59,0,0,1-.5-.59A.59.59,0,0,1,1.55,1,.59.59,0,0,1,2.05,1.59Z" fill="#fff"/>
          </g>
        </g>
      </g>
    </g>
  </g>
</svg>
