<svg xmlns="http://www.w3.org/2000/svg" viewBox="0 0 37.57 37.57"><defs><style>.cls-1{fill:#fa504b;}.cls-2{fill:#fff;}</style></defs><title>redo_v0</title><g id="Capa_2" data-name="Capa 2"><g id="Capa_2-2" data-name="Capa 2"><rect class="cls-1" width="37.57" height="37.57" rx="8.36" ry="8.36" transform="translate(0 37.57) rotate(-90)"/><path class="cls-2" d="M25.07,27.65a1.5,1.5,0,0,0,.16-2.27,1.52,1.52,0,0,0-1.95-.16,7.93,7.93,0,1,1,.88-12.12l-2.08,2.07a.21.21,0,0,0,.13.35l7.44,1.14a.18.18,0,0,0,.21-.21L28.73,9a.22.22,0,0,0-.35-.14L26.3,11a10.95,10.95,0,1,0-1.23,16.7Z"/></g></g></svg>