<?xml version="1.0" encoding="utf-8"?>
<!-- Generator: Adobe Illustrator 22.0.0, SVG Export Plug-In . SVG Version: 6.00 Build 0)  -->
<svg version="1.1" id="Capa_1" xmlns="http://www.w3.org/2000/svg" xmlns:xlink="http://www.w3.org/1999/xlink" x="0px" y="0px"
	 viewBox="0 0 129.5 78.47" enable-background="new 0 0 129.5 78.47" xml:space="preserve">
<g>
	<g>
		<g>
			<g>
				<path fill="#E96A62" d="M79.24,35.8l-0.04,7.32c-0.01,0.98-0.8,1.79-1.8,1.79l-22.26-0.03l-5.98-0.01l-7.79-0.01
					c-0.98-0.01-1.79-0.8-1.78-1.79l0-7.27H79.24z"/>
			</g>
		</g>
		<g>
			<g>
				<g>
					<g>
						<path fill="#939598" d="M61.93,47.86h-8.08c-0.16,0-0.3-0.13-0.3-0.3v-1.1c0-0.16,0.13-0.3,0.3-0.3h8.08
							c0.16,0,0.3,0.13,0.3,0.3v1.1C62.23,47.73,62.09,47.86,61.93,47.86z"/>
					</g>
					<g>
						<path fill="#939598" d="M61.93,56.47h-8.08c-0.16,0-0.3-0.13-0.3-0.3v-1.1c0-0.16,0.13-0.3,0.3-0.3h8.08
							c0.16,0,0.3,0.13,0.3,0.3v1.1C62.23,56.34,62.09,56.47,61.93,56.47z"/>
					</g>
				</g>
				<g>
					<path fill="#22264D" d="M48.23,42.06h6.6v18.52h-6.6c-2.8,0-5.07-2.27-5.07-5.07v-8.39C43.16,44.33,45.43,42.06,48.23,42.06z"
						/>
				</g>
				<g>
					<path fill="#22264D" d="M3.99,75.63c-0.02-0.33-0.45-8.15,6.13-15.17c6.62-7.06,17.7-10.64,32.93-10.64c0.04,0,0.07,0,0.1,0
						l0,3c-0.03,0-0.07,0-0.1,0c-14.37,0-24.71,3.26-30.74,9.69c-5.7,6.08-5.33,12.86-5.33,12.92L3.99,75.63z"/>
				</g>
			</g>
		</g>
		<g>
			<g>
				<g>
					<path fill="#22264D" d="M70.91,60.59h-6.6V42.06h6.6c2.8,0,5.07,2.27,5.07,5.07v8.39C75.98,58.32,73.71,60.59,70.91,60.59z"/>
				</g>
			</g>
			<g>
				<path fill="#22264D" d="M121.47,75.56c-0.58-3.86-4.32-6.18-5.9-7c-2.01-1.05-4.19-1.72-6.49-2.44
					c-0.97-0.3-1.97-0.61-2.95-0.96c-1.89,0.76-4,1.08-6.13,0.87c-3.93-0.39-7.85-2.54-10.77-5.91c-0.6-0.69-1.15-1.42-1.68-2.12
					c-0.99-1.32-1.93-2.56-3.11-3.48c-2.31-1.8-5.6-2.48-10.09-2.08l-0.27-2.99c5.28-0.48,9.27,0.41,12.21,2.7
					c1.49,1.17,2.59,2.63,3.66,4.04c0.52,0.69,1.02,1.35,1.55,1.97c2.42,2.79,5.63,4.58,8.8,4.89c0.53,0.05,1.06,0.06,1.58,0.03
					c-0.31-0.25-0.61-0.52-0.88-0.82c-2.33-2.54-2.25-6.75,0.17-9c1.28-1.19,3.16-1.83,5.16-1.74c2.78,0.11,5.94,1.93,6.32,5.08
					c0.17,1.41-0.27,2.93-1.26,4.41c-0.53,0.78-1.15,1.48-1.87,2.1c0.16,0.05,0.31,0.1,0.46,0.14c2.32,0.72,4.73,1.47,6.98,2.64
					c4.2,2.18,6.92,5.54,7.48,9.22L121.47,75.56z M105.97,54.52c-1.11,0-2.11,0.34-2.77,0.95c-1.22,1.13-1.22,3.44,0,4.77
					c0.7,0.76,1.72,1.27,2.78,1.68c1.18-0.64,2.2-1.52,2.92-2.58c0.41-0.6,0.87-1.51,0.77-2.37c-0.17-1.43-1.93-2.38-3.47-2.44
					C106.12,54.52,106.05,54.52,105.97,54.52z"/>
			</g>
		</g>
		<g>
			<g>
				<g>
					<path fill="#E96A62" d="M73.05,53.81c-0.66,0-1.31-0.26-1.8-0.77c-0.96-1-0.92-2.58,0.07-3.53l10.26-9.85
						c0.19-0.18,0.19-0.48,0.02-0.66l-7.13-7.67c-0.94-1.01-0.88-2.59,0.13-3.53s2.59-0.88,3.53,0.13l7.13,7.67
						c2.02,2.17,1.93,5.62-0.22,7.68l-10.26,9.85C74.3,53.57,73.68,53.81,73.05,53.81z"/>
					<path fill="#FFFFFF" d="M73.05,54.06c-0.76,0-1.46-0.3-1.99-0.85c-0.51-0.53-0.78-1.23-0.76-1.96
						c0.02-0.73,0.32-1.42,0.85-1.93l10.26-9.85c0.09-0.08,0.09-0.23,0.01-0.31l-7.13-7.67c-0.5-0.54-0.76-1.24-0.74-1.97
						c0.03-0.73,0.34-1.41,0.88-1.91c1.11-1.03,2.85-0.97,3.89,0.14l7.13,7.67c2.12,2.27,2.02,5.88-0.23,8.03l-10.26,9.85
						C74.44,53.78,73.77,54.06,73.05,54.06z M76.3,27.37c-0.55,0-1.1,0.2-1.53,0.6c-0.91,0.85-0.96,2.27-0.12,3.18l7.13,7.67
						c0.27,0.29,0.25,0.74-0.03,1.01L71.5,49.68c-0.43,0.42-0.68,0.98-0.69,1.58s0.21,1.17,0.63,1.6c0.43,0.45,1,0.69,1.62,0.69
						c0.58,0,1.14-0.22,1.56-0.63l10.26-9.85c2.05-1.96,2.14-5.25,0.21-7.33l-7.13-7.67C77.51,27.61,76.91,27.37,76.3,27.37z"/>
				</g>
			</g>
			<g>
				<g>
					<path fill="#E96A62" d="M46.01,53.81c0.66,0,1.31-0.26,1.8-0.77c0.96-1,0.92-2.58-0.07-3.53l-10.26-9.85
						c-0.19-0.18-0.19-0.48-0.02-0.66l7.13-7.67c0.94-1.01,0.88-2.59-0.13-3.53s-2.59-0.88-3.53,0.13l-7.13,7.67
						c-2.02,2.17-1.93,5.62,0.22,7.68l10.26,9.85C44.76,53.57,45.38,53.81,46.01,53.81z"/>
					<path fill="#FFFFFF" d="M46.01,54.06c-0.71,0-1.39-0.27-1.9-0.77l-10.26-9.85c-2.24-2.15-2.34-5.75-0.23-8.03l7.13-7.67
						c0.5-0.54,1.18-0.85,1.91-0.88c0.75-0.02,1.43,0.24,1.97,0.74c0.54,0.5,0.85,1.18,0.88,1.91c0.03,0.73-0.23,1.43-0.74,1.97
						l-7.13,7.67c-0.08,0.09-0.08,0.23,0.01,0.31l10.26,9.85c0.53,0.51,0.83,1.19,0.85,1.93c0.01,0.73-0.26,1.43-0.77,1.96
						C47.47,53.76,46.76,54.06,46.01,54.06z M42.76,27.37c-0.6,0-1.21,0.24-1.65,0.72l-7.13,7.67c-1.93,2.08-1.84,5.36,0.21,7.33
						l10.26,9.85c0.42,0.4,0.97,0.63,1.56,0.63c0.62,0,1.2-0.25,1.62-0.69c0.42-0.43,0.64-1,0.63-1.6c-0.01-0.6-0.26-1.16-0.69-1.58
						L37.3,39.83c-0.28-0.27-0.3-0.73-0.03-1.01l7.13-7.67c0.84-0.91,0.79-2.33-0.12-3.18C43.86,27.57,43.31,27.37,42.76,27.37z"/>
				</g>
			</g>
			<g>
				<g>
					<path fill="#E96A62" d="M77.4,39.94l-22.26-0.03l-5.98-0.01l-7.79-0.01c-0.98-0.01-1.79-0.8-1.78-1.79l0-3.29l0.01-7.52l0-2.57
						c-0.01-0.92,1-1.5,1.79-1.03l2.18,1.25c1.17,0.67,2.62-0.16,2.62-1.5l0.01-7.83c0-1.36-1.45-2.19-2.62-1.51l-2.18,1.24
						c-0.79,0.47-1.8-0.12-1.8-1.03l0.02-7.62c0.01-0.99,0.8-1.79,1.8-1.79l36.03,0.05c0.98,0,1.79,0.8,1.78,1.79L79.2,38.15
						C79.19,39.14,78.4,39.94,77.4,39.94z"/>
				</g>
			</g>
			<g>
				<circle fill="#FFFFFF" cx="59.96" cy="35.8" r="3.73"/>
			</g>
			<g>
				<g>
					<circle fill="#FFFFFF" cx="47.59" cy="31.23" r="1.78"/>
				</g>
				<g>
					<circle fill="#FFFFFF" cx="72.34" cy="31.23" r="1.78"/>
				</g>
			</g>
		</g>
	</g>
</g>
</svg>
