<?xml version="1.0" encoding="utf-8"?>
<!-- Generator: Adobe Illustrator 22.0.0, SVG Export Plug-In . SVG Version: 6.00 Build 0)  -->
<svg version="1.1" id="Capa_1" xmlns="http://www.w3.org/2000/svg" xmlns:xlink="http://www.w3.org/1999/xlink" x="0px" y="0px"
	 viewBox="0 0 129.5 78.47" enable-background="new 0 0 129.5 78.47" xml:space="preserve">
<defs>
	<style>
		.cls-1 {
			fill: #E96A62;
		}
	</style>
</defs>
<g>
	<g>
		<path class="cls-1" d="M79.77,35.55l-0.04,7.32c-0.01,0.98-0.8,1.79-1.8,1.79l-22.26-0.03l-5.98-0.01l-7.79-0.01
			c-0.98-0.01-1.79-0.8-1.78-1.79l0-7.27H79.77z"/>
	</g>
	<g>
		<g>
			<g>
				<g>
					<path fill="#939598" d="M62.45,47.61h-8.08c-0.16,0-0.3-0.13-0.3-0.3l0-1.1c0-0.16,0.13-0.3,0.3-0.3h8.08
						c0.16,0,0.3,0.13,0.3,0.3v1.1C62.75,47.48,62.62,47.61,62.45,47.61z"/>
				</g>
				<g>
					<path fill="#939598" d="M62.45,56.22h-8.08c-0.16,0-0.3-0.13-0.3-0.3l0-1.1c0-0.16,0.13-0.3,0.3-0.3h8.08
						c0.16,0,0.3,0.13,0.3,0.3v1.1C62.75,56.09,62.62,56.22,62.45,56.22z"/>
				</g>
			</g>
			<g>
				<path fill="#22264D" d="M53.75,41.81h6.6v18.52h-6.6c-2.8,0-5.07-2.27-5.07-5.07v-8.39C48.69,44.08,50.95,41.81,53.75,41.81z"/>
			</g>
			<g>
				<path fill="#22264D" d="M7.51,75.38l-2.99-0.2c0.02-0.26,2.14-25.61,42.24-25.61c0.03,0,0.06,0,0.1,0l0,3c-0.03,0-0.06,0-0.1,0
					C9.44,52.57,7.53,75.15,7.51,75.38z"/>
			</g>
		</g>
	</g>
	<g>
		<g>
			<g>
				<path fill="#22264D" d="M66.95,60.34h-6.6V41.81h6.6c2.8,0,5.07,2.27,5.07,5.07v8.39C72.02,58.07,69.75,60.34,66.95,60.34z"/>
			</g>
		</g>
		<g>
			<path fill="#22264D" d="M122,75.31c-0.41-2.68-2.61-5.3-5.9-7c-2.01-1.05-4.19-1.72-6.49-2.44c-0.97-0.3-1.97-0.61-2.95-0.95
				c-1.89,0.76-4,1.08-6.14,0.87c-3.93-0.39-7.85-2.54-10.77-5.91c-0.6-0.69-1.15-1.42-1.68-2.12c-0.99-1.32-1.93-2.56-3.11-3.48
				c-2.3-1.8-5.61-2.48-10.09-2.08l-0.27-2.99c5.28-0.47,9.28,0.41,12.21,2.7c1.49,1.17,2.59,2.63,3.66,4.04
				c0.52,0.69,1.02,1.35,1.55,1.97c2.42,2.79,5.63,4.58,8.8,4.89c0.53,0.05,1.06,0.06,1.58,0.03c-0.31-0.25-0.61-0.52-0.88-0.82
				c-2.33-2.54-2.25-6.75,0.17-9c1.28-1.19,3.16-1.81,5.16-1.74c2.78,0.11,5.94,1.93,6.32,5.08c0.17,1.41-0.27,2.93-1.26,4.41
				c-0.52,0.78-1.15,1.48-1.86,2.1c0.16,0.05,0.31,0.1,0.47,0.15c2.32,0.72,4.72,1.47,6.98,2.64c4.2,2.18,6.92,5.54,7.48,9.22
				L122,75.31z M106.5,54.27c-1.11,0-2.11,0.34-2.77,0.95c-1.22,1.13-1.22,3.44,0,4.77c0.7,0.76,1.72,1.27,2.78,1.68
				c1.19-0.64,2.2-1.52,2.92-2.58c0.41-0.61,0.87-1.51,0.77-2.37c-0.17-1.43-1.93-2.38-3.47-2.44
				C106.65,54.27,106.57,54.27,106.5,54.27z"/>
		</g>
	</g>
	<g>
		<g>
			<path class="cls-1" stroke="#FFFFFF" stroke-width="0.5" stroke-miterlimit="10" d="M73.58,53.55c-0.66,0-1.31-0.26-1.8-0.77
				c-0.96-1-0.92-2.58,0.07-3.53l10.26-9.85c0.19-0.18,0.19-0.48,0.02-0.66L75,31.07c-0.94-1.01-0.88-2.59,0.13-3.53
				s2.59-0.88,3.53,0.13l7.13,7.67c2.02,2.17,1.93,5.62-0.22,7.68l-10.26,9.85C74.83,53.32,74.2,53.55,73.58,53.55z"/>
		</g>
		<g>
			<path class="cls-1" stroke="#FFFFFF" stroke-width="0.5" stroke-miterlimit="10" d="M46.53,53.55c0.66,0,1.31-0.26,1.8-0.77
				c0.96-1,0.92-2.58-0.07-3.53L38,39.4c-0.19-0.18-0.19-0.48-0.02-0.66l7.13-7.67c0.94-1.01,0.88-2.59-0.13-3.53
				s-2.59-0.88-3.53,0.13l-7.13,7.67c-2.02,2.17-1.93,5.62,0.22,7.68l10.26,9.85C45.29,53.32,45.91,53.55,46.53,53.55z"/>
		</g>
		<g>
			<path class="cls-1" d="M77.93,39.69l-22.26-0.03l-5.98-0.01l-7.79-0.01c-0.98-0.01-1.79-0.8-1.78-1.79l0-3.29l0.01-7.52l0-2.57
				c-0.01-0.92,1-1.5,1.79-1.03l2.18,1.25c1.17,0.67,2.62-0.16,2.62-1.5l0.01-7.83c0-1.36-1.45-2.19-2.62-1.51l-2.18,1.24
				c-0.79,0.47-1.8-0.12-1.8-1.03l0.02-7.62c0.01-0.99,0.8-1.79,1.8-1.79l36.03,0.05c0.98,0,1.79,0.8,1.78,1.79L79.73,37.9
				C79.72,38.88,78.92,39.69,77.93,39.69z"/>
		</g>
		<g>
			<circle fill="#FFFFFF" cx="48.11" cy="30.98" r="1.78"/>
			<circle fill="#FFFFFF" cx="72.86" cy="30.98" r="1.78"/>
		</g>
		<path fill="#FFFFFF" d="M52.22,32.65c0,4.12,3.35,7.47,7.5,7.47c4.15,0,7.5-3.35,7.5-7.47H52.22z"/>
	</g>
</g>
</svg>
