<svg xmlns="http://www.w3.org/2000/svg" viewBox="0 0 37.57 37.57"><defs><style>.cls-1{fill:#fa504b;}.cls-2{fill:#fff;}</style></defs><title>undo_v0</title><g id="Capa_2" data-name="Capa 2"><g id="Capa_2-2" data-name="Capa 2"><rect class="cls-1" width="37.57" height="37.57" rx="8.36" ry="8.36" transform="translate(0 37.57) rotate(-90)"/><path class="cls-2" d="M27.5,25.58A10.95,10.95,0,0,0,11.27,11L9.19,8.87A.22.22,0,0,0,8.84,9L7.7,16.45a.19.19,0,0,0,.21.21l7.44-1.14a.22.22,0,0,0,.14-.35L13.41,13.1a7.93,7.93,0,1,1,.87,12.12,1.51,1.51,0,0,0-1.78,2.43A11,11,0,0,0,27.5,25.58Z"/></g></g></svg>