<svg id="Capa_1" data-name="Capa 1" xmlns="http://www.w3.org/2000/svg" viewBox="0 0 50 50">
  <defs>
    <style>
      .toolbox-icon {
        fill: #F2BB64;
      }
    </style>
  </defs>
  <title>iconos_svg</title>
  <g>
    <path class="toolbox-icon" d="M33.26,34.39l-.24.24-.12.1-5.23,5a3.71,3.71,0,0,1-4.79,0l-5.24-5-.12-.1-.24-.24Z"/>
    <path class="toolbox-icon" d="M49.8,2.65V32.76A1.79,1.79,0,0,1,48,34.55H2A1.79,1.79,0,0,1,.19,32.76V22.85a1.18,1.18,0,0,1,1.77-1l2.15,1.23a1.72,1.72,0,0,0,2.58-1.49V13.85a1.71,1.71,0,0,0-2.58-1.49L2,13.6a1.18,1.18,0,0,1-1.77-1V2.65A1.79,1.79,0,0,1,2,.86H48A1.79,1.79,0,0,1,49.8,2.65Z" />
    <circle cx="20.49" cy="18.85" r="2.05" fill="#fff"/>
    <circle cx="44.13" cy="18.85" r="2.05" fill="#fff"/>
    <path d="M25.27,21.44a7,7,0,0,0,14.08,0Z" fill="#fff"/>
    <ellipse cx="25" cy="47.1" rx="24.81" ry="2.05" fill="#d1d2d4"/>
  </g>
</svg>
