<?xml version="1.0" encoding="utf-8" standalone="no"?>
<svg xmlns="http://www.w3.org/2000/svg" version="1.1" width="96px" height="124px">
  <style type="text/css">
    #background {
      fill: none;
    }
    .arrows {
      fill: #000;
      stroke: none;
    }
    .selected>.arrows {
      fill: #fff;
    }
    .checkmark {
      fill: #000;
      font-family: sans-serif;
      font-size: 10pt;
      text-anchor: middle;
    }
    .trash {
      fill: #b2b2b2;
    }
    .zoom {
      fill: none;
      stroke: #b2b2b2;
      stroke-width: 2;
      stroke-linecap: round;
    }
    .zoom>.center {
      fill: #b2b2b2;
      stroke-width: 0;
    }
  </style>
  <rect id="background" width="96" height="124" x="0" y="0" />

  <g>
    <path class="arrows" d="M 13,1.5 13,14.5 1.74,8 z" />
    <path class="arrows" d="M 17.5,3 30.5,3 24,14.26 z" />
    <path class="arrows" d="M 35,1.5 35,14.5 46.26,8 z" />
  </g>
  <g class="selected" transform="translate(0, 16)">
    <path class="arrows" d="M 13,1.5 13,14.5 1.74,8 z" />
    <path class="arrows" d="M 17.5,3 30.5,3 24,14.26 z" />
    <path class="arrows" d="M 35,1.5 35,14.5 46.26,8 z" />
  </g>

  <text class="checkmark" x="55.5" y="28">&#10003;</text>

<!--  <g class="trash">-->
<!--    <path d="M 2,41 v 6 h 42 v -6 h -10.5 l -3,-3 h -15 l -3,3 z" />-->
<!--    <rect width="36" height="20" x="5" y="50" />-->
<!--    <rect width="36" height="42" x="5" y="50" rx="4" ry="4" />-->
<!--  </g>-->

  <g class="trash"  transform="translate(1 32)">
    <path d="M12.48,5.25a2.86,2.86,0,0,1,2.95-2.87H27.57a2.86,2.86,0,0,1,2.95,2.87V8.4H32.7V5.25a5,5,0,0,0-5.13-5H15.43A5,5,0,0,0,10.3,5.25V8.4h2.18Z" />
    <path d="M8.58,55.8H34.42a4.65,4.65,0,0,0,4.43-4.92V17.14H4.15V50.88A4.65,4.65,0,0,0,8.58,55.8ZM28.47,22.36a1.09,1.09,0,1,1,2.18,0V48.18a1.09,1.09,0,0,1-2.18,0Zm-8.06,0a1.09,1.09,0,1,1,2.18,0V48.18a1.09,1.09,0,0,1-2.18,0Zm-8.06,0a1.09,1.09,0,1,1,2.18,0V48.18a1.09,1.09,0,1,1-2.18,0Z" />
    <path d="M3,15H40a2.73,2.73,0,0,0,0-5.46H3A2.73,2.73,0,0,0,3,15Z" />
  </g>

  <!--  <g class="zoom">-->
  <!--    <circle r="11.5" cx="16" cy="108" />-->
  <!--    <circle r="4.3" cx="16" cy="108" class="center" />-->
  <!--    <path d="m 28,108 h3" />-->
  <!--    <path d="m 1,108 h3" />-->
  <!--    <path d="m 16,120 v3" />-->
  <!--    <path d="m 16,93 v3" />-->
  <!--  </g>-->
  <g class="zoom" transform="translate(1 93)">
    <rect x="1" y="1" width="28" height="28" rx="2.75" ry="2.75" stroke="#b2b2b2" stroke-miterlimit="10"/>
    <g>
      <circle cx="15" cy="15" r="8.14" fill="none" stroke="#b2b2b2" stroke-linecap="round" stroke-miterlimit="10" stroke-width="2"/>
      <circle cx="15" cy="15" r="1.89" fill="none" stroke="#b2b2b2" stroke-linecap="round" stroke-miterlimit="10" stroke-width="2"/>
      <line x1="15" y1="4.51" x2="15" y2="6.86" fill="none" stroke="#b2b2b2" stroke-linecap="round" stroke-miterlimit="10" stroke-width="2"/>
      <line x1="15" y1="23.14" x2="15" y2="25.49" fill="none" stroke="#b2b2b2" stroke-linecap="round" stroke-miterlimit="10" stroke-width="2"/>
      <line x1="4.51" y1="15" x2="6.86" y2="15" fill="none" stroke="#b2b2b2" stroke-linecap="round" stroke-miterlimit="10" stroke-width="2"/>
      <line x1="23.14" y1="15" x2="25.49" y2="15" fill="none" stroke="#b2b2b2" stroke-linecap="round" stroke-miterlimit="10" stroke-width="2"/>
    </g>
  </g>

  <!--  <g class="zoom">-->
  <!--    <circle r="15" cx="48" cy="108" />-->
  <!--    <path d="m 48,101.6 v12.8" />-->
  <!--    <path d="m 41.6,108 h12.8" />-->
  <!--  </g>-->

  <g class="zoom" transform="translate(33 93)">
    <rect x="1" y="1" width="28" height="28" rx="2.75" ry="2.75" stroke="#b2b2b2" stroke-miterlimit="10"/>
    <g>
      <line x1="20.29" y1="20.18" x2="24.03" y2="23.93" fill="none" stroke="#b2b2b2" stroke-linecap="round" stroke-miterlimit="10" stroke-width="2"/>
      <g>
        <line x1="14.12" y1="17.68" x2="14.12" y2="10.35" fill="none" stroke="#b2b2b2" stroke-linecap="round" stroke-miterlimit="10" stroke-width="2"/>
        <line x1="10.45" y1="14.01" x2="17.79" y2="14.01" fill="none" stroke="#b2b2b2" stroke-linecap="round" stroke-miterlimit="10" stroke-width="2"/>
      </g>
      <circle cx="14.12" cy="14.01" r="8.15" fill="none" stroke="#b2b2b2" stroke-miterlimit="10" stroke-width="2"/>
    </g>
  </g>

  <!--  <g class="zoom">-->
  <!--    <circle r="15" cx="80" cy="108" />-->
  <!--    <path d="m 73.6,108 h12.8" />-->
  <!--  </g>-->

  <g class="zoom" transform="translate(65 93)">
    <rect x="1" y="1" width="28" height="28" rx="2.75" ry="2.75" stroke="#b2b2b2" stroke-miterlimit="10"/>
    <g>
      <line x1="20.29" y1="20.18" x2="24.03" y2="23.93" fill="none" stroke="#b2b2b2" stroke-linecap="round" stroke-miterlimit="10" stroke-width="2"/>
      <line x1="10.45" y1="14.01" x2="17.79" y2="14.01" fill="none" stroke="#b2b2b2" stroke-linecap="round" stroke-miterlimit="10" stroke-width="2"/>
      <circle cx="14.12" cy="14.01" r="8.15" fill="none" stroke="#b2b2b2" stroke-linecap="round" stroke-miterlimit="10" stroke-width="2"/>
    </g>
  </g>
</svg>
