<svg xmlns="http://www.w3.org/2000/svg" viewBox="0 0 159.9 39.68"><defs><style>.cls-1{fill:#414a4a;}.cls-2{fill:#323634;}.cls-3{fill:#545f61;}.cls-4{fill:#343b3a;}.cls-5{fill:#e3e3e4;}.cls-6{fill:#3d4444;}</style></defs><title>ardunano_v0</title><g id="Capa_2" data-name="Capa 2"><g id="Capa_24" data-name="Capa 24"><path class="cls-1" d="M80,0h78.33a1.55,1.55,0,0,1,1.53,1.34,4.12,4.12,0,0,1,.05.7V37.64a3.06,3.06,0,0,1-.07.8,1.61,1.61,0,0,1-1.37,1.22,6.43,6.43,0,0,1-.76,0H2.19a4.83,4.83,0,0,1-.76,0A1.57,1.57,0,0,1,.07,38.37,3.57,3.57,0,0,1,0,37.51V2.14a3.47,3.47,0,0,1,.09-.91A1.52,1.52,0,0,1,1.45,0C1.72,0,2,0,2.26,0Z"/><rect class="cls-2" x="1.76" y="11.45" width="6.21" height="16.11"/><path class="cls-3" d="M159.08,7.67V32.31a1.84,1.84,0,0,1-1.64,1.95,16.5,16.5,0,0,1-3.51.11c-2.31,0-4.62,0-6.93,0-1.95,0-3.9,0-5.85,0-4.77,0-9.53,0-14.3,0-3.66,0-7.33,0-11,0s-7.33,0-11,0-7.19,0-10.78,0-7.18,0-10.77,0-7.3,0-10.94,0-7.19,0-10.78,0-7.15,0-10.72,0-7.33,0-11,0-7.26,0-10.89,0-7.14,0-10.72,0-7.25,0-10.88,0c-1.08,0-2.17,0-3.25,0a3,3,0,0,0-1.06.18c-.93.32-1.36-.06-1.23-1.06a8.34,8.34,0,0,1-.1-1.73V24.92a5.84,5.84,0,0,0,4.55-5.69,5.83,5.83,0,0,0-4.55-5.68V6.27A2.17,2.17,0,0,1,4.22,3.81q76.1,0,152.21,0c2.21,0,2.9,1.49,2.72,3.3A5.6,5.6,0,0,0,159.08,7.67Z"/><path class="cls-4" d="M1.38,34.4c.08,1,.35,1.14,1.25.78A2.21,2.21,0,0,1,3.48,35H155.74a2.83,2.83,0,0,0,2.47-.94,6.28,6.28,0,0,0,.4-.88c.36,1.86-.41,3.4-2.51,3.45-.74,0-1.48,0-2.22,0-.46,0-.62-.15-.58-.59,0-.2.09-.44-.14-.6-.21.28-.52.23-.8.23h-4.42c-.79,0-.79,0-1.08.76a.41.41,0,0,1-.18.19c-1.18,0-2.36,0-3.54,0-.5,0-.74-.11-.68-.65,0-.18.07-.4-.14-.54-.21.28-.51.23-.79.23H137.1c-.79,0-.78,0-1.08.76a.35.35,0,0,1-.17.19c-1.18,0-2.37,0-3.55,0-.49,0-.74-.11-.67-.65,0-.18.07-.4-.14-.54-.21.28-.52.23-.8.23h-4.42c-.79,0-.79,0-1.08.76a.37.37,0,0,1-.18.19c-1.18,0-2.36,0-3.54,0-.5,0-.74-.11-.68-.65,0-.18.08-.4-.14-.54-.21.28-.51.23-.79.23h-4.42c-.79,0-.79,0-1.08.76a.41.41,0,0,1-.18.19c-1.18,0-2.36,0-3.54,0-.5,0-.75-.11-.68-.65,0-.18.07-.4-.14-.54-.21.28-.51.23-.8.23H104.6c-.79,0-.79,0-1.08.76a.35.35,0,0,1-.17.19c-1.19,0-2.37,0-3.55,0-.5,0-.74-.11-.68-.65,0-.18.08-.4-.13-.54-.21.28-.52.23-.8.23H93.77c-.79,0-.79,0-1.08.76a.41.41,0,0,1-.18.19c-1.18,0-2.36,0-3.54,0-.5,0-.75-.11-.68-.65,0-.18.07-.4-.14-.54-.21.28-.51.23-.79.23H82.93c-.79,0-.79,0-1.08.76a.35.35,0,0,1-.17.19c-1.18,0-2.37,0-3.55,0-.5,0-.74-.11-.67-.65,0-.18.07-.4-.14-.54-.21.28-.52.23-.8.23H72.1c-.79,0-.79,0-1.08.76a.41.41,0,0,1-.18.19c-1.18,0-2.36,0-3.54,0-.5,0-.75-.11-.68-.65,0-.18.07-.4-.14-.54-.21.28-.51.23-.79.23H61.26c-.79,0-.78,0-1.08.76a.35.35,0,0,1-.17.19c-1.18,0-2.37,0-3.55,0-.49,0-.74-.11-.67-.65,0-.18.07-.4-.14-.54-.21.28-.52.23-.8.23H50.43c-.79,0-.79,0-1.08.76a.37.37,0,0,1-.18.19c-1.18,0-2.36,0-3.54,0-.5,0-.74-.11-.68-.65,0-.18.08-.4-.14-.54-.21.28-.51.23-.79.23H39.6c-.79,0-.79,0-1.08.76a.41.41,0,0,1-.18.19c-1.18,0-2.36,0-3.54,0-.5,0-.75-.11-.68-.65,0-.18.07-.4-.14-.54-.21.28-.52.23-.8.23H28.76c-.79,0-.79,0-1.08.76a.35.35,0,0,1-.17.19c-1.19,0-2.37,0-3.55,0-.5,0-.74-.11-.68-.65,0-.18.08-.4-.13-.54-.21.28-.52.23-.8.23H17.93c-.79,0-.79,0-1.08.76a.41.41,0,0,1-.18.19c-1.18,0-2.36,0-3.54,0-.5,0-.75-.11-.68-.65,0-.18.07-.4-.14-.54-.21.28-.51.23-.79.23H7.09c-.79,0-.79,0-1.08.76a.35.35,0,0,1-.17.19,28.81,28.81,0,0,1-3.6-.1c-.74-.12-1-.34-1-1.11A2.09,2.09,0,0,1,1.38,34.4Z"/><path class="cls-5" d="M5.84,36.66c0-.37-.09-.89.11-1.07s.78-.08,1.19-.08c1.72,0,3.45,0,5.17,0a3.5,3.5,0,0,1,0,1.29,1,1,0,0,1-1,.9c-1.49,0-3,0-4.48,0C6.25,37.66,6,37.2,5.84,36.66Z"/><path class="cls-5" d="M16.67,36.66c0-.37-.09-.89.11-1.07s.78-.08,1.19-.08l5.18,0a3.73,3.73,0,0,1,0,1.29,1,1,0,0,1-1,.9c-1.5,0-3,0-4.49,0C17.09,37.66,16.82,37.2,16.67,36.66Z"/><path class="cls-5" d="M27.51,36.66c0-.37-.09-.89.11-1.07s.78-.08,1.19-.08c1.72,0,3.45,0,5.17,0a3.73,3.73,0,0,1,0,1.29,1,1,0,0,1-1,.9c-1.49,0-3,0-4.48,0C27.92,37.66,27.66,37.2,27.51,36.66Z"/><path class="cls-5" d="M38.34,36.66c0-.37-.09-.89.11-1.07s.78-.08,1.19-.08l5.17,0a3.5,3.5,0,0,1,0,1.29,1,1,0,0,1-1,.9c-1.5,0-3,0-4.49,0C38.75,37.66,38.49,37.2,38.34,36.66Z"/><path class="cls-5" d="M49.17,36.66c0-.37-.08-.89.11-1.07s.79-.08,1.2-.08c1.72,0,3.44,0,5.17,0a3.73,3.73,0,0,1,0,1.29,1,1,0,0,1-1,.9c-1.49,0-3,0-4.49,0C49.59,37.66,49.33,37.2,49.17,36.66Z"/><path class="cls-5" d="M60,36.66c0-.37-.09-.89.11-1.07s.78-.08,1.19-.08c1.72,0,3.45,0,5.17,0a3.5,3.5,0,0,1,0,1.29,1,1,0,0,1-1,.9c-1.5,0-3,0-4.49,0C60.42,37.66,60.16,37.2,60,36.66Z"/><path class="cls-5" d="M70.84,36.66c0-.37-.09-.89.11-1.07s.79-.08,1.19-.08l5.18,0a3.73,3.73,0,0,1,0,1.29,1,1,0,0,1-1,.9c-1.5,0-3,0-4.49,0C71.26,37.66,71,37.2,70.84,36.66Z"/><path class="cls-5" d="M81.68,36.66c0-.37-.09-.89.11-1.07s.78-.08,1.19-.08c1.72,0,3.45,0,5.17,0a3.5,3.5,0,0,1,0,1.29,1,1,0,0,1-1,.9c-1.49,0-3,0-4.48,0C82.09,37.66,81.83,37.2,81.68,36.66Z"/><path class="cls-5" d="M92.51,36.66c0-.37-.09-.89.11-1.07s.78-.08,1.19-.08l5.18,0a3.73,3.73,0,0,1,0,1.29,1,1,0,0,1-1,.9c-1.5,0-3,0-4.49,0C92.93,37.66,92.66,37.2,92.51,36.66Z"/><path class="cls-5" d="M103.35,36.66c0-.37-.09-.89.11-1.07s.78-.08,1.19-.08c1.72,0,3.45,0,5.17,0a3.73,3.73,0,0,1,0,1.29,1,1,0,0,1-1,.9c-1.49,0-3,0-4.49,0C103.76,37.66,103.5,37.2,103.35,36.66Z"/><path class="cls-5" d="M114.18,36.66c0-.37-.09-.89.11-1.07s.78-.08,1.19-.08l5.17,0a3.5,3.5,0,0,1,0,1.29,1,1,0,0,1-1,.9c-1.5,0-3,0-4.49,0C114.59,37.66,114.33,37.2,114.18,36.66Z"/><path class="cls-5" d="M125,36.66c0-.37-.08-.89.11-1.07s.79-.08,1.2-.08c1.72,0,3.44,0,5.17,0a3.73,3.73,0,0,1,0,1.29,1,1,0,0,1-1,.9c-1.49,0-3,0-4.49,0C125.43,37.66,125.17,37.2,125,36.66Z"/><path class="cls-5" d="M135.85,36.66c0-.37-.09-.89.11-1.07s.78-.08,1.19-.08c1.72,0,3.45,0,5.17,0a3.5,3.5,0,0,1,0,1.29,1,1,0,0,1-1,.9c-1.5,0-3,0-4.49,0C136.26,37.66,136,37.2,135.85,36.66Z"/><path class="cls-5" d="M146.68,36.66c0-.37-.09-.89.11-1.07s.79-.08,1.19-.08l5.18,0a3.73,3.73,0,0,1,0,1.29,1,1,0,0,1-1,.9c-1.49,0-3,0-4.49,0C147.1,37.66,146.83,37.2,146.68,36.66Z"/><path class="cls-5" d="M9.08,4.1c-.9,0-1.8,0-2.7,0-.44,0-.57-.14-.52-.55,0-.16,0-.32,0-.48A1.1,1.1,0,0,1,7,1.92c1.39,0,2.77,0,4.16,0a1.08,1.08,0,0,1,1.18,1.23c0,1.18.15.93-.91.95C10.67,4.11,9.88,4.1,9.08,4.1Z"/><path class="cls-5" d="M20,4.1c-1,0-1.91,0-2.87,0-.33,0-.45-.11-.42-.44s0-.43,0-.64a1.08,1.08,0,0,1,1.11-1.1q2.16,0,4.32,0A1,1,0,0,1,23.21,3c.07,1.06.07,1.06-1,1.06Z"/><path class="cls-5" d="M30.78,4.1c-.9,0-1.8,0-2.7,0-.47,0-.62-.14-.55-.58,0-.16,0-.32,0-.48a1.07,1.07,0,0,1,1.13-1.12c1.41,0,2.81,0,4.22,0,.77,0,1.14.44,1.16,1.26s0,.92-.9.92Z"/><path class="cls-5" d="M41.6,4.1c-.94,0-1.87,0-2.81,0-.33,0-.47-.09-.43-.43s0-.4,0-.59a1.11,1.11,0,0,1,1.15-1.17c1.41,0,2.81,0,4.22,0a1.09,1.09,0,0,1,1.14,1.22c0,1,0,1-.91,1Z"/><path class="cls-5" d="M52.42,4.1c-.9,0-1.8,0-2.7,0-.44,0-.58-.14-.52-.55,0-.16,0-.32,0-.48a1.1,1.1,0,0,1,1.17-1.16c1.39,0,2.77,0,4.16,0a1.08,1.08,0,0,1,1.18,1.23c0,1.18.14.93-.91.95C54,4.11,53.21,4.1,52.42,4.1Z"/><path class="cls-5" d="M63.31,4.1c-.92,0-1.84,0-2.76,0-.44,0-.57-.14-.52-.55,0-.18,0-.36,0-.54a1.08,1.08,0,0,1,1.11-1.09c1.42,0,2.85,0,4.27,0a1.07,1.07,0,0,1,1.13,1.22c0,1.17.14.93-.92.95C64.86,4.11,64.08,4.1,63.31,4.1Z"/><path class="cls-5" d="M74.09,4.1c-.88,0-1.77,0-2.65,0-.5,0-.64-.15-.57-.6,0-.16,0-.33,0-.49A1.08,1.08,0,0,1,72,1.93q2.13,0,4.26,0a1.07,1.07,0,0,1,1.13,1.22c0,1.17.14.93-.92.95C75.67,4.11,74.88,4.1,74.09,4.1Z"/><path class="cls-5" d="M85,4.1c-.94,0-1.87,0-2.81,0-.38,0-.51-.12-.47-.49,0-.2,0-.4,0-.6a1.08,1.08,0,0,1,1.11-1.09c1.43,0,2.88,0,4.32,0A1.06,1.06,0,0,1,88.22,3c.07,1.06.07,1.06-1,1.06Z"/><path class="cls-5" d="M95.76,4.1c-.89,0-1.77,0-2.65,0-.5,0-.64-.15-.58-.61a3.05,3.05,0,0,0,0-.43,1.08,1.08,0,0,1,1.12-1.14q2.16,0,4.32,0a1,1,0,0,1,1.07,1.12c.07,1,.07,1-1,1Z"/><path class="cls-5" d="M106.65,4.1c-.94,0-1.87,0-2.81,0-.38,0-.52-.12-.47-.49,0-.2,0-.4,0-.59a1.08,1.08,0,0,1,1.1-1.1q2.16,0,4.32,0A1.06,1.06,0,0,1,109.89,3c.06,1.06.06,1.06-1,1.06Z"/><path class="cls-5" d="M117.49,4.1c-1,0-1.91,0-2.87,0-.33,0-.45-.11-.42-.44s0-.43,0-.64a1.08,1.08,0,0,1,1.11-1.1q2.16,0,4.32,0A1.05,1.05,0,0,1,120.72,3c.07,1.06.07,1.06-1,1.06Z"/><path class="cls-5" d="M128.31,4.1c-.9,0-1.8,0-2.7,0-.5,0-.64-.15-.57-.61,0-.15,0-.32,0-.48a1.07,1.07,0,0,1,1.11-1.09q2.13,0,4.26,0c.76,0,1.13.45,1.13,1.28,0,1.08.13.87-.86.89C129.9,4.11,129.1,4.1,128.31,4.1Z"/><path class="cls-5" d="M149.93,4.1c-.9,0-1.8,0-2.7,0-.45,0-.58-.14-.52-.55,0-.18,0-.36,0-.54a1.08,1.08,0,0,1,1.11-1.09c1.43,0,2.85,0,4.27,0a1.06,1.06,0,0,1,1.13,1.22c0,1.18.14.93-.91.95C151.51,4.11,150.72,4.1,149.93,4.1Z"/><path class="cls-5" d="M139.15,4.1c-.93,0-1.87,0-2.81,0-.38,0-.51-.12-.47-.49,0-.2,0-.4,0-.59a1.08,1.08,0,0,1,1.1-1.1c1.44,0,2.89,0,4.33,0A1.06,1.06,0,0,1,142.39,3c.07,1.06.07,1.06-1,1.06Z"/><path class="cls-6" d="M141.27,19.27a4.32,4.32,0,1,1-8.63.07,4.32,4.32,0,1,1,8.63-.07Z"/><path class="cls-6" d="M27.51,19.3a4.32,4.32,0,1,1-8.63,0,4.32,4.32,0,1,1,8.63,0Z"/></g></g></svg>