<svg xmlns="http://www.w3.org/2000/svg" viewBox="0 0 130.46 71.5"><defs><style>.cls-1{fill:#caba9f;}.cls-2{fill:#198a3d;}.cls-3{fill:#2e9f61;}.cls-4{fill:none;stroke:#caba9f;stroke-linecap:round;stroke-miterlimit:10;stroke-width:2px;}.cls-5{fill:#3c3c3b;}.cls-6{fill:#575756;}.cls-7{fill:#f5f5f5;}.cls-8{fill:#d9d9d9;}</style></defs><title>bluetooth_v0</title><g id="Capa_2" data-name="Capa 2"><g id="Capa_24" data-name="Capa 24"><rect class="cls-1" x="69.96" y="15.32" width="14.54" height="10.38" rx="1.5" ry="1.5"/><rect class="cls-2" x="99.17" y="5.65" width="31.29" height="60.36"/><rect class="cls-3" x="5.03" y="4.27" width="98.02" height="63.13"/><path class="cls-4" d="M95.92,59.67h29.42A1.59,1.59,0,0,0,126.86,58V55a1.59,1.59,0,0,0-1.52-1.65h-15a1.6,1.6,0,0,1-1.52-1.66v-2.7a1.59,1.59,0,0,1,1.52-1.66h15a1.59,1.59,0,0,0,1.52-1.66V42.74a1.59,1.59,0,0,0-1.52-1.65H110.52A1.6,1.6,0,0,1,109,39.43V36.75a1.6,1.6,0,0,1,1.52-1.66h14.82a1.59,1.59,0,0,0,1.52-1.65v-3a1.59,1.59,0,0,0-1.52-1.66H110.93a1.59,1.59,0,0,1-1.52-1.66V24.52a1.59,1.59,0,0,1,1.52-1.66h14.41a1.59,1.59,0,0,0,1.52-1.66V19.77a1.66,1.66,0,0,0-1.66-1.66H111a1.66,1.66,0,0,1-1.66-1.66V13.54A1.66,1.66,0,0,1,111,11.88H125.2a1.66,1.66,0,0,0,1.66-1.66V7.17"/><path class="cls-5" d="M17.2,63.38H11.65a2,2,0,0,1-2-2V27.21a2,2,0,0,1,2-2H17.2a2,2,0,0,0-2,2V61.34A2,2,0,0,0,17.2,63.38Z"/><rect class="cls-6" x="15.15" y="25.17" width="22.41" height="38.21" rx="2.04" ry="2.04"/><rect class="cls-6" x="15.15" y="25.17" width="22.41" height="38.21" rx="2.04" ry="2.04"/><path class="cls-5" d="M51.64,63.38H45.29a2,2,0,0,1-2-2V31.18a2,2,0,0,1,2-2h6.35a2,2,0,0,0-2,2V61.34A2,2,0,0,0,51.64,63.38Z"/><path class="cls-6" d="M76.4,31.18V61.34a2,2,0,0,1-2,2H51.64a2,2,0,0,1-2-2V31.18a2,2,0,0,1,2-2H74.36A2,2,0,0,1,76.4,31.18Z"/><path class="cls-6" d="M76.4,31.18V61.34a2,2,0,0,1-2,2H51.64a2,2,0,0,1-2-2V31.18a2,2,0,0,1,2-2H74.36A2,2,0,0,1,76.4,31.18Z"/><rect class="cls-1" x="69.96" y="10.35" width="14.54" height="10.38" rx="1.5" ry="1.5"/><rect class="cls-7" x="72.66" y="9.13" width="1.19" height="2.44" rx="0.26" ry="0.26"/><rect class="cls-7" x="80.87" y="9.13" width="1.19" height="2.44" rx="0.26" ry="0.26"/><rect class="cls-7" x="76.77" y="9.13" width="1.19" height="2.44" rx="0.26" ry="0.26"/><rect class="cls-7" x="72.66" y="20.03" width="1.19" height="2.44" rx="0.26" ry="0.26"/><rect class="cls-7" x="80.87" y="20.03" width="1.19" height="2.44" rx="0.26" ry="0.26"/><rect class="cls-7" x="76.77" y="20.03" width="1.19" height="2.44" rx="0.26" ry="0.26"/><rect class="cls-1" x="86.44" y="37" width="6.59" height="14.54" rx="1.5" ry="1.5"/><rect class="cls-7" x="85.66" y="47.64" width="1.55" height="1.19" rx="0.26" ry="0.26"/><rect class="cls-7" x="85.66" y="39.43" width="1.55" height="1.19" rx="0.26" ry="0.26"/><rect class="cls-7" x="85.66" y="43.54" width="1.55" height="1.19" rx="0.26" ry="0.26"/><rect class="cls-7" x="92.58" y="47.64" width="1.55" height="1.19" rx="0.26" ry="0.26"/><rect class="cls-7" x="92.58" y="39.43" width="1.55" height="1.19" rx="0.26" ry="0.26"/><rect class="cls-7" x="92.58" y="43.54" width="1.55" height="1.19" rx="0.26" ry="0.26"/><rect class="cls-1" x="26.95" y="15.27" width="8.77" height="4.34" rx="1.31" ry="1.31"/><rect class="cls-7" x="33.37" y="19.1" width="0.72" height="1.02" rx="0.22" ry="0.22"/><rect class="cls-7" x="28.41" y="19.1" width="0.72" height="1.02" rx="0.22" ry="0.22"/><rect class="cls-7" x="30.89" y="19.1" width="0.72" height="1.02" rx="0.22" ry="0.22"/><rect class="cls-7" x="33.37" y="14.54" width="0.72" height="1.02" rx="0.22" ry="0.22"/><rect class="cls-7" x="28.41" y="14.54" width="0.72" height="1.02" rx="0.22" ry="0.22"/><rect class="cls-7" x="30.89" y="14.54" width="0.72" height="1.02" rx="0.22" ry="0.22"/><path class="cls-8" d="M92.59,5.22V1.09A1.11,1.11,0,0,1,93.68,0l.8,0a1.06,1.06,0,0,1,1.09,1.1V5.24a1.06,1.06,0,0,1-1.09,1.1h-.77A1.1,1.1,0,0,1,92.59,5.22Z"/><path class="cls-8" d="M88.39,5.24V1.12A1.06,1.06,0,0,1,89.48,0l.8,0a1.12,1.12,0,0,1,1.1,1.09V3.18l0,2.06a1.12,1.12,0,0,1-1.09,1.1h-.83A1.06,1.06,0,0,1,88.39,5.24Z"/><path class="cls-8" d="M84.17,5.24V1.12A1.15,1.15,0,0,1,85.28,0l.8,0a1.07,1.07,0,0,1,1.1,1.1V5.24a1.07,1.07,0,0,1-1.1,1.1h-.82A1.11,1.11,0,0,1,84.17,5.24Z"/><path class="cls-8" d="M80,5.24l0-2.06V1.09A1.12,1.12,0,0,1,81.06,0h.82A1.12,1.12,0,0,1,83,1.09V5.22a1.11,1.11,0,0,1-1.12,1.12h-.78A1.06,1.06,0,0,1,80,5.24Z"/><path class="cls-8" d="M75.77,5.24V1.12A1.1,1.1,0,0,1,76.88,0l.8,0a1.07,1.07,0,0,1,1.1,1.1V5.24a1.12,1.12,0,0,1-1.1,1.1h-.82A1.12,1.12,0,0,1,75.77,5.24Z"/><path class="cls-8" d="M71.57,5.22V1.09A1.12,1.12,0,0,1,72.66,0h.82a1.12,1.12,0,0,1,1.1,1.09V5.22a1.11,1.11,0,0,1-1.12,1.12h-.78A1.1,1.1,0,0,1,71.57,5.22Z"/><path class="cls-8" d="M67.37,5.24V1.12A1.1,1.1,0,0,1,68.48,0h.78a1.11,1.11,0,0,1,1.12,1.12V5.24a1.12,1.12,0,0,1-1.1,1.1h-.82A1.12,1.12,0,0,1,67.37,5.24Z"/><path class="cls-8" d="M59,5.24V1.12A1.06,1.06,0,0,1,60.06,0l.8,0A1.17,1.17,0,0,1,62,1.12V5.24a1.13,1.13,0,0,1-1.09,1.1h-.83A1.12,1.12,0,0,1,59,5.24Z"/><path class="cls-8" d="M54.74,5.24V3.11l0-2A1.11,1.11,0,0,1,55.86,0l.8,0a1.06,1.06,0,0,1,1.09,1.1V5.24a1.06,1.06,0,0,1-1.09,1.1l-.8,0A1.17,1.17,0,0,1,54.74,5.24Z"/><path class="cls-8" d="M63.17,5.22V1.09A1.11,1.11,0,0,1,64.26,0h.82a1.12,1.12,0,0,1,1.1,1.09l0,2.07V5.24a1.06,1.06,0,0,1-1.09,1.1h-.78A1.1,1.1,0,0,1,63.17,5.22Z"/><path class="cls-8" d="M50.54,5.22V1.09A1.12,1.12,0,0,1,51.64,0l.8,0a1.07,1.07,0,0,1,1.09,1.1V5.24a1.06,1.06,0,0,1-1.09,1.1h-.78A1.11,1.11,0,0,1,50.54,5.22Z"/><path class="cls-8" d="M46.34,5.24V1.12A1.07,1.07,0,0,1,47.44,0l.8,0a1.12,1.12,0,0,1,1.09,1.09V3.18l0,2.06a1.12,1.12,0,0,1-1.09,1.1h-.82A1.07,1.07,0,0,1,46.34,5.24Z"/><path class="cls-8" d="M42.12,5.24V1.12A1.16,1.16,0,0,1,43.24,0L44,0a1.07,1.07,0,0,1,1.09,1.1V5.24A1.07,1.07,0,0,1,44,6.34h-.83A1.12,1.12,0,0,1,42.12,5.24Z"/><path class="cls-8" d="M37.94,5.24l0-2.06V1.09A1.12,1.12,0,0,1,39,0h.83a1.12,1.12,0,0,1,1.09,1.09V5.22a1.11,1.11,0,0,1-1.12,1.12H39A1.07,1.07,0,0,1,37.94,5.24Z"/><path class="cls-8" d="M33.72,5.24V1.12A1.11,1.11,0,0,1,34.84,0l.8,0a1.07,1.07,0,0,1,1.09,1.1V5.24a1.12,1.12,0,0,1-1.09,1.1h-.83A1.12,1.12,0,0,1,33.72,5.24Z"/><path class="cls-8" d="M29.52,5.22V1.09A1.12,1.12,0,0,1,30.61,0h.83a1.12,1.12,0,0,1,1.09,1.09V5.22a1.1,1.1,0,0,1-1.12,1.12h-.77A1.11,1.11,0,0,1,29.52,5.22Z"/><path class="cls-8" d="M25.32,5.24V1.12A1.11,1.11,0,0,1,26.44,0h.77a1.1,1.1,0,0,1,1.12,1.12V5.24a1.12,1.12,0,0,1-1.09,1.1h-.83A1.12,1.12,0,0,1,25.32,5.24Z"/><path class="cls-8" d="M16.92,5.24V1.12A1.07,1.07,0,0,1,18,0l.81,0a1.16,1.16,0,0,1,1.11,1.12V5.24a1.12,1.12,0,0,1-1.09,1.1H18A1.12,1.12,0,0,1,16.92,5.24Z"/><path class="cls-8" d="M12.7,5.24V3.11l0-2A1.12,1.12,0,0,1,13.81,0l.81,0a1.07,1.07,0,0,1,1.09,1.1V5.24a1.06,1.06,0,0,1-1.09,1.1l-.81,0A1.16,1.16,0,0,1,12.7,5.24Z"/><path class="cls-8" d="M21.12,5.22V1.09A1.12,1.12,0,0,1,22.21,0H23a1.12,1.12,0,0,1,1.09,1.09l0,2.07V5.24A1.07,1.07,0,0,1,23,6.34h-.77A1.11,1.11,0,0,1,21.12,5.22Z"/><path class="cls-8" d="M92.59,70.36V66.23a1.11,1.11,0,0,1,1.09-1.09l.8,0a1.06,1.06,0,0,1,1.09,1.09v4.13a1.05,1.05,0,0,1-1.09,1.09h-.77A1.09,1.09,0,0,1,92.59,70.36Z"/><path class="cls-8" d="M88.39,70.38V66.25a1.06,1.06,0,0,1,1.09-1.09l.8,0a1.12,1.12,0,0,1,1.1,1.09v2.09l0,2.06a1.11,1.11,0,0,1-1.09,1.09h-.83A1.05,1.05,0,0,1,88.39,70.38Z"/><path class="cls-8" d="M84.17,70.38V66.25a1.15,1.15,0,0,1,1.11-1.11l.8,0a1.06,1.06,0,0,1,1.1,1.09v4.13a1.06,1.06,0,0,1-1.1,1.09h-.82A1.11,1.11,0,0,1,84.17,70.38Z"/><path class="cls-8" d="M80,70.38l0-2.06V66.23a1.12,1.12,0,0,1,1.09-1.09h.82A1.12,1.12,0,0,1,83,66.23v4.13a1.1,1.1,0,0,1-1.12,1.11h-.78A1.06,1.06,0,0,1,80,70.38Z"/><path class="cls-8" d="M75.77,70.38V66.25a1.09,1.09,0,0,1,1.11-1.11l.8,0a1.06,1.06,0,0,1,1.1,1.09v4.13a1.12,1.12,0,0,1-1.1,1.09h-.82A1.11,1.11,0,0,1,75.77,70.38Z"/><path class="cls-8" d="M71.57,70.36V66.23a1.12,1.12,0,0,1,1.09-1.09h.82a1.12,1.12,0,0,1,1.1,1.09v4.13a1.1,1.1,0,0,1-1.12,1.11h-.78A1.09,1.09,0,0,1,71.57,70.36Z"/><path class="cls-8" d="M67.37,70.38V66.25a1.09,1.09,0,0,1,1.11-1.11h.78a1.1,1.1,0,0,1,1.12,1.11v4.13a1.12,1.12,0,0,1-1.1,1.09h-.82A1.12,1.12,0,0,1,67.37,70.38Z"/><path class="cls-8" d="M59,70.38V66.25a1.06,1.06,0,0,1,1.09-1.09l.8,0A1.16,1.16,0,0,1,62,66.25v4.13a1.12,1.12,0,0,1-1.09,1.09h-.83A1.12,1.12,0,0,1,59,70.38Z"/><path class="cls-8" d="M54.74,70.38V68.24l0-2a1.11,1.11,0,0,1,1.09-1.09l.8,0a1.06,1.06,0,0,1,1.09,1.09v4.13a1.05,1.05,0,0,1-1.09,1.09l-.8,0A1.17,1.17,0,0,1,54.74,70.38Z"/><path class="cls-8" d="M63.17,70.36V66.23a1.11,1.11,0,0,1,1.09-1.09h.82a1.12,1.12,0,0,1,1.1,1.09l0,2.06v2.09a1.05,1.05,0,0,1-1.09,1.09h-.78A1.09,1.09,0,0,1,63.17,70.36Z"/><path class="cls-8" d="M50.54,70.36V66.23a1.12,1.12,0,0,1,1.1-1.09l.8,0a1.07,1.07,0,0,1,1.09,1.09v4.13a1.06,1.06,0,0,1-1.09,1.09h-.78A1.1,1.1,0,0,1,50.54,70.36Z"/><path class="cls-8" d="M46.34,70.38V66.25a1.06,1.06,0,0,1,1.1-1.09l.8,0a1.12,1.12,0,0,1,1.09,1.09v2.09l0,2.06a1.11,1.11,0,0,1-1.09,1.09h-.82A1.06,1.06,0,0,1,46.34,70.38Z"/><path class="cls-8" d="M42.12,70.38V66.25a1.16,1.16,0,0,1,1.12-1.11l.8,0a1.06,1.06,0,0,1,1.09,1.09v4.13A1.06,1.06,0,0,1,44,71.47h-.83A1.11,1.11,0,0,1,42.12,70.38Z"/><path class="cls-8" d="M37.94,70.38l0-2.06V66.23A1.12,1.12,0,0,1,39,65.14h.83a1.12,1.12,0,0,1,1.09,1.09v4.13a1.1,1.1,0,0,1-1.12,1.11H39A1.06,1.06,0,0,1,37.94,70.38Z"/><path class="cls-8" d="M33.72,70.38V66.25a1.1,1.1,0,0,1,1.12-1.11l.8,0a1.06,1.06,0,0,1,1.09,1.09v4.13a1.12,1.12,0,0,1-1.09,1.09h-.83A1.11,1.11,0,0,1,33.72,70.38Z"/><path class="cls-8" d="M29.52,70.36V66.23a1.12,1.12,0,0,1,1.09-1.09h.83a1.12,1.12,0,0,1,1.09,1.09v4.13a1.09,1.09,0,0,1-1.12,1.11h-.77A1.1,1.1,0,0,1,29.52,70.36Z"/><path class="cls-8" d="M25.32,70.38V66.25a1.1,1.1,0,0,1,1.12-1.11h.77a1.09,1.09,0,0,1,1.12,1.11v4.13a1.12,1.12,0,0,1-1.09,1.09h-.83A1.12,1.12,0,0,1,25.32,70.38Z"/><path class="cls-8" d="M16.92,70.38V66.25A1.06,1.06,0,0,1,18,65.16l.81,0a1.16,1.16,0,0,1,1.11,1.11v4.13a1.11,1.11,0,0,1-1.09,1.09H18A1.12,1.12,0,0,1,16.92,70.38Z"/><path class="cls-8" d="M12.7,70.38V68.24l0-2a1.12,1.12,0,0,1,1.09-1.09l.81,0a1.07,1.07,0,0,1,1.09,1.09v4.13a1.06,1.06,0,0,1-1.09,1.09l-.81,0A1.16,1.16,0,0,1,12.7,70.38Z"/><path class="cls-8" d="M21.12,70.36V66.23a1.12,1.12,0,0,1,1.09-1.09H23a1.12,1.12,0,0,1,1.09,1.09l0,2.06v2.09A1.06,1.06,0,0,1,23,71.47h-.77A1.1,1.1,0,0,1,21.12,70.36Z"/><path class="cls-8" d="M5.22,17.71H1.09A1.12,1.12,0,0,1,0,16.61l0-.8a1.07,1.07,0,0,1,1.1-1.09H5.24a1.06,1.06,0,0,1,1.1,1.09v.78A1.11,1.11,0,0,1,5.22,17.71Z"/><path class="cls-8" d="M5.24,21.91H1.12A1.07,1.07,0,0,1,0,20.81L0,20a1.12,1.12,0,0,1,1.09-1.09H3.18l2.06,0A1.12,1.12,0,0,1,6.34,20v.82A1.07,1.07,0,0,1,5.24,21.91Z"/><path class="cls-8" d="M5.24,26.13H1.12A1.16,1.16,0,0,1,0,25l0-.8a1.06,1.06,0,0,1,1.1-1.09H5.24a1.06,1.06,0,0,1,1.1,1.09V25A1.13,1.13,0,0,1,5.24,26.13Z"/><path class="cls-8" d="M5.24,30.3l-2.06,0H1.09A1.12,1.12,0,0,1,0,29.24v-.83a1.11,1.11,0,0,1,1.09-1.09H5.22a1.1,1.1,0,0,1,1.12,1.12v.77A1.06,1.06,0,0,1,5.24,30.3Z"/><path class="cls-8" d="M5.24,34.53H1.12A1.11,1.11,0,0,1,0,33.41l0-.8a1.06,1.06,0,0,1,1.1-1.09H5.24a1.12,1.12,0,0,1,1.1,1.09v.83A1.13,1.13,0,0,1,5.24,34.53Z"/><path class="cls-8" d="M5.22,38.73H1.09A1.12,1.12,0,0,1,0,37.64v-.83a1.12,1.12,0,0,1,1.09-1.09H5.22a1.1,1.1,0,0,1,1.12,1.11v.78A1.11,1.11,0,0,1,5.22,38.73Z"/><path class="cls-8" d="M5.24,42.93H1.12A1.11,1.11,0,0,1,0,41.81V41a1.1,1.1,0,0,1,1.12-1.11H5.24A1.12,1.12,0,0,1,6.34,41v.83A1.12,1.12,0,0,1,5.24,42.93Z"/><path class="cls-8" d="M5.24,51.33H1.12A1.07,1.07,0,0,1,0,50.23l0-.8a1.16,1.16,0,0,1,1.12-1.11H5.24a1.12,1.12,0,0,1,1.1,1.09v.82A1.12,1.12,0,0,1,5.24,51.33Z"/><path class="cls-8" d="M5.24,55.55H3.11l-2,0A1.12,1.12,0,0,1,0,54.43l0-.8a1.07,1.07,0,0,1,1.1-1.09H5.24a1.06,1.06,0,0,1,1.1,1.09l0,.8A1.16,1.16,0,0,1,5.24,55.55Z"/><path class="cls-8" d="M5.22,47.13H1.09A1.12,1.12,0,0,1,0,46v-.83a1.12,1.12,0,0,1,1.09-1.09l2.07,0H5.24a1.06,1.06,0,0,1,1.1,1.09V46A1.11,1.11,0,0,1,5.22,47.13Z"/></g></g></svg>