<svg xmlns="http://www.w3.org/2000/svg" viewBox="0 0 118.15 118.11"><defs><style>.cls-1{fill:#1a1a1a;}.cls-2{fill:#333;}</style></defs><title>buzzer_v0</title><g id="Capa_2" data-name="Capa 2"><g id="Capa_31" data-name="Capa 31"><path class="cls-1" d="M0,59a59.12,59.12,0,0,1,56-59h0c1,0,2-.06,3-.06a59.06,59.06,0,1,1,0,118.11c-1,0-2,0-3-.06h0A59.12,59.12,0,0,1,0,59Z"/><path class="cls-2" d="M0,59a59.12,59.12,0,0,1,56-59h0a59.07,59.07,0,0,1,0,118h0A59.12,59.12,0,0,1,0,59Z"/><path class="cls-1" d="M43.94,59.05A15.14,15.14,0,0,1,58.3,44h0l.77,0a15.13,15.13,0,1,1,0,30.25H58.3A15.15,15.15,0,0,1,43.94,59.05Z"/><path class="cls-1" d="M92,65a6.55,6.55,0,1,0-6.56-6.55A6.55,6.55,0,0,0,92,65ZM87.78,57.3h3.08V54.23a.46.46,0,0,1,.45-.47h1.27a.46.46,0,0,1,.46.47V57.3h3.08a.47.47,0,0,1,.46.47V59a.46.46,0,0,1-.46.46H93v3.08a.45.45,0,0,1-.46.46H91.31a.46.46,0,0,1-.45-.47V59.49H87.78a.45.45,0,0,1-.46-.46V57.77A.47.47,0,0,1,87.78,57.3Z"/></g></g></svg>