<svg xmlns="http://www.w3.org/2000/svg" viewBox="0 0 71.88 124.89"><defs><style>.cls-1{fill:#31a1c1;}.cls-2{fill:#ececec;}.cls-3{fill:#2398bf;}.cls-4{fill:#f5f5f5;}.cls-5{fill:#c6c6c5;}.cls-6{fill:#d9d9d9;}.cls-7{fill:#b1b1b1;}</style></defs><title>humedad_v0</title><g id="Capa_2" data-name="Capa 2"><g id="Capa_24" data-name="Capa 24"><path class="cls-1" d="M10.9,51.86v5.8a1.16,1.16,0,0,1-1.16,1.15H8.46V50.7H9.74A1.16,1.16,0,0,1,10.9,51.86Z"/><path class="cls-1" d="M10.9,68.64v5.8a1.16,1.16,0,0,1-1.16,1.15H8.46V67.48H9.74A1.17,1.17,0,0,1,10.9,68.64Z"/><path class="cls-1" d="M26.26,51.86v5.8a1.15,1.15,0,0,1-1.16,1.15H19.3a1.15,1.15,0,0,1-1.14-1.15v-5.8A1.15,1.15,0,0,1,19.3,50.7h5.8A1.15,1.15,0,0,1,26.26,51.86Z"/><path class="cls-1" d="M26.26,68.64v5.8a1.15,1.15,0,0,1-1.16,1.15H19.3a1.15,1.15,0,0,1-1.14-1.15v-5.8a1.16,1.16,0,0,1,1.14-1.16h5.8A1.16,1.16,0,0,1,26.26,68.64Z"/><path class="cls-1" d="M39.19,16.08a8.27,8.27,0,0,1-6.75,0Z"/><path class="cls-1" d="M40.6,51.93v5.8a1.15,1.15,0,0,1-1.14,1.15h-5.8a1.16,1.16,0,0,1-1.17-1.15v-5.8a1.16,1.16,0,0,1,1.17-1.16h5.8A1.14,1.14,0,0,1,40.6,51.93Z"/><path class="cls-1" d="M40.6,68.71v5.8a1.14,1.14,0,0,1-1.14,1.14h-5.8a1.15,1.15,0,0,1-1.17-1.14v-5.8a1.16,1.16,0,0,1,1.17-1.16h5.8A1.14,1.14,0,0,1,40.6,68.71Z"/><path class="cls-1" d="M55,51.93v5.8a1.15,1.15,0,0,1-1.16,1.15H48a1.15,1.15,0,0,1-1.14-1.15v-5.8A1.14,1.14,0,0,1,48,50.77h5.8A1.15,1.15,0,0,1,55,51.93Z"/><path class="cls-1" d="M55,68.71v5.8a1.14,1.14,0,0,1-1.16,1.14H48a1.14,1.14,0,0,1-1.14-1.14v-5.8A1.14,1.14,0,0,1,48,67.55h5.8A1.15,1.15,0,0,1,55,68.71Z"/><path class="cls-1" d="M69.09,51.93v5.8A1.15,1.15,0,0,1,68,58.88h-5.8A1.15,1.15,0,0,1,61,57.73v-5.8a1.15,1.15,0,0,1,1.16-1.16H68A1.14,1.14,0,0,1,69.09,51.93Z"/><path class="cls-1" d="M69.09,68.71v5.8A1.14,1.14,0,0,1,68,75.65h-5.8A1.14,1.14,0,0,1,61,74.51v-5.8a1.15,1.15,0,0,1,1.16-1.16H68A1.14,1.14,0,0,1,69.09,68.71Z"/><path class="cls-2" d="M71.88,103.58v3.21a9,9,0,0,1-9,9H17.44a9,9,0,0,1-9-9v-3.21a8.42,8.42,0,0,0,.26,2.14,9,9,0,0,0,8.72,6.85H62.9A9,9,0,0,0,71.88,103.58Z"/><path class="cls-1" d="M10.9,51.86v5.8a1.16,1.16,0,0,1-1.16,1.15H8.46V50.7H9.74A1.16,1.16,0,0,1,10.9,51.86Z"/><path class="cls-1" d="M10.9,68.64v5.8a1.16,1.16,0,0,1-1.16,1.15H8.46V67.48H9.74A1.17,1.17,0,0,1,10.9,68.64Z"/><path class="cls-1" d="M26.26,51.86v5.8a1.15,1.15,0,0,1-1.16,1.15H19.3a1.15,1.15,0,0,1-1.14-1.15v-5.8A1.15,1.15,0,0,1,19.3,50.7h5.8A1.15,1.15,0,0,1,26.26,51.86Z"/><path class="cls-1" d="M26.26,68.64v5.8a1.15,1.15,0,0,1-1.16,1.15H19.3a1.15,1.15,0,0,1-1.14-1.15v-5.8a1.16,1.16,0,0,1,1.14-1.16h5.8A1.16,1.16,0,0,1,26.26,68.64Z"/><path class="cls-1" d="M39.19,16.08a8.27,8.27,0,0,1-6.75,0Z"/><path class="cls-1" d="M40.6,51.93v5.8a1.15,1.15,0,0,1-1.14,1.15h-5.8a1.16,1.16,0,0,1-1.17-1.15v-5.8a1.16,1.16,0,0,1,1.17-1.16h5.8A1.14,1.14,0,0,1,40.6,51.93Z"/><path class="cls-1" d="M40.6,68.71v5.8a1.14,1.14,0,0,1-1.14,1.14h-5.8a1.15,1.15,0,0,1-1.17-1.14v-5.8a1.16,1.16,0,0,1,1.17-1.16h5.8A1.14,1.14,0,0,1,40.6,68.71Z"/><path class="cls-1" d="M55,51.93v5.8a1.15,1.15,0,0,1-1.16,1.15H48a1.15,1.15,0,0,1-1.14-1.15v-5.8A1.14,1.14,0,0,1,48,50.77h5.8A1.15,1.15,0,0,1,55,51.93Z"/><path class="cls-1" d="M55,68.71v5.8a1.14,1.14,0,0,1-1.16,1.14H48a1.14,1.14,0,0,1-1.14-1.14v-5.8A1.14,1.14,0,0,1,48,67.55h5.8A1.15,1.15,0,0,1,55,68.71Z"/><path class="cls-1" d="M69.09,51.93v5.8A1.15,1.15,0,0,1,68,58.88h-5.8A1.15,1.15,0,0,1,61,57.73v-5.8a1.15,1.15,0,0,1,1.16-1.16H68A1.14,1.14,0,0,1,69.09,51.93Z"/><path class="cls-1" d="M69.09,68.71v5.8A1.14,1.14,0,0,1,68,75.65h-5.8A1.14,1.14,0,0,1,61,74.51v-5.8a1.15,1.15,0,0,1,1.16-1.16H68A1.14,1.14,0,0,1,69.09,68.71Z"/><path class="cls-2" d="M17.44,115.77H9a9,9,0,0,1-9-9V25.05a9,9,0,0,1,9-9h8.45a9,9,0,0,0-9,9v81.74A9,9,0,0,0,17.44,115.77Z"/><path class="cls-3" d="M10.9,51.86v5.8a1.16,1.16,0,0,1-1.16,1.15H8.46V50.7H9.74A1.16,1.16,0,0,1,10.9,51.86Z"/><path class="cls-3" d="M10.9,68.64v5.8a1.16,1.16,0,0,1-1.16,1.15H8.46V67.48H9.74A1.17,1.17,0,0,1,10.9,68.64Z"/><path class="cls-3" d="M26.26,51.86v5.8a1.15,1.15,0,0,1-1.16,1.15H19.3a1.15,1.15,0,0,1-1.14-1.15v-5.8A1.15,1.15,0,0,1,19.3,50.7h5.8A1.15,1.15,0,0,1,26.26,51.86Z"/><path class="cls-3" d="M26.26,68.64v5.8a1.15,1.15,0,0,1-1.16,1.15H19.3a1.15,1.15,0,0,1-1.14-1.15v-5.8a1.16,1.16,0,0,1,1.14-1.16h5.8A1.16,1.16,0,0,1,26.26,68.64Z"/><path class="cls-3" d="M39.19,16.08a8.27,8.27,0,0,1-6.75,0Z"/><path class="cls-3" d="M40.6,51.93v5.8a1.15,1.15,0,0,1-1.14,1.15h-5.8a1.16,1.16,0,0,1-1.17-1.15v-5.8a1.16,1.16,0,0,1,1.17-1.16h5.8A1.14,1.14,0,0,1,40.6,51.93Z"/><path class="cls-3" d="M40.6,68.71v5.8a1.14,1.14,0,0,1-1.14,1.14h-5.8a1.15,1.15,0,0,1-1.17-1.14v-5.8a1.16,1.16,0,0,1,1.17-1.16h5.8A1.14,1.14,0,0,1,40.6,68.71Z"/><path class="cls-3" d="M55,51.93v5.8a1.15,1.15,0,0,1-1.16,1.15H48a1.15,1.15,0,0,1-1.14-1.15v-5.8A1.14,1.14,0,0,1,48,50.77h5.8A1.15,1.15,0,0,1,55,51.93Z"/><path class="cls-3" d="M55,68.71v5.8a1.14,1.14,0,0,1-1.16,1.14H48a1.14,1.14,0,0,1-1.14-1.14v-5.8A1.14,1.14,0,0,1,48,67.55h5.8A1.15,1.15,0,0,1,55,68.71Z"/><path class="cls-3" d="M69.09,51.93v5.8A1.15,1.15,0,0,1,68,58.88h-5.8A1.15,1.15,0,0,1,61,57.73v-5.8a1.15,1.15,0,0,1,1.16-1.16H68A1.14,1.14,0,0,1,69.09,51.93Z"/><path class="cls-3" d="M69.09,68.71v5.8A1.14,1.14,0,0,1,68,75.65h-5.8A1.14,1.14,0,0,1,61,74.51v-5.8a1.15,1.15,0,0,1,1.16-1.16H68A1.14,1.14,0,0,1,69.09,68.71Z"/><path class="cls-4" d="M42.5,3.32a8.38,8.38,0,0,0-13.36,0l-.07.09A8,8,0,0,0,28,5.3a8.49,8.49,0,0,0-.58,3.09,8.36,8.36,0,0,0,5,7.69,8.27,8.27,0,0,0,6.75,0A8.39,8.39,0,0,0,42.5,3.32ZM35.82,13.47A5.08,5.08,0,1,1,40.9,8.39,5.08,5.08,0,0,1,35.82,13.47Z"/><path class="cls-4" d="M68,35h-5.8A1.16,1.16,0,0,0,61,36.12v5.79a1.15,1.15,0,0,0,1.16,1.15H68a1.14,1.14,0,0,0,1.14-1.15V36.12A1.15,1.15,0,0,0,68,35ZM53.79,29H48a1.18,1.18,0,0,1-1.13-.93,1.16,1.16,0,0,0,1.13,1h5.8a1.15,1.15,0,0,0,1.15-1A1.18,1.18,0,0,1,53.79,29Zm0,14H48a1.18,1.18,0,0,1-1.13-.93,1.16,1.16,0,0,0,1.13,1h5.8a1.16,1.16,0,0,0,1.15-1A1.18,1.18,0,0,1,53.79,43ZM39.46,29h-5.8a1.18,1.18,0,0,1-1.15-.93,1.15,1.15,0,0,0,1.15,1h5.8a1.14,1.14,0,0,0,1.12-1A1.16,1.16,0,0,1,39.46,29Zm0,14h-5.8a1.18,1.18,0,0,1-1.15-.93,1.16,1.16,0,0,0,1.15,1h5.8a1.14,1.14,0,0,0,1.12-1A1.16,1.16,0,0,1,39.46,43Zm-12-34.64A8.49,8.49,0,0,1,28,5.3a8,8,0,0,1,1.06-1.89L18.84,16.08h13.6A8.36,8.36,0,0,1,27.43,8.39ZM19.3,20.88a1.1,1.1,0,0,0-.94.52,1.17,1.17,0,0,1,.94-.48h5.8a1.21,1.21,0,0,1,1,.48,1.14,1.14,0,0,0-1-.52Zm0,14a1.12,1.12,0,0,0-.94.51,1.2,1.2,0,0,1,.94-.48h5.8a1.24,1.24,0,0,1,1,.48,1.16,1.16,0,0,0-1-.51Zm-9.56,0H8.46V43H9.74a1.15,1.15,0,0,0,1.16-1.14v-5.8A1.15,1.15,0,0,0,9.74,34.89Z"/><path class="cls-4" d="M62.9,16.08H61.4L48.64.27,35.82,0c1.08,1.41,8.39,6.5,8.39,8.39a8.36,8.36,0,0,1-5,7.69,8.27,8.27,0,0,1-6.75,0h-15a9,9,0,0,0-9,9v9.84H9.74a1.15,1.15,0,0,1,1.16,1.16v5.8A1.15,1.15,0,0,1,9.74,43H8.46V50.7H9.74a1.16,1.16,0,0,1,1.16,1.16v5.8a1.16,1.16,0,0,1-1.16,1.15H8.46v8.67H9.74a1.17,1.17,0,0,1,1.16,1.16v5.8a1.16,1.16,0,0,1-1.16,1.15H8.46v28a8.42,8.42,0,0,0,.26,2.14,9,9,0,0,0,8.72,6.85H62.9a9,9,0,0,0,9-9V25.05A9,9,0,0,0,62.9,16.08ZM26.26,90.37a1.15,1.15,0,0,1-1.16,1.15H19.3a1.15,1.15,0,0,1-1.14-1.15V84.56a1.15,1.15,0,0,1,1.14-1.15h5.8a1.15,1.15,0,0,1,1.16,1.15Zm0-15.93a1.15,1.15,0,0,1-1.16,1.15H19.3a1.15,1.15,0,0,1-1.14-1.15v-5.8a1.16,1.16,0,0,1,1.14-1.16h5.8a1.16,1.16,0,0,1,1.16,1.16Zm0-16.78a1.15,1.15,0,0,1-1.16,1.15H19.3a1.15,1.15,0,0,1-1.14-1.15v-5.8A1.15,1.15,0,0,1,19.3,50.7h5.8a1.15,1.15,0,0,1,1.16,1.16Zm0-15.8a1.08,1.08,0,0,1-.19.65,1.14,1.14,0,0,1-1,.52H19.3a1.1,1.1,0,0,1-.94-.52,1,1,0,0,1-.2-.65V36.07a1.28,1.28,0,0,1,.2-.67,1.12,1.12,0,0,1,.94-.51h5.8a1.16,1.16,0,0,1,1,.51,1.38,1.38,0,0,1,.19.67Zm0-14a1.11,1.11,0,0,1-.19.65,1.16,1.16,0,0,1-1,.51H19.3a1.12,1.12,0,0,1-.94-.51,1,1,0,0,1-.2-.65v-5.8a1.25,1.25,0,0,1,.2-.66,1.1,1.1,0,0,1,.94-.52h5.8a1.14,1.14,0,0,1,1,.52,1.34,1.34,0,0,1,.19.66ZM40.6,90.37a1.15,1.15,0,0,1-1.14,1.15h-5.8a1.16,1.16,0,0,1-1.17-1.15V84.56a1.16,1.16,0,0,1,1.17-1.15h5.8a1.15,1.15,0,0,1,1.14,1.15Zm0-15.86a1.14,1.14,0,0,1-1.14,1.14h-5.8a1.15,1.15,0,0,1-1.17-1.14v-5.8a1.16,1.16,0,0,1,1.17-1.16h5.8a1.14,1.14,0,0,1,1.14,1.16Zm0-16.78a1.15,1.15,0,0,1-1.14,1.15h-5.8a1.16,1.16,0,0,1-1.17-1.15v-5.8a1.16,1.16,0,0,1,1.17-1.16h5.8a1.14,1.14,0,0,1,1.14,1.16Zm0-15.87a.9.9,0,0,1,0,.24,1.14,1.14,0,0,1-1.12,1h-5.8a1.16,1.16,0,0,1-1.15-1,.9.9,0,0,1,0-.24V36.07a.62.62,0,0,1,0-.19,1.16,1.16,0,0,1,1.15-1h5.8a1.14,1.14,0,0,1,1.12,1,.62.62,0,0,1,0,.19Zm0-14a.82.82,0,0,1,0,.23,1.14,1.14,0,0,1-1.12,1h-5.8a1.15,1.15,0,0,1-1.15-1,.82.82,0,0,1,0-.23v-5.8a.58.58,0,0,1,0-.18,1.15,1.15,0,0,1,1.15-1h5.8a1.13,1.13,0,0,1,1.12,1,.58.58,0,0,1,0,.18ZM55,90.37a1.15,1.15,0,0,1-1.16,1.15H48a1.15,1.15,0,0,1-1.14-1.15V84.56A1.15,1.15,0,0,1,48,83.41h5.8A1.15,1.15,0,0,1,55,84.56Zm0-15.86a1.14,1.14,0,0,1-1.16,1.14H48a1.14,1.14,0,0,1-1.14-1.14v-5.8A1.14,1.14,0,0,1,48,67.55h5.8A1.15,1.15,0,0,1,55,68.71Zm0-16.78a1.15,1.15,0,0,1-1.16,1.15H48a1.15,1.15,0,0,1-1.14-1.15v-5.8A1.14,1.14,0,0,1,48,50.77h5.8A1.15,1.15,0,0,1,55,51.93Zm0-15.87a1.77,1.77,0,0,1,0,.24,1.16,1.16,0,0,1-1.15,1H48a1.16,1.16,0,0,1-1.13-1,1.77,1.77,0,0,1,0-.24V36.07a1.21,1.21,0,0,1,0-.19,1.16,1.16,0,0,1,1.13-1h5.8a1.16,1.16,0,0,1,1.15,1,1.21,1.21,0,0,1,0,.19Zm0-14a1.62,1.62,0,0,1,0,.23,1.15,1.15,0,0,1-1.15,1H48a1.16,1.16,0,0,1-1.13-1,1.62,1.62,0,0,1,0-.23v-5.8A1.11,1.11,0,0,1,48,20.92h5.8A1.11,1.11,0,0,1,55,22.06ZM69.09,74.51A1.14,1.14,0,0,1,68,75.65h-5.8A1.14,1.14,0,0,1,61,74.51v-5.8a1.15,1.15,0,0,1,1.16-1.16H68a1.14,1.14,0,0,1,1.14,1.16Zm0-16.78A1.15,1.15,0,0,1,68,58.88h-5.8A1.15,1.15,0,0,1,61,57.73v-5.8a1.15,1.15,0,0,1,1.16-1.16H68a1.14,1.14,0,0,1,1.14,1.16Zm0-15.82A1.14,1.14,0,0,1,68,43.06h-5.8A1.15,1.15,0,0,1,61,41.91V36.12A1.16,1.16,0,0,1,62.15,35H68a1.15,1.15,0,0,1,1.14,1.17Z"/><path class="cls-4" d="M27.49,8.39c0-1.89,7.25-7,8.33-8.39H23.67L8.8,16.08H32.51A8.36,8.36,0,0,1,27.49,8.39Zm4.95,7.69h2.75m-26.39,0h8.64"/><path class="cls-5" d="M28.6,8.41a7.18,7.18,0,0,0,6.19,7.11,5,5,0,0,0,1,.09,7.21,7.21,0,0,0,0-14.42,5,5,0,0,0-1,.09A7.18,7.18,0,0,0,28.6,8.41Z"/><path class="cls-6" d="M28.6,8.41a7.18,7.18,0,0,0,6.19,7.11,7.19,7.19,0,0,0,0-14.24A7.18,7.18,0,0,0,28.6,8.41Z"/><rect class="cls-7" x="34.79" y="2.53" width="2.04" height="11.74" rx="0.24" ry="0.24"/><rect class="cls-7" x="29.94" y="7.32" width="11.74" height="2.15" rx="0.24" ry="0.24"/><path class="cls-2" d="M17.44,115.77h3.5a0,0,0,0,1,0,0v8.44a.68.68,0,0,1-.68.68H18.11a.68.68,0,0,1-.68-.68v-8.44A0,0,0,0,1,17.44,115.77Z"/><path class="cls-2" d="M52.85,115.77H55a.68.68,0,0,1,.68.68v8.44a0,0,0,0,1,0,0h-3.5a0,0,0,0,1,0,0v-8.44a.68.68,0,0,1,.68-.68Z" transform="translate(107.85 240.67) rotate(-180)"/><path class="cls-2" d="M29,115.77h3.5a0,0,0,0,1,0,0v8.44a.68.68,0,0,1-.68.68H29.69a.68.68,0,0,1-.68-.68v-8.44A0,0,0,0,1,29,115.77Z"/><path class="cls-2" d="M40.6,115.77h3.5a0,0,0,0,1,0,0v8.44a.68.68,0,0,1-.68.68H41.27a.68.68,0,0,1-.68-.68v-8.44A0,0,0,0,1,40.6,115.77Z"/><path class="cls-7" d="M26.26,51.86v5.8a1.15,1.15,0,0,1-1.16,1.15H19.3a1.15,1.15,0,0,1-1.14-1.15v-5.8A1.15,1.15,0,0,1,19.3,50.7h5.8A1.15,1.15,0,0,1,26.26,51.86Z"/><path class="cls-7" d="M40.6,51.93v5.8a1.15,1.15,0,0,1-1.14,1.15h-5.8a1.16,1.16,0,0,1-1.17-1.15v-5.8a1.16,1.16,0,0,1,1.17-1.16h5.8A1.14,1.14,0,0,1,40.6,51.93Z"/><path class="cls-7" d="M55,51.93v5.8a1.15,1.15,0,0,1-1.16,1.15H48a1.15,1.15,0,0,1-1.14-1.15v-5.8A1.14,1.14,0,0,1,48,50.77h5.8A1.15,1.15,0,0,1,55,51.93Z"/><path class="cls-7" d="M26.26,68.64v5.8a1.15,1.15,0,0,1-1.16,1.15H19.3a1.15,1.15,0,0,1-1.14-1.15v-5.8a1.16,1.16,0,0,1,1.14-1.16h5.8A1.16,1.16,0,0,1,26.26,68.64Z"/><path class="cls-7" d="M40.6,68.71v5.8a1.14,1.14,0,0,1-1.14,1.14h-5.8a1.15,1.15,0,0,1-1.17-1.14v-5.8a1.16,1.16,0,0,1,1.17-1.16h5.8A1.14,1.14,0,0,1,40.6,68.71Z"/><path class="cls-7" d="M55,68.71v5.8a1.14,1.14,0,0,1-1.16,1.14H48a1.14,1.14,0,0,1-1.14-1.14v-5.8A1.14,1.14,0,0,1,48,67.55h5.8A1.15,1.15,0,0,1,55,68.71Z"/><path class="cls-7" d="M10.9,51.86v5.8a1.16,1.16,0,0,1-1.16,1.15H3.94a1.16,1.16,0,0,1-1.15-1.15v-5.8A1.16,1.16,0,0,1,3.94,50.7h5.8A1.16,1.16,0,0,1,10.9,51.86Z"/><path class="cls-7" d="M10.9,68.64v5.8a1.16,1.16,0,0,1-1.16,1.15H3.94a1.16,1.16,0,0,1-1.15-1.15v-5.8a1.17,1.17,0,0,1,1.15-1.16h5.8A1.17,1.17,0,0,1,10.9,68.64Z"/><path class="cls-7" d="M69.09,51.93v5.8A1.15,1.15,0,0,1,68,58.88h-5.8A1.15,1.15,0,0,1,61,57.73v-5.8a1.15,1.15,0,0,1,1.16-1.16H68A1.14,1.14,0,0,1,69.09,51.93Z"/><path class="cls-7" d="M26.26,36.07v5.79a1.08,1.08,0,0,1-.19.65,1.24,1.24,0,0,1-1,.48H19.3a1.2,1.2,0,0,1-.94-.48,1,1,0,0,1-.2-.65V36.07a1.28,1.28,0,0,1,.2-.67,1.12,1.12,0,0,1,.94-.51h5.8a1.16,1.16,0,0,1,1,.51A1.38,1.38,0,0,1,26.26,36.07Z"/><path class="cls-7" d="M40.6,36.07v5.79a.9.9,0,0,1,0,.24,1.14,1.14,0,0,1-1.12,1h-5.8a1.16,1.16,0,0,1-1.15-1,.9.9,0,0,1,0-.24V36.07a.62.62,0,0,1,0-.19A1.18,1.18,0,0,1,33.66,35h5.8a1.16,1.16,0,0,1,1.12.93A.62.62,0,0,1,40.6,36.07Z"/><path class="cls-7" d="M55,36.07v5.79a1.77,1.77,0,0,1,0,.24,1.16,1.16,0,0,1-1.15,1H48a1.16,1.16,0,0,1-1.13-1,1.77,1.77,0,0,1,0-.24V36.07a1.21,1.21,0,0,1,0-.19A1.18,1.18,0,0,1,48,35h5.8a1.18,1.18,0,0,1,1.15.93A1.21,1.21,0,0,1,55,36.07Z"/><path class="cls-7" d="M10.9,36.05v5.8A1.15,1.15,0,0,1,9.74,43H3.94a1.15,1.15,0,0,1-1.15-1.14v-5.8a1.15,1.15,0,0,1,1.15-1.16h5.8A1.15,1.15,0,0,1,10.9,36.05Z"/><path class="cls-7" d="M69.09,36.12v5.79A1.14,1.14,0,0,1,68,43.06h-5.8A1.15,1.15,0,0,1,61,41.91V36.12A1.16,1.16,0,0,1,62.15,35H68A1.15,1.15,0,0,1,69.09,36.12Z"/><path class="cls-7" d="M26.26,22.06v5.8a1.11,1.11,0,0,1-.19.65,1.24,1.24,0,0,1-1,.48H19.3a1.2,1.2,0,0,1-.94-.48,1,1,0,0,1-.2-.65v-5.8a1.25,1.25,0,0,1,.2-.66,1.1,1.1,0,0,1,.94-.52h5.8a1.14,1.14,0,0,1,1,.52A1.34,1.34,0,0,1,26.26,22.06Z"/><path class="cls-7" d="M40.6,22.06v5.8a.82.82,0,0,1,0,.23,1.14,1.14,0,0,1-1.12,1h-5.8a1.15,1.15,0,0,1-1.15-1,.82.82,0,0,1,0-.23v-5.8a.58.58,0,0,1,0-.18A1.18,1.18,0,0,1,33.66,21h5.8a1.16,1.16,0,0,1,1.12.93A.58.58,0,0,1,40.6,22.06Z"/><path class="cls-7" d="M55,22.06v5.8a1.62,1.62,0,0,1,0,.23,1.15,1.15,0,0,1-1.15,1H48a1.16,1.16,0,0,1-1.13-1,1.62,1.62,0,0,1,0-.23v-5.8a1.15,1.15,0,0,1,0-.18A1.18,1.18,0,0,1,48,21h5.8a1.18,1.18,0,0,1,1.15.93A1.15,1.15,0,0,1,55,22.06Z"/><path class="cls-7" d="M69.09,68.71v5.8A1.14,1.14,0,0,1,68,75.65h-5.8A1.14,1.14,0,0,1,61,74.51v-5.8a1.15,1.15,0,0,1,1.16-1.16H68A1.14,1.14,0,0,1,69.09,68.71Z"/><path class="cls-7" d="M26.26,84.32v5.8a1.14,1.14,0,0,1-1.16,1.14H19.3a1.14,1.14,0,0,1-1.14-1.14v-5.8a1.16,1.16,0,0,1,1.14-1.16h5.8A1.16,1.16,0,0,1,26.26,84.32Z"/><path class="cls-7" d="M40.6,84.39v5.79a1.15,1.15,0,0,1-1.14,1.15h-5.8a1.16,1.16,0,0,1-1.17-1.15V84.39a1.17,1.17,0,0,1,1.17-1.17h5.8A1.15,1.15,0,0,1,40.6,84.39Z"/><path class="cls-7" d="M55,84.39v5.79a1.15,1.15,0,0,1-1.16,1.15H48a1.15,1.15,0,0,1-1.14-1.15V84.39A1.15,1.15,0,0,1,48,83.22h5.8A1.16,1.16,0,0,1,55,84.39Z"/><path class="cls-7" d="M10.9,84.32v5.8a1.15,1.15,0,0,1-1.16,1.14H3.94a1.15,1.15,0,0,1-1.15-1.14v-5.8a1.17,1.17,0,0,1,1.15-1.16h5.8A1.17,1.17,0,0,1,10.9,84.32Z"/><path class="cls-7" d="M69.09,84.39v5.79A1.15,1.15,0,0,1,68,91.33h-5.8A1.15,1.15,0,0,1,61,90.18V84.39a1.16,1.16,0,0,1,1.16-1.17H68A1.15,1.15,0,0,1,69.09,84.39Z"/></g></g></svg>