<svg xmlns="http://www.w3.org/2000/svg" viewBox="0 0 67.1 75.04"><defs><style>.cls-1{fill:none;stroke:#fdfdfd;stroke-linecap:round;stroke-miterlimit:10;stroke-width:0.5px;}.cls-2{fill:#878787;}.cls-3{fill:#b3b3b3;}.cls-4{fill:#dcdbd4;}</style></defs><title>ldr_v0_1</title><g id="Capa_2" data-name="Capa 2"><g id="Capa_31" data-name="Capa 31"><path class="cls-1" d="M12,57.75a14,14,0,0,0,7.59,5"/><path class="cls-2" d="M0,14.45V60.64a37.52,37.52,0,0,0,66.72-18,31.61,31.61,0,0,0,.38-5.07A37.51,37.51,0,0,0,0,14.45Zm28,5.39A1.84,1.84,0,0,1,29.87,18h1.65a1.8,1.8,0,0,1,1.82,1.81v13.5a1.83,1.83,0,0,1-1.82,1.81H29.87A1.88,1.88,0,0,1,28,33.34Zm1.87,37.23A1.88,1.88,0,0,1,28,55.26V41.76A1.84,1.84,0,0,1,29.87,40h1.65a1.8,1.8,0,0,1,1.82,1.81v13.5a1.83,1.83,0,0,1-1.82,1.81Z"/><path class="cls-2" d="M4.16,20.11A33,33,0,0,0,0,24.59V60.64a37.52,37.52,0,0,0,66.72-18A36.69,36.69,0,0,0,61.5,28,37.28,37.28,0,0,0,29.6,10.08,36.74,36.74,0,0,0,4.16,20.11Zm27.36,37H29.87A1.88,1.88,0,0,1,28,55.26V41.76A1.84,1.84,0,0,1,29.87,40h1.65a1.8,1.8,0,0,1,1.82,1.81v13.5A1.83,1.83,0,0,1,31.52,57.07Zm0-21.92H29.87A1.88,1.88,0,0,1,28,33.34V19.84A1.84,1.84,0,0,1,29.87,18h1.65a1.8,1.8,0,0,1,1.82,1.81v13.5A1.83,1.83,0,0,1,31.52,35.15Z"/><path class="cls-3" d="M4.16,17.33V57.76A32.86,32.86,0,0,0,62.62,42a30.9,30.9,0,0,0,.32-4.43A31.6,31.6,0,0,0,61.5,28,32.86,32.86,0,0,0,4.16,17.33ZM29.87,35.15A1.88,1.88,0,0,1,28,33.34V19.84A1.84,1.84,0,0,1,29.87,18h1.65a1.8,1.8,0,0,1,1.82,1.81v13.5a1.83,1.83,0,0,1-1.82,1.81Zm3.47,20.11a1.83,1.83,0,0,1-1.82,1.81H29.87A1.88,1.88,0,0,1,28,55.26V41.76A1.84,1.84,0,0,1,29.87,40h1.65a1.8,1.8,0,0,1,1.82,1.81Z"/><path class="cls-4" d="M62.63,42A32.85,32.85,0,0,1,4.18,57.78V26.21A32.82,32.82,0,0,1,62.63,42Z"/><path class="cls-3" d="M11.15,38.35V36.7A1.8,1.8,0,0,1,13,34.88H26.45a1.84,1.84,0,0,1,1.82,1.82v1.65a1.89,1.89,0,0,1-1.82,1.87H13A1.85,1.85,0,0,1,11.15,38.35Z"/><path class="cls-3" d="M33.07,38.35V36.7a1.8,1.8,0,0,1,1.81-1.82h13.5a1.83,1.83,0,0,1,1.81,1.82v1.65a1.88,1.88,0,0,1-1.81,1.87H34.88A1.85,1.85,0,0,1,33.07,38.35Z"/></g></g></svg>