<svg xmlns="http://www.w3.org/2000/svg" viewBox="0 0 43.88 154.4"><defs><style>.cls-1{fill:#f9f9f9;stroke:#b3b3b3;stroke-miterlimit:10;stroke-width:0.5px;}.cls-2{fill:#f7140d;}.cls-3{fill:#756b67;}.cls-4{fill:#ccc7c0;}</style></defs><title>led2_v0</title><g id="Capa_2" data-name="Capa 2"><g id="Capa_31" data-name="Capa 31"><path class="cls-1" d="M28.69,66.2q-6.3-.14-12.6,0H12.18c-3.61,0-7.23-.07-10.85,0C.49,66.17.22,66,.25,65.1c.08-2,0-4,0-6.06,0-.61.16-.79.76-.74s1.43,0,2.15,0c.49,0,.75-.13.68-.66a1.21,1.21,0,0,1,0-.19q0-18.82,0-37.65A24.42,24.42,0,0,1,5.7,9.46a14.31,14.31,0,0,1,9-8.07,21.66,21.66,0,0,1,13.16-.22c6.42,2,10.06,6.52,11.52,13A25.5,25.5,0,0,1,40,19.84q0,18.63,0,37.25c0,.91.11,1.38,1.19,1.25.76-.09,1.78-.37,2.26.12s.12,1.48.13,2.25c0,1.57,0,3.13,0,4.7,0,.62-.19.75-.78.75-3.39,0-6.78,0-10.17,0Z"/><path class="cls-2" d="M11.39,38.42c.3.33.42.49.57.62,2.07,1.71,4.25,3.3,6.19,5.16a4.3,4.3,0,0,0,3.44,1.08c2.15,0,4.3,0,6.45,0,.92,0,1.23.2,1.22,1.17-.06,3.52,0,7-.05,10.56,0,1,.29,1.23,1.23,1.23s1.16-.32,1.16-1.2c0-5.8,0-11.6,0-17.4,0-1-.33-1.21-1.25-1.2-6,0-12,0-18,0Z"/><path class="cls-2" d="M12,49.77c0,2.47,0,4.95,0,7.42,0,.69.19,1,.94,1,1.33,0,2.67,0,4,0,.75,0,.95-.3.95-1q0-5.37,0-10.74a1.17,1.17,0,0,0-.44-1c-1.52-1.16-3-2.31-4.58-3.43-.21-.15-.44-.51-.75-.3s-.11.49-.11.74Z"/><path class="cls-3" d="M28.69,66.2h3.9v86.13c0,2.07,0,2.07-2.1,2.07-1.81,0-1.81,0-1.81-1.78Q28.7,109.42,28.69,66.2Z"/><path class="cls-3" d="M12.18,66.21h3.91q0,28.22,0,56.42c0,.92-.27,1.21-1.14,1.1s-2.06.38-2.63-.21-.15-1.67-.15-2.55Q12.18,93.59,12.18,66.21Z"/><path class="cls-4" d="M11.39,38.42h1c6,0,12,0,18,0,.92,0,1.26.22,1.25,1.2,0,5.8,0,11.6,0,17.4,0,.88-.24,1.2-1.16,1.2S29.2,57.93,29.21,57c.05-3.52,0-7,.05-10.56,0-1-.3-1.2-1.22-1.17-2.15.06-4.3,0-6.45,0a4.3,4.3,0,0,1-3.44-1.08C16.21,42.34,14,40.75,12,39,11.81,38.91,11.69,38.75,11.39,38.42Z"/><path class="cls-4" d="M12,49.77V42.44c0-.25-.11-.58.11-.74s.54.15.75.3c1.54,1.12,3.06,2.27,4.58,3.43a1.17,1.17,0,0,1,.44,1q0,5.37,0,10.74c0,.7-.2,1-.95,1-1.33,0-2.67,0-4,0-.75,0-.95-.31-.94-1C12,54.72,12,52.24,12,49.77Z"/></g></g></svg>