<svg xmlns="http://www.w3.org/2000/svg" viewBox="0 0 146.59 146.59"><defs><style>.cls-1{fill:#1d1d1b;}.cls-2{fill:#3c3c3b;}.cls-3{fill:#fff;}.cls-4{fill:#ececec;}</style></defs><title>matrix_v0</title><g id="Capa_2" data-name="Capa 2"><g id="Capa_24" data-name="Capa 24"><path class="cls-1" d="M19.3,146.59H4.09A4.1,4.1,0,0,1,0,142.49V4.09A4.09,4.09,0,0,1,4.09,0H19.3a4.08,4.08,0,0,0-4.08,4.09v138.4A4.09,4.09,0,0,0,19.3,146.59Z"/><path class="cls-2" d="M146.59,4.09v138.4a4.11,4.11,0,0,1-4.1,4.1H19.3a4.09,4.09,0,0,1-4.08-4.1V4.09A4.08,4.08,0,0,1,19.3,0H142.49A4.1,4.1,0,0,1,146.59,4.09Z"/><path class="cls-3" d="M15.18,11.06a5.53,5.53,0,0,1-4.63,5.47,5.53,5.53,0,0,1,0-10.91A5.5,5.5,0,0,1,15.18,11.06Z"/><path class="cls-4" d="M134.45,141a4.9,4.9,0,0,1-1,.09,6.27,6.27,0,0,1,0-12.53,4.31,4.31,0,0,1,1,.1,6.25,6.25,0,0,0,0,12.34Z"/><path class="cls-3" d="M139.69,134.85a6.25,6.25,0,0,1-5.24,6.18,6.25,6.25,0,0,1,0-12.34A6.22,6.22,0,0,1,139.69,134.85Z"/><path class="cls-4" d="M134.45,123.45a4.9,4.9,0,0,1-1,.09,6.27,6.27,0,0,1,0-12.53,4.31,4.31,0,0,1,1,.1,6.25,6.25,0,0,0,0,12.34Z"/><path class="cls-3" d="M139.69,117.27a6.25,6.25,0,0,1-5.24,6.18,6.25,6.25,0,0,1,0-12.34A6.22,6.22,0,0,1,139.69,117.27Z"/><path class="cls-4" d="M134.45,105.87a4.9,4.9,0,0,1-1,.09,6.27,6.27,0,0,1,0-12.53,4.31,4.31,0,0,1,1,.1,6.25,6.25,0,0,0,0,12.34Z"/><path class="cls-3" d="M139.69,99.69a6.25,6.25,0,0,1-5.24,6.18,6.25,6.25,0,0,1,0-12.34A6.22,6.22,0,0,1,139.69,99.69Z"/><path class="cls-4" d="M134.45,88.29a4.9,4.9,0,0,1-1,.09,6.27,6.27,0,0,1,0-12.53,4.31,4.31,0,0,1,1,.1,6.25,6.25,0,0,0,0,12.34Z"/><path class="cls-3" d="M139.69,82.11a6.25,6.25,0,0,1-5.24,6.18,6.25,6.25,0,0,1,0-12.34A6.22,6.22,0,0,1,139.69,82.11Z"/><path class="cls-4" d="M134.45,70.71a4.9,4.9,0,0,1-1,.09,6.27,6.27,0,0,1,0-12.53,4.31,4.31,0,0,1,1,.1,6.25,6.25,0,0,0,0,12.34Z"/><path class="cls-3" d="M139.69,64.53a6.25,6.25,0,0,1-5.24,6.18,6.25,6.25,0,0,1,0-12.34A6.22,6.22,0,0,1,139.69,64.53Z"/><path class="cls-4" d="M134.45,53.13a4.9,4.9,0,0,1-1,.09,6.27,6.27,0,0,1,0-12.53,4.31,4.31,0,0,1,1,.1,6.25,6.25,0,0,0,0,12.34Z"/><path class="cls-3" d="M139.69,47a6.25,6.25,0,0,1-5.24,6.18,6.25,6.25,0,0,1,0-12.34A6.22,6.22,0,0,1,139.69,47Z"/><path class="cls-4" d="M134.45,35.55a4.9,4.9,0,0,1-1,.09,6.27,6.27,0,0,1,0-12.53,4.31,4.31,0,0,1,1,.1,6.25,6.25,0,0,0,0,12.34Z"/><path class="cls-3" d="M139.69,29.37a6.25,6.25,0,0,1-5.24,6.18,6.25,6.25,0,0,1,0-12.34A6.22,6.22,0,0,1,139.69,29.37Z"/><path class="cls-4" d="M134.45,18a4.9,4.9,0,0,1-1,.09,6.27,6.27,0,0,1,0-12.53,4.31,4.31,0,0,1,1,.1,6.25,6.25,0,0,0,0,12.34Z"/><path class="cls-3" d="M139.69,11.79A6.25,6.25,0,0,1,134.45,18a6.25,6.25,0,0,1,0-12.34A6.22,6.22,0,0,1,139.69,11.79Z"/><path class="cls-4" d="M116.87,141a4.9,4.9,0,0,1-1,.09,6.27,6.27,0,0,1,0-12.53,4.31,4.31,0,0,1,1,.1,6.25,6.25,0,0,0,0,12.34Z"/><path class="cls-3" d="M122.11,134.85a6.25,6.25,0,0,1-5.24,6.18,6.25,6.25,0,0,1,0-12.34A6.22,6.22,0,0,1,122.11,134.85Z"/><path class="cls-4" d="M116.87,123.45a4.9,4.9,0,0,1-1,.09,6.27,6.27,0,0,1,0-12.53,4.31,4.31,0,0,1,1,.1,6.25,6.25,0,0,0,0,12.34Z"/><path class="cls-3" d="M122.11,117.27a6.25,6.25,0,0,1-5.24,6.18,6.25,6.25,0,0,1,0-12.34A6.22,6.22,0,0,1,122.11,117.27Z"/><path class="cls-4" d="M116.87,105.87a4.9,4.9,0,0,1-1,.09,6.27,6.27,0,0,1,0-12.53,4.31,4.31,0,0,1,1,.1,6.25,6.25,0,0,0,0,12.34Z"/><path class="cls-3" d="M122.11,99.69a6.25,6.25,0,0,1-5.24,6.18,6.25,6.25,0,0,1,0-12.34A6.22,6.22,0,0,1,122.11,99.69Z"/><path class="cls-4" d="M116.87,88.29a4.9,4.9,0,0,1-1,.09,6.27,6.27,0,0,1,0-12.53,4.31,4.31,0,0,1,1,.1,6.25,6.25,0,0,0,0,12.34Z"/><path class="cls-3" d="M122.11,82.11a6.25,6.25,0,0,1-5.24,6.18,6.25,6.25,0,0,1,0-12.34A6.22,6.22,0,0,1,122.11,82.11Z"/><path class="cls-4" d="M116.87,70.71a4.9,4.9,0,0,1-1,.09,6.27,6.27,0,0,1,0-12.53,4.31,4.31,0,0,1,1,.1,6.25,6.25,0,0,0,0,12.34Z"/><path class="cls-3" d="M122.11,64.53a6.25,6.25,0,0,1-5.24,6.18,6.25,6.25,0,0,1,0-12.34A6.22,6.22,0,0,1,122.11,64.53Z"/><path class="cls-4" d="M116.87,53.13a4.9,4.9,0,0,1-1,.09,6.27,6.27,0,0,1,0-12.53,4.31,4.31,0,0,1,1,.1,6.25,6.25,0,0,0,0,12.34Z"/><path class="cls-3" d="M122.11,47a6.25,6.25,0,0,1-5.24,6.18,6.25,6.25,0,0,1,0-12.34A6.22,6.22,0,0,1,122.11,47Z"/><path class="cls-4" d="M116.87,35.55a4.9,4.9,0,0,1-1,.09,6.27,6.27,0,0,1,0-12.53,4.31,4.31,0,0,1,1,.1,6.25,6.25,0,0,0,0,12.34Z"/><path class="cls-3" d="M122.11,29.37a6.25,6.25,0,0,1-5.24,6.18,6.25,6.25,0,0,1,0-12.34A6.22,6.22,0,0,1,122.11,29.37Z"/><path class="cls-4" d="M116.87,18a4.9,4.9,0,0,1-1,.09,6.27,6.27,0,0,1,0-12.53,4.31,4.31,0,0,1,1,.1,6.25,6.25,0,0,0,0,12.34Z"/><path class="cls-3" d="M122.11,11.79A6.25,6.25,0,0,1,116.87,18a6.25,6.25,0,0,1,0-12.34A6.22,6.22,0,0,1,122.11,11.79Z"/><path class="cls-4" d="M99.29,141a4.9,4.9,0,0,1-1,.09,6.27,6.27,0,0,1,0-12.53,4.31,4.31,0,0,1,1,.1,6.25,6.25,0,0,0,0,12.34Z"/><path class="cls-3" d="M104.53,134.85A6.25,6.25,0,0,1,99.29,141a6.25,6.25,0,0,1,0-12.34A6.22,6.22,0,0,1,104.53,134.85Z"/><path class="cls-4" d="M99.29,123.45a4.9,4.9,0,0,1-1,.09,6.27,6.27,0,0,1,0-12.53,4.31,4.31,0,0,1,1,.1,6.25,6.25,0,0,0,0,12.34Z"/><path class="cls-3" d="M104.53,117.27a6.25,6.25,0,0,1-5.24,6.18,6.25,6.25,0,0,1,0-12.34A6.22,6.22,0,0,1,104.53,117.27Z"/><path class="cls-4" d="M99.29,105.87a4.9,4.9,0,0,1-1,.09,6.27,6.27,0,0,1,0-12.53,4.31,4.31,0,0,1,1,.1,6.25,6.25,0,0,0,0,12.34Z"/><path class="cls-3" d="M104.53,99.69a6.25,6.25,0,0,1-5.24,6.18,6.25,6.25,0,0,1,0-12.34A6.22,6.22,0,0,1,104.53,99.69Z"/><path class="cls-4" d="M99.29,88.29a4.9,4.9,0,0,1-1,.09,6.27,6.27,0,0,1,0-12.53,4.31,4.31,0,0,1,1,.1,6.25,6.25,0,0,0,0,12.34Z"/><path class="cls-3" d="M104.53,82.11a6.25,6.25,0,0,1-5.24,6.18,6.25,6.25,0,0,1,0-12.34A6.22,6.22,0,0,1,104.53,82.11Z"/><path class="cls-4" d="M99.29,70.71a4.9,4.9,0,0,1-1,.09,6.27,6.27,0,0,1,0-12.53,4.31,4.31,0,0,1,1,.1,6.25,6.25,0,0,0,0,12.34Z"/><path class="cls-3" d="M104.53,64.53a6.25,6.25,0,0,1-5.24,6.18,6.25,6.25,0,0,1,0-12.34A6.22,6.22,0,0,1,104.53,64.53Z"/><path class="cls-4" d="M99.29,53.13a4.9,4.9,0,0,1-1,.09,6.27,6.27,0,0,1,0-12.53,4.31,4.31,0,0,1,1,.1,6.25,6.25,0,0,0,0,12.34Z"/><path class="cls-3" d="M104.53,47a6.25,6.25,0,0,1-5.24,6.18,6.25,6.25,0,0,1,0-12.34A6.22,6.22,0,0,1,104.53,47Z"/><path class="cls-4" d="M99.29,35.55a4.9,4.9,0,0,1-1,.09,6.27,6.27,0,0,1,0-12.53,4.31,4.31,0,0,1,1,.1,6.25,6.25,0,0,0,0,12.34Z"/><path class="cls-3" d="M104.53,29.37a6.25,6.25,0,0,1-5.24,6.18,6.25,6.25,0,0,1,0-12.34A6.22,6.22,0,0,1,104.53,29.37Z"/><path class="cls-4" d="M99.29,18a4.9,4.9,0,0,1-1,.09,6.27,6.27,0,0,1,0-12.53,4.31,4.31,0,0,1,1,.1,6.25,6.25,0,0,0,0,12.34Z"/><path class="cls-3" d="M104.53,11.79A6.25,6.25,0,0,1,99.29,18a6.25,6.25,0,0,1,0-12.34A6.22,6.22,0,0,1,104.53,11.79Z"/><path class="cls-4" d="M81.71,141a4.9,4.9,0,0,1-1,.09,6.27,6.27,0,0,1,0-12.53,4.31,4.31,0,0,1,1,.1,6.25,6.25,0,0,0,0,12.34Z"/><path class="cls-3" d="M87,134.85A6.25,6.25,0,0,1,81.71,141a6.25,6.25,0,0,1,0-12.34A6.22,6.22,0,0,1,87,134.85Z"/><path class="cls-4" d="M81.71,123.45a4.9,4.9,0,0,1-1,.09,6.27,6.27,0,0,1,0-12.53,4.31,4.31,0,0,1,1,.1,6.25,6.25,0,0,0,0,12.34Z"/><path class="cls-3" d="M87,117.27a6.25,6.25,0,0,1-5.24,6.18,6.25,6.25,0,0,1,0-12.34A6.22,6.22,0,0,1,87,117.27Z"/><path class="cls-4" d="M81.71,105.87a4.9,4.9,0,0,1-1,.09,6.27,6.27,0,0,1,0-12.53,4.31,4.31,0,0,1,1,.1,6.25,6.25,0,0,0,0,12.34Z"/><path class="cls-3" d="M87,99.69a6.25,6.25,0,0,1-5.24,6.18,6.25,6.25,0,0,1,0-12.34A6.22,6.22,0,0,1,87,99.69Z"/><path class="cls-4" d="M81.71,88.29a4.9,4.9,0,0,1-1,.09,6.27,6.27,0,0,1,0-12.53,4.31,4.31,0,0,1,1,.1,6.25,6.25,0,0,0,0,12.34Z"/><path class="cls-3" d="M87,82.11a6.25,6.25,0,0,1-5.24,6.18,6.25,6.25,0,0,1,0-12.34A6.22,6.22,0,0,1,87,82.11Z"/><path class="cls-4" d="M81.71,70.71a4.9,4.9,0,0,1-1,.09,6.27,6.27,0,0,1,0-12.53,4.31,4.31,0,0,1,1,.1,6.25,6.25,0,0,0,0,12.34Z"/><path class="cls-3" d="M87,64.53a6.25,6.25,0,0,1-5.24,6.18,6.25,6.25,0,0,1,0-12.34A6.22,6.22,0,0,1,87,64.53Z"/><path class="cls-4" d="M81.71,53.13a4.9,4.9,0,0,1-1,.09,6.27,6.27,0,0,1,0-12.53,4.31,4.31,0,0,1,1,.1,6.25,6.25,0,0,0,0,12.34Z"/><path class="cls-3" d="M87,47a6.25,6.25,0,0,1-5.24,6.18,6.25,6.25,0,0,1,0-12.34A6.22,6.22,0,0,1,87,47Z"/><path class="cls-4" d="M81.71,35.55a4.9,4.9,0,0,1-1,.09,6.27,6.27,0,0,1,0-12.53,4.31,4.31,0,0,1,1,.1,6.25,6.25,0,0,0,0,12.34Z"/><path class="cls-3" d="M87,29.37a6.25,6.25,0,0,1-5.24,6.18,6.25,6.25,0,0,1,0-12.34A6.22,6.22,0,0,1,87,29.37Z"/><path class="cls-4" d="M81.71,18a4.9,4.9,0,0,1-1,.09,6.27,6.27,0,0,1,0-12.53,4.31,4.31,0,0,1,1,.1,6.25,6.25,0,0,0,0,12.34Z"/><path class="cls-3" d="M87,11.79A6.25,6.25,0,0,1,81.71,18a6.25,6.25,0,0,1,0-12.34A6.22,6.22,0,0,1,87,11.79Z"/><path class="cls-4" d="M64.13,141a4.9,4.9,0,0,1-1,.09,6.27,6.27,0,0,1,0-12.53,4.31,4.31,0,0,1,1,.1,6.25,6.25,0,0,0,0,12.34Z"/><path class="cls-3" d="M69.37,134.85A6.25,6.25,0,0,1,64.13,141a6.25,6.25,0,0,1,0-12.34A6.22,6.22,0,0,1,69.37,134.85Z"/><path class="cls-4" d="M64.13,123.45a4.9,4.9,0,0,1-1,.09,6.27,6.27,0,0,1,0-12.53,4.31,4.31,0,0,1,1,.1,6.25,6.25,0,0,0,0,12.34Z"/><path class="cls-3" d="M69.37,117.27a6.25,6.25,0,0,1-5.24,6.18,6.25,6.25,0,0,1,0-12.34A6.22,6.22,0,0,1,69.37,117.27Z"/><path class="cls-4" d="M64.13,105.87a4.9,4.9,0,0,1-1,.09,6.27,6.27,0,0,1,0-12.53,4.31,4.31,0,0,1,1,.1,6.25,6.25,0,0,0,0,12.34Z"/><path class="cls-3" d="M69.37,99.69a6.25,6.25,0,0,1-5.24,6.18,6.25,6.25,0,0,1,0-12.34A6.22,6.22,0,0,1,69.37,99.69Z"/><path class="cls-4" d="M64.13,88.29a4.9,4.9,0,0,1-1,.09,6.27,6.27,0,0,1,0-12.53,4.31,4.31,0,0,1,1,.1,6.25,6.25,0,0,0,0,12.34Z"/><path class="cls-3" d="M69.37,82.11a6.25,6.25,0,0,1-5.24,6.18,6.25,6.25,0,0,1,0-12.34A6.22,6.22,0,0,1,69.37,82.11Z"/><path class="cls-4" d="M64.13,70.71a4.9,4.9,0,0,1-1,.09,6.27,6.27,0,0,1,0-12.53,4.31,4.31,0,0,1,1,.1,6.25,6.25,0,0,0,0,12.34Z"/><path class="cls-3" d="M69.37,64.53a6.25,6.25,0,0,1-5.24,6.18,6.25,6.25,0,0,1,0-12.34A6.22,6.22,0,0,1,69.37,64.53Z"/><path class="cls-4" d="M64.13,53.13a4.9,4.9,0,0,1-1,.09,6.27,6.27,0,0,1,0-12.53,4.31,4.31,0,0,1,1,.1,6.25,6.25,0,0,0,0,12.34Z"/><path class="cls-3" d="M69.37,47a6.25,6.25,0,0,1-5.24,6.18,6.25,6.25,0,0,1,0-12.34A6.22,6.22,0,0,1,69.37,47Z"/><path class="cls-4" d="M64.13,35.55a4.9,4.9,0,0,1-1,.09,6.27,6.27,0,0,1,0-12.53,4.31,4.31,0,0,1,1,.1,6.25,6.25,0,0,0,0,12.34Z"/><path class="cls-3" d="M69.37,29.37a6.25,6.25,0,0,1-5.24,6.18,6.25,6.25,0,0,1,0-12.34A6.22,6.22,0,0,1,69.37,29.37Z"/><path class="cls-4" d="M64.13,18a4.9,4.9,0,0,1-1,.09,6.27,6.27,0,0,1,0-12.53,4.31,4.31,0,0,1,1,.1,6.25,6.25,0,0,0,0,12.34Z"/><path class="cls-3" d="M69.37,11.79A6.25,6.25,0,0,1,64.13,18a6.25,6.25,0,0,1,0-12.34A6.22,6.22,0,0,1,69.37,11.79Z"/><path class="cls-4" d="M46.55,141a4.9,4.9,0,0,1-1,.09,6.27,6.27,0,0,1,0-12.53,4.31,4.31,0,0,1,1,.1,6.25,6.25,0,0,0,0,12.34Z"/><path class="cls-3" d="M51.79,134.85A6.25,6.25,0,0,1,46.55,141a6.25,6.25,0,0,1,0-12.34A6.22,6.22,0,0,1,51.79,134.85Z"/><path class="cls-4" d="M46.55,123.45a4.9,4.9,0,0,1-1,.09,6.27,6.27,0,0,1,0-12.53,4.31,4.31,0,0,1,1,.1,6.25,6.25,0,0,0,0,12.34Z"/><path class="cls-3" d="M51.79,117.27a6.25,6.25,0,0,1-5.24,6.18,6.25,6.25,0,0,1,0-12.34A6.22,6.22,0,0,1,51.79,117.27Z"/><path class="cls-4" d="M46.55,105.87a4.9,4.9,0,0,1-1,.09,6.27,6.27,0,0,1,0-12.53,4.31,4.31,0,0,1,1,.1,6.25,6.25,0,0,0,0,12.34Z"/><path class="cls-3" d="M51.79,99.69a6.25,6.25,0,0,1-5.24,6.18,6.25,6.25,0,0,1,0-12.34A6.22,6.22,0,0,1,51.79,99.69Z"/><path class="cls-4" d="M46.55,88.29a4.9,4.9,0,0,1-1,.09,6.27,6.27,0,0,1,0-12.53,4.31,4.31,0,0,1,1,.1,6.25,6.25,0,0,0,0,12.34Z"/><path class="cls-3" d="M51.79,82.11a6.25,6.25,0,0,1-5.24,6.18,6.25,6.25,0,0,1,0-12.34A6.22,6.22,0,0,1,51.79,82.11Z"/><path class="cls-4" d="M46.55,70.71a4.9,4.9,0,0,1-1,.09,6.27,6.27,0,0,1,0-12.53,4.31,4.31,0,0,1,1,.1,6.25,6.25,0,0,0,0,12.34Z"/><path class="cls-3" d="M51.79,64.53a6.25,6.25,0,0,1-5.24,6.18,6.25,6.25,0,0,1,0-12.34A6.22,6.22,0,0,1,51.79,64.53Z"/><path class="cls-4" d="M46.55,53.13a4.9,4.9,0,0,1-1,.09,6.27,6.27,0,0,1,0-12.53,4.31,4.31,0,0,1,1,.1,6.25,6.25,0,0,0,0,12.34Z"/><path class="cls-3" d="M51.79,47a6.25,6.25,0,0,1-5.24,6.18,6.25,6.25,0,0,1,0-12.34A6.22,6.22,0,0,1,51.79,47Z"/><path class="cls-4" d="M46.55,35.55a4.9,4.9,0,0,1-1,.09,6.27,6.27,0,0,1,0-12.53,4.31,4.31,0,0,1,1,.1,6.25,6.25,0,0,0,0,12.34Z"/><path class="cls-3" d="M51.79,29.37a6.25,6.25,0,0,1-5.24,6.18,6.25,6.25,0,0,1,0-12.34A6.22,6.22,0,0,1,51.79,29.37Z"/><path class="cls-4" d="M46.55,18a4.9,4.9,0,0,1-1,.09,6.27,6.27,0,0,1,0-12.53,4.31,4.31,0,0,1,1,.1,6.25,6.25,0,0,0,0,12.34Z"/><path class="cls-3" d="M51.79,11.79A6.25,6.25,0,0,1,46.55,18a6.25,6.25,0,0,1,0-12.34A6.22,6.22,0,0,1,51.79,11.79Z"/><path class="cls-4" d="M29,141a4.9,4.9,0,0,1-1,.09,6.27,6.27,0,0,1,0-12.53,4.31,4.31,0,0,1,1,.1A6.25,6.25,0,0,0,29,141Z"/><path class="cls-3" d="M34.21,134.85A6.25,6.25,0,0,1,29,141a6.25,6.25,0,0,1,0-12.34A6.22,6.22,0,0,1,34.21,134.85Z"/><path class="cls-4" d="M29,123.45a4.9,4.9,0,0,1-1,.09A6.27,6.27,0,0,1,28,111a4.31,4.31,0,0,1,1,.1,6.25,6.25,0,0,0,0,12.34Z"/><path class="cls-3" d="M34.21,117.27A6.25,6.25,0,0,1,29,123.45a6.25,6.25,0,0,1,0-12.34A6.22,6.22,0,0,1,34.21,117.27Z"/><path class="cls-4" d="M29,105.87a4.9,4.9,0,0,1-1,.09,6.27,6.27,0,0,1,0-12.53,4.31,4.31,0,0,1,1,.1,6.25,6.25,0,0,0,0,12.34Z"/><path class="cls-3" d="M34.21,99.69A6.25,6.25,0,0,1,29,105.87a6.25,6.25,0,0,1,0-12.34A6.22,6.22,0,0,1,34.21,99.69Z"/><path class="cls-4" d="M29,88.29a4.9,4.9,0,0,1-1,.09,6.27,6.27,0,0,1,0-12.53,4.31,4.31,0,0,1,1,.1,6.25,6.25,0,0,0,0,12.34Z"/><path class="cls-3" d="M34.21,82.11A6.25,6.25,0,0,1,29,88.29,6.25,6.25,0,0,1,29,76,6.22,6.22,0,0,1,34.21,82.11Z"/><path class="cls-4" d="M29,70.71a4.9,4.9,0,0,1-1,.09,6.27,6.27,0,0,1,0-12.53,4.31,4.31,0,0,1,1,.1,6.25,6.25,0,0,0,0,12.34Z"/><path class="cls-3" d="M34.21,64.53A6.25,6.25,0,0,1,29,70.71a6.25,6.25,0,0,1,0-12.34A6.22,6.22,0,0,1,34.21,64.53Z"/><path class="cls-4" d="M29,53.13a4.9,4.9,0,0,1-1,.09,6.27,6.27,0,0,1,0-12.53,4.31,4.31,0,0,1,1,.1,6.25,6.25,0,0,0,0,12.34Z"/><path class="cls-3" d="M34.21,47A6.25,6.25,0,0,1,29,53.13a6.25,6.25,0,0,1,0-12.34A6.22,6.22,0,0,1,34.21,47Z"/><path class="cls-4" d="M29,35.55a4.9,4.9,0,0,1-1,.09,6.27,6.27,0,0,1,0-12.53,4.31,4.31,0,0,1,1,.1,6.25,6.25,0,0,0,0,12.34Z"/><path class="cls-3" d="M34.21,29.37A6.25,6.25,0,0,1,29,35.55a6.25,6.25,0,0,1,0-12.34A6.22,6.22,0,0,1,34.21,29.37Z"/><path class="cls-4" d="M29,18a4.9,4.9,0,0,1-1,.09A6.27,6.27,0,0,1,28,5.53a4.31,4.31,0,0,1,1,.1A6.25,6.25,0,0,0,29,18Z"/><path class="cls-3" d="M34.21,11.79A6.25,6.25,0,0,1,29,18,6.25,6.25,0,0,1,29,5.63,6.22,6.22,0,0,1,34.21,11.79Z"/><path class="cls-4" d="M11.39,141a4.9,4.9,0,0,1-1,.09,6.27,6.27,0,0,1,0-12.53,4.31,4.31,0,0,1,1,.1,6.25,6.25,0,0,0,0,12.34Z"/><path class="cls-3" d="M16.63,134.85A6.25,6.25,0,0,1,11.39,141a6.25,6.25,0,0,1,0-12.34A6.22,6.22,0,0,1,16.63,134.85Z"/><path class="cls-4" d="M11.39,123.45a4.9,4.9,0,0,1-1,.09,6.27,6.27,0,0,1,0-12.53,4.31,4.31,0,0,1,1,.1,6.25,6.25,0,0,0,0,12.34Z"/><path class="cls-3" d="M16.63,117.27a6.25,6.25,0,0,1-5.24,6.18,6.25,6.25,0,0,1,0-12.34A6.22,6.22,0,0,1,16.63,117.27Z"/><path class="cls-4" d="M11.39,105.87a4.9,4.9,0,0,1-1,.09,6.27,6.27,0,0,1,0-12.53,4.31,4.31,0,0,1,1,.1,6.25,6.25,0,0,0,0,12.34Z"/><path class="cls-3" d="M16.63,99.69a6.25,6.25,0,0,1-5.24,6.18,6.25,6.25,0,0,1,0-12.34A6.22,6.22,0,0,1,16.63,99.69Z"/><path class="cls-4" d="M11.39,88.29a4.9,4.9,0,0,1-1,.09,6.27,6.27,0,0,1,0-12.53,4.31,4.31,0,0,1,1,.1,6.25,6.25,0,0,0,0,12.34Z"/><path class="cls-3" d="M16.63,82.11a6.25,6.25,0,0,1-5.24,6.18,6.25,6.25,0,0,1,0-12.34A6.22,6.22,0,0,1,16.63,82.11Z"/><path class="cls-4" d="M11.39,70.71a4.9,4.9,0,0,1-1,.09,6.27,6.27,0,0,1,0-12.53,4.31,4.31,0,0,1,1,.1,6.25,6.25,0,0,0,0,12.34Z"/><path class="cls-3" d="M16.63,64.53a6.25,6.25,0,0,1-5.24,6.18,6.25,6.25,0,0,1,0-12.34A6.22,6.22,0,0,1,16.63,64.53Z"/><path class="cls-4" d="M11.39,53.13a4.9,4.9,0,0,1-1,.09,6.27,6.27,0,0,1,0-12.53,4.31,4.31,0,0,1,1,.1,6.25,6.25,0,0,0,0,12.34Z"/><path class="cls-3" d="M16.63,47a6.25,6.25,0,0,1-5.24,6.18,6.25,6.25,0,0,1,0-12.34A6.22,6.22,0,0,1,16.63,47Z"/><path class="cls-4" d="M11.39,35.55a4.9,4.9,0,0,1-1,.09,6.27,6.27,0,0,1,0-12.53,4.31,4.31,0,0,1,1,.1,6.25,6.25,0,0,0,0,12.34Z"/><path class="cls-3" d="M16.63,29.37a6.25,6.25,0,0,1-5.24,6.18,6.25,6.25,0,0,1,0-12.34A6.22,6.22,0,0,1,16.63,29.37Z"/><path class="cls-4" d="M11.39,18a4.9,4.9,0,0,1-1,.09,6.27,6.27,0,0,1,0-12.53,4.31,4.31,0,0,1,1,.1,6.25,6.25,0,0,0,0,12.34Z"/><path class="cls-3" d="M16.63,11.79A6.25,6.25,0,0,1,11.39,18a6.25,6.25,0,0,1,0-12.34A6.22,6.22,0,0,1,16.63,11.79Z"/></g></g></svg>