<svg xmlns="http://www.w3.org/2000/svg" viewBox="0 0 146.75 146.75"><defs><style>.cls-1{fill:#ccc;}.cls-2{fill:#323634;}.cls-3{fill:#333;}.cls-4{fill:none;stroke:#000;stroke-miterlimit:10;stroke-width:0.25px;}</style></defs><title>microphone_v0</title><g id="Capa_2" data-name="Capa 2"><g id="Capa_31" data-name="Capa 31"><circle class="cls-1" cx="73.37" cy="73.37" r="73.37"/><path class="cls-2" d="M142.48,73.35a69.08,69.08,0,0,1-63.67,68.88c-1.79.15-3.61.23-5.44.23a69.09,69.09,0,1,1,0-138.18c1.83,0,3.65.08,5.44.24A69.06,69.06,0,0,1,142.48,73.35Z"/><path class="cls-3" d="M142.48,73.35a69.08,69.08,0,0,1-63.67,68.88,69.07,69.07,0,0,1,0-137.71A69.06,69.06,0,0,1,142.48,73.35Z"/><line class="cls-4" x1="13.63" y1="108.1" x2="13.63" y2="38.64"/><line class="cls-4" x1="19.08" y1="116.13" x2="19.08" y2="30.61"/><line class="cls-4" x1="24.58" y1="122.3" x2="24.58" y2="24.44"/><line class="cls-4" x1="30.04" y1="127.17" x2="30.04" y2="19.57"/><line class="cls-4" x1="35.54" y1="131.18" x2="35.54" y2="15.56"/><line class="cls-4" x1="40.99" y1="134.38" x2="40.99" y2="12.35"/><line class="cls-4" x1="46.45" y1="137" x2="46.45" y2="9.74"/><line class="cls-4" x1="51.95" y1="139.03" x2="51.95" y2="7.71"/><line class="cls-4" x1="57.4" y1="140.56" x2="57.4" y2="6.18"/><line class="cls-4" x1="62.86" y1="141.42" x2="62.86" y2="5.14"/><line class="cls-4" x1="132.81" y1="43.64" x2="132.81" y2="102.74"/><line class="cls-4" x1="127.31" y1="34.13" x2="127.31" y2="112.25"/><line class="cls-4" x1="121.85" y1="27.14" x2="121.85" y2="119.24"/><line class="cls-4" x1="116.35" y1="21.64" x2="116.35" y2="124.74"/><line class="cls-4" x1="110.9" y1="17.31" x2="110.9" y2="129.06"/><line class="cls-4" x1="105.44" y1="13.71" x2="105.44" y2="132.67"/><line class="cls-4" x1="99.94" y1="10.78" x2="99.94" y2="135.6"/><line class="cls-4" x1="94.49" y1="8.48" x2="94.49" y2="137.9"/><line class="cls-4" x1="89.03" y1="6.72" x2="89.03" y2="139.66"/><line class="cls-4" x1="83.54" y1="5.41" x2="83.54" y2="140.96"/><line class="cls-4" x1="78.77" y1="6" x2="78.77" y2="140.38"/><line class="cls-4" x1="73.32" y1="5.14" x2="73.32" y2="141.42"/><line class="cls-4" x1="68.06" y1="5.41" x2="68.06" y2="140.96"/><line class="cls-4" x1="102.04" y1="134.24" x2="42.94" y2="134.24"/><line class="cls-4" x1="111.55" y1="128.74" x2="33.43" y2="128.74"/><line class="cls-4" x1="118.54" y1="123.29" x2="26.44" y2="123.29"/><line class="cls-4" x1="124.04" y1="117.79" x2="20.94" y2="117.79"/><line class="cls-4" x1="128.36" y1="112.33" x2="16.61" y2="112.33"/><line class="cls-4" x1="131.97" y1="106.88" x2="13.01" y2="106.88"/><line class="cls-4" x1="134.9" y1="101.38" x2="10.08" y2="101.38"/><line class="cls-4" x1="137.2" y1="95.93" x2="7.78" y2="95.93"/><line class="cls-4" x1="138.96" y1="90.47" x2="6.02" y2="90.47"/><line class="cls-4" x1="140.26" y1="84.97" x2="4.71" y2="84.97"/><line class="cls-4" x1="37.58" y1="15.07" x2="107.04" y2="15.07"/><line class="cls-4" x1="29.55" y1="20.52" x2="115.07" y2="20.52"/><line class="cls-4" x1="23.38" y1="26.02" x2="121.24" y2="26.02"/><line class="cls-4" x1="18.51" y1="31.47" x2="126.11" y2="31.47"/><line class="cls-4" x1="14.49" y1="36.97" x2="130.12" y2="36.97"/><line class="cls-4" x1="11.29" y1="42.43" x2="133.32" y2="42.43"/><line class="cls-4" x1="8.68" y1="47.88" x2="135.94" y2="47.88"/><line class="cls-4" x1="6.65" y1="53.38" x2="137.97" y2="53.38"/><line class="cls-4" x1="5.12" y1="58.84" x2="139.5" y2="58.84"/><line class="cls-4" x1="4.26" y1="64.29" x2="140.53" y2="64.29"/><line class="cls-4" x1="4.53" y1="69.1" x2="140.08" y2="69.1"/><line class="cls-4" x1="5.12" y1="74.31" x2="139.5" y2="74.31"/><line class="cls-4" x1="4.26" y1="79.76" x2="140.53" y2="79.76"/></g></g></svg>