<svg xmlns="http://www.w3.org/2000/svg" viewBox="0 0 240.66 240.66"><defs><style>.cls-1,.cls-5{fill:#ccc;}.cls-1{stroke:#000;stroke-miterlimit:10;stroke-width:2px;}.cls-2{fill:#40a629;}.cls-3{fill:#2e58a6;}.cls-4{fill:#4fa0ca;}.cls-6{fill:#c2000b;}.cls-7{fill:red;}.cls-8{fill:#237d26;}.cls-9{fill:#fea621;}.cls-10{fill:#ffe610;}</style></defs><title>pulsadores</title><g id="Capa_2" data-name="Capa 2"><g id="Capa_31" data-name="Capa 31"><rect class="cls-1" x="13.67" y="84.55" width="71.57" height="71.57" rx="5.19" ry="5.19" transform="translate(-70.61 70.22) rotate(-45)"/><circle cx="49.46" cy="85.47" r="4.75"/><circle cx="49.46" cy="155.21" r="4.75"/><circle cx="14.59" cy="120.34" r="4.75"/><circle cx="84.33" cy="120.34" r="4.75"/><path class="cls-2" d="M72.77,120.33a23.33,23.33,0,0,1-20.92,23.2h0a23.32,23.32,0,0,1,0-46.39h0A23.32,23.32,0,0,1,72.77,120.33Z"/><path class="cls-3" d="M51.83,143.53c-.78.07-1.56.11-2.36.11a23.31,23.31,0,0,1,0-46.62c.8,0,1.58,0,2.36.12a23.32,23.32,0,0,0,0,46.39Z"/><path class="cls-4" d="M72.78,120.33a23.33,23.33,0,0,1-20.92,23.2h0a23.32,23.32,0,0,1,0-46.39h0A23.32,23.32,0,0,1,72.78,120.33Z"/><rect class="cls-5" x="19.62" y="87.54" width="9.21" height="15.13" rx="1.09" ry="1.09" transform="translate(-60.16 44.99) rotate(-45)"/><rect class="cls-5" x="70.05" y="137.97" width="9.21" height="15.13" rx="1.09" ry="1.09" transform="translate(-81.05 95.42) rotate(-45)"/><rect class="cls-1" x="84.55" y="13.67" width="71.57" height="71.57" rx="5.19" ry="5.19" transform="translate(0.27 99.58) rotate(-45)"/><circle cx="120.34" cy="14.59" r="4.75"/><circle cx="120.34" cy="84.33" r="4.75"/><circle cx="85.47" cy="49.46" r="4.75"/><circle cx="155.21" cy="49.46" r="4.75"/><path class="cls-2" d="M143.65,49.45a23.31,23.31,0,0,1-20.92,23.19h0a23.32,23.32,0,0,1,0-46.39h0A23.32,23.32,0,0,1,143.65,49.45Z"/><rect class="cls-5" x="90.5" y="16.66" width="9.21" height="15.13" rx="1.09" ry="1.09" transform="translate(10.73 74.35) rotate(-45)"/><rect class="cls-5" x="140.93" y="67.09" width="9.21" height="15.13" rx="1.09" ry="1.09" transform="translate(-10.16 124.78) rotate(-45)"/><rect class="cls-1" x="84.54" y="155.42" width="71.57" height="71.57" rx="5.19" ry="5.19" transform="translate(-99.96 141.08) rotate(-45)"/><circle cx="120.32" cy="156.34" r="4.75"/><circle cx="120.32" cy="226.07" r="4.75"/><circle cx="85.46" cy="191.21" r="4.75"/><circle cx="155.19" cy="191.21" r="4.75"/><path class="cls-2" d="M143.63,191.2a23.31,23.31,0,0,1-20.91,23.19h0a23.32,23.32,0,0,1,0-46.39h0A23.32,23.32,0,0,1,143.63,191.2Z"/><rect class="cls-5" x="90.49" y="158.41" width="9.21" height="15.13" rx="1.09" ry="1.09" transform="translate(-89.51 115.86) rotate(-45)"/><rect class="cls-5" x="140.92" y="208.84" width="9.21" height="15.13" rx="1.09" ry="1.09" transform="translate(-110.4 166.29) rotate(-45)"/><rect class="cls-1" x="155.42" y="84.54" width="71.57" height="71.57" rx="5.19" ry="5.19" transform="translate(-29.08 170.44) rotate(-45)"/><circle cx="191.21" cy="85.46" r="4.75"/><circle cx="191.21" cy="155.19" r="4.75"/><circle cx="156.34" cy="120.32" r="4.75"/><circle cx="226.07" cy="120.32" r="4.75"/><path class="cls-2" d="M214.52,120.32a23.32,23.32,0,0,1-20.92,23.19h0a23.32,23.32,0,0,1,0-46.39h0A23.33,23.33,0,0,1,214.52,120.32Z"/><path class="cls-6" d="M122.71,72.64c-.79.07-1.57.12-2.37.12a23.31,23.31,0,0,1,0-46.62c.8,0,1.58,0,2.37.11a23.32,23.32,0,0,0,0,46.39Z"/><path class="cls-7" d="M143.65,49.45a23.31,23.31,0,0,1-20.92,23.19h0a23.32,23.32,0,0,1,0-46.39h0A23.32,23.32,0,0,1,143.65,49.45Z"/><path class="cls-8" d="M122.69,214.39c-.78.07-1.56.12-2.37.12a23.31,23.31,0,1,1,0-46.62c.81,0,1.59,0,2.37.11a23.32,23.32,0,0,0,0,46.39Z"/><path class="cls-2" d="M143.63,191.2a23.31,23.31,0,0,1-20.91,23.19h0a23.32,23.32,0,0,1,0-46.39h0A23.32,23.32,0,0,1,143.63,191.2Z"/><path class="cls-9" d="M193.57,143.51c-.78.07-1.56.12-2.36.12a23.31,23.31,0,0,1,0-46.62c.8,0,1.58,0,2.36.11a23.32,23.32,0,0,0,0,46.39Z"/><path class="cls-10" d="M214.52,120.32a23.32,23.32,0,0,1-20.92,23.19h0a23.32,23.32,0,0,1,0-46.39h0A23.33,23.33,0,0,1,214.52,120.32Z"/><rect class="cls-5" x="161.37" y="87.53" width="9.21" height="15.13" rx="1.09" ry="1.09" transform="translate(-18.63 145.22) rotate(-45)"/><rect class="cls-5" x="211.8" y="137.96" width="9.21" height="15.13" rx="1.09" ry="1.09" transform="translate(-39.52 195.65) rotate(-45)"/></g></g></svg>