<svg xmlns="http://www.w3.org/2000/svg" viewBox="0 0 86.45 73.57"><defs><style>.cls-1,.cls-5{fill:#ccc;}.cls-1{stroke:#000;stroke-miterlimit:10;stroke-width:2px;}.cls-2{fill:#40a629;}.cls-3{fill:#2e58a6;}.cls-4{fill:#4fa0ca;}</style></defs><title>pulsazul_vo</title><g id="Capa_2" data-name="Capa 2"><g id="Capa_31" data-name="Capa 31"><rect class="cls-1" x="7.46" y="1" width="71.57" height="71.57" rx="5.19" ry="5.19"/><circle cx="18.59" cy="12.13" r="4.75"/><circle cx="67.9" cy="61.44" r="4.75"/><circle cx="18.59" cy="61.44" r="4.75"/><circle cx="67.9" cy="12.13" r="4.75"/><path class="cls-2" d="M59.72,20.3a23.3,23.3,0,0,1,1.61,31.19v0A23.32,23.32,0,0,1,28.51,18.7h0A23.3,23.3,0,0,1,59.72,20.3Z"/><path class="cls-3" d="M61.32,51.5c-.5.6-1,1.19-1.59,1.76a23.31,23.31,0,0,1-33-33c.56-.57,1.15-1.09,1.75-1.59a23.32,23.32,0,0,0,32.8,32.8Z"/><path class="cls-4" d="M59.73,20.29a23.31,23.31,0,0,1,1.61,31.19l0,0a23.32,23.32,0,0,1-32.8-32.8l0,0A23.32,23.32,0,0,1,59.73,20.29Z"/><rect class="cls-5" y="32.18" width="15.13" height="9.21" rx="1.09" ry="1.09"/><rect class="cls-5" x="71.32" y="32.18" width="15.13" height="9.21" rx="1.09" ry="1.09"/></g></g></svg>