<svg xmlns="http://www.w3.org/2000/svg" viewBox="0 0 91.85 74.11"><defs><style>.cls-1{fill:#1f1f1e;}.cls-2{fill:#c6c6c5;}.cls-3{fill:#d5d6d8;}.cls-4{fill:#474b4a;}.cls-5{fill:#3c3c3b;}.cls-6{fill:none;stroke:#575756;stroke-linecap:round;stroke-miterlimit:10;stroke-width:2px;}</style></defs><title>sd_v0</title><g id="Capa_2" data-name="Capa 2"><g id="Capa_24" data-name="Capa 24"><path class="cls-1" d="M9,32.74c0-12-3.13-22.35-7.73-27.53A4.32,4.32,0,0,1,4.42,3.87H40.14A4.43,4.43,0,0,1,44.57,8.3V57.18a4.41,4.41,0,0,1-4.43,4.41H4.42a4.45,4.45,0,0,1-3.16-1.32C5.86,55.08,9,44.7,9,32.74Z"/><path class="cls-2" d="M71.51,0H87c2.64,0,4.83,1.86,4.83,4.19v65.7c0,2.33-2.19,4.22-4.83,4.22H71.51c2.64,0,4.83-1.89,4.83-4.22V4.19C76.34,1.86,74.15,0,71.51,0Z"/><path class="cls-3" d="M10.32,59.86c5.43-5.87,9-15.7,9-26.85s-3.56-20.95-9-26.83v-2C10.32,1.86,12.48,0,15.16,0H71.51c2.64,0,4.83,1.86,4.83,4.19v65.7c0,2.33-2.19,4.22-4.83,4.22H15.16c-2.68,0-4.84-1.89-4.84-4.22Z"/><path class="cls-3" d="M10.32,59.86c5.43-5.87,9-15.7,9-26.85s-3.56-20.95-9-26.83v-2C10.32,1.86,12.48,0,15.16,0H71.51c2.64,0,4.83,1.86,4.83,4.19v65.7c0,2.33-2.19,4.22-4.83,4.22H15.16c-2.68,0-4.84-1.89-4.84-4.22Z"/><path class="cls-4" d="M91.85,40.07v-10c0-1.61-1.7-2.92-3.78-2.92H32.28v1.41h51.9c2.09,0,3.78,1.31,3.78,2.92v7.19c0,1.61-1.69,2.92-3.78,2.92H32.28V43H88.07C90.15,43,91.85,41.68,91.85,40.07Z"/><path class="cls-4" d="M32.28,48.66v10a2.89,2.89,0,0,0,2.87,2.91H77.46V60.18H38.09a2.89,2.89,0,0,1-2.86-2.92V50.08a2.89,2.89,0,0,1,2.86-2.92H77.46V45.75H35.15A2.89,2.89,0,0,0,32.28,48.66Z"/><path class="cls-4" d="M32.28,11.46v10a2.89,2.89,0,0,0,2.87,2.92H77.46V23H38.09a2.89,2.89,0,0,1-2.86-2.92V12.87A2.89,2.89,0,0,1,38.09,10H77.46V8.54H35.15A2.89,2.89,0,0,0,32.28,11.46Z"/><path class="cls-5" d="M0,57.18V8.3A4.41,4.41,0,0,1,1.26,5.21C5.86,10.39,9,20.78,9,32.74S5.86,55.08,1.26,60.27A4.4,4.4,0,0,1,0,57.18Z"/><circle class="cls-4" cx="49.21" cy="68.65" r="2.64"/><line class="cls-6" x1="28.03" y1="68.65" x2="47.27" y2="68.65"/></g></g></svg>