<svg xmlns="http://www.w3.org/2000/svg" viewBox="0 0 52.28 102.4"><defs><style>.cls-1{fill:#1a79ab;}.cls-2{fill:#2087b7;}.cls-3,.cls-5{fill:#216096;}.cls-3,.cls-9{stroke:#216096;stroke-miterlimit:10;}.cls-3{opacity:0.29;}.cls-4{opacity:0.44;}.cls-6{fill:#1f6fa6;}.cls-7{fill:#ececec;}.cls-8{fill:#fff;}.cls-9{fill:none;}</style></defs><title>servo_v0</title><g id="Capa_2" data-name="Capa 2"><g id="Capa_24" data-name="Capa 24"><path class="cls-1" d="M17.86,102H5.68A5.19,5.19,0,0,1,.5,96.79V5.68A5.18,5.18,0,0,1,5.68.5H17.86a5.19,5.19,0,0,0-5.18,5.18V96.79A5.19,5.19,0,0,0,17.86,102Z"/><path class="cls-2" d="M51.75,5.3A5,5,0,0,0,48.51.92a2.84,2.84,0,0,0-.58-.2.33.33,0,0,0-.13,0,2.52,2.52,0,0,0-.61-.11,1.41,1.41,0,0,0-.4,0,.71.71,0,0,0-.2,0H17.86a5.19,5.19,0,0,0-5.18,5.18V96.79c0,.18,0,.35,0,.53s0,.26,0,.38a2.62,2.62,0,0,0,.09.38,4.49,4.49,0,0,0,.25.73,3,3,0,0,0,.21.45.82.82,0,0,0,.12.2,1.85,1.85,0,0,0,.21.33,4.13,4.13,0,0,0,.45.55,3.31,3.31,0,0,0,.47.45c.2.15.4.3.61.43a4.86,4.86,0,0,0,.68.35,1.32,1.32,0,0,0,.39.15,1.57,1.57,0,0,0,.29.08,3.63,3.63,0,0,0,.42.1h0l.35,0a4.73,4.73,0,0,0,.53,0H46.59a5.2,5.2,0,0,0,5.2-5.2V5.68A1.2,1.2,0,0,0,51.75,5.3ZM46,75.06a1.35,1.35,0,0,1,.71-.22,1.3,1.3,0,1,1,0,2.59,1.34,1.34,0,0,1-.71-.21A1.17,1.17,0,0,0,46,75.06Z"/><path class="cls-2" d="M51.75,5.3A5,5,0,0,0,48.51.92a2.84,2.84,0,0,0-.58-.2.33.33,0,0,0-.13,0,2.52,2.52,0,0,0-.61-.11,1.41,1.41,0,0,0-.4,0,.71.71,0,0,0-.2,0H17.86a5.19,5.19,0,0,0-5.18,5.18V96.79c0,.18,0,.35,0,.53s0,.26,0,.38a2.62,2.62,0,0,0,.09.38,4.49,4.49,0,0,0,.25.73,3,3,0,0,0,.21.45.82.82,0,0,0,.12.2,1.85,1.85,0,0,0,.21.33,4.13,4.13,0,0,0,.45.55,3.31,3.31,0,0,0,.47.45c.2.15.4.3.61.43a4.86,4.86,0,0,0,.68.35,1.32,1.32,0,0,0,.39.15,1.57,1.57,0,0,0,.29.08,3.63,3.63,0,0,0,.42.1h0l.35,0a4.73,4.73,0,0,0,.53,0H46.59a5.2,5.2,0,0,0,5.2-5.2V5.68A1.2,1.2,0,0,0,51.75,5.3ZM46,75.06a1.35,1.35,0,0,1,.71-.22,1.3,1.3,0,1,1,0,2.59,1.34,1.34,0,0,1-.71-.21A1.17,1.17,0,0,0,46,75.06Z"/><path class="cls-3" d="M48.48,76.14a22.35,22.35,0,1,1-32.9-19.7,12.83,12.83,0,1,1,21.1,0A22.33,22.33,0,0,1,48.48,76.14Z"/><g class="cls-4"><path class="cls-5" d="M25,57.7a4,4,0,0,1-.5-.07l-.93,1.1a.59.59,0,0,1-1-.33L22.46,57,22,56.71l-1.23.77a.59.59,0,0,1-.88-.64l.35-1.41a4.44,4.44,0,0,1-.37-.38l-1.41.36a.59.59,0,0,1-.64-.89l.77-1.23c-.09-.15-.17-.31-.25-.47l-1.44-.1a.59.59,0,0,1-.34-1l1.12-.92a4.68,4.68,0,0,1-.09-.54l-1.34-.53a.59.59,0,0,1,0-1.1l1.34-.54a4.89,4.89,0,0,1,.09-.53l-1.12-.92a.59.59,0,0,1,.34-1l1.44-.1c.08-.16.16-.32.25-.48l-.77-1.22a.59.59,0,0,1,.64-.89l1.41.35c.12-.13.24-.25.37-.37l-.35-1.41a.59.59,0,0,1,.88-.64l1.23.77a5.39,5.39,0,0,1,.48-.25l.1-1.44a.59.59,0,0,1,1-.34l.93,1.11a4,4,0,0,1,.5-.07A10.25,10.25,0,0,0,25,57.7Z"/><path class="cls-5" d="M26.84,39.61a9.67,9.67,0,0,0-1.77.94l.53-1.33a.58.58,0,0,1,1.08,0Z"/><path class="cls-5" d="M26.83,58.67l-.15.38a.58.58,0,0,1-1.08,0l-.53-1.32A9.59,9.59,0,0,0,26.83,58.67Z"/><path class="cls-5" d="M36.05,49.69l-1.33.53a4.68,4.68,0,0,1-.1.54l1.12.92a.59.59,0,0,1-.34,1l-1.43.1c-.08.17-.17.33-.26.49l.77,1.21a.59.59,0,0,1-.64.89l-1.4-.36a4.54,4.54,0,0,1-.38.38l.35,1.41a.58.58,0,0,1-.88.64l-1.23-.77-.48.25-.1,1.44a.58.58,0,0,1-1,.33l-.94-1.1-.53.08-.39,1a9.59,9.59,0,0,1-1.76-.94v0h0a10.25,10.25,0,0,1,0-17.12h0v0a9.67,9.67,0,0,1,1.77-.94l.38,1,.53.08.94-1.11a.58.58,0,0,1,1,.34l.1,1.44.49.25,1.22-.77a.59.59,0,0,1,.88.64l-.35,1.41c.13.12.26.24.38.37l1.4-.35a.59.59,0,0,1,.64.89L33.71,45l.26.49,1.43.1a.59.59,0,0,1,.34,1l-1.12.92a4.94,4.94,0,0,1,.1.53l1.33.54A.6.6,0,0,1,36.05,49.69Z"/><path class="cls-6" d="M36.05,49.69l-1.33.53a4.68,4.68,0,0,1-.1.54l1.12.92a.59.59,0,0,1-.34,1l-1.43.1c-.08.17-.17.33-.26.49l.77,1.21a.59.59,0,0,1-.64.89l-1.4-.36a4.54,4.54,0,0,1-.38.38l.35,1.41a.58.58,0,0,1-.88.64l-1.23-.77-.48.25-.1,1.44a.58.58,0,0,1-1,.33l-.94-1.1-.53.08-.39,1a9.59,9.59,0,0,1-1.76-.94.05.05,0,0,1,0,0,10.25,10.25,0,0,1,0-17.12.05.05,0,0,1,0,0,9.67,9.67,0,0,1,1.77-.94l.38,1,.53.08.94-1.11a.58.58,0,0,1,1,.34l.1,1.44.49.25,1.22-.77a.59.59,0,0,1,.88.64l-.35,1.41c.13.12.26.24.38.37l1.4-.35a.59.59,0,0,1,.64.89L33.71,45l.26.49,1.43.1a.59.59,0,0,1,.34,1l-1.12.92a4.94,4.94,0,0,1,.1.53l1.33.54A.6.6,0,0,1,36.05,49.69Z"/></g><path class="cls-5" d="M24.07,92.18a9.43,9.43,0,0,1-.95-.14l-1.75,2.07a1.1,1.1,0,0,1-1.94-.62l-.19-2.71c-.29-.14-.59-.3-.88-.47l-2.31,1.45a1.1,1.1,0,0,1-1.65-1.2l.66-2.64a6.61,6.61,0,0,1-.7-.7l-2.65.67a1.11,1.11,0,0,1-1.2-1.67L12,83.92c-.17-.3-.33-.59-.47-.89l-2.7-.19a1.1,1.1,0,0,1-.63-1.94l2.09-1.73a8.18,8.18,0,0,1-.17-1l-2.51-1a1.1,1.1,0,0,1,0-2l2.51-1a8.35,8.35,0,0,1,.17-1L8.16,71.38a1.11,1.11,0,0,1,.63-1.95l2.7-.19c.14-.31.3-.6.47-.9l-1.45-2.28a1.11,1.11,0,0,1,1.2-1.67l2.65.65c.21-.23.45-.46.7-.7l-.66-2.63a1.09,1.09,0,0,1,1.65-1.19L18.34,62l.9-.47.19-2.69a1.1,1.1,0,0,1,1.94-.64l1.75,2.09a7.24,7.24,0,0,1,.95-.14,19.21,19.21,0,0,0,0,32.08Z"/><path class="cls-5" d="M27.46,58.28a18.62,18.62,0,0,0-3.33,1.77l1-2.49a1.1,1.1,0,0,1,2,0Z"/><path class="cls-5" d="M27.44,94l-.28.72a1.09,1.09,0,0,1-2,0l-1-2.47A17.47,17.47,0,0,0,27.44,94Z"/><path class="cls-5" d="M44.73,77.15h0l-2.5,1c-.05.34-.1.69-.17,1l1.38,1.14.7.59a1.1,1.1,0,0,1-.64,1.94L40.81,83c-.16.31-.31.62-.49.92l1.44,2.27a1.11,1.11,0,0,1-1.2,1.67l-2.62-.67a9.37,9.37,0,0,1-.71.7l.65,2.64a1.1,1.1,0,0,1-1.65,1.2l-2.3-1.45c-.3.17-.59.33-.9.47l-.17,2.71a1.11,1.11,0,0,1-1.95.62L29.15,92l-1,.16L27.44,94a17.17,17.17,0,0,1-3.31-1.75l0,0a.06.06,0,0,1-.05,0,19.22,19.22,0,0,1,0-32.08.06.06,0,0,1,.05,0l0,0a18.62,18.62,0,0,1,3.33-1.77l.71,1.8c.33.05.66.09,1,.16l1.76-2.09a1.11,1.11,0,0,1,1.95.64L33,61.48c.31.16.62.31.91.47l2.29-1.43a1.09,1.09,0,0,1,1.65,1.19l-.65,2.63.71.7,2.62-.65a1.11,1.11,0,0,1,1.2,1.67l-1.44,2.27c.18.29.33.6.49.91l2.67.19a1.11,1.11,0,0,1,.64,1.95l-.7.59L42,73.1c.07.33.12.66.17,1l2.5,1,0,0A1.09,1.09,0,0,1,44.73,77.15Z"/><path class="cls-6" d="M44.73,77.15h0l-2.5,1c-.05.34-.1.69-.17,1l1.38,1.14.7.59a1.1,1.1,0,0,1-.64,1.94L40.81,83c-.16.31-.31.62-.49.92l1.44,2.27a1.11,1.11,0,0,1-1.2,1.67l-2.62-.67a9.37,9.37,0,0,1-.71.7l.65,2.64a1.1,1.1,0,0,1-1.65,1.2l-2.3-1.45c-.3.17-.59.33-.9.47l-.17,2.71a1.11,1.11,0,0,1-1.95.62L29.15,92l-1,.16L27.44,94a17.17,17.17,0,0,1-3.31-1.75.1.1,0,0,1-.07,0,19.22,19.22,0,0,1,0-32.08.08.08,0,0,1,.07-.05,18.62,18.62,0,0,1,3.33-1.77l.71,1.8c.33.05.66.09,1,.16l1.76-2.09a1.11,1.11,0,0,1,1.95.64L33,61.48c.31.16.62.31.91.47l2.29-1.43a1.09,1.09,0,0,1,1.65,1.19l-.65,2.63.71.7,2.62-.65a1.11,1.11,0,0,1,1.2,1.67l-1.44,2.27c.18.29.33.6.49.91l2.67.19a1.11,1.11,0,0,1,.64,1.95l-.7.59L42,73.1c.07.33.12.66.17,1l2.5,1,0,0A1.09,1.09,0,0,1,44.73,77.15Z"/><path class="cls-7" d="M26.78,83.5a.71.71,0,0,1-.64.36.77.77,0,0,1-.72-.48.92.92,0,0,1-.05-.28.12.12,0,0,1,0-.08c-.22,0-.45-.07-.67-.12a.53.53,0,0,1-.15.35.73.73,0,0,1-.58.26.75.75,0,0,1-.76-.71.69.69,0,0,1,.08-.37,4.73,4.73,0,0,1-.6-.29.61.61,0,0,1-.25.28.77.77,0,0,1-1.18-.65.68.68,0,0,1,0-.2.59.59,0,0,1,.2-.33,3.39,3.39,0,0,1-.46-.47.62.62,0,0,1-.34.2.77.77,0,0,1-1-.75.82.82,0,0,1,.13-.41.87.87,0,0,1,.27-.27,3.19,3.19,0,0,1-.3-.58.64.64,0,0,1-.37.09.78.78,0,0,1-.71-.77.74.74,0,0,1,.61-.73c0-.22-.06-.45-.1-.66a.63.63,0,0,1-.38,0,.78.78,0,0,1-.48-.71.81.81,0,0,1,.48-.72,1,1,0,0,1,.3,0,.12.12,0,0,1,.08,0c0-.22.07-.45.1-.66a.76.76,0,0,1-.33-.15.77.77,0,0,1-.28-.59.75.75,0,0,1,.71-.76.63.63,0,0,1,.37.07q.15-.3.3-.57a1,1,0,0,1-.27-.28.75.75,0,0,1,.63-1.16h.2a.69.69,0,0,1,.34.2A2.86,2.86,0,0,1,21.5,71a.63.63,0,0,1-.2-.33.79.79,0,0,1,.77-1,.74.74,0,0,1,.39.12,1,1,0,0,1,.27.28,3.19,3.19,0,0,1,.58-.3.64.64,0,0,1-.08-.36.78.78,0,0,1,.78-.73.71.71,0,0,1,.56.28.51.51,0,0,1,.15.35c.22,0,.45-.09.67-.12a.53.53,0,0,1,0-.37.78.78,0,0,1,.72-.48.72.72,0,0,1,.64.37,7.72,7.72,0,0,0,0,14.72Z"/><path class="cls-8" d="M33,76.89c0,.21-.06.44-.11.66a.7.7,0,0,1,.35.15.76.76,0,0,1-.45,1.35.68.68,0,0,1-.37-.09,5.18,5.18,0,0,1-.28.58.87.87,0,0,1,.27.27A.77.77,0,0,1,31.77,81a.68.68,0,0,1-.19,0,.76.76,0,0,1-.33-.18,4.16,4.16,0,0,1-.48.46.64.64,0,0,1,.2.32.77.77,0,0,1-.75,1,.78.78,0,0,1-.4-.11.77.77,0,0,1-.26-.28,4.48,4.48,0,0,1-.58.29.8.8,0,0,1,.08.37.76.76,0,0,1-.78.71.78.78,0,0,1-.58-.26.53.53,0,0,1-.15-.35L26.9,83a.66.66,0,0,1,0,.36.29.29,0,0,1-.07.12,7.72,7.72,0,0,1,0-14.72.21.21,0,0,1,.07.11,1,1,0,0,1,0,.29.12.12,0,0,1,0,.08c.22,0,.45.07.67.12A.51.51,0,0,1,27.7,69a.77.77,0,0,1,.58-.28.78.78,0,0,1,.78.73.73.73,0,0,1-.08.36,4.87,4.87,0,0,1,.56.28,1,1,0,0,1,.28-.26.76.76,0,0,1,1.17.65.71.71,0,0,1,0,.2.62.62,0,0,1-.2.31,3.63,3.63,0,0,1,.48.48.7.7,0,0,1,.33-.2.77.77,0,0,1,1,.75.76.76,0,0,1-.11.4,1,1,0,0,1-.27.28,5,5,0,0,1,.28.57.67.67,0,0,1,.37-.07.75.75,0,0,1,.73.76.84.84,0,0,1-.28.59.7.7,0,0,1-.35.15h0c.05.22.08.43.11.65a.59.59,0,0,1,.37,0,.81.81,0,0,1,.48.72.78.78,0,0,1-.48.71.69.69,0,0,1-.28.05Z"/><circle class="cls-6" cx="36.42" cy="76.14" r="1.3"/><path class="cls-2" d="M48,76.14a1.3,1.3,0,0,1-1.3,1.29,1.32,1.32,0,0,1-.71-.21,1.17,1.17,0,0,0,0-2.16,1.32,1.32,0,0,1,.71-.22A1.3,1.3,0,0,1,48,76.14Z"/><path class="cls-6" d="M46,77.22a1.28,1.28,0,0,1,0-2.16A1.17,1.17,0,0,1,46,77.22Z"/><rect class="cls-9" x="0.5" y="0.5" width="51.28" height="101.4" rx="3.22" ry="3.22"/><path class="cls-7" d="M27.41,13.71A3.71,3.71,0,0,0,24.61,17L21,76.14H18.34L22,17a3.94,3.94,0,0,1,4.1-3.46A4.61,4.61,0,0,1,27.41,13.71Z"/><path class="cls-8" d="M33.86,76.14H21L24.61,17a3.71,3.71,0,0,1,2.8-3.27A3.71,3.71,0,0,1,30.2,17Z"/><path class="cls-8" d="M33.86,76.14H21L24.61,17a3.71,3.71,0,0,1,2.8-3.27A3.71,3.71,0,0,1,30.2,17Z"/><circle class="cls-6" cx="26.14" cy="76.14" r="1.3"/><circle class="cls-6" cx="26.14" cy="69.81" r="1.3"/><circle class="cls-6" cx="26.14" cy="57.16" r="1.3"/><circle class="cls-6" cx="26.14" cy="63.49" r="1.3"/><circle class="cls-6" cx="26.14" cy="44.52" r="1.3"/><circle class="cls-6" cx="26.14" cy="50.84" r="1.3"/><circle class="cls-6" cx="26.14" cy="31.87" r="1.3"/><circle class="cls-6" cx="26.14" cy="38.19" r="1.3"/><circle class="cls-6" cx="13.71" cy="25.54" r="1.3"/><circle class="cls-6" cx="13.71" cy="19.22" r="1.3"/></g></g></svg>