<svg xmlns="http://www.w3.org/2000/svg" viewBox="0 0 55.77 55.77"><defs><style>.cls-1{fill:#323634;}.cls-2{fill:#474b4a;}.cls-3{fill:#878787;}.cls-4{fill:#b9bbc1;}</style></defs><title>tilt_v0</title><g id="Capa_2" data-name="Capa 2"><g id="Capa_31" data-name="Capa 31"><circle class="cls-1" cx="27.89" cy="27.89" r="27.89"/><path class="cls-2" d="M29.47,55.73a27.88,27.88,0,0,1,0-55.68Z"/><path class="cls-3" d="M52.11,27.89A24.22,24.22,0,0,1,29.77,52c-.62.06-1.24.09-1.89.09a24.23,24.23,0,1,1,0-48.46c.65,0,1.27,0,1.89.08A24.22,24.22,0,0,1,52.11,27.89Z"/><path class="cls-4" d="M52.11,27.89A24.22,24.22,0,0,1,29.77,52a24.22,24.22,0,0,1,0-48.29A24.22,24.22,0,0,1,52.11,27.89Z"/></g></g></svg>