<svg xmlns="http://www.w3.org/2000/svg" viewBox="0 0 14.42 14.42"><defs><style>.cls-1{fill:#c6c6c5;}.cls-2{fill:#d9d9d9;}.cls-3{fill:#b1b1b1;}</style></defs><title>tornillo_v0</title><g id="Capa_2" data-name="Capa 2"><g id="Capa_24" data-name="Capa 24"><path class="cls-1" d="M0,7.22a7.17,7.17,0,0,0,6.19,7.11,5.06,5.06,0,0,0,1,.09A7.21,7.21,0,0,0,7.22,0a5.06,5.06,0,0,0-1,.09A7.19,7.19,0,0,0,0,7.22Z"/><path class="cls-2" d="M0,7.22a7.17,7.17,0,0,0,6.19,7.11A7.19,7.19,0,0,0,6.19.09,7.19,7.19,0,0,0,0,7.22Z"/><rect class="cls-3" x="6.19" y="1.34" width="2.04" height="11.74" rx="0.24" ry="0.24"/><rect class="cls-3" x="1.34" y="6.14" width="11.74" height="2.15" rx="0.24" ry="0.24"/></g></g></svg>