<svg xmlns="http://www.w3.org/2000/svg" viewBox="0 0 164.07 80.88"><defs><style>.cls-1{fill:#827973;}.cls-2{fill:#1a2867;}.cls-3{fill:#d4d1ca;}.cls-4{fill:#fff;}.cls-5{fill:#bab4ac;stroke:#666;stroke-width:0.5px;}.cls-12,.cls-5{stroke-miterlimit:10;}.cls-6{fill:#b7bc8e;}.cls-7{fill:#b1b1b1;}.cls-8{fill:#d9d9d9;}.cls-9{fill:#6f6f6e;}.cls-10{fill:#9c9b9b;}.cls-11{fill:#c6c6c5;}.cls-12{fill:none;stroke:#000;stroke-width:0.25px;}</style></defs><title>ultrasonidos_v0</title><g id="Capa_2" data-name="Capa 2"><g id="Capa_31" data-name="Capa 31"><rect class="cls-1" x="65.68" y="71.49" width="2.29" height="9.39"/><rect class="cls-1" x="75.03" y="71.49" width="2.29" height="9.39"/><rect class="cls-1" x="84.24" y="71.49" width="2.29" height="9.39"/><rect class="cls-1" x="93.46" y="71.49" width="2.29" height="9.39"/><rect class="cls-2" width="164.07" height="73.47" rx="3.14" ry="3.14"/><circle class="cls-3" cx="5.6" cy="5.38" r="3.94"/><circle class="cls-4" cx="5.6" cy="5.38" r="2.97"/><circle class="cls-3" cx="5.6" cy="68.68" r="3.94"/><circle class="cls-4" cx="5.6" cy="68.68" r="2.97"/><circle class="cls-3" cx="158.51" cy="5.38" r="3.94"/><circle class="cls-4" cx="158.51" cy="5.38" r="2.97"/><circle class="cls-3" cx="158.51" cy="68.68" r="3.94"/><circle class="cls-4" cx="158.51" cy="68.68" r="2.97"/><rect class="cls-5" x="63.43" y="3.11" width="36.47" height="13.92" rx="5.21" ry="5.21"/><rect class="cls-6" x="63.83" y="65.65" width="6.12" height="5.84" rx="1.2" ry="1.2"/><rect class="cls-6" x="73.11" y="65.65" width="6.12" height="5.84" rx="1.2" ry="1.2"/><rect class="cls-6" x="82.47" y="65.65" width="6.12" height="5.84" rx="1.2" ry="1.2"/><rect class="cls-6" x="91.54" y="65.65" width="6.12" height="5.84" rx="1.2" ry="1.2"/><path class="cls-7" d="M66.09,37.16A27.84,27.84,0,0,1,39.32,65l-1.06,0a27.84,27.84,0,1,1,0-55.67l1.06,0A27.84,27.84,0,0,1,66.09,37.16Z"/><path class="cls-8" d="M66.09,37.16A27.84,27.84,0,0,1,39.32,65a27.84,27.84,0,0,1,0-55.63A27.84,27.84,0,0,1,66.09,37.16Z"/><circle class="cls-9" cx="38.26" cy="37.16" r="23.32"/><circle class="cls-10" cx="38.26" cy="37.16" r="18.02"/><circle class="cls-11" cx="38.26" cy="37.16" r="11.68"/><line class="cls-12" x1="32.76" y1="59.33" x2="16.13" y2="42.69"/><line class="cls-12" x1="35.99" y1="59.94" x2="15.51" y2="39.46"/><line class="cls-12" x1="38.79" y1="60.11" x2="15.35" y2="36.67"/><line class="cls-12" x1="41.26" y1="59.97" x2="15.49" y2="34.2"/><line class="cls-12" x1="43.54" y1="59.61" x2="15.84" y2="31.92"/><line class="cls-12" x1="45.61" y1="59.07" x2="16.38" y2="29.84"/><line class="cls-12" x1="47.54" y1="58.39" x2="17.06" y2="27.91"/><line class="cls-12" x1="49.35" y1="57.56" x2="17.9" y2="26.11"/><line class="cls-12" x1="51.02" y1="56.62" x2="18.84" y2="24.44"/><line class="cls-12" x1="52.53" y1="55.52" x2="19.89" y2="22.88"/><line class="cls-12" x1="45.87" y1="15.35" x2="60.02" y2="29.5"/><line class="cls-12" x1="42.27" y1="14.39" x2="60.98" y2="33.1"/><line class="cls-12" x1="39.29" y1="14.02" x2="61.35" y2="36.08"/><line class="cls-12" x1="36.66" y1="14.02" x2="61.35" y2="38.71"/><line class="cls-12" x1="34.31" y1="14.29" x2="61.08" y2="41.05"/><line class="cls-12" x1="32.14" y1="14.73" x2="60.64" y2="43.22"/><line class="cls-12" x1="30.13" y1="15.35" x2="60.02" y2="45.24"/><line class="cls-12" x1="28.27" y1="16.1" x2="59.26" y2="47.1"/><line class="cls-12" x1="26.54" y1="16.99" x2="58.38" y2="48.83"/><line class="cls-12" x1="24.91" y1="17.99" x2="57.38" y2="50.46"/><line class="cls-12" x1="23.91" y1="19.27" x2="56.09" y2="51.46"/><line class="cls-12" x1="22.4" y1="20.38" x2="55.04" y2="53.01"/><line class="cls-12" x1="21.21" y1="21.7" x2="53.67" y2="54.16"/><line class="cls-12" x1="60.2" y1="44.42" x2="46.04" y2="58.57"/><line class="cls-12" x1="61.16" y1="40.82" x2="42.45" y2="59.53"/><line class="cls-12" x1="61.52" y1="37.84" x2="39.47" y2="59.9"/><line class="cls-12" x1="61.52" y1="35.21" x2="36.83" y2="59.9"/><line class="cls-12" x1="61.25" y1="32.86" x2="34.49" y2="59.63"/><line class="cls-12" x1="60.81" y1="30.69" x2="32.32" y2="59.19"/><line class="cls-12" x1="60.2" y1="28.68" x2="30.3" y2="58.57"/><line class="cls-12" x1="59.44" y1="26.82" x2="28.44" y2="57.81"/><line class="cls-12" x1="58.56" y1="25.09" x2="26.72" y2="56.93"/><line class="cls-12" x1="57.55" y1="23.46" x2="25.09" y2="55.92"/><line class="cls-12" x1="16.22" y1="31.31" x2="32.85" y2="14.68"/><line class="cls-12" x1="15.6" y1="34.54" x2="36.08" y2="14.06"/><line class="cls-12" x1="15.44" y1="37.34" x2="38.88" y2="13.9"/><line class="cls-12" x1="15.58" y1="39.81" x2="41.35" y2="14.04"/><line class="cls-12" x1="15.93" y1="42.09" x2="43.63" y2="14.39"/><line class="cls-12" x1="16.47" y1="44.16" x2="45.7" y2="14.93"/><line class="cls-12" x1="17.15" y1="46.09" x2="47.63" y2="15.61"/><line class="cls-12" x1="17.99" y1="47.89" x2="49.44" y2="16.45"/><line class="cls-12" x1="18.93" y1="49.57" x2="51.11" y2="17.38"/><line class="cls-12" x1="20.03" y1="51.08" x2="52.66" y2="18.44"/><line class="cls-12" x1="21.24" y1="52.17" x2="53.71" y2="19.7"/><line class="cls-12" x1="22.63" y1="53.27" x2="54.81" y2="21.09"/><line class="cls-12" x1="23.73" y1="54.79" x2="56.37" y2="22.15"/><path class="cls-7" d="M152.91,37.16A27.84,27.84,0,0,1,126.14,65l-1.07,0a27.84,27.84,0,1,1,0-55.67l1.07,0A27.85,27.85,0,0,1,152.91,37.16Z"/><path class="cls-8" d="M152.91,37.16A27.84,27.84,0,0,1,126.14,65a27.83,27.83,0,0,1,0-55.63A27.85,27.85,0,0,1,152.91,37.16Z"/><circle class="cls-9" cx="125.07" cy="37.16" r="23.32"/><circle class="cls-10" cx="125.07" cy="37.16" r="18.02"/><circle class="cls-11" cx="125.07" cy="37.16" r="11.68"/><line class="cls-12" x1="119.58" y1="59.33" x2="102.94" y2="42.69"/><line class="cls-12" x1="122.81" y1="59.94" x2="102.33" y2="39.46"/><line class="cls-12" x1="125.6" y1="60.11" x2="102.16" y2="36.67"/><line class="cls-12" x1="128.08" y1="59.97" x2="102.3" y2="34.2"/><line class="cls-12" x1="130.35" y1="59.61" x2="102.66" y2="31.92"/><line class="cls-12" x1="132.43" y1="59.07" x2="103.2" y2="29.84"/><line class="cls-12" x1="134.36" y1="58.39" x2="103.88" y2="27.91"/><line class="cls-12" x1="136.16" y1="57.56" x2="104.71" y2="26.11"/><line class="cls-12" x1="137.84" y1="56.62" x2="105.65" y2="24.44"/><line class="cls-12" x1="139.35" y1="55.52" x2="106.71" y2="22.88"/><line class="cls-12" x1="132.68" y1="15.35" x2="146.84" y2="29.5"/><line class="cls-12" x1="129.09" y1="14.39" x2="147.8" y2="33.1"/><line class="cls-12" x1="126.11" y1="14.02" x2="148.16" y2="36.08"/><line class="cls-12" x1="123.47" y1="14.02" x2="148.16" y2="38.71"/><line class="cls-12" x1="121.13" y1="14.29" x2="147.89" y2="41.05"/><line class="cls-12" x1="118.96" y1="14.73" x2="147.45" y2="43.22"/><line class="cls-12" x1="116.94" y1="15.35" x2="146.84" y2="45.24"/><line class="cls-12" x1="115.08" y1="16.1" x2="146.08" y2="47.1"/><line class="cls-12" x1="113.36" y1="16.99" x2="145.2" y2="48.83"/><line class="cls-12" x1="111.73" y1="17.99" x2="144.19" y2="50.46"/><line class="cls-12" x1="110.73" y1="19.27" x2="142.91" y2="51.46"/><line class="cls-12" x1="109.22" y1="20.38" x2="141.85" y2="53.01"/><line class="cls-12" x1="108.02" y1="21.7" x2="140.49" y2="54.16"/><line class="cls-12" x1="147.01" y1="44.42" x2="132.86" y2="58.57"/><line class="cls-12" x1="147.97" y1="40.82" x2="129.26" y2="59.53"/><line class="cls-12" x1="148.34" y1="37.84" x2="126.28" y2="59.9"/><line class="cls-12" x1="148.34" y1="35.21" x2="123.65" y2="59.9"/><line class="cls-12" x1="148.07" y1="32.86" x2="121.31" y2="59.63"/><line class="cls-12" x1="147.63" y1="30.69" x2="119.14" y2="59.19"/><line class="cls-12" x1="147.01" y1="28.68" x2="117.12" y2="58.57"/><line class="cls-12" x1="146.26" y1="26.82" x2="115.26" y2="57.81"/><line class="cls-12" x1="145.37" y1="25.09" x2="113.53" y2="56.93"/><line class="cls-12" x1="144.37" y1="23.46" x2="111.9" y2="55.92"/><line class="cls-12" x1="103.03" y1="31.31" x2="119.67" y2="14.68"/><line class="cls-12" x1="102.42" y1="34.54" x2="122.9" y2="14.06"/><line class="cls-12" x1="102.25" y1="37.34" x2="125.69" y2="13.9"/><line class="cls-12" x1="102.39" y1="39.81" x2="128.17" y2="14.04"/><line class="cls-12" x1="102.75" y1="42.09" x2="130.44" y2="14.39"/><line class="cls-12" x1="103.29" y1="44.16" x2="132.52" y2="14.93"/><line class="cls-12" x1="103.97" y1="46.09" x2="134.45" y2="15.61"/><line class="cls-12" x1="104.8" y1="47.89" x2="136.25" y2="16.45"/><line class="cls-12" x1="105.74" y1="49.57" x2="137.93" y2="17.38"/><line class="cls-12" x1="106.84" y1="51.08" x2="139.48" y2="18.44"/><line class="cls-12" x1="108.06" y1="52.17" x2="140.52" y2="19.7"/><line class="cls-12" x1="109.45" y1="53.27" x2="141.63" y2="21.09"/><line class="cls-12" x1="110.55" y1="54.79" x2="143.19" y2="22.15"/></g></g></svg>