<svg xmlns="http://www.w3.org/2000/svg" viewBox="0 0 116.85 67.02"><defs><style>.cls-1{fill:#3c3c3b;}.cls-2{fill:#474b4a;}.cls-3,.cls-6,.cls-8{fill:none;stroke:#caba9f;stroke-miterlimit:10;}.cls-3,.cls-8{stroke-linecap:round;}.cls-3{stroke-width:2px;}.cls-4{fill:#1d1d1b;}.cls-5{fill:#b9bbc1;}.cls-6{stroke-width:0.25px;}.cls-7{fill:#caba9f;}.cls-8{stroke-width:0.5px;}.cls-9{fill:#d9d9d9;}</style></defs><title>wifi_v0</title><g id="Capa_2" data-name="Capa 2"><g id="Capa_24" data-name="Capa 24"><path class="cls-1" d="M116.85,36.4V61.55A5.48,5.48,0,0,1,111.39,67H5.47A5.48,5.48,0,0,1,0,61.55V36.4a5.48,5.48,0,0,0,5.47,5.46H111.39A5.47,5.47,0,0,0,116.85,36.4Z"/><path class="cls-2" d="M116.85,5.47V36.4a5.47,5.47,0,0,1-5.46,5.46H5.47A5.48,5.48,0,0,1,0,36.4V5.47A5.47,5.47,0,0,1,5.47,0H111.39A5.46,5.46,0,0,1,116.85,5.47Z"/><path class="cls-2" d="M116.85,5.47V36.4a5.47,5.47,0,0,1-5.46,5.46H5.47A5.48,5.48,0,0,1,0,36.4V5.47A5.47,5.47,0,0,1,5.47,0H111.39A5.46,5.46,0,0,1,116.85,5.47Z"/><path class="cls-3" d="M82.31,8.35h29.42a1.52,1.52,0,0,1,1.52,1.52v2.81a1.52,1.52,0,0,1-1.52,1.52h-15a1.52,1.52,0,0,0-1.52,1.51v2.48a1.52,1.52,0,0,0,1.52,1.52h15a1.52,1.52,0,0,1,1.52,1.52v2.64a1.52,1.52,0,0,1-1.52,1.52H96.91a1.52,1.52,0,0,0-1.52,1.52v2.45a1.52,1.52,0,0,0,1.52,1.52h14.82a1.52,1.52,0,0,1,1.52,1.52v2.77a1.52,1.52,0,0,1-1.52,1.52H97.32a1.52,1.52,0,0,0-1.51,1.52v2.36a1.52,1.52,0,0,0,1.51,1.52h14.41a1.52,1.52,0,0,1,1.52,1.52V60.78"/><path class="cls-4" d="M65.71,37l-.33,0H47.45a1.72,1.72,0,0,1-.46,0,3.8,3.8,0,0,1-3.31-3.3,2.32,2.32,0,0,1,0-.46V15.24a3.11,3.11,0,0,1,0-.33A3.82,3.82,0,0,1,47,11.6a2.27,2.27,0,0,1,.46,0H65.26a2.22,2.22,0,0,1,.45,0A3.82,3.82,0,0,1,69,14.91a2.32,2.32,0,0,1,0,.46V33.18a3.7,3.7,0,0,1,0,.47A3.86,3.86,0,0,1,65.71,37Z"/><path class="cls-5" d="M70,16.28H68.1a.51.51,0,0,1-.5-.5v-.37a.49.49,0,0,1,.5-.5H70a.48.48,0,0,1,.5.5v.36A.5.5,0,0,1,70,16.28Z"/><path class="cls-5" d="M70,18.21H68.11a.48.48,0,0,1-.5-.5v-.37a.51.51,0,0,1,.5-.5H70a.51.51,0,0,1,.5.5v.38A.48.48,0,0,1,70,18.21Z"/><path class="cls-5" d="M70,20.15H68.11a.53.53,0,0,1-.51-.51v-.37a.48.48,0,0,1,.5-.5H70a.48.48,0,0,1,.5.5v.38A.51.51,0,0,1,70,20.15Z"/><path class="cls-5" d="M70,22.06H68.1a.51.51,0,0,1-.5-.5v-.38a.51.51,0,0,1,.5-.5H70a.51.51,0,0,1,.51.52v.35A.48.48,0,0,1,70,22.06Z"/><path class="cls-5" d="M70,24H68.11a.5.5,0,0,1-.51-.51v-.37a.48.48,0,0,1,.5-.5H70a.51.51,0,0,1,.5.5v.38A.51.51,0,0,1,70,24Z"/><path class="cls-5" d="M70,25.93H68.1a.51.51,0,0,1-.5-.5v-.38a.51.51,0,0,1,.5-.5H70a.5.5,0,0,1,.51.51v.36A.5.5,0,0,1,70,25.93Z"/><path class="cls-5" d="M70,27.86H68.11a.51.51,0,0,1-.51-.52V27a.51.51,0,0,1,.51-.52H70a.52.52,0,0,1,.5.51v.37A.52.52,0,0,1,70,27.86Z"/><path class="cls-5" d="M70,31.71H68.11a.48.48,0,0,1-.5-.5v-.37a.53.53,0,0,1,.51-.51H70a.51.51,0,0,1,.5.5v.38A.51.51,0,0,1,70,31.71Z"/><path class="cls-5" d="M70,33.65H68.1a.52.52,0,0,1-.5-.51v-.36a.48.48,0,0,1,.5-.5H70a.48.48,0,0,1,.5.5v.36A.53.53,0,0,1,70,33.65Z"/><path class="cls-5" d="M70,29.78H68.1a.51.51,0,0,1-.5-.5V28.9a.51.51,0,0,1,.5-.5H70a.48.48,0,0,1,.5.5v.36A.5.5,0,0,1,70,29.78Z"/><path class="cls-5" d="M44.67,16.27h-2a.5.5,0,0,1-.51-.51v-.36a.48.48,0,0,1,.5-.5h1.89a.48.48,0,0,1,.5.5l0,.37A.51.51,0,0,1,44.67,16.27Z"/><rect class="cls-5" x="42.19" y="16.84" width="2.9" height="1.38" rx="0.32" ry="0.32"/><rect class="cls-5" x="42.19" y="18.76" width="2.9" height="1.38" rx="0.32" ry="0.32"/><rect class="cls-5" x="42.19" y="20.69" width="2.9" height="1.38" rx="0.32" ry="0.32"/><rect class="cls-5" x="42.19" y="22.62" width="2.9" height="1.38" rx="0.32" ry="0.32"/><rect class="cls-5" x="42.19" y="24.55" width="2.9" height="1.38" rx="0.32" ry="0.32"/><rect class="cls-5" x="42.19" y="26.48" width="2.9" height="1.38" rx="0.32" ry="0.32"/><rect class="cls-5" x="42.19" y="30.33" width="2.9" height="1.38" rx="0.32" ry="0.32"/><rect class="cls-5" x="42.19" y="32.26" width="2.9" height="1.38" rx="0.32" ry="0.32"/><rect class="cls-5" x="42.19" y="28.4" width="2.9" height="1.38" rx="0.32" ry="0.32"/><path class="cls-5" d="M47.86,13h-.38a.51.51,0,0,1-.5-.5v-1.9a.51.51,0,0,1,.51-.51h.36a.51.51,0,0,1,.51.51v1.9A.51.51,0,0,1,47.86,13Z"/><path class="cls-5" d="M49.77,13h-.35a.48.48,0,0,1-.5-.5V10.61a.51.51,0,0,1,.5-.5h.38a.52.52,0,0,1,.5.5v1.9A.51.51,0,0,1,49.77,13Z"/><path class="cls-5" d="M51.71,13h-.38a.51.51,0,0,1-.5-.5v-1.9a.54.54,0,0,1,.51-.51h.37a.49.49,0,0,1,.5.5v1.9A.51.51,0,0,1,51.71,13Z"/><path class="cls-5" d="M53.64,13h-.37a.48.48,0,0,1-.5-.5v-1.9a.49.49,0,0,1,.5-.5h.37a.51.51,0,0,1,.5.5v1.91A.53.53,0,0,1,53.64,13Z"/><path class="cls-5" d="M55.57,13H55.2a.53.53,0,0,1-.51-.51v-1.9a.53.53,0,0,1,.51-.51h.37a.5.5,0,0,1,.5.5v1.9A.49.49,0,0,1,55.57,13Z"/><path class="cls-5" d="M57.5,13h-.37a.49.49,0,0,1-.51-.5v-1.9a.5.5,0,0,1,.51-.5h.36a.55.55,0,0,1,.52.51v1.9A.52.52,0,0,1,57.5,13Z"/><path class="cls-5" d="M59.42,13h-.37a.53.53,0,0,1-.51-.51V10.61a.51.51,0,0,1,.5-.5h.37a.49.49,0,0,1,.5.5v1.9A.48.48,0,0,1,59.42,13Z"/><path class="cls-5" d="M63.27,13h-.35a.51.51,0,0,1-.52-.51v-1.9a.52.52,0,0,1,.51-.5h.37a.52.52,0,0,1,.51.5v1l0,.95A.48.48,0,0,1,63.27,13Z"/><path class="cls-5" d="M65.21,13h-.38a.51.51,0,0,1-.5-.5v-1.9a.51.51,0,0,1,.51-.51h.37a.49.49,0,0,1,.5.5v1.9A.51.51,0,0,1,65.21,13Z"/><path class="cls-5" d="M61.36,13H61a.51.51,0,0,1-.5-.5v-1.9a.49.49,0,0,1,.5-.5h.37a.51.51,0,0,1,.51.51v1.9A.51.51,0,0,1,61.36,13Z"/><rect class="cls-5" x="46.98" y="35.53" width="1.38" height="2.9" rx="0.32" ry="0.32"/><rect class="cls-5" x="48.91" y="35.53" width="1.38" height="2.9" rx="0.32" ry="0.32"/><rect class="cls-5" x="50.84" y="35.53" width="1.38" height="2.9" rx="0.32" ry="0.32"/><rect class="cls-5" x="52.76" y="35.53" width="1.38" height="2.9" rx="0.32" ry="0.32"/><rect class="cls-5" x="54.69" y="35.53" width="1.38" height="2.9" rx="0.32" ry="0.32"/><rect class="cls-5" x="56.62" y="35.53" width="1.38" height="2.9" rx="0.32" ry="0.32"/><rect class="cls-5" x="58.55" y="35.53" width="1.38" height="2.9" rx="0.32" ry="0.32"/><rect class="cls-5" x="62.41" y="35.53" width="1.38" height="2.9" rx="0.32" ry="0.32"/><path class="cls-5" d="M65.21,38.44h-.37a.49.49,0,0,1-.5-.51V36a.28.28,0,0,1,0-.08.48.48,0,0,1,.49-.42h.36a.48.48,0,0,1,.5.5v1.91A.51.51,0,0,1,65.21,38.44Z"/><rect class="cls-5" x="60.48" y="35.53" width="1.38" height="2.9" rx="0.32" ry="0.32"/><line class="cls-6" x1="61.84" y1="20.77" x2="61.84" y2="20.75"/><circle class="cls-7" cx="55.67" cy="23.07" r="1.34"/><path class="cls-8" d="M54.94,26.23s3.6.06,3.62-3.52"/><path class="cls-8" d="M54.68,27.48s5.13.08,5.16-5"/><path class="cls-8" d="M54.54,28.75s6.56.1,6.6-6.43"/><path class="cls-6" d="M53.38,30.26a6.48,6.48,0,0,1,4.19-11.43,6.45,6.45,0,0,1,5,2.3"/><path class="cls-4" d="M63.09,60.38h-13a2.48,2.48,0,0,1-2.29-2,1.23,1.23,0,0,1,0-.27V47.59a1.11,1.11,0,0,1,0-.19,2.47,2.47,0,0,1,2.29-1.95,1.67,1.67,0,0,1,.32,0H62.77a1.67,1.67,0,0,1,.32,0,2.46,2.46,0,0,1,2.29,1.95,1.18,1.18,0,0,1,0,.27V58.16a2.44,2.44,0,0,1,0,.27A2.49,2.49,0,0,1,63.09,60.38Z"/><path class="cls-5" d="M67.09,50.25H65.23a.47.47,0,0,1-.5-.42v-.3a.46.46,0,0,1,.5-.43H67.1a.45.45,0,0,1,.49.43v.29A.45.45,0,0,1,67.09,50.25Z"/><path class="cls-5" d="M67.1,51.87H65.24a.45.45,0,0,1-.5-.42v-.31a.48.48,0,0,1,.5-.42H67.1a.47.47,0,0,1,.49.42v.32A.44.44,0,0,1,67.1,51.87Z"/><path class="cls-5" d="M67.1,53.5H65.24a.5.5,0,0,1-.51-.43v-.31a.45.45,0,0,1,.5-.42H67.1a.43.43,0,0,1,.49.42v.31A.47.47,0,0,1,67.1,53.5Z"/><path class="cls-5" d="M67.1,55.1H65.23a.48.48,0,0,1-.5-.42v-.32a.48.48,0,0,1,.5-.42h1.86a.46.46,0,0,1,.5.43v.3A.44.44,0,0,1,67.1,55.1Z"/><path class="cls-5" d="M67.1,56.73H65.24a.47.47,0,0,1-.51-.43V56a.45.45,0,0,1,.5-.42H67.1a.47.47,0,0,1,.49.42v.32A.47.47,0,0,1,67.1,56.73Z"/><path class="cls-5" d="M48,50.24H46a.46.46,0,0,1-.5-.43v-.29A.46.46,0,0,1,46,49.1h1.87a.45.45,0,0,1,.49.43v.3A.44.44,0,0,1,48,50.24Z"/><rect class="cls-5" x="45.53" y="50.72" width="2.86" height="1.16" rx="0.32" ry="0.32"/><rect class="cls-5" x="45.53" y="52.33" width="2.86" height="1.16" rx="0.32" ry="0.32"/><rect class="cls-5" x="45.53" y="53.95" width="2.86" height="1.16" rx="0.32" ry="0.32"/><rect class="cls-5" x="45.53" y="55.57" width="2.86" height="1.16" rx="0.32" ry="0.32"/><circle class="cls-7" cx="8.59" cy="16.9" r="3.79"/><circle class="cls-9" cx="8.59" cy="16.9" r="2.92"/><circle class="cls-7" cx="8.59" cy="29.32" r="3.79"/><circle class="cls-9" cx="8.59" cy="29.32" r="2.92"/><circle class="cls-7" cx="8.59" cy="41.73" r="3.79"/><circle class="cls-9" cx="8.59" cy="41.73" r="2.92"/><circle class="cls-7" cx="8.59" cy="54.15" r="3.79"/><circle class="cls-9" cx="8.59" cy="54.15" r="2.92"/><circle class="cls-9" cx="20.74" cy="16.9" r="2.92"/><circle class="cls-9" cx="20.74" cy="29.32" r="2.92"/><circle class="cls-9" cx="20.74" cy="41.73" r="2.92"/><circle class="cls-9" cx="20.74" cy="54.15" r="2.92"/></g></g></svg>