<?xml version="1.0" encoding="utf-8"?>
<!-- Generator: Adobe Illustrator 22.0.0, SVG Export Plug-In . SVG Version: 6.00 Build 0)  -->
<svg version="1.1" xmlns="http://www.w3.org/2000/svg" xmlns:xlink="http://www.w3.org/1999/xlink" x="0px" y="0px"
	 viewBox="0 0 62.5 73.5" enable-background="new 0 0 62.5 73.5" xml:space="preserve">
<g id="Capa_1">
</g>
<g id="Capa_2">
	<defs>
		<path id="SVGID_24_" d="M-470.95-416.34v12.38c0,2.15,2.28,3.47,4.13,2.39l3.45-1.98c1.02-0.6,2.27-0.1,2.7,0.9v12.52
			c0,2.9-2.35,5.24-5.24,5.24h-43.93l-5.89,5.61c-1.43,1.35-4.07,1.35-5.49,0l-5.9-5.61h-3.52c-2.9,0-5.24-2.35-5.24-5.24v-39.89
			c0-2.9,2.35-5.24,5.24-5.24h64.73c2.9,0,5.24,2.35,5.24,5.24v12.37c-0.42,1-1.68,1.5-2.7,0.9l-3.45-1.98
			C-468.67-419.79-470.95-418.45-470.95-416.34z"/>
	</defs>
	<clipPath id="SVGID_2_">
		<use xlink:href="#SVGID_24_"  overflow="visible"/>
	</clipPath>
</g>
<g id="Capa_4">
	<defs>
		<path id="SVGID_26_" d="M-300.66-416.34v12.38c0,2.15,2.28,3.47,4.13,2.39l3.45-1.98c1.02-0.6,2.27-0.1,2.7,0.9v12.52
			c0,2.9-2.35,5.24-5.24,5.24h-43.93l-5.89,5.61c-1.43,1.35-4.07,1.35-5.49,0l-5.9-5.61h-3.52c-2.9,0-5.24-2.35-5.24-5.24v-39.89
			c0-2.9,2.35-5.24,5.24-5.24h64.73c2.9,0,5.24,2.35,5.24,5.24v12.37c-0.42,1-1.68,1.5-2.7,0.9l-3.45-1.98
			C-298.37-419.79-300.66-418.45-300.66-416.34z"/>
	</defs>
	<clipPath id="SVGID_3_">
		<use xlink:href="#SVGID_26_"  overflow="visible"/>
	</clipPath>
</g>
<g id="Capa_3">
	<ellipse fill="#E6E7E7" cx="29.73" cy="69.43" rx="23.91" ry="1.5"/>
	<g>
		<g>
			<path fill="#E5867B" d="M59.05,4.98v50.69c0,1.38-1.11,2.49-2.49,2.49H6.37c-1.38,0-2.49-1.11-2.49-2.49V41.63
				c0-1.28,1.39-2.08,2.49-1.44l3.04,1.74c1.63,0.93,3.65-0.24,3.65-2.1V28.92c0-1.89-2.02-3.05-3.65-2.1l-3.04,1.74
				c-1.1,0.66-2.49-0.15-2.49-1.43V4.98c0-1.38,1.11-2.49,2.49-2.49h50.19C57.94,2.48,59.05,3.6,59.05,4.98z"/>
		</g>
		<g>
			<circle fill="#FFFFFF" cx="36.88" cy="19.6" r="2.47"/>
		</g>
		<g>
			<circle fill="#FFFFFF" cx="50.69" cy="19.6" r="2.47"/>
		</g>
		<g>
			<path fill="#FFFFFF" d="M27.13,26.02c0,8.87,5.83,16.08,13.05,16.08c7.22,0,13.04-7.21,13.04-16.08H27.13z"/>
		</g>
		<g>
			<path fill="#EEECE6" d="M59.07,16.43H3.87c-0.36,0-0.66-0.29-0.66-0.66V7.68c0-0.36,0.29-0.66,0.66-0.66h55.2
				c0.36,0,0.66,0.29,0.66,0.66v8.09C59.73,16.14,59.43,16.43,59.07,16.43z"/>
		</g>
	</g>
</g>
</svg>
