<svg xmlns="http://www.w3.org/2000/svg" viewBox="0 0 228 146.67">
	<title>iconos_svg_v1</title>
	<g id="Capa_3" data-name="Capa 3">
		<rect x="22.57" y="103.46" width="189.12" height="0.7" fill="#c8cbd4"/>
		<g id="Page-1">
			<g id="_014---Finish-Line" data-name="014---Finish-Line">
				<g id="Shape">
					<path d="M55.7,122.38a1.87,1.87,0,0,1-1.85-1.59c-.66-4.39-2.87-19.38-5.31-35.93L45.26,62.55A1.88,1.88,0,0,1,49,62l3.29,22.31c2.44,16.54,4.64,31.53,5.3,35.92a1.87,1.87,0,0,1-.35,1.39,1.83,1.83,0,0,1-1.23.74A.86.86,0,0,1,55.7,122.38Z" fill="#c1a363"/>
				</g>
				<g id="Shape-2" data-name="Shape">
					<path d="M134.6,122.38l-.29,0a1.93,1.93,0,0,1-1.23-.75,1.86,1.86,0,0,1-.34-1.39c.65-4.29,2.78-18.82,5.16-35L141.3,62a1.88,1.88,0,0,1,3.71.55l-3.4,23.19c-2.37,16.22-4.5,30.76-5.15,35.05A1.88,1.88,0,0,1,134.6,122.38Z" fill="#c1a363"/>
				</g>
				<g id="Shape-3" data-name="Shape">
					<path d="M149.6,31.37c-.13.84-.3,2-.53,3.51Q147,48.58,144.92,62.27a2.23,2.23,0,0,1-2.51,1.86,330.47,330.47,0,0,0-94.53,0,2.22,2.22,0,0,1-2.51-1.85c-1.4-9.15-2.79-18.34-4.18-27.49,0-.2,0-.43-.09-.63-.06-.38-.11-.77-.17-1.15,0-.17-.06-.34-.08-.51v0c-.05-.42-.11-.77-.16-1.07a2.25,2.25,0,0,1,1.89-2.56,366.23,366.23,0,0,1,105.12,0A2.26,2.26,0,0,1,149.6,31.37Z" fill="#009f9a" stroke="#fff" stroke-miterlimit="10"/>
				</g>
				<g id="Shape-4" data-name="Shape">
					<path d="M41.1,34.16c-.06-.4-.11-.79-.17-1.15" fill="#cf6a65"/>
				</g>
				<g id="Shape-5" data-name="Shape">
					<path d="M80.72,109.71l-5,7.51H61.84l7.84-6.63a3.81,3.81,0,0,1,2.42-.88Z" fill="#444e56"/>
				</g>
				<g id="Shape-6" data-name="Shape">
					<path d="M128.45,117.22H114.57l-5-7.51h8.62a3.77,3.77,0,0,1,2.42.88Z" fill="#444e56"/>
				</g>
				<g id="Shape-7" data-name="Shape">
					<polygon points="137.32 124.73 119.57 124.73 114.57 117.22 128.45 117.22 137.32 124.73" fill="#ebecf0"/>
				</g>
				<g id="Shape-8" data-name="Shape">
					<polygon points="75.73 117.22 70.73 124.74 52.98 124.74 61.84 117.22 75.73 117.22" fill="#ebecf0"/>
				</g>
				<g id="Shape-9" data-name="Shape">
					<polygon points="90.72 109.71 89.18 117.22 75.73 117.22 80.72 109.71 90.72 109.71" fill="#ebecf0"/>
				</g>
				<g id="Shape-10" data-name="Shape">
					<polygon points="114.57 117.22 101.12 117.22 99.58 109.71 109.58 109.71 114.57 117.22" fill="#ebecf0"/>
				</g>
				<g id="Shape-11" data-name="Shape">
					<polygon points="89.18 117.22 87.64 124.74 70.73 124.74 75.73 117.22 89.18 117.22" fill="#444e56"/>
				</g>
				<g id="Shape-12" data-name="Shape">
					<polygon points="101.12 117.22 89.18 117.22 90.72 109.71 99.58 109.71 101.12 117.22" fill="#444e56"/>
				</g>
				<g id="Shape-13" data-name="Shape">
					<polygon points="102.66 124.73 87.64 124.74 89.18 117.22 101.12 117.22 102.66 124.73" fill="#ebecf0"/>
				</g>
				<g id="Shape-14" data-name="Shape">
					<polygon points="119.57 124.73 102.66 124.73 101.12 117.22 114.57 117.22 119.57 124.73" fill="#444e56"/>
				</g>
			</g>
		</g>
		<g>
			<path d="M202.94,92.79c-14.19,12.67-27.42,12.94-28.12,12.95a2.79,2.79,0,0,1,0-5.58c.79,0,19.27-.56,35.17-23.91a2.78,2.78,0,1,1,4.6,3.14A72.89,72.89,0,0,1,202.94,92.79Z" fill="#eb8e80" stroke="#fff" stroke-miterlimit="10"/>
			<path d="M174.8,106.09a3.14,3.14,0,0,1,0-6.27c.77,0,19.11-.59,34.88-23.77a3.14,3.14,0,0,1,4.35-.82,3.12,3.12,0,0,1,.83,4.35,73.42,73.42,0,0,1-11.66,13.47h0c-14.31,12.78-27.78,13-28.35,13Zm37.45-30.71a2.48,2.48,0,0,0-2,1.07c-16,23.46-34.66,24-35.44,24.06a2.46,2.46,0,0,0-2.42,2.46,2.43,2.43,0,0,0,.73,1.72,2.3,2.3,0,0,0,1.72.7c.56,0,13.78-.25,27.89-12.86h0a72.76,72.76,0,0,0,11.56-13.34,2.44,2.44,0,0,0-2-3.81Z" fill="#fff"/>
		</g>
		<g>
			<path d="M114.4,99C99.22,87.51,96.4,74.59,96.26,73.9a2.78,2.78,0,0,1,5.45-1.13c.17.78,4.29,18.8,30.28,29.87a2.79,2.79,0,1,1-2.19,5.13A72.73,72.73,0,0,1,114.4,99Z" fill="#eb8e80" stroke="#fff" stroke-miterlimit="10"/>
			<path d="M130.89,108.34a3.06,3.06,0,0,1-1.22-.25,73.32,73.32,0,0,1-15.48-8.83h0C98.86,87.68,96,74.52,95.92,74a3.12,3.12,0,0,1,.45-2.36,3.14,3.14,0,0,1,5.69,1.09c.16.76,4.24,18.62,30.06,29.62a3.14,3.14,0,0,1-.06,5.8A3.12,3.12,0,0,1,130.89,108.34ZM114.61,98.7a72.61,72.61,0,0,0,15.33,8.75,2.4,2.4,0,0,0,1.86,0,2.43,2.43,0,0,0,1.34-1.31,2.45,2.45,0,0,0-1.29-3.2c-26.15-11.14-30.31-29.34-30.48-30.11A2.44,2.44,0,0,0,98.5,71a2.44,2.44,0,0,0-1.9,2.88c.11.54,2.89,13.45,18,24.87Z" fill="#fff"/>
		</g>
		<path d="M177.85,72.59v50.7a2.5,2.5,0,0,1-2.5,2.49H125.16a2.49,2.49,0,0,1-2.49-2.49V109.24a1.66,1.66,0,0,1,2.49-1.43l3,1.74a2.44,2.44,0,0,0,3.65-2.1V96.54a2.42,2.42,0,0,0-3.65-2.11l-3,1.75a1.66,1.66,0,0,1-2.49-1.44V72.59a2.48,2.48,0,0,1,2.49-2.49h50.19A2.49,2.49,0,0,1,177.85,72.59Z" fill="#eb8e80" stroke="#fff" stroke-miterlimit="10"/>
		<circle cx="155.67" cy="87.21" r="2.47" fill="#fff"/>
		<circle cx="169.49" cy="87.21" r="2.47" fill="#fff"/>
		<path d="M145.92,93.63c0,8.87,5.83,16.08,13.05,16.08s13-7.21,13-16.08Z" fill="#fff"/>
		<path d="M148.15,137a2.83,2.83,0,0,1-.85-.13,2.79,2.79,0,0,1-1.8-3.51l3.39-10.62a2.79,2.79,0,1,1,5.31,1.7l-3.39,10.62A2.8,2.8,0,0,1,148.15,137Z" fill="#eb8e80" stroke="#fff" stroke-miterlimit="10"/>
		<path d="M159,137.05a3,3,0,0,1-.78-.11,2.79,2.79,0,0,1-1.9-3.45l3.09-10.68a2.79,2.79,0,1,1,5.35,1.55L161.64,135A2.78,2.78,0,0,1,159,137.05Z" fill="#eb8e80" stroke="#fff" stroke-miterlimit="10"/>
		<rect x="122.01" y="74.64" width="56.51" height="9.4" rx="0.66" ry="0.66" fill="#f2f0f0"/>
		<path d="M79.7,69.65h0A1.32,1.32,0,0,1,81,71v2.65a1.32,1.32,0,0,1-1.32,1.32h0a1.33,1.33,0,0,1-1.33-1.32V71A1.33,1.33,0,0,1,79.7,69.65Z" fill="#319cd8"/>
		<path d="M79.7,80.23h0A1.33,1.33,0,0,1,81,81.56V84.2a1.33,1.33,0,0,1-1.32,1.33h0a1.34,1.34,0,0,1-1.33-1.33V81.56A1.34,1.34,0,0,1,79.7,80.23Z" fill="#319cd8"/>
		<path d="M83.67,76.27h2.64a1.33,1.33,0,0,1,1.33,1.32h0a1.33,1.33,0,0,1-1.33,1.32H83.67a1.33,1.33,0,0,1-1.33-1.32h0A1.33,1.33,0,0,1,83.67,76.27Z" fill="#319cd8"/>
		<path d="M73.08,76.27h2.65a1.32,1.32,0,0,1,1.32,1.32h0a1.32,1.32,0,0,1-1.32,1.32H73.08a1.32,1.32,0,0,1-1.32-1.32h0A1.32,1.32,0,0,1,73.08,76.27Z" fill="#319cd8"/>
		<g>
			<path d="M200.22,30.05h0a1.41,1.41,0,0,1,1.41,1.41v2.82a1.41,1.41,0,0,1-1.41,1.41h0a1.41,1.41,0,0,1-1.41-1.41V31.46A1.41,1.41,0,0,1,200.22,30.05Z" fill="#f8c072"/>
			<path d="M200.22,41.33h0a1.41,1.41,0,0,1,1.41,1.41v2.82A1.41,1.41,0,0,1,200.22,47h0a1.41,1.41,0,0,1-1.41-1.41V42.74A1.41,1.41,0,0,1,200.22,41.33Z" fill="#f8c072"/>
			<path d="M204.45,37.1h2.82a1.41,1.41,0,0,1,1.41,1.41h0a1.41,1.41,0,0,1-1.41,1.41h-2.82A1.41,1.41,0,0,1,203,38.51h0A1.41,1.41,0,0,1,204.45,37.1Z" fill="#f8c072"/>
			<path d="M193.16,37.1H196a1.42,1.42,0,0,1,1.42,1.41h0A1.42,1.42,0,0,1,196,39.92h-2.82a1.41,1.41,0,0,1-1.41-1.41h0A1.41,1.41,0,0,1,193.16,37.1Z" fill="#f8c072"/>
		</g>
		<g>
			<path d="M155.31,11.79l1.94-1.94a1.36,1.36,0,0,1,1.94,0h0a1.38,1.38,0,0,1,0,1.94l-1.94,1.94a1.36,1.36,0,0,1-1.94,0h0A1.36,1.36,0,0,1,155.31,11.79Z" fill="#f8c072"/>
			<path d="M155.3,27.32h0a1.38,1.38,0,0,1,1.95,0l1.94,1.94a1.38,1.38,0,0,1,0,1.94h0a1.38,1.38,0,0,1-1.94,0l-1.95-1.94A1.38,1.38,0,0,1,155.3,27.32Z" fill="#f8c072"/>
			<path d="M137.84,29.26l1.94-1.94a1.36,1.36,0,0,1,1.94,0h0a1.36,1.36,0,0,1,0,1.94l-1.94,1.94a1.38,1.38,0,0,1-1.94,0h0A1.36,1.36,0,0,1,137.84,29.26Z" fill="#fbe295"/>
			<path d="M137.84,9.85h0a1.36,1.36,0,0,1,1.94,0l1.94,1.94a1.36,1.36,0,0,1,0,1.94h0a1.36,1.36,0,0,1-1.94,0l-1.94-1.94A1.36,1.36,0,0,1,137.84,9.85Z" fill="#fbe295"/>
			<path d="M154,19.15h8.23a1.37,1.37,0,0,1,1.37,1.37h0a1.37,1.37,0,0,1-1.37,1.38H154a1.38,1.38,0,0,1-1.38-1.38h0A1.37,1.37,0,0,1,154,19.15Z" fill="#ea5887"/>
			<path d="M134.79,19.15H143a1.37,1.37,0,0,1,1.37,1.37h0A1.37,1.37,0,0,1,143,21.9h-8.24a1.37,1.37,0,0,1-1.37-1.38h0A1.37,1.37,0,0,1,134.79,19.15Z" fill="#f08782"/>
			<path d="M147.14,15V6.8a1.37,1.37,0,0,1,1.38-1.37h0a1.37,1.37,0,0,1,1.37,1.37V15a1.37,1.37,0,0,1-1.37,1.38h0A1.38,1.38,0,0,1,147.14,15Z" fill="#ea5887"/>
			<path d="M147.14,34.25V26a1.37,1.37,0,0,1,1.38-1.37h0A1.37,1.37,0,0,1,149.89,26v8.24a1.37,1.37,0,0,1-1.37,1.37h0A1.37,1.37,0,0,1,147.14,34.25Z" fill="#f08782"/>
		</g>
		<path d="M129.21,10.82h0a1.37,1.37,0,0,1,1.37,1.38h0a1.37,1.37,0,0,1-1.37,1.37h0a1.37,1.37,0,0,1-1.37-1.37h0A1.37,1.37,0,0,1,129.21,10.82Z" fill="#97c455"/>
		<path d="M157.25,47.77h0a1.37,1.37,0,0,1,1.37,1.37h0a1.37,1.37,0,0,1-1.37,1.38h0a1.38,1.38,0,0,1-1.38-1.38h0A1.38,1.38,0,0,1,157.25,47.77Z" fill="#97c455"/>
		<path d="M208.68,55.12h0a1.37,1.37,0,0,1,1.37,1.38h0a1.37,1.37,0,0,1-1.37,1.37h0a1.37,1.37,0,0,1-1.37-1.37h0A1.37,1.37,0,0,1,208.68,55.12Z" fill="#00abb8"/>
		<path d="M70.73,68.28h0a1.37,1.37,0,0,1,1.37,1.37h0A1.37,1.37,0,0,1,70.73,71h0a1.37,1.37,0,0,1-1.37-1.37h0A1.37,1.37,0,0,1,70.73,68.28Z" fill="#00abb8"/>
		<path d="M182.53,12.2h0a1.37,1.37,0,0,1,1.38,1.37h0a1.37,1.37,0,0,1-1.38,1.37h0a1.37,1.37,0,0,1-1.37-1.37h0A1.37,1.37,0,0,1,182.53,12.2Z" fill="#00abb8"/>
	</g>
</svg>
