<?xml version="1.0" encoding="utf-8"?>
<!-- Generator: Adobe Illustrator 22.0.0, SVG Export Plug-In . SVG Version: 6.00 Build 0)  -->
<svg version="1.1" xmlns="http://www.w3.org/2000/svg" xmlns:xlink="http://www.w3.org/1999/xlink" x="0px" y="0px"
	 viewBox="0 0 232.67 146.67" enable-background="new 0 0 232.67 146.67" xml:space="preserve">
<g id="Capa_3">
	<g>
		<g>
			<g>
				<g>
					<path fill="#E5867B" d="M134.76,103.11c-0.73,0-1.46-0.28-2.01-0.85c-0.58-0.59-13.72-13.6-41.58-9.08
						c-1.51,0.25-2.95-0.78-3.2-2.31c-0.25-1.52,0.78-2.95,2.31-3.2c30.97-5.03,45.87,10.07,46.49,10.71
						c1.07,1.11,1.03,2.88-0.08,3.94C136.15,102.85,135.46,103.11,134.76,103.11z"/>
					<path fill="#FFFFFF" d="M134.76,103.46c-0.86,0-1.66-0.34-2.26-0.96c-0.54-0.55-13.55-13.47-41.27-8.97
						c-0.83,0.13-1.65-0.06-2.33-0.55c-0.68-0.49-1.13-1.22-1.27-2.04c-0.28-1.71,0.89-3.32,2.59-3.6
						c31.16-5.06,46.18,10.17,46.8,10.82c0.58,0.6,0.89,1.4,0.87,2.24c-0.02,0.84-0.36,1.62-0.96,2.2
						C136.35,103.15,135.58,103.46,134.76,103.46z M102.55,91.88c20.27,0,29.98,9.65,30.45,10.13c0.91,0.94,2.51,0.97,3.45,0.07
						c0.47-0.45,0.74-1.06,0.75-1.71c0.01-0.65-0.23-1.27-0.68-1.74c-0.61-0.64-15.38-15.62-46.19-10.61
						c-1.33,0.22-2.23,1.47-2.02,2.8c0.1,0.64,0.45,1.21,0.98,1.59c0.53,0.38,1.17,0.53,1.82,0.43
						C95.25,92.17,99.06,91.88,102.55,91.88z"/>
				</g>
			</g>
			<g>
				<g>
					<path fill="#E5867B" d="M135.48,109.74l-6.74,0l-5.36-16.48l-7.04,8.23l3.98,0c1.33,0,2.54,0.9,2.8,2.21
						c0.36,1.79-1,3.37-2.73,3.37h-16.16l19.24-22.51c0.93-1.09,2.69-0.74,3.14,0.62l6.17,18.98h2.77c1.73,0,3.09,1.58,2.73,3.37
						C138.02,108.83,136.81,109.74,135.48,109.74z"/>
					<path fill="#FFFFFF" d="M135.42,110.09h-6.93l-5.25-16.13l-6.14,7.19h3.16c1.64,0,3.1,1.19,3.26,2.82
						c0.18,1.87-1.29,3.45-3.12,3.45h-16.92l20.14-23.56c0.93-1.09,2.69-0.74,3.14,0.62l6.29,19.33h2.51c1.83,0,3.3,1.58,3.12,3.45
						C138.52,108.89,137.05,110.09,135.42,110.09z M128.99,109.39h6.49c1.16,0,2.22-0.79,2.46-1.93c0.32-1.57-0.87-2.95-2.39-2.95
						h-3.02l-6.06-18.63c-0.44-1.36-2.21-1.71-3.14-0.62l-18.35,21.46l15.33,0c1.16,0,2.22-0.79,2.46-1.93
						c0.32-1.57-0.87-2.95-2.39-2.95h-4.81l7.93-9.28L128.99,109.39z"/>
				</g>
			</g>
			<g>
				<g>
					<path fill="#E5867B" d="M89.31,40.12l25.95,43.6c0.71,1.19,0.32,2.72-0.87,3.42l-43.16,25.69c-1.19,0.71-2.72,0.32-3.42-0.87
						l-7.19-12.08c-0.66-1.1,0.14-2.5,1.41-2.51l3.5-0.06c1.88-0.03,3.02-2.07,2.06-3.68l-5.58-9.38c-0.97-1.63-3.3-1.59-4.22,0.06
						l-1.72,3.05c-0.61,1.13-2.22,1.14-2.88,0.04L41.85,68.36c-0.71-1.19-0.32-2.72,0.87-3.42l43.16-25.69
						C87.07,38.55,88.6,38.94,89.31,40.12z"/>
				</g>
				<g>
					<path fill="#EEECE6" d="M94.7,48.67L49.18,79.98c-0.3,0.21-0.71,0.13-0.91-0.17l-4.59-6.67c-0.21-0.3-0.13-0.71,0.17-0.91
						l45.52-31.31c0.3-0.21,0.71-0.13,0.91,0.17l4.59,6.67C95.07,48.06,95,48.47,94.7,48.67z"/>
				</g>
			</g>
			<g>
				<g>
					<path fill="#FFFFFF" d="M100.31,76.86c-4.54-7.63-13.24-10.84-19.45-7.15c-6.21,3.69-7.53,12.88-2.99,20.5L100.31,76.86z"/>
				</g>
			</g>
			<g>
				<g>
					<polygon fill="#1D96C2" points="74.89,112.69 69.93,112.71 69.88,92.8 74.83,89.18 					"/>
				</g>
				<g>
					<polygon fill="#1D96C2" points="106.04,112.52 101.09,112.53 101.08,72.98 105.95,71.74 					"/>
				</g>
				<g>
					<line fill="#FFFFFF" x1="70.91" y1="93.97" x2="70.96" y2="109.67"/>
					<polygon fill="#29A3C9" points="70.78,109.67 70.74,93.97 71.09,93.97 71.13,109.67 					"/>
				</g>
				<g>
					<line fill="#FFFFFF" x1="73.74" y1="97.63" x2="73.77" y2="109.66"/>
					<polygon fill="#29A3C9" points="73.6,109.67 73.57,97.63 73.92,97.63 73.95,109.67 					"/>
				</g>
				<g>
					<line fill="#FFFFFF" x1="73.73" y1="90.35" x2="73.74" y2="95.5"/>
					<polygon fill="#29A3C9" points="73.57,95.5 73.55,90.35 73.9,90.35 73.91,95.5 					"/>
				</g>
				<g>
					<line fill="#FFFFFF" x1="72.32" y1="91.97" x2="72.36" y2="107.21"/>
					<polygon fill="#29A3C9" points="72.19,107.21 72.15,91.97 72.5,91.97 72.53,107.21 					"/>
				</g>
				<g>
					<line fill="#FFFFFF" x1="102.15" y1="75.06" x2="102.15" y2="107.13"/>
					<rect x="101.97" y="75.06" fill="#29A3C9" width="0.35" height="32.07"/>
				</g>
				<g>
					<line fill="#FFFFFF" x1="104.91" y1="85.71" x2="104.96" y2="107.12"/>
					<polygon fill="#29A3C9" points="104.79,107.12 104.74,85.71 105.09,85.71 105.14,107.12 					"/>
				</g>
				<g>
					<line fill="#FFFFFF" x1="104.88" y1="72.74" x2="104.91" y2="81.91"/>
					<polygon fill="#29A3C9" points="104.73,81.91 104.71,72.74 105.06,72.74 105.08,81.91 					"/>
				</g>
				<g>
					<line fill="#FFFFFF" x1="103.48" y1="75.63" x2="103.55" y2="102.75"/>
					<polygon fill="#29A3C9" points="103.37,102.75 103.31,75.63 103.66,75.63 103.72,102.75 					"/>
				</g>
			</g>
			<g>
				<g>
					<path fill="#E5867B" d="M109.83,104.72c-19.04,0-29.09-8.62-29.62-9.08c-1.16-1.02-1.27-2.78-0.25-3.94
						c1.02-1.15,2.77-1.27,3.93-0.26c0.6,0.52,14.77,12.43,42.19,5.59c1.5-0.37,3.01,0.54,3.38,2.03c0.37,1.49-0.54,3.01-2.03,3.38
						C120.9,104.08,115.03,104.72,109.83,104.72z"/>
					<path fill="#FFFFFF" d="M109.83,105.07c-19.22,0-29.42-8.79-29.85-9.17c-1.3-1.14-1.42-3.13-0.28-4.43
						c1.14-1.29,3.12-1.42,4.42-0.29c0.58,0.51,14.63,12.3,41.88,5.52c1.68-0.41,3.39,0.61,3.8,2.28c0.2,0.81,0.08,1.66-0.35,2.37
						c-0.43,0.72-1.12,1.23-1.93,1.43C121.44,104.3,115.49,105.07,109.83,105.07z M82.05,91.11c-0.68,0-1.35,0.28-1.83,0.82
						c-0.89,1.01-0.79,2.55,0.22,3.44c0.42,0.37,10.42,8.99,29.39,8.99c5.61,0,11.5-0.76,17.52-2.26c0.63-0.16,1.17-0.55,1.5-1.11
						c0.34-0.56,0.43-1.21,0.28-1.85c-0.32-1.3-1.65-2.1-2.96-1.78c-27.6,6.87-41.91-5.15-42.51-5.67
						C83.2,91.31,82.63,91.11,82.05,91.11z"/>
				</g>
			</g>
			<g>
				<path fill="#1D96C2" d="M75.61,111.38c0.06-0.12,0.09-0.26,0.09-0.39c0-0.52-0.42-0.93-0.93-0.93c-0.52,0-0.94,0.42-0.94,0.93
					c0,0.02,0,0.04,0,0.06"/>
				<path fill="#29A3C9" d="M75.77,111.46l-0.31-0.15c0.05-0.1,0.07-0.21,0.07-0.32c0-0.42-0.34-0.76-0.76-0.76
					c-0.42,0-0.76,0.34-0.76,0.76l-0.34,0.1c-0.01-0.04-0.01-0.08-0.01-0.1c0-0.61,0.5-1.11,1.11-1.11c0.61,0,1.11,0.5,1.11,1.11
					C75.88,111.15,75.84,111.31,75.77,111.46z"/>
			</g>
			<g>
				<path fill="#1D96C2" d="M77.58,112.56c0.05-0.21,0.06-0.43,0.01-0.65c-0.16-0.81-0.95-1.33-1.76-1.16
					c-0.81,0.16-1.34,0.95-1.17,1.76c0.01,0.03,0.01,0.06,0.03,0.09"/>
				<path fill="#29A3C9" d="M74.53,112.67c-0.02-0.04-0.03-0.09-0.04-0.12c-0.18-0.91,0.4-1.79,1.31-1.97
					c0.9-0.19,1.78,0.4,1.96,1.3c0.05,0.24,0.04,0.49-0.02,0.72l-0.34-0.09c0.05-0.19,0.05-0.38,0.01-0.57
					c-0.14-0.71-0.84-1.17-1.55-1.03c-0.72,0.15-1.18,0.84-1.04,1.55l0.01,0.05L74.53,112.67z"/>
			</g>
			<g>
				<path fill="#1D96C2" d="M71.48,112.81c0.08-0.31,0.09-0.64,0.02-0.97c-0.25-1.21-1.42-1.99-2.63-1.74s-2,1.43-1.76,2.64
					c0.01,0.04,0.02,0.09,0.04,0.13"/>
				<path fill="#29A3C9" d="M66.99,112.95c-0.03-0.06-0.04-0.12-0.05-0.17c-0.13-0.64,0-1.28,0.36-1.82c0.36-0.54,0.9-0.9,1.53-1.03
					c0.63-0.13,1.27,0,1.81,0.35c0.54,0.35,0.9,0.9,1.03,1.53c0.07,0.35,0.06,0.71-0.02,1.05l-0.34-0.08
					c0.07-0.29,0.08-0.6,0.02-0.89c-0.11-0.54-0.42-1-0.88-1.31c-0.46-0.3-1.01-0.41-1.55-0.3c-0.54,0.11-1.01,0.42-1.31,0.88
					c-0.31,0.46-0.42,1.01-0.31,1.55c0.01,0.04,0.02,0.08,0.02,0.09L66.99,112.95z"/>
			</g>
			<g>
				<path fill="#1D96C2" d="M106.09,111.38c0.06-0.12,0.09-0.26,0.09-0.39c0-0.52-0.42-0.93-0.93-0.93c-0.52,0-0.94,0.42-0.94,0.93
					c0,0.02,0,0.04,0,0.06"/>
				<path fill="#29A3C9" d="M106.25,111.46l-0.31-0.15c0.05-0.1,0.07-0.21,0.07-0.32c0-0.42-0.34-0.76-0.76-0.76
					c-0.42,0-0.76,0.34-0.76,0.76l-0.34,0.1c-0.01-0.04-0.01-0.07-0.01-0.1c0-0.61,0.5-1.11,1.11-1.11c0.61,0,1.11,0.5,1.11,1.11
					C106.36,111.15,106.32,111.31,106.25,111.46z"/>
			</g>
			<g>
				<path fill="#1D96C2" d="M108.05,112.56c0.05-0.21,0.06-0.43,0.01-0.65c-0.16-0.81-0.95-1.33-1.76-1.16
					c-0.81,0.16-1.34,0.95-1.17,1.76c0.01,0.03,0.01,0.06,0.03,0.09"/>
				<path fill="#29A3C9" d="M105.01,112.67c-0.02-0.05-0.03-0.1-0.04-0.13c-0.18-0.9,0.4-1.78,1.31-1.96c0.9-0.19,1.78,0.4,1.96,1.3
					c0.05,0.24,0.04,0.49-0.02,0.72l-0.34-0.08c0.05-0.19,0.05-0.38,0.01-0.57c-0.14-0.71-0.84-1.17-1.55-1.03
					c-0.71,0.15-1.18,0.84-1.03,1.55c0,0.02,0.01,0.03,0.01,0.05L105.01,112.67z"/>
			</g>
			<g>
				<path fill="#1D96C2" d="M101.96,112.81c0.08-0.31,0.09-0.64,0.02-0.97c-0.25-1.21-1.42-1.99-2.63-1.74s-2,1.43-1.76,2.64
					c0.01,0.04,0.02,0.09,0.04,0.13"/>
				<path fill="#29A3C9" d="M97.47,112.95c-0.03-0.06-0.04-0.12-0.05-0.17c-0.13-0.63,0-1.28,0.36-1.82c0.36-0.54,0.9-0.9,1.53-1.03
					c0.63-0.13,1.27,0,1.81,0.35c0.54,0.35,0.9,0.9,1.03,1.53c0.07,0.34,0.06,0.71-0.02,1.05l-0.34-0.08
					c0.07-0.29,0.08-0.6,0.02-0.89c-0.11-0.54-0.42-1-0.88-1.31c-0.46-0.3-1.01-0.41-1.55-0.3c-0.54,0.11-1.01,0.42-1.31,0.88
					c-0.31,0.46-0.42,1.01-0.31,1.55c0.01,0.03,0.02,0.07,0.03,0.09L97.47,112.95z"/>
			</g>
			<path fill="none" stroke="#FFFFFF" stroke-width="2" stroke-linecap="round" stroke-miterlimit="10" d="M70.14,93.53
				c0,0,0.66-3.61,4.37-4.35c0.25-0.05,0.3-0.4,0.06-0.5c-1.12-0.49-3.45-1.01-6.19,1.14"/>
			<path fill="none" stroke="#FFFFFF" stroke-width="2" stroke-linecap="round" stroke-miterlimit="10" d="M106.2,71.95
				c0,0-3.48-1.16-5.92,1.74c-0.17,0.2-0.49,0.07-0.47-0.18c0.11-1.22,0.77-3.51,3.97-4.88"/>
			<path fill="#1D96C2" d="M108.47,68.96c-1.33,0.31-2.02,1.67-2.02,1.67s0.19-0.16,0.82,0.03c0.5,0.15,0.74,0.62,1.73,0.59
				c0.65-0.02,1.03-0.78,0.88-1.41C109.73,69.21,109.1,68.82,108.47,68.96z"/>
			<path fill="#1D96C2" d="M107.34,67.5c-0.47,0.54-0.33,1.33-0.33,1.33s0.03-0.12,0.35-0.24c0.26-0.09,0.5,0.03,0.91-0.29
				c0.27-0.21,0.19-0.64-0.07-0.86C107.94,67.21,107.56,67.24,107.34,67.5z"/>
			<path fill="#1D96C2" d="M66.1,93.1c1.18-0.7,2.61-0.19,2.61-0.19s-0.24,0.02-0.57,0.59c-0.26,0.46-0.1,0.96-0.84,1.62
				c-0.48,0.43-1.28,0.15-1.61-0.41C65.36,94.16,65.54,93.44,66.1,93.1z"/>
			<path fill="#1D96C2" d="M65.91,91.26c0.71,0.07,1.16,0.73,1.16,0.73s-0.11-0.07-0.42,0.07c-0.25,0.11-0.34,0.37-0.85,0.42
				c-0.34,0.03-0.58-0.33-0.55-0.67C65.27,91.48,65.57,91.23,65.91,91.26z"/>
		</g>
	</g>
</g>
</svg>
