<svg xmlns="http://www.w3.org/2000/svg" viewBox="0 0 26.33 25.24">
  <title>iconos_svg_v1</title>
  <g id="Capa_3" data-name="Capa 3">
    <rect class="status-icon" x="2.26" y="7.56" width="21.34" height="10.12" rx="0.11" ry="0.11" />
    <rect x="9.39" y="10.53" width="4.08" height="4.08" rx="0.41" ry="0.41" transform="translate(12.23 -4.4) rotate(45)" fill="#f1f7f1"/>
    <rect x="3.85" y="11.16" width="2.18" height="2.8" rx="0.13" ry="0.13" fill="#f1f7f1"/>
    <g>
      <rect x="3.7" y="9.97" width="1.07" height="0.53" rx="0.09" ry="0.09" fill="#f1f7f1"/>
      <rect x="5.1" y="9.97" width="1.07" height="0.53" rx="0.09" ry="0.09" fill="#f1f7f1"/>
      <rect x="3.7" y="14.67" width="1.07" height="0.53" rx="0.09" ry="0.09" fill="#f1f7f1"/>
      <rect x="5.1" y="14.67" width="1.07" height="0.53" rx="0.09" ry="0.09" fill="#f1f7f1"/>
    </g>
    <rect x="17.55" y="11.64" width="1.1" height="1.91" rx="0.12" ry="0.12" fill="#f1f7f1"/>
    <rect x="21.16" y="10.45" width="2.91" height="4.23" rx="0.09" ry="0.09" fill="#f1f7f1"/>
    <rect x="22.29" y="10.06" width="0.99" height="0.41" rx="0.07" ry="0.07" fill="#f1f7f1"/>
    <rect x="22.29" y="14.64" width="0.99" height="0.41" rx="0.07" ry="0.07" fill="#f1f7f1"/>
  </g>
</svg>
