<?xml version="1.0" encoding="UTF-8" standalone="no"?>
<svg
   viewBox="0 0 26.33 25.24"
   version="1.1"
   id="svg16665"
   sodipodi:docname="board-2-status.svg"
   inkscape:version="1.1.1 (3bf5ae0d25, 2021-09-20)"
   xmlns:inkscape="http://www.inkscape.org/namespaces/inkscape"
   xmlns:sodipodi="http://sodipodi.sourceforge.net/DTD/sodipodi-0.dtd"
   xmlns="http://www.w3.org/2000/svg"
   xmlns:svg="http://www.w3.org/2000/svg"
   xmlns:rdf="http://www.w3.org/1999/02/22-rdf-syntax-ns#"
   xmlns:cc="http://creativecommons.org/ns#"
   xmlns:dc="http://purl.org/dc/elements/1.1/">
  <defs
     id="defs16669" />
  <sodipodi:namedview
     id="namedview16667"
     pagecolor="#ffffff"
     bordercolor="#666666"
     borderopacity="1.0"
     inkscape:pageshadow="2"
     inkscape:pageopacity="0.0"
     inkscape:pagecheckerboard="0"
     showgrid="false"
     inkscape:zoom="12.214681"
     inkscape:cx="20.753714"
     inkscape:cy="13.794875"
     inkscape:window-width="1920"
     inkscape:window-height="1057"
     inkscape:window-x="-8"
     inkscape:window-y="-8"
     inkscape:window-maximized="1"
     inkscape:current-layer="svg16665" />
  <title
     id="title16638">iconos_svg_v1</title>
  <metadata
     id="metadata16728">
    <rdf:RDF>
      <cc:Work
         rdf:about="">
        <dc:title>iconos_svg_v1</dc:title>
      </cc:Work>
    </rdf:RDF>
  </metadata>
  <g
     id="g7937"
     transform="matrix(0,4.1349831,-4.1349831,0,368.82693,-250.18976)"
     style="stroke-width:0.914037">
    <path
       id="Board"
       fill="#0d4c75"
       d="M 64.698004,83.794757 H 62.52926 c -0.323004,0 -0.590636,0.263018 -0.590636,0.590636 v 2.847053 c 0,0.0092 0.0046,0.01846 0.01384,0.02307 l 0.230717,0.10613 c 0.0092,0.0046 0.01384,0.01384 0.01384,0.02307 v 0.793668 c 0.0092,0.05076 0.05076,0.09229 0.101516,0.09229 h 0.627551 c 0.01384,0 0.02769,-0.01384 0.02769,-0.02769 v -0.110745 c 0,-0.02307 0.01846,-0.03692 0.03692,-0.03692 h 1.070529 c 0.02307,0 0.04153,0.01846 0.04153,0.03692 v 0.10613 c 0,0.01384 0.01384,0.02769 0.02769,0.02769 h 1.065915 c 0.05076,0 0.09229,-0.04153 0.09229,-0.09229 V 84.38539 c 0,-0.327618 -0.263018,-0.590636 -0.590637,-0.590636 z m -2.57942,3.336173 c -0.0323,0 -0.05999,-0.02769 -0.05999,-0.05999 0,-0.0323 0.02769,-0.05999 0.05999,-0.05999 0.0323,0 0.05999,0.02769 0.05999,0.05999 0,0.0323 -0.02769,0.05999 -0.05999,0.05999 z m 0,-0.332233 c -0.0323,0 -0.05999,-0.02769 -0.05999,-0.05999 0,-0.0323 0.02769,-0.05999 0.05999,-0.05999 0.0323,0 0.05999,0.02769 0.05999,0.05999 0,0.0323 -0.02769,0.05999 -0.05999,0.05999 z m 0,-0.332233 c -0.0323,0 -0.05999,-0.02769 -0.05999,-0.05999 0,-0.0323 0.02769,-0.05999 0.05999,-0.05999 0.0323,0 0.05999,0.02769 0.05999,0.05999 0,0.0323 -0.02769,0.05999 -0.05999,0.05999 z m 0,-0.332233 c -0.0323,0 -0.05999,-0.02769 -0.05999,-0.05999 0,-0.0323 0.02769,-0.05999 0.05999,-0.05999 0.0323,0 0.05999,0.02769 0.05999,0.05999 0,0.0323 -0.02769,0.05999 -0.05999,0.05999 z m 0,-0.332233 c -0.0323,0 -0.05999,-0.02769 -0.05999,-0.05999 0,-0.0323 0.02769,-0.05999 0.05999,-0.05999 0.0323,0 0.05999,0.02769 0.05999,0.05999 0,0.0323 -0.02769,0.05999 -0.05999,0.05999 z m 0,-0.332233 c -0.0323,0 -0.05999,-0.02769 -0.05999,-0.05999 0,-0.0323 0.02769,-0.05999 0.05999,-0.05999 0.0323,0 0.05999,0.02769 0.05999,0.05999 0,0.0323 -0.02769,0.05999 -0.05999,0.05999 z m 0,-0.332233 c -0.0323,0 -0.05999,-0.02769 -0.05999,-0.05999 0,-0.0323 0.02769,-0.05999 0.05999,-0.05999 0.0323,0 0.05999,0.02769 0.05999,0.05999 0,0.0323 -0.02769,0.05999 -0.05999,0.05999 z m 0,-0.332233 c -0.0323,0 -0.05999,-0.02769 -0.05999,-0.05999 0,-0.0323 0.02769,-0.05999 0.05999,-0.05999 0.0323,0 0.05999,0.02769 0.05999,0.05999 0,0.0323 -0.02769,0.05999 -0.05999,0.05999 z m 2.990097,2.325631 c -0.0323,0 -0.05999,-0.02769 -0.05999,-0.05999 0,-0.0323 0.02769,-0.05999 0.05999,-0.05999 0.0323,0 0.05999,0.02769 0.05999,0.05999 0,0.0323 -0.02769,0.05999 -0.05999,0.05999 z m 0,-0.332233 c -0.0323,0 -0.05999,-0.02769 -0.05999,-0.05999 0,-0.0323 0.02769,-0.05999 0.05999,-0.05999 0.0323,0 0.05999,0.02769 0.05999,0.05999 0,0.0323 -0.02769,0.05999 -0.05999,0.05999 z m 0,-0.332233 c -0.0323,0 -0.05999,-0.02769 -0.05999,-0.05999 0,-0.0323 0.02769,-0.05999 0.05999,-0.05999 0.0323,0 0.05999,0.02769 0.05999,0.05999 0,0.0323 -0.02769,0.05999 -0.05999,0.05999 z m 0,-0.332233 c -0.0323,0 -0.05999,-0.02769 -0.05999,-0.05999 0,-0.0323 0.02769,-0.05999 0.05999,-0.05999 0.0323,0 0.05999,0.02769 0.05999,0.05999 0,0.0323 -0.02769,0.05999 -0.05999,0.05999 z m 0,-0.332233 c -0.0323,0 -0.05999,-0.02769 -0.05999,-0.05999 0,-0.0323 0.02769,-0.05999 0.05999,-0.05999 0.0323,0 0.05999,0.02769 0.05999,0.05999 0,0.0323 -0.02769,0.05999 -0.05999,0.05999 z m 0,-0.332233 c -0.0323,0 -0.05999,-0.02769 -0.05999,-0.05999 0,-0.0323 0.02769,-0.05999 0.05999,-0.05999 0.0323,0 0.05999,0.02769 0.05999,0.05999 0,0.0323 -0.02769,0.05999 -0.05999,0.05999 z m 0,-0.332233 c -0.0323,0 -0.05999,-0.02769 -0.05999,-0.05999 0,-0.0323 0.02769,-0.05999 0.05999,-0.05999 0.0323,0 0.05999,0.02769 0.05999,0.05999 0,0.0323 -0.02769,0.05999 -0.05999,0.05999 z m 0,-0.332233 c -0.0323,0 -0.05999,-0.02769 -0.05999,-0.05999 0,-0.0323 0.02769,-0.05999 0.05999,-0.05999 0.0323,0 0.05999,0.02769 0.05999,0.05999 0,0.0323 -0.02769,0.05999 -0.05999,0.05999 z"
       style="fill:#000000;fill-opacity:1;stroke-width:2.46521" />
    <rect
       fill="#000000"
       opacity="1"
       x="62.058598"
       y="87.624664"
       width="0.13843042"
       height="0.32300428"
       id="rect947"
       style="stroke-width:2.46521" />
    <path
       d="m 64.659082,84.867316 v -1.072559 h -2.092607 v 1.072513 c 0.02169,0 0.03927,0.01758 0.03927,0.03927 0,0.02169 -0.01758,0.03922 -0.03927,0.03922 v 0.183097 c 0.02169,0 0.03927,0.01758 0.03927,0.03927 0,0.02169 -0.01758,0.03922 -0.03927,0.03922 v 0.183097 c 0.02169,0 0.03927,0.01758 0.03927,0.03927 0,0.02169 -0.01758,0.03922 -0.03927,0.03922 v 0.183098 c 0.02169,0 0.03927,0.01758 0.03927,0.03927 0,0.02169 -0.01758,0.03922 -0.03927,0.03922 v 0.183097 c 0.02169,0 0.03927,0.01758 0.03927,0.03922 0,0.02169 -0.01758,0.03927 -0.03927,0.03927 v 0.183097 c 0.02169,0 0.03927,0.01758 0.03927,0.03922 0,0.02164 -0.01758,0.03927 -0.03927,0.03927 v 0.183098 c 0.02169,0 0.03927,0.01758 0.03927,0.03922 0,0.02164 -0.01758,0.03927 -0.03927,0.03927 v 0.183097 c 0.02169,0 0.03927,0.01758 0.03927,0.03922 0,0.02164 -0.01758,0.03931 -0.03927,0.03931 v 0.15698 h 0.354474 c -3.69e-4,-0.0022 -0.0013,-0.0042 -0.0013,-0.0065 0,-0.02169 0.01758,-0.03927 0.03927,-0.03927 0.02169,0 0.03922,0.01758 0.03922,0.03927 0,0.0023 -9.23e-4,0.0043 -0.0013,0.0065 h 0.185727 c -3.69e-4,-0.0022 -0.0013,-0.0042 -0.0013,-0.0065 0,-0.02169 0.01758,-0.03927 0.03922,-0.03927 0.02169,0 0.03927,0.01758 0.03927,0.03927 0,0.0023 -9.23e-4,0.0043 -0.0013,0.0065 h 0.185728 c -3.7e-4,-0.0022 -0.0013,-0.0042 -0.0013,-0.0065 0,-0.02169 0.01758,-0.03927 0.03922,-0.03927 0.02164,0 0.03927,0.01758 0.03927,0.03927 0,0.0023 -9.22e-4,0.0043 -0.0013,0.0065 h 0.185728 c -3.69e-4,-0.0022 -0.0013,-0.0042 -0.0013,-0.0065 0,-0.02169 0.01758,-0.03927 0.03922,-0.03927 0.02164,0 0.03927,0.01758 0.03927,0.03927 0,0.0023 -9.23e-4,0.0043 -0.0013,0.0065 h 0.185728 c -3.69e-4,-0.0022 -0.0013,-0.0042 -0.0013,-0.0065 0,-0.02169 0.01758,-0.03927 0.03922,-0.03927 0.02164,0 0.03927,0.01758 0.03927,0.03927 0,0.0023 -9.23e-4,0.0043 -0.0013,0.0065 h 0.185727 c -3.69e-4,-0.0022 -0.0013,-0.0042 -0.0013,-0.0065 0,-0.02169 0.01758,-0.03927 0.03927,-0.03927 0.02169,0 0.03927,0.01758 0.03927,0.03927 0,0.0023 -9.23e-4,0.0043 -0.0013,0.0065 h 0.354336 v -0.157072 c -0.0216,-9.2e-5 -0.03904,-0.01758 -0.03904,-0.03922 0,-0.02164 0.01749,-0.03908 0.03904,-0.03922 v -0.18319 c -0.0216,-9.2e-5 -0.03904,-0.01758 -0.03904,-0.03922 0,-0.02164 0.01749,-0.03908 0.03904,-0.03922 v -0.18319 c -0.0216,-9.2e-5 -0.03904,-0.01758 -0.03904,-0.03922 0,-0.02164 0.01749,-0.03908 0.03904,-0.03922 v -0.18319 c -0.0216,-9.2e-5 -0.03904,-0.01758 -0.03904,-0.03922 0,-0.02164 0.01749,-0.03908 0.03904,-0.03922 v -0.18319 c -0.0216,-9.2e-5 -0.03904,-0.01758 -0.03904,-0.03922 0,-0.02164 0.01749,-0.03908 0.03904,-0.03922 V 85.46867 c -0.0216,-9.3e-5 -0.03904,-0.01758 -0.03904,-0.03922 0,-0.0216 0.01749,-0.03908 0.03904,-0.03922 v -0.18319 c -0.0216,-9.2e-5 -0.03904,-0.01758 -0.03904,-0.03922 0,-0.02159 0.01749,-0.03908 0.03904,-0.03922 v -0.183189 c -0.0216,-9.3e-5 -0.03904,-0.01758 -0.03904,-0.03922 0,-0.02164 0.01767,-0.03876 0.03927,-0.03885 z"
       id="path994"
       style="fill:#f1f7f1;fill-opacity:1;stroke-width:0.322451"
       sodipodi:nodetypes="ccccsccsccsccsccsccsccsccscccsssccsssccsssccsssccsssccssscccsccsccsccsccsccsccsccscc" />
    <polygon
       points="35.741,9.749 35.741,2.049 43.301,2.049 43.301,15.289 42.081,15.289 42.081,3.269 36.961,3.269 36.961,10.969 28.617,10.969 28.617,3.269 23.357,3.269 23.357,10.969 15.077,10.969 15.077,3.269 9.961,3.269 9.961,15.286 8.741,15.286 8.741,3.269 3.697,3.269 3.697,15.289 2.049,15.289 2.049,2.049 16.297,2.049 16.297,9.749 22.137,9.749 22.137,2.049 29.837,2.049 29.837,9.749 "
       id="polygon1026"
       style="fill:#000000;fill-opacity:1;stroke-width:6.98802"
       transform="matrix(0.04614347,0,0,0.04614347,62.566475,83.794757)" />
    <rect
       id="main"
       x="62.823727"
       y="84.775764"
       fill="#999999"
       width="1.5781068"
       height="1.993398"
       style="fill:#000000;fill-opacity:1;stroke-width:18.8472" />
  </g>
</svg>
