<svg xmlns="http://www.w3.org/2000/svg" xmlns:xlink="http://www.w3.org/1999/xlink" viewBox="0 0 80.5 64.78"><defs><clipPath id="clip-path"><path d="M67.1,25V37.35a2.74,2.74,0,0,0,4.13,2.39l3.45-2a1.88,1.88,0,0,1,2.69.9V51.18a5.24,5.24,0,0,1-5.24,5.24H28.2L22.31,62a4.23,4.23,0,0,1-5.49,0l-5.9-5.61H7.4a5.25,5.25,0,0,1-5.24-5.24V11.29A5.24,5.24,0,0,1,7.4,6.05H72.13a5.23,5.23,0,0,1,5.24,5.24V23.66a1.89,1.89,0,0,1-2.69.9l-3.45-2A2.76,2.76,0,0,0,67.1,25Z" fill="none"/></clipPath></defs><title>idioma_v0</title><g id="Capa_3" data-name="Capa 3"><g clip-path="url(#clip-path)"><rect x="2.16" y="6.05" width="75.36" height="50.24" fill="#f0f0f0"/><polygon points="44.55 6.05 35.13 6.05 35.13 26.46 2.16 26.46 2.16 35.88 35.13 35.88 35.13 56.29 44.55 56.29 44.55 35.88 77.52 35.88 77.52 26.46 44.55 26.46 44.55 6.05" fill="#c8414b"/><polygon points="60.12 39.9 77.52 49.57 77.52 39.9 60.12 39.9" fill="#1b52a2"/><polygon points="48.03 39.9 77.52 56.29 77.52 51.65 56.37 39.9 48.03 39.9" fill="#1b52a2"/><polygon points="69.67 56.29 48.03 44.27 48.03 56.29 69.67 56.29" fill="#1b52a2"/><polygon points="48.03 39.9 77.52 56.29 77.52 51.65 56.37 39.9 48.03 39.9" fill="#f0f0f0"/><polygon points="48.03 39.9 77.52 56.29 77.52 51.65 56.37 39.9 48.03 39.9" fill="#c8414b"/><polygon points="15.46 39.9 2.16 47.29 2.16 39.9 15.46 39.9" fill="#1b52a2"/><polygon points="31.65 41.99 31.65 83.35 5.91 56.29 31.65 41.99" fill="#1b52a2"/><polygon points="23.31 39.9 2.16 51.65 2.16 56.29 31.65 39.9 23.31 39.9" fill="#c8414b"/><polygon points="19.56 22.43 2.16 12.76 2.16 22.43 19.56 22.43" fill="#1b52a2"/><polygon points="31.65 22.43 2.16 6.05 2.16 10.68 23.31 22.43 31.65 22.43" fill="#1b52a2"/><polygon points="10.02 6.05 31.65 18.07 31.65 6.05 10.02 6.05" fill="#1b52a2"/><polygon points="31.65 22.43 2.16 6.05 2.16 10.68 23.31 22.43 31.65 22.43" fill="#f0f0f0"/><polygon points="31.65 22.43 2.16 6.05 2.16 10.68 23.31 22.43 31.65 22.43" fill="#c8414b"/><polygon points="64.22 22.43 77.52 15.04 77.52 22.43 64.22 22.43" fill="#1b52a2"/><polygon points="48.03 20.34 48.03 6.05 73.77 6.05 48.03 20.34" fill="#1b52a2"/><polygon points="56.37 22.43 77.52 10.68 77.52 6.05 48.03 22.43 56.37 22.43" fill="#c8414b"/></g></g></svg>