<svg id="Componentes" xmlns="http://www.w3.org/2000/svg" viewBox="0 0 100 100">
  <title>componentes_svg</title>
  <path d="M66.29,44.48V63.73H34.12V44.48a16.09,16.09,0,0,1,32.17,0Z" fill="#fbfafb" stroke="#b4b4b4" stroke-miterlimit="10" stroke-width="0.5"/>
  <rect x="32.21" y="65.9" width="36" height="5.88" fill="#fbfafb" stroke="#b4b4b4" stroke-miterlimit="10" stroke-width="0.5"/>
  <g>
    <rect x="42.5" y="74.56" width="5" height="8.5" fill="#fbfafb" stroke="#b4b4b4" stroke-miterlimit="10" stroke-width="0.5"/>
    <rect x="52.92" y="74.56" width="5" height="10.54" fill="#fbfafb" stroke="#b4b4b4" stroke-miterlimit="10" stroke-width="0.5"/>
  </g>
  <rect x="16.88" y="44.56" width="12.42" height="4.42" rx="2.21" ry="2.21" fill="#e30613"/>
  <rect x="70.71" y="44.56" width="12.42" height="4.42" rx="2.21" ry="2.21" fill="#fff"/>
  <rect x="44" y="16.23" width="12.42" height="4.42" rx="2.21" ry="2.21" transform="translate(31.77 68.64) rotate(-90)" fill="#36a9e1"/>
  <rect x="58.21" y="20.12" width="12.42" height="4.42" rx="2.21" ry="2.21" transform="translate(12.87 66.95) rotate(-60)" fill="#2d2e83"/>
  <rect x="68.56" y="30.6" width="12.42" height="4.42" rx="2.21" ry="2.21" transform="translate(-6.39 41.78) rotate(-30)" fill="#e6007e"/>
  <rect x="29.71" y="19.66" width="12.42" height="4.42" rx="2.21" ry="2.21" transform="translate(34.94 63.9) rotate(-120)" fill="#009640"/>
  <rect x="19.05" y="29.77" width="12.42" height="4.42" rx="2.21" ry="2.21" transform="translate(31.15 72.3) rotate(-150)" fill="#fcea10"/>
  <path d="M40.92,43.68h.85c5.23,0,10.45,0,15.68,0,.79,0,1.09.2,1.08,1q0,7.59,0,15.17c0,.77-.2,1-1,1s-1.08-.24-1.07-1.07c0-3.07,0-6.13,0-9.2,0-.84-.26-1-1.06-1-1.87.06-3.74,0-5.62,0a3.79,3.79,0,0,1-3-.95c-1.69-1.61-3.59-3-5.4-4.49C41.29,44.11,41.19,44,40.92,43.68Z" fill="#b4b4b4"/>
  <path d="M41.47,53.57V47.18c0-.22-.1-.51.1-.64s.47.13.65.26c1.34,1,2.67,2,4,3a1,1,0,0,1,.38.89c0,3.13,0,6.25,0,9.37,0,.6-.17.89-.82.87-1.16,0-2.33,0-3.49,0-.65,0-.82-.27-.82-.87C41.48,57.88,41.47,55.72,41.47,53.57Z" fill="#b4b4b4"/>
</svg>
