<svg id="Componentes" xmlns="http://www.w3.org/2000/svg" viewBox="0 0 100 100">
  <title>componentes_svg</title>
  <rect x="9.91" y="9.91" width="80.18" height="80.18" rx="4.47" ry="4.47" fill="none" stroke="#fff" stroke-miterlimit="10" stroke-width="5"/>
  <path d="M54,37.27c1.68-3.29,3.73-4.45,6.5-3.78a5.23,5.23,0,0,1,4.07,5.07,5.35,5.35,0,0,1-4.27,5.26c-2.49.58-4.69-.75-6.29-3.9-3.48,0-7-.07-10.55,0A3.91,3.91,0,0,0,40,42.5a11.16,11.16,0,0,0-.69,6.18H72.92V43.82l11.51,6.25L73,56.27V51.55H50c-.14,2.55,0,5.05,1.48,7.28a4.28,4.28,0,0,0,3.21,2c1.39.14,2.79.18,4.37.27l.14-3.17c.49-.05.94-.13,1.38-.13H67c.59,0,1.19,0,1.19.84v8.06h-9v-3c-1.12,0-2,0-3,0-4.81,0-8-2.89-8.65-7.7-.19-1.43-.27-2.88-.41-4.4H30.55c-.21.52-.41,1.05-.63,1.57A7.5,7.5,0,0,1,15.64,48.9a7.44,7.44,0,0,1,7.24-6.32,7.29,7.29,0,0,1,7.2,5c.35,1,.8,1.32,1.78,1.26s2,0,3,0c1.57,0,1.46,0,1.58-1.53a24.46,24.46,0,0,1,.85-5.05,6.67,6.67,0,0,1,6.81-4.91C47.35,37.26,50.63,37.27,54,37.27Z" fill="#fff" stroke="#fff" stroke-miterlimit="10" stroke-width="2"/>
</svg>
