<svg id="Componentes" xmlns="http://www.w3.org/2000/svg" viewBox="0 0 200 100">
  <title>componentes_svg</title>
  <g>
    <path d="M198.56,65.46h-7l-5.8-9a14.55,14.55,0,0,0-2.39,2.44v6.34h-6.55V35.13h6.54V51.7l.32.18,7.1-8.78h7.08L190,52.7l8.61,12.43Z" fill="#fff"/>
    <path d="M38.72,14A83.63,83.63,0,0,1,55.3,15.71,22.19,22.19,0,0,1,72.12,34a101.07,101.07,0,0,1,1.25,19.41c-.23,5.2-.42,10.45-2,15.46-2.74,9-8.93,14.22-18.18,15.81A89.87,89.87,0,0,1,34,85.92c-5.14-.22-10.33-.44-15.29-1.92C9.64,81.28,4.37,75.07,2.77,65.75A89.71,89.71,0,0,1,1.52,46.67c.23-5.31.4-10.68,2-15.78,2.79-8.8,8.93-14,18-15.55A97.32,97.32,0,0,1,38.72,14Zm8.2,35c2.62-2.11,3.14-2.6,3.56-4,1.39-4.47.05-9.83-6.78-10.49C37.85,34,32,34.31,26.08,34.37c-.09,0-.18.11-.29.19V66.41c5.59,0,11.06,0,16.54,0a12.29,12.29,0,0,0,2.81-.45c7.33-1.73,8.9-8.48,6.07-13.62C50.27,50.59,48.63,49.77,46.92,49Z" fill="#fff"/>
    <path d="M105.6,49.87c2.83,1.17,4.67,2.93,5.16,5.79.88,5.14-2,8.82-7.44,9.44s-11.17.12-16.9.29v-30c.5-.41,1.14-.2,1.73-.2,4.59,0,9.19.11,13.77,0a7.17,7.17,0,0,1,7.36,5.16,7.8,7.8,0,0,1-2.78,9C106.28,49.46,106,49.6,105.6,49.87ZM93.33,59.41c2.7,0,5.21.05,7.72,0A3,3,0,0,0,104,56.31c.07-1.65-1-3.26-2.41-3.32-2.72-.12-5.43,0-8.23,0Zm0-18.19v6.11c2.39,0,4.67.07,7,0,1.66-.07,2.52-1.29,2.49-3.15s-.85-2.86-2.34-2.91C98.13,41.15,95.79,41.22,93.36,41.22Z" fill="#fff"/>
    <path d="M172.07,65.31h-6.32c-.53-.58-.34-1.23-.34-1.82,0-3.3,0-6.61,0-9.91a13.94,13.94,0,0,0-.15-2.51,2.81,2.81,0,0,0-3.93-2.21,5.37,5.37,0,0,0-3.72,5.21V65.25H151V43.11a43.54,43.54,0,0,1,5.83,0v3c.71.26.81-.27,1.05-.5A10.23,10.23,0,0,1,167,42.78c2.88.43,4.58,2.62,5,5.95a105,105,0,0,1,.2,11.08A35.28,35.28,0,0,1,172.07,65.31Z" fill="#fff"/>
    <path d="M125.56,43.08h6.89q2.48,7.92,5,15.81l.29.06c1.43-5.27,2.86-10.53,4.3-15.85h5.91c.39.48.07.89-.06,1.29-2.6,8-5.18,16.08-7.82,24.1-1.8,5.48-6.79,7.94-12,5.94V69c.56-.3,1,0,1.48.12a3.5,3.5,0,0,0,4-4.89c-2-5.3-4-10.57-6-15.86C126.88,46.64,126.25,44.92,125.56,43.08Z" fill="#fff"/>
    <path d="M121,35.22a3.85,3.85,0,0,1,.19,1.9c0,6.44,0,12.88,0,19.32,0,3.31.84,3.93,4.1,3.07a13.7,13.7,0,0,1,.92,5,11.93,11.93,0,0,1-8.23.85A4.46,4.46,0,0,1,114.54,61c-.11-8.55-.05-17.1-.05-25.77Z" fill="#fff"/>
    <path d="M32.8,52.06c2.83,0,5.45-.09,8.07,0,3.2.14,4.77,1.89,4.64,4.9a3.7,3.7,0,0,1-3.16,3.76c-3.14.63-6.31.14-9.55.32Z" fill="#fff"/>
    <path d="M32.79,47.3V39.72c3.1,0,6.2-.39,9.24.45a3,3,0,0,1,2.16,3,3.43,3.43,0,0,1-1.91,3.6,4.73,4.73,0,0,1-2.1.49C37.78,47.29,35.38,47.3,32.79,47.3Z" fill="#fff"/>
  </g>
</svg>
