<svg id="Componentes" xmlns="http://www.w3.org/2000/svg" viewBox="0 0 100 100">
  <title>componentes_svg</title>
  <path d="M28,24.94a18.88,18.88,0,0,1,4.65-6.58A18.39,18.39,0,0,1,48.6,13.47a18.47,18.47,0,0,1,13.29,8.92,1,1,0,0,0,1.13.55,13.62,13.62,0,0,1,12.8,5.14,37.26,37.26,0,0,1,2.65,4.25,14.52,14.52,0,0,1,15,12.29v4.1a15.14,15.14,0,0,1-2.94,6.68A13.85,13.85,0,0,1,79.23,61q-18.09,0-36.18,0" fill="none" stroke="#fff" stroke-linecap="round" stroke-miterlimit="10" stroke-width="4"/>
  <path d="M32.92,30.75H7.67A3.76,3.76,0,0,0,3.92,34.5V66.75A3.76,3.76,0,0,0,7.67,70.5H32.92a3.76,3.76,0,0,0,3.75-3.75V34.5A3.76,3.76,0,0,0,32.92,30.75Zm.87,35.33a1.11,1.11,0,0,1-1.1,1.11H9.23a1.11,1.11,0,0,1-1.1-1.11V63.75a1.1,1.1,0,0,1,1.1-1.1H32.69a1.1,1.1,0,0,1,1.1,1.1Zm0-9.66a1.1,1.1,0,0,1-1.1,1.1H9.23a1.11,1.11,0,0,1-1.1-1.1V54.08A1.11,1.11,0,0,1,9.23,53H32.69a1.1,1.1,0,0,1,1.1,1.1Zm0-9.92a1.1,1.1,0,0,1-1.1,1.1H9.23a1.1,1.1,0,0,1-1.1-1.1V44.17a1.11,1.11,0,0,1,1.1-1.11H32.69a1.11,1.11,0,0,1,1.1,1.11Zm0-9a1.1,1.1,0,0,1-1.1,1.1H9.23a1.1,1.1,0,0,1-1.1-1.1V35.17a1.11,1.11,0,0,1,1.1-1.11H32.69a1.11,1.11,0,0,1,1.1,1.11Z" fill="#fff"/>
  <rect x="44.4" y="71.42" width="16.54" height="16.54" rx="2.28" ry="2.28" fill="#fff"/>
  <rect x="52.07" y="67.08" width="1.2" height="4.58" fill="#fff"/>
  <rect x="54.78" y="67.08" width="1.2" height="4.58" fill="#fff"/>
  <rect x="49.3" y="67.08" width="1.2" height="4.58" fill="#fff"/>
  <rect x="46.55" y="67.08" width="1.2" height="4.58" fill="#fff"/>
  <rect x="57.48" y="67.08" width="1.2" height="4.58" fill="#fff"/>
  <rect x="52.07" y="87.5" width="1.2" height="4.58" fill="#fff"/>
  <rect x="54.78" y="87.5" width="1.2" height="4.58" fill="#fff"/>
  <rect x="49.3" y="87.5" width="1.2" height="4.58" fill="#fff"/>
  <rect x="46.55" y="87.5" width="1.2" height="4.58" fill="#fff"/>
  <rect x="57.48" y="87.5" width="1.2" height="4.58" fill="#fff"/>
  <rect x="42.01" y="77.45" width="1.2" height="4.58" transform="translate(122.35 37.12) rotate(90)" fill="#fff"/>
  <rect x="42.01" y="80.16" width="1.2" height="4.58" transform="translate(125.06 39.83) rotate(90)" fill="#fff"/>
  <rect x="42.01" y="74.68" width="1.2" height="4.58" transform="translate(119.58 34.35) rotate(90)" fill="#fff"/>
  <rect x="42.01" y="71.93" width="1.2" height="4.58" transform="translate(116.83 31.6) rotate(90)" fill="#fff"/>
  <rect x="42.01" y="82.86" width="1.2" height="4.58" transform="translate(127.77 42.54) rotate(90)" fill="#fff"/>
  <rect x="62.14" y="77.45" width="1.2" height="4.58" transform="translate(142.48 17) rotate(90)" fill="#fff"/>
  <rect x="62.14" y="80.16" width="1.2" height="4.58" transform="translate(145.19 19.71) rotate(90)" fill="#fff"/>
  <rect x="62.14" y="74.68" width="1.2" height="4.58" transform="translate(139.71 14.23) rotate(90)" fill="#fff"/>
  <rect x="62.14" y="71.93" width="1.2" height="4.58" transform="translate(136.96 11.48) rotate(90)" fill="#fff"/>
  <rect x="62.14" y="82.86" width="1.2" height="4.58" transform="translate(147.9 22.42) rotate(90)" fill="#fff"/>
  <path d="M55.63,26.1,46.28,36.69a.5.5,0,0,0,.38.83H65.34a.5.5,0,0,0,.38-.83L56.37,26.1A.5.5,0,0,0,55.63,26.1Z" fill="#fff"/>
  <path d="M56.48,55,61,36.58a.49.49,0,0,0-.48-.61H51.44a.49.49,0,0,0-.48.61L55.52,55A.49.49,0,0,0,56.48,55Z" fill="#fff"/>
</svg>
