<svg id="Componentes" xmlns="http://www.w3.org/2000/svg" viewBox="0 0 100 100">
  <title>componentes_svg</title>
  <path d="M9.28,64.77a11.71,11.71,0,0,0,11,8.68c4.95.07,9.91,0,14.87,0H50v0c9.91,0,19.83,0,29.74,0A11.69,11.69,0,0,0,91.06,62.79,11.85,11.85,0,0,0,82.2,50.36a17.23,17.23,0,0,0-5.73-.08c-2.25.18-2.26.24-3-1.9s-1.51-4.52-3.22-6.3a11.3,11.3,0,0,0-10.54-3.6c-1.15.19-2.29.41-3.42.65a.94.94,0,0,1-1.17-.55A39.51,39.51,0,0,0,52,33.35c-4.64-5.7-10.67-8-17.86-6.27S22.46,33.61,21,40.87c-.48,2.44-.2,5-.18,7.57A1.05,1.05,0,0,1,20,49.66,33.28,33.28,0,0,0,14.37,52,11.4,11.4,0,0,0,9.28,64.77Z" fill="none" stroke="#fff" stroke-miterlimit="10" stroke-width="4"/>
  <path d="M31.26,52.71,38.92,67a1.85,1.85,0,0,0,3.1.24L70.1,30.88c.44-.69-.73-1.39-1.09-1.07l-27.67,27a1.88,1.88,0,0,1-2.26.18l-6.14-5.93A1.22,1.22,0,0,0,31.26,52.71Z" fill="#fff"/>
</svg>
