<svg id="Componentes" xmlns="http://www.w3.org/2000/svg" viewBox="0 0 100 100">
  <title>componentes_svg</title>
  <g>
    <path d="M23.3,83.7c-1.29,0-2.33,0-3.27-.07a3.55,3.55,0,0,1-3.69-3.89c-.05-3.34,0-6.76,0-10.06v-.09c0-1.54,0-3.09,0-4.63V49.45l0-15.34V30.25q0-4,0-8c0-2.56,1.59-4.09,4.22-4.09H62.06c-.22.22-.44.43-.65.65L60.33,19.9l-.16.16c-.76.77-1.53,1.55-2.3,2.28-5.24,0-21,0-27.59,0H24.21l-.71,0-2.92.15V79.44H77.64V73.52c0-6.93,0-25,0-31.34l4.17-4.24v.38c0,10.8,0,31.75,0,41.27A3.67,3.67,0,0,1,79,83.53a11.27,11.27,0,0,1-2.34.15l-13.85,0H52l-18.24,0H28.12l-2.44,0Z" fill="#fff" stroke="#fff" stroke-miterlimit="10" stroke-width="2"/>
    <path d="M52.24,58.38a42.82,42.82,0,0,0-10.71-10.6c.77-.73,1.52-1.45,2.25-2.18q4.17-4.12,8.3-8.29l4.78-4.78,4.42-4.4q3.9-3.89,7.78-7.78a27,27,0,0,1,9.64,9c.25.39.47.79.69,1.2l.24.43L71.52,39.1l-4,4Z" fill="#fff"/>
    <path d="M81.71,28.92A43.25,43.25,0,0,0,71,18.34l2.09-2a14.74,14.74,0,0,1,6.69,1.85c1.76,1.05,2.77,2.77,3.48,5.93a23.72,23.72,0,0,1,.37,2.59l0,.23Z" fill="#fff"/>
    <path d="M49.8,60.45c-1.86-.05-3.72-.06-5.6-.06H39.6V57c0-2.3,0-4.59,0-6.89A26,26,0,0,1,48,57.47a30.87,30.87,0,0,1,1.87,3Z" fill="#fff"/>
  </g>
</svg>
