<svg id="Componentes" xmlns="http://www.w3.org/2000/svg" viewBox="0 0 100 100">
  <title>componentes_svg</title>
  <g>
    <path d="M29.68,28.38H9.26A2.92,2.92,0,0,0,6.34,31.3V67.58A2.92,2.92,0,0,0,9.26,70.5H29.68a2.92,2.92,0,0,0,2.91-2.92V31.3A2.92,2.92,0,0,0,29.68,28.38Zm-2.45,33.3H11.71V35.13h4.1V57.88H27.23Z" fill="#fff"/>
    <path d="M60.11,28.38H39.7a2.91,2.91,0,0,0-2.91,2.92V67.58a2.93,2.93,0,0,0,2.92,2.92H60.13A2.92,2.92,0,0,0,63,67.58V31.3A2.92,2.92,0,0,0,60.11,28.38ZM55.74,60.1a7.3,7.3,0,0,1-5.21,2,8.05,8.05,0,0,1-6.88-3.74C41.9,55.84,41,52.53,41,48.4s.87-7.42,2.61-9.94a7.92,7.92,0,0,1,6.77-3.79,7.4,7.4,0,0,1,5.3,2,10.1,10.1,0,0,1,2.89,4.66l-2.86,1.79A6.4,6.4,0,0,0,53.89,40a4.61,4.61,0,0,0-3.33-1.25A5.23,5.23,0,0,0,46,41.49a13,13,0,0,0-1.7,6.87,13.11,13.11,0,0,0,1.69,6.87,5.19,5.19,0,0,0,4.59,2.83A4.81,4.81,0,0,0,54,56.75a7.69,7.69,0,0,0,2-3l2.86,1.78A12.36,12.36,0,0,1,55.74,60.1Z" fill="#fff"/>
    <path d="M84.28,41.39A11.45,11.45,0,0,1,86,48a13.4,13.4,0,0,1-1.76,7.07A5.68,5.68,0,0,1,79.15,58H74.86V38.85h4.29A5.84,5.84,0,0,1,84.28,41.39Z" fill="#fff"/>
    <path d="M90.74,28.38H70.32a2.91,2.91,0,0,0-2.9,2.92V67.58a2.92,2.92,0,0,0,2.92,2.92H90.76a2.92,2.92,0,0,0,2.9-2.92V31.3A2.92,2.92,0,0,0,90.74,28.38ZM87,57.81a9,9,0,0,1-7.87,3.87H71.33V35.13h7.82c3.48,0,6.12,1.18,7.92,3.56a15.24,15.24,0,0,1,2.68,9.36A16.45,16.45,0,0,1,87,57.81Z" fill="#fff"/>
  </g>
</svg>
