<svg id="Componentes" xmlns="http://www.w3.org/2000/svg" viewBox="0 0 100 100">
  <title>componentes_svg</title>
  <g>
    <path d="M83.42,18.42H16.58a3.67,3.67,0,0,0-3.66,3.66V77.92a3.66,3.66,0,0,0,3.66,3.66H83.42a3.66,3.66,0,0,0,3.66-3.66V22.08A3.67,3.67,0,0,0,83.42,18.42Zm-1,54.5a3.67,3.67,0,0,1-3.65,3.66H21.29a3.67,3.67,0,0,1-3.67-3.66V36.08a3.68,3.68,0,0,1,3.67-3.66H78.73a3.67,3.67,0,0,1,3.65,3.66Z" fill="#fff"/>
    <rect x="46.83" y="57.67" width="20.75" height="5.67" rx="2.83" ry="2.83" fill="#fff"/>
    <path d="M40.34,51a3,3,0,0,1-.11.79A3.1,3.1,0,0,1,39.52,53l-7.6,7.59a2.84,2.84,0,0,1-4,0,2.85,2.85,0,0,1,0-4l5.6-5.58-5.6-5.6a2.84,2.84,0,0,1,4-4l7.6,7.6a3,3,0,0,1,.71,1.2Z" fill="#fff"/>
  </g>
</svg>
