<svg id="Componentes" xmlns="http://www.w3.org/2000/svg" viewBox="0 0 100 100">
  <title>componentes_svg</title>
  <g>
    <path d="M66.29,45.82V65.07H34.12V45.82a16.09,16.09,0,0,1,32.17,0Z" fill="#fff"/>
    <rect x="32.21" y="67.23" width="36" height="5.88" fill="#fff"/>
    <g>
      <rect x="42.5" y="75.9" width="5" height="8.5" fill="#fff"/>
      <rect x="52.92" y="75.9" width="5" height="10.54" fill="#fff"/>
    </g>
    <rect x="16.88" y="45.9" width="12.42" height="4.42" rx="2.21" ry="2.21" fill="#fff"/>
    <rect x="70.71" y="45.9" width="12.42" height="4.42" rx="2.21" ry="2.21" fill="#fff"/>
    <rect x="44" y="17.56" width="12.42" height="4.42" rx="2.21" ry="2.21" transform="translate(30.44 69.98) rotate(-90)" fill="#fff"/>
    <rect x="58.21" y="21.46" width="12.42" height="4.42" rx="2.21" ry="2.21" transform="translate(11.71 67.62) rotate(-60)" fill="#fff"/>
    <rect x="68.56" y="31.93" width="12.42" height="4.42" rx="2.21" ry="2.21" transform="translate(-7.05 41.96) rotate(-30)" fill="#fff"/>
    <rect x="29.71" y="20.99" width="12.42" height="4.42" rx="2.21" ry="2.21" transform="translate(33.79 65.9) rotate(-120)" fill="#fff"/>
    <rect x="19.05" y="31.1" width="12.42" height="4.42" rx="2.21" ry="2.21" transform="translate(30.48 74.79) rotate(-150)" fill="#fff"/>
  </g>
</svg>
