<svg xmlns="http://www.w3.org/2000/svg" viewBox="0 0 300 100">
  <title>componentes_svg</title>
  <g id="Componentes">
    <g>
      <rect x="3.5" y="3.11" width="293" height="94.56" rx="3.25" ry="3.25" fill="#343434"/>
      <path d="M47.39,78H21.74a4.9,4.9,0,0,1-4.91-4.91V26a4.89,4.89,0,0,1,4.91-4.9H47.39a4.89,4.89,0,0,0-4.9,4.9V73.05A4.9,4.9,0,0,0,47.39,78Z" fill="#1e5f99"/>
      <path d="M283.18,26V73.05A4.91,4.91,0,0,1,278.27,78H47.39a4.9,4.9,0,0,1-4.9-4.91V26a4.89,4.89,0,0,1,4.9-4.9H278.27A4.9,4.9,0,0,1,283.18,26Z" fill="#2170ad"/>
      <rect x="16.83" y="9.55" width="266.34" height="4.97" rx="1.65" ry="1.65" fill="#101010"/>
      <rect x="16.83" y="84.57" width="266.34" height="4.97" rx="1.65" ry="1.65" fill="#101010"/>
    </g>
  </g>
  <g id="Textos">
    <g>
      <path d="M35.25,48.14V36.4l2.86,2.86v8.15L36.32,49.2Zm2.86,3.93v8.18l-2.86,2.86V51.38l1.07-1.11Zm10.12-3.74,1.45,1.43-1.45,1.43h-10l-1.41-1.43,1.41-1.43Zm.15-.92V39.24l2.87-2.86V48.14l-1,1.06Zm2.87,4V63.1l-2.87-2.86V52.07l1.82-1.8Z" fill="#fff"/>
      <path d="M55.83,48.14V36.91l2.86,2.86v7.64L56.9,49.2Zm2.86,3.93v7.64l-2.86,2.86V51.38l1.07-1.11ZM71.82,36.41,69,39.28H59.19l-2.83-2.87Zm0,26.69H56.36l2.83-2.86H69Zm-3-14.77,1.45,1.43-1.45,1.43h-10l-1.41-1.43,1.41-1.43Z" fill="#fff"/>
      <path d="M76.41,48.14V36.4l2.86,2.86v8.15L77.48,49.2Zm2.86,3.93v7.64l-2.86,2.86V51.38l1.07-1.11Zm13.13,11H76.94l2.83-2.86h9.81Z" fill="#fff"/>
      <path d="M97,48.14V36.4l2.86,2.86v8.15L98.06,49.2Zm2.86,3.93v7.64L97,62.57V51.38l1.07-1.11ZM113,63.1H97.52l2.83-2.86h9.81Z" fill="#fff"/>
      <path d="M120.43,47.41l-1.79,1.79-1.07-1.06V39.77L119,38.32l1.45,1.45Zm-2.86,12.3L119,61.16l1.45-1.45V52.07l-1.79-1.8-1.07,1.11Zm14.05-21.88-1.42,1.45h-9.27l-1.42-1.45,1.42-1.42h9.27ZM120.93,63.1l-1.42-1.41,1.42-1.45h9.27l1.42,1.45L130.2,63.1Zm12.63-15-1,1.06-1.82-1.79V39.77l1.43-1.45,1.43,1.45Zm0,11.57-1.43,1.45-1.43-1.45V52.07l1.82-1.8,1,1.11Z" fill="#fff"/>
      <path d="M141,66.11l-1.45,1.41-1.41-1.41V60.24H141Z" fill="#fff"/>
      <path d="M158.34,47.41l-1.79,1.79-1.07-1.06V36.38l2.86,2.86Zm0,12.3-2.86,2.86V51.38l1.07-1.11,1.79,1.8Zm12.6,3.39H156l2.83-2.86h9.28Zm-6-5-1.45,1.41-1.41-1.41V51.72l1.41-1.45,1.45,1.45Zm6.57-10-1,1.06-1.81-1.79V39.26l2.86-2.86Zm0,14.43-2.86-2.86V52.07l1.81-1.8,1,1.11Z" fill="#fff"/>
      <path d="M178.92,47.41l-1.79,1.79-1.07-1.06V39.77l1.41-1.45,1.45,1.45Zm-2.86,12.3,1.41,1.45,1.45-1.45V52.07l-1.79-1.8-1.07,1.11Zm14.05-21.88-1.41,1.45h-9.28L178,37.83l1.41-1.42h9.28ZM179.42,63.1,178,61.69l1.41-1.45h9.28l1.41,1.45L188.7,63.1Zm12.64-15L191,49.2l-1.81-1.79V39.77l1.43-1.45,1.43,1.45Zm0,11.57-1.43,1.45-1.43-1.45V52.07l1.81-1.8,1.05,1.11Z" fill="#fff"/>
      <path d="M199.5,47.41l-1.79,1.79-1.07-1.06V36.91l2.86,2.86Zm0,12.84-2.86,2.86V51.38l1.07-1.11,1.79,1.8Zm11.19-22.42-1.41,1.45H200l-2.82-2.87h12.1Zm-1.07,10.5,1.45,1.43-1.45,1.43h-10l-1.42-1.43,1.42-1.43Zm-8.19,5.59,0-2h2l9.17,9.16v2h-2Zm11.21-5.78-1,1.06-1.81-1.79V39.77l1.43-1.45,1.43,1.45Z" fill="#fff"/>
      <path d="M217.22,48.14V36.4l2.86,2.86v8.15l-1.79,1.79Zm2.86,3.93v7.64l-2.86,2.86V51.38l1.07-1.11Zm13.14,11H217.76l2.82-2.86h9.81Z" fill="#fff"/>
      <path d="M240.66,47.41l-1.79,1.79-1.07-1.06V36.91l2.86,2.86Zm0,12.3-2.86,2.86V51.38l1.07-1.11,1.79,1.8Zm11.19-21.88-1.41,1.45h-9.28l-2.82-2.87h12.1Zm0,23.86-1.41,1.41h-12.1l2.82-2.86h9.28Zm2-13.55-1.05,1.06-1.81-1.79V39.77l1.43-1.45,1.43,1.45Zm0,11.57-1.43,1.45-1.43-1.45V52.07l1.81-1.8,1.05,1.11Z" fill="#fff"/>
      <path d="M260.14,47.41V39.26L263,36.4V48.14l-1.07,1.06Zm2.86,4V62.57l-2.86-2.86V52.07l1.79-1.8Zm0,12.26h-2.86V66.5H263Z" fill="#fff"/>
    </g>
  </g>
</svg>
