<svg id="Componentes" xmlns="http://www.w3.org/2000/svg" viewBox="0 0 100 100">
  <title>componentes_svg</title>
  <path d="M76.64,42l-4.52-.57a23.06,23.06,0,0,0-1.38-3.31l2.8-3.6a3.59,3.59,0,0,0-.29-4.77l-3.8-3.79a3.58,3.58,0,0,0-4.78-.31l-3.6,2.8A21.94,21.94,0,0,0,57.76,27l-.57-4.53a3.62,3.62,0,0,0-3.58-3.18h-5.4a3.62,3.62,0,0,0-3.58,3.18L44.05,27a21.94,21.94,0,0,0-3.31,1.37l-3.6-2.8a3.59,3.59,0,0,0-4.77.29l-3.79,3.79a3.6,3.6,0,0,0-.31,4.79l2.8,3.6a21.94,21.94,0,0,0-1.37,3.31L25.18,42A3.61,3.61,0,0,0,22,45.54v5.4a3.61,3.61,0,0,0,3.17,3.58l4.53.58a22.37,22.37,0,0,0,1.37,3.31L28.27,62a3.58,3.58,0,0,0,.3,4.77l3.79,3.79a3.58,3.58,0,0,0,4.78.31l3.6-2.8a22.37,22.37,0,0,0,3.31,1.37L44.63,74a3.62,3.62,0,0,0,3.58,3.18h5.4A3.62,3.62,0,0,0,57.19,74l.57-4.53a24.22,24.22,0,0,0,3.31-1.37l3.6,2.79a3.58,3.58,0,0,0,4.77-.29l3.8-3.79a3.61,3.61,0,0,0,.3-4.79l-2.8-3.6a23.06,23.06,0,0,0,1.38-3.31l4.51-.57a3.61,3.61,0,0,0,3.18-3.58v-5.4A3.6,3.6,0,0,0,76.64,42ZM50.91,60.29a12,12,0,1,1,12-12,12.07,12.07,0,0,1-12,12Z" fill="#fff"/>
  <rect x="9.91" y="9.33" width="80.18" height="80.18" rx="4.47" ry="4.47" fill="none" stroke="#fff" stroke-miterlimit="10" stroke-width="3"/>
</svg>
