<?xml version="1.0" encoding="utf-8"?>
<!-- Generator: Adobe Illustrator 22.0.0, SVG Export Plug-In . SVG Version: 6.00 Build 0)  -->
<svg version="1.1" id="Layer_1" xmlns="http://www.w3.org/2000/svg" xmlns:xlink="http://www.w3.org/1999/xlink" x="0px" y="0px"
	 viewBox="0 0 322.6 104.1" style="enable-background:new 0 0 322.6 104.1;" xml:space="preserve">
<style type="text/css">
	.st0{fill:#333333;}
	.st1{fill:#216096;}
	.st2{fill:#1F6FA6;}
	.st3{fill:#101010;}
	.st4{fill:#FFFFFF;}
	.st5{font-family:'ArialMT';}
	.st6{font-size:33px;}
</style>
<title>ldr_vo</title>
<g id="Capa_2">
	<g id="Capa_31">
		<path class="st0" d="M3.3,0h316.1c1.8,0,3.3,1.5,3.3,3.3v97.6c0,1.8-1.5,3.3-3.3,3.3H3.3c-1.8,0-3.3-1.5-3.3-3.3V3.3
			C0,1.5,1.5,0,3.3,0z"/>
		<path class="st1" d="M48.3,82.4H20.1c-3,0-5.4-2.4-5.4-5.4c0,0,0,0,0,0V25.2c0-3,2.4-5.4,5.4-5.4c0,0,0,0,0,0h28.2
			c-3,0-5.4,2.4-5.4,5.4c0,0,0,0,0,0V77C42.9,80,45.3,82.4,48.3,82.4C48.3,82.4,48.3,82.4,48.3,82.4z"/>
		<path class="st2" d="M307.9,25.2V77c0,3-2.4,5.4-5.4,5.4H48.3c-3,0-5.4-2.4-5.4-5.4c0,0,0,0,0,0V25.2c0-3,2.4-5.4,5.4-5.4
			c0,0,0,0,0,0h254.2C305.5,19.8,307.9,22.2,307.9,25.2z"/>
		<path class="st3" d="M16.3,7.1h289.9c0.9,0,1.6,0.7,1.6,1.6v2.2c0,0.9-0.7,1.6-1.6,1.6H16.3c-0.9,0-1.6-0.7-1.6-1.6V8.7
			C14.7,7.8,15.4,7.1,16.3,7.1z"/>
		<path class="st3" d="M16.3,89.7h289.9c0.9,0,1.6,0.7,1.6,1.7v2.2c0,0.9-0.7,1.7-1.6,1.7H16.3c-0.9,0-1.6-0.7-1.6-1.7v-2.2
			C14.7,90.4,15.4,89.7,16.3,89.7z"/>
		<text transform="matrix(1 0 0 1 33.9733 63.7899)" class="st4 st5 st6">HELLO, WORLD!</text>
	</g>
</g>
</svg>
