<svg id="Componentes" xmlns="http://www.w3.org/2000/svg" viewBox="0 0 200 100">
  <title>componentes_svg</title>
  <rect x="10" y="9.91" width="180" height="80.18" rx="4.47" ry="4.47" fill="none" stroke="#fff" stroke-miterlimit="10" stroke-width="5"/>
  <g>
    <path d="M33.09,26.25c4.6,0,9.19,0,13.79,0,1.38,0,1.44,0,1.44,1.38q0,9,0,18.06c0,1.34-.2,1.54-1.61,1.56-2.26,0-4.53,0-6.79,0-.73,0-.88.19-.87.84,0,1.55,0,3.11,0,4.66,0,.36.16.84-.29,1s-.68-.29-1-.53c-1.88-1.69-3.76-3.36-5.59-5.09a3,3,0,0,0-2.41-.89c-3.36.09-6.73.05-10.09,0-2.18,0-2.21,0-2.21-2.13q0-8.64,0-17.28c0-1.6,0-1.62,1.59-1.62h14Zm-.17,2.5v0c-3.76,0-7.51,0-11.26,0-1.27,0-1.3,0-1.31,1.3q0,6.4,0,12.81c0,1.25,0,1.28,1.33,1.28a72.43,72.43,0,0,0,7.37,0,6,6,0,0,1,5.74,2.37c.39.5.69,1.23,1.5,1.32,0-.64,0-1.29,0-1.93,0-1.6.12-1.69,1.83-1.7,2,0,4,0,6,0,1.28,0,1.32,0,1.32-1.27,0-4.27,0-8.54,0-12.81,0-1-.31-1.33-1.33-1.31C40.43,28.78,36.67,28.75,32.92,28.75Z" fill="#fff"/>
    <path d="M113.34,41.08c0,1.75,0,3.49,0,5.24,0,3.31-2,5.28-5.34,5.36a9.08,9.08,0,0,1-4.2-.48,3.7,3.7,0,0,1-2.25-2.27c-.13-.49,0-1,.62-.91,1.24.11,2.44-.26,3.72.55,1.82,1.15,3.58,0,3.77-2.27a1.78,1.78,0,0,0-.1-.55l-.46.28a4.72,4.72,0,0,1-4,.65,4.91,4.91,0,0,1-3.51-3.32,8.62,8.62,0,0,1,.36-6.61c1.34-2.83,4.15-3.41,6.71-2.32.54.22.73.69,1.36-.18.5-.7,2-.27,3-.16.48,0,.4.6.4,1,0,2,0,4,0,6Zm-3.69-.72a3,3,0,0,0-.35-1.77,2,2,0,0,0-2.28-1.4,2,2,0,0,0-1.94,1.58,4.68,4.68,0,0,0,.18,3.76,2.13,2.13,0,0,0,3.29.7A3.23,3.23,0,0,0,109.65,40.36Z" fill="#fff"/>
    <path d="M122.05,47.05a8.11,8.11,0,0,1-4.32-.88,4.84,4.84,0,0,1-2.58-3.66c-.12-.66,0-1.16.88-1.14.51,0,1,0,1.55,0a1,1,0,0,1,1.26.87c.57,2,3.74,2.27,5.52,1.24,1.14-.67,1.06-1.74-.11-2.42a13.61,13.61,0,0,0-3.31-1c-.81-.22-1.64-.36-2.44-.61a3.82,3.82,0,0,1-3-3.56c-.16-2.16.29-4.14,2.42-5a8.47,8.47,0,0,1,8,.27,4.16,4.16,0,0,1,2.24,3.43c0,.25.09.65-.18.68a26.77,26.77,0,0,1-2.69.13c-.45,0-.58-.36-.8-.7a3.82,3.82,0,0,0-5-.84,1.17,1.17,0,0,0,0,2.07,3.26,3.26,0,0,0,1.42.56c1.51.35,3,.68,4.5,1.15,2.22.7,3.47,2.2,3.39,4.19a4.94,4.94,0,0,1-3.15,4.71,4.58,4.58,0,0,1-1.28.42C123.6,47,122.82,47,122.05,47.05Z" fill="#fff"/>
    <path d="M130.63,42.73c0-2.27,0-4.53,0-6.8,0-1.53,0-1.6,1.46-1.53.74,0,1.93-.65,2,1,0,.29.4-.06.59-.18a5,5,0,0,1,7.78,3.3,10.3,10.3,0,0,1-.08,4.59,5,5,0,0,1-7.72,3.15c-.68-.43-.84-.37-.81.42,0,1.23,0,2.46,0,3.69,0,.63-.19.91-.88.93-2.89.08-2.35.16-2.39-2.12s0-4.27,0-6.4Zm8.31-2.29a7.85,7.85,0,0,0-.16-1.24,2.53,2.53,0,0,0-2.2-1.89A2.42,2.42,0,0,0,134.42,39a6,6,0,0,0-.34,1.5c-.22,1.95.8,3.53,2.3,3.62S139,42.83,138.94,40.44Z" fill="#fff"/>
    <path d="M151.88,42.1c-1.1,0-2.2,0-3.3,0-.68,0-.82.27-.49.81.73,1.17,2.82,1.85,3.74.92,1.12-1.12,2.33-.9,3.58-.89.89,0,1.06.3.68,1.06a4.82,4.82,0,0,1-2.76,2.59,8,8,0,0,1-5.49,0,4.89,4.89,0,0,1-3.24-3.35c-.84-2.78-.37-5.95,1.76-7.66a6.61,6.61,0,0,1,6.78-.79c2.31.84,3.29,2.77,3.32,5.19a7.85,7.85,0,0,0,0,1c.1.84-.29,1.21-1.09,1.21h-3.49Zm-1.75-2.91v0h2.12c.61,0,.62-.32.37-.74a2.56,2.56,0,0,0-3.84-.65c-.35.35-.9.79-.68,1.28s.82,0,1.25.09A6.77,6.77,0,0,0,150.13,39.19Z" fill="#fff"/>
    <path d="M171.08,38.09c0-2.32,0-4.65,0-7,0-1.37,0-1.37,1.39-1.4.26,0,.52,0,.77,0,.85-.06,1.11.33,1.1,1.15,0,2.13,0,4.26,0,6.39,0,.26,0,.71.06.74.37.11.54-.26.74-.49.73-.82,1.5-1.61,2.17-2.48a2.49,2.49,0,0,1,1.46-1A6.41,6.41,0,0,1,180,34c.45,0,.91-.06,1.37-.06.19,0,.76,0,.76.35.33.74-.92,1.36-1.48,2-.7.84-1.92,1.45-2.1,2.46s.94,1.88,1.43,2.85c.68,1.38,1.5,2.7,2.28,4,.35.6.34.9-.48,1-3.17.25-3.22.24-4.75-2.61a7.44,7.44,0,0,0-.65-1.18c-.3-.36-.41-1.18-1-1a1.61,1.61,0,0,0-1.11,1.45c0,.71,0,1.42,0,2.13.08.95-.37,1.28-1.25,1.21-.26,0-.52,0-.78,0-1.22-.06-1.26-.06-1.27-1.36,0-2.39,0-4.78,0-7.17Z" fill="#fff"/>
    <path d="M68,38.25c0-2.21,0-4.41,0-6.61,0-1.51,0-1.51,1.51-1.54,1.79,0,1.79,0,1.81,1.81,0,.33,0,.65,0,1,0,.65-.23,1.59.09,1.87s1-.53,1.6-.61c1.54-.22,3.09-.43,4.43.7a3,3,0,0,1,1.23,2.31c0,2.85,0,5.7,0,8.55,0,.69-.3.94-.94.89a2.54,2.54,0,0,0-.39,0c-2.22.08-2.26.06-2.22-2.22,0-1.62.08-3.23.1-4.85a5.55,5.55,0,0,0-.14-1.14,1.57,1.57,0,0,0-1.31-1.48,2,2,0,0,0-2,1.19,5.41,5.41,0,0,0-.46,2.26c0,1.56,0,3.11,0,4.67s0,1.56-1.65,1.58S68,46.62,68,45.05c0-2.27,0-4.54,0-6.8Z" fill="#fff"/>
    <path d="M168.85,41.64c.19,1.33-.31,2.89.37,4.4.26.56-.12,1-.79,1h-2c-.41,0-.76-.11-.82-.61s-.36-.61-.76-.28a4.65,4.65,0,0,1-3.47.9,3.11,3.11,0,0,1-3.19-3.19c-.14-2.65.68-3.75,3.27-4.43A8.88,8.88,0,0,1,163.8,39a1.58,1.58,0,0,0,1.21-.51.7.7,0,0,0-.26-1.23c-.93-.22-2-.48-2.67.48-.85,1.18-2,.55-3,.57-.39,0-.46-.38-.43-.72a3.25,3.25,0,0,1,2-2.89,7.13,7.13,0,0,1,6.53.15,3.31,3.31,0,0,1,1.7,3.07C168.91,39.12,168.85,40.29,168.85,41.64Zm-3.56.43c-.06-.24.15-.87-.42-.76a7,7,0,0,0-2.58.72,1.25,1.25,0,0,0-.69,1.45,1.55,1.55,0,0,0,1.69,1A2.38,2.38,0,0,0,165.29,42.07Z" fill="#fff"/>
    <path d="M88.24,40.26c0-1.74,0-3.49,0-5.24,0-.73.27-1.07,1-1,.51,0,1,0,1.55,0,.18,0,.52.06.53.14.3,1.82,1,.37,1.54.19a5.9,5.9,0,0,1,4.52,0,3.17,3.17,0,0,1,1.93,3.1c0,2.65,0,5.31,0,8,0,.81-.27,1.23-1.11,1.16a2.54,2.54,0,0,0-.39,0c-2.15,0-2.16,0-2.16-2.11,0-1.88,0-3.75,0-5.63a1.77,1.77,0,0,0-1.44-2,2.18,2.18,0,0,0-2.15,1.33,5,5,0,0,0-.31,2.09c0,1.62,0,3.24,0,4.85,0,1.38-.1,1.41-1.44,1.46-.26,0-.51,0-.77,0-1.28-.06-1.31-.06-1.33-1.29,0-1.68,0-3.37,0-5.05Z" fill="#fff"/>
    <path d="M60.83,40.11c0,1.81,0,3.62,0,5.43,0,.7-.16,1.13-1,1.05-.13,0-.26,0-.39,0-2.82,0-2.32.12-2.35-2.2,0-3.23,0-6.46,0-9.7,0-1.29,0-1.29-1.26-1.32-.77,0-1.55,0-2.32,0-1.43,0-1.44,0-1.43-1.53s-.35-1.75,1.62-1.74c3.43,0,6.86,0,10.28,0,1.43,0,1.43,0,1.45,1.51,0,.32,0,.65,0,1,0,.57-.27.8-.83.79-.9,0-1.81,0-2.71,0s-1.14.28-1.12,1.12c0,1.87,0,3.75,0,5.62Z" fill="#fff"/>
    <path d="M85.72,40.68V45c0,1.62,0,1.63-1.53,1.64-2.6,0-2.14.06-2.17-2.2q0-4.26,0-8.53c0-1.47,0-1.47,1.55-1.5,2.13,0,2.14,0,2.14,2.06,0,1.42,0,2.84,0,4.26Z" fill="#fff"/>
    <path d="M83.92,33.39c-.62-.17-1.53.34-1.77-.39a7.46,7.46,0,0,1,0-2.5c0-.12.26-.32.41-.32.9,0,1.81-.05,2.71,0,.3,0,.44.24.45.52,0,.65,0,1.3,0,1.94s-.31.8-.85.78Z" fill="#fff"/>
  </g>
  <text transform="translate(79.65 71.28)" font-size="24" fill="#575756" font-family="Lemur-Medium, Lemur"><tspan letter-spacing="-0.02em">s</tspan><tspan x="10.63" y="0" letter-spacing="0.01em">u</tspan><tspan x="23.9" y="0" letter-spacing="-0.03em">bs</tspan><tspan x="47.64" y="0" letter-spacing="-0.01em">c</tspan><tspan x="60.29" y="0" letter-spacing="0em">r</tspan><tspan x="68.88" y="0" letter-spacing="0em">i</tspan><tspan x="74.62" y="0" letter-spacing="-0.01em">b</tspan><tspan x="88.29" y="0">e</tspan></text>
</svg>
