<svg id="Componentes" xmlns="http://www.w3.org/2000/svg" viewBox="0 0 200 100">
  <title>componentes_svg</title>
  <rect x="10" y="9.91" width="180" height="80.18" rx="4.47" ry="4.47" fill="none" stroke="#fff" stroke-miterlimit="10" stroke-width="5"/>
  <g>
    <g>
      <path d="M41.74,62.62c-.33.71-.6,1.46-1,2.13a10.59,10.59,0,0,1-5.9,4.58c-3.22,1.12-6.48,2.09-9.72,3.15-1,.34-2,.61-2.94-.29s-.59-1.79-.26-2.76c1-3.05,1.94-6.14,3-9.16,1.19-3.26,3.12-5.91,6.69-7.12a10.47,10.47,0,0,1-7.75-3.81c-2.41-3-4.72-6.07-7-9.19-1.21-1.68-.43-3.33,1.62-3.37,3.9-.09,7.82-.1,11.72.08A9.85,9.85,0,0,1,38.16,41c-1.25-4.08.14-7.44,2.51-10.58,1.72-2.28,3.39-4.59,5.08-6.89.64-.87,1.33-1.63,2.59-1.41s1.53,1.11,1.85,2.08c1,3.12,2.12,6.21,3.06,9.35s.94,6.34-1.12,9.33c3.64-2.26,7.32-1.92,11.08-.64,2.76.94,5.55,1.76,8.32,2.62.94.29,1.71.72,1.89,1.81a2.27,2.27,0,0,1-1.26,2.29c-2.74,1.94-5.45,3.89-8.21,5.78-2.94,2-6.1,3-9.74,1.82a11.64,11.64,0,0,1,4.2,8.26c0,3.47,0,6.95.06,10.42a2.38,2.38,0,0,1-1.1,2.39,2.17,2.17,0,0,1-2.57-.37c-2.93-2.08-5.91-4.1-8.76-6.3A9.9,9.9,0,0,1,41.74,62.62Zm3.14-8.9c-1,2.13.78,6.33,2.77,7,1,.32,1.57-.19,1.38-1.07a15.21,15.21,0,0,0-1.32-3.77A3.2,3.2,0,0,0,44.88,53.72Zm.35-13.14c-2,1.2-2.19,3.12-2.3,5-.06,1.12-.14,2.4,1.23,2.94A5.73,5.73,0,0,0,45.23,40.58Zm9.06,9c-2.14-2-7-1.08-7.79,1.4C48.66,52.77,53.21,51.94,54.29,49.56ZM35.91,58.87c3.08.15,6.23-3.2,5.47-5.69C38.6,53.07,35.54,56.17,35.91,58.87Zm5-8.81c-.14-2.61-4.62-4.91-7-3.61C34.24,49.07,38.26,51.13,40.93,50.06Z" fill="#fff"/>
      <path d="M100.37,77.62h-5l-.41-2.31c-2.32,2.7-5.16,2.61-8,2.35a3.77,3.77,0,0,1-3.83-3.38,32.17,32.17,0,0,1,0-11.82A4,4,0,0,1,87,58.89c2.8-.33,5.55-.38,8.11,2V52.45h5.27ZM95.05,63.73a8.84,8.84,0,0,0-5.52-.6,1.86,1.86,0,0,0-1.29,1.22c-.11,2.63-.1,5.28,0,7.91a1.7,1.7,0,0,0,1.14,1.21c1.93.18,3.93.43,5.65-.85Z" fill="#fff"/>
      <path d="M80.53,77.62H75.38l-.35-2c-2.5,2.61-5.53,2.22-8.49,2-2.12-.12-3.12-1.15-3.28-3.29a24.18,24.18,0,0,1,0-3.71A3.66,3.66,0,0,1,67,66.87c2.65-.11,5.31,0,8.12,0-.1.17,0,.06,0,0,.42-3.82.18-4.09-3.55-4.06-.73,0-1.45.09-2.16.13l-.73,2H65a9,9,0,0,1-1-.11,21.48,21.48,0,0,1,0-3,3.05,3.05,0,0,1,3-2.76c3.33-.12,6.69-.13,10,0,2,.09,3.13,1.3,3.23,3.38.13,2.91.1,5.83.12,8.75C80.54,73.22,80.53,75.32,80.53,77.62ZM68.35,70.51,68.51,74c2.44-.16,4.69.52,6.56-1V69.77C72.84,70.06,70.68,69.34,68.35,70.51Z" fill="#fff"/>
      <path d="M119.85,77.62h-5l-.24-1.74a2.52,2.52,0,0,0-.66.27c-2.69,2.26-5.83,1.7-8.89,1.36a2.68,2.68,0,0,1-2.25-2.63,23.33,23.33,0,0,1,0-4.8,3.55,3.55,0,0,1,3.72-3.21c2.64-.1,5.29,0,8.08,0-.11.16,0,.11,0,.06.54-3.89.29-4.2-3.53-4.18-.67,0-1.34.06-2.06.09l-.78,2H103.4a26.41,26.41,0,0,1,.16-3.05A3.07,3.07,0,0,1,106.43,59c3.46-.1,6.94-.13,10.4,0a3,3,0,0,1,3,3.2C119.91,67.26,119.85,72.34,119.85,77.62ZM108,73.84c2.43.11,4.7.59,6.62-.91V69.86c-2.26.11-4.46-.48-6.62.58Z" fill="#fff"/>
      <path d="M159.57,58.91h5.29V77.55h-5.1l-.35-1.91c-.29.1-.51.1-.61.21-2.33,2.49-5.33,2-8.21,1.72a2.87,2.87,0,0,1-2.79-3c-.2-2.28-.23-4.58-.26-6.87,0-2.85,0-5.7,0-8.74H153v11.6c0,2.9.13,3.07,3.07,3a26.85,26.85,0,0,0,3.5-.61Z" fill="#fff"/>
      <path d="M127.39,77.62H122.2c0-.61-.12-1.14-.12-1.68q0-9,0-18a15.71,15.71,0,0,1,0-1.68c.26-2.46,1.46-3.64,4-3.86.43,0,.87,0,1.3,0h3.86v3.86l-3.57.23-.31,2.35,3.92.19v3.91h-3.77C127.33,67.79,127.54,72.63,127.39,77.62Z" fill="#fff"/>
      <path d="M174.31,56.3h5.37c.06.84.11,1.57.18,2.5h3.77v4l-3.73.24V73.44l3.67.29v3.39c-2.23.62-4.41,1.18-6.74.57a2.87,2.87,0,0,1-2.35-2.54,8.33,8.33,0,0,1-.16-1.1C174.31,68.22,174.31,62.39,174.31,56.3Z" fill="#fff"/>
      <path d="M139,61.59c1.9-2,3.65-3.41,6.38-2.62v5c-1.13,0-2.24-.09-3.32,0a30.43,30.43,0,0,0-3.13.63V77.54h-5.32V58.92h5.15Z" fill="#fff"/>
      <path d="M172.25,58.94V77.55h-5.08V58.94Z" fill="#fff"/>
      <path d="M172.24,52.46V56h-5V52.46Z" fill="#fff"/>
    </g>
    <text transform="translate(109.5 45.24)" font-size="24" fill="#575756" font-family="Lemur-Medium, Lemur"><tspan letter-spacing="-0.01em">p</tspan><tspan x="13.61" y="0" letter-spacing="0.01em">u</tspan><tspan x="26.88" y="0" letter-spacing="-0.01em">b</tspan><tspan x="40.51" y="0" letter-spacing="0em">l</tspan><tspan x="46.15" y="0" letter-spacing="-0.03em">i</tspan><tspan x="51.19" y="0" letter-spacing="-0.02em">s</tspan><tspan x="61.97" y="0">h</tspan></text>
  </g>
</svg>
