<svg id="Componentes" xmlns="http://www.w3.org/2000/svg" viewBox="0 0 200 100">
  <title>componentes_svg</title>
  <rect x="10" y="9.91" width="180" height="80.18" rx="4.47" ry="4.47" fill="none" stroke="#fff" stroke-miterlimit="10" stroke-width="3"/>
  <g>
    <path d="M68.9,43.16c0,.86,0,1.72,0,2.58q0,7.59,0,15.18c0,.86,0,.86-.88.86-1.42,0-2.83,0-4.25,0-.5,0-.63-.17-.63-.65q0-13.53,0-27c0-.5.14-.65.64-.65,1.48,0,3,.09,4.44,0a2.25,2.25,0,0,1,2.41,1.5c2.11,4.28,4.3,8.52,6.45,12.77.64,1.26,1.29,2.52,1.82,3.83,0,.12.07.26.25.32,1.3-3,2.85-5.82,4.3-8.71s2.87-5.63,4.28-8.46a1.94,1.94,0,0,1,2-1.24c1.56.06,3.13,0,4.7,0,.48,0,.65.12.65.63q0,13.52,0,27.05c0,.47-.11.67-.62.66-1.53,0-3.05,0-4.58,0-.5,0-.63-.16-.63-.65,0-5.37,0-10.74,0-16.11,0-.62.06-1.23.1-1.89-.29.11-.33.37-.43.57L82.12,57a3.29,3.29,0,0,1-4.39,1.68,2.68,2.68,0,0,1-1.46-1.46l-7-13.46c-.11-.21-.16-.46-.38-.6l0,0Z" fill="#fff"/>
    <path d="M127.82,67.07a4.4,4.4,0,0,1-.44.05c-1.93,0-3.85.08-5.77-.07a4.25,4.25,0,0,1-3.06-1.49c-1-1.16-2-2.28-3-3.43a.89.89,0,0,0-.91-.32c-4.48.74-8.69.1-12.38-2.7a13.63,13.63,0,0,1-5.37-10A14.55,14.55,0,0,1,99,39.59a13.74,13.74,0,0,1,10.49-6.38,15.55,15.55,0,0,1,9.08,1.45,13.51,13.51,0,0,1,7.61,11.07A14.88,14.88,0,0,1,123.82,56a11.59,11.59,0,0,1-2.65,2.85c-.42.31-.4.5-.07.86,2.09,2.25,4.16,4.52,6.24,6.78Zm-8.27-19.39a12,12,0,0,0-.14-2.31c-.5-2.81-1.75-5.08-4.52-6.25a8.74,8.74,0,0,0-4.29-.57A7,7,0,0,0,104.35,43a12.05,12.05,0,0,0-.77,6.17,8.83,8.83,0,0,0,1.8,4.83c1.86,2.32,4.4,2.93,7.19,2.67A7.06,7.06,0,0,0,119,51.46,10.53,10.53,0,0,0,119.55,47.68Z" fill="#fff"/>
    <path d="M164.77,50.21c0,3.64,0,7.29,0,10.93,0,.52-.14.69-.67.68-1.72,0-3.44,0-5.17,0-.62,0-.77-.19-.77-.79,0-7.16,0-14.32,0-21.48,0-.92,0-.92-.94-.92h-6.17c-.44,0-.62-.11-.61-.59,0-1.34,0-2.69,0-4,0-.46.14-.62.6-.62h21.08c.46,0,.62.14.61.61,0,1.34,0,2.69,0,4,0,.46-.14.61-.6.61-2.24,0-4.47,0-6.7,0-.56,0-.7.17-.7.72C164.78,43,164.77,46.58,164.77,50.21Z" fill="#fff"/>
    <path d="M139.81,50.26c0,3.6,0,7.21,0,10.81,0,.57-.14.77-.73.75-1.72,0-3.45,0-5.17,0-.61,0-.72-.2-.72-.76,0-7.2,0-14.4,0-21.61,0-.67-.17-.86-.84-.84-2,.05-4.07,0-6.1,0-.66,0-.82-.2-.79-.82,0-1.23,0-2.47,0-3.71,0-.6.17-.73.74-.73,5.92,0,11.84,0,17.77,0,1,0,2,0,3,0,.39,0,.54.12.54.53,0,1.39,0,2.79,0,4.18,0,.46-.18.55-.59.54-2.14,0-4.29,0-6.43,0-.54,0-.71.14-.71.7C139.82,43,139.81,46.62,139.81,50.26Z" fill="#fff"/>
    <path d="M56.58,60.44c0,1.19-.51,1.69-1.69,1.7h-1a20.43,20.43,0,0,0-.38-4.34A26.07,26.07,0,0,0,43.14,41.06a26.44,26.44,0,0,0-15.85-5.28c0-.37,0-.75,0-1.12,0-1.22.56-1.78,1.78-1.79h9.25l.84.35a31.74,31.74,0,0,1,14.14,11.2,37.18,37.18,0,0,1,3.25,5.69" fill="#fff"/>
    <path d="M27.29,40.22a21.58,21.58,0,0,1,13.17,4.25A22.26,22.26,0,0,1,49.65,62.1h-5A17.42,17.42,0,0,0,27.29,45C27.24,43.43,27.24,41.83,27.29,40.22Z" fill="#fff"/>
    <path d="M40.34,62.11c-3.88,0-7.76,0-11.64,0-.91,0-1.43-.66-1.44-1.71,0-2,0-3.93,0-5.89,0-1.7,0-3.4,0-5.1A13,13,0,0,1,40.34,62.11Z" fill="#fff"/>
    <path d="M56.55,41.45a53.39,53.39,0,0,0-3.86-4.51,42.77,42.77,0,0,0-5-4c2.45,0,4.9,0,7.35,0a1.37,1.37,0,0,1,1.5,1.42C56.58,36.68,56.56,39.07,56.55,41.45Z" fill="#fff"/>
  </g>
</svg>
