<svg id="Componentes" xmlns="http://www.w3.org/2000/svg" viewBox="0 0 100 100">
  <title>componentes_svg</title>
  <path d="M33.23,68.54V19.17c0-2.8.72-3.75,3.39-4.46l48.87-13c2.85-.76,4.69.65,4.69,3.6q0,32.45,0,64.87a15,15,0,0,1-29,5.51A15,15,0,0,1,75.22,55h8.13V28.29c-2.82.73-5.6,1.45-8.36,2.18q-16.72,4.44-33.44,8.87c-1.25.33-1.63.81-1.63,2.19Q40,62.79,40,84.06c0,7.53-6.65,14-14.15,14.42a15.2,15.2,0,0,1-16-15.9c.29-6.91,6.17-13.44,13.08-14C26.27,68.32,29.66,68.54,33.23,68.54Z" fill="#585857"/>
</svg>
