<svg id="Componentes" xmlns="http://www.w3.org/2000/svg" viewBox="0 0 100 100">
  <title>componentes_svg</title>
  <g>
    <path d="M50,17.1H40.14c-.81,0-1.8.2-2.4-.18A3.73,3.73,0,0,1,36,14.66c-.09-.64.75-1.64,1.44-2.07a4.72,4.72,0,0,1,2.38-.3c6.8,0,13.59,0,20.38,0,.35,0,.71,0,1.06,0,1.85.19,2.86,1.08,2.84,2.47s-1,2.29-2.9,2.33c-3.75.07-7.5,0-11.25,0Z" fill="#585857"/>
    <path d="M50,24.15c-3.63,0-7.26,0-10.89,0-2.24,0-3.19-.78-3.18-2.34s1-2.43,3.21-2.45c7.25-.06,14.51,0,21.77,0a4.56,4.56,0,0,1,1.05.09c1.23.33,2.18,1,2.14,2.39a2.23,2.23,0,0,1-2.51,2.33C57.73,24.16,53.87,24.15,50,24.15Z" fill="#585857"/>
    <path d="M50,31.22c-3.28,0-6.56,0-9.84,0-.82,0-1.81.2-2.41-.18A3.75,3.75,0,0,1,36,28.78c-.09-.64.75-1.64,1.44-2.07a4.83,4.83,0,0,1,2.38-.31c6.8,0,13.59,0,20.39,0,.35,0,.7,0,1,0,1.85.19,2.86,1.08,2.84,2.48s-1,2.28-2.9,2.32c-3.75.07-7.5,0-11.25,0Z" fill="#585857"/>
    <path d="M50,38.27c-3.63,0-7.26,0-10.88,0-2.23,0-3.2-.79-3.19-2.34s1-2.43,3.21-2.45c7.26-.06,14.51,0,21.77,0a4.11,4.11,0,0,1,1.05.09c1.22.32,2.19,1,2.13,2.39a2.24,2.24,0,0,1-2.5,2.33C57.73,38.28,53.86,38.27,50,38.27Z" fill="#585857"/>
    <path d="M50,45.34c-3.4,0-6.79,0-10.19,0a5.44,5.44,0,0,1-2.41-.26A2.61,2.61,0,0,1,36,43.27,3.14,3.14,0,0,1,37.16,41a5.25,5.25,0,0,1,2.69-.47c6.8,0,13.59,0,20.39,0a10.88,10.88,0,0,1,1.4,0c1.42.21,2.49.87,2.47,2.45a2.24,2.24,0,0,1-2.52,2.32c-3.87,0-7.74,0-11.61,0Z" fill="#585857"/>
    <path d="M50,52.38c-3.63,0-7.25,0-10.88,0-2.22,0-3.2-.81-3.19-2.35s1-2.42,3.21-2.44c7.26-.06,14.51-.07,21.76.05a4.18,4.18,0,0,1,2.92,1.44c1.09,1.5-.29,3.25-2.59,3.3-3.74.08-7.48,0-11.23,0Z" fill="#585857"/>
    <path d="M49.77,59.46h-9.5a5.48,5.48,0,0,1-2.42-.15c-.79-.45-1.78-1.38-1.8-2.13a3.44,3.44,0,0,1,1.61-2.3,4.66,4.66,0,0,1,2.4-.24h20a13.06,13.06,0,0,1,1.4,0c1.42.15,2.49.75,2.61,2.33s-.84,2.4-2.74,2.44c-3.87.08-7.74,0-11.61,0Z" fill="#585857"/>
    <path d="M50,66.52H40.12c-.7,0-1.55.2-2.08-.11a4.43,4.43,0,0,1-2-2c-.41-1.33.58-2.19,1.85-2.52a8.6,8.6,0,0,1,2.1-.18q10.05,0,20.11,0a9.36,9.36,0,0,1,1.76.1c1.25.24,2.25.87,2.25,2.29a2.25,2.25,0,0,1-2.44,2.42c-1.18,0-2.35,0-3.53,0Z" fill="#585857"/>
    <path d="M49.91,73.56c-3.64,0-7.27,0-10.91,0-2.18,0-3.2-.88-3.08-2.45.14-1.79,1.38-2.34,2.94-2.34,7.39,0,14.78-.05,22.17,0,2.08,0,3.16,1,3.1,2.54s-1.08,2.24-3.31,2.26c-3.64,0-7.27,0-10.91,0Z" fill="#585857"/>
    <path d="M50,80.64H40.12c-.71,0-1.55.2-2.09-.11a4.45,4.45,0,0,1-2-2c-.41-1.33.58-2.19,1.85-2.52A8.1,8.1,0,0,1,40,75.79q10.07,0,20.12,0a9.36,9.36,0,0,1,1.76.1c1.26.24,2.25.87,2.25,2.29a2.25,2.25,0,0,1-2.44,2.42c-1.18.05-2.36,0-3.53,0Z" fill="#585857"/>
    <path d="M50,87.68c-3.63,0-7.27,0-10.91,0-2.21,0-3.18-.82-3.16-2.38s1-2.39,3.22-2.4c7.28-.06,14.55,0,21.82,0a2,2,0,0,1,.35,0c1.85.2,2.84,1.07,2.83,2.49s-.95,2.29-2.89,2.32c-3.75.07-7.5,0-11.26,0Z" fill="#585857"/>
    <path d="M82.07,45.34c-3.4,0-6.8,0-10.19,0a5,5,0,0,1-2.41-.22A3.17,3.17,0,0,1,68,43a3.14,3.14,0,0,1,1.4-2.12,4.51,4.51,0,0,1,2.38-.37c6.79,0,13.58,0,20.38-.05a10.21,10.21,0,0,1,1.75.08A2.27,2.27,0,0,1,96,43.23a2.1,2.1,0,0,1-2.36,2.06c-3.86,0-7.73,0-11.59,0Z" fill="#585857"/>
    <path d="M81.86,52.38H72c-.71,0-1.57.22-2.08-.1-.8-.52-1.84-1.38-1.88-2.14s.86-1.8,1.62-2.33a4.65,4.65,0,0,1,2.4-.26c6.58,0,13.16,0,19.74,0a13.23,13.23,0,0,1,1.41,0c2,.22,2.81,1,2.81,2.5s-.79,2.25-2.87,2.29c-3.76.07-7.52,0-11.28,0Z" fill="#585857"/>
    <path d="M17.92,59.44H7c-1.53,0-2.85-.22-3-2.12-.14-1.68.75-2.66,2.89-2.68,7.38-.07,14.76,0,22.15,0,2.13,0,3.22,1,3.13,2.52S31,59.42,28.82,59.45c-3.63,0-7.27,0-10.9,0Z" fill="#585857"/>
    <path d="M82.13,59.46H72c-.7,0-1.57.22-2.07-.11-.8-.52-1.83-1.37-1.89-2.15s.88-1.77,1.64-2.28A4.74,4.74,0,0,1,72,54.64l20,0a9.45,9.45,0,0,1,1.41,0c1.84.26,2.7,1.16,2.58,2.67s-1.2,2.13-2.65,2.12H82.13Z" fill="#585857"/>
    <path d="M81.72,66.52c-3.52,0-7,0-10.57,0-2.11,0-3.26-.93-3.27-2.37S69,61.7,71.11,61.68c7.17,0,14.34,0,21.51,0a5.45,5.45,0,0,1,1.4.13,2.28,2.28,0,0,1,2,2.5,2.07,2.07,0,0,1-2.29,2.14c-4,0-8,0-12,0Z" fill="#585857"/>
    <path d="M17.8,73.58H8.31a20.16,20.16,0,0,1-2.46-.08A2,2,0,0,1,4,71.33a2.13,2.13,0,0,1,1.62-2.39,7.69,7.69,0,0,1,2.09-.21q10.2,0,20.39,0c2.81,0,4,.72,4.09,2.3S31,73.54,28,73.56H17.8Z" fill="#585857"/>
    <path d="M81.77,73.56c-3.28,0-6.55,0-9.83,0a5.28,5.28,0,0,1-2.41-.2,3.18,3.18,0,0,1-1.56-2,3.26,3.26,0,0,1,1.35-2.16,3.42,3.42,0,0,1,2-.38c7,0,14,0,21.07,0a6.11,6.11,0,0,1,1,0c1.84.27,2.7,1.17,2.57,2.69s-1.2,2.12-2.66,2.12H81.77Z" fill="#585857"/>
    <path d="M81.75,80.64c-3.64,0-7.29,0-10.93,0-1.83,0-2.91-1-2.94-2.34s1-2.45,2.85-2.46c7.52,0,15,0,22.57.05,1.9,0,2.78,1,2.7,2.55-.11,1.91-1.41,2.2-3,2.2-3.76,0-7.52,0-11.28,0Z" fill="#585857"/>
    <path d="M18.06,87.7H8.21a5.85,5.85,0,0,1-2.42-.13,3.64,3.64,0,0,1-1.71-1.88,1.88,1.88,0,0,1,1.31-2.51,8.08,8.08,0,0,1,2.4-.32q10.2,0,20.4,0c2.76,0,4,.79,4,2.39s-1.24,2.39-3.94,2.4c-3.39,0-6.79,0-10.19,0Z" fill="#585857"/>
    <path d="M82.16,87.68H72c-.7,0-1.56.21-2.07-.11-.81-.5-1.85-1.34-1.91-2.11s.85-1.78,1.6-2.3A4.74,4.74,0,0,1,72,82.88c6.67,0,13.34,0,20,0a8.52,8.52,0,0,1,1.75.07c1.4.28,2.37,1,2.26,2.61s-1.15,2.17-2.62,2.17H82.16Z" fill="#585857"/>
    <path d="M18,66.5c-3.64,0-7.29,0-10.93,0-1.53,0-2.87-.22-3-2.13-.13-1.68.73-2.62,2.94-2.64,7.4-.08,14.81,0,22.22-.06,1.62,0,2.76.72,2.93,2.41.15,1.43-1.12,2.4-3.19,2.43-3.64,0-7.29,0-10.94,0Z" fill="#585857"/>
    <path d="M17.68,80.62H7.8c-.71,0-1.56.18-2.08-.14a3.92,3.92,0,0,1-1.63-2,1.88,1.88,0,0,1,1.46-2.43A9.46,9.46,0,0,1,8,75.82c6.7,0,13.4.06,20.11-.09,2.58,0,3.88.82,4,2.43s-1.18,2.46-3.86,2.47c-3.53,0-7,0-10.58,0Z" fill="#585857"/>
  </g>
</svg>
