<svg id="Componentes" xmlns="http://www.w3.org/2000/svg" viewBox="0 0 100 100">
  <title>componentes_svg</title>
  <g>
    <path d="M89.82,29.68c-.81-3.07-2.54-4.49-5.72-4.52-4-.05-8-.11-12,0a6.26,6.26,0,0,1-5.24-2c-1.26-1.33-2.8-2.4-4.19-3.61a5.11,5.11,0,0,0-3.36-1.44c-2.74,0-5.48-.07-8.22,0a3.78,3.78,0,0,0-3.62,3.69,22.64,22.64,0,0,0,0,2.33c0,.67-.19.93-.9.95-3.14.06-6.31.47-8.49-2.69a17.45,17.45,0,0,0-2.85-2.7,5.33,5.33,0,0,0-3.65-1.61c-5.48,0-11-.1-16.45,0-3,0-4.76,1.76-5.33,4.75,0,5.89.08,11.78.07,17.68q0,17-.05,33.93c.8,2.93,2.46,4.31,5.45,4.41,1.61.06,3.22,0,4.83,0q31.85,0,63.69,0c3.46,0,5.13-1.25,6-4.39,0-5.35-.06-10.71,0-16.07Q89.77,44.07,89.82,29.68ZM82.54,76.61H21c-2.49,0-2.49,0-2.49-2.5,0-.72,0-1.43,0-2.15H68.31a5.39,5.39,0,0,1-.77-3c0-11.1,0-22.2,0-33.3,0-2.66,1.11-3.76,3.78-3.76,2.92,0,5.85,0,8.77,0a2.89,2.89,0,0,1,3.2,3.22q0,17.18,0,34.36A5.21,5.21,0,0,1,82.56,72a10.9,10.9,0,0,0,5-.74C87.8,75.43,86.72,76.61,82.54,76.61Z" fill="#474b4b" stroke="#474b4b" stroke-miterlimit="10" stroke-width="1.2"/>
    <path d="M90.33,28.91c-.8-3-2.51-4.43-5.65-4.47-3.94,0-7.89-.11-11.83,0a6.18,6.18,0,0,1-5.18-1.94A52.38,52.38,0,0,0,63.53,19a5.07,5.07,0,0,0-3.32-1.43c-2.7,0-5.41-.07-8.12,0a3.73,3.73,0,0,0-3.57,3.65,19.61,19.61,0,0,0,0,2.3c0,.66-.19.92-.89.93-3.1.06-6.24.47-8.38-2.65a17.42,17.42,0,0,0-2.82-2.66,5.31,5.31,0,0,0-3.61-1.6c-5.41,0-10.83-.09-16.24,0-2.94,0-4.71,1.74-5.27,4.69,0,5.82.08,11.64.07,17.46q0,16.77-.05,33.52c.79,2.89,2.43,4.26,5.38,4.36,1.59.06,3.18,0,4.78,0H84.4c3.41,0,5.06-1.24,5.93-4.34,0-5.29-.06-10.58,0-15.87Q90.28,43.11,90.33,28.91ZM83.14,75.26H22.33c-2.46,0-2.46,0-2.46-2.47,0-.7,0-1.41,0-2.12h49.2a5.39,5.39,0,0,1-.77-3q0-16.45,0-32.89c0-2.63,1.1-3.71,3.73-3.71,2.89,0,5.78,0,8.67,0a2.85,2.85,0,0,1,3.16,3.18q0,17,0,33.95a5.23,5.23,0,0,1-.76,2.49,10.94,10.94,0,0,0,4.9-.74C88.34,74.1,87.27,75.26,83.14,75.26Z" fill="#9a9ea4"/>
    <path d="M19.89,70.67H69.08a5,5,0,0,0,2.83.73q4.22-.06,8.42,0a5,5,0,0,0,2.83-.74,10.92,10.92,0,0,0,4.9-.74c.28,4.16-.79,5.33-4.92,5.33H22.33c-2.46,0-2.46,0-2.46-2.48C19.87,72.09,19.88,71.38,19.89,70.67Z" fill="#b9bcc2"/>
    <path d="M83.16,70.68a5,5,0,0,1-2.83.74q-4.2-.08-8.42,0a5,5,0,0,1-2.83-.73,5.4,5.4,0,0,1-.76-3q0-16.44,0-32.88c0-2.63,1.09-3.71,3.73-3.71,2.89,0,5.78,0,8.67,0a2.85,2.85,0,0,1,3.16,3.18q0,17,0,33.95A5.12,5.12,0,0,1,83.16,70.68Zm-7-18.27c-1.35,0-2.7.07-4,0-1.14-.08-1.47.38-1.35,1.42a8.45,8.45,0,0,1,0,1.59c0,.76.28,1,1,1,2.93,0,5.87,0,8.8,0,.81,0,1-.35,1-1.06a11.48,11.48,0,0,1,0-1.76c.08-.92-.27-1.25-1.2-1.2C78.94,52.46,77.53,52.41,76.12,52.41ZM76.21,65c-1.42,0-2.84.06-4.24,0-1.06-.06-1.35.35-1.24,1.32a9.37,9.37,0,0,1,0,1.59c0,.89.37,1.29,1.25,1.29H80.3c.56,0,1-.13,1.19-.79C82.18,66,81.47,65,79,65Zm-.09-27.56c1.29,0,2.59-.05,3.88,0,1,0,1.79,0,1.52-1.35-.22-1.07.81-2.82-1.5-2.79s-4.35,0-6.52,0c-2.88,0-2.84,0-2.78,2.94,0,.89.23,1.24,1.18,1.19C73.3,37.4,74.71,37.45,76.12,37.46ZM76,43.78c1.47,0,3,0,4.42,0,.83,0,1.19-.22,1.11-1.08a10.46,10.46,0,0,1,0-1.77c.09-.88-.3-1.08-1.12-1.07-2.88,0-5.77,0-8.66,0-.75,0-1.09.2-1,1a9.41,9.41,0,0,1,0,1.76c-.11,1,.3,1.22,1.2,1.17C73.29,43.73,74.64,43.79,76,43.78Zm0,6.34c1,0,2,0,3,0,2.74-.06,2.4.61,2.5-2.55,0-1.07-.26-1.43-1.37-1.39-2.59.08-5.18.12-7.76,0-1.46-.07-1.67.46-1.73,1.77-.09,1.73.32,2.5,2.19,2.21A22.33,22.33,0,0,1,76.05,50.12ZM76,62.62h3c2.65,0,2.58,0,2.6-2.63,0-1.16-.43-1.35-1.45-1.32-2.3.06-4.6,0-6.9,0-2.52,0-2.47,0-2.5,2.54,0,1.05.21,1.5,1.36,1.41S74.66,62.62,76,62.62Z" fill="#474b4b" stroke="#474b4b" stroke-miterlimit="10" stroke-width="1.2"/>
    <g>
      <path d="M35.08,51.81a.65.65,0,0,0-.18-.19c-1-.86-2.45-1.13-3.65-1.7a7,7,0,0,1-1.91-1.24,2.23,2.23,0,0,1,.83-3.86,19.77,19.77,0,0,1,6.68-1.16c2.17,0,4.35.05,6.53.05-.31,2-.31,2-2.19,2-1.56,0-3.12,0-4.68,0a8,8,0,0,0-4,.8,9.74,9.74,0,0,0,2.62,1.5c1,.38,2.07.66,3.08,1.08,1.92.8,3.31,2.82,2,4.82a4.29,4.29,0,0,1-2.56,1.67,26.14,26.14,0,0,1-6.38.33h-5a11.6,11.6,0,0,0-1.67,0c.5-1.4.86-2.5,1.31-3.57.07-.17.57-.23.86-.22l4,.17c.77,0,1.55.09,2.33.07.33,0,1.82,0,1.9-.43A.29.29,0,0,0,35.08,51.81Z" fill="#474b4b"/>
      <path d="M41.65,56.13c.51-1.58.89-2.94,1.41-4.26a1.66,1.66,0,0,1,1-.77c1.58-.42,3.21-.67,4.77-1.15a2.29,2.29,0,0,0,1.87-2.09c0-.19.44-.45.72-.53,1.65-.5,3.34-.87,5-1.47,1.39-.51,2.08.39,2.86,1.13a2.31,2.31,0,0,1,.7,2.7,6.57,6.57,0,0,1-3.39,3.43,27,27,0,0,1-9.37,2.54C45.41,55.88,43.62,56,41.65,56.13Z" fill="#474b4b"/>
      <path d="M45.18,45.61c.41-2.1.41-2.11,2.39-2,1.2,0,2.41.12,3.68.18C49.81,45.72,48.3,46.17,45.18,45.61Z" fill="#474b4b"/>
      <path d="M49.85,46.45l2.09-.92L53,45a6.9,6.9,0,0,1,1-.34c.12,0,1.23-.25,1.27-.11l.13.4L50,46.89Z" fill="#474b4b"/>
    </g>
    <rect x="70.77" y="33.51" width="10.76" height="3.86" rx="1.79" ry="1.79" fill="#9a9ea4"/>
    <rect x="70.77" y="39.93" width="10.76" height="3.86" rx="1.79" ry="1.79" fill="#9a9ea4"/>
    <rect x="70.77" y="46.21" width="10.76" height="3.86" rx="1.79" ry="1.79" fill="#9a9ea4"/>
    <rect x="70.77" y="52.49" width="10.76" height="3.86" rx="1.79" ry="1.79" fill="#9a9ea4"/>
    <rect x="70.77" y="58.71" width="10.76" height="3.86" rx="1.79" ry="1.79" fill="#9a9ea4"/>
    <rect x="70.77" y="65.19" width="10.76" height="3.86" rx="1.79" ry="1.79" fill="#9a9ea4"/>
  </g>
</svg>
