<svg id="Componentes" xmlns="http://www.w3.org/2000/svg" viewBox="0 0 100 100">
  <title>componentes_svg</title>
  <rect x="9.91" y="9.33" width="80.18" height="80.18" rx="4.47" ry="4.47" fill="none" stroke="#fff" stroke-miterlimit="10" stroke-width="3"/>
  <g>
    <path d="M50,18.83A31.17,31.17,0,1,0,81.19,50,31.21,31.21,0,0,0,50,18.83Zm0,57.49A26.32,26.32,0,1,1,76.29,50,26.33,26.33,0,0,1,50,76.32Z" fill="#fff" stroke="#fff" stroke-miterlimit="10"/>
    <path d="M50.71,56.1a1.83,1.83,0,0,1-1.83-1.83V28.76a1.84,1.84,0,0,1,3.67,0V54.27A1.83,1.83,0,0,1,50.71,56.1Z" fill="#fff" stroke="#fff" stroke-miterlimit="10"/>
    <path d="M50.71,56.1a1.8,1.8,0,0,1-1.43-.69L40.73,44.67a1.83,1.83,0,1,1,2.86-2.29l8.56,10.75a1.83,1.83,0,0,1-1.44,3Z" fill="#fff" stroke="#fff" stroke-miterlimit="10"/>
  </g>
</svg>
