<svg id="Componentes" xmlns="http://www.w3.org/2000/svg" viewBox="0 0 100 100">
  <title>componentes_svg</title>
  <g>
    <g>
      <g>
        <path d="M30.15,41.61v4.6a.92.92,0,0,1-.92.91h-1V40.69h1A.92.92,0,0,1,30.15,41.61Z" fill="#66a3c8"/>
        <path d="M30.15,54.91v4.6a.92.92,0,0,1-.92.91h-1V54h1A.92.92,0,0,1,30.15,54.91Z" fill="#66a3c8"/>
        <path d="M42.33,41.61v4.6a.92.92,0,0,1-.92.91h-4.6a.91.91,0,0,1-.91-.91v-4.6a.92.92,0,0,1,.91-.92h4.6A.92.92,0,0,1,42.33,41.61Z" fill="#66a3c8"/>
        <path d="M42.33,54.91v4.6a.92.92,0,0,1-.92.91h-4.6a.91.91,0,0,1-.91-.91v-4.6a.92.92,0,0,1,.91-.92h4.6A.92.92,0,0,1,42.33,54.91Z" fill="#66a3c8"/>
        <path d="M52.57,13.25a6.65,6.65,0,0,1-5.34,0Z" fill="#66a3c8"/>
        <path d="M53.69,41.67v4.59a.9.9,0,0,1-.9.91h-4.6a.92.92,0,0,1-.92-.91V41.67a.92.92,0,0,1,.92-.93h4.6A.91.91,0,0,1,53.69,41.67Z" fill="#66a3c8"/>
        <path d="M53.69,55v4.59a.9.9,0,0,1-.9.91h-4.6a.92.92,0,0,1-.92-.91V55a.92.92,0,0,1,.92-.93h4.6A.91.91,0,0,1,53.69,55Z" fill="#66a3c8"/>
        <path d="M65.07,41.67v4.59a.92.92,0,0,1-.92.91h-4.6a.9.9,0,0,1-.9-.91V41.67a.91.91,0,0,1,.9-.93h4.6A.92.92,0,0,1,65.07,41.67Z" fill="#66a3c8"/>
        <path d="M65.07,55v4.59a.92.92,0,0,1-.92.91h-4.6a.9.9,0,0,1-.9-.91V55a.91.91,0,0,1,.9-.93h4.6A.92.92,0,0,1,65.07,55Z" fill="#66a3c8"/>
        <path d="M76.28,41.67v4.59a.91.91,0,0,1-.91.91h-4.6a.92.92,0,0,1-.92-.91V41.67a.92.92,0,0,1,.92-.93h4.6A.92.92,0,0,1,76.28,41.67Z" fill="#66a3c8"/>
        <path d="M76.28,55v4.59a.91.91,0,0,1-.91.91h-4.6a.92.92,0,0,1-.92-.91V55a.92.92,0,0,1,.92-.93h4.6A.92.92,0,0,1,76.28,55Z" fill="#66a3c8"/>
        <path d="M78.49,82.61v2.54a7.12,7.12,0,0,1-7.12,7.12h-36a7.13,7.13,0,0,1-7.13-7.12V82.61a6.83,6.83,0,0,0,.21,1.7,7.12,7.12,0,0,0,6.92,5.42h36A7.12,7.12,0,0,0,78.49,82.61Z" fill="#557990"/>
        <path d="M30.15,41.61v4.6a.92.92,0,0,1-.92.91h-1V40.69h1A.92.92,0,0,1,30.15,41.61Z" fill="#66a3c8"/>
        <path d="M30.15,54.91v4.6a.92.92,0,0,1-.92.91h-1V54h1A.92.92,0,0,1,30.15,54.91Z" fill="#66a3c8"/>
        <path d="M42.33,41.61v4.6a.92.92,0,0,1-.92.91h-4.6a.91.91,0,0,1-.91-.91v-4.6a.92.92,0,0,1,.91-.92h4.6A.92.92,0,0,1,42.33,41.61Z" fill="#66a3c8"/>
        <path d="M42.33,54.91v4.6a.92.92,0,0,1-.92.91h-4.6a.91.91,0,0,1-.91-.91v-4.6a.92.92,0,0,1,.91-.92h4.6A.92.92,0,0,1,42.33,54.91Z" fill="#66a3c8"/>
        <path d="M52.57,13.25a6.65,6.65,0,0,1-5.34,0Z" fill="#66a3c8"/>
        <path d="M53.69,41.67v4.59a.9.9,0,0,1-.9.91h-4.6a.92.92,0,0,1-.92-.91V41.67a.92.92,0,0,1,.92-.93h4.6A.91.91,0,0,1,53.69,41.67Z" fill="#66a3c8"/>
        <path d="M53.69,55v4.59a.9.9,0,0,1-.9.91h-4.6a.92.92,0,0,1-.92-.91V55a.92.92,0,0,1,.92-.93h4.6A.91.91,0,0,1,53.69,55Z" fill="#66a3c8"/>
        <path d="M65.07,41.67v4.59a.92.92,0,0,1-.92.91h-4.6a.9.9,0,0,1-.9-.91V41.67a.91.91,0,0,1,.9-.93h4.6A.92.92,0,0,1,65.07,41.67Z" fill="#66a3c8"/>
        <path d="M65.07,55v4.59a.92.92,0,0,1-.92.91h-4.6a.9.9,0,0,1-.9-.91V55a.91.91,0,0,1,.9-.93h4.6A.92.92,0,0,1,65.07,55Z" fill="#66a3c8"/>
        <path d="M76.28,41.67v4.59a.91.91,0,0,1-.91.91h-4.6a.92.92,0,0,1-.92-.91V41.67a.92.92,0,0,1,.92-.93h4.6A.92.92,0,0,1,76.28,41.67Z" fill="#66a3c8"/>
        <path d="M76.28,55v4.59a.91.91,0,0,1-.91.91h-4.6a.92.92,0,0,1-.92-.91V55a.92.92,0,0,1,.92-.93h4.6A.92.92,0,0,1,76.28,55Z" fill="#66a3c8"/>
        <path d="M35.34,92.27H28.63a7.12,7.12,0,0,1-7.12-7.12V20.36a7.11,7.11,0,0,1,7.12-7.11h6.71a7.12,7.12,0,0,0-7.13,7.11V85.15A7.13,7.13,0,0,0,35.34,92.27Z" fill="#557990"/>
        <path d="M30.15,41.61v4.6a.92.92,0,0,1-.92.91h-1V40.69h1A.92.92,0,0,1,30.15,41.61Z" fill="#b0b0b0"/>
        <path d="M30.15,54.91v4.6a.92.92,0,0,1-.92.91h-1V54h1A.92.92,0,0,1,30.15,54.91Z" fill="#b0b0b0"/>
        <path d="M42.33,41.61v4.6a.92.92,0,0,1-.92.91h-4.6a.91.91,0,0,1-.91-.91v-4.6a.92.92,0,0,1,.91-.92h4.6A.92.92,0,0,1,42.33,41.61Z" fill="#b0b0b0"/>
        <path d="M42.33,54.91v4.6a.92.92,0,0,1-.92.91h-4.6a.91.91,0,0,1-.91-.91v-4.6a.92.92,0,0,1,.91-.92h4.6A.92.92,0,0,1,42.33,54.91Z" fill="#b0b0b0"/>
        <path d="M52.57,13.25a6.65,6.65,0,0,1-5.34,0Z" fill="#5998c2"/>
        <path d="M53.69,41.67v4.59a.9.9,0,0,1-.9.91h-4.6a.92.92,0,0,1-.92-.91V41.67a.92.92,0,0,1,.92-.93h4.6A.91.91,0,0,1,53.69,41.67Z" fill="#b0b0b0"/>
        <path d="M53.69,55v4.59a.9.9,0,0,1-.9.91h-4.6a.92.92,0,0,1-.92-.91V55a.92.92,0,0,1,.92-.93h4.6A.91.91,0,0,1,53.69,55Z" fill="#b0b0b0"/>
        <path d="M65.07,41.67v4.59a.92.92,0,0,1-.92.91h-4.6a.9.9,0,0,1-.9-.91V41.67a.91.91,0,0,1,.9-.93h4.6A.92.92,0,0,1,65.07,41.67Z" fill="#b0b0b0"/>
        <path d="M65.07,55v4.59a.92.92,0,0,1-.92.91h-4.6a.9.9,0,0,1-.9-.91V55a.91.91,0,0,1,.9-.93h4.6A.92.92,0,0,1,65.07,55Z" fill="#b0b0b0"/>
        <path d="M76.28,41.67v4.59a.91.91,0,0,1-.91.91h-4.6a.92.92,0,0,1-.92-.91V41.67a.92.92,0,0,1,.92-.93h4.6A.92.92,0,0,1,76.28,41.67Z" fill="#b0b0b0"/>
        <path d="M76.28,55v4.59a.91.91,0,0,1-.91.91h-4.6a.92.92,0,0,1-.92-.91V55a.92.92,0,0,1,.92-.93h4.6A.92.92,0,0,1,76.28,55Z" fill="#b0b0b0"/>
      </g>
      <path d="M55.2,3.13a6.65,6.65,0,0,0-10.59,0l-.06.07a6.49,6.49,0,0,0-.84,1.5,6.8,6.8,0,0,0-.46,2.45,6.62,6.62,0,0,0,4,6.1,6.65,6.65,0,0,0,5.34,0A6.66,6.66,0,0,0,55.2,3.13Zm-5.3,8.05a4,4,0,1,1,4-4A4,4,0,0,1,49.9,11.18Z" fill="#6993b5"/>
      <path d="M75.37,28.21h-4.6a.92.92,0,0,0-.92.92v4.59a.91.91,0,0,0,.92.91h4.6a.91.91,0,0,0,.91-.91V29.13A.92.92,0,0,0,75.37,28.21Zm-11.22-4.7h-4.6a.93.93,0,0,1-.89-.74.9.9,0,0,0,.89.76h4.6a.92.92,0,0,0,.91-.76A.93.93,0,0,1,64.15,23.51Zm0,11.1h-4.6a.93.93,0,0,1-.89-.74.9.9,0,0,0,.89.76h4.6a.92.92,0,0,0,.91-.76A.93.93,0,0,1,64.15,34.61ZM52.79,23.51h-4.6a.93.93,0,0,1-.91-.74.92.92,0,0,0,.91.76h4.6a.91.91,0,0,0,.89-.76A.93.93,0,0,1,52.79,23.51Zm0,11.1h-4.6a.93.93,0,0,1-.91-.74.92.92,0,0,0,.91.76h4.6a.91.91,0,0,0,.89-.76A.93.93,0,0,1,52.79,34.61ZM43.25,7.15a6.8,6.8,0,0,1,.46-2.45,6.49,6.49,0,0,1,.84-1.5L36.44,13.25H47.23A6.62,6.62,0,0,1,43.25,7.15Zm-6.44,9.9a.89.89,0,0,0-.75.41,1,1,0,0,1,.75-.38h4.6a1,1,0,0,1,.76.38.91.91,0,0,0-.76-.41Zm0,11.1a.89.89,0,0,0-.75.41,1,1,0,0,1,.75-.38h4.6a1,1,0,0,1,.76.38.91.91,0,0,0-.76-.41Zm-7.58,0h-1v6.43h1a.92.92,0,0,0,.92-.91V29.08A.92.92,0,0,0,29.23,28.15Z" fill="#f5f4f5"/>
      <path d="M71.37,13.25H70.18L60.07.72,49.9.5c.86,1.12,6.65,5.15,6.65,6.65a6.62,6.62,0,0,1-4,6.1,6.65,6.65,0,0,1-5.34,0H35.34a7.12,7.12,0,0,0-7.13,7.11v7.79h1a.92.92,0,0,1,.92.93v4.59a.92.92,0,0,1-.92.91h-1v6.11h1a.92.92,0,0,1,.92.92v4.6a.92.92,0,0,1-.92.91h-1V54h1a.92.92,0,0,1,.92.92v4.6a.92.92,0,0,1-.92.91h-1V82.61a6.83,6.83,0,0,0,.21,1.7,7.12,7.12,0,0,0,6.92,5.42h36a7.12,7.12,0,0,0,7.12-7.12V20.36A7.11,7.11,0,0,0,71.37,13.25Zm-29,58.89a.92.92,0,0,1-.92.91h-4.6a.91.91,0,0,1-.91-.91V67.53a.91.91,0,0,1,.91-.91h4.6a.92.92,0,0,1,.92.91Zm0-12.63a.92.92,0,0,1-.92.91h-4.6a.91.91,0,0,1-.91-.91v-4.6a.92.92,0,0,1,.91-.92h4.6a.92.92,0,0,1,.92.92Zm0-13.3a.92.92,0,0,1-.92.91h-4.6a.91.91,0,0,1-.91-.91v-4.6a.92.92,0,0,1,.91-.92h4.6a.92.92,0,0,1,.92.92Zm0-12.52a.84.84,0,0,1-.16.51.91.91,0,0,1-.76.41h-4.6a.89.89,0,0,1-.75-.41.91.91,0,0,1-.16-.51v-4.6a1.06,1.06,0,0,1,.16-.53.89.89,0,0,1,.75-.41h4.6a.91.91,0,0,1,.76.41,1.06,1.06,0,0,1,.16.53Zm0-11.11a.85.85,0,0,1-.16.52.91.91,0,0,1-.76.41h-4.6a.89.89,0,0,1-.75-.41.91.91,0,0,1-.16-.52V18a1.06,1.06,0,0,1,.16-.53.89.89,0,0,1,.75-.41h4.6a.91.91,0,0,1,.76.41,1.06,1.06,0,0,1,.16.53ZM53.69,72.14a.9.9,0,0,1-.9.91h-4.6a.92.92,0,0,1-.92-.91V67.53a.92.92,0,0,1,.92-.91h4.6a.9.9,0,0,1,.9.91Zm0-12.58a.9.9,0,0,1-.9.91h-4.6a.92.92,0,0,1-.92-.91V55a.92.92,0,0,1,.92-.93h4.6a.91.91,0,0,1,.9.93Zm0-13.3a.9.9,0,0,1-.9.91h-4.6a.92.92,0,0,1-.92-.91V41.67a.92.92,0,0,1,.92-.93h4.6a.91.91,0,0,1,.9.93Zm0-12.57a1,1,0,0,1,0,.18.91.91,0,0,1-.89.76h-4.6a.92.92,0,0,1-.91-.76,1,1,0,0,1,0-.18v-4.6a.81.81,0,0,1,0-.15.92.92,0,0,1,.91-.76h4.6a.91.91,0,0,1,.89.76.81.81,0,0,1,0,.15Zm0-11.11a1.09,1.09,0,0,1,0,.19.91.91,0,0,1-.89.76h-4.6a.92.92,0,0,1-.91-.76,1.09,1.09,0,0,1,0-.19V18a.81.81,0,0,1,0-.15.92.92,0,0,1,.91-.76h4.6a.91.91,0,0,1,.89.76.81.81,0,0,1,0,.15ZM65.07,72.14a.92.92,0,0,1-.92.91h-4.6a.9.9,0,0,1-.9-.91V67.53a.9.9,0,0,1,.9-.91h4.6a.92.92,0,0,1,.92.91Zm0-12.58a.92.92,0,0,1-.92.91h-4.6a.9.9,0,0,1-.9-.91V55a.91.91,0,0,1,.9-.93h4.6a.92.92,0,0,1,.92.93Zm0-13.3a.92.92,0,0,1-.92.91h-4.6a.9.9,0,0,1-.9-.91V41.67a.91.91,0,0,1,.9-.93h4.6a.92.92,0,0,1,.92.93Zm0-12.57a1,1,0,0,1,0,.18.92.92,0,0,1-.91.76h-4.6a.9.9,0,0,1-.89-.76,1,1,0,0,1,0-.18v-4.6a.81.81,0,0,1,0-.15.9.9,0,0,1,.89-.76h4.6a.92.92,0,0,1,.91.76.81.81,0,0,1,0,.15Zm0-11.11a1.09,1.09,0,0,1,0,.19.92.92,0,0,1-.91.76h-4.6a.9.9,0,0,1-.89-.76,1.09,1.09,0,0,1,0-.19V18a.81.81,0,0,1,0-.15.9.9,0,0,1,.89-.76h4.6a.92.92,0,0,1,.91.76.81.81,0,0,1,0,.15Zm11.21,37a.91.91,0,0,1-.91.91h-4.6a.92.92,0,0,1-.92-.91V55a.92.92,0,0,1,.92-.93h4.6a.92.92,0,0,1,.91.93Zm0-13.3a.91.91,0,0,1-.91.91h-4.6a.92.92,0,0,1-.92-.91V41.67a.92.92,0,0,1,.92-.93h4.6a.92.92,0,0,1,.91.93Zm0-12.54a.91.91,0,0,1-.91.91h-4.6a.91.91,0,0,1-.92-.91V29.13a.92.92,0,0,1,.92-.92h4.6a.92.92,0,0,1,.91.92Z" fill="#6993b5"/>
      <path d="M43.3,7.15c0-1.5,5.75-5.53,6.6-6.65H40.27L28.49,13.25H47.28A6.64,6.64,0,0,1,43.3,7.15Zm3.93,6.1H49.4m-20.91,0h6.85" fill="#6993b5"/>
    </g>
    <g>
      <path d="M44.18,7.17a5.69,5.69,0,0,0,4.91,5.63,3.68,3.68,0,0,0,.82.07,5.72,5.72,0,0,0,0-11.43,4.39,4.39,0,0,0-.82.07A5.71,5.71,0,0,0,44.18,7.17Z" fill="#c6c6c4"/>
      <path d="M44.18,7.17a5.69,5.69,0,0,0,4.91,5.63,5.7,5.7,0,0,0,0-11.29A5.71,5.71,0,0,0,44.18,7.17Z" fill="#d8d8d8"/>
      <rect x="49.09" y="2.5" width="1.61" height="9.31" rx="0.24" ry="0.24" fill="#b0b0b0"/>
      <rect x="45.24" y="6.31" width="9.31" height="1.7" rx="0.24" ry="0.24" fill="#b0b0b0"/>
    </g>
    <path d="M35.33,92.27H38.1a0,0,0,0,1,0,0v6.55a.68.68,0,0,1-.68.68H36a.68.68,0,0,1-.68-.68V92.27A0,0,0,0,1,35.33,92.27Z" fill="#ebebec"/>
    <path d="M63.55,92.27H65a.68.68,0,0,1,.68.68V99.5a0,0,0,0,1,0,0H62.87a0,0,0,0,1,0,0V92.95a.68.68,0,0,1,.68-.68Z" transform="translate(128.51 191.77) rotate(-180)" fill="#ebebec"/>
    <path d="M44.51,92.27h2.77a0,0,0,0,1,0,0v6.55a.68.68,0,0,1-.68.68H45.19a.68.68,0,0,1-.68-.68V92.27A0,0,0,0,1,44.51,92.27Z" fill="#ebebec"/>
    <path d="M53.69,92.27h2.77a0,0,0,0,1,0,0v6.55a.68.68,0,0,1-.68.68H54.37a.68.68,0,0,1-.68-.68V92.27A0,0,0,0,1,53.69,92.27Z" fill="#ebebec"/>
    <path d="M42.33,41.61v4.6a.92.92,0,0,1-.92.91h-4.6a.91.91,0,0,1-.91-.91v-4.6a.92.92,0,0,1,.91-.92h4.6A.92.92,0,0,1,42.33,41.61Z" fill="#b0b0b0"/>
    <path d="M53.69,41.67v4.59a.9.9,0,0,1-.9.91h-4.6a.92.92,0,0,1-.92-.91V41.67a.92.92,0,0,1,.92-.93h4.6A.91.91,0,0,1,53.69,41.67Z" fill="#b0b0b0"/>
    <path d="M65.07,41.67v4.59a.92.92,0,0,1-.92.91h-4.6a.9.9,0,0,1-.9-.91V41.67a.91.91,0,0,1,.9-.93h4.6A.92.92,0,0,1,65.07,41.67Z" fill="#b0b0b0"/>
    <path d="M42.33,54.91v4.6a.92.92,0,0,1-.92.91h-4.6a.91.91,0,0,1-.91-.91v-4.6a.92.92,0,0,1,.91-.92h4.6A.92.92,0,0,1,42.33,54.91Z" fill="#b0b0b0"/>
    <path d="M53.69,55v4.59a.9.9,0,0,1-.9.91h-4.6a.92.92,0,0,1-.92-.91V55a.92.92,0,0,1,.92-.93h4.6A.91.91,0,0,1,53.69,55Z" fill="#b0b0b0"/>
    <path d="M65.07,55v4.59a.92.92,0,0,1-.92.91h-4.6a.9.9,0,0,1-.9-.91V55a.91.91,0,0,1,.9-.93h4.6A.92.92,0,0,1,65.07,55Z" fill="#b0b0b0"/>
    <path d="M30.15,41.61v4.6a.92.92,0,0,1-.92.91h-4.6a.91.91,0,0,1-.91-.91v-4.6a.92.92,0,0,1,.91-.92h4.6A.92.92,0,0,1,30.15,41.61Z" fill="#b0b0b0"/>
    <path d="M30.15,54.91v4.6a.92.92,0,0,1-.92.91h-4.6a.91.91,0,0,1-.91-.91v-4.6a.92.92,0,0,1,.91-.92h4.6A.92.92,0,0,1,30.15,54.91Z" fill="#b0b0b0"/>
    <path d="M76.28,41.67v4.59a.91.91,0,0,1-.91.91h-4.6a.92.92,0,0,1-.92-.91V41.67a.92.92,0,0,1,.92-.93h4.6A.92.92,0,0,1,76.28,41.67Z" fill="#b0b0b0"/>
    <path d="M42.33,29.09v4.6a.84.84,0,0,1-.16.51,1,1,0,0,1-.76.38h-4.6a1,1,0,0,1-.75-.38.91.91,0,0,1-.16-.51v-4.6a1.06,1.06,0,0,1,.16-.53.89.89,0,0,1,.75-.41h4.6a.91.91,0,0,1,.76.41A1.06,1.06,0,0,1,42.33,29.09Z" fill="#b0b0b0"/>
    <path d="M53.69,29.09v4.6a1,1,0,0,1,0,.18.91.91,0,0,1-.89.76h-4.6a.92.92,0,0,1-.91-.76,1,1,0,0,1,0-.18v-4.6a.81.81,0,0,1,0-.15.92.92,0,0,1,.91-.73h4.6a.92.92,0,0,1,.89.73A.81.81,0,0,1,53.69,29.09Z" fill="#b0b0b0"/>
    <path d="M65.07,29.09v4.6a1,1,0,0,1,0,.18.92.92,0,0,1-.91.76h-4.6a.9.9,0,0,1-.89-.76,1,1,0,0,1,0-.18v-4.6a.81.81,0,0,1,0-.15.92.92,0,0,1,.89-.73h4.6a.92.92,0,0,1,.91.73A.81.81,0,0,1,65.07,29.09Z" fill="#b0b0b0"/>
    <path d="M30.15,29.08v4.59a.92.92,0,0,1-.92.91h-4.6a.91.91,0,0,1-.91-.91V29.08a.92.92,0,0,1,.91-.93h4.6A.92.92,0,0,1,30.15,29.08Z" fill="#b0b0b0"/>
    <path d="M76.28,29.13v4.59a.91.91,0,0,1-.91.91h-4.6a.91.91,0,0,1-.92-.91V29.13a.92.92,0,0,1,.92-.92h4.6A.92.92,0,0,1,76.28,29.13Z" fill="#b0b0b0"/>
    <path d="M42.33,18v4.59a.85.85,0,0,1-.16.52,1,1,0,0,1-.76.38h-4.6a1,1,0,0,1-.75-.38.91.91,0,0,1-.16-.52V18a1.06,1.06,0,0,1,.16-.53.89.89,0,0,1,.75-.41h4.6a.91.91,0,0,1,.76.41A1.06,1.06,0,0,1,42.33,18Z" fill="#b0b0b0"/>
    <path d="M53.69,18v4.59a1.09,1.09,0,0,1,0,.19.91.91,0,0,1-.89.76h-4.6a.92.92,0,0,1-.91-.76,1.09,1.09,0,0,1,0-.19V18a.81.81,0,0,1,0-.15.92.92,0,0,1,.91-.73h4.6a.92.92,0,0,1,.89.73A.81.81,0,0,1,53.69,18Z" fill="#b0b0b0"/>
    <path d="M65.07,18v4.59a1.09,1.09,0,0,1,0,.19.92.92,0,0,1-.91.76h-4.6a.9.9,0,0,1-.89-.76,1.09,1.09,0,0,1,0-.19V18a.81.81,0,0,1,0-.15.92.92,0,0,1,.89-.73h4.6a.92.92,0,0,1,.91.73A.81.81,0,0,1,65.07,18Z" fill="#b0b0b0"/>
    <path d="M76.28,55v4.59a.91.91,0,0,1-.91.91h-4.6a.92.92,0,0,1-.92-.91V55a.92.92,0,0,1,.92-.93h4.6A.92.92,0,0,1,76.28,55Z" fill="#b0b0b0"/>
    <path d="M42.33,67.34v4.59a.92.92,0,0,1-.92.91h-4.6a.91.91,0,0,1-.91-.91V67.34a.92.92,0,0,1,.91-.92h4.6A.92.92,0,0,1,42.33,67.34Z" fill="#b0b0b0"/>
    <path d="M53.69,67.39V72a.9.9,0,0,1-.9.91h-4.6a.92.92,0,0,1-.92-.91v-4.6a.92.92,0,0,1,.92-.92h4.6A.91.91,0,0,1,53.69,67.39Z" fill="#b0b0b0"/>
    <path d="M65.07,67.39V72a.92.92,0,0,1-.92.91h-4.6a.9.9,0,0,1-.9-.91v-4.6a.91.91,0,0,1,.9-.92h4.6A.92.92,0,0,1,65.07,67.39Z" fill="#b0b0b0"/>
    <path d="M30.15,67.34v4.59a.92.92,0,0,1-.92.91h-4.6a.91.91,0,0,1-.91-.91V67.34a.92.92,0,0,1,.91-.92h4.6A.92.92,0,0,1,30.15,67.34Z" fill="#b0b0b0"/>
    <path d="M76.28,67.39V72a.91.91,0,0,1-.91.91h-4.6a.92.92,0,0,1-.92-.91v-4.6a.92.92,0,0,1,.92-.92h4.6A.92.92,0,0,1,76.28,67.39Z" fill="#b0b0b0"/>
  </g>
</svg>
