<svg id="Componentes" xmlns="http://www.w3.org/2000/svg" viewBox="0 0 200 100">
  <title>componentes_svg</title>
  <path d="M113,74.7h-3.71a1.21,1.21,0,0,0-1.21,1.2v3.44a1.21,1.21,0,0,0,1.21,1.2H110v2h2.29v-2H113a1.21,1.21,0,0,0,1.21-1.2V75.9A1.21,1.21,0,0,0,113,74.7Zm-9.07,0h-3.72A1.2,1.2,0,0,0,99,75.9v3.44a1.2,1.2,0,0,0,1.2,1.2h.57v2h2.29v-2h.86a1.2,1.2,0,0,0,1.2-1.2V75.9A1.2,1.2,0,0,0,103.91,74.7Zm-9.36,0H90.83a1.2,1.2,0,0,0-1.2,1.2v3.44a1.2,1.2,0,0,0,1.2,1.2h.72v2h2.28v-2h.72a1.2,1.2,0,0,0,1.2-1.2V75.9A1.2,1.2,0,0,0,94.55,74.7Zm-9.28,0H81.55a1.2,1.2,0,0,0-1.2,1.2v3.44a1.2,1.2,0,0,0,1.2,1.2h.65v2h2.29v-2h.78a1.2,1.2,0,0,0,1.2-1.2V75.9A1.2,1.2,0,0,0,85.27,74.7Z" fill="#253061"/>
  <circle cx="145.71" cy="45.41" r="26.5" fill="#253061"/>
  <path d="M81.55,74.7a1.2,1.2,0,0,0-1.2,1.2v.28a1.49,1.49,0,0,1,1.48-1.48Z" fill="#b9bcc2"/>
  <path d="M80.35,79.05v.29a1.2,1.2,0,0,0,1.2,1.2h.29A1.49,1.49,0,0,1,80.35,79.05Z" fill="#b9bcc2"/>
  <path d="M85.27,74.7H85a1.49,1.49,0,0,1,1.49,1.48V75.9A1.2,1.2,0,0,0,85.27,74.7Z" fill="#b9bcc2"/>
  <path d="M85,80.54h.29a1.2,1.2,0,0,0,1.2-1.2v-.29A1.49,1.49,0,0,1,85,80.54Z" fill="#b9bcc2"/>
  <path d="M90.83,74.7a1.2,1.2,0,0,0-1.2,1.2v.28a1.49,1.49,0,0,1,1.48-1.48Z" fill="#b9bcc2"/>
  <path d="M89.63,79.05v.29a1.2,1.2,0,0,0,1.2,1.2h.29A1.49,1.49,0,0,1,89.63,79.05Z" fill="#b9bcc2"/>
  <path d="M94.55,74.7h-.28a1.49,1.49,0,0,1,1.48,1.48V75.9A1.2,1.2,0,0,0,94.55,74.7Z" fill="#b9bcc2"/>
  <path d="M94.26,80.54h.29a1.2,1.2,0,0,0,1.2-1.2v-.29A1.49,1.49,0,0,1,94.26,80.54Z" fill="#b9bcc2"/>
  <path d="M99,79.05v.29a1.2,1.2,0,0,0,1.2,1.2h.28A1.49,1.49,0,0,1,99,79.05Z" fill="#b9bcc2"/>
  <path d="M100.19,74.7A1.2,1.2,0,0,0,99,75.9v.28a1.49,1.49,0,0,1,1.48-1.48Z" fill="#b9bcc2"/>
  <path d="M103.91,74.7h-.29a1.49,1.49,0,0,1,1.49,1.49V75.9A1.2,1.2,0,0,0,103.91,74.7Z" fill="#b9bcc2"/>
  <path d="M103.62,80.54h.29a1.2,1.2,0,0,0,1.2-1.2v-.29A1.49,1.49,0,0,1,103.62,80.54Z" fill="#b9bcc2"/>
  <path d="M180.59,13.05V78.52a4,4,0,0,1-4,4h-64a.29.29,0,0,1-.29-.29V80.54H113a1.21,1.21,0,0,0,1.21-1.2V75.9A1.21,1.21,0,0,0,113,74.7h-3.71a1.21,1.21,0,0,0-1.21,1.2v3.44a1.21,1.21,0,0,0,1.21,1.2H110v1.69a.29.29,0,0,1-.29.29h-6.35a.29.29,0,0,1-.29-.29v-1.4a.29.29,0,0,1,.29-.29h.57a1.2,1.2,0,0,0,1.2-1.2V75.9a1.2,1.2,0,0,0-1.2-1.2h-3.72A1.2,1.2,0,0,0,99,75.9v3.44a1.2,1.2,0,0,0,1.2,1.2h.28a.29.29,0,0,1,.29.29v1.4a.29.29,0,0,1-.29.29H94.12a.29.29,0,0,1-.29-.29v-1.4a.29.29,0,0,1,.29-.29h.43a1.2,1.2,0,0,0,1.2-1.2V75.9a1.2,1.2,0,0,0-1.2-1.2H90.83a1.2,1.2,0,0,0-1.2,1.2v3.44a1.2,1.2,0,0,0,1.2,1.2h.44a.29.29,0,0,1,.28.29v1.4a.29.29,0,0,1-.28.29H84.78a.29.29,0,0,1-.29-.29v-1.4a.29.29,0,0,1,.29-.29h.49a1.2,1.2,0,0,0,1.2-1.2V75.9a1.2,1.2,0,0,0-1.2-1.2H81.55a1.2,1.2,0,0,0-1.2,1.2v3.44a1.2,1.2,0,0,0,1.2,1.2h.36a.29.29,0,0,1,.29.29v1.4a.29.29,0,0,1-.29.29H20.52a4,4,0,0,1-4-4V13.05a4,4,0,0,1,4-4H176.59A4,4,0,0,1,180.59,13.05Z" fill="#c6c6c6" stroke="#fff" stroke-miterlimit="10" stroke-width="0.5"/>
  <circle cx="52.66" cy="45.41" r="26.5" fill="#9a9ea4"/>
  <circle cx="52.66" cy="45.41" r="24.58" fill="#2e2d2c"/>
  <circle cx="52.66" cy="45.41" r="20.51" fill="#706f6f"/>
  <circle cx="52.16" cy="45.41" r="10.66" fill="#575756"/>
  <circle cx="143.71" cy="45.41" r="26.5" fill="#9a9ea4"/>
  <circle cx="143.71" cy="45.41" r="24.58" fill="#2e2d2c"/>
  <circle cx="143.71" cy="45.41" r="20.51" fill="#706f6f"/>
  <circle cx="143.71" cy="45.41" r="10.66" fill="#575756"/>
  <path d="M180.59,78.52a4,4,0,0,1-4,4h-64l-.11,0H82l-.11,0H20.52a4,4,0,0,1-4-4V13.05a4,4,0,0,1,4-4V74.52a4,4,0,0,0,4,4Z" fill="#9a9ea4"/>
  <rect x="80.35" y="74.7" width="6.12" height="5.84" rx="1.2" ry="1.2" fill="#706f6f"/>
  <rect x="89.63" y="74.7" width="6.12" height="5.84" rx="1.2" ry="1.2" fill="#706f6f"/>
  <rect x="98.99" y="74.7" width="6.12" height="5.84" rx="1.2" ry="1.2" fill="#706f6f"/>
  <path d="M114.19,75.9v3.44a1.21,1.21,0,0,1-1.21,1.2h-3.71a1.21,1.21,0,0,1-1.21-1.2V75.9a1.21,1.21,0,0,1,1.21-1.2H113A1.21,1.21,0,0,1,114.19,75.9Z" fill="#706f6f"/>
  <rect x="82.2" y="80.54" width="2.29" height="9.39" fill="#b2b2b2"/>
  <rect x="91.55" y="80.54" width="2.28" height="9.39" fill="#b2b2b2"/>
  <rect x="100.76" y="80.54" width="2.29" height="9.39" fill="#b2b2b2"/>
  <rect x="109.98" y="80.54" width="2.29" height="9.39" fill="#b2b2b2"/>
</svg>
