<svg id="Componentes" xmlns="http://www.w3.org/2000/svg" viewBox="0 0 100 100">
  <title>componentes_svg</title>
  <path d="M96.78,46.84l0,7.9a.83.83,0,0,1-.85.84H91.42l-.07,20A14.84,14.84,0,0,1,76.49,90.36l-49.66-.17A14.82,14.82,0,0,1,12.08,75.34l.07-20-4.53,0a.85.85,0,0,1-.84-.85l0-7.89a.86.86,0,0,1,.86-.85l4.52,0,.07-20A14.81,14.81,0,0,1,27.1,10.92l49.66.17A14.8,14.8,0,0,1,91.52,26l-.07,20L96,46A.83.83,0,0,1,96.78,46.84Z" fill="#9a9ea4" stroke="#fff" stroke-miterlimit="10" stroke-width="0.5"/>
  <g>
    <g>
      <path d="M95.75,46l-4.48,0,.07-19.94A14.73,14.73,0,0,0,76.65,11.27L27.21,11.1a14.66,14.66,0,0,0-10.94,4.81h0a14.69,14.69,0,0,0-3.84,9.86l-.07,20h-1l-3.5,0a.85.85,0,0,0-.85.84v.16l0,7.7a.84.84,0,0,0,.83.84l4.51,0-.07,20A14.76,14.76,0,0,0,26.94,90l49.44.17a14.68,14.68,0,0,0,9.92-3.81h0l.5-.47a14.71,14.71,0,0,0,4.36-10.4l.07-20h4.47a.83.83,0,0,0,.85-.83l0-7.87A.83.83,0,0,0,95.75,46ZM72.33,76.26a4.92,4.92,0,1,1,4.91,4.94A4.92,4.92,0,0,1,72.33,76.26Zm5.11-56a4.92,4.92,0,1,1-4.93,4.91A4.93,4.93,0,0,1,77.44,20.26ZM36.59,31.85h0a24.16,24.16,0,0,1,33.87,34.1l0,0c-.52.62-1.06,1.23-1.65,1.81a24.15,24.15,0,1,1-34-34.27C35.36,32.91,36,32.37,36.59,31.85ZM26.35,20.09A4.92,4.92,0,1,1,21.41,25,4.91,4.91,0,0,1,26.35,20.09Zm-.18,51.09a4.92,4.92,0,1,1-4.93,4.9A4.93,4.93,0,0,1,26.17,71.18Z" fill="#b9bcc2"/>
      <path d="M31.08,76.12a4.92,4.92,0,1,1-4.91-4.94A4.92,4.92,0,0,1,31.08,76.12Z" fill="#b9bcc2"/>
      <path d="M31.25,25a4.92,4.92,0,1,1-4.9-4.93A4.93,4.93,0,0,1,31.25,25Z" fill="#b9bcc2"/>
      <path d="M70.48,65.94l0,0c-.52.62-1.06,1.23-1.65,1.81a24.15,24.15,0,1,1-34-34.27c.59-.59,1.2-1.13,1.82-1.65h0a24.16,24.16,0,0,1,33.87,34.1Z" fill="#b9bcc2"/>
      <path d="M82.17,76.29a4.92,4.92,0,1,1-4.9-4.93A4.92,4.92,0,0,1,82.17,76.29Z" fill="#b9bcc2"/>
      <path d="M82.35,25.2a4.92,4.92,0,1,1-4.91-4.94A4.92,4.92,0,0,1,82.35,25.2Z" fill="#b9bcc2"/>
    </g>
    <path d="M31.25,25a4.92,4.92,0,1,1-4.9-4.93A4.93,4.93,0,0,1,31.25,25Z" fill="#1d1d1b" stroke="#1d1d1b" stroke-miterlimit="10" stroke-width="1.2"/>
    <path d="M82.17,76.29a4.92,4.92,0,1,1-4.9-4.93A4.92,4.92,0,0,1,82.17,76.29Z" fill="#1d1d1b" stroke="#1d1d1b" stroke-miterlimit="10" stroke-width="1.2"/>
    <path d="M31.08,76.12a4.92,4.92,0,1,1-4.91-4.94A4.92,4.92,0,0,1,31.08,76.12Z" fill="#1d1d1b" stroke="#1d1d1b" stroke-miterlimit="10" stroke-width="1.2"/>
    <path d="M82.35,25.2a4.92,4.92,0,1,1-4.91-4.94A4.92,4.92,0,0,1,82.35,25.2Z" fill="#1d1d1b" stroke="#1d1d1b" stroke-miterlimit="10" stroke-width="1.2"/>
    <path d="M70.46,66c-.52.62-1.06,1.23-1.65,1.81a24.15,24.15,0,1,1-34-34.27c.59-.59,1.2-1.13,1.82-1.65A24.16,24.16,0,0,0,70.46,66Z" fill="#1d1d1b" stroke="#1d1d1b" stroke-miterlimit="10" stroke-width="1.2"/>
    <path d="M70.48,65.94l0,0A24.16,24.16,0,0,1,36.59,31.85h0a24.16,24.16,0,0,1,33.87,34.1Z" fill="#474b4b" stroke="#474b4b" stroke-miterlimit="10" stroke-width="1.2"/>
  </g>
  <path d="M88.65,82.94a14.46,14.46,0,0,1-2.34,3.43h0a14.68,14.68,0,0,1-9.92,3.81L26.94,90A14.76,14.76,0,0,1,12.25,75.23l.07-20-4.5,0A.85.85,0,0,1,7,54.42L7,46.8a1.08,1.08,0,0,1,1.08-1.08l3.27,0h1l.07-19c0-4.3.88-8.17,3.84-10.86h0c.42-.37.87-.73,1.33-1.06a14.59,14.59,0,0,0-1.51,6.43l-.07,20,0-4.41v14l-.07,20A14.76,14.76,0,0,0,30.61,85.52l49.44.17A14.64,14.64,0,0,0,88.65,82.94Z" fill="#9a9ea4"/>
</svg>
