<svg id="Componentes" xmlns="http://www.w3.org/2000/svg" viewBox="0 0 150 100">
  <title>componentes_svg</title>
  <g>
    <path d="M21.19,95.83h-11a4.68,4.68,0,0,1-4.68-4.7V8.85a4.67,4.67,0,0,1,4.68-4.68h11A4.69,4.69,0,0,0,16.5,8.85V91.13A4.69,4.69,0,0,0,21.19,95.83Z" fill="#1979ae"/>
    <path d="M51.8,8.51a4.53,4.53,0,0,0-2.93-4,4,4,0,0,0-.52-.18.7.7,0,0,0-.12,0,2.05,2.05,0,0,0-.56-.1,1.49,1.49,0,0,0-.36-.05H21.19a4.69,4.69,0,0,0-4.68,4.68V91.13a3.75,3.75,0,0,0,0,.48,2,2,0,0,0,0,.35c0,.12.05.22.08.34a4.64,4.64,0,0,0,.22.66,2.58,2.58,0,0,0,.2.41,1.62,1.62,0,0,0,.1.18,1.57,1.57,0,0,0,.2.3,3.25,3.25,0,0,0,.4.5,3.92,3.92,0,0,0,.42.4,5.58,5.58,0,0,0,.56.39,4.42,4.42,0,0,0,.61.32,1.48,1.48,0,0,0,.35.13l.27.08c.12,0,.25.06.37.09h0l.32,0a3.75,3.75,0,0,0,.48,0H47.13a4.69,4.69,0,0,0,4.7-4.7V8.85A1.23,1.23,0,0,0,51.8,8.51Zm-5.21,63a1.24,1.24,0,0,1,.65-.2,1.17,1.17,0,0,1,0,2.34,1.23,1.23,0,0,1-.65-.19A1.05,1.05,0,0,0,46.59,71.51Z" fill="#1a87ba"/>
    <path d="M51.8,8.51a4.53,4.53,0,0,0-2.93-4,4,4,0,0,0-.52-.18.7.7,0,0,0-.12,0,2.05,2.05,0,0,0-.56-.1,1.49,1.49,0,0,0-.36-.05H21.19a4.69,4.69,0,0,0-4.68,4.68V91.13a3.75,3.75,0,0,0,0,.48,2,2,0,0,0,0,.35c0,.12.05.22.08.34a4.64,4.64,0,0,0,.22.66,2.58,2.58,0,0,0,.2.41,1.62,1.62,0,0,0,.1.18,1.57,1.57,0,0,0,.2.3,3.25,3.25,0,0,0,.4.5,3.92,3.92,0,0,0,.42.4,5.58,5.58,0,0,0,.56.39,4.42,4.42,0,0,0,.61.32,1.48,1.48,0,0,0,.35.13l.27.08c.12,0,.25.06.37.09h0l.32,0a3.75,3.75,0,0,0,.48,0H47.13a4.69,4.69,0,0,0,4.7-4.7V8.85A1.23,1.23,0,0,0,51.8,8.51Zm-5.21,63a1.24,1.24,0,0,1,.65-.2,1.17,1.17,0,0,1,0,2.34,1.23,1.23,0,0,1-.65-.19A1.05,1.05,0,0,0,46.59,71.51Z" fill="#1a87ba"/>
    <path d="M48.84,72.48A20.18,20.18,0,1,1,19.13,54.69a11.58,11.58,0,1,1,19.06,0A20.18,20.18,0,0,1,48.84,72.48Z" fill="#1e5f99" stroke="#1e5f99" stroke-miterlimit="10" opacity="0.29"/>
    <g>
      <g opacity="0.44">
        <g>
          <path d="M27.66,55.83l-.45-.06-.84,1a.53.53,0,0,1-.94-.3l-.09-1.31a3.55,3.55,0,0,1-.43-.23l-1.11.7a.53.53,0,0,1-.8-.58l.32-1.27c-.12-.11-.23-.22-.34-.34l-1.27.32a.53.53,0,0,1-.58-.8l.7-1.11a3.55,3.55,0,0,1-.23-.43l-1.3-.09a.52.52,0,0,1-.3-.93l1-.84a3.7,3.7,0,0,1-.08-.48l-1.21-.48a.53.53,0,0,1,0-1l1.21-.49a3.7,3.7,0,0,1,.08-.48l-1-.83a.53.53,0,0,1,.3-.94l1.3-.09a4.64,4.64,0,0,1,.23-.44l-.7-1.1a.53.53,0,0,1,.58-.8l1.27.31.34-.34L23,41.15a.53.53,0,0,1,.8-.58l1.1.69.44-.23.09-1.29a.53.53,0,0,1,.94-.31l.84,1,.45-.06a9.26,9.26,0,0,0,0,15.46Z" fill="#1e5f99"/>
          <path d="M29.3,39.49a9.91,9.91,0,0,0-1.61.85l.48-1.2a.54.54,0,0,1,1,0Z" fill="#1e5f99"/>
          <path d="M29.29,56.71l-.13.34a.53.53,0,0,1-1,0l-.48-1.19A9.81,9.81,0,0,0,29.29,56.71Z" fill="#1e5f99"/>
          <path d="M37.62,48.6l-1.21.48c0,.16,0,.33-.08.48l1,.84a.53.53,0,0,1-.31.93l-1.29.09c-.07.15-.15.3-.23.45L36.19,53a.53.53,0,0,1-.58.8l-1.26-.32c-.11.12-.22.23-.34.34l.31,1.27a.53.53,0,0,1-.79.58l-1.11-.7a3.68,3.68,0,0,1-.44.23l-.08,1.31a.54.54,0,0,1-.94.3l-.84-1-.48.07-.35.87a9.81,9.81,0,0,1-1.6-.85v0h0a9.26,9.26,0,0,1,0-15.46h0v0a9.91,9.91,0,0,1,1.61-.85l.34.87.48.07.84-1a.53.53,0,0,1,.94.31L32,41l.45.23,1.1-.69a.53.53,0,0,1,.79.58L34,42.41l.34.34,1.26-.31a.53.53,0,0,1,.58.8l-.69,1.1c.08.14.16.29.23.44l1.29.09a.53.53,0,0,1,.31.94l-1,.83c0,.16.06.31.08.48l1.21.49A.54.54,0,0,1,37.62,48.6Z" fill="#1e5f99"/>
        </g>
        <path d="M37.62,48.6l-1.21.48c0,.16,0,.33-.08.48l1,.84a.53.53,0,0,1-.31.93l-1.29.09c-.07.15-.15.3-.23.45L36.19,53a.53.53,0,0,1-.58.8l-1.26-.32c-.11.12-.22.23-.34.34l.31,1.27a.53.53,0,0,1-.79.58l-1.11-.7a3.68,3.68,0,0,1-.44.23l-.08,1.31a.54.54,0,0,1-.94.3l-.84-1-.48.07-.35.87a9.81,9.81,0,0,1-1.6-.85l0,0a9.26,9.26,0,0,1,0-15.46l0,0a9.91,9.91,0,0,1,1.61-.85l.34.87.48.07.84-1a.53.53,0,0,1,.94.31L32,41l.45.23,1.1-.69a.53.53,0,0,1,.79.58L34,42.41l.34.34,1.26-.31a.53.53,0,0,1,.58.8l-.69,1.1c.08.14.16.29.23.44l1.29.09a.53.53,0,0,1,.31.94l-1,.83c0,.16.06.31.08.48l1.21.49A.54.54,0,0,1,37.62,48.6Z" fill="#2170ad"/>
      </g>
      <g>
        <path d="M26.79,87c-.29,0-.58-.07-.86-.12l-1.57,1.87a1,1,0,0,1-1.76-.57l-.17-2.44-.8-.42-2.08,1.3a1,1,0,0,1-1.49-1.08l.59-2.39a7.49,7.49,0,0,1-.63-.63l-2.39.6a1,1,0,0,1-1.08-1.5l1.31-2.08a7.69,7.69,0,0,1-.42-.8L13,78.54a1,1,0,0,1-.56-1.76l1.88-1.56a8.64,8.64,0,0,1-.15-.91l-2.27-.9a1,1,0,0,1,0-1.85l2.27-.92a8.89,8.89,0,0,1,.15-.9l-1.88-1.56A1,1,0,0,1,13,66.43l2.45-.17a7.05,7.05,0,0,1,.42-.82l-1.31-2.06a1,1,0,0,1,1.08-1.51l2.39.59.63-.63-.59-2.37a1,1,0,0,1,1.49-1.09l2.07,1.3.81-.42.17-2.44a1,1,0,0,1,1.76-.57l1.57,1.88a8.09,8.09,0,0,1,.86-.12,17.35,17.35,0,0,0,0,29Z" fill="#1e5f99"/>
        <path d="M29.85,56.35a17.6,17.6,0,0,0-3,1.6l.9-2.25a1,1,0,0,1,1.84,0Z" fill="#1e5f99"/>
        <path d="M29.84,88.6l-.25.65a1,1,0,0,1-1.84,0L26.85,87A15.59,15.59,0,0,0,29.84,88.6Z" fill="#1e5f99"/>
        <path d="M45.45,73.4h0l-2.27.9a8.64,8.64,0,0,1-.15.91l1.25,1,.63.53a1,1,0,0,1-.57,1.76l-2.42.17c-.14.28-.28.56-.44.83l1.3,2a1,1,0,0,1-1.08,1.5l-2.37-.6c-.21.22-.42.44-.64.63l.59,2.39a1,1,0,0,1-1.49,1.08l-2.08-1.3c-.27.15-.54.29-.82.42l-.15,2.44a1,1,0,0,1-1.76.57l-1.59-1.87L30.5,87l-.66,1.61a15.3,15.3,0,0,1-3-1.59l0,0a0,0,0,0,1,0,0,17.35,17.35,0,0,1,0-29,0,0,0,0,1,0,0l0,0a17.6,17.6,0,0,1,3-1.6L30.5,58l.88.14L33,56.24a1,1,0,0,1,1.76.57l.15,2.44.83.42,2.07-1.3a1,1,0,0,1,1.49,1.09l-.59,2.37.64.63,2.37-.59a1,1,0,0,1,1.08,1.51l-1.3,2.05c.16.27.3.55.44.83l2.42.17a1,1,0,0,1,.57,1.75l-.63.54-1.25,1a8.89,8.89,0,0,1,.15.9l2.27.92h0A1,1,0,0,1,45.45,73.4Z" fill="#1e5f99"/>
      </g>
      <path d="M45.45,73.4h0l-2.27.9a8.64,8.64,0,0,1-.15.91l1.25,1,.63.53a1,1,0,0,1-.57,1.76l-2.42.17c-.14.28-.28.56-.44.83l1.3,2a1,1,0,0,1-1.08,1.5l-2.37-.6c-.21.22-.42.44-.64.63l.59,2.39a1,1,0,0,1-1.49,1.08l-2.08-1.3c-.27.15-.54.29-.82.42l-.15,2.44a1,1,0,0,1-1.76.57l-1.59-1.87L30.5,87l-.66,1.61a15.3,15.3,0,0,1-3-1.59.06.06,0,0,1-.06,0,17.35,17.35,0,0,1,0-29,.07.07,0,0,1,.06,0,17.6,17.6,0,0,1,3-1.6L30.5,58l.88.14L33,56.24a1,1,0,0,1,1.76.57l.15,2.44.83.42,2.07-1.3a1,1,0,0,1,1.49,1.09l-.59,2.37.64.63,2.37-.59a1,1,0,0,1,1.08,1.51l-1.3,2.05c.16.27.3.55.44.83l2.42.17a1,1,0,0,1,.57,1.75l-.63.54-1.25,1a8.89,8.89,0,0,1,.15.9l2.27.92h0A1,1,0,0,1,45.45,73.4Z" fill="#2170ad"/>
    </g>
    <path d="M29.24,79.13a.63.63,0,0,1-.58.33A.71.71,0,0,1,28,79a.78.78,0,0,1,0-.26.17.17,0,0,1,0-.07c-.19,0-.4-.06-.6-.11a.54.54,0,0,1-.13.32A.7.7,0,0,1,26,78.5a.64.64,0,0,1,.08-.33,2.73,2.73,0,0,1-.54-.27.53.53,0,0,1-.23.26.69.69,0,0,1-1.06-.59,1.09,1.09,0,0,1,0-.18.58.58,0,0,1,.18-.3,3.33,3.33,0,0,1-.42-.42.54.54,0,0,1-.3.18.7.7,0,0,1-.87-.68A.77.77,0,0,1,23,75.8a.69.69,0,0,1,.24-.24A5.28,5.28,0,0,1,23,75a.6.6,0,0,1-.33.08.69.69,0,0,1-.64-.69.68.68,0,0,1,.25-.53.61.61,0,0,1,.3-.13l-.09-.6a.57.57,0,0,1-.34,0,.69.69,0,0,1,0-1.29.86.86,0,0,1,.27,0,.1.1,0,0,1,.07,0c0-.2.06-.41.09-.6a.63.63,0,0,1-.3-.14.68.68,0,0,1,.39-1.21.52.52,0,0,1,.33.06q.13-.27.27-.51a1,1,0,0,1-.24-.26.68.68,0,0,1,.57-1.05.55.55,0,0,1,.18,0,.54.54,0,0,1,.3.18,2.78,2.78,0,0,1,.42-.42.58.58,0,0,1-.18-.3.71.71,0,0,1,1.05-.77,1,1,0,0,1,.24.26,2.94,2.94,0,0,1,.53-.27.64.64,0,0,1-.08-.33.69.69,0,0,1,1.22-.41.54.54,0,0,1,.13.32c.2,0,.41-.08.6-.11a.54.54,0,0,1,0-.33.71.71,0,0,1,.65-.43.63.63,0,0,1,.58.33,7,7,0,0,0,0,13.29Z" fill="#ececec"/>
    <path d="M34.87,73.16c0,.19-.06.4-.1.6a.59.59,0,0,1,.31.13.7.7,0,0,1,.26.53.7.7,0,0,1-.66.69.62.62,0,0,1-.33-.08c-.08.18-.17.36-.26.53a.69.69,0,0,1,.24.24.7.7,0,0,1-.58,1.07.52.52,0,0,1-.17,0,.72.72,0,0,1-.3-.16,5.7,5.7,0,0,1-.43.42.57.57,0,0,1,.18.28.7.7,0,0,1-1,.77.67.67,0,0,1-.24-.26,2.57,2.57,0,0,1-.52.27.64.64,0,0,1,.07.33.69.69,0,0,1-.7.65.74.74,0,0,1-.53-.24.49.49,0,0,1-.14-.32c-.19,0-.39.08-.58.11a.65.65,0,0,1-.05.33.21.21,0,0,1-.06.1,7,7,0,0,1,0-13.29.21.21,0,0,1,.06.1.8.8,0,0,1,.05.26.1.1,0,0,1,0,.07,5.78,5.78,0,0,1,.6.11.49.49,0,0,1,.14-.32.75.75,0,0,1,.53-.25.7.7,0,0,1,.7.66.64.64,0,0,1-.07.33,4.81,4.81,0,0,1,.51.25,1,1,0,0,1,.25-.24A.68.68,0,0,1,33,67.4a1.09,1.09,0,0,1,0,.18.57.57,0,0,1-.18.28,3,3,0,0,1,.43.44.58.58,0,0,1,.3-.18.69.69,0,0,1,.86.67.63.63,0,0,1-.11.36,1,1,0,0,1-.24.26c.09.16.18.33.26.51a.53.53,0,0,1,.33-.06.68.68,0,0,1,.66.69.71.71,0,0,1-.26.52.54.54,0,0,1-.31.14h0c0,.2.07.39.1.59a.47.47,0,0,1,.33,0,.69.69,0,0,1,0,1.29.73.73,0,0,1-.25,0Z" fill="#fff"/>
    <circle cx="37.95" cy="72.48" r="1.17" fill="#2170ad"/>
    <path d="M48.4,72.48a1.17,1.17,0,0,1-1.81,1,1.05,1.05,0,0,0,0-1.95,1.16,1.16,0,0,1,1.81,1Z" fill="#1a87ba"/>
    <path d="M46.59,73.46a1.16,1.16,0,0,1,0-1.95A1.05,1.05,0,0,1,46.59,73.46Z" fill="#2170ad"/>
    <rect x="5.51" y="4.17" width="46.32" height="91.58" rx="4" ry="4" fill="none" stroke="#1e5f99" stroke-miterlimit="10"/>
    <path d="M29.81,16.1a3.36,3.36,0,0,0-2.53,2.95L24,72.48H21.62l3.3-53.43a3.57,3.57,0,0,1,3.71-3.12A4.1,4.1,0,0,1,29.81,16.1Z" fill="#ececec"/>
    <path d="M35.64,72.48H24l3.3-53.43a3.36,3.36,0,0,1,2.53-2.95,3.36,3.36,0,0,1,2.52,2.95Z" fill="#fff"/>
    <path d="M35.64,72.48H24l3.3-53.43a3.36,3.36,0,0,1,2.53-2.95,3.36,3.36,0,0,1,2.52,2.95Z" fill="#fff"/>
    <circle cx="28.66" cy="72.48" r="1.17" fill="#2170ad"/>
    <circle cx="28.66" cy="66.77" r="1.17" fill="#2170ad"/>
    <circle cx="28.66" cy="55.35" r="1.17" fill="#2170ad"/>
    <circle cx="28.66" cy="61.06" r="1.17" fill="#2170ad"/>
    <circle cx="28.66" cy="43.92" r="1.17" fill="#2170ad"/>
    <circle cx="28.66" cy="49.64" r="1.17" fill="#2170ad"/>
    <circle cx="28.66" cy="32.5" r="1.17" fill="#2170ad"/>
    <circle cx="28.66" cy="38.21" r="1.17" fill="#2170ad"/>
    <circle cx="17.44" cy="26.79" r="1.17" fill="#2170ad"/>
    <circle cx="17.44" cy="21.07" r="1.17" fill="#2170ad"/>
  </g>
  <line x1="76.58" y1="12.5" x2="76.58" y2="69.56" fill="none" stroke="#474b4b" stroke-miterlimit="10" stroke-width="0.75"/>
  <line x1="58.96" y1="42.75" x2="142.96" y2="42.75" fill="none" stroke="#474b4b" stroke-miterlimit="10" stroke-width="0.75"/>
  <path d="M94.6,42.75H58.71c0-6.17.7-13.64,3.47-19.24s8.61-11.26,15.3-10.39c8.91,1.17,13.31,11.46,15.1,19.1C93.39,35.7,93.92,39.25,94.6,42.75Z" fill="#575756" stroke="#474b4b" stroke-miterlimit="10" stroke-width="0.5" opacity="0.85"/>
  <path d="M128.16,42.75c-.24,6.5-1.17,13.92-5.84,18.86a13.13,13.13,0,0,1-15.77,2.26c-4.8-2.66-8-7.62-9.78-12.68a58.39,58.39,0,0,1-2.17-8.44Z" fill="#575756" stroke="#474b4b" stroke-miterlimit="10" stroke-width="0.5" opacity="0.85"/>
  <path d="M112.85,42.75H77c0-6.17.7-13.64,3.47-19.24S89,12.25,95.73,13.12c8.91,1.17,13.31,11.46,15.1,19.1C111.64,35.7,112.17,39.25,112.85,42.75Z" fill="#b2b2b2" stroke="#706f6f" stroke-miterlimit="10" opacity="0.8"/>
  <path d="M146.41,42.75c-.24,6.5-1.17,13.92-5.84,18.86a13.13,13.13,0,0,1-15.77,2.26c-4.8-2.66-8-7.62-9.78-12.68a58.39,58.39,0,0,1-2.17-8.44Z" fill="#b2b2b2" stroke="#706f6f" stroke-miterlimit="10" opacity="0.8"/>
</svg>
