<svg id="Componentes" xmlns="http://www.w3.org/2000/svg" viewBox="0 0 100 100">
  <title>componentes_svg</title>
  <g>
    <path d="M87,36.83l-8.17-2.75a29.55,29.55,0,0,0-57.08.19L14.44,36a5.87,5.87,0,0,0-5.11,5.82c0,3.13,2.29,4.47,5.55,5.86L22,50.15h0a29.56,29.56,0,0,0,56.62.4l8.7-2.08a5.86,5.86,0,0,0,5-5.8C92.33,39.63,89.94,37.81,87,36.83Zm-72,7.82a2.8,2.8,0,1,1,2.8-2.8A2.8,2.8,0,0,1,15.06,44.65Zm70.35,0a2.8,2.8,0,1,1,2.8-2.8A2.8,2.8,0,0,1,85.41,44.65Z" fill="#474b4b" stroke="#474b4b" stroke-miterlimit="10" stroke-width="1.2"/>
    <rect x="42.37" y="64.88" width="2.82" height="23.18" fill="#e30613"/>
    <rect x="47.03" y="65.02" width="2.82" height="23.18" fill="#f9b233"/>
    <rect x="51.72" y="65.02" width="2.82" height="23.18" fill="#f3cb7b"/>
    <rect x="56.39" y="65.02" width="2.82" height="23.18" fill="#312783"/>
    <path d="M86.41,35.92l-8-2.71a29,29,0,0,0-56.09.19l-7.22,1.73a5.77,5.77,0,0,0-5,5.72c0,3.07,2.25,4.39,5.46,5.76l7,2.39h0a29,29,0,0,0,55.64.39l8.55-2a5.77,5.77,0,0,0,4.93-5.71C91.61,38.66,89.26,36.88,86.41,35.92ZM15.68,43.61a2.76,2.76,0,1,1,2.75-2.76A2.76,2.76,0,0,1,15.68,43.61Zm69.13,0a2.76,2.76,0,1,1,2.75-2.76A2.76,2.76,0,0,1,84.81,43.61Z" fill="#9d9d9c"/>
    <circle cx="50.83" cy="26.51" r="10.02" fill="#c6c6c6"/>
    <circle cx="50.83" cy="26.51" r="7.06" fill="#706f6f"/>
    <path d="M54.81,26.51a4,4,0,0,1-6.23,3.27V23.23a4,4,0,0,1,6.23,3.28Z" fill="#bc9350" stroke="#f3cb7b" stroke-miterlimit="10" stroke-width="0.25"/>
    <path d="M46.84,26.49a4,4,0,0,1,4-4,3.88,3.88,0,0,1,2.25.71v6.54a4,4,0,0,1-6.22-3.27Z" fill="#bc9350" stroke="#f3cb7b" stroke-miterlimit="10" stroke-width="0.25"/>
    <line x1="48.57" y1="23.27" x2="48.57" y2="29.62" fill="none" stroke="#f3cb7b" stroke-miterlimit="10" stroke-width="0.25"/>
    <circle cx="50.83" cy="26.51" r="0.49" fill="#f3cb7b"/>
  </g>
</svg>
