<?xml version="1.0" encoding="utf-8"?>
<!-- Generator: Adobe Illustrator 22.0.0, SVG Export Plug-In . SVG Version: 6.00 Build 0)  -->
<svg version="1.1" xmlns="http://www.w3.org/2000/svg" xmlns:xlink="http://www.w3.org/1999/xlink" x="0px" y="0px"
	 viewBox="0 0 216.7 157.7" style="enable-background:new 0 0 216.7 157.7;" xml:space="preserve">
<style type="text/css">
	.st0{fill:#FFFFFF;}
	.st1{fill:#F4CA5D;}
	.st2{fill:#FEC542;}
	.st3{fill:#3EAA5F;}
	.st4{fill:#FA504B;}
	.st5{fill:#23234B;}
</style>
<g id="Capa_3">
</g>
<g id="Capa_1">
</g>
<g id="Capa_4">
	<g>
		<path class="st0" d="M43.4,121.1c-2.3,0-4.2-1.9-4.2-4.2V94.2c0-2.3,1.9-4.2,4.2-4.2h17.9c2.3,0,4.2,1.9,4.2,4.2v22.7
			c0,2.3-1.9,4.2-4.2,4.2H43.4z"/>
		<path class="st0" d="M43.4,121.1v-0.5c-2,0-3.7-1.7-3.7-3.7V94.2c0-2,1.7-3.7,3.7-3.7h17.9c2,0,3.7,1.7,3.7,3.7v22.7
			c0,2-1.7,3.7-3.7,3.7H43.4V121.1v0.5h17.9c2.6,0,4.6-2.1,4.6-4.6V94.2c0-2.6-2.1-4.6-4.6-4.6H43.4c-2.6,0-4.6,2.1-4.6,4.6v22.7
			c0,2.6,2.1,4.6,4.6,4.6V121.1z"/>
		<path class="st1" d="M61.2,119.2H43.4c-1.3,0-2.4-1.1-2.4-2.4V94.2c0-1.3,1.1-2.4,2.4-2.4h17.9c1.3,0,2.4,1.1,2.4,2.4v22.7
			C63.6,118.2,62.5,119.2,61.2,119.2z"/>
		<path class="st0" d="M52.3,95.5c-1.3,0-2.5-0.4-3.3-1.2L42.2,88h-4.5c-3.9,0-7.1-3.2-7.1-7.1V49c0-3.9,3.2-7.1,7.1-7.1h116.5
			c3.9,0,7.1,3.2,7.1,7.1v31.8c0,3.9-3.2,7.1-7.1,7.1H62.4l-6.8,6.3C54.8,95,53.6,95.5,52.3,95.5z"/>
		<path class="st0" d="M52.3,95.5V95c-1.1,0-2.2-0.4-3-1.1l-6.9-6.4h-4.7c-1.8,0-3.5-0.7-4.7-1.9c-1.2-1.2-1.9-2.9-1.9-4.7V49
			c0-1.8,0.7-3.5,1.9-4.7c1.2-1.2,2.9-1.9,4.7-1.9h116.5c1.8,0,3.5,0.7,4.7,1.9c1.2,1.2,1.9,2.9,1.9,4.7v31.8c0,1.8-0.7,3.5-1.9,4.7
			c-1.2,1.2-2.9,1.9-4.7,1.9h-92l-6.9,6.4c-0.7,0.7-1.8,1.1-3,1.1V95.5V96c1.4,0,2.7-0.5,3.6-1.4l6.6-6.2l91.7,0
			c4.2,0,7.6-3.4,7.6-7.6V49c0-4.2-3.4-7.6-7.6-7.6H37.7c-4.2,0-7.6,3.4-7.6,7.6v31.8c0,4.2,3.4,7.6,7.6,7.6H42l6.6,6.2
			c0.9,0.9,2.3,1.4,3.6,1.4V95.5z"/>
		<path class="st2" d="M61.2,119.2H43.4c-1.3,0-2.4-1.1-2.4-2.4V94.1c0-1.3,1.1-2.4,2.4-2.4h17.9c1.3,0,2.4,1.1,2.4,2.4v22.7
			C63.6,118.1,62.5,119.2,61.2,119.2z"/>
		<path class="st3" d="M159.5,49v31.8c0,2.9-2.4,5.3-5.3,5.3H61.7l-2.8,2.6l-4.5,4.2c-1.1,1-3.1,1-4.1,0l-4.5-4.2l-2.8-2.6h-5.2
			c-2.9,0-5.3-2.4-5.3-5.3V49c0-2.9,2.4-5.3,5.3-5.3h116.5C157.2,43.7,159.5,46,159.5,49z"/>
		<g>
			<path class="st0" d="M184.6,58.8v15.9c0,2.1-1.7,3.8-3.8,3.8h-34.2c-2.1,0-3.8-1.7-3.8-3.8v-2.5l-0.2,0.1c-0.5,0.3-1,0.4-1.5,0.4
				c-0.8,0-1.6-0.3-2.2-0.9c-0.6-0.6-0.9-1.4-0.9-2.2v-5.8c0-1.7,1.4-3.1,3.1-3.1c0.5,0,1.1,0.1,1.5,0.4l0.2,0.1v-2.5
				c0-2.1,1.7-3.9,3.8-3.9h34.2C182.9,54.9,184.6,56.7,184.6,58.8z"/>
			<path class="st0" d="M184.6,58.8h-0.5v15.9c0,1.9-1.5,3.4-3.4,3.4h-34.2c-1.9,0-3.4-1.5-3.4-3.4v-3.4l-0.9,0.5l0,0
				c-0.4,0.2-0.9,0.4-1.3,0.4c-0.7,0-1.3-0.3-1.8-0.7c-0.5-0.5-0.8-1.2-0.8-1.9v-5.8c0-1.4,1.2-2.6,2.6-2.6c0.5,0,0.9,0.1,1.3,0.3
				l0.2-0.4l-0.3,0.4l0.2,0.1l0.7,0.5v-3.4c0-1.9,1.5-3.4,3.4-3.4h34.2c1.9,0,3.4,1.5,3.4,3.4H184.6h0.5c0-2.4-1.9-4.3-4.3-4.3
				h-34.2c-2.4,0-4.3,1.9-4.3,4.3v2.5h0.5l0.3-0.4l-0.2-0.1l0,0c-0.5-0.3-1.2-0.5-1.8-0.5c-2,0-3.6,1.6-3.6,3.6v5.8
				c0,1,0.4,1.9,1.1,2.6c0.7,0.6,1.6,1,2.5,1c0.6,0,1.2-0.2,1.8-0.5l-0.2-0.4l0.2,0.4l0.2-0.1l-0.2-0.4h-0.5v2.5
				c0,2.4,1.9,4.3,4.3,4.3h34.2c2.4,0,4.3-1.9,4.3-4.3V58.8H184.6z"/>
			<path class="st4" d="M144.5,74.7v-4.1c0-0.7-0.7-1.1-1.3-0.8l-1.6,0.9c-0.9,0.5-1.9-0.1-1.9-1.1v-5.8c0-1,1.1-1.6,1.9-1.1
				l1.6,0.9c0.6,0.3,1.3-0.1,1.3-0.8v-4.1c0-1.1,0.9-2,2-2h34.2c1.1,0,2,0.9,2,2v4.5c0,0.7-0.7,1.1-1.3,0.8l-2.2-1.3
				c-0.9-0.5-1.9,0.1-1.9,1.1v5.8c0,1,1.1,1.6,1.9,1.1l2.2-1.3c0.6-0.3,1.3,0.1,1.3,0.8v4.5c0,1.1-0.9,2-2,2h-34.2
				C145.4,76.7,144.5,75.8,144.5,74.7z"/>
			<path class="st0" d="M151.1,68.7v-3.5c0-0.8,0.7-1.5,1.5-1.5H169c0.8,0,1.5,0.7,1.5,1.5v3.5c0,0.8-0.7,1.5-1.5,1.5h-16.4
				C151.8,70.2,151.1,69.5,151.1,68.7z"/>
		</g>
		<path class="st0" d="M63.6,110.4c0-1.5-1.1-2.6-2.5-2.8h-0.6c-0.7,0.1-1.3,0.4-1.8,0.9l0,0l-0.1,0.1v0c-1,1.1-2.5,1.7-4.1,1.4
			c-2-0.3-3.7-2-3.9-4.1c-0.3-2.8,1.9-5.2,4.6-5.2c1.3,0,2.6,0.6,3.4,1.5l0.1,0.1l0,0c0.4,0.5,1.1,0.8,1.8,0.9h0.6
			c1.4-0.1,2.5-1.3,2.5-2.8"/>
		<polygon class="st0" points="59.3,90.1 62,87.4 65.4,87.4 65.4,91.6 62.8,91.6 		"/>
		<path class="st0" d="M184.4,124.9H68c-2.5,0-4.4-1.9-4.4-4.2V92.2c0-2.3,2-4.2,4.4-4.2h116.4c2.4,0,4.4,1.9,4.4,4.2v28.5
			C188.8,123,186.8,124.9,184.4,124.9z"/>
		<path class="st0" d="M184.4,124.9v-0.5H68c-1.1,0-2.1-0.4-2.8-1.1c-0.7-0.7-1.2-1.6-1.2-2.6V92.2c0-1,0.4-2,1.2-2.6
			c0.7-0.7,1.7-1.1,2.8-1.1h116.4c1.1,0,2.1,0.4,2.8,1.1c0.7,0.7,1.2,1.6,1.2,2.6v28.5c0,1-0.4,2-1.2,2.6c-0.7,0.7-1.7,1.1-2.8,1.1
			V124.9v0.5c2.7,0,4.9-2.1,4.9-4.7V92.2c0-2.6-2.2-4.7-4.9-4.7H68c-2.7,0-4.9,2.1-4.9,4.7v28.5c0,2.6,2.2,4.7,4.9,4.7h116.4V124.9z
			"/>
		<polygon class="st0" points="59,52 63.6,52 63.6,75.3 59,75.3 59,65.5 49.8,65.5 49.8,75.3 45.1,75.3 45.1,52 49.8,52 49.8,61.4 
			59,61.4 		"/>
		<path class="st0" d="M74.8,58.3c2.6,0,4.6,0.9,6,2.8c1.3,1.9,1.8,4.3,1.4,7.3H71.1c0.4,2.3,1.7,3.4,4,3.4c1.5,0,2.6-0.6,3.4-1.7
			l3.3,2c-0.6,1.1-1.5,1.9-2.8,2.6c-1.2,0.6-2.6,1-4.1,1c-2.4,0-4.4-0.8-5.9-2.3c-1.5-1.6-2.2-3.6-2.2-6.2c0-2.6,0.7-4.7,2.2-6.3
			C70.5,59.1,72.5,58.3,74.8,58.3z M71.2,65.3h7.1c0-0.9-0.3-1.6-0.9-2.3c-0.6-0.6-1.4-1-2.5-1c-1,0-1.7,0.3-2.4,0.8
			C71.8,63.4,71.4,64.2,71.2,65.3z"/>
		<rect x="85.5" y="50.5" class="st0" width="4.5" height="24.8"/>
		<rect x="93.8" y="50.5" class="st0" width="4.5" height="24.8"/>
		<path class="st0" d="M109.7,75.6c-2.5,0-4.5-0.8-6-2.5c-1.5-1.6-2.3-3.7-2.3-6.2c0-2.5,0.8-4.6,2.3-6.2c1.5-1.6,3.5-2.4,6-2.4
			c2.5,0,4.5,0.8,6,2.4c1.5,1.6,2.3,3.7,2.3,6.2c0,2.5-0.8,4.5-2.3,6.2C114.2,74.8,112.2,75.6,109.7,75.6z M106.9,70.2
			c0.7,0.9,1.7,1.3,2.8,1.3c1.1,0,2.1-0.4,2.8-1.3c0.7-0.9,1.1-1.9,1.1-3.3c0-1.3-0.4-2.4-1.1-3.3c-0.7-0.9-1.7-1.3-2.8-1.3
			c-1.1,0-2.1,0.4-2.8,1.3c-0.7,0.9-1.1,1.9-1.1,3.3C105.8,68.3,106.2,69.4,106.9,70.2z"/>
		<polygon class="st0" points="120.6,69.7 125,69.7 125,75.3 122.4,79.3 117.8,79.3 120.6,74.5 		"/>
		<rect x="95.2" y="91.8" class="st5" width="4.5" height="24.8"/>
		<path class="st5" d="M111.1,116.9c-2.5,0-4.5-0.8-6-2.5c-1.5-1.6-2.3-3.7-2.3-6.2c0-2.5,0.8-4.6,2.3-6.2c1.5-1.6,3.5-2.4,6-2.4
			c2.5,0,4.5,0.8,6,2.4c1.5,1.6,2.3,3.7,2.3,6.2c0,2.5-0.8,4.5-2.3,6.2C115.6,116.1,113.6,116.9,111.1,116.9z M108.3,111.5
			c0.7,0.9,1.7,1.3,2.8,1.3c1.1,0,2.1-0.4,2.8-1.3c0.7-0.9,1.1-1.9,1.1-3.3c0-1.3-0.4-2.4-1.1-3.3c-0.7-0.9-1.7-1.3-2.8-1.3
			c-1.1,0-2.1,0.4-2.8,1.3c-0.7,0.9-1.1,1.9-1.1,3.3C107.2,109.6,107.5,110.7,108.3,111.5z"/>
		<path class="st5" d="M133.6,105.9c-0.7-1.6-1.9-2.4-3.6-2.4c-1.2,0-2.1,0.4-2.8,1.3c-0.7,0.9-1.1,2-1.1,3.4c0,1.4,0.4,2.5,1.1,3.4
			c0.7,0.9,1.7,1.3,2.9,1.3c1.6,0,2.8-0.7,3.5-2.2l3.7,1.8c-0.5,1.2-1.4,2.3-2.6,3.1c-1.2,0.8-2.8,1.3-4.7,1.3
			c-2.4,0-4.3-0.8-5.9-2.4c-1.5-1.6-2.3-3.7-2.3-6.3c0-2.6,0.8-4.7,2.3-6.3c1.5-1.6,3.5-2.3,5.8-2.3c1.8,0,3.3,0.5,4.6,1.4
			c1.2,0.9,2.1,2,2.5,3.3L133.6,105.9z"/>
		<polygon class="st5" points="150.4,116.6 146,108.9 144.1,110.9 144.1,116.6 139.8,116.6 139.8,91.8 144.1,91.8 144.1,105.2 
			149.4,99.9 155,99.9 149.3,105.6 155.3,116.5 		"/>
		<path class="st5" d="M165.4,105.1c-0.4-1.4-1.3-2.1-2.5-2.1c-0.5,0-0.9,0.1-1.3,0.4c-0.3,0.3-0.5,0.6-0.5,1.1
			c0,0.5,0.2,0.8,0.5,1.1c0.4,0.3,1,0.6,1.8,0.9c1.8,0.7,3.1,1.4,3.9,2.2c0.8,0.8,1.2,1.9,1.2,3.4c0,1.5-0.6,2.7-1.7,3.6
			c-1.2,0.9-2.6,1.3-4.2,1.3c-1.8,0-3.3-0.4-4.5-1.2c-1.2-0.8-1.9-2-2.3-3.6l3.8-1c0.4,1.6,1.3,2.4,2.8,2.4c0.6,0,1-0.1,1.4-0.4
			c0.4-0.3,0.5-0.6,0.5-1.1c0-0.2,0-0.3-0.1-0.4c-0.1-0.1-0.1-0.3-0.2-0.4c-0.1-0.1-0.2-0.2-0.3-0.3c-0.1-0.1-0.3-0.2-0.4-0.3
			c-0.1-0.1-0.3-0.1-0.5-0.2c-0.2-0.1-0.4-0.2-0.5-0.2c-0.1-0.1-0.3-0.1-0.6-0.2c-0.3-0.1-0.5-0.2-0.6-0.2c-1.4-0.6-2.5-1.2-3.2-2
			c-0.7-0.8-1-1.7-1-2.9c0-1.5,0.6-2.7,1.7-3.7c1.1-0.9,2.6-1.4,4.2-1.4c1.6,0,2.9,0.4,4,1.2c1.1,0.8,1.8,1.9,2,3.3L165.4,105.1z"/>
		<path class="st5" d="M176.9,108.9h-3.6l-0.9-15.6h5.4L176.9,108.9z M172.8,111h4.4v5.6h-4.4V111z"/>
		<path class="st5" d="M88,104.4c1.2,0.4,2.2,1.1,2.9,2.2c0.7,1.1,1,2.3,1,3.7c0,1.9-0.7,3.4-2,4.5c-1.3,1.1-3.2,1.7-5.7,1.7h-8.5
			V93.3h8.8c2.1,0,3.8,0.5,5,1.6c1.2,1.1,1.8,2.5,1.8,4.2c0,1.3-0.3,2.4-1,3.3C89.8,103.4,89,104,88,104.4z M84.5,97.3h-4.3v5.2h4.3
			c0.9,0,1.6-0.2,2.1-0.7c0.5-0.5,0.7-1.1,0.7-1.9c0-0.8-0.2-1.4-0.7-1.9C86.1,97.5,85.4,97.3,84.5,97.3z M84.1,112.5
			c1.1,0,1.9-0.3,2.5-0.8c0.6-0.5,0.9-1.2,0.9-2.1c0-1-0.3-1.7-0.9-2.3c-0.6-0.5-1.5-0.8-2.7-0.8h-3.7v6H84.1z"/>
		<rect x="95.2" y="91.8" class="st5" width="4.5" height="24.8"/>
	</g>
</g>
<g id="Capa_2">
</g>
<g id="Capa_5">
</g>
</svg>
