<?xml version="1.0" encoding="utf-8"?>
<!-- Generator: Adobe Illustrator 22.0.0, SVG Export Plug-In . SVG Version: 6.00 Build 0)  -->
<svg version="1.1" xmlns="http://www.w3.org/2000/svg" xmlns:xlink="http://www.w3.org/1999/xlink" x="0px" y="0px"
	 viewBox="0 0 27.83 19.33" enable-background="new 0 0 27.83 19.33" xml:space="preserve">
<g id="Capa_1">
</g>
<g id="Capa_2">
	<defs>
		<path id="SVGID_24_" d="M-544.29-460.84v12.38c0,2.15,2.28,3.47,4.13,2.39l3.45-1.98c1.02-0.6,2.27-0.1,2.7,0.9v12.52
			c0,2.9-2.35,5.24-5.24,5.24h-43.93l-5.89,5.61c-1.43,1.35-4.07,1.35-5.49,0l-5.9-5.61h-3.52c-2.9,0-5.24-2.35-5.24-5.24v-39.89
			c0-2.9,2.35-5.24,5.24-5.24h64.73c2.9,0,5.24,2.35,5.24,5.24v12.37c-0.42,1-1.68,1.5-2.7,0.9l-3.45-1.98
			C-542-464.29-544.29-462.95-544.29-460.84z"/>
	</defs>
	<clipPath id="SVGID_2_">
		<use xlink:href="#SVGID_24_"  overflow="visible"/>
	</clipPath>
</g>
<g id="Capa_4">
	<defs>
		<path id="SVGID_26_" d="M-373.99-460.84v12.38c0,2.15,2.28,3.47,4.13,2.39l3.45-1.98c1.02-0.6,2.27-0.1,2.7,0.9v12.52
			c0,2.9-2.35,5.24-5.24,5.24h-43.93l-5.89,5.61c-1.43,1.35-4.07,1.35-5.49,0l-5.9-5.61h-3.52c-2.9,0-5.24-2.35-5.24-5.24v-39.89
			c0-2.9,2.35-5.24,5.24-5.24h64.73c2.9,0,5.24,2.35,5.24,5.24v12.37c-0.42,1-1.68,1.5-2.7,0.9l-3.45-1.98
			C-371.71-464.29-373.99-462.95-373.99-460.84z"/>
	</defs>
	<clipPath id="SVGID_3_">
		<use xlink:href="#SVGID_26_"  overflow="visible"/>
	</clipPath>
</g>
<g id="Capa_3">
	<g>
	</g>
	<g>
		<g>
			<polygon fill="#78777F" points="17.88,13.54 22.91,13.54 21.22,9.32 17.77,7.53 			"/>
		</g>
		<g>
			<polygon fill="#ABAAB0" points="3.53,13.54 18.99,13.54 18.9,12.97 18.81,12.4 18.25,9.06 18.02,7.66 17.7,5.7 11.61,3.83 
				11.6,3.85 9.33,7.06 5.18,9.67 5.03,10.01 			"/>
		</g>
		<g>
			<polygon fill="#88868F" points="5.18,9.67 9.33,7.06 11.6,3.85 11.84,4.5 12.1,5.17 13.7,9.38 7,9.87 5.79,9.96 5.03,10.01 			
				"/>
		</g>
		<g>
			<polygon fill="#C5C3C8" points="5.18,9.67 9.33,7.06 13.7,9.38 7,9.87 5.79,9.96 5.03,10.01 			"/>
		</g>
	</g>
</g>
</svg>
