<svg id="Componentes" xmlns="http://www.w3.org/2000/svg" viewBox="0 0 100 100">
  <title>actuator_ir</title>
  <g>
    <path d="M46.07,45.48V64.73H13.9V45.48a16.09,16.09,0,0,1,32.17,0Z" fill="#fbfafb" stroke="#b4b4b4" stroke-miterlimit="10" stroke-width="0.5"/>
    <rect x="11.99" y="66.9" width="36" height="5.88" fill="#fbfafb" stroke="#b4b4b4" stroke-miterlimit="10" stroke-width="0.5"/>
    <g>
      <rect x="22.28" y="75.56" width="5" height="8.5" fill="#fbfafb" stroke="#b4b4b4" stroke-miterlimit="10" stroke-width="0.5"/>
      <rect x="32.7" y="75.56" width="5" height="10.54" fill="#fbfafb" stroke="#b4b4b4" stroke-miterlimit="10" stroke-width="0.5"/>
    </g>
    <path d="M88,23.65v1a1,1,0,0,1-1,1H76.66a1,1,0,0,1-1-1V16.23H69.24v8.42a1,1,0,0,1-.84,1,.41.41,0,0,1-.16,0H57.78a1,1,0,0,1-1-1V16.23H50.37v8.42a1,1,0,0,1-.85,1,.39.39,0,0,1-.15,0H38.9a1,1,0,0,1-1-1V16.23H31.49v8.42a1,1,0,0,1-1,1h-1a1,1,0,0,1-1-1V14.23a1,1,0,0,1,1-1H39.9a1,1,0,0,1,1,1v8.42h6.47V14.23a1,1,0,0,1,1-1H58.78a1,1,0,0,1,1,1v8.42h6.46V14.23a1,1,0,0,1,1-1H77.66a1,1,0,0,1,1,1v8.42H87A1,1,0,0,1,88,23.65Z" fill="#fbfafb" stroke="#b4b4b4" stroke-miterlimit="10" stroke-width="0.5"/>
    <path d="M76.66,25.65H76.6a1,1,0,0,1-1-1v-1a.88.88,0,0,1,.06-.33v1.33A1,1,0,0,0,76.66,25.65Z" fill="#fbfafb" stroke="#b4b4b4" stroke-miterlimit="10" stroke-width="0.5"/>
    <path d="M20.71,44.68h.84c5.23,0,10.45,0,15.68,0,.8,0,1.09.2,1.09,1,0,5.06,0,10.11,0,15.17,0,.77-.2,1-1,1s-1.08-.24-1.06-1.07c0-3.07,0-6.13,0-9.2,0-.84-.25-1-1.05-1-1.88.06-3.75,0-5.63,0a3.77,3.77,0,0,1-3-.95c-1.69-1.61-3.59-3-5.4-4.49A6.81,6.81,0,0,1,20.71,44.68Z" fill="#b4b4b4"/>
    <path d="M21.25,54.57V48.18c0-.22-.1-.51.1-.64s.47.13.65.26c1.34,1,2.67,2,4,3a1,1,0,0,1,.38.89q0,4.69,0,9.37c0,.6-.17.89-.82.87-1.16,0-2.32,0-3.49,0-.65,0-.82-.27-.82-.87C21.27,58.88,21.25,56.72,21.25,54.57Z" fill="#b4b4b4"/>
  </g>
</svg>
