<svg id="Componentes" xmlns="http://www.w3.org/2000/svg" viewBox="0 0 200 100">
  <title>componentes_svg</title>
  <rect x="10" y="9.91" width="180" height="80.18" rx="4.47" ry="4.47" fill="none" stroke="#fff" stroke-miterlimit="10" stroke-width="3"/>
  <g>
    <path d="M46,57.7c-.31.66-.56,1.35-.92,2a9.83,9.83,0,0,1-5.47,4.24c-3,1-6,1.94-9,2.92-1,.32-1.89.57-2.73-.26s-.55-1.66-.25-2.57c.95-2.82,1.8-5.69,2.83-8.49,1.09-3,2.88-5.46,6.19-6.59a9.68,9.68,0,0,1-7.18-3.53c-2.23-2.77-4.37-5.62-6.45-8.52-1.12-1.56-.4-3.08,1.5-3.12,3.62-.08,7.25-.09,10.86.07a9.16,9.16,0,0,1,7.3,3.81c-1.16-3.78.13-6.89,2.33-9.8,1.59-2.11,3.14-4.26,4.7-6.38.6-.81,1.24-1.52,2.41-1.32s1.42,1,1.71,1.93c.94,2.89,2,5.76,2.83,8.66a9.54,9.54,0,0,1-1,8.65c3.37-2.09,6.78-1.77,10.27-.59,2.55.87,5.13,1.63,7.71,2.43.87.27,1.58.67,1.74,1.68A2.08,2.08,0,0,1,74.2,45c-2.54,1.79-5,3.61-7.61,5.36-2.73,1.86-5.66,2.76-9,1.68a9.69,9.69,0,0,1,3.69,6.13,11.24,11.24,0,0,1,.2,1.53c0,3.21,0,6.43,0,9.65a2.23,2.23,0,0,1-1,2.22,2.05,2.05,0,0,1-2.39-.34c-2.72-1.93-5.48-3.81-8.11-5.84A9.16,9.16,0,0,1,46,57.7Zm2.91-8.25c-.89,2,.72,5.87,2.57,6.48.89.3,1.45-.18,1.28-1a14.35,14.35,0,0,0-1.23-3.49A3,3,0,0,0,48.92,49.45Zm.33-12.18c-1.87,1.11-2,2.89-2.14,4.65,0,1-.13,2.21,1.14,2.72A5.33,5.33,0,0,0,49.25,37.27Zm8.38,8.32c-2-1.8-6.46-1-7.21,1.3C52.42,48.56,56.64,47.8,57.63,45.59Zm-17,8.63c2.85.14,5.77-3,5.07-5.28C43.09,48.84,40.26,51.72,40.61,54.22Zm4.65-8.17c-.13-2.41-4.29-4.54-6.52-3.34C39.06,45.13,42.78,47,45.26,46.05Z" fill="#fff"/>
    <path d="M100.34,71.59H95.69l-.38-2.13c-2.15,2.49-4.79,2.41-7.45,2.17a3.48,3.48,0,0,1-3.54-3.13,29.64,29.64,0,0,1,0-11A3.71,3.71,0,0,1,88,54.24c2.59-.31,5.14-.35,7.51,1.88V48.27h4.88ZM95.41,58.73a8.28,8.28,0,0,0-5.11-.57,1.74,1.74,0,0,0-1.2,1.14c-.1,2.44-.09,4.89,0,7.33a1.56,1.56,0,0,0,1.06,1.12c1.79.17,3.64.4,5.23-.79Z" fill="#fff"/>
    <path d="M82,71.6H77.18l-.32-1.86c-2.32,2.41-5.13,2.06-7.87,1.9-2-.12-2.89-1.07-3-3a23.37,23.37,0,0,1,0-3.45,3.4,3.4,0,0,1,3.5-3.51c2.45-.1,4.91,0,7.52,0-.09.15,0,.06,0,0,.38-3.54.17-3.79-3.29-3.76-.67,0-1.35.08-2,.12L71,59.77c-1.13,0-2.27,0-3.41,0a7.66,7.66,0,0,1-.88-.1,19.88,19.88,0,0,1,0-2.79,2.81,2.81,0,0,1,2.81-2.55c3.1-.11,6.2-.13,9.29,0a2.91,2.91,0,0,1,3,3.14c.13,2.69.1,5.4.12,8.1C82,67.52,82,69.47,82,71.6ZM70.67,65l.14,3.21c2.27-.16,4.35.48,6.09-.92v-3C74.83,64.59,72.82,63.92,70.67,65Z" fill="#fff"/>
    <path d="M118.4,71.59h-4.69l-.22-1.6a2.28,2.28,0,0,0-.61.24c-2.49,2.1-5.4,1.58-8.23,1.26a2.47,2.47,0,0,1-2.09-2.43,21.44,21.44,0,0,1,0-4.46,3.29,3.29,0,0,1,3.44-3c2.45-.09,4.91,0,7.49,0-.1.15,0,.1,0,0,.51-3.61.27-3.89-3.27-3.87-.62,0-1.24.05-1.9.08l-.73,1.81h-4.42a25.07,25.07,0,0,1,.15-2.83A2.82,2.82,0,0,1,106,54.33c3.21-.11,6.43-.13,9.63,0a2.81,2.81,0,0,1,2.78,3C118.45,62,118.4,66.7,118.4,71.59Zm-11-3.49c2.26.09,4.36.54,6.14-.85V64.4c-2.09.11-4.13-.44-6.14.55Z" fill="#fff"/>
    <path d="M155.21,54.26h4.9V71.53h-4.72l-.33-1.77c-.27.09-.47.09-.57.2-2.16,2.3-4.94,1.84-7.61,1.6a2.67,2.67,0,0,1-2.58-2.76c-.19-2.11-.22-4.24-.25-6.37,0-2.64,0-5.28,0-8.1h5.07c0,3.63,0,7.19,0,10.75,0,2.69.12,2.85,2.84,2.75a24.36,24.36,0,0,0,3.25-.56Z" fill="#fff"/>
    <path d="M125.39,71.6h-4.82c0-.57-.11-1.06-.11-1.56q0-8.37,0-16.73c0-.52,0-1,.05-1.55.24-2.29,1.36-3.38,3.66-3.58.4,0,.8,0,1.21,0H129v3.58l-3.31.21-.28,2.18,3.63.18v3.61H125.5C125.33,62.48,125.52,67,125.39,71.6Z" fill="#fff"/>
    <path d="M168.87,51.84h5c.06.77.11,1.45.17,2.31h3.49v3.73l-3.45.22v9.62l3.4.28v3.14c-2.07.57-4.09,1.09-6.25.52A2.65,2.65,0,0,1,169,69.31a7.17,7.17,0,0,1-.15-1C168.86,62.88,168.87,57.48,168.87,51.84Z" fill="#fff"/>
    <path d="M136.12,56.74c1.75-1.83,3.38-3.16,5.91-2.42v4.61c-1.05,0-2.07-.08-3.08,0a28.05,28.05,0,0,0-2.9.58v12h-4.93V54.27h4.77Z" fill="#fff"/>
    <path d="M167,54.29V71.54h-4.71V54.29Z" fill="#fff"/>
    <path d="M167,48.28v3.28H162.3V48.28Z" fill="#fff"/>
  </g>
</svg>
