<svg id="Componentes" xmlns="http://www.w3.org/2000/svg" viewBox="0 0 100 100">
  <title>componentes_svg</title>
  <rect x="9.91" y="9.33" width="80.18" height="80.18" rx="4.47" ry="4.47" fill="none" stroke="#fff" stroke-miterlimit="10" stroke-width="3"/>
  <path d="M73,61.54q-2.31-1.57-4.65-3.1L65.8,56.76l-11-7.34L61,45.27l11.74-7.84c.93-.63,2-1.62,2-2.77s-1.08-2.08-2-2.69L63.93,26q-5.84-3.89-11.66-7.78a4.55,4.55,0,0,0-2.38-1,2.26,2.26,0,0,0-1.13.32c-1.07.59-1.5,1.55-1.49,3.29,0,5.39,0,10.78,0,16.17v3.29c0,.43,0,.86-.06,1.36l0,.81-.09,1.74-2.74-1.8-2.52-1.66Q39.89,39.5,38,38.2c-2.79-1.87-5.59-3.74-8.4-5.58a3.37,3.37,0,0,0-1.79-.57,2.53,2.53,0,0,0-2.18,1.22c-.83,1.27-.45,2.69,1,3.78.36.27.74.51,1.12.75l.63.41,16.7,11.16-1.89,1.34c-.43.31-.82.59-1.22.85l-5.27,3.51-7.47,5-.72.48a22.12,22.12,0,0,0-2.39,1.71,2.46,2.46,0,0,0-.44,3.42,2.62,2.62,0,0,0,2.14,1.15,2.79,2.79,0,0,0,1.3-.33,13.61,13.61,0,0,0,1.48-.92L47.28,54.45v7.92c0,5.36,0,10.57,0,15.77,0,1.61.43,2.54,1.46,3.13a2.39,2.39,0,0,0,1.17.33,4.07,4.07,0,0,0,2.17-.85l10.37-6.92L73,66.8a3.47,3.47,0,0,0,1.85-2.61A3.51,3.51,0,0,0,73,61.54ZM52.79,25l14.49,9.64L52.79,44.34Zm0,48.78V54.54l14.44,9.63Z" fill="#fff"/>
</svg>
