<svg id="Componentes" xmlns="http://www.w3.org/2000/svg" viewBox="0 0 100 100">
  <title>componentes_svg</title>
  <g>
    <g>
      <path d="M21.63,74.58s0,0,0,0l0,0h0S21.64,74.59,21.63,74.58Z" fill="#fff" stroke="#fff" stroke-miterlimit="10" stroke-width="2"/>
      <path d="M21.63,74.58s0,0,0,0l0,0h0S21.64,74.59,21.63,74.58Z" fill="#fff" stroke="#fff" stroke-miterlimit="10" stroke-width="2"/>
      <path d="M50.12,87c-1,0-2,0-3-.11A52.08,52.08,0,0,1,41.65,86a22.81,22.81,0,0,1-4.81-1.56l-1.47-.69a42.78,42.78,0,0,1-7-3.79,36.22,36.22,0,0,1-5.68-5.06l-2-2.43C19.25,70.64,19,70.28,19,70.21l-.25-.42c-.48-.79-1-1.61-1.4-2.43-.63-1.24-1.21-2.48-1.72-3.69a35,35,0,0,1-2.51-11.6c-.07-1.48-.06-3,0-4.56a34.88,34.88,0,0,1,2.28-10.43,35.91,35.91,0,0,1,3.23-6.55,9.08,9.08,0,0,1,.64-.89c.17-.22.34-.44.5-.67l.54-.79c.3-.44.6-.89.93-1.32a30.07,30.07,0,0,1,4.65-4.81,42.32,42.32,0,0,1,3.81-2.88,51.32,51.32,0,0,1,4.53-2.54,31.17,31.17,0,0,1,8.33-2.81c1.5-.3,3-.48,4.56-.65a25.24,25.24,0,0,1,3-.17,38.91,38.91,0,0,1,4.2.25c.93.1,1.86.28,2.76.45.33.07.67.16,1,.26s.46.14.69.19l.73.15c.31.06.61.12.91.2a24,24,0,0,1,2.45.81c.41.15.8.33,1.18.51a15.16,15.16,0,0,0,1.59.67,21.82,21.82,0,0,1,3.86,2,34.9,34.9,0,0,1,6.82,5.34l.15.15.23.1.64.36.49-.52s1.73-1.61,2.56-2.4l.08,4.13q.08,3.13.17,6.27l.06,1.92h0l-9.95-3.25L73,28.42l.78-.73L73,27A32.5,32.5,0,0,0,50.1,17.6c-.6,0-1.2,0-1.81,0a31.68,31.68,0,0,0-18.58,7.11A32.07,32.07,0,0,0,18.83,41.11a31.7,31.7,0,0,0,.78,20.31,34.31,34.31,0,0,0,5.19,9.07,33.08,33.08,0,0,0,6,5.69,39.45,39.45,0,0,0,8.59,4.41,25,25,0,0,0,8.27,1.75c.85,0,1.7.06,2.55.06h.51V87Z" fill="#fff" stroke="#fff" stroke-miterlimit="10" stroke-width="2"/>
      <path d="M74.12,78.12c-1.18-1-2.34-2-3.53-3a33.54,33.54,0,0,0,5.47-5.71l.57.43c.28.19.57.36.86.53l.68.43L79.78,72l.07,0c-.2.28-.41.55-.62.81a38.77,38.77,0,0,1-4.13,4.46C74.79,77.55,74.47,77.83,74.12,78.12Z" fill="#fff" stroke="#fff" stroke-miterlimit="10" stroke-width="2"/>
      <path d="M58.33,81.36c1.65-.53,4.34-1.46,5-1.73.4-.16.78-.35,1.17-.54l.49-.25L68,82.42a46.08,46.08,0,0,1-8.68,3.43Z" fill="#fff" stroke="#fff" stroke-miterlimit="10" stroke-width="2"/>
      <path d="M80.51,61.26a32,32,0,0,0,1.75-6.91l4.55.55a37.34,37.34,0,0,1-2,8Z" fill="#fff" stroke="#fff" stroke-miterlimit="10" stroke-width="2"/>
      <path d="M82.33,46.15a29.76,29.76,0,0,0-1-5.07l2.29-1.45,1.72-1.11a37.13,37.13,0,0,1,1.61,7.29l-1.15.09L84.22,46Z" fill="#fff" stroke="#fff" stroke-miterlimit="10" stroke-width="2"/>
      <path d="M21.65,74.62h0l0,0s0,0,0,0S21.64,74.61,21.65,74.62Z" fill="#fff" stroke="#fff" stroke-miterlimit="10" stroke-width="2"/>
      <path d="M21.65,74.62h0l0,0s0,0,0,0S21.64,74.61,21.65,74.62Z" fill="#fff" stroke="#fff" stroke-miterlimit="10" stroke-width="2"/>
    </g>
    <g>
      <path d="M71.14,50.82a2.9,2.9,0,0,1-2.89,2.9H49.61a2.92,2.92,0,0,1-2.9-2.9V32.18a2.9,2.9,0,0,1,5.79,0V47.93H68.25A2.89,2.89,0,0,1,71.14,50.82Z" fill="#fff" stroke="#fff" stroke-miterlimit="10" stroke-width="2"/>
      <path d="M49.61,52.72a1.93,1.93,0,0,1-1.9-1.9V32.18a1.9,1.9,0,0,1,3.79,0V48.93H68.25a1.9,1.9,0,0,1,0,3.79Z" fill="#fff" stroke="#fff" stroke-miterlimit="10" stroke-width="2"/>
    </g>
  </g>
</svg>
