<svg id="Componentes" xmlns="http://www.w3.org/2000/svg" viewBox="0 0 100 100">
  <title>componentes_svg</title>
  <path d="M31.34,24.94A18.88,18.88,0,0,1,36,18.36a18.39,18.39,0,0,1,15.94-4.89,18.47,18.47,0,0,1,13.29,8.92,1,1,0,0,0,1.13.55,13.62,13.62,0,0,1,12.8,5.14,37.26,37.26,0,0,1,2.65,4.25,14.52,14.52,0,0,1,15,12.29v4.1a15.14,15.14,0,0,1-2.94,6.68A13.85,13.85,0,0,1,82.56,61q-18.09,0-36.18,0" fill="none" stroke="#fff" stroke-linecap="round" stroke-miterlimit="10" stroke-width="4"/>
  <path d="M36.25,30.75H11A3.76,3.76,0,0,0,7.25,34.5V66.75A3.76,3.76,0,0,0,11,70.5H36.25A3.76,3.76,0,0,0,40,66.75V34.5A3.76,3.76,0,0,0,36.25,30.75Zm.87,35.33A1.11,1.11,0,0,1,36,67.19H12.56a1.11,1.11,0,0,1-1.1-1.11V63.75a1.1,1.1,0,0,1,1.1-1.1H36a1.1,1.1,0,0,1,1.1,1.1Zm0-9.66a1.1,1.1,0,0,1-1.1,1.1H12.56a1.11,1.11,0,0,1-1.1-1.1V54.08a1.11,1.11,0,0,1,1.1-1.1H36a1.1,1.1,0,0,1,1.1,1.1Zm0-9.92A1.1,1.1,0,0,1,36,47.6H12.56a1.1,1.1,0,0,1-1.1-1.1V44.17a1.11,1.11,0,0,1,1.1-1.11H36a1.11,1.11,0,0,1,1.1,1.11Zm0-9A1.1,1.1,0,0,1,36,38.6H12.56a1.1,1.1,0,0,1-1.1-1.1V35.17a1.11,1.11,0,0,1,1.1-1.11H36a1.11,1.11,0,0,1,1.1,1.11Z" fill="#fff"/>
  <rect x="47.73" y="71.42" width="16.54" height="16.54" rx="2.28" ry="2.28" fill="#fff"/>
  <rect x="55.4" y="67.08" width="1.2" height="4.58" fill="#fff"/>
  <rect x="58.11" y="67.08" width="1.2" height="4.58" fill="#fff"/>
  <rect x="52.63" y="67.08" width="1.2" height="4.58" fill="#fff"/>
  <rect x="49.88" y="67.08" width="1.2" height="4.58" fill="#fff"/>
  <rect x="60.82" y="67.08" width="1.2" height="4.58" fill="#fff"/>
  <rect x="55.4" y="87.5" width="1.2" height="4.58" fill="#fff"/>
  <rect x="58.11" y="87.5" width="1.2" height="4.58" fill="#fff"/>
  <rect x="52.63" y="87.5" width="1.2" height="4.58" fill="#fff"/>
  <rect x="49.88" y="87.5" width="1.2" height="4.58" fill="#fff"/>
  <rect x="60.82" y="87.5" width="1.2" height="4.58" fill="#fff"/>
  <rect x="45.35" y="77.45" width="1.2" height="4.58" transform="translate(125.69 33.79) rotate(90)" fill="#fff"/>
  <rect x="45.35" y="80.16" width="1.2" height="4.58" transform="translate(128.4 36.5) rotate(90)" fill="#fff"/>
  <rect x="45.35" y="74.68" width="1.2" height="4.58" transform="translate(122.92 31.02) rotate(90)" fill="#fff"/>
  <rect x="45.35" y="71.93" width="1.2" height="4.58" transform="translate(120.17 28.27) rotate(90)" fill="#fff"/>
  <rect x="45.35" y="82.86" width="1.2" height="4.58" transform="translate(131.1 39.21) rotate(90)" fill="#fff"/>
  <rect x="65.47" y="77.45" width="1.2" height="4.58" transform="translate(145.81 13.67) rotate(90)" fill="#fff"/>
  <rect x="65.47" y="80.16" width="1.2" height="4.58" transform="translate(148.52 16.37) rotate(90)" fill="#fff"/>
  <rect x="65.47" y="74.68" width="1.2" height="4.58" transform="translate(143.04 10.9) rotate(90)" fill="#fff"/>
  <rect x="65.47" y="71.93" width="1.2" height="4.58" transform="translate(140.29 8.15) rotate(90)" fill="#fff"/>
  <rect x="65.47" y="82.86" width="1.2" height="4.58" transform="translate(151.23 19.08) rotate(90)" fill="#fff"/>
  <path d="M59.71,55.2l9.34-10.59a.5.5,0,0,0-.37-.83H50a.5.5,0,0,0-.37.83L59,55.2A.51.51,0,0,0,59.71,55.2Z" fill="#fff"/>
  <path d="M58.85,26.31,54.29,44.72a.49.49,0,0,0,.48.61H63.9a.49.49,0,0,0,.48-.61L59.81,26.31A.49.49,0,0,0,58.85,26.31Z" fill="#fff"/>
</svg>
