<svg id="Componentes" xmlns="http://www.w3.org/2000/svg" viewBox="0 0 100 100">
  <title>componentes_svg</title>
  <g>
    <path d="M50,77.56c-7.5-11.74-15.15-22.38-21.35-33.82-5.32-9.82-1.74-21.38,7-28a23.71,23.71,0,0,1,29.13.3c8.39,6.52,11.83,18.05,6.58,27.71C65.11,55.19,57.46,65.88,50,77.56ZM49.66,48.5A13.87,13.87,0,1,0,35.89,34.4,13.73,13.73,0,0,0,49.66,48.5Z" fill="#fff"/>
    <path d="M88.23,89.13H11.77c5.29-8.11,9.56-15.82,15.1-22.47.88-1.06,2.49-1,3.73-1s2.36,0,3.54,0a26.1,26.1,0,0,1,3.12.08l2.13,3,8.07,11.82.64.94L50.49,85l2.3-3.33,1.55-2.26,7-10.19,2.18-3.16.1-.1c3.09,0,6.28-.06,9.46.06a2.58,2.58,0,0,1,1.72,1.13Q81.31,77,87.66,87A7,7,0,0,1,88.23,89.13Z" fill="#fff"/>
    <line x1="50.22" y1="82.24" x2="50.06" y2="82" fill="#fff"/>
    <line x1="50.06" y1="82" x2="49.9" y2="82.24" fill="#fff"/>
    <circle cx="50" cy="34.68" r="9.93" fill="#fff"/>
  </g>
</svg>
