<svg id="Componentes" xmlns="http://www.w3.org/2000/svg" viewBox="0 0 100 100">
  <title>componentes_svg</title>
  <rect x="9.91" y="9.91" width="80.18" height="80.18" rx="4.47" ry="4.47" fill="none" stroke="#fff" stroke-miterlimit="10" stroke-width="3"/>
  <g>
    <path d="M50,25.6h-7.3c-.61,0-1.34.14-1.79-.14a2.76,2.76,0,0,1-1.26-1.67c-.07-.47.56-1.22,1.06-1.54A3.53,3.53,0,0,1,42.47,22c5,0,10.08,0,15.12,0a6.77,6.77,0,0,1,.78,0c1.38.14,2.12.8,2.11,1.83s-.73,1.7-2.15,1.73c-2.78.05-5.56,0-8.34,0Z" fill="#fff"/>
    <path d="M50,30.82c-2.69,0-5.38,0-8.08,0-1.66,0-2.37-.58-2.36-1.73s.76-1.81,2.38-1.82c5.39-.05,10.77,0,16.16,0a3.25,3.25,0,0,1,.77.07c.91.24,1.62.72,1.59,1.77a1.66,1.66,0,0,1-1.86,1.73C55.73,30.84,52.87,30.83,50,30.82Z" fill="#fff"/>
    <path d="M50,36.07h-7.3c-.61,0-1.34.15-1.79-.14a2.82,2.82,0,0,1-1.27-1.67c-.06-.47.57-1.21,1.07-1.54a3.53,3.53,0,0,1,1.77-.22c5,0,10.08,0,15.12,0,.26,0,.53,0,.78,0,1.38.14,2.12.8,2.11,1.84S59.76,36,58.33,36c-2.78.05-5.56,0-8.34,0Z" fill="#fff"/>
    <path d="M50,41.3c-2.69,0-5.38,0-8.07,0-1.66,0-2.37-.59-2.37-1.74s.76-1.8,2.38-1.82c5.39,0,10.77,0,16.15,0a2.9,2.9,0,0,1,.78.06c.91.24,1.63.72,1.58,1.77a1.65,1.65,0,0,1-1.85,1.73C55.73,41.31,52.87,41.3,50,41.3Z" fill="#fff"/>
    <path d="M50,46.54H42.42a4.31,4.31,0,0,1-1.78-.19,2,2,0,0,1-1-1.34,2.3,2.3,0,0,1,.85-1.68,3.7,3.7,0,0,1,2-.35c5,0,10.08,0,15.13,0a7.22,7.22,0,0,1,1,0c1,.15,1.84.64,1.83,1.81a1.66,1.66,0,0,1-1.88,1.72c-2.87,0-5.73,0-8.6,0Z" fill="#fff"/>
    <path d="M50,51.77c-2.69,0-5.38,0-8.07,0-1.65,0-2.37-.6-2.37-1.75s.77-1.79,2.39-1.81c5.38,0,10.76-.05,16.14,0a3.15,3.15,0,0,1,2.16,1.07c.81,1.11-.21,2.41-1.92,2.45-2.77.06-5.55,0-8.33,0Z" fill="#fff"/>
    <path d="M49.83,57h-7A3.91,3.91,0,0,1,41,56.9c-.59-.33-1.32-1-1.34-1.57a2.57,2.57,0,0,1,1.2-1.71c.43-.3,1.17-.18,1.78-.18H57.5a9,9,0,0,1,1,0c1.05.12,1.84.56,1.93,1.73s-.62,1.78-2,1.81c-2.87.06-5.74,0-8.61,0Z" fill="#fff"/>
    <path d="M50,62.25H42.67c-.52,0-1.15.16-1.54-.08a3.27,3.27,0,0,1-1.5-1.51c-.3-1,.43-1.63,1.37-1.87a6.25,6.25,0,0,1,1.56-.14H57.48a7,7,0,0,1,1.3.08c.93.18,1.67.65,1.67,1.7a1.66,1.66,0,0,1-1.81,1.79c-.87,0-1.74,0-2.62,0Z" fill="#fff"/>
    <path d="M49.93,67.48c-2.69,0-5.39,0-8.09,0-1.62,0-2.37-.65-2.28-1.82.1-1.33,1-1.73,2.17-1.74,5.48,0,11,0,16.45,0,1.54,0,2.34.77,2.3,1.89s-.8,1.66-2.46,1.68c-2.69,0-5.39,0-8.09,0Z" fill="#fff"/>
    <path d="M50,72.73H42.67c-.52,0-1.15.16-1.54-.07a3.29,3.29,0,0,1-1.5-1.52c-.3-1,.43-1.63,1.37-1.87a6.25,6.25,0,0,1,1.56-.13H57.48a7,7,0,0,1,1.3.07c.93.18,1.67.65,1.67,1.7a1.66,1.66,0,0,1-1.81,1.79c-.87,0-1.75,0-2.62,0Z" fill="#fff"/>
    <path d="M50,78c-2.7,0-5.4,0-8.09,0-1.64,0-2.37-.61-2.35-1.76s.77-1.77,2.39-1.79c5.39,0,10.79,0,16.18,0a2.25,2.25,0,0,1,.26,0c1.38.15,2.11.8,2.1,1.85s-.7,1.7-2.14,1.72c-2.78,0-5.57,0-8.35,0Z" fill="#fff"/>
    <path d="M73.79,46.55H66.23a3.72,3.72,0,0,1-1.79-.17,2.34,2.34,0,0,1-1.12-1.54,2.34,2.34,0,0,1,1-1.58A3.36,3.36,0,0,1,66.12,43c5,0,10.08,0,15.12,0a7.08,7.08,0,0,1,1.3.06,1.69,1.69,0,0,1,1.6,2,1.57,1.57,0,0,1-1.75,1.53c-2.87,0-5.74,0-8.6,0Z" fill="#fff"/>
    <path d="M73.63,51.77H66.31c-.52,0-1.17.17-1.54-.07-.6-.38-1.36-1-1.4-1.59s.64-1.33,1.2-1.72a3.42,3.42,0,0,1,1.78-.2L81,48.2a9,9,0,0,1,1,0c1.45.16,2.09.74,2.09,1.84s-.59,1.68-2.13,1.7c-2.79.05-5.58,0-8.37,0Z" fill="#fff"/>
    <path d="M26.21,57H18.12C17,57,16,56.84,15.88,55.43c-.1-1.24.56-2,2.14-2,5.48,0,11,0,16.43,0,1.58,0,2.39.77,2.33,1.86S35.9,57,34.29,57c-2.69,0-5.39,0-8.08,0Z" fill="#fff"/>
    <path d="M73.83,57H66.28c-.52,0-1.16.16-1.54-.08-.59-.39-1.35-1-1.39-1.6S64,54,64.56,53.65a3.5,3.5,0,0,1,1.77-.21l14.85,0a7.23,7.23,0,0,1,1,0q2,.3,1.92,2c-.09,1.23-.89,1.58-2,1.58H73.83Z" fill="#fff"/>
    <path d="M73.53,62.25c-2.62,0-5.23,0-7.85,0-1.56,0-2.41-.68-2.42-1.75s.83-1.81,2.4-1.82c5.32,0,10.64,0,16,0a4.48,4.48,0,0,1,1,.09,1.7,1.7,0,0,1,1.47,1.86,1.54,1.54,0,0,1-1.7,1.59c-3,0-5.93,0-8.89,0Z" fill="#fff"/>
    <path d="M26.12,67.49h-7a13.78,13.78,0,0,1-1.82-.06,1.5,1.5,0,0,1-1.38-1.61A1.58,1.58,0,0,1,17.08,64a6.1,6.1,0,0,1,1.54-.15q7.57,0,15.13,0c2.09,0,3,.54,3,1.71s-.88,1.84-3.1,1.85c-2.52,0-5,0-7.56,0Z" fill="#fff"/>
    <path d="M73.57,67.47c-2.43,0-4.87,0-7.3,0a3.84,3.84,0,0,1-1.78-.15,2.34,2.34,0,0,1-1.16-1.52,2.48,2.48,0,0,1,1-1.6,2.63,2.63,0,0,1,1.49-.28q7.82,0,15.63,0a5.08,5.08,0,0,1,.78,0c1.36.21,2,.87,1.91,2s-.9,1.58-2,1.58H73.57Z" fill="#fff"/>
    <path d="M73.55,72.72c-2.7,0-5.41,0-8.11,0-1.36,0-2.15-.73-2.18-1.73s.77-1.82,2.12-1.83c5.58,0,11.16,0,16.74,0,1.41,0,2.06.78,2,1.89-.08,1.41-1.05,1.63-2.2,1.63H73.55Z" fill="#fff"/>
    <path d="M26.31,78c-2.44,0-4.87,0-7.3,0a4.44,4.44,0,0,1-1.8-.1,2.67,2.67,0,0,1-1.27-1.4,1.39,1.39,0,0,1,1-1.86,6.28,6.28,0,0,1,1.79-.23q7.56,0,15.12,0c2,0,3,.58,3,1.77s-.92,1.77-2.92,1.78c-2.52,0-5,0-7.56,0Z" fill="#fff"/>
    <path d="M73.86,78H66.3c-.52,0-1.15.16-1.53-.07-.6-.38-1.38-1-1.42-1.57S64,75,64.54,74.6a3.38,3.38,0,0,1,1.77-.21q7.43,0,14.85,0a6.26,6.26,0,0,1,1.3,0c1,.21,1.75.75,1.68,1.94s-.86,1.61-2,1.61H73.86Z" fill="#fff"/>
    <path d="M26.26,62.24c-2.7,0-5.41,0-8.11,0-1.14,0-2.13-.17-2.24-1.58-.11-1.25.54-1.94,2.17-2,5.5-.06,11,0,16.49,0a1.91,1.91,0,0,1,2.17,1.79c.11,1.06-.83,1.77-2.37,1.79-2.7,0-5.41,0-8.11,0Z" fill="#fff"/>
    <path d="M26,72.71H18.7c-.52,0-1.16.13-1.54-.11A2.87,2.87,0,0,1,16,71.14,1.38,1.38,0,0,1,17,69.34a6.83,6.83,0,0,1,1.81-.19c5,0,9.94,0,14.91-.06,1.92,0,2.88.6,3,1.8s-.88,1.82-2.86,1.83c-2.62,0-5.24,0-7.85,0Z" fill="#fff"/>
  </g>
</svg>
