<svg id="Componentes" xmlns="http://www.w3.org/2000/svg" viewBox="0 0 200 100">
  <title>componentes_svg</title>
  <rect x="10.57" y="9.33" width="80.18" height="80.18" rx="4.47" ry="4.47" fill="none" stroke="#fff" stroke-miterlimit="10" stroke-width="3"/>
  <path d="M185.83,89.52H109.38a4.8,4.8,0,0,1-4.81-4.8V8.26" fill="none" stroke="#fff" stroke-linecap="round" stroke-miterlimit="10" stroke-width="3"/>
  <g>
    <polyline points="25.04 28.33 53.32 48.77 53.28 48.78 25 69.22" fill="none" stroke="#fff" stroke-linecap="round" stroke-linejoin="round" stroke-width="5"/>
    <line x1="46.9" y1="64.77" x2="72.67" y2="64.77" fill="none" stroke="#fff" stroke-linecap="round" stroke-linejoin="round" stroke-width="5"/>
  </g>
  <circle cx="116.9" cy="58.69" r="4.06" fill="#e5867b" stroke="#e5867b" stroke-miterlimit="10" stroke-width="3"/>
  <circle cx="131.9" cy="76.81" r="4.06" fill="#e5867b" stroke="#e5867b" stroke-miterlimit="10" stroke-width="3"/>
  <circle cx="146.15" cy="62.19" r="4.06" fill="#e5867b" stroke="#e5867b" stroke-miterlimit="10" stroke-width="3"/>
  <circle cx="165.4" cy="74.44" r="4.06" fill="#e5867b" stroke="#e5867b" stroke-miterlimit="10" stroke-width="3"/>
  <circle cx="180.4" cy="60.69" r="4.06" fill="#e5867b" stroke="#e5867b" stroke-miterlimit="10" stroke-width="3"/>
  <line x1="116.46" y1="58.13" x2="132.21" y2="77.75" fill="#e5867b" stroke="#e5867b" stroke-miterlimit="10" stroke-width="3"/>
  <line x1="145.83" y1="62.13" x2="132.71" y2="77.38" fill="#e5867b" stroke="#e5867b" stroke-miterlimit="10" stroke-width="3"/>
  <line x1="165.71" y1="75.25" x2="146.15" y2="62.19" fill="#e5867b" stroke="#e5867b" stroke-miterlimit="10" stroke-width="3"/>
  <line x1="179.83" y1="60.5" x2="165.71" y2="75.25" fill="#e5867b" stroke="#e5867b" stroke-miterlimit="10" stroke-width="3"/>
  <circle cx="115.64" cy="33.72" r="4.06" fill="#f3cb7b" stroke="#f3cb7b" stroke-miterlimit="10" stroke-width="3"/>
  <circle cx="135.23" cy="46.75" r="4.06" fill="#f3cb7b" stroke="#f3cb7b" stroke-miterlimit="10" stroke-width="3"/>
  <circle cx="144.65" cy="28.64" r="4.06" fill="#f3cb7b" stroke="#f3cb7b" stroke-miterlimit="10" stroke-width="3"/>
  <circle cx="166.62" cy="34.82" r="4.06" fill="#f3cb7b" stroke="#f3cb7b" stroke-miterlimit="10" stroke-width="3"/>
  <circle cx="177.02" cy="17.33" r="4.06" fill="#f3cb7b" stroke="#f3cb7b" stroke-miterlimit="10" stroke-width="3"/>
  <line x1="115.06" y1="33.31" x2="135.8" y2="47.56" fill="#f3cb7b" stroke="#f3cb7b" stroke-miterlimit="10" stroke-width="3"/>
  <line x1="144.34" y1="28.67" x2="136.17" y2="47.06" fill="#f3cb7b" stroke="#f3cb7b" stroke-miterlimit="10" stroke-width="3"/>
  <line x1="167.15" y1="35.51" x2="144.65" y2="28.64" fill="#f3cb7b" stroke="#f3cb7b" stroke-miterlimit="10" stroke-width="3"/>
  <line x1="176.43" y1="17.31" x2="167.15" y2="35.51" fill="#f3cb7b" stroke="#f3cb7b" stroke-miterlimit="10" stroke-width="3"/>
</svg>
