<svg id="Componentes" xmlns="http://www.w3.org/2000/svg" viewBox="0 0 100 100">
  <title>componentes_svg</title>
  <polyline points="8.12 52.96 13.57 52.96 17.78 60.14 26.69 12.6 35.6 85.4 44.52 27.46 53.43 69.06 57.89 42.31 62.34 61.63 66.8 45.29 71.51 58.16 75.72 49.74 78.93 52.71 89.33 52.71" fill="none" stroke="#fff" stroke-linecap="round" stroke-linejoin="round" stroke-width="3"/>
  <path d="M84.62,16A2.44,2.44,0,0,1,84,17.21c-2,2-3.93,3.89-5.92,5.82a1.28,1.28,0,0,0-.43,1c0,2.44,0,4.89,0,7.33a2,2,0,0,1-1.24,2c-1.11.53-2.2,1.1-3.3,1.64a1.83,1.83,0,0,1-2.76-1.71q0-4.64,0-9.28a1.22,1.22,0,0,0-.4-1c-2-1.89-3.84-3.85-5.85-5.68A1.92,1.92,0,0,1,64.8,14H83.17C84.29,14.42,84.75,15,84.62,16Z" fill="none" stroke="#fff" stroke-miterlimit="10" stroke-width="3"/>
  <path d="M7.75,53.09c3.17,0,6.33,0,9.5,0a2,2,0,0,0,1-.17A2,2,0,0,0,19,52a30,30,0,0,0,1.66-6.09L23,34.76a4.72,4.72,0,0,1,.84-2.14,1.64,1.64,0,0,1,2.07-.45,2.26,2.26,0,0,1,.71,1.09c2.93,7.31,3,15.47,5.3,23,.51,1.67,1.28,3.47,2.89,4.17a2.56,2.56,0,0,0,1.31.21,2.94,2.94,0,0,0,1.72-1c1.51-1.59,2.05-3.86,2.46-5.91s1.63-8,5.07-7.07c1.46.41,2.14,2.39,2.58,3.63.53,1.48.37,2.93,1.6,4,1.93,1.61,4.66,1.53,7.18,1.42,4.37-.19,8.68-1.22,13-1.86s8.57-.42,12.79-1.16" fill="none" stroke="#e5867b" stroke-linecap="round" stroke-linejoin="round" stroke-width="3"/>
</svg>
