<?xml version="1.0" encoding="UTF-8" standalone="no"?>
<!-- Generator: Adobe Illustrator 16.0.4, SVG Export Plug-In . SVG Version: 6.00 Build 0)  -->

<svg
   version="1.1"
   id="Layer_1"
   sodipodi:docname="ifttt-email.svg"
   inkscape:version="1.1.1 (3bf5ae0d25, 2021-09-20)"
   x="0px"
   y="0px"
   width="134.75478"
   height="33.152557"
   viewBox="0 0 134.75478 33.152557"
   enable-background="new 0 0 111 50"
   xml:space="preserve"
   xmlns:inkscape="http://www.inkscape.org/namespaces/inkscape"
   xmlns:sodipodi="http://sodipodi.sourceforge.net/DTD/sodipodi-0.dtd"
   xmlns="http://www.w3.org/2000/svg"
   xmlns:svg="http://www.w3.org/2000/svg"><defs
   id="defs868" />
<sodipodi:namedview
   inkscape:cy="1.875"
   inkscape:cx="107.875"
   inkscape:zoom="4.0000001"
   fit-margin-left="0"
   fit-margin-top="0"
   showgrid="false"
   guidetolerance="10"
   gridtolerance="10"
   objecttolerance="10"
   bordercolor="#666666"
   pagecolor="#ffffff"
   borderopacity="1"
   id="namedview61"
   inkscape:current-layer="Layer_1"
   inkscape:window-maximized="1"
   inkscape:window-y="-8"
   inkscape:window-x="-8"
   fit-margin-bottom="0"
   fit-margin-right="0"
   inkscape:window-height="1057"
   inkscape:window-width="1920"
   inkscape:pageshadow="2"
   inkscape:pageopacity="0"
   inkscape:pagecheckerboard="0">
	</sodipodi:namedview>
<rect
   id="rect7"
   x="0"
   y="6.008368"
   fill="#33CCFF"
   width="7"
   height="22"
   style="fill:#f9f9f9" />
<rect
   id="rect11"
   x="10"
   y="22.008368"
   fill="#33CCFF"
   width="7"
   height="6"
   style="fill:#f9f9f9" />
<rect
   id="rect15"
   x="10"
   y="13.008368"
   fill="#33CCFF"
   width="7"
   height="2"
   style="fill:#f9f9f9" />
<rect
   id="rect17"
   x="10"
   y="6.008368"
   width="7"
   height="7"
   style="fill:#f9f9f9" />
<rect
   id="rect19"
   x="17"
   y="6.008368"
   fill="#FF4400"
   width="9"
   height="7"
   style="fill:#f9f9f9" />
<rect
   id="rect25"
   x="33"
   y="13.008368"
   fill="#33CCFF"
   width="7"
   height="15"
   style="fill:#f9f9f9" />
<rect
   id="rect27"
   x="33"
   y="6.008368"
   width="7"
   height="7"
   style="fill:#f9f9f9" />
<rect
   id="rect29"
   x="28"
   y="6.008368"
   fill="#FF4400"
   width="5"
   height="7"
   style="fill:#f9f9f9" />
<rect
   id="rect31"
   x="40"
   y="6.008368"
   fill="#FF4400"
   width="5"
   height="7"
   style="fill:#f9f9f9" />
<rect
   id="rect37"
   x="52"
   y="13.008368"
   fill="#33CCFF"
   width="7"
   height="15"
   style="fill:#f9f9f9" />
<rect
   id="rect39"
   x="52"
   y="6.008368"
   width="7"
   height="7"
   style="fill:#f9f9f9" />
<rect
   id="rect41"
   x="47"
   y="6.008368"
   fill="#FF4400"
   width="5"
   height="7"
   style="fill:#f9f9f9" />
<rect
   id="rect43"
   x="59"
   y="6.008368"
   fill="#FF4400"
   width="5"
   height="7"
   style="fill:#f9f9f9" />
<rect
   id="rect49"
   x="71"
   y="13.008368"
   fill="#33CCFF"
   width="7"
   height="15"
   style="fill:#f9f9f9" />
<rect
   id="rect51"
   x="71"
   y="6.008368"
   width="7"
   height="7"
   style="fill:#f9f9f9" />
<rect
   id="rect53"
   x="66"
   y="6.008368"
   fill="#FF4400"
   width="5"
   height="7"
   style="fill:#f9f9f9" />
<rect
   id="rect55"
   x="78"
   y="6.008368"
   fill="#FF4400"
   width="5"
   height="7"
   style="fill:#f9f9f9" />
<rect
   id="rect57"
   x="10"
   y="15.008368"
   width="7"
   height="7"
   style="fill:#f9f9f9" />
<rect
   id="rect59"
   x="17"
   y="15.008368"
   fill="#FF4400"
   width="6"
   height="7"
   style="fill:#f9f9f9" />
<path
   style="fill:#f9f9f9;stroke-width:0.999999"
   d="m 100.85463,33.136189 c -0.0703,-0.01188 -0.24287,-0.05804 -0.38347,-0.102573 -1.06242,-0.336488 -1.82661,-1.129908 -2.15737,-2.239856 -0.0861,-0.288817 -0.0922,-0.838187 -0.10569,-9.382361 l -0.0143,-9.075582 0.11607,-0.230085 c 0.10871,-0.2155 0.3176,-0.364585 3.29545,-2.3519822 l 3.17939,-2.121896 0.0163,-1.210724 c 0.018,-1.346105 0.0207,-1.35657 0.3992,-1.61421 0.16786,-0.114249 0.18225,-0.115043 2.08455,-0.115043 h 1.91551 l 3.4328,-2.282624 c 1.88804,-1.2554432 3.51049,-2.31536339 3.60545,-2.35537879 0.36019,-0.1517722 0.36839,-0.1470943 4.06613,2.31726079 l 3.48184,2.320475 1.9226,1.53e-4 c 1.91036,1.53e-4 1.92371,8.47e-4 2.09633,0.115589 0.0956,0.0635 0.22551,0.217931 0.28879,0.343179 0.10876,0.21532 0.11511,0.289106 0.11649,1.354534 l 0.002,1.126809 3.1699,2.110029 c 2.3012,1.5317762 3.19753,2.1553192 3.27067,2.2752872 0.0993,0.162808 0.10077,0.300784 0.10096,9.310154 2e-4,10.211078 0.0293,9.40482 -0.36682,10.167534 -0.3575,0.688321 -1.05059,1.270013 -1.83158,1.537175 l -0.33235,0.113689 -15.62022,0.006 c -8.59113,0.0033 -15.67775,-0.0037 -15.74806,-0.01558 z m 31.38714,-1.745794 c 0.12287,-0.06555 0.2034,-0.137631 0.17896,-0.160177 -0.0245,-0.02255 -2.21873,-1.63535 -4.87622,-3.58401 -2.65748,-1.948662 -6.20783,-4.552534 -7.88965,-5.786385 -1.68182,-1.233851 -3.08846,-2.255109 -3.12586,-2.269463 -0.0374,-0.01435 -0.72063,0.45393 -1.51828,1.040627 -0.79765,0.586699 -4.34934,3.191494 -7.89266,5.788435 -3.54331,2.59694 -6.47401,4.750771 -6.51265,4.786291 -0.0585,0.05374 -0.0413,0.07954 0.10192,0.153629 0.0947,0.04898 0.22987,0.106666 0.30036,0.128201 0.0705,0.02153 7.07673,0.0353 15.56943,0.03059 l 15.44127,-0.0086 z m -24.10109,-7.755359 c 4.13386,-3.033552 7.64072,-5.603175 7.79302,-5.710273 0.2432,-0.17102 0.31281,-0.194724 0.57176,-0.194724 h 0.29484 l 7.58348,5.563365 c 4.17093,3.059851 7.83659,5.749781 8.14592,5.977624 l 0.56243,0.414259 0.0131,-3.910875 c 0.008,-2.150982 0.008,-5.659276 0,-7.796211 l -0.0131,-3.885335 -1.27825,0.93882 c -0.70303,0.516351 -2.8877,2.120758 -4.8548,3.56535 -1.96711,1.444591 -3.63522,2.657147 -3.70693,2.694568 -0.20743,0.108253 -0.5748,0.08607 -0.77472,-0.04679 -0.24432,-0.162372 -0.41828,-0.517689 -0.37924,-0.77465 0.0167,-0.109917 0.0686,-0.264602 0.11536,-0.343743 0.0478,-0.08098 1.01945,-0.830214 2.22225,-1.713625 l 2.13726,-1.569731 V 11.585552 6.3280378 h -10.07262 -10.07262 v 5.2624122 5.262413 l 2.11639,1.550665 c 1.17916,0.863958 2.16673,1.623803 2.23005,1.715819 0.22608,0.328515 0.12497,0.849553 -0.21388,1.102109 -0.15781,0.11763 -0.57067,0.170818 -0.75924,0.09782 -0.071,-0.02748 -1.12939,-0.784526 -2.35198,-1.682314 -1.2226,-0.897787 -3.40647,-2.501825 -4.85306,-3.564528 -1.44659,-1.062704 -2.6608,-1.943946 -2.69825,-1.958317 -0.0566,-0.02169 -0.0673,1.279452 -0.0633,7.662069 0.003,4.22851 0.0169,7.739175 0.0318,7.801481 0.0257,0.107488 0.0457,0.09946 0.39262,-0.156898 0.20108,-0.1486 3.74784,-2.752179 7.88171,-5.78573 z m 8.10411,-7.011059 c -1.05654,-0.0998 -2.0683,-0.442604 -2.72153,-0.922116 -0.61409,-0.450789 -1.13809,-1.264775 -1.37692,-2.13892 -0.16005,-0.585826 -0.16227,-1.912722 -0.004,-2.487293 0.51688,-1.8783672 1.76182,-3.0451042 3.62341,-3.3957782 0.62873,-0.118438 1.87654,-0.07906 2.41299,0.07615 1.06031,0.306764 1.8291,0.924693 2.26282,1.818784 0.28521,0.5879342 0.37231,0.9716022 0.37144,1.6361612 -8.5e-4,0.870238 -0.20655,1.475337 -0.7449,2.194195 -0.60241,0.804403 -1.52622,1.254866 -2.44574,1.192583 -0.37363,-0.02531 -0.57468,-0.127062 -0.68941,-0.348913 l -0.0737,-0.142577 -0.26131,0.17585 c -0.77003,0.518192 -1.72635,0.410397 -2.34279,-0.264076 -0.33692,-0.368652 -0.46441,-0.759492 -0.46441,-1.423759 0,-1.468184 0.9288,-2.8027672 2.11962,-3.0456602 0.574,-0.117081 1.07938,0.01199 1.44378,0.368736 l 0.21437,0.2098742 0.0332,-0.1483822 c 0.0789,-0.352364 0.0257,-0.327337 0.69742,-0.327337 0.61271,0 0.61552,5.52e-4 0.58751,0.115043 -0.2146,0.8772392 -0.75359,3.6469432 -0.72886,3.7454192 0.10985,0.437687 1.11108,-0.252396 1.50852,-1.039723 0.41406,-0.820229 0.4201,-1.832321 0.0154,-2.5861502 -0.18889,-0.351888 -0.68709,-0.839095 -1.05964,-1.036267 -1.31744,-0.697258 -3.37121,-0.488139 -4.4599,0.45412 -0.80263,0.694669 -1.2974,1.8423112 -1.3071,3.0318852 -0.006,0.66088 0.0731,1.0161 0.35337,1.599257 0.48091,1.000653 1.31438,1.558824 2.65298,1.776708 1.57086,0.255685 3.14006,-0.101888 3.96085,-0.902558 l 0.31088,-0.303245 0.45898,0.0074 c 0.25245,0.004 0.45899,0.0171 0.45899,0.02904 0,0.101696 -0.26232,0.484936 -0.52426,0.765935 -0.58176,0.624064 -1.3673,1.032226 -2.34598,1.218955 -0.43286,0.08259 -1.51391,0.136611 -1.93598,0.09674 z m 0.0404,-2.97986 c 0.49827,-0.256831 0.86139,-0.931507 0.99511,-1.848956 0.12609,-0.865162 -0.21416,-1.427847 -0.86342,-1.427847 -0.74844,0 -1.30372,0.783239 -1.43015,2.017251 -0.0611,0.597016 0.16229,1.165904 0.51389,1.308302 0.19135,0.0775 0.5874,0.05288 0.78457,-0.04875 z m -11.50553,-2.526159 -0.0136,-1.4990782 -2.13056,1.4096012 c -1.17181,0.775279 -2.12667,1.426522 -2.12189,1.447208 0.005,0.02069 0.96351,0.738988 2.13055,1.596229 l 2.1219,1.558622 0.0136,-1.506752 c 0.008,-0.828714 0.008,-2.181337 0,-3.00583 z m 25.70487,2.855623 c 1.06862,-0.782294 1.96287,-1.440136 1.98723,-1.461871 0.0244,-0.02174 -0.92473,-0.685816 -2.10911,-1.475736 l -2.15341,-1.4362162 v 3.0230432 3.023043 l 0.16617,-0.124954 c 0.0914,-0.06872 1.0405,-0.765014 2.10912,-1.547309 z m -9.74438,-9.3200492 c -0.003,-0.02109 -0.95635,-0.668298 -2.1202,-1.438238 l -2.11608,-1.3998904 -2.12271,1.3998904 c -1.1675,0.76994 -2.12312,1.417147 -2.12361,1.438238 -4.9e-4,0.02109 1.90881,0.03835 4.2429,0.03835 2.33409,0 4.24195,-0.01726 4.2397,-0.03835 z"
   id="path1182"
   sodipodi:nodetypes="sssscsscssscssscsssccsssssccssssssssssssscsssscsscsscssssssscccccccssssssscsssscsscssssssscssssscsssssssscsssccsssccsssssssscscscssssscccsssscssss" /></svg>
