<?xml version="1.0" encoding="UTF-8" standalone="no"?>
<!-- Generator: Adobe Illustrator 16.0.4, SVG Export Plug-In . SVG Version: 6.00 Build 0)  -->

<svg
   version="1.1"
   id="Layer_1"
   sodipodi:docname="ifttt_tweet_logo.svg"
   inkscape:version="1.1.1 (3bf5ae0d25, 2021-09-20)"
   x="0px"
   y="0px"
   width="134.75478"
   height="33.152557"
   viewBox="0 0 134.75478 33.152557"
   enable-background="new 0 0 111 50"
   xml:space="preserve"
   xmlns:inkscape="http://www.inkscape.org/namespaces/inkscape"
   xmlns:sodipodi="http://sodipodi.sourceforge.net/DTD/sodipodi-0.dtd"
   xmlns="http://www.w3.org/2000/svg"
   xmlns:svg="http://www.w3.org/2000/svg"><defs
   id="defs868" />
<sodipodi:namedview
   inkscape:cy="35.532116"
   inkscape:cx="51.795572"
   inkscape:zoom="2.8284271"
   fit-margin-left="0"
   fit-margin-top="0"
   showgrid="false"
   guidetolerance="10"
   gridtolerance="10"
   objecttolerance="10"
   bordercolor="#666666"
   pagecolor="#ffffff"
   borderopacity="1"
   id="namedview61"
   inkscape:current-layer="Layer_1"
   inkscape:window-maximized="1"
   inkscape:window-y="-8"
   inkscape:window-x="-8"
   fit-margin-bottom="0"
   fit-margin-right="0"
   inkscape:window-height="1057"
   inkscape:window-width="1920"
   inkscape:pageshadow="2"
   inkscape:pageopacity="0"
   inkscape:pagecheckerboard="0">
	</sodipodi:namedview>
<rect
   id="rect7"
   x="0"
   y="6.008368"
   fill="#33CCFF"
   width="7"
   height="22"
   style="fill:#f9f9f9" />
<rect
   id="rect11"
   x="10"
   y="22.008368"
   fill="#33CCFF"
   width="7"
   height="6"
   style="fill:#f9f9f9" />
<rect
   id="rect15"
   x="10"
   y="13.008368"
   fill="#33CCFF"
   width="7"
   height="2"
   style="fill:#f9f9f9" />
<rect
   id="rect17"
   x="10"
   y="6.008368"
   width="7"
   height="7"
   style="fill:#f9f9f9" />
<rect
   id="rect19"
   x="17"
   y="6.008368"
   fill="#FF4400"
   width="9"
   height="7"
   style="fill:#f9f9f9" />
<rect
   id="rect25"
   x="33"
   y="13.008368"
   fill="#33CCFF"
   width="7"
   height="15"
   style="fill:#f9f9f9" />
<rect
   id="rect27"
   x="33"
   y="6.008368"
   width="7"
   height="7"
   style="fill:#f9f9f9" />
<rect
   id="rect29"
   x="28"
   y="6.008368"
   fill="#FF4400"
   width="5"
   height="7"
   style="fill:#f9f9f9" />
<rect
   id="rect31"
   x="40"
   y="6.008368"
   fill="#FF4400"
   width="5"
   height="7"
   style="fill:#f9f9f9" />
<rect
   id="rect37"
   x="52"
   y="13.008368"
   fill="#33CCFF"
   width="7"
   height="15"
   style="fill:#f9f9f9" />
<rect
   id="rect39"
   x="52"
   y="6.008368"
   width="7"
   height="7"
   style="fill:#f9f9f9" />
<rect
   id="rect41"
   x="47"
   y="6.008368"
   fill="#FF4400"
   width="5"
   height="7"
   style="fill:#f9f9f9" />
<rect
   id="rect43"
   x="59"
   y="6.008368"
   fill="#FF4400"
   width="5"
   height="7"
   style="fill:#f9f9f9" />
<rect
   id="rect49"
   x="71"
   y="13.008368"
   fill="#33CCFF"
   width="7"
   height="15"
   style="fill:#f9f9f9" />
<rect
   id="rect51"
   x="71"
   y="6.008368"
   width="7"
   height="7"
   style="fill:#f9f9f9" />
<rect
   id="rect53"
   x="66"
   y="6.008368"
   fill="#FF4400"
   width="5"
   height="7"
   style="fill:#f9f9f9" />
<rect
   id="rect55"
   x="78"
   y="6.008368"
   fill="#FF4400"
   width="5"
   height="7"
   style="fill:#f9f9f9" />
<rect
   id="rect57"
   x="10"
   y="15.008368"
   width="7"
   height="7"
   style="fill:#f9f9f9" />
<rect
   id="rect59"
   x="17"
   y="15.008368"
   fill="#FF4400"
   width="6"
   height="7"
   style="fill:#f9f9f9" />
<path
   style="fill:#f9f9f9;stroke-width:0.999998;fill-opacity:1"
   d="m 102.16294,32.975538 c -2.734885,-0.381816 -5.96904,-1.472271 -8.357986,-2.818049 -1.249648,-0.703967 -1.71352,-1.240458 -1.369783,-1.584199 0.0869,-0.08696 1.294662,-0.192417 2.683775,-0.23435 1.8721,-0.05652 2.87641,-0.177495 3.881164,-0.467536 1.44877,-0.418224 3.97614,-1.55499 3.97614,-1.788405 0,-0.07752 -0.44155,-0.280119 -0.9812,-0.450234 -1.88109,-0.592956 -3.6603,-2.220429 -4.739286,-4.335087 -0.57423,-1.125444 -0.516846,-1.816599 0.157287,-1.894309 0.476009,-0.05487 0.454947,-0.09071 -0.673745,-1.146554 -1.759921,-1.646327 -2.927788,-4.283158 -2.765892,-6.244936 0.06677,-0.809437 0.509469,-0.970869 1.399794,-0.510468 0.304932,0.15769 0.554426,0.248033 0.554426,0.200761 0,-0.04726 -0.232947,-0.435677 -0.517668,-0.863124 C 94.695393,9.7662459 94.153434,8.2162506 94.019757,6.8630377 93.821151,4.8524546 94.769182,1.6736215 95.616053,1.51053 c 0.204859,-0.039454 0.871937,0.5069565 1.895277,1.5524607 2.250368,2.2991097 4.57675,3.8966917 7.44384,5.1118518 1.48586,0.6297509 4.07211,1.3313369 5.61442,1.5230447 l 0.99656,0.1238739 -0.0632,-0.7946101 c -0.15813,-1.9881657 0.89273,-4.7653978 2.39723,-6.335403 1.72545,-1.8005934 3.7735,-2.66058946 6.33609,-2.66058946 2.30033,0 3.55871,0.47386848 5.97703,2.25074156 0.2995,0.2200746 1.89749,-0.2673323 3.59101,-1.095308 1.41629,-0.69243835 1.59187,-0.72370267 1.91021,-0.34013216 0.27971,0.33704406 -0.0808,1.38223286 -0.90323,2.61863486 -0.29755,0.4473155 -0.46798,0.8378881 -0.37874,0.8679383 0.0893,0.030045 0.46443,-0.071616 0.83372,-0.2259164 2.44081,-1.0198327 1.98549,0.74195 -0.90013,3.483022 l -1.31096,1.2452813 -0.13035,1.787993 c -0.34378,4.716562 -1.65984,8.602204 -4.21351,12.440259 -3.43451,5.161957 -8.88374,8.695731 -15.03461,9.749776 -1.58847,0.272208 -6.03754,0.368185 -7.51378,0.16209 z"
   id="path893" /></svg>
