<?xml version="1.0" encoding="UTF-8" standalone="no"?>
<!-- Generator: Adobe Illustrator 16.0.4, SVG Export Plug-In . SVG Version: 6.00 Build 0)  -->

<svg
   version="1.1"
   id="Layer_1"
   sodipodi:docname="ifttt_telegram_logo.svg"
   inkscape:version="1.1.1 (3bf5ae0d25, 2021-09-20)"
   x="0px"
   y="0px"
   width="134.75478"
   height="33.152561"
   viewBox="0 0 134.75478 33.152561"
   enable-background="new 0 0 111 50"
   xml:space="preserve"
   xmlns:inkscape="http://www.inkscape.org/namespaces/inkscape"
   xmlns:sodipodi="http://sodipodi.sourceforge.net/DTD/sodipodi-0.dtd"
   xmlns="http://www.w3.org/2000/svg"
   xmlns:svg="http://www.w3.org/2000/svg"><defs
   id="defs868" />
<sodipodi:namedview
   inkscape:cy="15.125"
   inkscape:cx="71.625"
   inkscape:zoom="4"
   fit-margin-left="0"
   fit-margin-top="0"
   showgrid="false"
   guidetolerance="10"
   gridtolerance="10"
   objecttolerance="10"
   bordercolor="#666666"
   pagecolor="#ffffff"
   borderopacity="1"
   id="namedview61"
   inkscape:current-layer="Layer_1"
   inkscape:window-maximized="1"
   inkscape:window-y="-8"
   inkscape:window-x="-8"
   fit-margin-bottom="0"
   fit-margin-right="0"
   inkscape:window-height="1057"
   inkscape:window-width="1920"
   inkscape:pageshadow="2"
   inkscape:pageopacity="0"
   inkscape:pagecheckerboard="0">
	</sodipodi:namedview>
<rect
   id="rect7"
   x="0"
   y="6.008368"
   fill="#33CCFF"
   width="7"
   height="22"
   style="fill:#f9f9f9" />
<rect
   id="rect11"
   x="10"
   y="22.008368"
   fill="#33CCFF"
   width="7"
   height="6"
   style="fill:#f9f9f9" />
<rect
   id="rect15"
   x="10"
   y="13.008368"
   fill="#33CCFF"
   width="7"
   height="2"
   style="fill:#f9f9f9" />
<rect
   id="rect17"
   x="10"
   y="6.008368"
   width="7"
   height="7"
   style="fill:#f9f9f9" />
<rect
   id="rect19"
   x="17"
   y="6.008368"
   fill="#FF4400"
   width="9"
   height="7"
   style="fill:#f9f9f9" />
<rect
   id="rect25"
   x="33"
   y="13.008368"
   fill="#33CCFF"
   width="7"
   height="15"
   style="fill:#f9f9f9" />
<rect
   id="rect27"
   x="33"
   y="6.008368"
   width="7"
   height="7"
   style="fill:#f9f9f9" />
<rect
   id="rect29"
   x="28"
   y="6.008368"
   fill="#FF4400"
   width="5"
   height="7"
   style="fill:#f9f9f9" />
<rect
   id="rect31"
   x="40"
   y="6.008368"
   fill="#FF4400"
   width="5"
   height="7"
   style="fill:#f9f9f9" />
<rect
   id="rect37"
   x="52"
   y="13.008368"
   fill="#33CCFF"
   width="7"
   height="15"
   style="fill:#f9f9f9" />
<rect
   id="rect39"
   x="52"
   y="6.008368"
   width="7"
   height="7"
   style="fill:#f9f9f9" />
<rect
   id="rect41"
   x="47"
   y="6.008368"
   fill="#FF4400"
   width="5"
   height="7"
   style="fill:#f9f9f9" />
<rect
   id="rect43"
   x="59"
   y="6.008368"
   fill="#FF4400"
   width="5"
   height="7"
   style="fill:#f9f9f9" />
<rect
   id="rect49"
   x="71"
   y="13.008368"
   fill="#33CCFF"
   width="7"
   height="15"
   style="fill:#f9f9f9" />
<rect
   id="rect51"
   x="71"
   y="6.008368"
   width="7"
   height="7"
   style="fill:#f9f9f9" />
<rect
   id="rect53"
   x="66"
   y="6.008368"
   fill="#FF4400"
   width="5"
   height="7"
   style="fill:#f9f9f9" />
<rect
   id="rect55"
   x="78"
   y="6.008368"
   fill="#FF4400"
   width="5"
   height="7"
   style="fill:#f9f9f9" />
<rect
   id="rect57"
   x="10"
   y="15.008368"
   width="7"
   height="7"
   style="fill:#f9f9f9" />
<rect
   id="rect59"
   x="17"
   y="15.008368"
   fill="#FF4400"
   width="6"
   height="7"
   style="fill:#f9f9f9" />
<path
   style="fill:#f9f9f9;fill-opacity:1;stroke-width:1"
   d="m 114.5224,33.074519 c -5.26194,-0.496061 -10.12522,-3.683289 -12.78367,-8.37799 -2.695118,-4.759467 -2.822058,-10.619978 -0.33749,-15.5813482 2.22844,-4.449926 6.43382,-7.70606 11.31261,-8.75912497 4.18362,-0.903013 8.83585,-0.06339 12.38161,2.23459897 2.83302,1.836069 5.1272,4.567365 6.37932,7.5947932 2.49655,6.036259 1.2407,12.993931 -3.19612,17.707141 -3.59342,3.817281 -8.52524,5.675075 -13.75626,5.18193 z m 4.66888,-1.826913 c 5.2162,-1.127171 9.40852,-4.827294 11.13747,-9.82986 0.61715,-1.785691 0.74003,-2.5887 0.74003,-4.836503 0,-2.204784 -0.12084,-3.025935 -0.69945,-4.753149 -2.48778,-7.4263482 -10.33806,-11.70719517 -17.88734,-9.7541592 -2.61493,0.676494 -4.93438,2.007059 -6.86196,3.936396 -2.0612,2.063077 -3.47478,4.6682242 -4.10035,7.5566632 -0.23344,1.077885 -0.32804,3.741182 -0.17459,4.915544 0.86193,6.596454 5.94688,11.813527 12.57446,12.901184 1.15669,0.189825 4.11711,0.113386 5.27173,-0.136116 z m 0.59745,-5.957824 c -0.42864,-0.06555 -0.81381,-0.334835 -4.10829,-2.87222 -0.0544,-0.04192 -0.58192,0.372584 -1.25207,0.983835 -1.17644,1.073038 -1.43743,1.221425 -1.95025,1.10879 -0.60674,-0.133263 -0.66948,-0.272705 -1.83178,-4.071312 l -0.45139,-1.475268 -1.94029,-0.657893 c -2.06629,-0.700615 -2.48849,-0.921796 -2.69276,-1.410668 -0.29169,-0.69814 -0.0327,-1.280433 0.73408,-1.650469 0.73233,-0.3534 16.10098,-6.3760232 16.53765,-6.4807212 0.82234,-0.197171 1.49268,0.156216 1.58371,0.8349 0.0388,0.2886849 -0.31694,2.2600322 -1.36373,7.5586642 -1.21329,6.141468 -1.44832,7.21157 -1.64097,7.471457 -0.41982,0.566316 -0.91763,0.768918 -1.62391,0.660905 z m 0.55929,-1.314282 c 0.12467,-0.150198 2.84709,-13.870083 2.76794,-13.949228 -0.0323,-0.03236 -2.4278,0.872549 -5.32322,2.010897 -2.8954,1.138347 -6.54817,2.57306 -8.11723,3.18825 -1.56906,0.61519 -2.83945,1.158733 -2.82307,1.207873 0.0164,0.04914 0.87116,0.370183 1.89949,0.713428 l 1.86972,0.624079 3.87486,-2.457898 c 2.13117,-1.351842 4.25833,-2.708436 4.72703,-3.01465 0.46868,-0.306215 0.99532,-0.589044 1.1703,-0.628507 0.36904,-0.08323 0.83917,0.07718 0.93152,0.317839 0.11173,0.291145 0.0614,0.769177 -0.10205,0.968538 -0.0893,0.108911 -1.72617,1.605804 -3.63755,3.326431 -1.91138,1.720626 -3.47648,3.16816 -3.47798,3.216743 -0.002,0.04858 0.75263,0.6744 1.67587,1.39071 4.46031,3.460625 4.32753,3.37087 4.56437,3.085495 z m -6.3951,-1.841623 c 0.28771,-0.261725 0.53482,-0.505557 0.54915,-0.541848 0.0275,-0.06956 -0.79786,-0.744464 -0.91037,-0.744464 -0.0361,0 -0.0945,0.302584 -0.12992,0.672409 -0.0354,0.369825 -0.0871,0.766315 -0.11479,0.881088 -0.0737,0.305239 0.0241,0.262111 0.60593,-0.267185 z"
   id="path3802" /></svg>
