<?xml version="1.0" encoding="UTF-8" standalone="no"?>
<!-- Generator: Adobe Illustrator 16.0.4, SVG Export Plug-In . SVG Version: 6.00 Build 0)  -->

<svg
   version="1.1"
   id="Layer_1"
   sodipodi:docname="ifttt-smsl.svg"
   inkscape:version="1.1.1 (3bf5ae0d25, 2021-09-20)"
   x="0px"
   y="0px"
   width="134.43541"
   height="33.153229"
   viewBox="0 0 134.43541 33.153228"
   enable-background="new 0 0 111 50"
   xml:space="preserve"
   xmlns:inkscape="http://www.inkscape.org/namespaces/inkscape"
   xmlns:sodipodi="http://sodipodi.sourceforge.net/DTD/sodipodi-0.dtd"
   xmlns="http://www.w3.org/2000/svg"
   xmlns:svg="http://www.w3.org/2000/svg"><defs
   id="defs868" />
<sodipodi:namedview
   inkscape:cy="37.124999"
   inkscape:cx="101.875"
   inkscape:zoom="4.0000001"
   fit-margin-left="0"
   fit-margin-top="0"
   showgrid="false"
   guidetolerance="10"
   gridtolerance="10"
   objecttolerance="10"
   bordercolor="#666666"
   pagecolor="#ffffff"
   borderopacity="1"
   id="namedview61"
   inkscape:current-layer="Layer_1"
   inkscape:window-maximized="1"
   inkscape:window-y="-8"
   inkscape:window-x="-8"
   fit-margin-bottom="0"
   fit-margin-right="0"
   inkscape:window-height="1057"
   inkscape:window-width="1920"
   inkscape:pageshadow="2"
   inkscape:pageopacity="0"
   inkscape:pagecheckerboard="0">
	</sodipodi:namedview>



















<g
   id="g19550"
   transform="translate(0,-0.34808578)"><rect
     id="rect7"
     x="0"
     y="6.008368"
     fill="#33CCFF"
     width="7"
     height="22"
     style="fill:#f9f9f9" /><rect
     id="rect11"
     x="10"
     y="22.008368"
     fill="#33CCFF"
     width="7"
     height="6"
     style="fill:#f9f9f9" /><rect
     id="rect15"
     x="10"
     y="13.008368"
     fill="#33CCFF"
     width="7"
     height="2"
     style="fill:#f9f9f9" /><rect
     id="rect17"
     x="10"
     y="6.008368"
     width="7"
     height="7"
     style="fill:#f9f9f9" /><rect
     id="rect19"
     x="17"
     y="6.008368"
     fill="#FF4400"
     width="9"
     height="7"
     style="fill:#f9f9f9" /><rect
     id="rect25"
     x="33"
     y="13.008368"
     fill="#33CCFF"
     width="7"
     height="15"
     style="fill:#f9f9f9" /><rect
     id="rect27"
     x="33"
     y="6.008368"
     width="7"
     height="7"
     style="fill:#f9f9f9" /><rect
     id="rect29"
     x="28"
     y="6.008368"
     fill="#FF4400"
     width="5"
     height="7"
     style="fill:#f9f9f9" /><rect
     id="rect31"
     x="40"
     y="6.008368"
     fill="#FF4400"
     width="5"
     height="7"
     style="fill:#f9f9f9" /><rect
     id="rect37"
     x="52"
     y="13.008368"
     fill="#33CCFF"
     width="7"
     height="15"
     style="fill:#f9f9f9" /><rect
     id="rect39"
     x="52"
     y="6.008368"
     width="7"
     height="7"
     style="fill:#f9f9f9" /><rect
     id="rect41"
     x="47"
     y="6.008368"
     fill="#FF4400"
     width="5"
     height="7"
     style="fill:#f9f9f9" /><rect
     id="rect43"
     x="59"
     y="6.008368"
     fill="#FF4400"
     width="5"
     height="7"
     style="fill:#f9f9f9" /><rect
     id="rect49"
     x="71"
     y="13.008368"
     fill="#33CCFF"
     width="7"
     height="15"
     style="fill:#f9f9f9" /><rect
     id="rect51"
     x="71"
     y="6.008368"
     width="7"
     height="7"
     style="fill:#f9f9f9" /><rect
     id="rect53"
     x="66"
     y="6.008368"
     fill="#FF4400"
     width="5"
     height="7"
     style="fill:#f9f9f9" /><rect
     id="rect55"
     x="78"
     y="6.008368"
     fill="#FF4400"
     width="5"
     height="7"
     style="fill:#f9f9f9" /><rect
     id="rect57"
     x="10"
     y="15.008368"
     width="7"
     height="7"
     style="fill:#f9f9f9" /><rect
     id="rect59"
     x="17"
     y="15.008368"
     fill="#FF4400"
     width="6"
     height="7"
     style="fill:#f9f9f9" /><g
     id="g3978"
     transform="matrix(0.99121399,0,0,0.9911995,-53.671737,-2.121075)"
     style="stroke-width:1.00887"><path
       style="fill:none;fill-rule:evenodd;stroke:#f9f9f9;stroke-width:1.90677;stroke-linecap:square;stroke-linejoin:round;stroke-miterlimit:4;stroke-dasharray:none;stroke-opacity:1;paint-order:fill markers stroke"
       d="m 162.67748,34.833774 c 0.11022,-0.3553 1.52542,-6.23258 1.58226,-6.571079 l 0.0621,-0.370146 -0.99732,-0.6474 c -4.29065,-2.785246 -6.52986,-6.661693 -6.35699,-11.004985 0.0899,-2.257656 0.69916,-4.100512 2.00742,-6.071614 0.79769,-1.2018378 2.54751,-2.9213028 3.84204,-3.7753778 2.24661,-1.482231 4.56027,-2.382399 7.18986,-2.797332 1.15286,-0.181913 4.97309,-0.153769 6.09082,0.04487 1.85445,0.329572 3.40913,0.845471 5.0644,1.680556 3.51121,1.771394 6.17364,4.7269438 7.19533,7.9874708 0.46644,2.439678 0.76681,4.351231 -0.006,6.657018 -0.59191,1.736948 -1.23771,2.899564 -2.35573,4.240976 -2.25505,2.705607 -5.42916,4.507264 -9.50375,5.394417 -1.36522,0.297246 -3.75537,0.389154 -5.61909,0.216069 l -1.19219,-0.110718 -3.45385,2.638548 c -1.89962,1.451203 -3.4861,2.63935 -3.52552,2.640327 -0.0394,9.82e-4 -0.0502,-0.06724 -0.0241,-0.151602 z"
       id="path2585"
       sodipodi:nodetypes="cscsssssssccssscsscc" /><path
       d="m 167.92788,19.202532 c 0.39421,-0.155006 0.52585,-0.264461 0.74512,-0.619581 0.23253,-0.376569 0.26634,-0.51199 0.26634,-1.066917 0,-0.992324 -0.33798,-1.330246 -1.78046,-1.780157 -0.46715,-0.145709 -0.93322,-0.324306 -1.0357,-0.396881 -0.70611,-0.500106 0.25827,-1.219691 1.00654,-0.751039 0.16185,0.101364 0.31437,0.261197 0.33896,0.355186 0.0393,0.150297 0.12407,0.170891 0.7034,0.170891 h 0.65871 l -0.0504,-0.310355 c -0.0762,-0.469253 -0.38034,-0.891321 -0.8349,-1.158487 -0.37588,-0.220926 -0.48279,-0.240176 -1.3292,-0.239337 -1.10979,0.0011 -1.44691,0.133056 -1.83446,0.718045 -0.34663,0.523218 -0.42346,1.053984 -0.22703,1.568263 0.18402,0.481739 0.54809,0.741003 1.40403,0.999832 0.91172,0.275698 1.5274,0.599926 1.58653,0.835496 0.068,0.270621 -0.0895,0.535811 -0.41928,0.706324 -0.51093,0.264165 -1.12402,0.0089 -1.44082,-0.599967 -0.11324,-0.217638 -0.17128,-0.241026 -0.59813,-0.241026 -0.53293,0 -0.75027,0.0599 -0.74955,0.206579 0.001,0.29345 0.21661,0.798998 0.45622,1.071843 0.69391,0.790184 1.9389,1.001236 3.13405,0.531288 z m 13.81244,0.07202 c 0.75338,-0.209203 1.19993,-0.856949 1.20836,-1.752808 0.009,-0.973103 -0.44943,-1.41358 -1.86825,-1.794518 -0.88028,-0.236341 -1.28582,-0.54329 -1.19513,-0.904568 0.13118,-0.522585 1.22853,-0.498429 1.53121,0.03371 0.0986,0.173378 0.24016,0.2746 0.43585,0.311709 0.28646,0.05432 0.87133,-0.0025 0.96236,-0.09355 0.095,-0.09502 -0.17952,-0.800534 -0.40556,-1.042177 -0.4609,-0.492705 -0.8455,-0.625798 -1.81087,-0.62664 -0.71973,-6.13e-4 -0.93937,0.032 -1.22726,0.182332 -0.51949,0.271263 -0.83782,0.773501 -0.88919,1.402888 -0.0784,0.961066 0.29696,1.349991 1.73376,1.796292 1.03373,0.321099 1.30313,0.508219 1.30313,0.905139 0,0.410583 -0.25626,0.610631 -0.78222,0.610631 -0.51735,0 -0.83709,-0.191584 -1.0099,-0.605129 -0.12353,-0.295569 -0.14237,-0.305038 -0.60692,-0.305038 -0.6289,0 -0.75717,0.05745 -0.75484,0.338048 0.005,0.551827 0.45472,1.153481 1.11983,1.49678 0.53055,0.273841 1.37514,0.291402 2.25564,0.0469 z m -10.65328,-0.03923 c 0.10829,-0.06838 0.13922,-0.431245 0.17532,-2.05677 l 0.0438,-1.973746 0.26299,-0.262481 c 0.37273,-0.37202 0.73818,-0.427107 1.05066,-0.158375 0.22289,0.191687 0.25303,0.286856 0.31488,0.99411 0.0377,0.430171 0.0712,1.403319 0.0746,2.16255 l 0.006,1.380419 h 0.65746 0.65746 l 7e-4,-1.55571 c 7e-4,-2.013025 0.0912,-2.614715 0.44106,-2.936131 0.28085,-0.258045 0.4643,-0.292154 0.82789,-0.153938 0.42061,0.159902 0.48357,0.500682 0.48357,2.617736 0,2.192803 -0.0687,2.028043 0.84622,2.028043 h 0.5689 l -0.0282,-2.388344 c -0.0272,-2.306612 -0.0351,-2.400395 -0.2301,-2.740435 -0.30112,-0.525087 -0.71943,-0.773474 -1.37268,-0.815062 -0.60594,-0.03858 -0.88583,0.06503 -1.40357,0.519527 l -0.30686,0.269375 -0.23811,-0.282932 c -0.57652,-0.685032 -1.6729,-0.708864 -2.45049,-0.05327 -0.3525,0.297206 -0.41052,0.292326 -0.36312,-0.03054 l 0.0386,-0.262937 h -0.64228 -0.64227 v 2.833877 c 0,1.558633 0.0263,2.860172 0.0584,2.892309 0.0889,0.08885 1.01929,0.06714 1.16882,-0.02728 z"
       style="fill:#f9f9f9;fill-opacity:1;fill-rule:evenodd;stroke:none;stroke-width:0.381306;stroke-linecap:square;stroke-linejoin:round;stroke-miterlimit:4;stroke-dasharray:none;paint-order:fill markers stroke"
       id="path3636" /></g></g></svg>
