<svg id="Componentes" xmlns="http://www.w3.org/2000/svg" viewBox="0 0 200 200">
  <title>neopixel2</title>
  <path d="M100,4a96,96,0,1,0,96,96A96,96,0,0,0,100,4Zm0,162.5A66.5,66.5,0,1,1,166.5,100,66.5,66.5,0,0,1,100,166.5Z" fill="#1d1d1b" stroke="#1d1d1b" stroke-miterlimit="10" stroke-width="1.2"/>
  <g>
    <g>
      <rect x="110.45" y="10.18" width="1.65" height="7.65" rx="0.83" ry="0.83" fill="#3d3d3b"/>
      <rect x="110.45" y="20.92" width="1.65" height="7.65" rx="0.83" ry="0.83" fill="#3d3d3b"/>
    </g>
    <rect x="87.9" y="7.75" width="23.25" height="23.25" rx="1.59" ry="1.59" fill="#474b4b" stroke="#474b4b" stroke-miterlimit="10" stroke-width="0.5"/>
    <path d="M108.43,31H90.61a2.71,2.71,0,0,1-2.71-2.72V11.67a2.69,2.69,0,0,1,.82-1.95l1.22-1.2a2.75,2.75,0,0,1,1.9-.77h16.59a2.72,2.72,0,0,1,2.72,2.72V28.28A2.72,2.72,0,0,1,108.43,31Z" fill="#b9bcc2"/>
    <path d="M109.56,19.38a10,10,0,0,1-8.66,9.94,10.43,10.43,0,0,1-1.38.09,9.87,9.87,0,0,1-1.22-.07h0a10,10,0,0,1-7-4.28,9.94,9.94,0,0,1-1.77-5.68,10.06,10.06,0,0,1,9.27-10c.26,0,.51,0,.77,0a10.43,10.43,0,0,1,1.38.09,10,10,0,0,1,8.66,10Z" fill="#9a9ea4" stroke="#fff" stroke-miterlimit="10" stroke-width="0.5"/>
    <path d="M98.76,9.44V22.75a.57.57,0,0,1-.57.57H95a.57.57,0,0,1-.57-.57v-12a10.05,10.05,0,0,1,4.28-1.34S98.76,9.41,98.76,9.44Z" fill="#474b4b"/>
    <path d="M105.19,11.09v4.55a.58.58,0,0,1-.57.57h-3.15a.58.58,0,0,1-.57-.57V9.43A10,10,0,0,1,105.19,11.09Z" fill="#474b4b"/>
    <path d="M105.19,19.09v8.57a10,10,0,0,1-4.29,1.66V19.09a.58.58,0,0,1,.57-.57h3.15A.58.58,0,0,1,105.19,19.09Z" fill="#474b4b"/>
    <path d="M98.76,25.63v3.15a.58.58,0,0,1-.46.56h0a10,10,0,0,1-7-4.28h6.94A.58.58,0,0,1,98.76,25.63Z" fill="#474b4b"/>
  </g>
  <g>
    <g>
      <rect x="152.15" y="27.57" width="1.65" height="7.65" rx="0.83" ry="0.83" transform="translate(36.19 -72.28) rotate(30)" fill="#3d3d3b"/>
      <rect x="146.77" y="36.88" width="1.65" height="7.65" rx="0.83" ry="0.83" transform="translate(40.13 -68.35) rotate(30)" fill="#3d3d3b"/>
    </g>
    <rect x="128.48" y="18.55" width="23.25" height="23.25" rx="1.59" ry="1.59" transform="translate(33.86 -66.01) rotate(30)" fill="#474b4b" stroke="#474b4b" stroke-miterlimit="10" stroke-width="0.5"/>
    <path d="M142,44.69l-15.42-8.9a2.73,2.73,0,0,1-1-3.72l8.31-14.39a2.73,2.73,0,0,1,1.68-1.27l1.67-.43a2.77,2.77,0,0,1,2,.28l14.36,8.3a2.71,2.71,0,0,1,1,3.71l-8.9,15.43A2.73,2.73,0,0,1,142,44.69Z" fill="#b9bcc2"/>
    <path d="M148.8,35.19a10,10,0,0,1-12.47,4.28,11,11,0,0,1-1.25-.6c-.35-.21-.69-.44-1-.68h0a10,10,0,0,1,6-18.06,9.85,9.85,0,0,1,4.37,1c.23.11.46.23.68.36a9.22,9.22,0,0,1,1.15.77,10,10,0,0,1,2.53,12.94Z" fill="#9a9ea4" stroke="#fff" stroke-miterlimit="10" stroke-width="0.5"/>
    <path d="M144.41,21.18l-6.66,11.53a.56.56,0,0,1-.78.21l-2.72-1.57a.57.57,0,0,1-.21-.78l6-10.44a9.85,9.85,0,0,1,4.37,1Z" fill="#474b4b"/>
    <path d="M149.16,25.83l-2.28,3.94a.58.58,0,0,1-.78.21l-2.72-1.58a.57.57,0,0,1-.21-.78l3.1-5.37A10,10,0,0,1,149.16,25.83Z" fill="#474b4b"/>
    <path d="M145.15,32.76l-4.28,7.42a9.92,9.92,0,0,1-4.54-.71l5.11-8.86a.57.57,0,0,1,.78-.2L145,32A.57.57,0,0,1,145.15,32.76Z" fill="#474b4b"/>
    <path d="M136.31,35.21l-1.57,2.72a.58.58,0,0,1-.68.26h0a10.09,10.09,0,0,1-4-7.23l6,3.47A.56.56,0,0,1,136.31,35.21Z" fill="#474b4b"/>
  </g>
  <g>
    <g>
      <rect x="179.56" y="63.48" width="1.65" height="7.65" rx="0.83" ry="0.83" transform="translate(148.48 -122.56) rotate(60)" fill="#3d3d3b"/>
      <rect x="170.25" y="68.85" width="1.65" height="7.65" rx="0.83" ry="0.83" transform="translate(148.48 -111.82) rotate(60)" fill="#3d3d3b"/>
    </g>
    <rect x="158.23" y="48.19" width="23.25" height="23.25" rx="1.59" ry="1.59" transform="translate(136.72 -117.19) rotate(60)" fill="#474b4b" stroke="#474b4b" stroke-miterlimit="10" stroke-width="0.5"/>
    <path d="M164.24,73.34l-8.91-15.43a2.71,2.71,0,0,1,1-3.71l14.39-8.31a2.71,2.71,0,0,1,2.1-.26l1.65.46a2.72,2.72,0,0,1,1.62,1.26l8.29,14.36a2.73,2.73,0,0,1-1,3.72L168,74.33A2.71,2.71,0,0,1,164.24,73.34Z" fill="#b9bcc2"/>
    <path d="M174.87,68.51a10,10,0,0,1-9.36.35A9.83,9.83,0,0,1,161.93,66a9.22,9.22,0,0,1-.77-1.15,10.12,10.12,0,0,1-.55-1.09h0a10,10,0,0,1,17.52-9.6c.15.21.28.43.41.65a9,9,0,0,1,.61,1.25,10,10,0,0,1-4.28,12.47Z" fill="#9a9ea4" stroke="#fff" stroke-miterlimit="10" stroke-width="0.5"/>
    <path d="M178.07,54.18l-11.53,6.66a.56.56,0,0,1-.77-.21l-1.58-2.73a.57.57,0,0,1,.21-.78l10.44-6a9.93,9.93,0,0,1,3.29,3A.15.15,0,0,1,178.07,54.18Z" fill="#474b4b"/>
    <path d="M179.86,60.58l-3.94,2.27a.57.57,0,0,1-.78-.21l-1.57-2.72a.57.57,0,0,1,.21-.78l5.37-3.1A9.92,9.92,0,0,1,179.86,60.58Z" fill="#474b4b"/>
    <path d="M172.93,64.58l-7.42,4.28A9.83,9.83,0,0,1,161.93,66l8.86-5.11a.57.57,0,0,1,.78.2l1.57,2.73A.57.57,0,0,1,172.93,64.58Z" fill="#474b4b"/>
    <path d="M164.05,62.28l-2.73,1.57a.57.57,0,0,1-.71-.11h0a10,10,0,0,1,.18-8.25l3.47,6A.57.57,0,0,1,164.05,62.28Z" fill="#474b4b"/>
  </g>
  <g>
    <g>
      <rect x="185.34" y="108.29" width="1.65" height="7.65" rx="0.83" ry="0.83" transform="translate(298.28 -74.05) rotate(90)" fill="#3d3d3b"/>
      <rect x="174.59" y="108.29" width="1.65" height="7.65" rx="0.83" ry="0.83" transform="translate(287.53 -63.31) rotate(90)" fill="#3d3d3b"/>
    </g>
    <rect x="169.17" y="88.73" width="23.25" height="23.25" rx="1.59" ry="1.59" transform="translate(281.15 -80.44) rotate(90)" fill="#474b4b" stroke="#474b4b" stroke-miterlimit="10" stroke-width="0.5"/>
    <path d="M169.17,109.26V91.45a2.72,2.72,0,0,1,2.72-2.72H188.5a2.75,2.75,0,0,1,1.95.82l1.19,1.23a2.69,2.69,0,0,1,.78,1.9v16.58A2.72,2.72,0,0,1,189.7,112H171.89A2.72,2.72,0,0,1,169.17,109.26Z" fill="#b9bcc2"/>
    <path d="M180.79,110.39a10,10,0,0,1-9.94-8.65,9.06,9.06,0,0,1-.1-1.38,9.9,9.9,0,0,1,.08-1.23h0a10,10,0,0,1,20,.46c0,.25,0,.51,0,.77a10.54,10.54,0,0,1-.09,1.38,10,10,0,0,1-10,8.65Z" fill="#9a9ea4" stroke="#fff" stroke-miterlimit="10" stroke-width="0.5"/>
    <path d="M190.73,99.59H177.41a.58.58,0,0,1-.57-.57V95.87a.58.58,0,0,1,.57-.57h12.06a10,10,0,0,1,1.33,4.29Z" fill="#474b4b"/>
    <path d="M189.08,106h-4.55a.57.57,0,0,1-.57-.57v-3.14a.57.57,0,0,1,.57-.57h6.21A10,10,0,0,1,189.08,106Z" fill="#474b4b"/>
    <path d="M181.08,106H172.5a10,10,0,0,1-1.65-4.28h10.23a.57.57,0,0,1,.57.57v3.14A.57.57,0,0,1,181.08,106Z" fill="#474b4b"/>
    <path d="M174.53,99.59h-3.14a.57.57,0,0,1-.56-.46h0a10,10,0,0,1,4.27-7V99A.57.57,0,0,1,174.53,99.59Z" fill="#474b4b"/>
  </g>
  <g>
    <g>
      <rect x="167.94" y="149.98" width="1.65" height="7.65" rx="0.83" ry="0.83" transform="translate(386.35 84.55) rotate(120)" fill="#3d3d3b"/>
      <rect x="158.64" y="144.61" width="1.65" height="7.65" rx="0.83" ry="0.83" transform="translate(367.74 84.55) rotate(120)" fill="#3d3d3b"/>
    </g>
    <rect x="158.37" y="129.31" width="23.25" height="23.25" rx="1.59" ry="1.59" transform="translate(377.05 64.18) rotate(120)" fill="#474b4b" stroke="#474b4b" stroke-miterlimit="10" stroke-width="0.5"/>
    <path d="M155.48,142.84l8.9-15.43a2.71,2.71,0,0,1,3.72-1l14.38,8.3a2.73,2.73,0,0,1,1.28,1.69l.42,1.66a2.67,2.67,0,0,1-.28,2l-8.29,14.36a2.72,2.72,0,0,1-3.71,1l-15.43-8.91A2.7,2.7,0,0,1,155.48,142.84Z" fill="#b9bcc2"/>
    <path d="M165,149.63a10,10,0,0,1-4.29-12.47,10.17,10.17,0,0,1,.61-1.24,9,9,0,0,1,.68-1h0a10,10,0,0,1,18.06,6,10.2,10.2,0,0,1-1,4.38c-.11.23-.23.45-.36.68a10,10,0,0,1-.77,1.15A10,10,0,0,1,165,149.63Z" fill="#9a9ea4" stroke="#fff" stroke-miterlimit="10" stroke-width="0.5"/>
    <path d="M179,145.24l-11.53-6.65a.58.58,0,0,1-.21-.78l1.58-2.73a.58.58,0,0,1,.78-.21l10.44,6a10.2,10.2,0,0,1-1,4.38Z" fill="#474b4b"/>
    <path d="M174.34,150l-3.94-2.28a.56.56,0,0,1-.21-.77l1.57-2.73a.58.58,0,0,1,.78-.21l5.38,3.11A10.12,10.12,0,0,1,174.34,150Z" fill="#474b4b"/>
    <path d="M167.41,146,160,141.7a10.08,10.08,0,0,1,.71-4.54l8.86,5.12a.56.56,0,0,1,.21.77l-1.57,2.73A.58.58,0,0,1,167.41,146Z" fill="#474b4b"/>
    <path d="M165,137.15l-2.73-1.58a.55.55,0,0,1-.25-.67h0a10,10,0,0,1,7.23-4l-3.47,6A.58.58,0,0,1,165,137.15Z" fill="#474b4b"/>
  </g>
  <g>
    <g>
      <rect x="132.03" y="177.39" width="1.65" height="7.65" rx="0.83" ry="0.83" transform="translate(338.53 271.72) rotate(150)" fill="#3d3d3b"/>
      <rect x="126.66" y="168.08" width="1.65" height="7.65" rx="0.83" ry="0.83" transform="translate(323.85 257.05) rotate(150)" fill="#3d3d3b"/>
    </g>
    <rect x="128.73" y="159.06" width="23.25" height="23.25" rx="1.59" ry="1.59" transform="translate(347.25 248.32) rotate(150)" fill="#474b4b" stroke="#474b4b" stroke-miterlimit="10" stroke-width="0.5"/>
    <path d="M126.83,165.07l15.43-8.91a2.72,2.72,0,0,1,3.71,1l8.31,14.39a2.73,2.73,0,0,1,.26,2.09l-.46,1.65a2.74,2.74,0,0,1-1.26,1.62l-14.37,8.29a2.71,2.71,0,0,1-3.71-1l-8.91-15.43A2.72,2.72,0,0,1,126.83,165.07Z" fill="#b9bcc2"/>
    <path d="M131.66,175.7a10,10,0,0,1,2.53-12.94,9.9,9.9,0,0,1,1.14-.77,10.26,10.26,0,0,1,1.1-.55h0A10,10,0,0,1,146,179c-.21.14-.43.28-.66.41a10.17,10.17,0,0,1-1.24.61,10.06,10.06,0,0,1-12.47-4.29Z" fill="#9a9ea4" stroke="#fff" stroke-miterlimit="10" stroke-width="0.5"/>
    <path d="M146,178.91l-6.65-11.53a.56.56,0,0,1,.21-.78l2.72-1.58a.58.58,0,0,1,.78.21l6,10.44a10.06,10.06,0,0,1-3,3.3Z" fill="#474b4b"/>
    <path d="M139.59,180.69l-2.27-3.93a.57.57,0,0,1,.2-.78l2.73-1.58a.58.58,0,0,1,.78.21l3.1,5.38A9.93,9.93,0,0,1,139.59,180.69Z" fill="#474b4b"/>
    <path d="M135.59,173.76l-4.29-7.42a10,10,0,0,1,2.89-3.58l5.11,8.86a.57.57,0,0,1-.21.78L136.37,174A.56.56,0,0,1,135.59,173.76Z" fill="#474b4b"/>
    <path d="M137.89,164.88l-1.58-2.72a.59.59,0,0,1,.12-.72h0a10.09,10.09,0,0,1,8.25.18l-6,3.47A.57.57,0,0,1,137.89,164.88Z" fill="#474b4b"/>
  </g>
  <g>
    <g>
      <rect x="87.23" y="183.17" width="1.65" height="7.65" rx="0.83" ry="0.83" transform="translate(176.11 373.99) rotate(180)" fill="#3d3d3b"/>
      <rect x="87.23" y="172.43" width="1.65" height="7.65" rx="0.83" ry="0.83" transform="translate(176.11 352.51) rotate(-180)" fill="#3d3d3b"/>
    </g>
    <rect x="88.19" y="170" width="23.25" height="23.25" rx="1.59" ry="1.59" transform="translate(199.62 363.25) rotate(180)" fill="#474b4b" stroke="#474b4b" stroke-miterlimit="10" stroke-width="0.5"/>
    <path d="M90.91,170h17.81a2.72,2.72,0,0,1,2.72,2.72v16.61a2.73,2.73,0,0,1-.82,1.95l-1.23,1.2a2.75,2.75,0,0,1-1.9.77H90.91a2.72,2.72,0,0,1-2.72-2.72V172.72A2.72,2.72,0,0,1,90.91,170Z" fill="#b9bcc2"/>
    <path d="M89.77,181.63a10,10,0,0,1,8.66-9.95,10.43,10.43,0,0,1,1.38-.09,9.87,9.87,0,0,1,1.22.07h0a10,10,0,0,1-.45,20c-.25,0-.51,0-.77,0a10.43,10.43,0,0,1-1.38-.09,10,10,0,0,1-8.66-9.94Z" fill="#9a9ea4" stroke="#fff" stroke-miterlimit="10" stroke-width="0.5"/>
    <path d="M100.58,191.56V178.25a.56.56,0,0,1,.57-.57h3.14a.56.56,0,0,1,.57.57V190.3a10.05,10.05,0,0,1-4.28,1.34Z" fill="#474b4b"/>
    <path d="M94.14,189.91v-4.55a.58.58,0,0,1,.57-.57h3.15a.58.58,0,0,1,.57.57v6.21A10.08,10.08,0,0,1,94.14,189.91Z" fill="#474b4b"/>
    <path d="M94.14,181.91v-8.57a10.08,10.08,0,0,1,4.29-1.66v10.23a.58.58,0,0,1-.57.57H94.71A.58.58,0,0,1,94.14,181.91Z" fill="#474b4b"/>
    <path d="M100.58,175.37v-3.15a.57.57,0,0,1,.45-.56h0a10.06,10.06,0,0,1,7.06,4.28h-6.94A.57.57,0,0,1,100.58,175.37Z" fill="#474b4b"/>
  </g>
  <g>
    <g>
      <rect x="45.54" y="165.78" width="1.65" height="7.65" rx="0.83" ry="0.83" transform="translate(1.71 339.66) rotate(-150)" fill="#3d3d3b"/>
      <rect x="50.91" y="156.47" width="1.65" height="7.65" rx="0.83" ry="0.83" transform="matrix(-0.87, -0.5, 0.5, -0.87, 16.39, 324.99)" fill="#3d3d3b"/>
    </g>
    <rect x="47.61" y="159.2" width="23.25" height="23.25" rx="1.59" ry="1.59" transform="translate(25.11 348.39) rotate(-150)" fill="#474b4b" stroke="#474b4b" stroke-miterlimit="10" stroke-width="0.5"/>
    <path d="M57.33,156.31l15.43,8.9a2.73,2.73,0,0,1,1,3.72l-8.31,14.39a2.7,2.7,0,0,1-1.68,1.27L62.1,185a2.76,2.76,0,0,1-2-.28l-14.37-8.3a2.71,2.71,0,0,1-1-3.71l8.91-15.43A2.71,2.71,0,0,1,57.33,156.31Z" fill="#b9bcc2"/>
    <path d="M50.54,165.81A10,10,0,0,1,63,161.53a10.85,10.85,0,0,1,1.24.6,10.63,10.63,0,0,1,1,.68h0a10,10,0,0,1-6,18.06,9.86,9.86,0,0,1-4.38-1c-.23-.11-.46-.23-.68-.36a9.22,9.22,0,0,1-1.15-.77,10,10,0,0,1-2.52-12.94Z" fill="#9a9ea4" stroke="#fff" stroke-miterlimit="10" stroke-width="0.5"/>
    <path d="M54.92,179.82l6.66-11.53a.56.56,0,0,1,.78-.21l2.73,1.57a.57.57,0,0,1,.2.78l-6,10.44a9.86,9.86,0,0,1-4.38-1Z" fill="#474b4b"/>
    <path d="M50.18,175.17l2.27-3.94a.58.58,0,0,1,.78-.21L56,172.6a.57.57,0,0,1,.2.78l-3.1,5.37A9.93,9.93,0,0,1,50.18,175.17Z" fill="#474b4b"/>
    <path d="M54.18,168.24l4.29-7.42a10,10,0,0,1,4.54.71l-5.12,8.86a.57.57,0,0,1-.78.2L54.39,169A.57.57,0,0,1,54.18,168.24Z" fill="#474b4b"/>
    <path d="M63,165.79l1.57-2.72a.59.59,0,0,1,.68-.26h0a10,10,0,0,1,4,7.23l-6-3.47A.57.57,0,0,1,63,165.79Z" fill="#474b4b"/>
  </g>
  <g>
    <g>
      <rect x="18.13" y="129.87" width="1.65" height="7.65" rx="0.83" ry="0.83" transform="matrix(-0.5, -0.87, 0.87, -0.5, -87.35, 216.95)" fill="#3d3d3b"/>
      <rect x="27.43" y="124.49" width="1.65" height="7.65" rx="0.83" ry="0.83" transform="translate(-68.74 216.95) rotate(-120)" fill="#3d3d3b"/>
    </g>
    <rect x="17.86" y="129.56" width="23.25" height="23.25" rx="1.59" ry="1.59" transform="matrix(-0.5, -0.87, 0.87, -0.5, -78.05, 237.32)" fill="#474b4b" stroke="#474b4b" stroke-miterlimit="10" stroke-width="0.5"/>
    <path d="M35.1,127.66,44,143.09a2.71,2.71,0,0,1-1,3.71l-14.39,8.31a2.71,2.71,0,0,1-2.1.26l-1.65-.46a2.67,2.67,0,0,1-1.61-1.26L15,139.29a2.73,2.73,0,0,1,1-3.72l15.42-8.9A2.73,2.73,0,0,1,35.1,127.66Z" fill="#b9bcc2"/>
    <path d="M24.46,132.49a10,10,0,0,1,9.37-.35A9.8,9.8,0,0,1,37.4,135a10.53,10.53,0,0,1,.78,1.15c.2.36.38.72.54,1.09h0a10,10,0,0,1-17.52,9.6c-.15-.21-.28-.43-.41-.65a9,9,0,0,1-.61-1.25,9.92,9.92,0,0,1-.71-4.54A10,10,0,0,1,24.46,132.49Z" fill="#9a9ea4" stroke="#fff" stroke-miterlimit="10" stroke-width="0.5"/>
    <path d="M21.26,146.82l11.53-6.66a.57.57,0,0,1,.78.21l1.57,2.73a.56.56,0,0,1-.21.78l-10.44,6a10,10,0,0,1-3.29-3Z" fill="#474b4b"/>
    <path d="M19.47,140.42l3.94-2.27a.57.57,0,0,1,.78.21l1.57,2.72a.56.56,0,0,1-.21.78L20.18,145A9.92,9.92,0,0,1,19.47,140.42Z" fill="#474b4b"/>
    <path d="M26.4,136.42l7.43-4.28A9.8,9.8,0,0,1,37.4,135l-8.85,5.11a.57.57,0,0,1-.78-.2l-1.58-2.73A.58.58,0,0,1,26.4,136.42Z" fill="#474b4b"/>
    <path d="M35.28,138.72,38,137.15a.56.56,0,0,1,.71.11h0a10,10,0,0,1-.17,8.25l-3.48-6A.58.58,0,0,1,35.28,138.72Z" fill="#474b4b"/>
  </g>
  <g>
    <g>
      <rect x="12.34" y="85.06" width="1.65" height="7.65" rx="0.83" ry="0.83" transform="translate(-75.72 102.06) rotate(-90)" fill="#3d3d3b"/>
      <rect x="23.09" y="85.06" width="1.65" height="7.65" rx="0.83" ry="0.83" transform="translate(-64.97 112.8) rotate(-90)" fill="#3d3d3b"/>
    </g>
    <rect x="6.92" y="89.02" width="23.25" height="23.25" rx="1.59" ry="1.59" transform="translate(-82.1 119.19) rotate(-90)" fill="#474b4b" stroke="#474b4b" stroke-miterlimit="10" stroke-width="0.5"/>
    <path d="M30.17,91.74v17.81a2.72,2.72,0,0,1-2.72,2.72H10.83a2.72,2.72,0,0,1-1.94-.82l-1.2-1.23a2.69,2.69,0,0,1-.77-1.9V91.74A2.72,2.72,0,0,1,9.64,89H27.45A2.72,2.72,0,0,1,30.17,91.74Z" fill="#b9bcc2"/>
    <path d="M18.54,90.61a10,10,0,0,1,10,8.65,10.54,10.54,0,0,1,.09,1.38c0,.42,0,.83-.07,1.23h0a10,10,0,0,1-20-.46c0-.25,0-.51,0-.77a9.06,9.06,0,0,1,.1-1.38,10,10,0,0,1,9.94-8.65Z" fill="#9a9ea4" stroke="#fff" stroke-miterlimit="10" stroke-width="0.5"/>
    <path d="M8.61,101.41H21.92a.58.58,0,0,1,.57.57v3.15a.58.58,0,0,1-.57.57H9.86a10.09,10.09,0,0,1-1.33-4.29Z" fill="#474b4b"/>
    <path d="M10.25,95H14.8a.56.56,0,0,1,.57.57v3.14a.56.56,0,0,1-.57.57H8.6A10,10,0,0,1,10.25,95Z" fill="#474b4b"/>
    <path d="M18.26,95h8.57a10,10,0,0,1,1.66,4.28H18.26a.56.56,0,0,1-.57-.57V95.55A.56.56,0,0,1,18.26,95Z" fill="#474b4b"/>
    <path d="M24.8,101.41H28a.59.59,0,0,1,.56.46h0a10.06,10.06,0,0,1-4.28,7V102A.58.58,0,0,1,24.8,101.41Z" fill="#474b4b"/>
  </g>
  <g>
    <g>
      <rect x="29.74" y="43.37" width="1.65" height="7.65" rx="0.83" ry="0.83" transform="translate(-25.59 50.07) rotate(-60)" fill="#3d3d3b"/>
      <rect x="39.04" y="48.74" width="1.65" height="7.65" rx="0.83" ry="0.83" transform="translate(-25.59 60.81) rotate(-60)" fill="#3d3d3b"/>
    </g>
    <rect x="17.71" y="48.44" width="23.25" height="23.25" rx="1.59" ry="1.59" transform="translate(-37.35 55.44) rotate(-60)" fill="#474b4b" stroke="#474b4b" stroke-miterlimit="10" stroke-width="0.5"/>
    <path d="M43.86,58.16,35,73.59a2.7,2.7,0,0,1-3.71,1l-14.39-8.3a2.73,2.73,0,0,1-1.28-1.69l-.42-1.66a2.77,2.77,0,0,1,.28-2l8.29-14.36a2.73,2.73,0,0,1,3.72-1l15.42,8.91A2.72,2.72,0,0,1,43.86,58.16Z" fill="#b9bcc2"/>
    <path d="M34.36,51.37a10,10,0,0,1,4.28,12.47,10.5,10.5,0,0,1-1.28,2.26h0A10,10,0,0,1,20.28,55.72c.11-.23.23-.45.36-.68a11.6,11.6,0,0,1,.78-1.15,10,10,0,0,1,12.94-2.52Z" fill="#9a9ea4" stroke="#fff" stroke-miterlimit="10" stroke-width="0.5"/>
    <path d="M20.35,55.76l11.53,6.65a.57.57,0,0,1,.21.78l-1.58,2.73a.57.57,0,0,1-.77.21l-10.44-6a10,10,0,0,1,1-4.38Z" fill="#474b4b"/>
    <path d="M25,51l3.94,2.28a.55.55,0,0,1,.21.77l-1.57,2.73a.58.58,0,0,1-.78.21l-5.37-3.11A10,10,0,0,1,25,51Z" fill="#474b4b"/>
    <path d="M31.92,55l7.43,4.29a9.94,9.94,0,0,1-.71,4.54l-8.86-5.12a.57.57,0,0,1-.21-.77l1.58-2.73A.57.57,0,0,1,31.92,55Z" fill="#474b4b"/>
    <path d="M34.37,63.85l2.73,1.58a.57.57,0,0,1,.26.67h0a10,10,0,0,1-7.24,4l3.48-6A.57.57,0,0,1,34.37,63.85Z" fill="#474b4b"/>
  </g>
  <g>
    <g>
      <rect x="65.65" y="15.96" width="1.65" height="7.65" rx="0.83" ry="0.83" transform="translate(-0.99 35.89) rotate(-30)" fill="#3d3d3b"/>
      <rect x="71.02" y="25.26" width="1.65" height="7.65" rx="0.83" ry="0.83" transform="translate(-4.92 39.82) rotate(-30)" fill="#3d3d3b"/>
    </g>
    <rect x="47.35" y="18.69" width="23.25" height="23.25" rx="1.59" ry="1.59" transform="matrix(0.87, -0.5, 0.5, 0.87, -7.26, 33.55)" fill="#474b4b" stroke="#474b4b" stroke-miterlimit="10" stroke-width="0.5"/>
    <path d="M72.5,35.93,57.08,44.84a2.73,2.73,0,0,1-3.72-1l-8.3-14.39a2.69,2.69,0,0,1-.27-2.09l.47-1.65a2.66,2.66,0,0,1,1.26-1.62L60.88,15.8a2.71,2.71,0,0,1,3.71,1L73.5,32.22A2.72,2.72,0,0,1,72.5,35.93Z" fill="#b9bcc2"/>
    <path d="M67.67,25.3A10,10,0,0,1,64,39a10.26,10.26,0,0,1-1.1.55h0A10,10,0,0,1,53.31,22c.21-.14.42-.28.65-.41A10.17,10.17,0,0,1,55.2,21,10.06,10.06,0,0,1,67.67,25.3Z" fill="#9a9ea4" stroke="#fff" stroke-miterlimit="10" stroke-width="0.5"/>
    <path d="M53.35,22.09,60,33.62a.58.58,0,0,1-.21.78L57.07,36a.58.58,0,0,1-.78-.21l-6-10.44A10.09,10.09,0,0,1,53.31,22Z" fill="#474b4b"/>
    <path d="M59.74,20.31,62,24.24a.58.58,0,0,1-.21.78L59.08,26.6a.58.58,0,0,1-.78-.21L55.2,21A9.93,9.93,0,0,1,59.74,20.31Z" fill="#474b4b"/>
    <path d="M63.74,27.24,68,34.66a10,10,0,0,1-2.88,3.58L60,29.38a.57.57,0,0,1,.21-.78L63,27A.56.56,0,0,1,63.74,27.24Z" fill="#474b4b"/>
    <path d="M61.45,36.12,63,38.84a.58.58,0,0,1-.12.72h0a10.09,10.09,0,0,1-8.25-.18l6-3.47A.57.57,0,0,1,61.45,36.12Z" fill="#474b4b"/>
  </g>
</svg>
