<svg id="Componentes" xmlns="http://www.w3.org/2000/svg" viewBox="0 0 100 100">
  <title>componentes_svg</title>
  <g>
    <path d="M48.6,33.55a53,53,0,0,1-.08,5.84c-.06.48-1.13,1.1-1.81,1.22-3.28.6-6,1.92-7.61,5a9.27,9.27,0,0,0-.36,1.09,26.91,26.91,0,0,1,3.11.19c4.66.79,7.36,4.25,7.25,9.21a9.73,9.73,0,0,1-8.24,9.61C32,66.81,26,60.44,27.26,51.46c1.21-8.36,8-15.14,17.16-17.22C45.72,34,47.06,33.8,48.6,33.55Z" fill="#fff"/>
    <path d="M72.44,34.17c0,2,.1,3.93-.08,5.84,0,.41-1,.94-1.68,1.06-3.72.7-6.74,2.24-8,6a30.79,30.79,0,0,1,5.47,1.14c3.46,1.39,5.17,5.13,4.7,9.53a9.78,9.78,0,0,1-7.33,8.38A11.21,11.21,0,0,1,51.24,55.68c-.66-9,5.07-17,14.35-20.16a48.68,48.68,0,0,1,4.79-1.22A12.83,12.83,0,0,1,72.44,34.17Z" fill="#fff"/>
  </g>
</svg>
