<svg id="Componentes" xmlns="http://www.w3.org/2000/svg" viewBox="0 0 100 100">
  <title>componentes_svg</title>
  <g>
    <rect x="28.08" y="2.08" width="43.83" height="95.83" rx="2" ry="2" fill="#fff"/>
    <rect x="29.58" y="3.5" width="40.83" height="92.83" rx="2" ry="2" fill="#3c3c3b"/>
    <rect x="32.63" y="5.31" width="17.29" height="10.19" rx="2" ry="2" fill="#575756"/>
    <rect x="51.08" y="5.31" width="17.29" height="10.19" rx="2" ry="2" fill="#575756"/>
    <rect x="58.43" y="58.99" width="9.44" height="10.45" rx="2" ry="2" transform="translate(127.37 1.07) rotate(90)" fill="#575756"/>
    <path d="M68.38,71.4V87.94a2.45,2.45,0,0,1,0,.27v2.48a2,2,0,0,1-2,2H34.54a2,2,0,0,1-2-2V87a2,2,0,0,1,2-2H57.86V71.4a2,2,0,0,1,2-2h6.52A2,2,0,0,1,68.38,71.4Z" fill="#575756"/>
    <rect x="32.54" y="16" width="35.83" height="42.5" rx="2" ry="2" fill="#575756"/>
    <rect x="32.54" y="59.88" width="24.38" height="24.37" rx="2" ry="2" fill="#575756"/>
    <circle cx="38.46" cy="66.04" r="4.4" fill="#dadada"/>
    <circle cx="50.73" cy="66.04" r="4.4" fill="#dadada"/>
    <circle cx="38.46" cy="77.32" r="4.4" fill="#dadada"/>
    <circle cx="50.73" cy="77.32" r="4.4" fill="#dadada"/>
    <circle cx="38.36" cy="21.76" r="4.38" fill="#c21718"/>
    <circle cx="41.49" cy="10.41" r="4.38" fill="#c21718"/>
    <circle cx="50.59" cy="21.76" r="4.38" fill="#066c33"/>
    <circle cx="60.09" cy="10.41" r="4.38" fill="#066c33"/>
    <circle cx="62.53" cy="21.76" r="4.38" fill="#224a9b"/>
    <circle cx="38.36" cy="32.23" r="4.38" fill="#d33523"/>
    <circle cx="50.59" cy="32.23" r="4.38" fill="#50a852"/>
    <circle cx="62.53" cy="32.23" r="4.38" fill="#2f86c0"/>
    <circle cx="38.36" cy="42.15" r="4.38" fill="#ed6a3d"/>
    <circle cx="50.59" cy="42.15" r="4.38" fill="#48ad9d"/>
    <circle cx="62.53" cy="42.15" r="4.38" fill="#a86274"/>
    <circle cx="38.36" cy="52.62" r="4.38" fill="#ea9f4a"/>
    <circle cx="50.59" cy="52.62" r="4.38" fill="#24766b"/>
    <circle cx="62.53" cy="52.62" r="4.38" fill="#9a4d61"/>
    <rect x="35.61" y="87.81" width="6" height="2.44" rx="1.22" ry="1.22" fill="#3c3c3b"/>
    <rect x="47.86" y="87.81" width="6" height="2.44" rx="1.22" ry="1.22" fill="#3c3c3b"/>
    <rect x="60.36" y="87.81" width="6" height="2.44" rx="1.22" ry="1.22" fill="#3c3c3b"/>
    <rect x="60.36" y="80.5" width="6" height="2.44" rx="1.22" ry="1.22" fill="#3c3c3b"/>
    <rect x="60.36" y="73.44" width="6" height="2.44" rx="1.22" ry="1.22" fill="#3c3c3b"/>
    <rect x="60.15" y="61.53" width="6" height="5.37" rx="1.22" ry="1.22" fill="#3c3c3b"/>
  </g>
</svg>
