<svg id="Componentes" xmlns="http://www.w3.org/2000/svg" viewBox="0 0 100 100">
  <title>componentes_svg</title>
  <path d="M82.21,9.53V85.84c0,3.6-2.38,6.52-5.31,6.52h-.85a2.89,2.89,0,0,1,.2,1.06h0a3.05,3.05,0,0,1-3,3H67.79a3.05,3.05,0,0,1-3-3h0a2.89,2.89,0,0,1,.2-1.06H54.37a2.89,2.89,0,0,1,.2,1.06h0a3.05,3.05,0,0,1-3,3H46.11a3.05,3.05,0,0,1-3-3h0a2.89,2.89,0,0,1,.2-1.06H31.55a2.89,2.89,0,0,1,.2,1.06h0a3.05,3.05,0,0,1-3,3H23.29a3.05,3.05,0,0,1-3-3h0a2.89,2.89,0,0,1,.2-1.06H14.86c-2.94,0-5.3-2.92-5.3-6.52V9.53C9.56,5.92,11.92,3,14.86,3h62C79.83,3,82.21,5.92,82.21,9.53Z" fill="#9a9ea4" stroke="#fff" stroke-miterlimit="10" stroke-width="0.5"/>
  <path d="M81.31,10.43V84.72c0,3.51-2.31,6.35-5.16,6.35H21.47c-2.85,0-5.17-2.84-5.17-6.35V10.43c0-3.51,2.32-6.36,5.17-6.36H76.15C79,4.07,81.31,6.92,81.31,10.43Z" fill="#b9bcc2"/>
  <g>
    <path d="M71.57,47A22.74,22.74,0,0,1,55.15,68.88a22,22,0,0,1-4.55.83c-.58.05-1.18.07-1.78.07a22.76,22.76,0,1,1,0-45.51,16.37,16.37,0,0,1,1.72.08c.28,0,.56,0,.83.07A22.74,22.74,0,0,1,71.57,47Z" fill="#1d1d1b"/>
    <g>
      <g>
        <path d="M66.93,54.34A19.86,19.86,0,0,0,68.36,47a26.55,26.55,0,0,1,3.18,2.19A25.62,25.62,0,0,1,74.46,52a23.9,23.9,0,0,1-3.76,1.49c-.63.19-1.24.37-1.87.5S67.55,54.25,66.93,54.34Z" fill="#1d1d1b"/>
        <line x1="66.93" y1="54.34" x2="66.74" y2="54.36" fill="#1d1d1b"/>
        <line x1="66.74" y1="54.36" x2="66.86" y2="54.51" fill="#1d1d1b"/>
        <path d="M62.74,60.72a19.31,19.31,0,0,0,4.12-6.21A25,25,0,0,1,69,57.77a28.26,28.26,0,0,1,1.61,3.7,24.64,24.64,0,0,1-4-.07c-.66-.06-1.3-.15-1.93-.26S63.35,60.88,62.74,60.72Z" fill="#1d1d1b"/>
        <line x1="62.74" y1="60.72" x2="62.56" y2="60.67" fill="#1d1d1b"/>
        <line x1="62.56" y1="60.67" x2="62.61" y2="60.85" fill="#1d1d1b"/>
        <path d="M56.43,65a19.08,19.08,0,0,0,6.18-4.16,23.45,23.45,0,0,1,.71,3.82,27,27,0,0,1,.07,4A24.61,24.61,0,0,1,56.43,65Z" fill="#1d1d1b"/>
        <line x1="56.43" y1="65.01" x2="56.28" y2="64.89" fill="#1d1d1b"/>
        <line x1="56.28" y1="64.89" x2="56.26" y2="65.08" fill="#1d1d1b"/>
        <path d="M49,66.56a19.08,19.08,0,0,0,7.3-1.48A24.54,24.54,0,0,1,54,72.65,24.41,24.41,0,0,1,49,66.56Z" fill="#1d1d1b"/>
        <line x1="48.96" y1="66.56" x2="48.87" y2="66.4" fill="#1d1d1b"/>
        <line x1="48.87" y1="66.4" x2="48.77" y2="66.56" fill="#1d1d1b"/>
        <path d="M41.46,65.12a19.47,19.47,0,0,0,7.31,1.44,28.05,28.05,0,0,1-2.2,3.19,29.38,29.38,0,0,1-2.81,2.91,28.41,28.41,0,0,1-1.48-3.76A26.4,26.4,0,0,1,41.46,65.12Z" fill="#1d1d1b"/>
        <line x1="41.46" y1="65.12" x2="41.44" y2="64.94" fill="#1d1d1b"/>
        <line x1="41.44" y1="64.94" x2="41.29" y2="65.06" fill="#1d1d1b"/>
        <path d="M35.09,60.92a19.65,19.65,0,0,0,6.2,4.14A27.59,27.59,0,0,1,38,67.15a28.58,28.58,0,0,1-3.71,1.61,29.94,29.94,0,0,1,.08-4A26.13,26.13,0,0,1,35.09,60.92Z" fill="#1d1d1b"/>
        <line x1="35.09" y1="60.92" x2="35.13" y2="60.74" fill="#1d1d1b"/>
        <line x1="35.13" y1="60.74" x2="34.95" y2="60.79" fill="#1d1d1b"/>
        <path d="M30.8,54.6A19.75,19.75,0,0,0,35,60.79a27.42,27.42,0,0,1-3.81.69,29.94,29.94,0,0,1-4,.07,30.54,30.54,0,0,1,1.61-3.7A26.66,26.66,0,0,1,30.8,54.6Z" fill="#1d1d1b"/>
        <line x1="30.8" y1="54.6" x2="30.92" y2="54.45" fill="#1d1d1b"/>
        <line x1="30.92" y1="54.45" x2="30.74" y2="54.42" fill="#1d1d1b"/>
        <path d="M29.28,47.12a19.21,19.21,0,0,0,1.46,7.3A24.3,24.3,0,0,1,27,53.6a27.68,27.68,0,0,1-3.76-1.49,30.43,30.43,0,0,1,2.91-2.8A29.19,29.19,0,0,1,29.28,47.12Z" fill="#1d1d1b"/>
        <line x1="29.28" y1="47.12" x2="29.44" y2="47.02" fill="#1d1d1b"/>
        <line x1="62.74" y1="60.72" x2="62.61" y2="60.85" fill="#1d1d1b"/>
        <path d="M49,66.56h-.19" fill="#1d1d1b"/>
        <path d="M35.09,60.92a.86.86,0,0,1-.14-.13" fill="#1d1d1b"/>
        <line x1="30.8" y1="54.6" x2="30.74" y2="54.42" fill="#1d1d1b"/>
        <line x1="41.46" y1="65.12" x2="41.29" y2="65.06" fill="#1d1d1b"/>
        <line x1="56.43" y1="65.01" x2="56.26" y2="65.08" fill="#1d1d1b"/>
        <line x1="66.93" y1="54.34" x2="66.86" y2="54.51" fill="#1d1d1b"/>
      </g>
      <g>
        <path d="M30.71,39.71A19.5,19.5,0,0,0,29.28,47a26.71,26.71,0,0,1-3.19-2.19A29.32,29.32,0,0,1,23.17,42a27.68,27.68,0,0,1,3.76-1.49A24.89,24.89,0,0,1,30.71,39.71Z" fill="#1d1d1b"/>
        <line x1="30.71" y1="39.71" x2="30.89" y2="39.69" fill="#1d1d1b"/>
        <line x1="30.89" y1="39.69" x2="30.77" y2="39.54" fill="#1d1d1b"/>
        <path d="M34.89,33.33a19.64,19.64,0,0,0-4.12,6.21,26.28,26.28,0,0,1-2.1-3.25,28.43,28.43,0,0,1-1.62-3.71,30,30,0,0,1,4,.06A27.82,27.82,0,0,1,34.89,33.33Z" fill="#1d1d1b"/>
        <line x1="34.89" y1="33.33" x2="35.07" y2="33.38" fill="#1d1d1b"/>
        <line x1="35.07" y1="33.38" x2="35.02" y2="33.19" fill="#1d1d1b"/>
        <path d="M41.2,29A19.65,19.65,0,0,0,35,33.19a27.14,27.14,0,0,1-.7-3.81,31.6,31.6,0,0,1-.08-4A30.67,30.67,0,0,1,38,26.94,29.24,29.24,0,0,1,41.2,29Z" fill="#1d1d1b"/>
        <line x1="41.2" y1="29.02" x2="41.35" y2="29.14" fill="#1d1d1b"/>
        <line x1="41.35" y1="29.14" x2="41.38" y2="28.96" fill="#1d1d1b"/>
        <path d="M48.68,27.49A19.22,19.22,0,0,0,41.38,29a25.72,25.72,0,0,1,.81-3.79,30.25,30.25,0,0,1,1.48-3.77,30.52,30.52,0,0,1,2.81,2.91A28,28,0,0,1,48.68,27.49Z" fill="#1d1d1b"/>
        <line x1="48.68" y1="27.49" x2="48.78" y2="27.65" fill="#1d1d1b"/>
        <line x1="48.78" y1="27.65" x2="48.87" y2="27.48" fill="#1d1d1b"/>
        <path d="M56.18,28.92a20.46,20.46,0,0,0-7.31-1.44,28.68,28.68,0,0,1,2.2-3.17,28.37,28.37,0,0,1,2.81-2.91,28.29,28.29,0,0,1,1.48,3.75A25.81,25.81,0,0,1,56.18,28.92Z" fill="#1d1d1b"/>
        <line x1="56.18" y1="28.92" x2="56.21" y2="29.11" fill="#1d1d1b"/>
        <line x1="56.21" y1="29.11" x2="56.36" y2="29" fill="#1d1d1b"/>
        <path d="M62.54,33.14A19.4,19.4,0,0,0,56.36,29a25.18,25.18,0,0,1,3.25-2.1,26.41,26.41,0,0,1,3.71-1.6A24.59,24.59,0,0,1,62.54,33.14Z" fill="#1d1d1b"/>
        <line x1="62.54" y1="33.14" x2="62.49" y2="33.32" fill="#1d1d1b"/>
        <line x1="62.49" y1="33.32" x2="62.68" y2="33.28" fill="#1d1d1b"/>
        <path d="M66.82,39.46a19.57,19.57,0,0,0-4.14-6.18c.61-.17,1.23-.31,1.88-.44s1.27-.19,1.92-.26,1.35-.11,2-.12,1.34,0,2,0a23.63,23.63,0,0,1-1.61,3.7A22.6,22.6,0,0,1,66.82,39.46Z" fill="#1d1d1b"/>
        <line x1="66.82" y1="39.46" x2="66.71" y2="39.61" fill="#1d1d1b"/>
        <line x1="66.71" y1="39.61" x2="66.9" y2="39.63" fill="#1d1d1b"/>
        <path d="M68.36,46.94a19.46,19.46,0,0,0-1.46-7.31,25.23,25.23,0,0,1,3.79.82,29.05,29.05,0,0,1,3.76,1.49,30.43,30.43,0,0,1-2.91,2.8A28.37,28.37,0,0,1,68.36,46.94Z" fill="#1d1d1b"/>
        <line x1="68.36" y1="46.94" x2="68.2" y2="47.03" fill="#1d1d1b"/>
        <path d="M34.89,33.33a1.79,1.79,0,0,1,.13-.14" fill="#1d1d1b"/>
        <path d="M48.68,27.49h.19" fill="#1d1d1b"/>
        <line x1="62.54" y1="33.14" x2="62.68" y2="33.28" fill="#1d1d1b"/>
        <line x1="66.82" y1="39.46" x2="66.9" y2="39.63" fill="#1d1d1b"/>
        <path d="M56.18,28.92l.18.08" fill="#1d1d1b"/>
        <line x1="41.2" y1="29.02" x2="41.38" y2="28.96" fill="#1d1d1b"/>
        <line x1="30.71" y1="39.71" x2="30.77" y2="39.54" fill="#1d1d1b"/>
      </g>
    </g>
  </g>
  <g>
    <path d="M71.57,47A22.74,22.74,0,0,1,55.15,68.88a22,22,0,0,1-4.55.83,22.75,22.75,0,0,1-.06-45.36c.28,0,.56,0,.83.07A22.74,22.74,0,0,1,71.57,47Z" fill="#474b4b"/>
    <g>
      <g>
        <path d="M67.06,54a19.54,19.54,0,0,0,1.3-7,27.32,27.32,0,0,1,3.2,2.09,26.94,26.94,0,0,1,3,2.66A24.82,24.82,0,0,1,67.06,54Z" fill="#474a4a"/>
        <line x1="67.06" y1="54" x2="66.88" y2="54.02" fill="#474a4a"/>
        <line x1="66.88" y1="54.02" x2="67" y2="54.16" fill="#474a4a"/>
        <path d="M63.26,60.18a19.19,19.19,0,0,0,3.74-6,24.67,24.67,0,0,1,4,6.68,27.47,27.47,0,0,1-4,0A26.24,26.24,0,0,1,63.26,60.18Z" fill="#474a4a"/>
        <line x1="63.26" y1="60.18" x2="63.08" y2="60.14" fill="#474a4a"/>
        <line x1="63.08" y1="60.14" x2="63.14" y2="60.31" fill="#474a4a"/>
        <path d="M57.45,64.55a20,20,0,0,0,5.69-4.24,24.71,24.71,0,0,1,.92,3.7c.1.64.19,1.3.26,2s.08,1.32.09,2A25.11,25.11,0,0,1,57.45,64.55Z" fill="#474a4a"/>
        <line x1="57.45" y1="64.55" x2="57.3" y2="64.44" fill="#474a4a"/>
        <line x1="57.3" y1="64.44" x2="57.3" y2="64.63" fill="#474a4a"/>
        <path d="M50.65,66.48l.7-.07.88-.14A17.09,17.09,0,0,0,54,65.88c.59-.16,1.14-.37,1.71-.55s1.09-.46,1.64-.7a25.61,25.61,0,0,1-.5,3.79,30.33,30.33,0,0,1-1.11,3.82,25.1,25.1,0,0,1-2.9-2.72c-.43-.48-.85-1-1.23-1.48L51,67.28l-.27-.39A1.41,1.41,0,0,1,50.65,66.48Z" fill="#474a4a"/>
        <line x1="50.65" y1="66.48" x2="50.65" y2="66.32" fill="#474a4a"/>
        <line x1="50.65" y1="66.32" x2="50.64" y2="66.48" fill="#474a4a"/>
        <path d="M43.93,64.67c.54.22,1.08.48,1.63.69l1.7.54,1.74.38,1.64.2a2.7,2.7,0,0,1-.14.4,4.28,4.28,0,0,1-.26.38l-.56.76c-.39.51-.8,1-1.24,1.51a30.28,30.28,0,0,1-2.89,2.73,29.21,29.21,0,0,1-1.13-3.81A25.6,25.6,0,0,1,43.93,64.67Z" fill="#474a4a"/>
        <line x1="43.93" y1="64.67" x2="43.91" y2="64.48" fill="#474a4a"/>
        <line x1="43.91" y1="64.48" x2="43.76" y2="64.6" fill="#474a4a"/>
        <path d="M38.06,60.38a19.52,19.52,0,0,0,5.7,4.22,28.72,28.72,0,0,1-3.28,2A30.84,30.84,0,0,1,36.79,68a29.45,29.45,0,0,1,.35-4A27.41,27.41,0,0,1,38.06,60.38Z" fill="#474a4a"/>
        <line x1="38.06" y1="60.38" x2="38.12" y2="60.2" fill="#474a4a"/>
        <line x1="38.12" y1="60.2" x2="37.94" y2="60.25" fill="#474a4a"/>
        <path d="M34.16,54.25a19.52,19.52,0,0,0,3.78,6,27.7,27.7,0,0,1-3.77.63,30.92,30.92,0,0,1-4,0A29.48,29.48,0,0,1,32,57.36,27.34,27.34,0,0,1,34.16,54.25Z" fill="#474a4a"/>
        <line x1="34.16" y1="54.25" x2="34.28" y2="54.1" fill="#474a4a"/>
        <line x1="34.28" y1="54.1" x2="34.1" y2="54.08" fill="#474a4a"/>
        <path d="M32.78,47.12a19.25,19.25,0,0,0,1.32,7,25.74,25.74,0,0,1-3.74-.79,29.43,29.43,0,0,1-3.72-1.42,29,29,0,0,1,2.95-2.67A28,28,0,0,1,32.78,47.12Z" fill="#474a4a"/>
        <line x1="32.78" y1="47.12" x2="32.94" y2="47.03" fill="#474a4a"/>
        <line x1="63.26" y1="60.18" x2="63.14" y2="60.31" fill="#474a4a"/>
        <line x1="50.65" y1="66.48" x2="50.64" y2="66.48" fill="#474a4a"/>
        <path d="M38.06,60.38a1.42,1.42,0,0,1-.12-.13" fill="#474a4a"/>
        <line x1="34.16" y1="54.25" x2="34.1" y2="54.08" fill="#474a4a"/>
        <line x1="43.93" y1="64.67" x2="43.76" y2="64.6" fill="#474a4a"/>
        <line x1="57.45" y1="64.55" x2="57.3" y2="64.63" fill="#474a4a"/>
        <line x1="67.06" y1="54" x2="67" y2="54.16" fill="#474a4a"/>
      </g>
      <g>
        <path d="M34.07,40.06a19.45,19.45,0,0,0-1.29,7,29.61,29.61,0,0,1-3.2-2.09,29,29,0,0,1-2.95-2.67,28.74,28.74,0,0,1,3.71-1.42A25.61,25.61,0,0,1,34.07,40.06Z" fill="#474a4a"/>
        <line x1="34.07" y1="40.06" x2="34.25" y2="40.03" fill="#474a4a"/>
        <line x1="34.25" y1="40.03" x2="34.13" y2="39.89" fill="#474a4a"/>
        <path d="M37.88,33.87a19.71,19.71,0,0,0-3.75,6,26.2,26.2,0,0,1-2.22-3.11,29.66,29.66,0,0,1-1.77-3.57,27.69,27.69,0,0,1,4,0A26.34,26.34,0,0,1,37.88,33.87Z" fill="#474a4a"/>
        <line x1="37.88" y1="33.87" x2="38.06" y2="33.92" fill="#474a4a"/>
        <line x1="38.06" y1="33.92" x2="37.99" y2="33.74" fill="#474a4a"/>
        <path d="M43.68,29.5A19.54,19.54,0,0,0,38,33.74,30.48,30.48,0,0,1,37.07,30a31,31,0,0,1-.35-4,32.61,32.61,0,0,1,3.69,1.48A28,28,0,0,1,43.68,29.5Z" fill="#474a4a"/>
        <line x1="43.68" y1="29.5" x2="43.84" y2="29.61" fill="#474a4a"/>
        <line x1="43.84" y1="29.61" x2="43.85" y2="29.42" fill="#474a4a"/>
        <path d="M50.59,27.58l-1.68.21-1.73.39-1.7.54-1.63.7a25.6,25.6,0,0,1,.49-3.78,31,31,0,0,1,1.12-3.83,31.67,31.67,0,0,1,2.89,2.73c.44.5.85,1,1.24,1.51l.56.76A2.15,2.15,0,0,1,50.59,27.58Z" fill="#474a4a"/>
        <path d="M50.59,27.58a.88.88,0,0,1,0,.16" fill="#474a4a"/>
        <line x1="50.61" y1="27.74" x2="50.61" y2="27.58" fill="#474a4a"/>
        <path d="M57.21,29.4a10.73,10.73,0,0,0-1.64-.69,12.31,12.31,0,0,0-1.69-.54,13.18,13.18,0,0,0-1.74-.38l-.88-.14a3.5,3.5,0,0,0-.41,0l-.18,0h-.06a3,3,0,0,1,.09-.41c.07-.13.15-.26.23-.39a5,5,0,0,1,.54-.76c.38-.5.8-1,1.23-1.47a23.49,23.49,0,0,1,2.89-2.74,23.72,23.72,0,0,1,1.13,3.81A22.11,22.11,0,0,1,57.21,29.4Z" fill="#474a4a"/>
        <line x1="57.21" y1="29.4" x2="57.22" y2="29.58" fill="#474a4a"/>
        <line x1="57.22" y1="29.58" x2="57.38" y2="29.47" fill="#474a4a"/>
        <path d="M63.08,33.68a19.8,19.8,0,0,0-5.7-4.21,24.67,24.67,0,0,1,7-3.45A25.35,25.35,0,0,1,63.08,33.68Z" fill="#474a4a"/>
        <line x1="63.08" y1="33.68" x2="63.02" y2="33.86" fill="#474a4a"/>
        <line x1="63.02" y1="33.86" x2="63.2" y2="33.81" fill="#474a4a"/>
        <path d="M67,39.81a19.59,19.59,0,0,0-3.78-6A25.13,25.13,0,0,1,67,33.18a27.69,27.69,0,0,1,4,0,29.48,29.48,0,0,1-1.76,3.56A28.26,28.26,0,0,1,67,39.81Z" fill="#474a4a"/>
        <line x1="66.98" y1="39.81" x2="66.86" y2="39.95" fill="#474a4a"/>
        <line x1="66.86" y1="39.95" x2="67.05" y2="39.97" fill="#474a4a"/>
        <path d="M68.36,46.94a19.51,19.51,0,0,0-1.31-7,27.63,27.63,0,0,1,3.73.79,30.12,30.12,0,0,1,3.72,1.43,30,30,0,0,1-3,2.66A29,29,0,0,1,68.36,46.94Z" fill="#474a4a"/>
        <line x1="68.36" y1="46.94" x2="68.2" y2="47.03" fill="#474a4a"/>
        <line x1="37.88" y1="33.87" x2="37.99" y2="33.74" fill="#474a4a"/>
        <path d="M50.59,27.58h0" fill="#474a4a"/>
        <line x1="63.08" y1="33.68" x2="63.2" y2="33.81" fill="#474a4a"/>
        <path d="M67,39.81s0,.1.07.16" fill="#474a4a"/>
        <line x1="57.21" y1="29.4" x2="57.38" y2="29.47" fill="#474a4a"/>
        <path d="M43.68,29.5l.17-.08" fill="#474a4a"/>
        <line x1="34.07" y1="40.06" x2="34.13" y2="39.89" fill="#474a4a"/>
      </g>
    </g>
  </g>
  <rect x="46.63" y="24.25" width="5.38" height="45.63" fill="#1d1d1b"/>
</svg>
