<svg id="Componentes" xmlns="http://www.w3.org/2000/svg" viewBox="0 0 100 100">
  <title>componentes_svg</title>
  <path d="M85.32,50a35.31,35.31,0,0,1-32.54,35.2c-.92.08-1.85.12-2.78.12a35.31,35.31,0,1,1,0-70.62c.93,0,1.86,0,2.78.12A35.3,35.3,0,0,1,85.32,50Z" fill="#323534"/>
  <path d="M85,50.07a35.3,35.3,0,0,1-32.55,35.2,35.3,35.3,0,0,1,0-70.38A35.3,35.3,0,0,1,85,50.07Z" fill="#585857"/>
  <line x1="19.47" y1="67.75" x2="19.47" y2="32.25" fill="none" stroke="#000" stroke-miterlimit="10" stroke-width="1.5"/>
  <line x1="25.06" y1="75.01" x2="25.06" y2="24.99" fill="none" stroke="#000" stroke-miterlimit="10" stroke-width="1.5"/>
  <line x1="30.66" y1="79.54" x2="30.66" y2="20.45" fill="none" stroke="#000" stroke-miterlimit="10" stroke-width="1.5"/>
  <line x1="36.24" y1="82.52" x2="36.24" y2="17.48" fill="none" stroke="#000" stroke-miterlimit="10" stroke-width="1.5"/>
  <line x1="41.84" y1="84.34" x2="41.84" y2="15.66" fill="none" stroke="#000" stroke-miterlimit="10" stroke-width="1.5"/>
  <line x1="80.37" y1="29.83" x2="80.37" y2="69.5" fill="none" stroke="#000" stroke-miterlimit="10" stroke-width="1.5"/>
  <line x1="74.78" y1="25.33" x2="74.78" y2="74.75" fill="none" stroke="#000" stroke-miterlimit="10" stroke-width="1.5"/>
  <line x1="69.18" y1="18.92" x2="69.18" y2="80.83" fill="none" stroke="#000" stroke-miterlimit="10" stroke-width="1.5"/>
  <line x1="63.58" y1="16" x2="63.58" y2="83.92" fill="none" stroke="#000" stroke-miterlimit="10" stroke-width="1.5"/>
  <line x1="58" y1="14.25" x2="58" y2="85.42" fill="none" stroke="#000" stroke-miterlimit="10" stroke-width="1.5"/>
  <line x1="52.76" y1="13.33" x2="52.76" y2="86.5" fill="none" stroke="#000" stroke-miterlimit="10" stroke-width="1.5"/>
  <line x1="47.29" y1="13.42" x2="47.29" y2="87.25" fill="none" stroke="#000" stroke-miterlimit="10" stroke-width="1.5"/>
  <line x1="67.75" y1="81.11" x2="31.42" y2="81.11" fill="none" stroke="#000" stroke-miterlimit="10" stroke-width="1.5"/>
  <line x1="74.49" y1="75.51" x2="23.58" y2="75.51" fill="none" stroke="#000" stroke-miterlimit="10" stroke-width="1.5"/>
  <line x1="79.63" y1="69.91" x2="21.14" y2="69.91" fill="none" stroke="#000" stroke-miterlimit="10" stroke-width="1.5"/>
  <line x1="83.05" y1="64.31" x2="17.72" y2="64.31" fill="none" stroke="#000" stroke-miterlimit="10" stroke-width="1.5"/>
  <line x1="85.17" y1="58.74" x2="15.6" y2="58.74" fill="none" stroke="#000" stroke-miterlimit="10" stroke-width="1.5"/>
  <line x1="28.67" y1="20.2" x2="70.83" y2="20.2" fill="none" stroke="#000" stroke-miterlimit="10" stroke-width="1.5"/>
  <line x1="23.08" y1="25.8" x2="75.9" y2="25.8" fill="none" stroke="#000" stroke-miterlimit="10" stroke-width="1.5"/>
  <line x1="20.03" y1="31.4" x2="80.55" y2="31.4" fill="none" stroke="#000" stroke-miterlimit="10" stroke-width="1.5"/>
  <line x1="16.99" y1="36.97" x2="83.59" y2="36.97" fill="none" stroke="#000" stroke-miterlimit="10" stroke-width="1.5"/>
  <line x1="15.13" y1="42.57" x2="85.46" y2="42.57" fill="none" stroke="#000" stroke-miterlimit="10" stroke-width="1.5"/>
  <line x1="14.82" y1="47.82" x2="85.76" y2="47.82" fill="none" stroke="#000" stroke-miterlimit="10" stroke-width="1.5"/>
  <line x1="14.68" y1="53.26" x2="86" y2="53.26" fill="none" stroke="#000" stroke-miterlimit="10" stroke-width="1.5"/>
  <path d="M50,12.5A37.5,37.5,0,1,0,87.5,50,37.5,37.5,0,0,0,50,12.5Zm8.27,71.83-.48.11a34.37,34.37,0,0,1-5,.75l-.7,0c-.69.05-1.38.07-2.08.07a35.31,35.31,0,1,1,0-70.62c.93,0,1.86,0,2.78.12a35.3,35.3,0,0,1,5.49,69.52Z" fill="#9a9ea4"/>
  <path d="M57.79,84.44a34.87,34.87,0,0,1-5.35.83l-.36,0,.7,0A34.37,34.37,0,0,0,57.79,84.44Z" fill="#585857"/>
</svg>
