<svg xmlns="http://www.w3.org/2000/svg" viewBox="0 0 106.73 120"><defs><style>.cls-1{fill:#878787;}.cls-2{fill:#b9bbc1;}.cls-3{fill:#323634;}.cls-4{fill:#474b4a;}.cls-5{fill:#b3b3b3;}</style></defs><title>potenciometro_v0</title><g id="Capa_2" data-name="Capa 2"><g id="Capa_31" data-name="Capa 31"><path class="cls-1" d="M99.58,8.29v97c0,4.57-3,8.29-6.74,8.29H14c-3.74,0-6.74-3.72-6.74-8.29v-97C7.27,3.72,10.27,0,14,0H92.84C96.56,0,99.58,3.72,99.58,8.29Z"/><path class="cls-2" d="M99.58,8.29v97c0,4.57-3,8.29-6.74,8.29H21.47c-3.72,0-6.74-3.72-6.74-8.29v-97c0-4.57,3-8.29,6.74-8.29H92.84C96.56,0,99.58,3.72,99.58,8.29Z"/><path class="cls-3" d="M43.3,69.94h-.07l0-.07S43.27,69.91,43.3,69.94Z"/><path class="cls-3" d="M48,74.78l-.17.07,0-.18A.72.72,0,0,0,48,74.78Z"/><path class="cls-3" d="M50.71,76.74l-.24.09V76.6Z"/><path class="cls-3" d="M53.67,78.31l-.26.14,0-.26A1.13,1.13,0,0,0,53.67,78.31Z"/><path class="cls-3" d="M54.07,27.4l-.33,2.14,0,.1,0,.47-.42-.24-.09-.07L51.84,29l.16-.29,0-.09.31-.54.75-1.3,0,0a.33.33,0,0,1,.59,0Z"/><path class="cls-3" d="M56.78,79.51l-.24.19-.09-.28C56.57,79.44,56.66,79.49,56.78,79.51Z"/><path class="cls-4" d="M82.3,57.47a.34.34,0,0,1,0,.59l-1.93,1-.57.28-.14-.14c0,.07,0,.14,0,.21l.16-.07.45.38,1.65,1.41a.34.34,0,0,1-.12.59l-2,.71-.56.18L79,62.39a1,1,0,0,1-.07.28l.24-.1.4.45L81,64.62a.33.33,0,0,1-.19.57l-2.09.44-.59.14-.16-.23a1.13,1.13,0,0,0-.12.28l.28,0,.33.47L79.64,68a.33.33,0,0,1-.25.54l-2.14.17-.62,0,.29.52,1,1.93a.37.37,0,0,1,0,.17v0a.26.26,0,0,1-.07.19.38.38,0,0,1-.28.12l-2.17-.1-.61,0-.12-.33c-.07.12-.16.23-.23.33h.35l.21.56L75.72,74l0,.12,0,0a.34.34,0,0,1-.38.44l-2.14-.35-.61-.09-.07-.38a1.76,1.76,0,0,1-.31.3l.38.08.14.56.49,2.09a.35.35,0,0,1-.42.43l-2.07-.64-.59-.16.07.59.21,2.14a.33.33,0,0,1-.47.35l-2-.87-.54-.26,0,.59,0,2.16a.34.34,0,0,1-.52.28l-.24-.14-.19-.23,0-.07-.07.12-1.32-.8L64.57,80l0-.4-.42.19.38.21-.1.59-.33,2.14a.34.34,0,0,1-.56.21l-1.23-1-.47-.38-.47-.38-.11.52,0,0-.37,1.34-.22.73a.35.35,0,0,1-.58.16L58.59,82.5l-.35-.35-.07-.07.16-.38-.45.07.29.31-.1.21-.21.23a.35.35,0,0,1-.59-.14l-.56-2.09-.17-.59.24-.19c-.12,0-.21-.07-.33-.09l.09.28-.47.38-1.69,1.34a.33.33,0,0,1-.54-.21l-.33-2.14-.1-.62.26-.14a1.13,1.13,0,0,1-.28-.12l0,.26-.49.31-1.84,1.13a.35.35,0,0,1-.54-.28l0-2.17,0-.61.24-.09-.24-.14v.23l-.51.24L48,78a.34.34,0,0,1-.47-.35l.21-2.17.07-.59.17-.07a.72.72,0,0,1-.15-.11l0,.18-.56.17-2.07.61a.33.33,0,0,1-.43-.4l.5-2.12.14-.56-.59.09L42.64,73a.35.35,0,0,1-.38-.47l.76-2,.21-.56h.07s0,0,0-.07l0,.07-.59,0-2.14.09a.33.33,0,0,1-.33-.49l1-1.93.28-.54-.57,0-2.16-.16a.35.35,0,0,1-.26-.54l1.25-1.79.3-.45,0,0H40l-.52-.12-2.11-.45a.34.34,0,0,1-.19-.56l1.46-1.63.33-.37.07-.07-.1,0-.47-.16-2-.71a.34.34,0,0,1-.12-.59L37.93,58l.36-.3.11-.1-.14-.07-.37-.19-2-1a.34.34,0,0,1,0-.59l1.79-1.2.33-.21V54.1l-.31-.21-1.81-1.2A.34.34,0,0,1,36,52.1L38.22,51l.23-.12-.21-.17L38,50.48l-1.64-1.41a.34.34,0,0,1,.12-.59l2-.7.26-.1.31-.09-.21-.24v0l-.19-.19-1.44-1.6a.33.33,0,0,1,.17-.56l2.11-.45.26-.05.33-.09-.19-.28-.14-.19-1.22-1.79a.34.34,0,0,1,.26-.54L41,41.42l.21,0,.4,0L41.39,41l-.09-.16-1-1.93a.32.32,0,0,1,.31-.49l2.16.07H43l.28-.36L43.18,38l-.75-2a.33.33,0,0,1,.37-.45l2.14.35.17,0,.45.07-.12-.43,0-.14-.5-2.09a.34.34,0,0,1,.42-.43l2.07.64.15,0,.44.11,0-.44,0-.14L47.7,31a.35.35,0,0,1,.49-.36l2,.87.12.05.42.21,0-.49v-.1L50.78,29a.34.34,0,0,1,.52-.28l.18.11.26.36.1-.14,1.32.77.09.07.42.24,0-.47,0-.1.33-2.14.73,1.25.07.12.24.37.26-.33.09-.11.4-.52.89-1.2a.32.32,0,0,1,.36-.12.26.26,0,0,1,.21.14s0,0,0,.05l.35.87.47,1.13.07.16.16.4.43-.42L60,28l.07.08.09-.22.21-.23a.35.35,0,0,1,.59.14l.57,2.09,0,.21.12.38.31-.23.16-.15,1.7-1.34a.33.33,0,0,1,.54.22l.33,2.14,0,.26,0,.35.28-.19.21-.12,1.84-1.13a.36.36,0,0,1,.54.29l0,2.16v.61l.28-.12.26-.11,2-.9a.35.35,0,0,1,.48.36l-.22,2.16,0,.35,0,.24.21-.07.36-.1,2.07-.61a.32.32,0,0,1,.42.4L73,37l-.1.42,0,.16.16,0,.42-.07,2.15-.35a.34.34,0,0,1,.37.47l-.75,2-.17.45,0,.11h.11l.48,0,2.14-.09a.34.34,0,0,1,.33.49l-1,1.93L76.8,43l0,.07h.1l.49,0,2.16.16a.36.36,0,0,1,.26.54l-1.24,1.79-.33.47v0l.56.11,2.12.45a.35.35,0,0,1,.19.57L79.6,48.86l-.4.45,0,0a.11.11,0,0,1,0,.07l0,0,.54.18,2.05.71a.34.34,0,0,1,.11.59L80.26,52.2l-.45.4-.09-.05s0,.07,0,.12l.07-.07.52.26,2,1a.33.33,0,0,1,0,.59l-1.78,1.2-.52.33-.12-.07V56l.12-.09.49.33Z"/><path class="cls-3" d="M58.07,82.29l-.12.33-.37.89-.47,1.08a.35.35,0,0,1-.28.22.33.33,0,0,1-.31-.12L55.2,83l-.33-.4,0-.07-.29.49-1.08,1.88a.33.33,0,0,1-.59,0l0-.09-.62-1.06L51.79,83l-.31-.52.15-.16.09-.12-.14,0a.42.42,0,0,1-.19,0H51.3l0,.07.16.26-.35.47-1.32,1.72a.34.34,0,0,1-.58-.07l-.83-2L48.17,82l.23-.24L48,81.7l.14.31-.43.42L46.24,84a.35.35,0,0,1-.59-.14l-.56-2.09-.17-.59.24-.19c-.12,0-.22-.07-.33-.09l.09.28-.47.38-1.69,1.34a.33.33,0,0,1-.54-.22l-.33-2.14-.1-.61.26-.14a1.13,1.13,0,0,1-.28-.12l0,.26-.49.31-1.84,1.13a.36.36,0,0,1-.54-.29l0-2.16,0-.61.24-.1a1.08,1.08,0,0,1-.24-.14v.24l-.52.23-2,.9a.34.34,0,0,1-.47-.35l.21-2.17.07-.59.16-.07a.69.69,0,0,1-.14-.12l0,.19-.56.17-2.08.61a.33.33,0,0,1-.42-.4l.5-2.12.14-.56-.59.09L31,74.45a.35.35,0,0,1-.38-.47l.75-2,.22-.56h.07s-.05-.05-.05-.07l0,.07-.59,0-2.14.09a.33.33,0,0,1-.33-.49l1-1.93.28-.54-.57,0-2.16-.16a.36.36,0,0,1-.26-.54L28.08,66l.3-.45,0,0h-.05l-.52-.11L25.72,65a.34.34,0,0,1-.18-.56L27,62.76l.33-.37.07-.07-.09,0-.47-.16-2-.71a.34.34,0,0,1-.12-.59l1.62-1.41.36-.3.11-.1L26.64,59l-.37-.19-2-1a.34.34,0,0,1,0-.59L26.08,56l.33-.21v-.24l-.31-.21-1.81-1.2a.34.34,0,0,1,.05-.59l2.25-1.13.24-.11-.21-.17-.24-.21-1.64-1.41a.34.34,0,0,1,.11-.59l2-.71.26-.09.31-.09-.22-.24v0l-.18-.19L25.63,47a.33.33,0,0,1,.16-.56L27.91,46l.26-.05.33-.09-.19-.29-.14-.18L27,43.59a.33.33,0,0,1,.26-.54l2.14-.17.21,0,.4,0-.19-.36-.09-.16-1-1.93a.32.32,0,0,1,.3-.49l2.17.07h.19l.28-.36-.07-.16-.75-2a.33.33,0,0,1,.37-.44l2.14.35.17,0,.44.07L33.82,37l0-.14-.49-2.09a.34.34,0,0,1,.42-.43l2.07.64.14.05.45.11-.05-.44,0-.15-.23-2.14a.35.35,0,0,1,.49-.35l2,.87.11,0,.43.21,0-.49v-.1l0-2.16a.33.33,0,0,1,.51-.28l1.86,1.1.1.07.42.24.05-.47,0-.1.33-2.14a.33.33,0,0,1,.54-.21L44.69,30l.09.07.38.31.14-.47,0-.1.59-2.07a.35.35,0,0,1,.59-.16L48,29.12l.07.09.36.33.16-.42,0-.12.85-2a.33.33,0,0,1,.58-.1l1.32,1.74.07.1,0,0-.18-.11a.34.34,0,0,0-.52.28l-.05,2.16v.1l0,.49-.42-.21-.12-.05-2-.87a.35.35,0,0,0-.49.36l.23,2.14,0,.14,0,.44-.44-.11-.15,0-2.07-.64a.34.34,0,0,0-.42.43l.5,2.09,0,.14.12.43-.45-.07-.17,0-2.14-.35a.33.33,0,0,0-.37.45l.75,2,.07.16-.28.36h-.19l-2.16-.07a.32.32,0,0,0-.31.49l1,1.93.09.16.19.36-.4,0-.21,0-2.14.17a.34.34,0,0,0-.26.54l1.22,1.79.14.19.19.28-.33.09-.26.05L37.42,45a.33.33,0,0,0-.17.56l1.44,1.6.19.19v0l.21.24-.31.09-.26.1-2,.7a.34.34,0,0,0-.12.59L38,50.48l.24.21.21.17-.23.12L36,52.1a.34.34,0,0,0-.05.59l1.81,1.2.31.21v.24l-.33.21-1.79,1.2a.34.34,0,0,0,0,.59l2,1,.37.19.14.07-.11.1-.36.3-1.62,1.41a.34.34,0,0,0,.12.59l2,.71.47.16.1,0-.07.07-.33.37-1.46,1.63a.34.34,0,0,0,.19.56l2.11.45.52.12H40l0,0-.3.45-1.25,1.79a.35.35,0,0,0,.26.54l2.16.16.57,0-.28.54-1,1.93a.33.33,0,0,0,.33.49L42.64,70l.59,0L43,70.5l-.76,2a.35.35,0,0,0,.38.47l2.14-.36.59-.09-.14.56-.5,2.12a.33.33,0,0,0,.43.4L47.23,75l.56-.17-.07.59-.21,2.17A.34.34,0,0,0,48,78l2-.89.51-.24,0,.61,0,2.17a.35.35,0,0,0,.54.28l1.84-1.13.49-.31.1.62.33,2.14a.33.33,0,0,0,.54.21l1.69-1.34.47-.38.17.59.56,2.09a.35.35,0,0,0,.59.14Z"/><polygon class="cls-3" points="60.14 27.87 60.05 28.09 59.98 28.02 60.14 27.87"/><polygon class="cls-3" points="66.68 81.32 66.38 81.14 66.45 81.02 66.49 81.09 66.68 81.32"/><polygon class="cls-3" points="51.84 29.03 51.74 29.17 51.48 28.82 51.84 29.03"/><polygon class="cls-3" points="58.24 82.15 58.07 82.29 58.17 82.08 58.24 82.15"/><path class="cls-3" d="M58.33,81.7l-.16.38-.29-.31Z"/><path class="cls-3" d="M64.61,79.63l0,.4-.38-.21Z"/><path class="cls-3" d="M72.66,74.2l-.38-.08a1.76,1.76,0,0,0,.31-.3Z"/><path class="cls-3" d="M74.82,71.61h-.35c.07-.1.16-.21.23-.33Z"/><path class="cls-3" d="M78.09,65.77l-.28,0a1.13,1.13,0,0,1,.12-.28Z"/><path class="cls-3" d="M79.13,62.57l-.24.1a1,1,0,0,0,.07-.28Z"/><path class="cls-3" d="M79.2,49.31l0,0a.11.11,0,0,0,0-.07Z"/><path class="cls-3" d="M79.76,59.3l-.16.07c0-.07,0-.14,0-.21Z"/><path class="cls-3" d="M79.81,52.6l-.07.07c0-.05,0-.09,0-.12Z"/><polygon class="cls-3" points="80 55.94 79.88 56.03 79.88 55.87 80 55.94"/><path class="cls-4" d="M26.64,59l.14.07-.12.1A.44.44,0,0,1,26.64,59Z"/><path class="cls-4" d="M26.62,52.16l.21.17-.24.12A1,1,0,0,1,26.62,52.16Z"/><path class="cls-4" d="M27.3,62.3l.09,0-.07.07A.15.15,0,0,1,27.3,62.3Z"/><path class="cls-4" d="M27.25,48.82l.21.24-.3.09A1.15,1.15,0,0,1,27.25,48.82Z"/><path class="cls-4" d="M28.36,65.53h0l0,0A.07.07,0,0,1,28.36,65.53Z"/><path class="cls-4" d="M28.31,45.58l.19.28-.33.09A.92.92,0,0,1,28.31,45.58Z"/><path class="cls-4" d="M29.77,42.49l.19.36-.4,0Z"/><path class="cls-4" d="M33.82,37l.11.43-.44-.07A3.6,3.6,0,0,1,33.82,37Z"/><path class="cls-4" d="M36.33,34.71l.05.44L35.93,35A1.76,1.76,0,0,1,36.33,34.71Z"/><path class="cls-4" d="M38.66,33c.14-.09.28-.19.45-.28l0,.49Z"/><path class="cls-4" d="M41.63,31.34a4.09,4.09,0,0,1,.47-.23l-.05.47Z"/><path class="cls-4" d="M44.78,30.07a4.48,4.48,0,0,1,.52-.16l-.15.47Z"/><path class="cls-4" d="M48.07,29.23a4,4,0,0,1,.52-.1l-.16.43Z"/><path class="cls-4" d="M51.46,28.78l.54,0-.26.42Z"/><path class="cls-4" d="M54.87,28.78c.17,0,.33,0,.5,0l-.26.35Z"/><path class="cls-4" d="M58.26,29.23a2.3,2.3,0,0,1,.47.09l-.31.31Z"/><path class="cls-4" d="M61.55,30.1a1.54,1.54,0,0,1,.43.14l-.31.23Z"/><path class="cls-4" d="M64.75,31.37l.33.16-.28.19Z"/><path class="cls-4" d="M67.72,33.06c.09,0,.18.12.28.17l-.28.11Z"/><path class="cls-4" d="M70.45,35.08c0,.05.11.1.18.17l-.21.07Z"/><path class="cls-4" d="M72.89,37.46a.5.5,0,0,1,.12.14l-.17,0Z"/><path class="cls-4" d="M75,40.12a.75.75,0,0,1,.07.12H75Z"/><path class="cls-4" d="M76.84,43.08h-.09l0-.07S76.82,43.06,76.84,43.08Z"/><path class="cls-4" d="M31.67,71.41H31.6l0-.07S31.65,71.38,31.67,71.41Z"/><path class="cls-4" d="M31.67,71.41H31.6l0-.07S31.65,71.38,31.67,71.41Z"/><path class="cls-4" d="M36.33,76.25l-.16.07,0-.18A1.1,1.1,0,0,0,36.33,76.25Z"/><path class="cls-4" d="M36.19,76.14a1.1,1.1,0,0,0,.14.11l-.16.07Z"/><path class="cls-4" d="M39.09,78.21l-.24.09v-.23Z"/><path class="cls-4" d="M38.85,78.07l.24.14-.24.09Z"/><path class="cls-4" d="M42.05,79.78l-.26.14,0-.26A1.13,1.13,0,0,0,42.05,79.78Z"/><path class="cls-4" d="M41.77,79.66a1.13,1.13,0,0,0,.28.12l-.26.14Z"/><path class="cls-4" d="M45.15,81l-.23.19-.09-.28C44.94,80.91,45,81,45.15,81Z"/><path class="cls-4" d="M44.83,80.89c.11,0,.21.07.32.09l-.23.19Z"/><path class="cls-4" d="M48.4,81.78l-.23.24L48,81.71Z"/><path class="cls-4" d="M48,81.71l.37.07-.23.24Z"/><path class="cls-4" d="M51.72,82.18l-.24.28-.18-.32Z"/><path class="cls-4" d="M51.72,82.18l-.24.28-.18-.32Z"/><path class="cls-4" d="M58.33,81.71l-.17.38-.28-.31Z"/><path class="cls-4" d="M58.33,81.71l-.17.38-.28-.31Z"/><path class="cls-4" d="M64.61,79.64l0,.4-.37-.21Z"/><path class="cls-4" d="M64.61,79.64l0,.4-.37-.21Z"/><path class="cls-4" d="M72.66,74.21l-.38-.07a2.27,2.27,0,0,0,.31-.31Z"/><path class="cls-4" d="M72.59,73.83l.07.38-.38-.07A2.27,2.27,0,0,0,72.59,73.83Z"/><path class="cls-4" d="M74.82,71.62h-.35a3.14,3.14,0,0,0,.23-.33Z"/><path class="cls-4" d="M74.82,71.62h-.35a3.14,3.14,0,0,0,.23-.33Z"/><path class="cls-4" d="M78.09,65.78l-.28,0a1.13,1.13,0,0,1,.12-.28Z"/><path class="cls-4" d="M77.93,65.55l.16.23-.28,0A1.13,1.13,0,0,1,77.93,65.55Z"/><path class="cls-4" d="M79.13,62.59l-.24.09A1.43,1.43,0,0,0,79,62.4Z"/><path class="cls-4" d="M79,62.4l.17.19-.24.09A1.43,1.43,0,0,0,79,62.4Z"/><path class="cls-4" d="M79.76,59.32l-.16.07c0-.07,0-.15,0-.22Z"/><path class="cls-4" d="M79.62,59.17l.14.15-.16.07C79.6,59.32,79.62,59.24,79.62,59.17Z"/><polygon class="cls-4" points="80 55.95 79.88 56.05 79.88 55.88 80 55.95"/><path class="cls-4" d="M79.71,52.56l.1,0-.07.07S79.71,52.59,79.71,52.56Z"/><polygon class="cls-4" points="80 55.95 79.88 56.05 79.88 55.88 80 55.95"/><path class="cls-4" d="M79.15,49.29l0,0,0,0A.11.11,0,0,0,79.15,49.29Z"/><path class="cls-4" d="M79.81,52.61l-.07.07s0-.09,0-.12Z"/><path class="cls-4" d="M79.2,49.32l0,0a.11.11,0,0,0,0-.07Z"/><path class="cls-5" d="M46.05,117.83c.06-.78-.18-1.88.23-2.27.57-.52,1.66-.16,2.52-.17,3.64,0,7.28,0,10.92,0a7.72,7.72,0,0,1,.08,2.71,2,2,0,0,1-2.08,1.9q-4.74.08-9.48,0C46.92,119.94,46.38,119,46.05,117.83Z"/><path class="cls-5" d="M70.05,117.83c0-.78-.19-1.88.23-2.27s1.66-.16,2.52-.17c3.64,0,7.27,0,10.91,0a7.27,7.27,0,0,1,.08,2.71,2,2,0,0,1-2.07,1.9q-4.74.08-9.48,0C70.92,119.94,70.37,119,70.05,117.83Z"/><path class="cls-5" d="M21.92,117.83c0-.78-.19-1.88.23-2.27.57-.52,1.65-.16,2.52-.17,3.64,0,7.27,0,10.91,0a7.27,7.27,0,0,1,.08,2.71,2,2,0,0,1-2.07,1.9q-4.74.08-9.48,0C22.79,119.94,22.24,119,21.92,117.83Z"/><circle class="cls-2" cx="101.69" cy="56.77" r="5.04"/><circle class="cls-1" cx="5.04" cy="56.77" r="5.04"/></g></g></svg>