<svg id="Componentes" xmlns="http://www.w3.org/2000/svg" viewBox="0 0 100 100">
  <title>componentes_svg</title>
  <rect x="31.52" y="4" width="38.96" height="35.5" rx="3.87" ry="3.87" fill="#101010"/>
  <path d="M41.59,37.67H44v52.9c0,1.28,0,1.28-1.29,1.28-1.11,0-1.11,0-1.11-1.1Q41.58,64.22,41.59,37.67Z" fill="#766c68"/>
  <path d="M62.46,37.67h2.4q0,26.44,0,52.9c0,1.28,0,1.28-1.28,1.28-1.11,0-1.11,0-1.11-1.1Z" fill="#766c68"/>
  <path d="M52.05,37.67h2.4v52.9c0,1.28,0,1.28-1.29,1.28-1.11,0-1.11,0-1.11-1.1Z" fill="#766c68"/>
  <rect x="33.77" y="2.25" width="38.96" height="35.5" rx="3.87" ry="3.87" fill="#474b4b"/>
</svg>
