<svg id="Componentes" xmlns="http://www.w3.org/2000/svg" viewBox="0 0 100 100">
  <title>componentes_svg</title>
  <g>
    <path d="M42.85,95.83h-11a4.68,4.68,0,0,1-4.68-4.7V8.85a4.68,4.68,0,0,1,4.68-4.68h11a4.69,4.69,0,0,0-4.68,4.68V91.13A4.69,4.69,0,0,0,42.85,95.83Z" fill="#1979ae"/>
    <path d="M73.46,8.51a4.54,4.54,0,0,0-2.92-4A4.72,4.72,0,0,0,70,4.36a.42.42,0,0,0-.12,0,2.05,2.05,0,0,0-.55-.1A1.49,1.49,0,0,0,69,4.18H42.86a4.69,4.69,0,0,0-4.69,4.68V91.13c0,.17,0,.32,0,.48s0,.24,0,.35a2.05,2.05,0,0,0,.07.34,4.67,4.67,0,0,0,.23.66,2.5,2.5,0,0,0,.19.41.87.87,0,0,0,.11.18,2.2,2.2,0,0,0,.19.3,3.31,3.31,0,0,0,.41.5,3.16,3.16,0,0,0,.42.4c.18.14.36.27.55.39a5.2,5.2,0,0,0,.62.32,1.26,1.26,0,0,0,.34.13l.27.08c.12,0,.26.06.38.09h0l.31,0a4,4,0,0,0,.49,0H68.8a4.69,4.69,0,0,0,4.69-4.7V8.85A1.23,1.23,0,0,0,73.46,8.51Zm-5.2,63a1.16,1.16,0,0,1,1.81,1,1.17,1.17,0,0,1-1.81,1A1.05,1.05,0,0,0,68.26,71.51Z" fill="#1a87ba"/>
    <path d="M73.46,8.51a4.54,4.54,0,0,0-2.92-4A4.72,4.72,0,0,0,70,4.36a.42.42,0,0,0-.12,0,2.05,2.05,0,0,0-.55-.1A1.49,1.49,0,0,0,69,4.18H42.86a4.69,4.69,0,0,0-4.69,4.68V91.13c0,.17,0,.32,0,.48s0,.24,0,.35a2.05,2.05,0,0,0,.07.34,4.67,4.67,0,0,0,.23.66,2.5,2.5,0,0,0,.19.41.87.87,0,0,0,.11.18,2.2,2.2,0,0,0,.19.3,3.31,3.31,0,0,0,.41.5,3.16,3.16,0,0,0,.42.4c.18.14.36.27.55.39a5.2,5.2,0,0,0,.62.32,1.26,1.26,0,0,0,.34.13l.27.08c.12,0,.26.06.38.09h0l.31,0a4,4,0,0,0,.49,0H68.8a4.69,4.69,0,0,0,4.69-4.7V8.85A1.23,1.23,0,0,0,73.46,8.51Zm-5.2,63a1.16,1.16,0,0,1,1.81,1,1.17,1.17,0,0,1-1.81,1A1.05,1.05,0,0,0,68.26,71.51Z" fill="#1a87ba"/>
    <path d="M70.51,72.48A20.19,20.19,0,1,1,40.8,54.69a11.59,11.59,0,1,1,19.05,0A20.17,20.17,0,0,1,70.51,72.48Z" fill="#1e5f99" stroke="#1e5f99" stroke-miterlimit="10" opacity="0.29"/>
    <g>
      <g opacity="0.44">
        <g>
          <path d="M49.33,55.83a3.4,3.4,0,0,1-.46-.06l-.84,1a.53.53,0,0,1-.94-.3L47,55.16a4.36,4.36,0,0,1-.42-.23l-1.11.7a.53.53,0,0,1-.8-.58L45,53.78a3.64,3.64,0,0,1-.34-.34l-1.28.32a.53.53,0,0,1-.57-.8l.69-1.11c-.08-.14-.15-.28-.22-.43L42,51.33a.53.53,0,0,1-.3-.93l1-.84a3.7,3.7,0,0,1-.08-.48l-1.21-.48a.53.53,0,0,1,0-1l1.21-.49a3.7,3.7,0,0,1,.08-.48l-1-.83a.53.53,0,0,1,.3-.94l1.31-.09c.07-.15.14-.29.22-.44l-.69-1.1a.53.53,0,0,1,.57-.8l1.28.31.34-.34-.32-1.26a.53.53,0,0,1,.8-.58l1.1.69L47,41l.09-1.29a.53.53,0,0,1,.94-.31l.84,1a3.4,3.4,0,0,1,.46-.06,9.26,9.26,0,0,0,0,15.46Z" fill="#1e5f99"/>
          <path d="M51,39.49a9.42,9.42,0,0,0-1.6.85l.48-1.2a.53.53,0,0,1,1,0Z" fill="#1e5f99"/>
          <path d="M51,56.71l-.14.34a.52.52,0,0,1-1,0l-.48-1.19A9.05,9.05,0,0,0,51,56.71Z" fill="#1e5f99"/>
          <path d="M59.28,48.6l-1.2.48c0,.16,0,.33-.09.48l1,.84a.53.53,0,0,1-.31.93l-1.29.09c-.07.15-.15.3-.23.45L57.86,53a.53.53,0,0,1-.58.8L56,53.44l-.34.34L56,55.05a.53.53,0,0,1-.79.58l-1.11-.7a4.64,4.64,0,0,1-.44.23l-.08,1.31a.54.54,0,0,1-.94.3l-.85-1-.47.07-.35.87a9.05,9.05,0,0,1-1.6-.85v0h0a9.26,9.26,0,0,1,0-15.46h0v0a9.42,9.42,0,0,1,1.6-.85l.35.87.47.07.85-1a.53.53,0,0,1,.94.31L53.65,41l.44.23,1.11-.69a.53.53,0,0,1,.79.58l-.31,1.26.34.34,1.26-.31a.53.53,0,0,1,.58.8l-.69,1.1c.08.14.16.29.23.44l1.29.09a.53.53,0,0,1,.31.94l-1,.83c0,.16.06.31.09.48l1.2.49A.53.53,0,0,1,59.28,48.6Z" fill="#1e5f99"/>
        </g>
        <path d="M59.28,48.6l-1.2.48c0,.16,0,.33-.09.48l1,.84a.53.53,0,0,1-.31.93l-1.29.09c-.07.15-.15.3-.23.45L57.86,53a.53.53,0,0,1-.58.8L56,53.44l-.34.34L56,55.05a.53.53,0,0,1-.79.58l-1.11-.7a4.64,4.64,0,0,1-.44.23l-.08,1.31a.54.54,0,0,1-.94.3l-.85-1-.47.07-.35.87a9.05,9.05,0,0,1-1.6-.85l0,0a9.26,9.26,0,0,1,0-15.46l0,0a9.42,9.42,0,0,1,1.6-.85l.35.87.47.07.85-1a.53.53,0,0,1,.94.31L53.65,41l.44.23,1.11-.69a.53.53,0,0,1,.79.58l-.31,1.26.34.34,1.26-.31a.53.53,0,0,1,.58.8l-.69,1.1c.08.14.16.29.23.44l1.29.09a.53.53,0,0,1,.31.94l-1,.83c0,.16.06.31.09.48l1.2.49A.53.53,0,0,1,59.28,48.6Z" fill="#2170ad"/>
      </g>
      <g>
        <path d="M48.46,87c-.3,0-.58-.07-.86-.12L46,88.72a1,1,0,0,1-1.76-.57l-.17-2.44c-.27-.13-.53-.27-.8-.42l-2.08,1.3a1,1,0,0,1-1.49-1.08l.59-2.39a6.24,6.24,0,0,1-.63-.63l-2.39.6a1,1,0,0,1-1.08-1.5l1.3-2.08c-.15-.27-.29-.53-.42-.8l-2.44-.17a1,1,0,0,1-.56-1.76L36,75.22c-.07-.29-.11-.6-.16-.91l-2.26-.9a1,1,0,0,1,0-1.85l2.26-.92c0-.31.09-.6.16-.9L34.1,68.18a1,1,0,0,1,.56-1.75l2.44-.17c.13-.28.27-.55.42-.82l-1.3-2.06a1,1,0,0,1,1.08-1.51l2.39.59c.19-.21.41-.42.63-.63l-.59-2.37a1,1,0,0,1,1.49-1.09l2.07,1.3.81-.42.17-2.44A1,1,0,0,1,46,56.24l1.57,1.88a7.74,7.74,0,0,1,.86-.12,17.35,17.35,0,0,0,0,29Z" fill="#1e5f99"/>
        <path d="M51.52,56.35a18.08,18.08,0,0,0-3,1.6l.9-2.25a1,1,0,0,1,1.84,0Z" fill="#1e5f99"/>
        <path d="M51.51,88.6l-.26.65a1,1,0,0,1-1.84,0L48.51,87A15.67,15.67,0,0,0,51.51,88.6Z" fill="#1e5f99"/>
        <path d="M67.12,73.4h0l-2.26.9a8.64,8.64,0,0,1-.15.91l1.25,1,.63.53A1,1,0,0,1,66,78.54l-2.41.17c-.14.28-.28.56-.44.83l1.29,2a1,1,0,0,1-1.08,1.5L61,82.49a7.71,7.71,0,0,1-.65.63l.59,2.39a1,1,0,0,1-1.48,1.08l-2.08-1.3c-.27.15-.54.29-.82.42l-.15,2.44a1,1,0,0,1-1.76.57l-1.59-1.87-.88.14-.66,1.61a15.38,15.38,0,0,1-3-1.59v0s0,0,0,0a17.35,17.35,0,0,1,0-29s0,0,0,0v0a17.7,17.7,0,0,1,3-1.6L52.17,58l.88.14,1.59-1.88a1,1,0,0,1,1.76.57l.15,2.44.83.42,2.07-1.3a1,1,0,0,1,1.48,1.09l-.59,2.37c.23.21.44.42.65.63l2.36-.59a1,1,0,0,1,1.08,1.51l-1.29,2.05c.16.27.3.55.44.83l2.41.17a1,1,0,0,1,.58,1.75l-.63.54-1.25,1a8.89,8.89,0,0,1,.15.9l2.26.92h0A1,1,0,0,1,67.12,73.4Z" fill="#1e5f99"/>
      </g>
      <path d="M67.12,73.4h0l-2.26.9a8.64,8.64,0,0,1-.15.91l1.25,1,.63.53A1,1,0,0,1,66,78.54l-2.41.17c-.14.28-.28.56-.44.83l1.29,2a1,1,0,0,1-1.08,1.5L61,82.49a7.71,7.71,0,0,1-.65.63l.59,2.39a1,1,0,0,1-1.48,1.08l-2.08-1.3c-.27.15-.54.29-.82.42l-.15,2.44a1,1,0,0,1-1.76.57l-1.59-1.87-.88.14-.66,1.61a15.38,15.38,0,0,1-3-1.59.06.06,0,0,1,0,0,17.35,17.35,0,0,1,0-29,.08.08,0,0,1,0,0,17.7,17.7,0,0,1,3-1.6L52.17,58l.88.14,1.59-1.88a1,1,0,0,1,1.76.57l.15,2.44.83.42,2.07-1.3a1,1,0,0,1,1.48,1.09l-.59,2.37c.23.21.44.42.65.63l2.36-.59a1,1,0,0,1,1.08,1.51l-1.29,2.05c.16.27.3.55.44.83l2.41.17a1,1,0,0,1,.58,1.75l-.63.54-1.25,1a8.89,8.89,0,0,1,.15.9l2.26.92h0A1,1,0,0,1,67.12,73.4Z" fill="#2170ad"/>
    </g>
    <path d="M50.91,79.13a.63.63,0,0,1-.58.33.71.71,0,0,1-.65-.43.78.78,0,0,1,0-.26.17.17,0,0,1,0-.07c-.19,0-.4-.06-.6-.11a.54.54,0,0,1-.13.32.7.7,0,0,1-1.22-.41.64.64,0,0,1,.08-.33,2.73,2.73,0,0,1-.54-.27.53.53,0,0,1-.23.26.7.7,0,0,1-1.07-.59.55.55,0,0,1,0-.18.58.58,0,0,1,.18-.3,3.33,3.33,0,0,1-.42-.42.58.58,0,0,1-.3.18.7.7,0,0,1-.87-.68.68.68,0,0,1,.12-.37.69.69,0,0,1,.24-.24,2.94,2.94,0,0,1-.27-.53.6.6,0,0,1-.33.08.7.7,0,0,1-.65-.69.69.69,0,0,1,.26-.53.58.58,0,0,1,.3-.13l-.09-.6a.6.6,0,0,1-.35,0,.7.7,0,0,1,0-1.29.86.86,0,0,1,.27,0,.12.12,0,0,1,.08,0c0-.2.06-.41.09-.6a.59.59,0,0,1-.3-.14.68.68,0,0,1,.39-1.21.52.52,0,0,1,.33.06q.13-.27.27-.51a1,1,0,0,1-.24-.26.68.68,0,0,1,.57-1.05.55.55,0,0,1,.18,0,.58.58,0,0,1,.3.18,2.78,2.78,0,0,1,.42-.42.58.58,0,0,1-.18-.3.71.71,0,0,1,1-.77,1,1,0,0,1,.24.26,2.94,2.94,0,0,1,.53-.27.64.64,0,0,1-.08-.33.69.69,0,0,1,1.22-.41.54.54,0,0,1,.13.32c.2,0,.41-.08.6-.11a.54.54,0,0,1,0-.33.71.71,0,0,1,.65-.43.63.63,0,0,1,.58.33,7,7,0,0,0,0,13.29Z" fill="#ececec"/>
    <path d="M56.54,73.16c0,.19-.06.4-.11.6a.62.62,0,0,1,.32.13.72.72,0,0,1,.25.53.7.7,0,0,1-.66.69A.64.64,0,0,1,56,75a5.12,5.12,0,0,1-.25.53.69.69,0,0,1,.24.24.7.7,0,0,1-.59,1.07.5.5,0,0,1-.16,0,.66.66,0,0,1-.3-.16c-.14.15-.29.28-.44.42a.57.57,0,0,1,.18.28.69.69,0,0,1-.67.87.7.7,0,0,1-.36-.1.6.6,0,0,1-.24-.26,2.94,2.94,0,0,1-.53.27.64.64,0,0,1,.08.33.69.69,0,0,1-.71.65.72.72,0,0,1-.52-.24.49.49,0,0,1-.14-.32c-.19,0-.39.08-.58.11A.65.65,0,0,1,51,79a.21.21,0,0,1-.06.1,7,7,0,0,1,0-13.29.21.21,0,0,1,.06.1.8.8,0,0,1,.05.26.1.1,0,0,1,0,.07,5.78,5.78,0,0,1,.6.11.49.49,0,0,1,.14-.32.73.73,0,0,1,.52-.25.7.7,0,0,1,.71.66.64.64,0,0,1-.08.33,4,4,0,0,1,.51.25,1,1,0,0,1,.26-.24.68.68,0,0,1,1.05.59.55.55,0,0,1,0,.18.57.57,0,0,1-.18.28,3.05,3.05,0,0,1,.44.44.54.54,0,0,1,.3-.18.68.68,0,0,1,.85.67.7.7,0,0,1-.1.36,1,1,0,0,1-.24.26,4,4,0,0,1,.25.51.54.54,0,0,1,.33-.06.67.67,0,0,1,.66.69.73.73,0,0,1-.25.52.57.57,0,0,1-.32.14h0c0,.2.08.39.11.59a.48.48,0,0,1,.33,0,.7.7,0,0,1,0,1.29.78.78,0,0,1-.26,0Z" fill="#fff"/>
    <circle cx="59.62" cy="72.48" r="1.17" fill="#2170ad"/>
    <path d="M70.07,72.48a1.17,1.17,0,0,1-1.17,1.17,1.23,1.23,0,0,1-.65-.19,1.05,1.05,0,0,0,0-1.95,1.24,1.24,0,0,1,.65-.2A1.18,1.18,0,0,1,70.07,72.48Z" fill="#1a87ba"/>
    <path d="M68.25,73.46a1.17,1.17,0,0,1,0-1.95A1.05,1.05,0,0,1,68.25,73.46Z" fill="#2170ad"/>
    <rect x="27.17" y="4.17" width="46.32" height="91.58" rx="4" ry="4" fill="none" stroke="#1e5f99" stroke-miterlimit="10"/>
    <path d="M51.47,16.1A3.36,3.36,0,0,0,49,19.05L45.64,72.48H43.29l3.3-53.43a3.56,3.56,0,0,1,3.7-3.12A4.05,4.05,0,0,1,51.47,16.1Z" fill="#ececec"/>
    <path d="M57.3,72.48H45.64L49,19.05a3.36,3.36,0,0,1,2.52-2.95A3.36,3.36,0,0,1,54,19.05Z" fill="#fff"/>
    <path d="M57.3,72.48H45.64L49,19.05a3.36,3.36,0,0,1,2.52-2.95A3.36,3.36,0,0,1,54,19.05Z" fill="#fff"/>
    <circle cx="50.33" cy="72.48" r="1.17" fill="#2170ad"/>
    <circle cx="50.33" cy="66.77" r="1.17" fill="#2170ad"/>
    <circle cx="50.33" cy="55.35" r="1.17" fill="#2170ad"/>
    <circle cx="50.33" cy="61.06" r="1.17" fill="#2170ad"/>
    <circle cx="50.33" cy="43.92" r="1.17" fill="#2170ad"/>
    <circle cx="50.33" cy="49.64" r="1.17" fill="#2170ad"/>
    <circle cx="50.33" cy="32.5" r="1.17" fill="#2170ad"/>
    <circle cx="50.33" cy="38.21" r="1.17" fill="#2170ad"/>
    <circle cx="39.11" cy="26.79" r="1.17" fill="#2170ad"/>
    <circle cx="39.11" cy="21.07" r="1.17" fill="#2170ad"/>
  </g>
</svg>
