<?xml version="1.0" encoding="UTF-8" standalone="no"?>
<!-- Created with Inkscape (http://www.inkscape.org/) -->

<svg
   width="54.628239mm"
   height="9.2604198mm"
   viewBox="0 0 54.62824 9.26042"
   version="1.1"
   id="svg3175"
   inkscape:version="1.1.1 (3bf5ae0d25, 2021-09-20)"
   sodipodi:docname="thingspeak_logo_2.svg"
   xmlns:inkscape="http://www.inkscape.org/namespaces/inkscape"
   xmlns:sodipodi="http://sodipodi.sourceforge.net/DTD/sodipodi-0.dtd"
   xmlns="http://www.w3.org/2000/svg"
   xmlns:svg="http://www.w3.org/2000/svg">
  <sodipodi:namedview
     id="namedview3177"
     pagecolor="#ffffff"
     bordercolor="#666666"
     borderopacity="1.0"
     inkscape:pageshadow="2"
     inkscape:pageopacity="0.0"
     inkscape:pagecheckerboard="0"
     inkscape:document-units="mm"
     showgrid="false"
     fit-margin-top="0"
     fit-margin-left="0"
     fit-margin-right="0"
     fit-margin-bottom="0"
     inkscape:zoom="0.3884119"
     inkscape:cx="-194.38128"
     inkscape:cy="225.27631"
     inkscape:window-width="1920"
     inkscape:window-height="1057"
     inkscape:window-x="-8"
     inkscape:window-y="-8"
     inkscape:window-maximized="1"
     inkscape:current-layer="layer1" />
  <defs
     id="defs3172" />
  <g
     inkscape:label="Capa 1"
     inkscape:groupmode="layer"
     id="layer1"
     transform="translate(-65.305795,-117.16527)">
    <path
       style="fill:#ffffff;stroke-width:1"
       d="m 71.153059,125.20976 -1.216423,-1.21686 h -2.31542 -2.315421 v -3.41382 -3.41381 h 5.102561 5.102556 v 3.41342 3.41343 l -1.552555,0.009 -1.55256,0.009 -0.01818,1.20779 -0.01818,1.20778 z m 0.467978,-1.63782 0.004,-0.43911 0.768516,-0.0239 c 0.422683,-0.0131 1.092733,-0.0239 1.489001,-0.0239 h 0.720491 v -2.57852 -2.57852 h -4.194603 -4.194627 v 2.57852 2.57852 l 1.915729,0.002 1.915729,0.002 0.762659,0.67644 0.762659,0.67646 0.02331,-0.2149 c 0.01279,-0.1182 0.02508,-0.4125 0.02724,-0.65402 z m 22.847424,2.00564 c -0.758142,-0.17706 -1.156247,-0.49855 -1.248846,-1.00848 -0.03031,-0.16706 -0.0068,-0.17681 0.425599,-0.1764 0.576284,5e-4 0.70188,0.0271 0.783728,0.16584 0.111261,0.18857 0.248353,0.23881 0.658332,0.24122 0.454912,0.003 0.657391,-0.0823 0.797425,-0.33475 0.08172,-0.1473 0.09161,-0.21001 0.100257,-0.63554 0.0093,-0.45935 0.0079,-0.46969 -0.05434,-0.38219 -0.311756,0.4385 -0.672201,0.57843 -1.298723,0.50418 -0.566993,-0.0672 -1.029513,-0.38769 -1.272765,-0.88195 -0.213588,-0.43397 -0.311021,-1.09809 -0.234697,-1.59974 0.158006,-1.03848 0.719963,-1.63652 1.580074,-1.68151 0.562304,-0.0294 0.944977,0.13102 1.220838,0.51183 l 0.10476,0.14462 v -0.35145 -0.35147 l 0.517518,0.0101 0.517518,0.0101 v 2.26983 c 0,2.25523 -5.03e-4,2.2715 -0.08202,2.5307 -0.214857,0.68336 -0.809027,1.02165 -1.842784,1.04919 -0.300622,0.008 -0.54468,-0.005 -0.671863,-0.0341 z m 0.954282,-2.54994 c 0.596652,-0.2033 0.791275,-1.35373 0.335251,-1.98164 -0.346717,-0.47741 -1.059273,-0.47025 -1.338902,0.0134 -0.304912,0.52746 -0.267779,1.38448 0.07663,1.76858 0.219535,0.24482 0.571726,0.32065 0.92702,0.19959 z m 7.507607,-0.34216 v -2.7601 h 0.48875 0.48876 l 0.0106,0.27866 0.0106,0.27866 0.10556,-0.15264 c 0.25564,-0.36964 0.63506,-0.53228 1.18049,-0.50601 0.44656,0.0215 0.74652,0.14732 1.01963,0.42771 0.76477,0.78517 0.73384,2.5933 -0.0571,3.34141 -0.32947,0.3116 -0.52752,0.38195 -1.06821,0.37951 -0.54157,-0.003 -0.63905,-0.0367 -0.94996,-0.3332 l -0.21219,-0.2024 v 1.00425 1.00425 h -0.50844 -0.50844 z m 2.14637,0.43079 c 0.41314,-0.13833 0.68396,-0.69023 0.63908,-1.30241 -0.0592,-0.80723 -0.47648,-1.21826 -1.10448,-1.08789 -0.26134,0.0542 -0.50171,0.28274 -0.60962,0.57946 -0.11111,0.30557 -0.1047,1.03654 0.0113,1.28926 0.20103,0.43788 0.65249,0.65925 1.06369,0.52158 z m -5.594299,0.90978 c -0.930554,-0.12042 -1.540631,-0.57544 -1.726065,-1.28737 -0.03061,-0.11755 -0.05567,-0.27612 -0.05567,-0.35236 v -0.13865 l 0.515968,0.0101 0.515967,0.0101 0.0429,0.14833 c 0.1422,0.49166 0.498469,0.70513 1.176833,0.70513 0.711866,0 1.089516,-0.24772 1.089516,-0.71467 0,-0.37149 -0.18151,-0.46272 -1.677482,-0.84323 -0.796844,-0.20268 -1.017492,-0.29711 -1.247676,-0.53394 -0.247216,-0.25437 -0.321899,-0.48813 -0.323716,-1.01327 -0.0015,-0.41629 0.0035,-0.44678 0.114453,-0.68061 0.28833,-0.60867 0.874438,-0.91951 1.813104,-0.96155 1.224467,-0.0548 2.088737,0.54138 2.211727,1.52576 l 0.0261,0.20918 -0.53602,-0.0101 -0.53603,-0.0101 -0.0447,-0.15166 c -0.10821,-0.36685 -0.34107,-0.55217 -0.79259,-0.6308 -0.780135,-0.13586 -1.416659,0.30697 -1.198362,0.83369 0.09475,0.22862 0.219338,0.2816 1.374052,0.58418 1.0862,0.28463 1.29413,0.36923 1.56516,0.63683 0.24798,0.24483 0.32385,0.46285 0.32183,0.92495 -0.005,0.98743 -0.55765,1.5536 -1.68725,1.72635 -0.37495,0.0573 -0.581679,0.0603 -0.942043,0.0137 z m 13.362509,-0.038 c -0.63051,-0.10324 -0.94424,-0.49446 -0.94424,-1.17745 0,-0.78948 0.36637,-1.10611 1.48899,-1.28682 0.91125,-0.1467 0.98057,-0.17638 0.98057,-0.41987 0,-0.18971 -0.0857,-0.32603 -0.2451,-0.3898 -0.49943,-0.19983 -1.01027,-0.0318 -1.08308,0.35635 l -0.0237,0.12605 h -0.50844 -0.50844 l 0.024,-0.1362 c 0.11246,-0.63963 0.38316,-0.984 0.8915,-1.13416 0.87011,-0.25704 1.91707,-0.0859 2.265,0.3703 0.1819,0.23847 0.18366,0.25362 0.20405,1.75351 0.02,1.47576 0.0211,1.48556 0.18244,1.67059 0.0348,0.0399 0.0739,0.11757 0.0869,0.1725 l 0.0236,0.0999 h -0.55946 -0.55947 l -0.0543,-0.11804 c -0.0299,-0.0649 -0.0651,-0.17931 -0.0784,-0.25422 -0.0132,-0.0749 -0.0333,-0.13618 -0.0445,-0.13618 -0.0112,0 -0.10195,0.0649 -0.20162,0.14429 -0.24292,0.19342 -0.51275,0.31637 -0.7947,0.36212 -0.26146,0.0424 -0.26522,0.0424 -0.54163,-0.003 z m 0.95803,-0.79558 c 0.40508,-0.15157 0.52615,-0.33696 0.56757,-0.86907 0.0148,-0.19034 0.0239,-0.34978 0.0202,-0.3543 -0.004,-0.005 -0.0874,0.0223 -0.18611,0.0596 -0.0987,0.0373 -0.31834,0.0957 -0.48812,0.12974 -0.55621,0.11153 -0.68487,0.23807 -0.63899,0.62842 0.0524,0.44634 0.27858,0.57276 0.72541,0.40559 z m -4.9662,0.74284 c -0.89841,-0.21746 -1.36607,-0.98824 -1.32017,-2.17589 0.0493,-1.27671 0.70544,-1.94057 1.91979,-1.94243 0.58388,-0.001 1.0004,0.16713 1.35559,0.54687 0.32649,0.34904 0.45501,0.7659 0.45501,1.47582 v 0.48266 h -1.34868 -1.34867 l 0.0232,0.17251 c 0.0525,0.3902 0.43621,0.68235 0.89223,0.67938 0.28187,-0.002 0.43758,-0.0718 0.61349,-0.2759 l 0.12086,-0.14019 h 0.52377 c 0.28808,0 0.52377,0.009 0.52377,0.0189 0,0.0104 -0.0484,0.12573 -0.10757,0.25621 -0.19499,0.43003 -0.61893,0.77994 -1.10019,0.90806 -0.24472,0.0651 -0.9224,0.0617 -1.20246,-0.006 z m 1.37241,-2.44378 c 0.0306,-0.0495 -0.0782,-0.37861 -0.17048,-0.51559 -0.23159,-0.34367 -0.79797,-0.41966 -1.14651,-0.15382 -0.1415,0.10793 -0.29549,0.41132 -0.29601,0.58321 l -3.6e-4,0.11803 h 0.79684 c 0.43826,0 0.80568,-0.0143 0.81651,-0.0318 z m -31.683934,0.17709 v -2.21534 h -0.817139 -0.817133 v -0.47212 -0.47212 h 2.179027 2.179027 v 0.47212 0.47212 h -0.798975 -0.79898 v 2.21534 2.21536 h -0.562914 -0.562913 z m 3.486442,-0.47211 v -2.68747 h 0.526597 0.5266 v 0.95078 0.95078 l 0.132419,-0.1547 c 0.278094,-0.32489 0.629147,-0.45655 1.15301,-0.43242 0.433822,0.02 0.71257,0.13998 0.963889,0.41497 0.309037,0.33812 0.306343,0.32055 0.3208,2.09297 l 0.01269,1.55256 h -0.528732 -0.528727 l -0.001,-1.35282 c -5.05e-4,-1.24072 -0.0064,-1.36515 -0.06841,-1.50167 -0.103003,-0.22681 -0.260861,-0.32026 -0.566192,-0.33519 -0.340866,-0.0167 -0.599074,0.10995 -0.762256,0.37377 l -0.109513,0.17705 -0.01077,1.31942 -0.01077,1.31944 h -0.524909 -0.52491 z m 4.757552,0.70818 v -1.97928 h 0.562914 0.562913 v 1.97928 1.97929 H 87.332144 86.76923 Z m 2.033756,-0.0908 v -2.07007 h 0.50844 0.508439 v 0.29788 0.29788 l 0.132243,-0.18891 c 0.261689,-0.37382 0.643755,-0.53658 1.19117,-0.50748 0.546517,0.029 0.894982,0.24956 1.134725,0.71802 l 0.102221,0.19974 0.01047,1.66151 0.01047,1.66152 H 91.89134 91.381516 L 91.3813,122.513 c -1.11e-4,-0.83101 -0.01496,-1.42416 -0.03771,-1.50603 -0.173375,-0.62428 -1.091758,-0.624 -1.40229,4.2e-4 -0.06089,0.12244 -0.06789,0.25881 -0.07729,1.50561 l -0.01032,1.37098 h -0.525344 -0.525349 z m 29.919164,2.02468 c -0.031,-0.025 -0.24806,-0.39676 -0.48235,-0.82621 -0.2343,-0.42945 -0.43978,-0.79526 -0.45663,-0.81291 -0.0173,-0.0181 -0.12658,0.0594 -0.25093,0.17802 l -0.2203,0.21014 v 0.63002 0.63002 h -0.52661 -0.52659 v -2.72378 -2.72378 h 0.52619 0.52619 l 0.009,1.46653 0.009,1.46655 0.65222,-0.75836 0.65224,-0.75836 h 0.63239 c 0.59607,0 0.62954,0.004 0.58256,0.0633 -0.0274,0.0348 -0.33343,0.37888 -0.68004,0.76463 -0.42739,0.47565 -0.62492,0.72148 -0.61383,0.76393 0.009,0.0344 0.32749,0.59651 0.70774,1.24909 0.38026,0.65259 0.68236,1.19553 0.67134,1.20656 -0.0438,0.0438 -1.15563,0.0205 -1.21256,-0.0254 z m -31.989242,-4.89375 v -0.47212 h 0.581077 0.581072 v 0.47212 0.47212 h -0.581072 -0.581077 z"
       id="path3143" />
  </g>
</svg>
