<?xml version="1.0" encoding="UTF-8" standalone="no"?>
<!-- Created with Inkscape (http://www.inkscape.org/) -->

<svg
   version="1.1"
   id="svg1015"
   xml:space="preserve"
   width="236.86786"
   height="55.507809"
   viewBox="0 0 236.86786 55.507808"
   sodipodi:docname="thinger_io_platform_logo.svg"
   inkscape:version="1.1.1 (3bf5ae0d25, 2021-09-20)"
   xmlns:inkscape="http://www.inkscape.org/namespaces/inkscape"
   xmlns:sodipodi="http://sodipodi.sourceforge.net/DTD/sodipodi-0.dtd"
   xmlns="http://www.w3.org/2000/svg"
   xmlns:svg="http://www.w3.org/2000/svg"><defs
     id="defs1019"><clipPath
       clipPathUnits="userSpaceOnUse"
       id="clipPath1033"><path
         d="M 0,125 H 400 V 0 H 0 Z"
         id="path1031" /></clipPath><clipPath
       clipPathUnits="userSpaceOnUse"
       id="clipPath1085"><path
         d="M 0,125 H 400 V 0 H 0 Z"
         id="path1083" /></clipPath></defs><sodipodi:namedview
     id="namedview1017"
     pagecolor="#ffffff"
     bordercolor="#666666"
     borderopacity="1.0"
     inkscape:pageshadow="2"
     inkscape:pageopacity="0.0"
     inkscape:pagecheckerboard="0"
     showgrid="false"
     fit-margin-top="0"
     fit-margin-left="0"
     fit-margin-right="0"
     fit-margin-bottom="0"
     inkscape:zoom="1.6267876"
     inkscape:cx="217.29942"
     inkscape:cy="123.24903"
     inkscape:window-width="1920"
     inkscape:window-height="1057"
     inkscape:window-x="-8"
     inkscape:window-y="-8"
     inkscape:window-maximized="1"
     inkscape:current-layer="g1021" /><g
     id="g1021"
     inkscape:groupmode="layer"
     inkscape:label="thinger_io_platform_logo"
     transform="matrix(1.3333333,0,0,-1.3333333,-13.607558,129.70377)"><path
       d="m 75.518758,68.768276 q -0.801396,-0.211689 -1.753998,-0.347775 -0.937482,-0.136087 -1.678395,-0.136087 -2.585635,0 -3.931376,1.391103 -1.345739,1.391101 -1.345739,4.460599 v 8.98168 h -1.920326 v 2.389067 H 66.80925 V 90.3606 h 2.842687 v -4.853737 h 5.866821 v -2.389067 h -5.866821 v -7.696423 q 0,-1.33062 0.06048,-2.086653 0.06048,-0.740913 0.423378,-1.391102 0.332655,-0.604827 0.90724,-0.89212 0.589707,-0.272172 1.78424,-0.272172 0.695551,0 1.451585,0.196569 0.756034,0.211689 1.088689,0.347776 h 0.151206 z"
       id="path1393"
       style="font-size:28.8773px;font-family:'Source Sans Pro';-inkscape-font-specification:SourceSansPro-Regular;fill:#ffffff;stroke-width:1" /><path
       d="m 91.338389,68.61707 h -2.842687 v 9.616748 q 0,1.164292 -0.136086,2.177377 -0.136087,1.028207 -0.498982,1.602792 -0.378018,0.635069 -1.088689,0.937482 -0.710672,0.317535 -1.844723,0.317535 -1.164292,0 -2.434428,-0.574587 -1.270137,-0.574585 -2.434428,-1.466704 V 68.61707 h -2.842687 v 23.527769 h 2.842687 v -8.51294 q 1.330619,1.103809 2.751962,1.723757 1.421344,0.619948 2.91829,0.619948 2.736842,0 4.173307,-1.648153 1.436464,-1.648154 1.436464,-4.747892 z"
       id="path1395"
       style="font-size:28.8773px;font-family:'Source Sans Pro';-inkscape-font-specification:SourceSansPro-Regular;fill:#ffffff;stroke-width:1" /><path
       d="m 97.116212,88.334429 h -3.205581 v 2.948532 h 3.205581 z M 96.934767,68.61707 h -2.842691 v 16.889793 h 2.842691 z"
       id="path1397"
       style="font-size:28.8773px;font-family:'Source Sans Pro';-inkscape-font-specification:SourceSansPro-Regular;fill:#ffffff;stroke-width:1" /><path
       d="m 115.80247,68.61707 h -2.84269 v 9.616748 q 0,1.164292 -0.13609,2.177377 -0.13608,1.028207 -0.49898,1.602792 -0.37801,0.635069 -1.08868,0.937482 -0.71067,0.317535 -1.84472,0.317535 -1.1643,0 -2.43443,-0.574587 -1.27014,-0.574585 -2.43443,-1.466704 V 68.61707 h -2.84269 v 16.889793 h 2.84269 v -1.874964 q 1.33062,1.103809 2.75196,1.723757 1.42135,0.619948 2.91829,0.619948 2.73684,0 4.17331,-1.648153 1.43646,-1.648154 1.43646,-4.747892 z"
       id="path1399"
       style="font-size:28.8773px;font-family:'Source Sans Pro';-inkscape-font-specification:SourceSansPro-Regular;fill:#ffffff;stroke-width:1" /><path
       d="m 132.31812,70.537395 q 0,-4.294271 -1.95057,-6.305321 -1.95056,-2.01105 -6.0029,-2.01105 -1.34574,0 -2.631,0.196569 -1.27014,0.181448 -2.51003,0.529223 v 2.90317 h 0.15121 q 0.69555,-0.272172 2.20761,-0.66531 1.51208,-0.408258 3.02414,-0.408258 1.45158,0 2.40419,0.347775 0.9526,0.347776 1.48182,0.967724 0.52923,0.589706 0.75603,1.421343 0.22682,0.831637 0.22682,1.859843 v 1.542309 q -1.28526,-1.028206 -2.46467,-1.542309 -1.16429,-0.498982 -2.97878,-0.498982 -3.02413,0 -4.80837,2.177377 -1.76912,2.192498 -1.76912,6.169235 0,2.177377 0.60482,3.749927 0.61995,1.587671 1.6784,2.736843 0.98285,1.073568 2.38907,1.663275 1.40622,0.604826 2.79732,0.604826 1.46671,0 2.44955,-0.302414 0.99797,-0.287292 2.10178,-0.892119 l 0.18144,0.725792 h 2.66124 z m -2.84268,2.721722 v 9.208491 q -1.13405,0.514102 -2.1169,0.725791 -0.96772,0.226811 -1.93545,0.226811 -2.34369,0 -3.68944,-1.57255 -1.34574,-1.572551 -1.34574,-4.566444 0,-2.842687 0.99797,-4.309393 0.99796,-1.466704 3.31142,-1.466704 1.2399,0 2.47979,0.46874 1.25502,0.483862 2.29835,1.285258 z"
       id="path1401"
       style="font-size:28.8773px;font-family:'Source Sans Pro';-inkscape-font-specification:SourceSansPro-Regular;fill:#ffffff;stroke-width:1" /><path
       d="m 147.93055,76.767114 h -12.44432 q 0,-1.557431 0.46874,-2.721722 0.46874,-1.149172 1.28525,-1.890085 0.78628,-0.725792 1.85984,-1.088689 1.0887,-0.362895 2.38907,-0.362895 1.72376,0 3.46264,0.68043 1.754,0.695551 2.49491,1.360861 h 0.15121 v -3.099739 q -1.43646,-0.604826 -2.93342,-1.013085 -1.49694,-0.408258 -3.1451,-0.408258 -4.20355,0 -6.56236,2.268101 -2.35883,2.283222 -2.35883,6.471649 0,4.143065 2.25297,6.577493 2.26811,2.434429 5.95755,2.434429 3.41728,0 5.262,-1.995929 1.85985,-1.995929 1.85985,-5.670254 z m -2.76709,2.177377 q -0.0151,2.237859 -1.13405,3.462634 -1.10381,1.224774 -3.37191,1.224774 -2.28323,0 -3.64408,-1.345739 -1.34574,-1.345741 -1.52719,-3.341669 z"
       id="path1403"
       style="font-size:28.8773px;font-family:'Source Sans Pro';-inkscape-font-specification:SourceSansPro-Regular;fill:#ffffff;stroke-width:1" /><path
       d="m 159.69155,82.407125 h -0.15121 q -0.63507,0.151206 -1.23989,0.211689 -0.58971,0.0756 -1.40622,0.0756 -1.3155,0 -2.54027,-0.589706 -1.22478,-0.574586 -2.35883,-1.496946 V 68.617068 h -2.84269 v 16.889795 h 2.84269 v -2.494912 q 1.69352,1.360861 2.97877,1.920326 1.30038,0.574586 2.64612,0.574586 0.74091,0 1.07357,-0.04536 0.33265,-0.03024 0.99796,-0.136086 z"
       id="path1405"
       style="font-size:28.8773px;font-family:'Source Sans Pro';-inkscape-font-specification:SourceSansPro-Regular;fill:#ffffff;stroke-width:1" /><path
       d="m 162.77496,68.61707 h -3.61384 v 4.309391 h 3.61384 z"
       id="path1407"
       style="font-size:28.8773px;font-family:'Source Sans Pro';-inkscape-font-specification:SourceSansPro-Regular;fill:#ffffff;stroke-width:1" /><path
       d="m 168.89814,88.334429 h -3.20558 v 2.948532 h 3.20558 z M 168.7167,68.61707 h -2.8427 v 16.889793 h 2.8427 z"
       id="path1409"
       style="font-size:28.8773px;font-family:'Source Sans Pro';-inkscape-font-specification:SourceSansPro-Regular;fill:#ffffff;stroke-width:1" /><path
       d="m 187.85656,77.054406 q 0,-4.127945 -2.11689,-6.517011 -2.1169,-2.389067 -5.67025,-2.389067 -3.5836,0 -5.7005,2.389067 -2.10177,2.389066 -2.10177,6.517011 0,4.127944 2.10177,6.51701 2.1169,2.404188 5.7005,2.404188 3.55335,0 5.67025,-2.404188 2.11689,-2.389066 2.11689,-6.51701 z m -2.9334,0 q 0,3.281186 -1.28527,4.868857 -1.28525,1.602792 -3.56847,1.602792 -2.31346,0 -3.59872,-1.602792 -1.27014,-1.587671 -1.27014,-4.868857 0,-3.175342 1.28526,-4.823496 1.28526,-1.633032 3.5836,-1.633032 2.2681,0 3.55335,1.617912 1.30039,1.633032 1.30039,4.838616 z"
       id="path1411"
       style="font-size:28.8773px;font-family:'Source Sans Pro';-inkscape-font-specification:SourceSansPro-Regular;fill:#ffffff;stroke-width:1" /><path
       d="m 25.175087,59.372555 9.002346,4.477538 v 7.280273 l -9.002346,-3.828124 z m -1.483145,10.561523 9.48523,3.999023 -9.48523,4.033203 -9.450739,-4.033203 z m 25.523893,-10.561523 9.002346,4.477538 v 7.280273 l -9.002346,-3.828124 z m -1.517637,10.561523 9.450739,3.999023 -9.450739,4.033203 -9.450739,-4.033203 z m -10.485491,6.801758 8.967854,3.828125 v 6.186523 l -8.967854,-3.828125 z m -1.517637,8.784179 10.313032,4.40918 -10.313032,4.374999 -10.347524,-4.374999 z m 25.489401,-12.03125 v -9.638672 q 0,-0.854492 -0.448392,-1.572265 -0.448393,-0.717773 -1.207211,-1.09375 L 49.043376,55.988766 q -0.655343,-0.341797 -1.345178,-0.341797 -0.724327,0 -1.345178,0.341797 l -10.485491,5.195312 q -0.103476,0.03418 -0.172459,0.102539 -0.06898,-0.06836 -0.172459,-0.102539 L 25.03712,55.988766 q -0.655343,-0.341797 -1.345178,-0.341797 -0.689835,0 -1.345178,0.341797 l -10.485492,5.195312 q -0.758818,0.375977 -1.207211,1.09375 -0.448393,0.717773 -0.448393,1.572265 v 9.638672 q 0,0.888672 0.482885,1.640625 0.482884,0.751953 1.345178,1.09375 l 10.175066,4.340821 v 9.296874 q 0,0.854493 0.482884,1.606445 0.482885,0.751954 1.345178,1.12793 l 10.485492,4.44336 q 0.517376,0.239257 1.172719,0.239257 0.655343,0 1.172719,-0.239257 l 10.519983,-4.44336 q 0.827802,-0.375976 1.310687,-1.12793 0.517376,-0.751952 0.517376,-1.606445 V 80.563961 L 59.356409,76.22314 q 0.862293,-0.341797 1.345178,-1.09375 0.482884,-0.751953 0.482884,-1.640625 z"
       id="path1414"
       style="font-size:70.6391px;font-family:FontAwesome;-inkscape-font-specification:FontAwesome;fill:#ffffff;stroke-width:0.995466" /></g></svg>
