<?xml version="1.0" encoding="utf-8"?>
<!-- Generator: Adobe Illustrator 22.0.0, SVG Export Plug-In . SVG Version: 6.00 Build 0)  -->
<svg version="1.1" id="Capa_1" xmlns="http://www.w3.org/2000/svg" xmlns:xlink="http://www.w3.org/1999/xlink" x="0px" y="0px"
	 viewBox="0 0 98.17 96.89" enable-background="new 0 0 98.17 96.89" xml:space="preserve">
<g>
	<g>
		<defs>
			<path id="SVGID_1_" d="M-236.72-7.35v124.35c0,5.66-4.56,10.28-10.32,10.63c-0.09,0.01-0.18,0.01-0.28,0.01
				c-0.14,0-0.28,0.01-0.43,0.01h-118.27c-0.14,0-0.28,0-0.43-0.01c-0.09,0-0.18-0.01-0.28-0.01c-5.76-0.35-10.32-4.98-10.32-10.63
				V-7.35c0-0.18,0.01-0.37,0.01-0.55c0-0.05,0-0.09,0.01-0.14c0.33-4.99,4.21-9.05,9.22-9.83h0c0.58-0.09,1.17-0.14,1.77-0.14
				h118.27c5.85,0,10.64,4.41,11,9.98c0.01,0.09,0.01,0.18,0.01,0.27c0,0.07,0,0.14,0.01,0.21C-236.72-7.49-236.72-7.42-236.72-7.35
				"/>
		</defs>
		<clipPath id="SVGID_2_">
			<use xlink:href="#SVGID_1_"  overflow="visible"/>
		</clipPath>
		<polygon clip-path="url(#SVGID_2_)" fill="#FFFFFF" points="581.24,-240.12 581.24,-240.16 -383.88,-240.16 -383.88,603.93 
			581.28,603.93 581.28,-240.16 581.24,-240.16 581.24,-240.12 581.21,-240.12 581.21,603.86 -383.81,603.86 -383.81,-240.09 
			581.24,-240.09 581.24,-240.12 581.21,-240.12 		"/>
	</g>
</g>
<g>
	<path fill="#F1F2F1" d="M76.24,36.78c-11.26,7.36-9.62,21.76,1.78,26.94c-2.33,6.76-5.6,12.93-11.23,17.55
		c-2.8,2.3-6.21,2.38-9.34,0.88c-4.89-2.33-9.55-2.29-14.41,0.02c-3.61,1.71-7.26,1.38-10.11-1.59c-9.85-10.3-14.85-22.37-12-36.73
		c1.82-9.18,9.7-15.05,18.39-14.33c1.95,0.16,3.95,0.77,5.74,1.58c2.95,1.33,5.69,1.33,8.64-0.03c4.19-1.93,8.54-2.62,13.13-1.22
		C70.77,31.05,73.88,33.22,76.24,36.78z"/>
	<path fill="#F1F2F1" d="M63.13,12.42c2.06,8.32-6.82,18.66-14.59,16.95C46.72,21.6,54.43,12.66,63.13,12.42z"/>
</g>
</svg>
