<?xml version="1.0" encoding="utf-8"?>
<!-- Generator: Adobe Illustrator 22.0.0, SVG Export Plug-In . SVG Version: 6.00 Build 0)  -->
<svg version="1.1" id="Capa_1" xmlns="http://www.w3.org/2000/svg" xmlns:xlink="http://www.w3.org/1999/xlink" x="0px" y="0px"
	 viewBox="0 0 17.33 17.05" enable-background="new 0 0 17.33 17.05" xml:space="preserve">
<g>
	<g>
		<defs>
			<path id="SVGID_1_" d="M-93.27-63.15V61.2c0,5.66-4.56,10.28-10.32,10.63c-0.09,0.01-0.18,0.01-0.28,0.01
				c-0.14,0-0.28,0.01-0.43,0.01h-118.27c-0.14,0-0.28,0-0.43-0.01c-0.09,0-0.18-0.01-0.28-0.01c-5.76-0.35-10.32-4.98-10.32-10.63
				V-63.15c0-0.18,0.01-0.37,0.01-0.55c0-0.05,0-0.09,0.01-0.14c0.33-4.99,4.21-9.05,9.22-9.83h0c0.58-0.09,1.17-0.14,1.77-0.14
				h118.27c5.85,0,10.64,4.41,11,9.98c0.01,0.09,0.01,0.18,0.01,0.27c0,0.07,0,0.14,0.01,0.21C-93.28-63.29-93.27-63.22-93.27-63.15
				"/>
		</defs>
		<clipPath id="SVGID_2_">
			<use xlink:href="#SVGID_1_"  overflow="visible"/>
		</clipPath>
		<polygon clip-path="url(#SVGID_2_)" fill="#FFFFFF" points="724.69,-295.92 724.69,-295.95 -240.43,-295.95 -240.43,548.14 
			724.73,548.14 724.73,-295.95 724.69,-295.95 724.69,-295.92 724.65,-295.92 724.65,548.07 -240.36,548.07 -240.36,-295.88 
			724.69,-295.88 724.69,-295.92 724.65,-295.92 		"/>
	</g>
</g>
<g>
	<g>
		<path fill="#D1D3D3" d="M15.69,9.96c-0.35,1.47-1.19,2.76-2.34,3.66c-1.13,0.89-2.55,1.42-4.09,1.42c-1.82,0-3.47-0.73-4.68-1.93
			c-1.2-1.21-1.93-2.86-1.93-4.68c0-1.52,0.52-2.9,1.37-4.03C4.9,3.26,6.13,2.41,7.55,2.02c0.13-0.03,0.27,0,0.38,0.08
			C8.12,2.26,8.15,2.53,8,2.71c-0.35,0.42-0.62,0.9-0.8,1.44C7.03,4.65,6.93,5.2,6.93,5.77c0,1.35,0.55,2.59,1.44,3.47
			c0.89,0.89,2.12,1.44,3.47,1.44c0.6,0,1.17-0.1,1.69-0.3c0.55-0.2,1.05-0.5,1.48-0.87c0.12-0.08,0.25-0.12,0.38-0.08
			C15.64,9.48,15.77,9.71,15.69,9.96z"/>
	</g>
</g>
</svg>
