<?xml version="1.0" encoding="utf-8"?>
<!-- Generator: Adobe Illustrator 22.0.0, SVG Export Plug-In . SVG Version: 6.00 Build 0)  -->
<svg version="1.1" id="Capa_1" xmlns="http://www.w3.org/2000/svg" xmlns:xlink="http://www.w3.org/1999/xlink" x="0px" y="0px"
	 viewBox="0 0 17.33 17.05" enable-background="new 0 0 17.33 17.05" xml:space="preserve">
<g>
	<g>
		<defs>
			<path id="SVGID_1_" d="M-54.55-63.15V61.2c0,5.66-4.56,10.28-10.32,10.63c-0.09,0.01-0.18,0.01-0.28,0.01
				c-0.14,0-0.28,0.01-0.43,0.01h-118.27c-0.14,0-0.28,0-0.43-0.01c-0.09,0-0.18-0.01-0.28-0.01c-5.76-0.35-10.32-4.98-10.32-10.63
				V-63.15c0-0.18,0.01-0.37,0.01-0.55c0-0.05,0-0.09,0.01-0.14c0.33-4.99,4.21-9.05,9.22-9.83h0c0.58-0.09,1.17-0.14,1.77-0.14
				h118.27c5.85,0,10.64,4.41,11,9.98c0.01,0.09,0.01,0.18,0.01,0.27c0,0.07,0,0.14,0.01,0.21C-54.55-63.29-54.55-63.22-54.55-63.15
				"/>
		</defs>
		<clipPath id="SVGID_2_">
			<use xlink:href="#SVGID_1_"  overflow="visible"/>
		</clipPath>
		<polygon clip-path="url(#SVGID_2_)" fill="#FFFFFF" points="763.41,-295.92 763.41,-295.95 -201.71,-295.95 -201.71,548.14 
			763.45,548.14 763.45,-295.95 763.41,-295.95 763.41,-295.92 763.38,-295.92 763.38,548.07 -201.64,548.07 -201.64,-295.88 
			763.41,-295.88 763.41,-295.92 763.38,-295.92 		"/>
	</g>
</g>
<g>
	<path fill="#F3C524" d="M6.46,13.38c-0.43,0.08-0.86,0.16-1.28,0.25c-0.13,0.03-0.27,0.05-0.4,0.08c-0.07,0.02-0.09-0.01-0.09-0.08
		c-0.01-0.31-0.02-0.61-0.03-0.92c-0.01-0.25-0.02-0.5-0.02-0.75c0-0.08-0.03-0.11-0.1-0.12C4,11.7,3.48,11.56,2.95,11.42
		c-0.11-0.03-0.11-0.06-0.07-0.15c0.22-0.49,0.43-0.98,0.65-1.46c0.04-0.09,0.02-0.14-0.05-0.2C3.07,9.26,2.67,8.91,2.26,8.57
		c-0.07-0.06-0.08-0.1,0-0.16c0.4-0.34,0.79-0.68,1.19-1.02c0.09-0.08,0.12-0.14,0.06-0.25C3.3,6.65,3.09,6.17,2.87,5.68
		C2.83,5.6,2.85,5.57,2.94,5.55c0.53-0.14,1.05-0.28,1.58-0.41c0.09-0.02,0.11-0.06,0.11-0.15c0.01-0.53,0.03-1.05,0.05-1.58
		c0.01-0.16,0.01-0.16,0.16-0.13c0.52,0.1,1.05,0.2,1.57,0.3c0.08,0.02,0.12,0,0.15-0.07c0.25-0.49,0.51-0.98,0.77-1.47
		c0.04-0.07,0.06-0.08,0.13-0.03c0.44,0.33,0.89,0.66,1.33,1c0.06,0.04,0.09,0.04,0.15,0c0.44-0.33,0.89-0.66,1.33-0.99
		c0.07-0.05,0.09-0.05,0.13,0.03c0.25,0.49,0.51,0.97,0.76,1.46c0.04,0.07,0.07,0.1,0.16,0.08c0.54-0.11,1.09-0.21,1.63-0.32
		c0.07-0.01,0.08,0.01,0.08,0.07c0.01,0.26,0.02,0.51,0.03,0.77c0.01,0.3,0.02,0.61,0.03,0.91c0,0.07,0.03,0.1,0.09,0.12
		c0.51,0.13,1.02,0.26,1.53,0.4c0.22,0.06,0.18,0.04,0.11,0.21c-0.2,0.47-0.41,0.94-0.63,1.41c-0.04,0.1-0.02,0.15,0.05,0.21
		c0.41,0.34,0.81,0.69,1.22,1.04c0.07,0.06,0.08,0.09,0,0.16c-0.4,0.34-0.8,0.69-1.2,1.02c-0.09,0.08-0.11,0.13-0.06,0.25
		c0.22,0.48,0.43,0.97,0.65,1.45c0.04,0.09,0.02,0.12-0.07,0.14c-0.52,0.13-1.04,0.28-1.57,0.41c-0.09,0.02-0.12,0.06-0.12,0.15
		c-0.01,0.53-0.03,1.06-0.05,1.59c0,0.14-0.01,0.14-0.14,0.11c-0.53-0.1-1.05-0.2-1.58-0.3c-0.08-0.02-0.12,0-0.16,0.08
		c-0.25,0.49-0.51,0.97-0.76,1.46c-0.04,0.08-0.06,0.08-0.13,0.03c-0.44-0.33-0.89-0.66-1.33-0.99c-0.05-0.04-0.09-0.05-0.15,0
		c-0.44,0.33-0.89,0.66-1.33,1C7.39,15,7.36,15,7.33,14.93c-0.25-0.49-0.51-0.98-0.77-1.47C6.53,13.42,6.52,13.36,6.46,13.38z
		 M8.85,12.94c2.46,0.02,4.44-2,4.46-4.41c0.02-2.48-2.01-4.49-4.43-4.5C6.41,4.01,4.41,6.04,4.4,8.47
		C4.39,10.93,6.42,12.95,8.85,12.94z"/>
	<path fill="#F4A710" d="M8.85,12.94c-2.44,0.02-4.46-2-4.45-4.47c0.01-2.43,2.01-4.45,4.49-4.44c2.42,0.01,4.45,2.01,4.43,4.5
		C13.3,10.93,11.31,12.96,8.85,12.94z"/>
</g>
</svg>
