<?xml version="1.0" encoding="utf-8"?>
<!-- Generator: Adobe Illustrator 22.0.0, SVG Export Plug-In . SVG Version: 6.00 Build 0)  -->
<svg version="1.1" id="Capa_1" xmlns="http://www.w3.org/2000/svg" xmlns:xlink="http://www.w3.org/1999/xlink" x="0px" y="0px"
	 viewBox="0 0 129.5 57.79" enable-background="new 0 0 129.5 57.79" xml:space="preserve">
<g>
	<g>
		<defs>
			<path id="SVGID_1_" d="M-703.89-29.55V94.8c0,5.66-4.56,10.28-10.32,10.63c-0.09,0.01-0.18,0.01-0.28,0.01
				c-0.14,0-0.28,0.01-0.43,0.01h-118.27c-0.14,0-0.28,0-0.43-0.01c-0.09,0-0.18-0.01-0.28-0.01c-5.76-0.35-10.32-4.98-10.32-10.63
				V-29.55c0-0.18,0.01-0.37,0.01-0.55c0-0.05,0-0.09,0.01-0.14c0.33-4.99,4.21-9.05,9.22-9.83h0c0.58-0.09,1.17-0.14,1.77-0.14
				h118.27c5.85,0,10.64,4.41,11,9.98c0.01,0.09,0.01,0.18,0.01,0.27c0,0.07,0,0.14,0.01,0.21
				C-703.89-29.69-703.89-29.62-703.89-29.55"/>
		</defs>
		<clipPath id="SVGID_2_">
			<use xlink:href="#SVGID_1_"  overflow="visible"/>
		</clipPath>
		<polygon clip-path="url(#SVGID_2_)" fill="#FFFFFF" points="114.08,-262.32 114.08,-262.35 -851.05,-262.35 -851.05,581.74 
			114.11,581.74 114.11,-262.35 114.08,-262.35 114.08,-262.32 114.04,-262.32 114.04,581.67 -850.97,581.67 -850.97,-262.28 
			114.08,-262.28 114.08,-262.32 114.04,-262.32 		"/>
	</g>
</g>
<g>
	<g>
		<g>
			<g>
				<path fill="#266D9A" d="M15.75,5.27V4.3h-0.64v0.98c-1.14,0.16-2.02,1.15-2.02,2.33c0,1.3,1.05,2.35,2.34,2.35
					c1.3,0,2.35-1.05,2.35-2.35C17.78,6.41,16.89,5.43,15.75,5.27z M22.95,5.27V4.3h-0.63v0.98c-1.15,0.16-2.03,1.15-2.03,2.33
					c0,1.3,1.05,2.35,2.35,2.35s2.34-1.05,2.34-2.35C24.99,6.41,24.11,5.43,22.95,5.27z M30.17,5.27V4.3h-0.64v0.98
					c-1.15,0.16-2.03,1.15-2.03,2.33c0,1.3,1.05,2.35,2.35,2.35c1.3,0,2.35-1.05,2.35-2.35C32.21,6.41,31.32,5.43,30.17,5.27z
					 M37.37,5.27V4.3h-0.64v0.98c-1.14,0.16-2.02,1.15-2.02,2.33c0,1.3,1.05,2.35,2.34,2.35c1.3,0,2.35-1.05,2.35-2.35
					C39.41,6.41,38.53,5.43,37.37,5.27z M44.58,5.27V4.3h-0.63v0.98c-1.15,0.16-2.03,1.14-2.03,2.33c0,1.3,1.05,2.35,2.35,2.35
					c1.29,0,2.34-1.05,2.34-2.35C46.62,6.41,45.73,5.43,44.58,5.27z M51.8,5.27V4.3h-0.64v0.98c-1.15,0.16-2.03,1.14-2.03,2.33
					c0,1.3,1.05,2.35,2.35,2.35s2.35-1.05,2.35-2.35C53.83,6.41,52.94,5.43,51.8,5.27z M59,5.27V4.3h-0.64v0.98
					c-1.14,0.16-2.02,1.15-2.02,2.33c0,1.3,1.05,2.35,2.34,2.35c1.3,0,2.35-1.05,2.35-2.35C61.04,6.41,60.15,5.43,59,5.27z
					 M66.21,5.27V4.3h-0.63v0.98c-1.15,0.16-2.03,1.15-2.03,2.33c0,1.3,1.05,2.35,2.35,2.35c1.29,0,2.34-1.05,2.34-2.35
					C68.25,6.41,67.35,5.43,66.21,5.27z M73.42,5.27V4.3h-0.64v0.98c-1.15,0.16-2.03,1.15-2.03,2.33c0,1.3,1.05,2.35,2.35,2.35
					s2.35-1.05,2.35-2.35C75.46,6.41,74.58,5.43,73.42,5.27z M80.63,5.27V4.3h-0.64v0.98c-1.15,0.16-2.02,1.15-2.02,2.33
					c0,1.3,1.04,2.35,2.34,2.35c1.3,0,2.35-1.05,2.35-2.35C82.67,6.41,81.79,5.43,80.63,5.27z M87.84,5.27V4.3h-0.63v0.98
					c-1.15,0.16-2.03,1.14-2.03,2.33c0,1.3,1.05,2.35,2.35,2.35c1.29,0,2.34-1.05,2.34-2.35C89.87,6.41,88.98,5.43,87.84,5.27z
					 M95.05,5.27V4.3h-0.64v0.98c-1.15,0.16-2.03,1.14-2.03,2.33c0,1.3,1.05,2.35,2.35,2.35c1.3,0,2.35-1.05,2.35-2.35
					C97.09,6.41,96.2,5.43,95.05,5.27z M102.26,5.27V4.3h-0.64v0.98c-1.15,0.16-2.02,1.15-2.02,2.33c0,1.3,1.04,2.35,2.34,2.35
					c1.3,0,2.35-1.05,2.35-2.35C104.3,6.41,103.4,5.43,102.26,5.27z M109.46,5.27V4.3h-0.63v0.98c-1.15,0.16-2.03,1.15-2.03,2.33
					c0,1.3,1.05,2.35,2.35,2.35c1.29,0,2.34-1.05,2.34-2.35C111.5,6.41,110.61,5.43,109.46,5.27z M116.68,5.27V4.3h-0.64v0.98
					c-1.15,0.16-2.03,1.15-2.03,2.33c0,1.3,1.05,2.35,2.35,2.35s2.35-1.05,2.35-2.35C118.72,6.41,117.84,5.43,116.68,5.27z
					 M57.19,30.47l-0.15-0.15c0.64-0.82,0.64-1.99,0-2.82l0.42-0.42c0.11-0.12,0.11-0.31,0-0.44l-0.16-0.15
					c-0.12-0.12-0.31-0.12-0.43,0l-0.41,0.41l-0.24-0.24l0.41-0.41c0.11-0.11,0.11-0.31,0-0.43l-0.16-0.16
					c-0.11-0.11-0.3-0.11-0.43,0l-0.41,0.41l-0.23-0.24l0.4-0.4c0.12-0.12,0.12-0.31,0-0.44l-0.15-0.15c-0.12-0.12-0.31-0.12-0.43,0
					l-0.41,0.41l-0.24-0.24l0.41-0.41c0.11-0.11,0.11-0.31,0-0.43l-0.16-0.16c-0.11-0.11-0.31-0.11-0.43,0l-0.41,0.41l-0.23-0.24
					l0.4-0.4c0.12-0.12,0.12-0.31,0-0.44l-0.15-0.15c-0.12-0.12-0.31-0.12-0.44,0l-0.4,0.4l-0.24-0.23l0.41-0.41
					c0.11-0.12,0.11-0.31,0-0.43l-0.16-0.16c-0.11-0.11-0.31-0.11-0.43,0l-0.41,0.41l-0.23-0.24l0.4-0.41c0.12-0.11,0.12-0.3,0-0.43
					l-0.15-0.15c-0.12-0.12-0.31-0.12-0.44,0l-0.4,0.4l-0.24-0.23l0.41-0.41c0.11-0.12,0.11-0.31,0-0.43l-0.16-0.16
					c-0.11-0.12-0.31-0.12-0.43,0l-0.41,0.41l-0.24-0.24l0.41-0.41c0.12-0.11,0.12-0.3,0-0.43l-0.16-0.16
					c-0.11-0.11-0.3-0.11-0.43,0l-0.4,0.41l-0.24-0.24l0.4-0.4c0.12-0.12,0.12-0.31,0-0.44l-0.15-0.15c-0.12-0.12-0.31-0.12-0.43,0
					l-0.42,0.42c-0.82-0.64-1.99-0.64-2.82,0l-0.42-0.42c-0.12-0.12-0.31-0.12-0.43,0l-0.16,0.15c-0.12,0.12-0.12,0.31,0,0.44
					l0.41,0.41l-0.24,0.23l-0.41-0.41c-0.11-0.11-0.31-0.11-0.43,0l-0.16,0.16c-0.11,0.12-0.11,0.31,0,0.43l0.41,0.41l-0.23,0.24
					l-0.41-0.41c-0.12-0.12-0.31-0.12-0.44,0l-0.15,0.16c-0.12,0.11-0.12,0.3,0,0.43l0.41,0.41l-0.24,0.24l-0.41-0.41
					c-0.11-0.12-0.31-0.12-0.43,0l-0.16,0.15c-0.11,0.12-0.11,0.31,0,0.43l0.41,0.41l-0.23,0.24l-0.41-0.41
					c-0.12-0.11-0.31-0.11-0.44,0l-0.15,0.16c-0.12,0.11-0.12,0.3,0,0.43l0.41,0.41l-0.24,0.24l-0.41-0.41
					c-0.11-0.12-0.31-0.12-0.43,0l-0.16,0.15c-0.11,0.12-0.11,0.31,0,0.44l0.41,0.41l-0.24,0.23l-0.41-0.41
					c-0.11-0.11-0.3-0.11-0.43,0l-0.15,0.16c-0.12,0.11-0.12,0.31,0,0.43l0.41,0.41l-0.24,0.24l-0.41-0.41
					c-0.12-0.12-0.31-0.12-0.43,0L39.5,25c-0.11,0.12-0.11,0.31,0,0.44l0.41,0.41l-0.24,0.23l-0.41-0.41c-0.11-0.11-0.3-0.11-0.43,0
					l-0.16,0.16c-0.11,0.11-0.11,0.31,0,0.43l0.41,0.41l-0.23,0.24l-0.41-0.41c-0.12-0.12-0.31-0.12-0.44,0l-0.15,0.15
					c-0.12,0.12-0.12,0.31,0,0.44l0.42,0.42c-0.64,0.82-0.64,1.99,0,2.82l-0.15,0.15h-12.2v-10.4c0-0.72-0.58-1.31-1.3-1.31H6.25
					v32.02c0,1.39,1.13,2.52,2.52,2.52h113.85c1.39,0,2.52-1.13,2.52-2.52V30.47H57.19z M9.75,51.9c-1.19,0-2.16-0.97-2.16-2.15
					c0-1.19,0.97-2.16,2.16-2.16c1.19,0,2.15,0.97,2.15,2.16C11.91,50.94,10.94,51.9,9.75,51.9z M121.78,51.9
					c-1.19,0-2.15-0.97-2.15-2.15c0-1.19,0.97-2.16,2.15-2.16c1.19,0,2.16,0.97,2.16,2.16C123.94,50.94,122.97,51.9,121.78,51.9z"/>
				<path fill="#266D9A" d="M122.62,4.3h-5.95v0.98c1.16,0.15,2.04,1.14,2.04,2.33c0,1.3-1.05,2.35-2.35,2.35s-2.35-1.05-2.35-2.35
					c0-1.19,0.88-2.17,2.03-2.33V4.3h-6.58v0.98c1.15,0.15,2.04,1.14,2.04,2.33c0,1.3-1.05,2.35-2.34,2.35
					c-1.3,0-2.35-1.05-2.35-2.35c0-1.19,0.88-2.17,2.03-2.33V4.3h-6.58v0.98c1.15,0.15,2.04,1.14,2.04,2.33
					c0,1.3-1.05,2.35-2.35,2.35c-1.3,0-2.34-1.05-2.34-2.35c0-1.19,0.87-2.17,2.02-2.33V4.3h-6.57v0.98
					c1.15,0.15,2.04,1.14,2.04,2.33c0,1.3-1.05,2.35-2.35,2.35c-1.3,0-2.35-1.05-2.35-2.35c0-1.19,0.88-2.17,2.03-2.33V4.3h-6.58
					v0.98c1.15,0.15,2.04,1.14,2.04,2.33c0,1.3-1.05,2.35-2.34,2.35c-1.3,0-2.35-1.05-2.35-2.35c0-1.19,0.88-2.17,2.03-2.33V4.3
					h-6.58v0.98c1.16,0.15,2.04,1.14,2.04,2.33c0,1.3-1.05,2.35-2.35,2.35c-1.3,0-2.34-1.05-2.34-2.35c0-1.19,0.87-2.17,2.02-2.33
					V4.3h-6.57v0.98c1.16,0.15,2.04,1.14,2.04,2.33c0,1.3-1.05,2.35-2.35,2.35s-2.35-1.05-2.35-2.35c0-1.19,0.88-2.17,2.03-2.33V4.3
					h-6.58v0.98c1.15,0.15,2.04,1.14,2.04,2.33c0,1.3-1.05,2.35-2.34,2.35c-1.3,0-2.35-1.05-2.35-2.35c0-1.19,0.88-2.17,2.03-2.33
					V4.3H59v0.98c1.15,0.15,2.04,1.14,2.04,2.33c0,1.3-1.05,2.35-2.35,2.35c-1.29,0-2.34-1.05-2.34-2.35c0-1.19,0.88-2.17,2.02-2.33
					V4.3H51.8v0.98c1.15,0.15,2.04,1.14,2.04,2.33c0,1.3-1.05,2.35-2.35,2.35s-2.35-1.05-2.35-2.35c0-1.19,0.88-2.17,2.03-2.33V4.3
					h-6.58v0.98c1.15,0.15,2.04,1.14,2.04,2.33c0,1.3-1.05,2.35-2.34,2.35c-1.3,0-2.35-1.05-2.35-2.35c0-1.19,0.88-2.17,2.03-2.33
					V4.3h-6.58v0.98c1.16,0.15,2.04,1.14,2.04,2.33c0,1.3-1.05,2.35-2.35,2.35c-1.29,0-2.34-1.05-2.34-2.35
					c0-1.19,0.88-2.17,2.02-2.33V4.3h-6.57v0.98c1.16,0.15,2.04,1.14,2.04,2.33c0,1.3-1.05,2.35-2.35,2.35
					c-1.3,0-2.35-1.05-2.35-2.35c0-1.19,0.88-2.17,2.03-2.33V4.3h-6.58v0.98c1.16,0.15,2.04,1.14,2.04,2.33
					c0,1.3-1.04,2.35-2.34,2.35S20.3,8.9,20.3,7.61c0-1.19,0.88-2.17,2.03-2.33V4.3h-6.58v0.98c1.15,0.15,2.04,1.14,2.04,2.33
					c0,1.3-1.05,2.35-2.35,2.35c-1.29,0-2.34-1.05-2.34-2.35c0-1.19,0.88-2.17,2.02-2.33V4.3H8.78c-1.39,0-2.52,1.12-2.52,2.51
					v11.95h18.37c0.72,0,1.3,0.59,1.3,1.31v10.4h12.2l0.15-0.15c-0.64-0.82-0.64-1.99,0-2.82l-0.42-0.42
					c-0.12-0.12-0.12-0.31,0-0.44l0.15-0.15c0.12-0.12,0.31-0.12,0.44,0l0.41,0.41l0.23-0.24l-0.41-0.41
					c-0.11-0.11-0.11-0.31,0-0.43l0.16-0.16c0.12-0.11,0.31-0.11,0.43,0l0.41,0.41l0.24-0.23l-0.41-0.41
					c-0.11-0.12-0.11-0.31,0-0.44l0.16-0.15c0.11-0.12,0.3-0.12,0.43,0l0.41,0.41l0.24-0.24l-0.41-0.41c-0.12-0.11-0.12-0.31,0-0.43
					l0.15-0.16c0.12-0.11,0.31-0.11,0.43,0l0.41,0.41l0.24-0.23l-0.41-0.41c-0.11-0.12-0.11-0.31,0-0.44l0.16-0.15
					c0.11-0.12,0.31-0.12,0.43,0l0.41,0.41l0.24-0.24l-0.41-0.41c-0.12-0.12-0.12-0.31,0-0.43l0.15-0.16c0.12-0.11,0.31-0.11,0.44,0
					l0.41,0.41l0.23-0.24l-0.41-0.41c-0.11-0.11-0.11-0.3,0-0.43l0.16-0.15c0.11-0.12,0.31-0.12,0.43,0l0.41,0.41l0.24-0.24
					l-0.41-0.41c-0.12-0.12-0.12-0.31,0-0.43l0.15-0.16c0.12-0.12,0.31-0.12,0.44,0l0.41,0.41l0.23-0.24l-0.41-0.41
					c-0.11-0.11-0.11-0.3,0-0.43l0.16-0.16c0.11-0.11,0.31-0.11,0.43,0l0.41,0.41l0.24-0.23l-0.41-0.41c-0.12-0.12-0.12-0.31,0-0.44
					l0.16-0.15c0.11-0.12,0.3-0.12,0.43,0l0.42,0.42c0.82-0.64,1.99-0.64,2.82,0l0.42-0.42c0.11-0.12,0.3-0.12,0.43,0l0.15,0.15
					c0.12,0.12,0.12,0.31,0,0.44l-0.4,0.4l0.24,0.24l0.4-0.41c0.12-0.11,0.31-0.11,0.43,0l0.16,0.16c0.12,0.12,0.12,0.31,0,0.43
					l-0.41,0.41l0.24,0.24l0.41-0.41c0.11-0.12,0.31-0.12,0.43,0l0.16,0.16c0.11,0.11,0.11,0.3,0,0.43l-0.41,0.41l0.24,0.23l0.4-0.4
					c0.12-0.12,0.31-0.12,0.44,0l0.15,0.15c0.12,0.12,0.12,0.31,0,0.43l-0.4,0.41l0.23,0.24l0.41-0.41c0.11-0.11,0.31-0.11,0.43,0
					l0.16,0.16c0.11,0.11,0.11,0.3,0,0.43l-0.41,0.41l0.24,0.23l0.4-0.4c0.12-0.12,0.31-0.12,0.44,0l0.15,0.15
					c0.12,0.12,0.12,0.31,0,0.44l-0.4,0.4l0.23,0.24l0.41-0.41c0.11-0.11,0.31-0.11,0.43,0l0.16,0.16c0.11,0.11,0.11,0.31,0,0.43
					l-0.41,0.41l0.24,0.24l0.41-0.41c0.11-0.12,0.3-0.12,0.43,0L55.81,25c0.12,0.12,0.12,0.31,0,0.44l-0.4,0.4l0.23,0.24l0.41-0.41
					c0.12-0.11,0.31-0.11,0.43,0l0.16,0.16c0.11,0.11,0.11,0.31,0,0.43l-0.41,0.41l0.24,0.24l0.41-0.41c0.11-0.12,0.3-0.12,0.43,0
					l0.16,0.15c0.11,0.12,0.11,0.31,0,0.44l-0.42,0.42c0.64,0.82,0.64,1.99,0,2.82l0.15,0.15h67.96V6.81
					C125.15,5.42,124.02,4.3,122.62,4.3z M9.75,10c-1.19,0-2.16-0.97-2.16-2.15c0-1.19,0.97-2.16,2.16-2.16
					c1.19,0,2.15,0.97,2.15,2.16C11.91,9.03,10.94,10,9.75,10z M121.78,10c-1.19,0-2.15-0.97-2.15-2.15c0-1.19,0.97-2.16,2.15-2.16
					c1.19,0,2.16,0.97,2.16,2.16C123.94,9.03,122.97,10,121.78,10z"/>
				<path fill="#CCCCCC" d="M25.92,20.06v20.4c0,0.72-0.58,1.3-1.3,1.3H5.34c-0.71,0-1.3-0.58-1.3-1.3v-20.4
					c0-0.72,0.59-1.31,1.3-1.31h19.28C25.34,18.76,25.92,19.34,25.92,20.06z"/>
				<g>
					<g>
						<path fill="#ACB0B1" d="M17.78,7.61c0,1.3-1.05,2.35-2.35,2.35c-1.29,0-2.34-1.05-2.34-2.35c0-1.19,0.88-2.17,2.02-2.33
							c0.1-0.01,0.21-0.02,0.32-0.02c0.1,0,0.21,0.01,0.31,0.02C16.89,5.43,17.78,6.41,17.78,7.61z"/>
						<circle fill="#F8F9F8" cx="15.44" cy="7.61" r="1.34"/>
						<rect x="15.11" y="4.06" fill="#C1D1D0" width="0.64" height="2.89"/>
					</g>
					<g>
						<path fill="#ACB0B1" d="M24.99,7.61c0,1.3-1.04,2.35-2.34,2.35S20.3,8.9,20.3,7.61c0-1.19,0.88-2.17,2.03-2.33
							c0.1-0.01,0.21-0.02,0.32-0.02c0.1,0,0.21,0.01,0.3,0.02C24.11,5.43,24.99,6.41,24.99,7.61z"/>
						<circle fill="#F8F9F8" cx="22.65" cy="7.61" r="1.34"/>
						<rect x="22.33" y="4.06" fill="#C1D1D0" width="0.63" height="2.89"/>
					</g>
					<g>
						<path fill="#ACB0B1" d="M32.21,7.61c0,1.3-1.05,2.35-2.35,2.35c-1.3,0-2.35-1.05-2.35-2.35c0-1.19,0.88-2.17,2.03-2.33
							c0.1-0.01,0.21-0.02,0.32-0.02c0.1,0,0.21,0.01,0.31,0.02C31.32,5.43,32.21,6.41,32.21,7.61z"/>
						<circle fill="#F8F9F8" cx="29.86" cy="7.61" r="1.34"/>
						<rect x="29.53" y="4.06" fill="#C1D1D0" width="0.64" height="2.89"/>
					</g>
					<g>
						<path fill="#ACB0B1" d="M39.41,7.61c0,1.3-1.05,2.35-2.35,2.35c-1.29,0-2.34-1.05-2.34-2.35c0-1.19,0.88-2.17,2.02-2.33
							c0.1-0.01,0.21-0.02,0.32-0.02c0.1,0,0.21,0.01,0.31,0.02C38.53,5.43,39.41,6.41,39.41,7.61z"/>
						<circle fill="#F8F9F8" cx="37.06" cy="7.61" r="1.34"/>
						<rect x="36.74" y="4.06" fill="#C1D1D0" width="0.64" height="2.89"/>
					</g>
					<g>
						<path fill="#ACB0B1" d="M46.62,7.61c0,1.3-1.05,2.35-2.34,2.35c-1.3,0-2.35-1.05-2.35-2.35c0-1.19,0.88-2.17,2.03-2.33
							c0.1-0.01,0.22-0.02,0.32-0.02c0.1,0,0.21,0.01,0.3,0.02C45.73,5.43,46.62,6.41,46.62,7.61z"/>
						<circle fill="#F8F9F8" cx="44.27" cy="7.61" r="1.34"/>
						<rect x="43.95" y="4.06" fill="#C1D1D0" width="0.63" height="2.89"/>
					</g>
					<g>
						<path fill="#ACB0B1" d="M53.83,7.61c0,1.3-1.05,2.35-2.35,2.35s-2.35-1.05-2.35-2.35c0-1.19,0.88-2.17,2.03-2.33
							c0.1-0.01,0.22-0.02,0.32-0.02c0.1,0,0.21,0.01,0.31,0.02C52.94,5.43,53.83,6.41,53.83,7.61z"/>
						<circle fill="#F8F9F8" cx="51.48" cy="7.61" r="1.34"/>
						<rect x="51.16" y="4.06" fill="#C1D1D0" width="0.64" height="2.89"/>
					</g>
					<g>
						<path fill="#ACB0B1" d="M61.04,7.61c0,1.3-1.05,2.35-2.35,2.35c-1.29,0-2.34-1.05-2.34-2.35c0-1.19,0.88-2.17,2.02-2.33
							c0.1-0.01,0.21-0.02,0.32-0.02c0.1,0,0.21,0.01,0.31,0.02C60.15,5.43,61.04,6.41,61.04,7.61z"/>
						<circle fill="#F8F9F8" cx="58.69" cy="7.61" r="1.34"/>
						<rect x="58.37" y="4.06" fill="#C1D1D0" width="0.64" height="2.89"/>
					</g>
					<g>
						<path fill="#ACB0B1" d="M68.25,7.61c0,1.3-1.05,2.35-2.34,2.35c-1.3,0-2.35-1.05-2.35-2.35c0-1.19,0.88-2.17,2.03-2.33
							c0.1-0.01,0.21-0.02,0.32-0.02c0.1,0,0.21,0.01,0.3,0.02C67.35,5.43,68.25,6.41,68.25,7.61z"/>
						<circle fill="#F8F9F8" cx="65.9" cy="7.61" r="1.34"/>
						<rect x="65.58" y="4.06" fill="#C1D1D0" width="0.63" height="2.89"/>
					</g>
					<g>
						<path fill="#ACB0B1" d="M75.46,7.61c0,1.3-1.05,2.35-2.35,2.35s-2.35-1.05-2.35-2.35c0-1.19,0.88-2.17,2.03-2.33
							c0.1-0.01,0.21-0.02,0.32-0.02c0.1,0,0.21,0.01,0.31,0.02C74.58,5.43,75.46,6.41,75.46,7.61z"/>
						<circle fill="#F8F9F8" cx="73.11" cy="7.61" r="1.34"/>
						<rect x="72.79" y="4.06" fill="#C1D1D0" width="0.64" height="2.89"/>
					</g>
					<g>
						<path fill="#ACB0B1" d="M82.67,7.61c0,1.3-1.05,2.35-2.35,2.35c-1.3,0-2.34-1.05-2.34-2.35c0-1.19,0.87-2.17,2.02-2.33
							c0.1-0.01,0.21-0.02,0.32-0.02c0.1,0,0.21,0.01,0.31,0.02C81.79,5.43,82.67,6.41,82.67,7.61z"/>
						<circle fill="#F8F9F8" cx="80.32" cy="7.61" r="1.34"/>
						<rect x="79.99" y="4.06" fill="#C1D1D0" width="0.64" height="2.89"/>
					</g>
					<g>
						<path fill="#ACB0B1" d="M89.87,7.61c0,1.3-1.05,2.35-2.34,2.35c-1.3,0-2.35-1.05-2.35-2.35c0-1.19,0.88-2.17,2.03-2.33
							c0.1-0.01,0.22-0.02,0.32-0.02s0.21,0.01,0.3,0.02C88.98,5.43,89.87,6.41,89.87,7.61z"/>
						<circle fill="#F8F9F8" cx="87.53" cy="7.61" r="1.34"/>
						<rect x="87.21" y="4.06" fill="#C1D1D0" width="0.63" height="2.89"/>
					</g>
					<g>
						<path fill="#ACB0B1" d="M104.3,7.61c0,1.3-1.05,2.35-2.35,2.35c-1.3,0-2.34-1.05-2.34-2.35c0-1.19,0.87-2.17,2.02-2.33
							c0.1-0.01,0.21-0.02,0.32-0.02c0.1,0,0.21,0.01,0.31,0.02C103.4,5.43,104.3,6.41,104.3,7.61z"/>
						<circle fill="#F8F9F8" cx="101.95" cy="7.61" r="1.34"/>
						<rect x="101.62" y="4.06" fill="#C1D1D0" width="0.64" height="2.89"/>
					</g>
					<g>
						<path fill="#ACB0B1" d="M97.09,7.61c0,1.3-1.05,2.35-2.35,2.35c-1.3,0-2.35-1.05-2.35-2.35c0-1.19,0.88-2.17,2.03-2.33
							c0.1-0.01,0.22-0.02,0.32-0.02c0.1,0,0.21,0.01,0.31,0.02C96.2,5.43,97.09,6.41,97.09,7.61z"/>
						<circle fill="#F8F9F8" cx="94.74" cy="7.61" r="1.34"/>
						<rect x="94.42" y="4.06" fill="#C1D1D0" width="0.64" height="2.89"/>
					</g>
					<g>
						<path fill="#ACB0B1" d="M111.5,7.61c0,1.3-1.05,2.35-2.34,2.35c-1.3,0-2.35-1.05-2.35-2.35c0-1.19,0.88-2.17,2.03-2.33
							c0.1-0.01,0.21-0.02,0.32-0.02c0.1,0,0.21,0.01,0.3,0.02C110.61,5.43,111.5,6.41,111.5,7.61z"/>
						<circle fill="#F8F9F8" cx="109.16" cy="7.61" r="1.34"/>
						<rect x="108.84" y="4.06" fill="#C1D1D0" width="0.63" height="2.89"/>
					</g>
					<g>
						<path fill="#ACB0B1" d="M118.72,7.61c0,1.3-1.05,2.35-2.35,2.35s-2.35-1.05-2.35-2.35c0-1.19,0.88-2.17,2.03-2.33
							c0.1-0.01,0.21-0.02,0.32-0.02c0.1,0,0.21,0.01,0.31,0.02C117.84,5.43,118.72,6.41,118.72,7.61z"/>
						<circle fill="#F8F9F8" cx="116.36" cy="7.61" r="1.34"/>
						<rect x="116.04" y="4.06" fill="#C1D1D0" width="0.64" height="2.89"/>
					</g>
				</g>
				<g>
					<g>
						<circle fill="#ACB0B1" cx="116.36" cy="50.2" r="2.35"/>
						<circle fill="#F8F9F8" cx="116.36" cy="50.2" r="1.34"/>
						
							<rect x="116.05" y="50.85" transform="matrix(-1 -1.224647e-16 1.224647e-16 -1 232.7407 104.5937)" fill="#C1D1D0" width="0.63" height="2.89"/>
					</g>
					<g>
						<circle fill="#ACB0B1" cx="109.16" cy="50.2" r="2.35"/>
						<circle fill="#F8F9F8" cx="109.16" cy="50.2" r="1.34"/>
						
							<rect x="108.85" y="50.85" transform="matrix(-1 -1.224647e-16 1.224647e-16 -1 218.3225 104.5937)" fill="#C1D1D0" width="0.63" height="2.89"/>
					</g>
					<g>
						<circle fill="#ACB0B1" cx="101.95" cy="50.2" r="2.35"/>
						<circle fill="#F8F9F8" cx="101.95" cy="50.2" r="1.34"/>
						
							<rect x="101.64" y="50.85" transform="matrix(-1 -1.224647e-16 1.224647e-16 -1 203.9044 104.5937)" fill="#C1D1D0" width="0.63" height="2.89"/>
					</g>
					<g>
						<circle fill="#ACB0B1" cx="94.74" cy="50.2" r="2.35"/>
						<circle fill="#F8F9F8" cx="94.74" cy="50.2" r="1.34"/>
						
							<rect x="94.43" y="50.85" transform="matrix(-1 -1.224647e-16 1.224647e-16 -1 189.4862 104.5937)" fill="#C1D1D0" width="0.63" height="2.89"/>
					</g>
					<g>
						<circle fill="#ACB0B1" cx="87.53" cy="50.2" r="2.35"/>
						<circle fill="#F8F9F8" cx="87.53" cy="50.2" r="1.34"/>
						
							<rect x="87.22" y="50.85" transform="matrix(-1 -1.224647e-16 1.224647e-16 -1 175.068 104.5937)" fill="#C1D1D0" width="0.63" height="2.89"/>
					</g>
					<g>
						<circle fill="#ACB0B1" cx="80.32" cy="50.2" r="2.35"/>
						<circle fill="#F8F9F8" cx="80.32" cy="50.2" r="1.34"/>
						
							<rect x="80.01" y="50.85" transform="matrix(-1 -1.224647e-16 1.224647e-16 -1 160.6498 104.5937)" fill="#C1D1D0" width="0.63" height="2.89"/>
					</g>
					<g>
						<circle fill="#ACB0B1" cx="73.11" cy="50.2" r="2.35"/>
						<circle fill="#F8F9F8" cx="73.11" cy="50.2" r="1.34"/>
						
							<rect x="72.8" y="50.85" transform="matrix(-1 -1.224647e-16 1.224647e-16 -1 146.2316 104.5937)" fill="#C1D1D0" width="0.63" height="2.89"/>
					</g>
					<g>
						<circle fill="#ACB0B1" cx="65.9" cy="50.2" r="2.35"/>
						<circle fill="#F8F9F8" cx="65.9" cy="50.2" r="1.34"/>
						
							<rect x="65.59" y="50.85" transform="matrix(-1 -1.224647e-16 1.224647e-16 -1 131.8134 104.5937)" fill="#C1D1D0" width="0.63" height="2.89"/>
					</g>
					<g>
						<circle fill="#ACB0B1" cx="58.69" cy="50.2" r="2.35"/>
						<circle fill="#F8F9F8" cx="58.69" cy="50.2" r="1.34"/>
						
							<rect x="58.38" y="50.85" transform="matrix(-1 -1.224647e-16 1.224647e-16 -1 117.3953 104.5937)" fill="#C1D1D0" width="0.63" height="2.89"/>
					</g>
					<g>
						<circle fill="#ACB0B1" cx="51.48" cy="50.2" r="2.35"/>
						<circle fill="#F8F9F8" cx="51.48" cy="50.2" r="1.34"/>
						
							<rect x="51.17" y="50.85" transform="matrix(-1 -1.224647e-16 1.224647e-16 -1 102.9771 104.5937)" fill="#C1D1D0" width="0.63" height="2.89"/>
					</g>
					<g>
						<circle fill="#ACB0B1" cx="44.27" cy="50.2" r="2.35"/>
						<circle fill="#F8F9F8" cx="44.27" cy="50.2" r="1.34"/>
						
							<rect x="43.96" y="50.85" transform="matrix(-1 -1.224647e-16 1.224647e-16 -1 88.5589 104.5937)" fill="#C1D1D0" width="0.63" height="2.89"/>
					</g>
					<g>
						<circle fill="#ACB0B1" cx="29.86" cy="50.2" r="2.35"/>
						<circle fill="#F8F9F8" cx="29.86" cy="50.2" r="1.34"/>
						
							<rect x="29.55" y="50.85" transform="matrix(-1 -1.224647e-16 1.224647e-16 -1 59.7225 104.5937)" fill="#C1D1D0" width="0.63" height="2.89"/>
					</g>
					<g>
						<circle fill="#ACB0B1" cx="37.06" cy="50.2" r="2.35"/>
						<circle fill="#F8F9F8" cx="37.06" cy="50.2" r="1.34"/>
						
							<rect x="36.75" y="50.85" transform="matrix(-1 -1.224647e-16 1.224647e-16 -1 74.1407 104.5937)" fill="#C1D1D0" width="0.63" height="2.89"/>
					</g>
					<g>
						<circle fill="#ACB0B1" cx="22.65" cy="50.2" r="2.35"/>
						<circle fill="#F8F9F8" cx="22.65" cy="50.2" r="1.34"/>
						
							<rect x="22.34" y="50.85" transform="matrix(-1 -1.224647e-16 1.224647e-16 -1 45.3043 104.5937)" fill="#C1D1D0" width="0.63" height="2.89"/>
					</g>
					<g>
						<circle fill="#ACB0B1" cx="15.44" cy="50.2" r="2.35"/>
						<circle fill="#F8F9F8" cx="15.44" cy="50.2" r="1.34"/>
						
							<rect x="15.13" y="50.85" transform="matrix(-1 -1.224647e-16 1.224647e-16 -1 30.8862 104.5937)" fill="#C1D1D0" width="0.63" height="2.89"/>
					</g>
				</g>
			</g>
			<g>
				<path fill="#373737" d="M57.04,30.31c-0.05,0.05-0.09,0.1-0.13,0.15l-0.06,0.06l-0.38,0.39l-1.06,1.06l-0.59,0.58l-0.23,0.24
					l-0.82,0.82l-0.59,0.59l-1.64,1.64l-0.24,0.23l-0.58,0.59l-1.06,1.06l-0.39,0.38c-0.07,0.07-0.13,0.13-0.21,0.18
					c-0.82,0.64-1.99,0.64-2.82,0c-0.08-0.05-0.14-0.11-0.21-0.18l-0.39-0.39l-0.82-0.82l-0.24-0.23l-0.58-0.59l-0.82-0.82
					l-0.24-0.23l-0.59-0.59l-0.23-0.24l-0.59-0.59l-0.24-0.23l-0.59-0.59l-0.23-0.24l-0.59-0.59l-0.24-0.24l-0.59-0.58l-0.24-0.24
					l-0.39-0.39c-0.02-0.02-0.04-0.04-0.06-0.06c-0.05-0.05-0.09-0.1-0.12-0.15c-0.64-0.82-0.64-1.99,0-2.82
					c0.05-0.08,0.11-0.14,0.18-0.21l0.4-0.39l0.23-0.24l0.59-0.59l0.24-0.23l0.59-0.59l0.24-0.24l0.58-0.59l0.24-0.23l1.41-1.41
					l0.23-0.24l0.59-0.58l0.82-0.82l0.23-0.24l0.59-0.59l0.24-0.23l0.39-0.4c0.07-0.07,0.13-0.13,0.21-0.18
					c0.82-0.64,1.99-0.64,2.82,0c0.08,0.05,0.14,0.11,0.21,0.18l0.39,0.39l0.24,0.24l0.58,0.59l0.82,0.82l0.24,0.23l0.59,0.59
					l0.23,0.24l0.59,0.59l0.24,0.23l0.59,0.59l0.23,0.24l0.82,0.82l0.59,0.58l0.23,0.24l1.21,1.21c0.07,0.07,0.13,0.13,0.19,0.21
					C57.67,28.32,57.67,29.49,57.04,30.31z"/>
				<g>
					<path fill="#ABABAB" d="M50.06,19.69l-0.81,0.81c-0.11,0.11-0.3,0.11-0.43,0l-0.15-0.16c-0.12-0.11-0.12-0.31,0-0.43l0.39-0.39
						l0.42-0.42c0.11-0.12,0.3-0.12,0.43,0l0.15,0.15C50.18,19.38,50.18,19.57,50.06,19.69z"/>
					<path fill="#ABABAB" d="M50.88,20.51l-0.41,0.41l-0.4,0.4c-0.12,0.12-0.31,0.12-0.43,0l-0.16-0.15c-0.11-0.12-0.11-0.31,0-0.43
						l0.41-0.41l0.4-0.41c0.12-0.11,0.31-0.11,0.43,0l0.16,0.16C51.01,20.21,51.01,20.4,50.88,20.51z"/>
					<path fill="#ABABAB" d="M51.71,21.34l-0.41,0.41l-0.4,0.4c-0.12,0.11-0.31,0.11-0.44,0l-0.15-0.16c-0.12-0.11-0.12-0.3,0-0.43
						l0.4-0.4l0.41-0.41c0.11-0.12,0.31-0.12,0.43,0l0.16,0.16C51.82,21.02,51.82,21.21,51.71,21.34z"/>
					<path fill="#ABABAB" d="M52.53,22.15l-0.4,0.41l-0.41,0.41c-0.11,0.11-0.31,0.11-0.43,0l-0.16-0.16
						c-0.11-0.12-0.11-0.31,0-0.43l0.41-0.41l0.4-0.4c0.12-0.12,0.31-0.12,0.44,0l0.15,0.15C52.65,21.85,52.65,22.04,52.53,22.15z"
						/>
					<path fill="#ABABAB" d="M53.35,22.98l-0.41,0.41l-0.4,0.4c-0.12,0.12-0.31,0.12-0.44,0l-0.15-0.16c-0.12-0.11-0.12-0.3,0-0.43
						l0.4-0.4l0.41-0.41c0.11-0.11,0.31-0.11,0.43,0l0.16,0.16C53.46,22.66,53.46,22.85,53.35,22.98z"/>
					<path fill="#ABABAB" d="M54.17,23.8l-0.4,0.4l-0.41,0.41c-0.11,0.11-0.31,0.11-0.43,0l-0.16-0.16c-0.11-0.11-0.11-0.31,0-0.43
						l0.41-0.41l0.4-0.4c0.12-0.12,0.31-0.12,0.44,0l0.15,0.15C54.29,23.49,54.29,23.68,54.17,23.8z"/>
					<path fill="#ABABAB" d="M54.99,24.62l-0.41,0.41l-0.4,0.4c-0.12,0.12-0.31,0.12-0.44,0l-0.15-0.15c-0.12-0.12-0.12-0.31,0-0.44
						l0.4-0.4l0.41-0.41c0.11-0.11,0.31-0.11,0.43,0l0.16,0.16C55.1,24.3,55.1,24.5,54.99,24.62z"/>
					<path fill="#ABABAB" d="M56.63,26.26l-0.41,0.41l-0.4,0.4c-0.12,0.12-0.31,0.12-0.43,0l-0.16-0.15c-0.11-0.12-0.11-0.31,0-0.44
						l0.4-0.4l0.41-0.41c0.12-0.11,0.31-0.11,0.43,0l0.16,0.16C56.74,25.94,56.74,26.14,56.63,26.26z"/>
					<path fill="#ABABAB" d="M57.46,27.08l-0.42,0.42l-0.4,0.39c-0.11,0.11-0.3,0.11-0.43,0l-0.15-0.16c-0.12-0.11-0.12-0.31,0-0.43
						l0.4-0.4l0.41-0.41c0.11-0.12,0.3-0.12,0.43,0l0.16,0.15C57.57,26.77,57.57,26.96,57.46,27.08z"/>
					<path fill="#ABABAB" d="M55.81,25.44L55,26.25c-0.11,0.11-0.3,0.11-0.43,0l-0.16-0.16c-0.11-0.11-0.11-0.31,0-0.43l0.41-0.4
						l0.41-0.41c0.11-0.12,0.3-0.12,0.43,0L55.81,25C55.93,25.13,55.93,25.32,55.81,25.44z"/>
				</g>
				<g>
					<path fill="#ABABAB" d="M39.28,30.47c-0.01,0.02-0.02,0.03-0.03,0.04l-0.81,0.81c-0.12,0.12-0.31,0.12-0.44,0l-0.15-0.15
						c-0.12-0.12-0.12-0.31,0-0.43l0.42-0.42l0.39-0.39c0.12-0.12,0.31-0.12,0.43,0l0.16,0.15C39.36,30.19,39.36,30.35,39.28,30.47z
						"/>
					<path fill="#ABABAB" d="M38.82,32.12l-0.13-0.13c-0.13-0.13-0.13-0.33,0-0.45l0.78-0.78c0.13-0.13,0.33-0.13,0.45,0l0.13,0.13
						c0.13,0.13,0.13,0.33,0,0.45l-0.78,0.78C39.15,32.25,38.95,32.25,38.82,32.12z"/>
					<path fill="#ABABAB" d="M39.64,32.94l-0.13-0.13c-0.13-0.13-0.13-0.33,0-0.45l0.78-0.78c0.13-0.13,0.33-0.13,0.45,0l0.13,0.13
						c0.13,0.13,0.13,0.33,0,0.45l-0.78,0.78C39.97,33.07,39.77,33.07,39.64,32.94z"/>
					<path fill="#ABABAB" d="M40.46,33.76l-0.13-0.13c-0.13-0.13-0.13-0.33,0-0.45l0.78-0.78c0.13-0.13,0.33-0.13,0.45,0l0.13,0.13
						c0.13,0.13,0.13,0.33,0,0.45l-0.78,0.78C40.79,33.89,40.59,33.89,40.46,33.76z"/>
					<path fill="#ABABAB" d="M41.28,34.59l-0.13-0.13c-0.13-0.13-0.13-0.33,0-0.45l0.78-0.78c0.13-0.13,0.33-0.13,0.45,0l0.13,0.13
						c0.13,0.13,0.13,0.33,0,0.45l-0.78,0.78C41.61,34.71,41.41,34.71,41.28,34.59z"/>
					<path fill="#ABABAB" d="M42.11,35.41l-0.13-0.13c-0.13-0.13-0.13-0.33,0-0.45l0.78-0.78c0.13-0.13,0.33-0.13,0.45,0l0.13,0.13
						c0.13,0.13,0.13,0.33,0,0.45l-0.78,0.78C42.43,35.53,42.23,35.53,42.11,35.41z"/>
					<path fill="#ABABAB" d="M42.93,36.23l-0.13-0.13c-0.13-0.13-0.13-0.33,0-0.45l0.78-0.78c0.13-0.13,0.33-0.13,0.45,0l0.13,0.13
						c0.13,0.13,0.13,0.33,0,0.45l-0.78,0.78C43.25,36.35,43.05,36.35,42.93,36.23z"/>
					<path fill="#ABABAB" d="M44.57,37.87l-0.13-0.13c-0.13-0.13-0.13-0.33,0-0.45l0.78-0.78c0.13-0.13,0.33-0.13,0.45,0l0.13,0.13
						c0.13,0.13,0.13,0.33,0,0.45l-0.78,0.78C44.9,37.99,44.69,37.99,44.57,37.87z"/>
					<path fill="#ABABAB" d="M45.39,38.69l-0.13-0.13c-0.13-0.13-0.13-0.33,0-0.45l0.78-0.78c0.13-0.13,0.33-0.13,0.45,0l0.13,0.13
						c0.13,0.13,0.13,0.33,0,0.45l-0.78,0.78C45.72,38.81,45.51,38.81,45.39,38.69z"/>
					<path fill="#ABABAB" d="M43.75,37.05l-0.13-0.13c-0.13-0.13-0.13-0.33,0-0.45l0.78-0.78c0.13-0.13,0.33-0.13,0.45,0l0.13,0.13
						c0.13,0.13,0.13,0.33,0,0.45l-0.78,0.78C44.07,37.17,43.87,37.17,43.75,37.05z"/>
				</g>
				<g>
					<path fill="#ABABAB" d="M39.25,27.73l-0.16,0.16c-0.11,0.11-0.3,0.11-0.43,0l-0.39-0.39l-0.42-0.42
						c-0.12-0.12-0.12-0.31,0-0.44l0.15-0.15c0.12-0.12,0.31-0.12,0.44,0l0.41,0.41l0.4,0.4C39.36,27.41,39.36,27.61,39.25,27.73z"
						/>
					<path fill="#ABABAB" d="M40.07,26.91l-0.15,0.15c-0.12,0.12-0.31,0.12-0.43,0l-0.41-0.4l-0.41-0.41
						c-0.11-0.11-0.11-0.31,0-0.43l0.16-0.16c0.12-0.11,0.31-0.11,0.43,0l0.81,0.81C40.19,26.6,40.19,26.79,40.07,26.91z"/>
					<path fill="#ABABAB" d="M40.89,26.09l-0.16,0.16c-0.11,0.11-0.3,0.11-0.43,0l-0.4-0.4l-0.41-0.41c-0.11-0.12-0.11-0.31,0-0.44
						l0.16-0.15c0.11-0.12,0.3-0.12,0.43,0l0.41,0.41l0.4,0.4C41,25.77,41,25.97,40.89,26.09z"/>
					<path fill="#ABABAB" d="M41.72,25.27l-0.16,0.15c-0.12,0.12-0.31,0.12-0.43,0l-0.4-0.4l-0.41-0.41c-0.12-0.11-0.12-0.31,0-0.43
						l0.15-0.16c0.12-0.11,0.31-0.11,0.43,0l0.41,0.41l0.41,0.4C41.83,24.96,41.83,25.15,41.72,25.27z"/>
					<path fill="#ABABAB" d="M42.53,24.45l-0.15,0.16c-0.12,0.11-0.31,0.11-0.44,0l-0.81-0.81c-0.11-0.12-0.11-0.31,0-0.44
						l0.16-0.15c0.11-0.12,0.31-0.12,0.43,0l0.81,0.81C42.65,24.13,42.65,24.33,42.53,24.45z"/>
					<path fill="#ABABAB" d="M43.36,23.62l-0.16,0.16c-0.11,0.12-0.31,0.12-0.43,0l-0.81-0.81c-0.12-0.12-0.12-0.31,0-0.43
						l0.15-0.16c0.12-0.11,0.31-0.11,0.44,0l0.41,0.41l0.4,0.4C43.47,23.32,43.47,23.51,43.36,23.62z"/>
					<path fill="#ABABAB" d="M44.17,22.8l-0.15,0.16c-0.12,0.11-0.31,0.11-0.44,0l-0.4-0.41l-0.41-0.41c-0.11-0.11-0.11-0.3,0-0.43
						l0.16-0.15c0.11-0.12,0.31-0.12,0.43,0l0.41,0.41l0.4,0.4C44.3,22.49,44.3,22.68,44.17,22.8z"/>
					<path fill="#ABABAB" d="M45.81,21.16l-0.15,0.15c-0.12,0.12-0.31,0.12-0.44,0l-0.81-0.81c-0.11-0.11-0.11-0.3,0-0.43l0.16-0.16
						c0.11-0.11,0.31-0.11,0.43,0l0.41,0.41l0.4,0.41C45.94,20.85,45.94,21.04,45.81,21.16z"/>
					<path fill="#ABABAB" d="M46.64,20.34l-0.16,0.16c-0.11,0.11-0.3,0.11-0.43,0l-0.4-0.4l-0.41-0.41c-0.12-0.12-0.12-0.31,0-0.44
						l0.16-0.15c0.11-0.12,0.3-0.12,0.43,0l0.42,0.42l0.39,0.39C46.75,20.03,46.75,20.23,46.64,20.34z"/>
					<path fill="#ABABAB" d="M45,21.98l-0.16,0.16c-0.11,0.11-0.31,0.11-0.43,0l-0.4-0.4l-0.41-0.41c-0.12-0.12-0.12-0.31,0-0.43
						l0.15-0.16c0.12-0.12,0.31-0.12,0.44,0L45,21.55C45.11,21.68,45.11,21.87,45,21.98z"/>
				</g>
				<g>
					<path fill="#ABABAB" d="M50.05,38.56l-0.13,0.13c-0.13,0.13-0.33,0.13-0.45,0l-0.78-0.78c-0.13-0.13-0.13-0.33,0-0.45
						l0.13-0.13c0.13-0.13,0.33-0.13,0.45,0l0.78,0.78C50.18,38.23,50.18,38.43,50.05,38.56z"/>
					<path fill="#ABABAB" d="M50.87,37.73l-0.13,0.13c-0.13,0.13-0.33,0.13-0.45,0l-0.78-0.78c-0.13-0.13-0.13-0.33,0-0.45
						l0.13-0.13c0.13-0.13,0.33-0.13,0.45,0l0.78,0.78C51,37.41,51,37.61,50.87,37.73z"/>
					<path fill="#ABABAB" d="M51.69,36.91l-0.13,0.13c-0.13,0.13-0.33,0.13-0.45,0l-0.78-0.78c-0.13-0.13-0.13-0.33,0-0.45
						l0.13-0.13c0.13-0.13,0.33-0.13,0.45,0l0.78,0.78C51.82,36.59,51.82,36.79,51.69,36.91z"/>
					<path fill="#ABABAB" d="M52.52,36.09l-0.13,0.13c-0.13,0.13-0.33,0.13-0.45,0l-0.78-0.78c-0.13-0.13-0.13-0.33,0-0.45
						l0.13-0.13c0.13-0.13,0.33-0.13,0.45,0l0.78,0.78C52.64,35.77,52.64,35.97,52.52,36.09z"/>
					<path fill="#ABABAB" d="M53.34,35.27l-0.13,0.13c-0.13,0.13-0.33,0.13-0.45,0l-0.78-0.78c-0.13-0.13-0.13-0.33,0-0.45
						l0.13-0.13c0.13-0.13,0.33-0.13,0.45,0l0.78,0.78C53.46,34.94,53.46,35.15,53.34,35.27z"/>
					<path fill="#ABABAB" d="M54.16,34.45l-0.13,0.13c-0.13,0.13-0.33,0.13-0.45,0l-0.78-0.78c-0.13-0.13-0.13-0.33,0-0.45
						l0.13-0.13c0.13-0.13,0.33-0.13,0.45,0L54.16,34C54.28,34.12,54.28,34.33,54.16,34.45z"/>
					<path fill="#ABABAB" d="M54.98,33.63l-0.13,0.13c-0.13,0.13-0.33,0.13-0.45,0l-0.78-0.78c-0.13-0.13-0.13-0.33,0-0.45
						l0.13-0.13c0.13-0.13,0.33-0.13,0.45,0l0.78,0.78C55.1,33.3,55.1,33.51,54.98,33.63z"/>
					<path fill="#ABABAB" d="M56.62,31.99l-0.13,0.13c-0.13,0.13-0.33,0.13-0.45,0l-0.78-0.78c-0.13-0.13-0.13-0.33,0-0.45
						l0.13-0.13c0.13-0.13,0.33-0.13,0.45,0l0.78,0.78C56.74,31.66,56.74,31.86,56.62,31.99z"/>
					<path fill="#ABABAB" d="M57.46,31.16l-0.16,0.15c-0.12,0.12-0.31,0.12-0.43,0l-0.81-0.81c-0.01-0.01-0.02-0.02-0.03-0.04
						c-0.09-0.11-0.09-0.27,0.03-0.39l0.15-0.15c0.12-0.12,0.31-0.12,0.43,0l0.4,0.39l0.15,0.15l0.27,0.27
						C57.57,30.85,57.57,31.04,57.46,31.16z"/>
					<path fill="#ABABAB" d="M55.8,32.81l-0.13,0.13c-0.13,0.13-0.33,0.13-0.45,0l-0.78-0.78c-0.13-0.13-0.13-0.33,0-0.45l0.13-0.13
						c0.13-0.13,0.33-0.13,0.45,0l0.78,0.78C55.92,32.48,55.92,32.69,55.8,32.81z"/>
				</g>
			</g>
		</g>
		<g>
			<g>
				<path fill="#373737" d="M121.63,25.64h-7.84c-1.59,0-2.88-1.29-2.88-2.88v-0.44c0-1.59,1.29-2.88,2.88-2.88h7.84
					c1.59,0,2.88,1.29,2.88,2.88v0.44C124.51,24.35,123.22,25.64,121.63,25.64z"/>
				<circle fill="#CCCCCC" cx="121.34" cy="22.54" r="1.2"/>
				<circle fill="#CCCCCC" cx="113.77" cy="22.54" r="1.2"/>
			</g>
		</g>
		<g>
			<g>
				<path fill="#373737" d="M121.63,32.29h-7.84c-1.59,0-2.88-1.29-2.88-2.88v-0.44c0-1.59,1.29-2.88,2.88-2.88h7.84
					c1.59,0,2.88,1.29,2.88,2.88v0.44C124.51,31,123.22,32.29,121.63,32.29z"/>
				<circle fill="#CCCCCC" cx="121.34" cy="29.18" r="1.2"/>
				<circle fill="#CCCCCC" cx="113.77" cy="29.18" r="1.2"/>
			</g>
		</g>
		<g>
			<g>
				<path fill="#373737" d="M121.63,38.86h-7.84c-1.59,0-2.88-1.29-2.88-2.88v-0.44c0-1.59,1.29-2.88,2.88-2.88h7.84
					c1.59,0,2.88,1.29,2.88,2.88v0.44C124.51,37.57,123.22,38.86,121.63,38.86z"/>
				<circle fill="#CCCCCC" cx="121.34" cy="35.76" r="1.2"/>
				<circle fill="#CCCCCC" cx="113.77" cy="35.76" r="1.2"/>
			</g>
		</g>
	</g>
	<g>
		<path fill="#ABABAB" d="M27.64,33.16v0.97c0,0.18-0.14,0.32-0.32,0.32h-2.15c-0.18,0-0.32-0.14-0.32-0.32v-0.97
			c0-0.18,0.14-0.32,0.32-0.32h2.15C27.5,32.84,27.64,32.98,27.64,33.16z"/>
		<path fill="#ABABAB" d="M27.64,30.9v0.97c0,0.18-0.14,0.32-0.32,0.32h-2.15c-0.18,0-0.32-0.14-0.32-0.32V30.9
			c0-0.18,0.14-0.32,0.32-0.32h2.15C27.5,30.58,27.64,30.73,27.64,30.9z"/>
		<path fill="#ABABAB" d="M27.64,28.65v0.97c0,0.18-0.14,0.32-0.32,0.32h-2.15c-0.18,0-0.32-0.14-0.32-0.32v-0.97
			c0-0.18,0.14-0.32,0.32-0.32h2.15C27.5,28.33,27.64,28.47,27.64,28.65z"/>
		<path fill="#ABABAB" d="M27.64,26.39v0.97c0,0.18-0.14,0.32-0.32,0.32h-2.15c-0.18,0-0.32-0.14-0.32-0.32v-0.97
			c0-0.18,0.14-0.32,0.32-0.32h2.15C27.5,26.07,27.64,26.22,27.64,26.39z"/>
	</g>
	<g>
		<path fill="#2D2D2D" d="M21.7,28.88v3.16c0,0.51-0.41,0.92-0.92,0.92H7.17v-0.45h12.67c0.51,0,0.92-0.41,0.92-0.92v-2.27
			c0-0.51-0.41-0.92-0.92-0.92H7.17v-0.45h13.61C21.29,27.96,21.7,28.38,21.7,28.88z"/>
		<path fill="#2D2D2D" d="M7.17,26.17v-3.16c0-0.51,0.31-0.92,0.7-0.92h10.33v0.45H8.59c-0.39,0-0.7,0.41-0.7,0.92v2.27
			c0,0.51,0.31,0.92,0.7,0.92h9.61v0.45H7.87C7.48,27.09,7.17,26.68,7.17,26.17z"/>
		<path fill="#2D2D2D" d="M7.17,37.92v-3.16c0-0.51,0.31-0.92,0.7-0.92h10.33v0.45H8.59c-0.39,0-0.7,0.41-0.7,0.92v2.27
			c0,0.51,0.31,0.92,0.7,0.92h9.61v0.45H7.87C7.48,38.85,7.17,38.43,7.17,37.92z"/>
	</g>
</g>
<g>
	<path fill="#F2F5F6" d="M103.47,28.19c-0.07-0.06-0.14-0.14-0.23-0.19c-0.19-0.12-0.38-0.32-0.58-0.33
		c-0.17-0.01-0.36,0.19-0.53,0.31c-0.06,0.04-0.1,0.11-0.16,0.14c-0.05,0.03-0.12,0.02-0.18,0.02c0.01-0.06,0-0.15,0.04-0.18
		c0.07-0.07,0.17-0.11,0.26-0.17c0.14-0.1,0.27-0.21,0.41-0.32c-0.14-0.1-0.28-0.21-0.43-0.31c-0.04-0.03-0.11-0.03-0.14-0.06
		c-0.06-0.08-0.17-0.22-0.15-0.25c0.13-0.17,0.2,0.02,0.29,0.08c0.15,0.1,0.29,0.2,0.42,0.31c0.13,0.11,0.25,0.1,0.38-0.01
		c0.18-0.15,0.36-0.28,0.55-0.42c0.03-0.02,0.11-0.02,0.14,0c0.03,0.03,0.03,0.12,0.01,0.14c-0.12,0.1-0.24,0.2-0.37,0.29
		c-0.11,0.08-0.22,0.16-0.33,0.24c0.11,0.08,0.22,0.17,0.33,0.25c0.13,0.09,0.25,0.19,0.37,0.29c0.02,0.02,0.02,0.07,0.01,0.1
		C103.56,28.13,103.52,28.15,103.47,28.19z"/>
	<path fill="#ECF1F5" d="M102.51,25.8c0.16,0,0.32,0,0.49,0c0.32-0.01,0.34-0.03,0.37-0.37c0-0.04-0.01-0.08,0-0.11
		c0.02-0.06,0.06-0.1,0.09-0.16c0.04,0.04,0.11,0.09,0.11,0.13c0.01,0.41,0.01,0.83,0,1.24c0,0.04-0.08,0.08-0.12,0.12
		c-0.03-0.04-0.08-0.07-0.08-0.11c-0.02-0.16-0.02-0.32-0.03-0.48c-0.19-0.02-0.38-0.04-0.58-0.05c-0.31-0.01-0.61,0-0.92-0.01
		c-0.03,0-0.08-0.07-0.08-0.11c0-0.03,0.06-0.09,0.09-0.1C102.08,25.8,102.29,25.8,102.51,25.8C102.51,25.8,102.51,25.8,102.51,25.8
		z"/>
</g>
<g>
	<path fill="#CAC8C7" d="M94.21,25.51c0.04-0.47,0.04-0.48,0.4-0.48c0.85,0,1.69,0.01,2.54-0.01c0.23,0,0.36,0.04,0.34,0.3
		c-0.01,0.2,0.15,0.18,0.29,0.18c0.41,0,0.82,0.01,1.23,0c0.2,0,0.29,0.07,0.28,0.28c-0.01,0.57,0.01,1.15-0.01,1.72
		c-0.01,0.35-0.12,0.45-0.51,0.46c-0.3,0.01-0.6,0.01-0.9,0c-0.25-0.01-0.44,0-0.4,0.33c0,0.04-0.14,0.15-0.22,0.15
		c-0.93,0.01-1.85,0.01-2.78,0c-0.08,0-0.25-0.1-0.24-0.13c0.06-0.41-0.22-0.35-0.46-0.36c-0.32-0.01-0.64-0.03-0.97-0.04
		c-0.02-0.35-0.05-0.69-0.06-1.04c-0.01-0.38-0.01-0.76,0-1.14c0-0.08,0.1-0.15,0.15-0.22c0.29,0.7-0.18,1.49,0.24,2.18
		c0.03,0.05,0.02,0.09,0.06,0.04c0.01-0.02-0.07-0.02-0.09-0.06c-0.26-0.42-0.06-0.89-0.13-1.34c-0.1-0.63,0.17-0.84,0.77-0.75
		C93.9,25.62,94.08,25.64,94.21,25.51z"/>
	<path fill="#CAC8C7" d="M94.21,25.51c-0.07,0.06-0.14,0.16-0.21,0.16c-0.24,0.02-0.49-0.01-0.73,0.02
		c-0.07,0.01-0.18,0.11-0.19,0.18c-0.03,0.21-0.01,0.43-0.01,0.65c0.01,0.35,0.02,0.7,0.03,1.05c0.32,0.02,0.63,0.05,0.95,0.08
		c0.05,0,0.09,0.04,0.14,0.06c-0.06,0.03-0.11,0.09-0.17,0.1c-1.11,0.09-1.11,0.09-1.11-0.99c0-0.43,0-0.87,0-1.3
		C93.34,25.52,93.77,25.52,94.21,25.51z"/>
	<path fill="#E5E5E5" d="M94.54,25.19c0.84,0,1.67,0,2.51,0c0.21,0,0.28,0.07,0.28,0.28c-0.01,0.89,0,1.78,0,2.67
		c-0.98,0.13-1.96,0.13-2.95,0c0-0.93,0-1.85,0-2.78C94.43,25.3,94.49,25.25,94.54,25.19z"/>
</g>
<g>
	<path fill="#CAC8C7" d="M94.21,36.35c0.04-0.47,0.04-0.48,0.4-0.48c0.85,0,1.69,0.01,2.54-0.01c0.23,0,0.36,0.04,0.34,0.3
		c-0.01,0.2,0.15,0.18,0.29,0.18c0.41,0,0.82,0.01,1.23,0c0.2,0,0.29,0.07,0.28,0.28c-0.01,0.57,0.01,1.15-0.01,1.72
		c-0.01,0.35-0.12,0.45-0.51,0.46c-0.3,0.01-0.6,0.01-0.9,0c-0.25-0.01-0.44,0-0.4,0.33c0,0.04-0.14,0.15-0.22,0.15
		c-0.93,0.01-1.85,0.01-2.78,0c-0.08,0-0.25-0.1-0.24-0.13c0.06-0.41-0.22-0.35-0.46-0.36c-0.32-0.01-0.64-0.03-0.97-0.04
		c-0.02-0.35-0.05-0.69-0.06-1.04c-0.01-0.38-0.01-0.76,0-1.14c0-0.08,0.1-0.15,0.15-0.22c0.29,0.7-0.18,1.49,0.24,2.18
		c0.03,0.05,0.02,0.09,0.06,0.04c0.01-0.02-0.07-0.02-0.09-0.06c-0.26-0.42-0.06-0.89-0.13-1.34c-0.1-0.63,0.17-0.84,0.77-0.75
		C93.9,36.46,94.08,36.48,94.21,36.35z"/>
	<path fill="#CAC8C7" d="M94.21,36.35c-0.07,0.06-0.14,0.16-0.21,0.16c-0.24,0.02-0.49-0.01-0.73,0.02
		c-0.07,0.01-0.18,0.11-0.19,0.18c-0.03,0.21-0.01,0.43-0.01,0.65c0.01,0.35,0.02,0.7,0.03,1.05c0.32,0.02,0.63,0.05,0.95,0.08
		c0.05,0,0.09,0.04,0.14,0.06c-0.06,0.03-0.11,0.09-0.17,0.1c-1.11,0.09-1.11,0.09-1.11-0.99c0-0.43,0-0.87,0-1.3
		C93.34,36.36,93.77,36.36,94.21,36.35z"/>
	<path fill="#E5E5E5" d="M94.54,36.03c0.84,0,1.67,0,2.51,0c0.21,0,0.28,0.07,0.28,0.28c-0.01,0.89,0,1.78,0,2.67
		c-0.98,0.13-1.96,0.13-2.95,0c0-0.93,0-1.85,0-2.78C94.43,36.14,94.49,36.09,94.54,36.03z"/>
</g>
<g>
	<path fill="#C7C6C6" d="M93.07,22.4c0-0.6,0-1.19,0-1.79c0-0.58-0.03-0.5,0.54-0.5c0.77-0.01,0.77-0.01,0.77,0.75
		c0,0.51,0,1.03,0,1.54C93.94,22.41,93.5,22.41,93.07,22.4z"/>
	<g>
		<path fill="#C6C6C6" d="M93.07,22.4c-0.05-0.05-0.16-0.09-0.16-0.14c-0.01-0.68,0-1.36-0.01-2.04c0-0.21,0.08-0.29,0.28-0.28
			c0.24,0.01,0.49,0.01,0.73,0c0.19-0.01,0.46,0.11,0.49-0.25c0-0.04,0.18-0.08,0.28-0.08c0.87-0.01,1.74,0,2.61,0
			c0.15,0,0.32-0.05,0.37,0.21c0.01,0.06,0.21,0.12,0.33,0.12c0.46,0.02,0.92,0.03,1.38,0.04c0.02,0.48,0.06,0.96,0.07,1.44
			c0,0.32-0.04,0.63-0.07,0.95c-0.3,0.01-0.59,0.03-0.89,0.03c-0.19,0.01-0.38-0.01-0.57,0.01c-0.09,0.01-0.26,0.09-0.25,0.11
			c0.06,0.47-0.28,0.36-0.53,0.37c-0.79,0.01-1.58,0.01-2.37,0c-0.36,0-0.36-0.01-0.4-0.49c-0.46-0.36-0.31-0.88-0.37-1.35
			c-0.02-0.18-0.02-0.42-0.28-0.42c-0.26,0-0.26,0.23-0.28,0.42C93.38,21.52,93.53,22.05,93.07,22.4z"/>
		<path fill="#E9E8E8" d="M95.93,22.77c-0.45-0.04-0.91-0.07-1.36-0.11c-0.01-0.43-0.02-0.87-0.03-1.3c0-0.44,0.01-0.87-0.01-1.31
			c-0.01-0.23,0.1-0.27,0.29-0.27c0.79,0.01,1.58,0.01,2.37,0c0.2,0,0.29,0.05,0.29,0.27c-0.01,0.79-0.01,1.58,0,2.37
			c0,0.26-0.1,0.32-0.33,0.31c-0.41-0.01-0.82,0-1.23,0C95.93,22.74,95.93,22.75,95.93,22.77z"/>
	</g>
</g>
<g>
	<path fill="#ECF0F3" d="M102.68,19.76c0.05,0,0.11,0,0.16,0c0.75,0,0.74,0,0.68,0.76c-0.02,0.22-0.14,0.34-0.3,0.41
		c-0.14,0.06-0.32,0.05-0.44-0.1c-0.03-0.04-0.08-0.07-0.11-0.11c-0.08-0.1-0.16-0.12-0.26-0.01c-0.14,0.14-0.28,0.28-0.43,0.41
		c-0.04,0.03-0.12,0.01-0.18,0.02c0.01-0.06,0-0.15,0.04-0.19c0.17-0.18,0.34-0.38,0.55-0.51c0.11-0.07,0.16-0.13,0.14-0.24
		c-0.02-0.14-0.12-0.21-0.26-0.21c-0.11,0-0.22,0.01-0.32,0c-0.05-0.01-0.1-0.06-0.15-0.1c0.04-0.04,0.09-0.11,0.13-0.11
		C102.18,19.75,102.43,19.76,102.68,19.76z"/>
	<path fill="#EEF2F5" d="M103.63,21.44c-0.03,0.06-0.05,0.12-0.08,0.15c-0.12,0.1-0.25,0.18-0.38,0.28
		c-0.1,0.07-0.19,0.14-0.29,0.21c0.1,0.07,0.2,0.14,0.31,0.2c0.07,0.05,0.16,0.08,0.22,0.13c0.19,0.14,0.25,0.29,0.16,0.33
		c-0.16,0.07-0.21-0.09-0.3-0.16c-0.57-0.45-0.57-0.46-1.15,0.01c-0.04,0.03-0.07,0.08-0.12,0.11c-0.06,0.03-0.12,0.03-0.18,0.04
		c0-0.06-0.02-0.15,0.02-0.18c0.16-0.14,0.33-0.26,0.49-0.39c0.13-0.1,0.13-0.15-0.03-0.26c-0.17-0.12-0.34-0.25-0.5-0.38
		c-0.02-0.01,0-0.1,0.03-0.14c0.01-0.02,0.07-0.02,0.1-0.02c0.03,0.01,0.06,0.04,0.09,0.06c0.22,0.15,0.43,0.29,0.65,0.44
		c0.22-0.13,0.43-0.26,0.65-0.4c0.06-0.04,0.12-0.08,0.18-0.1C103.53,21.37,103.58,21.42,103.63,21.44z"/>
	<path fill="#206091" d="M103.32,20.25c-0.02,0.13-0.02,0.24-0.06,0.34c-0.05,0.13-0.2,0.16-0.3,0.07
		c-0.11-0.09-0.21-0.18-0.21-0.35c0-0.28,0.23-0.45,0.47-0.31C103.29,20.02,103.3,20.17,103.32,20.25z"/>
</g>
<g>
	<path fill="#C6C6C6" d="M99.39,30.96c0.03,0.01,0.08,0.01,0.08,0.02c0.03,0.75,0.06,1.5,0.06,2.24c0,0.05-0.17,0.13-0.26,0.13
		c-0.53,0.01-1.07,0.01-1.6,0.01c-0.47-0.67-0.23-1.41-0.2-2.12c0.01-0.25,0.23-0.38,0.49-0.36C98.44,30.91,98.92,30.8,99.39,30.96z
		"/>
	<path fill="#C8C7C6" d="M94.25,33.37c-0.42,0-0.84-0.01-1.26,0c-0.23,0.01-0.28-0.1-0.28-0.3c0.01-0.7,0.01-1.4,0.01-2.1
		c0.57-0.08,1.35-0.37,1.62,0.16C94.67,31.78,94.71,32.64,94.25,33.37z"/>
	<path fill="#B2B0B0" d="M94.25,33.37c0-0.65,0.01-1.29,0-1.94c0-0.46-0.01-0.47-0.44-0.47c-0.36,0-0.73,0-1.09,0
		c0.05-0.06,0.09-0.16,0.14-0.17c0.28-0.02,0.57,0.01,0.85-0.01c0.22-0.01,0.53,0.13,0.59-0.27c0.01-0.04,0.2-0.07,0.3-0.07
		c0.91-0.01,1.81,0,2.72,0c0.17,0,0.34-0.03,0.37,0.23c0.01,0.05,0.23,0.11,0.35,0.11c0.37,0.01,0.74-0.01,1.11,0.01
		c0.08,0,0.16,0.1,0.24,0.16c-0.48,0-0.96,0.01-1.44,0c-0.22-0.01-0.29,0.08-0.29,0.3c0.01,0.7,0,1.41,0.01,2.11
		c-0.04,0.5-0.04,0.5-0.41,0.51c-0.87,0-1.74,0-2.61,0C94.29,33.87,94.29,33.87,94.25,33.37z"/>
	<path fill="#EEEDED" d="M94.39,32.07c0.04-0.47,0.07-0.95,0.11-1.42c0.45-0.01,0.9-0.02,1.36-0.03c0.43-0.01,0.85,0,1.28,0
		c0.21,0,0.38,0,0.37,0.3c-0.02,0.83-0.01,1.65,0,2.48c0,0.21-0.05,0.31-0.28,0.3c-0.83-0.01-1.65-0.01-2.48,0
		c-0.27,0.01-0.33-0.11-0.32-0.35c0.01-0.43,0-0.85,0-1.28C94.41,32.08,94.4,32.08,94.39,32.07z"/>
</g>
<g>
	<path fill="#F1F4F6" d="M102.07,44.71c0.13,0.02,0.33-0.07,0.46,0.12c0.03,0.04,0.05,0.11,0.03,0.15
		c-0.01,0.03-0.09,0.07-0.13,0.05c-0.14-0.04-0.26-0.1-0.4-0.15c-0.06-0.02-0.15-0.05-0.19-0.03c-0.13,0.09-0.35,0.08-0.36,0.29
		c-0.01,0.22,0.21,0.23,0.35,0.29c0.16,0.08,0.35,0.08,0.51,0.15c0.28,0.13,0.35,0.49,0.14,0.71c-0.18,0.2-0.44,0.25-0.68,0.27
		c-0.15,0.01-0.32-0.05-0.46-0.11c-0.05-0.02-0.07-0.15-0.08-0.23c0-0.02,0.12-0.08,0.16-0.06c0.12,0.04,0.22,0.15,0.33,0.17
		c0.13,0.02,0.29-0.01,0.41-0.06c0.13-0.06,0.27-0.19,0.19-0.35c-0.05-0.1-0.18-0.19-0.29-0.21c-0.19-0.04-0.39,0-0.58-0.12
		c-0.22-0.14-0.27-0.21-0.23-0.49c0.02-0.19,0.2-0.38,0.39-0.4C101.76,44.7,101.89,44.71,102.07,44.71z"/>
	<path fill="#F6F7F7" d="M103.36,45.7c0-0.06,0-0.11,0-0.17c-0.01-0.18,0.06-0.42-0.04-0.53c-0.08-0.1-0.34-0.05-0.51-0.08
		c-0.04-0.01-0.07-0.06-0.1-0.09c0.04-0.04,0.09-0.12,0.13-0.12c0.42-0.01,0.85-0.01,1.27,0c0.04,0,0.09,0.08,0.13,0.12
		c-0.04,0.03-0.07,0.06-0.11,0.09c-0.01,0.01-0.04,0-0.05,0c-0.14,0.01-0.36-0.04-0.42,0.03c-0.08,0.11-0.06,0.3-0.07,0.46
		c-0.01,0.31,0,0.63-0.01,0.94c0,0.04-0.05,0.08-0.08,0.12c-0.05-0.04-0.13-0.08-0.13-0.12C103.36,46.14,103.36,45.92,103.36,45.7
		C103.36,45.7,103.36,45.7,103.36,45.7z"/>
	<g>
		<path fill="#F8FAFB" d="M99.71,45.58c0-0.09-0.01-0.18,0-0.28c0.02-0.19,0.04-0.39,0.06-0.58c0.27,0.01,0.55-0.01,0.81,0.06
			c0.29,0.08,0.52,0.45,0.15,0.8c-0.17,0.16-0.13,0.21-0.04,0.33c0.11,0.14,0.23,0.28,0.34,0.42c0.03,0.04,0.04,0.1,0.05,0.16
			c-0.07,0-0.17,0.03-0.21-0.01c-0.14-0.12-0.26-0.26-0.39-0.39c-0.06-0.07-0.08-0.18-0.15-0.21c-0.09-0.04-0.22-0.06-0.31-0.03
			c-0.05,0.01-0.08,0.14-0.09,0.21c-0.02,0.07,0.01,0.15-0.01,0.22c-0.02,0.08-0.06,0.2-0.1,0.21c-0.18,0.01-0.12-0.14-0.12-0.23
			C99.7,46.02,99.71,45.8,99.71,45.58z"/>
		<path fill="#296A98" d="M99.93,45.22c0-0.29,0-0.29,0.25-0.29c0.33,0,0.43,0.09,0.42,0.35c-0.01,0.25-0.12,0.33-0.45,0.32
			C99.93,45.6,99.93,45.6,99.93,45.22z"/>
	</g>
</g>
<g>
	<path fill="#F1F4F6" d="M102.05,11.76c0.13,0.02,0.33-0.07,0.46,0.12c0.03,0.04,0.05,0.11,0.03,0.15
		c-0.01,0.03-0.09,0.07-0.13,0.05c-0.14-0.04-0.26-0.1-0.4-0.15c-0.06-0.02-0.15-0.05-0.19-0.03c-0.13,0.09-0.35,0.08-0.36,0.29
		c-0.01,0.22,0.21,0.23,0.35,0.29c0.16,0.08,0.35,0.08,0.51,0.15c0.28,0.13,0.35,0.49,0.14,0.71c-0.18,0.2-0.44,0.25-0.68,0.27
		c-0.15,0.01-0.32-0.05-0.46-0.11c-0.05-0.02-0.07-0.15-0.08-0.23c0-0.02,0.12-0.08,0.16-0.06c0.12,0.04,0.22,0.15,0.33,0.17
		c0.13,0.02,0.29-0.01,0.41-0.06c0.13-0.06,0.27-0.19,0.19-0.35c-0.05-0.1-0.18-0.19-0.29-0.21c-0.19-0.04-0.39,0-0.58-0.12
		c-0.22-0.14-0.27-0.21-0.23-0.49c0.02-0.19,0.2-0.38,0.39-0.4C101.74,11.75,101.87,11.76,102.05,11.76z"/>
	<path fill="#F6F7F7" d="M103.34,12.74c0-0.06,0-0.11,0-0.17c-0.01-0.18,0.06-0.42-0.04-0.53c-0.08-0.1-0.34-0.05-0.51-0.08
		c-0.04-0.01-0.07-0.06-0.1-0.09c0.04-0.04,0.09-0.12,0.13-0.12c0.42-0.01,0.85-0.01,1.27,0c0.04,0,0.09,0.08,0.13,0.12
		c-0.04,0.03-0.07,0.06-0.11,0.09c-0.01,0.01-0.04,0-0.05,0c-0.14,0.01-0.36-0.04-0.42,0.03c-0.08,0.11-0.06,0.3-0.07,0.46
		c-0.01,0.31,0,0.63-0.01,0.94c0,0.04-0.05,0.08-0.08,0.12c-0.05-0.04-0.13-0.08-0.13-0.12C103.34,13.19,103.34,12.96,103.34,12.74
		C103.34,12.74,103.34,12.74,103.34,12.74z"/>
	<g>
		<path fill="#F8FAFB" d="M99.69,12.62c0-0.09-0.01-0.18,0-0.28c0.02-0.19,0.04-0.39,0.06-0.58c0.27,0.01,0.55-0.01,0.81,0.06
			c0.29,0.08,0.52,0.45,0.15,0.8c-0.17,0.16-0.13,0.21-0.04,0.33c0.11,0.14,0.23,0.28,0.34,0.42c0.03,0.04,0.04,0.1,0.05,0.16
			c-0.07,0-0.17,0.03-0.21-0.01c-0.14-0.12-0.26-0.26-0.39-0.39c-0.06-0.07-0.08-0.18-0.15-0.21c-0.09-0.04-0.22-0.06-0.31-0.03
			c-0.05,0.01-0.08,0.14-0.09,0.21c-0.02,0.07,0.01,0.15-0.01,0.22c-0.02,0.08-0.06,0.2-0.1,0.21c-0.18,0.01-0.12-0.14-0.12-0.23
			C99.68,13.06,99.69,12.84,99.69,12.62z"/>
		<path fill="#296A98" d="M99.91,12.26c0-0.29,0-0.29,0.25-0.29c0.33,0,0.43,0.09,0.42,0.35c-0.01,0.25-0.12,0.33-0.45,0.32
			C99.91,12.64,99.91,12.64,99.91,12.26z"/>
	</g>
</g>
<path fill="#D9D9D9" d="M57.09,19.67c-0.33-0.4-0.42-0.86-0.35-1.35c0.04-0.33,0.18-0.63,0.34-0.92c0.07-0.13,0.2-0.22,0.3-0.33
	c0.23-0.26,0.5-0.46,0.84-0.58c0.52-0.19,1.04-0.2,1.54,0.03c0.09,0.04,0.17,0.1,0.25,0.15c0.02,0.01,0.03,0.02,0.05,0.03
	c1.43,1.4,2.84,2.83,4.26,4.24c0.2,0.2,0.4,0.39,0.57,0.62c0.22,0.26,0.3,0.57,0.32,0.89c0.04,0.52-0.12,1-0.42,1.41
	c-0.16,0.22-0.36,0.42-0.61,0.57c-0.19,0.12-0.38,0.24-0.59,0.31c-0.57,0.18-1.12,0.11-1.64-0.2c-0.02-0.02-0.04-0.04-0.06-0.07
	c-0.02-0.08-0.09-0.13-0.15-0.19c-1.49-1.49-2.98-2.98-4.46-4.46C57.22,19.76,57.17,19.69,57.09,19.67z"/>
<path fill="#C7C6C6" d="M57.73,17.32c0.06-0.06,0.13-0.13,0.19-0.19c0.32-0.32,0.7-0.45,1.16-0.39c0.26,0.03,0.49,0.1,0.71,0.22
	c0.06,0.03,0.12,0.07,0.17,0.11c1.5,1.5,3,2.99,4.49,4.49c0.23,0.24,0.36,0.55,0.37,0.89c0,0.16,0,0.32-0.02,0.48
	c-0.05,0.29-0.18,0.55-0.41,0.75c-0.05,0.05-0.1,0.1-0.15,0.15c-0.9,0.57-1.65,0.24-2.16-0.27c-1.37-1.36-2.75-2.73-4.11-4.11
	C57.34,18.81,57.26,18.08,57.73,17.32z"/>
<path fill="#868685" d="M57.73,17.32c0.06,0.08-0.03,0.1-0.06,0.14c-0.21,0.46-0.17,0.92,0.03,1.36c0.1,0.23,0.25,0.44,0.44,0.62
	c1.37,1.36,2.72,2.73,4.09,4.08c0.34,0.33,0.76,0.51,1.24,0.5c0.24-0.01,0.48-0.05,0.69-0.19c0.02-0.01,0.05,0,0.08,0
	c-0.28,0.25-0.59,0.4-0.97,0.41c-0.37,0.01-0.7-0.08-1-0.27c-0.07-0.04-0.12-0.1-0.18-0.16c-1.46-1.45-2.91-2.91-4.37-4.36
	c-0.23-0.23-0.32-0.51-0.39-0.8c-0.05-0.21-0.04-0.43,0-0.64C57.39,17.75,57.52,17.51,57.73,17.32z"/>
<g>
	<g>
		<path fill="#E5E5E5" d="M89.27,36.72h-7.68c-0.34,0-0.61-0.27-0.61-0.61V21.02l1.38,2.75v9.94c0,0.18,0.14,0.32,0.31,0.32h5.5
			c0.17,0,0.31-0.14,0.31-0.32v-9.94l1.39-2.75v15.09C89.86,36.45,89.59,36.72,89.27,36.72z"/>
		<path fill="#CCCCCC" d="M82.35,23.77l-1.38-2.75c0-0.06,0.01-0.12,0.04-0.17c0.06-0.25,0.3-0.43,0.57-0.43h7.68
			c0.26,0,0.49,0.18,0.56,0.43c0.03,0.05,0.04,0.1,0.04,0.17l-1.39,2.75c0-0.18-0.14-0.32-0.31-0.32h-5.5
			C82.49,23.45,82.35,23.59,82.35,23.77z"/>
		<path fill="#CCCCCC" d="M82.35,33.71l-1.38,2.75c0,0.06,0.01,0.12,0.04,0.17c0.06,0.25,0.3,0.43,0.57,0.43h7.68
			c0.26,0,0.49-0.18,0.56-0.43c0.03-0.05,0.04-0.1,0.04-0.17l-1.39-2.75c0,0.18-0.14,0.32-0.31,0.32h-5.5
			C82.49,34.04,82.35,33.9,82.35,33.71z"/>
		<path fill="#E5E5E5" d="M88.16,34.04h-5.5c-0.17,0-0.31-0.14-0.31-0.32v-9.94c0-0.18,0.14-0.32,0.31-0.32h5.5
			c0.17,0,0.31,0.14,0.31,0.32v9.94C88.47,33.89,88.33,34.04,88.16,34.04z"/>
		<path fill="#B3B3B3" d="M88.16,34.04h-5.5c-0.17,0-0.31-0.14-0.31-0.32v-9.94c0-0.18,0.14-0.32,0.31-0.32h5.5
			c0.17,0,0.31,0.14,0.31,0.32v9.94C88.47,33.89,88.33,34.04,88.16,34.04z"/>
		<path fill="#333333" d="M84.02,32.09V25.4c0-0.22,0.18-0.4,0.4-0.4h1.98c0.22,0,0.4,0.18,0.4,0.4v6.69c0,0.22-0.18,0.4-0.4,0.4
			h-1.98C84.2,32.49,84.02,32.31,84.02,32.09z"/>
		<path fill="#B3B3B3" d="M84.45,20.42v-3.12c0-0.18,0.14-0.32,0.32-0.32h1.28c0.18,0,0.32,0.14,0.32,0.32v3.12H84.45z"/>
		<path fill="#B3B3B3" d="M84.45,37.06v3.12c0,0.18,0.14,0.32,0.32,0.32h1.28c0.18,0,0.32-0.14,0.32-0.32v-3.12H84.45z"/>
	</g>
</g>
<path fill="#EBEFF2" d="M78.44,26.37c0.07,0,0.14,0,0.21,0c0.27,0.02,0.55,0.04,0.82,0.06c0.01,0.28,0.04,0.56,0.03,0.83
	c-0.01,0.21,0.12,0.46-0.1,0.64c-0.35-0.14-0.11-0.43-0.17-0.65c-0.03-0.09-0.01-0.19,0-0.28c0.01-0.22-0.14-0.2-0.28-0.2
	c-0.13,0-0.29-0.04-0.29,0.19c0,0.26,0.01,0.52-0.01,0.77c0,0.06-0.1,0.11-0.16,0.17c-0.04-0.05-0.11-0.09-0.11-0.14
	c-0.01-0.23-0.02-0.47,0-0.7c0.01-0.21-0.05-0.29-0.27-0.29c-0.68,0.02-0.57-0.08-0.58,0.54c0,0.02,0.01,0.05,0,0.07
	c-0.08,0.17,0.17,0.51-0.16,0.5c-0.25-0.01-0.1-0.35-0.12-0.53c-0.02-0.3,0.01-0.6,0.01-0.91c0.32-0.02,0.64-0.05,0.96-0.07
	C78.3,26.36,78.37,26.37,78.44,26.37z"/>
<path fill="#F8FAFB" d="M78.41,24.25c0.12,0,0.23-0.01,0.35,0c0.25,0.02,0.49,0.05,0.74,0.08c-0.02,0.34,0.01,0.7-0.07,1.03
	c-0.1,0.37-0.57,0.66-1.02,0.19c-0.2-0.22-0.26-0.17-0.41-0.05c-0.18,0.14-0.35,0.29-0.54,0.43c-0.05,0.04-0.13,0.05-0.2,0.07
	c0-0.09-0.03-0.21,0.01-0.27c0.15-0.18,0.32-0.33,0.5-0.49c0.08-0.07,0.23-0.11,0.27-0.19c0.06-0.12,0.07-0.27,0.04-0.4
	c-0.01-0.06-0.17-0.1-0.27-0.12c-0.09-0.02-0.19,0.01-0.28-0.01c-0.1-0.02-0.26-0.07-0.26-0.12c-0.02-0.23,0.18-0.15,0.3-0.16
	C77.85,24.24,78.13,24.25,78.41,24.25z"/>
<path fill="#F1F4F6" d="M79.51,29.37c-0.03,0.16,0.09,0.42-0.15,0.59c-0.05,0.04-0.14,0.06-0.19,0.04
	c-0.04-0.02-0.08-0.12-0.07-0.17c0.05-0.17,0.13-0.34,0.19-0.51c0.03-0.08,0.07-0.19,0.03-0.24c-0.11-0.16-0.1-0.45-0.37-0.46
	c-0.28-0.01-0.29,0.27-0.37,0.44c-0.1,0.2-0.1,0.44-0.2,0.64c-0.16,0.36-0.62,0.44-0.91,0.18c-0.26-0.23-0.32-0.55-0.34-0.86
	c-0.01-0.19,0.06-0.4,0.14-0.59c0.03-0.07,0.19-0.09,0.29-0.1c0.02,0,0.1,0.15,0.08,0.2c-0.05,0.15-0.19,0.28-0.21,0.42
	c-0.02,0.17,0.01,0.36,0.08,0.52c0.08,0.16,0.24,0.34,0.45,0.24c0.12-0.06,0.24-0.23,0.27-0.36c0.05-0.24,0-0.5,0.15-0.73
	c0.18-0.28,0.27-0.34,0.63-0.3c0.24,0.03,0.48,0.25,0.5,0.49C79.52,28.98,79.51,29.15,79.51,29.37z"/>
<path fill="#F6F7F9" d="M78.38,30.58c0.37,0.02,0.73,0.04,1.1,0.06c0.01,0.46,0.01,0.93,0.01,1.39c0,0.03-0.07,0.08-0.1,0.07
	c-0.06-0.01-0.15-0.05-0.15-0.09c-0.02-0.26-0.01-0.51-0.01-0.77c-0.01-0.39-0.01-0.37-0.3-0.39c-0.3-0.02-0.27,0.17-0.27,0.36
	c0,0.26,0,0.52-0.01,0.77c0,0.04-0.08,0.11-0.13,0.12c-0.04,0-0.13-0.07-0.13-0.11c-0.02-0.21,0-0.42-0.01-0.63
	c-0.01-0.16,0-0.43-0.06-0.45c-0.21-0.06-0.46-0.05-0.68-0.04c-0.04,0-0.09,0.15-0.09,0.23c-0.01,0.3,0,0.61-0.02,0.91
	c0,0.03-0.1,0.08-0.16,0.09c-0.03,0.01-0.1-0.05-0.1-0.07c-0.01-0.44-0.01-0.89,0-1.33c0-0.04,0.13-0.11,0.2-0.12
	C77.77,30.57,78.08,30.58,78.38,30.58z"/>
<path fill="#F6F7F7" d="M78.26,33.11c0.07,0,0.14,0,0.21,0c0.23-0.01,0.53,0.07,0.67-0.05c0.12-0.11,0.06-0.43,0.1-0.65
	c0.01-0.05,0.08-0.09,0.12-0.13c0.05,0.06,0.15,0.11,0.15,0.17c0.01,0.54,0.01,1.07,0,1.61c0,0.06-0.1,0.11-0.16,0.16
	c-0.04-0.05-0.08-0.09-0.11-0.14c-0.01-0.02,0-0.05-0.01-0.07c-0.01-0.18,0.05-0.46-0.04-0.53c-0.14-0.11-0.39-0.08-0.59-0.08
	c-0.4-0.01-0.79,0-1.19-0.01c-0.05,0-0.1-0.07-0.15-0.11c0.05-0.06,0.1-0.16,0.15-0.17C77.69,33.1,77.98,33.11,78.26,33.11
	C78.26,33.11,78.26,33.11,78.26,33.11z"/>
<path fill="#296A98" d="M78.86,24.53c0.37,0,0.37,0,0.37,0.32c0,0.41-0.11,0.55-0.44,0.53c-0.32-0.02-0.41-0.16-0.41-0.58
	C78.39,24.53,78.39,24.53,78.86,24.53z"/>
<g>
	<path fill="#E9EDF1" d="M108.33,45.62c0-0.22-0.01-0.45,0-0.67c0-0.1-0.06-0.25,0.11-0.26c0.12-0.01,0.27-0.08,0.35,0.14
		c0.11,0.3,0.29,0.58,0.43,0.87c0.05,0.1,0.09,0.2,0.15,0.29c0.03,0.05,0.1,0.07,0.16,0.1c0-0.05,0.01-0.11-0.01-0.15
		c-0.14-0.36-0.05-0.73-0.05-1.09c0-0.05,0.09-0.1,0.14-0.16c0.05,0.05,0.1,0.11,0.15,0.16c0.01,0.01,0.01,0.03,0.01,0.05
		c0,0.48,0.01,0.97-0.01,1.45c0,0.07-0.1,0.2-0.15,0.2c-0.09,0-0.22-0.07-0.26-0.14c-0.24-0.42-0.46-0.85-0.69-1.28
		c-0.02-0.03-0.03-0.06-0.05-0.1c-0.02,0.04-0.06,0.08-0.06,0.12c0,0.41,0,0.82,0,1.22c0,0.09,0.01,0.21-0.13,0.18
		c-0.04-0.01-0.09-0.1-0.09-0.16C108.32,46.13,108.33,45.87,108.33,45.62z"/>
	<path fill="#F0F3F5" d="M107.36,46.35c0,0,0.07,0.01,0.14,0c0.05-0.01,0.13-0.04,0.14-0.06c0.02-0.13,0.03-0.26,0.01-0.39
		c-0.03-0.16-0.18-0.07-0.27-0.1c-0.06-0.02-0.15-0.06-0.15-0.1c-0.02-0.14,0.1-0.12,0.18-0.12c0.02,0,0.04,0,0.06,0
		c0.49-0.01,0.67,0.22,0.51,0.69c-0.03,0.08-0.15,0.15-0.24,0.2c-0.41,0.23-1.13,0.17-1.37-0.45c-0.15-0.4-0.03-0.96,0.3-1.19
		c0.35-0.24,0.91-0.22,1.23,0.03c0.01,0.01,0.03,0.03,0.04,0.04c0.01,0.06,0.01,0.13,0.01,0.19c-0.05,0-0.13,0.01-0.14-0.01
		c-0.16-0.21-0.39-0.17-0.61-0.19c-0.21-0.01-0.38,0.05-0.47,0.22c-0.09,0.19-0.16,0.4-0.16,0.61c0,0.14,0.11,0.3,0.19,0.44
		C106.87,46.38,107.08,46.35,107.36,46.35z"/>
	<path fill="#F3F5F7" d="M110.22,45.57c0-0.13,0-0.26,0-0.39c0-0.53,0-0.53,0.55-0.5c0.52,0.04,0.78,0.24,0.94,0.74
		c0.12,0.37-0.11,0.88-0.47,1.03c-0.11,0.05-0.24,0.1-0.36,0.1c-0.2,0.01-0.4-0.01-0.61-0.01c-0.02-0.18-0.04-0.36-0.05-0.54
		C110.22,45.86,110.22,45.71,110.22,45.57z"/>
	<path fill="#276C9A" d="M110.45,45.6c0-0.11,0-0.22,0-0.33c0-0.36,0.1-0.44,0.45-0.37c0.43,0.1,0.65,0.48,0.55,0.97
		c-0.06,0.29-0.5,0.54-0.88,0.47c-0.05-0.01-0.12-0.08-0.12-0.13C110.44,46,110.45,45.8,110.45,45.6z"/>
</g>
<g>
	<path fill="#E9EDF1" d="M93.9,12.74c0-0.22-0.01-0.45,0-0.67c0-0.1-0.06-0.25,0.11-0.26c0.12-0.01,0.27-0.08,0.35,0.14
		c0.11,0.3,0.29,0.58,0.43,0.87c0.05,0.1,0.09,0.2,0.15,0.29c0.03,0.05,0.1,0.07,0.16,0.1c0-0.05,0.01-0.11-0.01-0.15
		c-0.14-0.36-0.05-0.73-0.05-1.09c0-0.05,0.09-0.1,0.14-0.16c0.05,0.05,0.1,0.11,0.15,0.16c0.01,0.01,0.01,0.03,0.01,0.05
		c0,0.48,0.01,0.97-0.01,1.45c0,0.07-0.1,0.2-0.15,0.2c-0.09,0-0.22-0.07-0.26-0.14c-0.24-0.42-0.46-0.85-0.69-1.28
		c-0.02-0.03-0.03-0.06-0.05-0.1c-0.02,0.04-0.06,0.08-0.06,0.12c0,0.41,0,0.82,0,1.22c0,0.09,0.01,0.21-0.13,0.18
		c-0.04-0.01-0.09-0.1-0.09-0.16C93.89,13.26,93.9,13,93.9,12.74z"/>
	<path fill="#F0F3F5" d="M92.93,13.47c0,0,0.07,0.01,0.14,0c0.05-0.01,0.13-0.04,0.14-0.06c0.02-0.13,0.03-0.26,0.01-0.39
		c-0.03-0.16-0.18-0.07-0.27-0.1c-0.06-0.02-0.15-0.06-0.15-0.1c-0.02-0.14,0.1-0.12,0.18-0.12c0.02,0,0.04,0,0.06,0
		c0.49-0.01,0.67,0.22,0.51,0.69c-0.03,0.08-0.15,0.15-0.24,0.2c-0.41,0.23-1.13,0.17-1.37-0.45c-0.15-0.4-0.03-0.96,0.3-1.19
		c0.35-0.24,0.91-0.22,1.23,0.03c0.01,0.01,0.03,0.03,0.04,0.04c0.01,0.06,0.01,0.13,0.01,0.19c-0.05,0-0.13,0.01-0.14-0.01
		c-0.16-0.21-0.39-0.17-0.61-0.19c-0.21-0.01-0.38,0.05-0.47,0.22c-0.09,0.19-0.16,0.4-0.16,0.61c0,0.14,0.11,0.3,0.19,0.44
		C92.44,13.5,92.65,13.47,92.93,13.47z"/>
	<path fill="#F3F5F7" d="M95.79,12.69c0-0.13,0-0.26,0-0.39c0-0.53,0-0.53,0.55-0.5c0.52,0.04,0.78,0.24,0.94,0.74
		c0.12,0.37-0.11,0.88-0.47,1.03c-0.11,0.05-0.24,0.1-0.36,0.1c-0.2,0.01-0.4-0.01-0.61-0.01c-0.02-0.18-0.04-0.36-0.05-0.54
		C95.79,12.98,95.79,12.83,95.79,12.69z"/>
	<path fill="#276C9A" d="M96.02,12.72c0-0.11,0-0.22,0-0.33c0-0.36,0.1-0.44,0.45-0.37c0.43,0.1,0.65,0.48,0.55,0.97
		c-0.06,0.29-0.5,0.54-0.88,0.47c-0.05-0.01-0.12-0.08-0.12-0.13C96.01,13.13,96.02,12.92,96.02,12.72z"/>
</g>
<g>
	<path fill="#DBE3EA" d="M29.63,45.42c0-0.29,0-0.58,0-0.87c0.3-0.02,0.61-0.04,0.91-0.05c0.06,0,0.12-0.01,0.17,0
		c0.06,0.02,0.11,0.07,0.17,0.1c-0.05,0.04-0.09,0.12-0.14,0.12c-0.21,0.01-0.43-0.01-0.64,0.01c-0.08,0.01-0.2,0.08-0.22,0.15
		c-0.03,0.1,0.01,0.21,0.04,0.32c0.01,0.03,0.08,0.07,0.13,0.06c0.23-0.02,0.45-0.04,0.68-0.07c0.12-0.01,0.17,0.06,0.17,0.17
		c0,0.12-0.06,0.17-0.18,0.16c-0.12-0.01-0.23-0.01-0.35,0c-0.17,0.01-0.34,0.04-0.51,0.05c0.12,0.16,0.15,0.31,0,0.47
		c0.07,0.04,0.13,0.13,0.2,0.13c0.23,0,0.45-0.04,0.68-0.05c0.13-0.01,0.17,0.08,0.14,0.19c-0.01,0.06-0.08,0.14-0.13,0.14
		c-0.29,0.01-0.58,0.02-0.87,0.01c-0.17-0.01-0.28-0.1-0.28-0.29c0-0.25,0-0.51,0-0.76C29.61,45.42,29.62,45.42,29.63,45.42z"/>
	<path fill="#DDE4EB" d="M31.26,45.41c0-0.29,0-0.58,0-0.86c0.3-0.02,0.61-0.04,0.91-0.05c0.08,0,0.16-0.01,0.23,0.01
		c0.04,0.01,0.1,0.07,0.1,0.1c0,0.04-0.05,0.11-0.08,0.12c-0.21,0.01-0.43,0.01-0.64,0.01c-0.15-0.01-0.22,0.04-0.2,0.2
		c0,0.04,0,0.08,0,0.12c-0.02,0.19,0.02,0.29,0.25,0.27c0.17-0.02,0.34,0.01,0.52,0.02c0.02,0,0.04,0.06,0.04,0.09
		c0,0.03-0.02,0.09-0.04,0.09c-0.19,0.01-0.38,0.03-0.57,0.02c-0.16-0.01-0.2,0.07-0.19,0.21c0.01,0.15,0.02,0.31-0.01,0.46
		c-0.02,0.09-0.12,0.16-0.18,0.24c-0.05-0.08-0.14-0.15-0.15-0.23c-0.02-0.27-0.01-0.54-0.01-0.81
		C31.25,45.41,31.25,45.41,31.26,45.41z"/>
	<g>
		<path fill="#F6F8F9" d="M27.85,45.51c0-0.29-0.01-0.58,0.01-0.87c0-0.05,0.08-0.13,0.13-0.14c0.19-0.02,0.4-0.05,0.58,0.01
			c0.17,0.05,0.4,0.17,0.44,0.31c0.06,0.22,0.14,0.52-0.13,0.68c-0.14,0.08-0.21,0.11-0.06,0.25c0.17,0.15,0.33,0.32,0.48,0.5
			c0.04,0.04,0.03,0.13,0.04,0.19c-0.07-0.01-0.15,0-0.2-0.03c-0.09-0.06-0.16-0.14-0.23-0.21c-0.13-0.14-0.25-0.29-0.4-0.42
			c-0.08-0.07-0.2-0.12-0.3-0.11c-0.17,0.02-0.09,0.17-0.11,0.28c-0.03,0.15-0.05,0.29-0.08,0.44c-0.01,0.03-0.06,0.06-0.09,0.06
			c-0.02,0-0.06-0.04-0.06-0.07C27.85,46.09,27.85,45.8,27.85,45.51C27.85,45.51,27.85,45.51,27.85,45.51z"/>
		<path fill="#266897" d="M28.09,45.08c0-0.35,0-0.35,0.27-0.35c0.32,0,0.42,0.08,0.43,0.32c0.01,0.27-0.1,0.38-0.43,0.38
			C28.09,45.43,28.09,45.43,28.09,45.08z"/>
	</g>
</g>
<path fill="#FBFCFC" d="M102.74,36.84c0.27,0,0.54,0,0.81,0.01c0.03,0,0.09,0.08,0.08,0.12c0,0.04-0.06,0.11-0.1,0.11
	c-0.45,0.01-0.89,0.01-1.34,0c-0.16,0-0.2,0.06-0.2,0.2c0.01,0.21,0.01,0.43-0.01,0.64c0,0.03-0.08,0.08-0.12,0.08
	c-0.04,0-0.1-0.06-0.1-0.1c-0.01-0.31-0.01-0.62,0-0.93c0-0.04,0.09-0.12,0.14-0.12C102.19,36.83,102.46,36.83,102.74,36.84
	C102.74,36.83,102.74,36.83,102.74,36.84z"/>
<g>
	<path fill="#FFFFFF" stroke="#FFFFFF" stroke-width="0.1" stroke-miterlimit="10" d="M115.66,44.72h-0.2l-0.53,1.69l-0.53-1.69
		h-0.19l0.6,1.87h0.25L115.66,44.72z"/>
	<path fill="#FFFFFF" stroke="#FFFFFF" stroke-width="0.1" stroke-miterlimit="10" d="M116.1,44.72h-0.18v1.87h0.18V44.72z"/>
	<path fill="#FFFFFF" stroke="#FFFFFF" stroke-width="0.1" stroke-miterlimit="10" d="M117.9,46.58v-1.87h-0.18v1.55l-1-1.55h-0.17
		v1.87h0.17v-1.55l1,1.55H117.9z"/>
</g>
<g>
	<path fill="#FFFFFF" stroke="#FFFFFF" stroke-width="0.1" stroke-miterlimit="10" d="M94.35,46.34c0.11-0.1,0.16-0.24,0.16-0.41
		c0-0.17-0.05-0.31-0.15-0.42c-0.1-0.1-0.22-0.15-0.36-0.15c-0.08,0-0.15,0.01-0.21,0.04c-0.06,0.02-0.1,0.06-0.12,0.09l0.08-0.62
		h0.69v-0.16h-0.83l-0.13,0.98l0.12,0.04c0.03-0.06,0.07-0.12,0.15-0.16c0.07-0.04,0.14-0.07,0.22-0.07c0.1,0,0.19,0.04,0.26,0.11
		c0.07,0.07,0.11,0.18,0.11,0.31c0,0.13-0.04,0.23-0.11,0.3c-0.07,0.07-0.16,0.11-0.27,0.11c-0.09,0-0.16-0.02-0.22-0.07
		c-0.06-0.05-0.11-0.11-0.13-0.17l-0.15,0.06c0.04,0.09,0.09,0.17,0.18,0.23c0.08,0.06,0.19,0.09,0.32,0.09
		C94.12,46.48,94.25,46.43,94.35,46.34z"/>
	<path fill="#FFFFFF" stroke="#FFFFFF" stroke-width="0.1" stroke-miterlimit="10" d="M96.02,44.72h-0.19l-0.49,1.57l-0.5-1.57
		h-0.18l0.57,1.74h0.23L96.02,44.72z"/>
</g>
<g>
	<path fill="#FFFFFF" stroke="#FFFFFF" stroke-width="0.1" stroke-miterlimit="10" d="M21.62,46.3c0.11-0.1,0.16-0.22,0.16-0.38
		c0-0.12-0.03-0.23-0.1-0.31c-0.07-0.08-0.15-0.14-0.26-0.18c0.22-0.08,0.32-0.23,0.32-0.44c0-0.15-0.05-0.27-0.15-0.36
		c-0.1-0.1-0.23-0.14-0.38-0.14c-0.1,0-0.18,0.02-0.25,0.05c-0.08,0.03-0.14,0.08-0.18,0.13c-0.04,0.05-0.08,0.1-0.1,0.15
		c-0.02,0.05-0.03,0.1-0.04,0.14L20.82,45c0.01-0.03,0.02-0.07,0.03-0.1c0.01-0.03,0.03-0.08,0.07-0.12
		c0.03-0.04,0.07-0.08,0.12-0.1c0.05-0.03,0.12-0.04,0.18-0.04c0.1,0,0.18,0.03,0.25,0.1c0.07,0.07,0.1,0.15,0.1,0.25
		c0,0.12-0.04,0.2-0.12,0.27c-0.08,0.06-0.19,0.09-0.33,0.09h-0.06v0.16h0.07c0.15,0,0.27,0.03,0.36,0.11
		c0.08,0.08,0.12,0.17,0.12,0.29c0,0.12-0.03,0.2-0.11,0.27c-0.08,0.06-0.17,0.1-0.29,0.1c-0.1,0-0.18-0.02-0.24-0.07
		c-0.07-0.04-0.12-0.09-0.14-0.14c-0.03-0.05-0.04-0.1-0.05-0.16l-0.16,0.05c0.01,0.05,0.01,0.1,0.04,0.16
		c0.02,0.05,0.05,0.1,0.1,0.16c0.04,0.05,0.1,0.09,0.18,0.12c0.08,0.03,0.16,0.05,0.26,0.05C21.38,46.44,21.52,46.39,21.62,46.3z"/>
	<path fill="#FFFFFF" stroke="#FFFFFF" stroke-width="0.1" stroke-miterlimit="10" d="M23.38,44.5h-0.2l-0.54,1.73l-0.55-1.73h-0.2
		l0.62,1.91h0.25L23.38,44.5z"/>
	<path fill="#FFFFFF" stroke="#FFFFFF" stroke-width="0.1" stroke-miterlimit="10" d="M24.52,46.3c0.11-0.1,0.16-0.22,0.16-0.38
		c0-0.12-0.03-0.23-0.1-0.31c-0.07-0.08-0.15-0.14-0.26-0.18c0.21-0.08,0.32-0.23,0.32-0.44c0-0.15-0.05-0.27-0.15-0.36
		c-0.1-0.1-0.23-0.14-0.39-0.14c-0.09,0-0.17,0.02-0.25,0.05s-0.13,0.08-0.17,0.13c-0.05,0.05-0.08,0.1-0.1,0.15
		c-0.02,0.05-0.04,0.1-0.04,0.14L23.71,45c0.01-0.03,0.01-0.07,0.03-0.1c0.01-0.03,0.03-0.08,0.06-0.12
		c0.03-0.04,0.08-0.08,0.12-0.1c0.05-0.03,0.11-0.04,0.18-0.04c0.1,0,0.18,0.03,0.25,0.1c0.06,0.07,0.1,0.15,0.1,0.25
		c0,0.12-0.04,0.2-0.12,0.27c-0.08,0.06-0.19,0.09-0.33,0.09h-0.06v0.16h0.07c0.15,0,0.27,0.03,0.35,0.11
		c0.09,0.08,0.13,0.17,0.13,0.29c0,0.12-0.03,0.2-0.11,0.27c-0.08,0.06-0.17,0.1-0.29,0.1c-0.1,0-0.17-0.02-0.24-0.07
		c-0.06-0.04-0.11-0.09-0.14-0.14c-0.02-0.05-0.04-0.1-0.05-0.16l-0.16,0.05c0,0.05,0.01,0.1,0.04,0.16c0.02,0.05,0.05,0.1,0.1,0.16
		c0.04,0.05,0.1,0.09,0.18,0.12c0.08,0.03,0.17,0.05,0.27,0.05C24.26,46.44,24.41,46.39,24.52,46.3z"/>
</g>
<g>
	<path fill="#EDF1F4" d="M115.9,12.77c-0.04-0.08-0.07-0.15-0.12-0.21c-0.13-0.19-0.27-0.38-0.39-0.57
		c-0.04-0.06-0.03-0.15-0.05-0.23c0.11,0,0.23-0.05,0.29,0.12c0.05,0.14,0.16,0.26,0.24,0.39c0.03,0.05,0.07,0.09,0.11,0.14
		c0.08,0.09,0.17,0.08,0.24-0.01c0.12-0.15,0.24-0.31,0.33-0.48c0.05-0.09,0.08-0.21,0.19-0.15c0.12,0.05,0.06,0.15,0,0.24
		c-0.14,0.21-0.25,0.44-0.41,0.62c-0.11,0.13-0.06,0.18,0.02,0.28c0.16,0.22,0.3,0.45,0.44,0.68c0.02,0.04,0,0.1-0.01,0.16
		c-0.07-0.01-0.17,0.01-0.2-0.03c-0.15-0.2-0.27-0.42-0.41-0.62c-0.06-0.08-0.12-0.21-0.21,0.02c-0.09,0.23-0.29,0.41-0.45,0.6
		c-0.04,0.04-0.13,0.03-0.2,0.04c0.02-0.05,0.03-0.1,0.06-0.14c0.13-0.21,0.27-0.42,0.41-0.63
		C115.82,12.91,115.86,12.84,115.9,12.77z"/>
	<path fill="#EBEFF2" d="M114.2,12.84c0-0.12,0-0.24,0-0.36c0-0.47,0-0.47-0.5-0.5c-0.06,0-0.12-0.01-0.17-0.03
		c-0.02-0.01-0.04-0.06-0.04-0.1c0-0.03,0.03-0.07,0.05-0.09c0.01-0.01,0.04-0.01,0.05-0.01c0.47,0,0.95,0,1.42,0
		c0.04,0,0.08,0.06,0.12,0.09c-0.04,0.05-0.08,0.12-0.13,0.14c-0.16,0.04-0.39-0.08-0.49,0.11c-0.07,0.14-0.07,0.33-0.08,0.5
		c-0.01,0.36,0,0.71-0.01,1.07c0,0.04-0.07,0.1-0.11,0.1c-0.04,0-0.12-0.05-0.12-0.08C114.2,13.39,114.2,13.12,114.2,12.84
		C114.2,12.84,114.2,12.84,114.2,12.84z"/>
	<path fill="#EDF1F3" d="M119.1,12.6c0,0.18,0,0.36,0,0.53c0,0.31,0,0.3,0.36,0.4c0.04,0.01,0.09,0.08,0.09,0.11
		c0,0.04-0.06,0.11-0.1,0.11c-0.28,0.01-0.55,0.01-0.83,0c-0.04,0-0.11-0.05-0.11-0.09c-0.01-0.04,0.05-0.13,0.07-0.13
		c0.26,0.04,0.29-0.1,0.28-0.31c-0.01-0.28,0-0.55-0.01-0.83c0-0.06-0.05-0.14-0.1-0.17c-0.22-0.14-0.22-0.14-0.06-0.24
		c0.08-0.05,0.16-0.1,0.24-0.15c0.04-0.02,0.09-0.04,0.13-0.06c0.01,0.04,0.03,0.07,0.03,0.11C119.1,12.13,119.1,12.36,119.1,12.6
		C119.1,12.6,119.1,12.6,119.1,12.6z"/>
	<path fill="#CEDAE5" d="M117.6,12.71c0.16,0,0.32-0.02,0.47,0.01c0.06,0.01,0.12,0.1,0.17,0.15c-0.06,0.05-0.11,0.15-0.17,0.15
		c-0.33,0.01-0.66-0.01-0.99-0.02c-0.07,0-0.15-0.04-0.22-0.07c-0.05-0.02-0.1-0.04-0.16-0.06c0.05-0.02,0.1-0.06,0.15-0.07
		c0.24-0.05,0.49-0.1,0.73-0.14C117.6,12.68,117.6,12.69,117.6,12.71z"/>
</g>
<g>
	<path fill="#F5F7F9" d="M106.12,12.71c0-0.14-0.02-0.28,0.01-0.42c0.04-0.19-0.15-0.49,0.14-0.55c0.59-0.13,1.05,0.08,1.11,0.47
		c0.02,0.16-0.05,0.39-0.17,0.5c-0.2,0.2-0.1,0.3,0.04,0.43c0.14,0.14,0.28,0.28,0.41,0.43c0.02,0.02,0.03,0.09,0.01,0.11
		c-0.04,0.03-0.11,0.08-0.14,0.06c-0.1-0.04-0.22-0.09-0.29-0.17c-0.17-0.18-0.32-0.4-0.49-0.58c-0.06-0.06-0.19-0.09-0.26-0.07
		c-0.06,0.02-0.1,0.14-0.11,0.22c-0.02,0.12,0,0.24-0.01,0.36c-0.01,0.09,0.04,0.22-0.11,0.23c-0.15,0.01-0.13-0.11-0.13-0.2
		C106.12,13.27,106.12,12.99,106.12,12.71z"/>
	<path fill="#EBEFF3" d="M110.76,12.74c0.05-0.18,0.09-0.37,0.15-0.55c0.13-0.41,0.25-0.49,0.68-0.47c0.31,0.02,0.39,0.16,0.53,0.51
		c0.16,0.4,0.08,0.76-0.05,1.13c-0.1,0.28-0.31,0.4-0.63,0.4c-0.3-0.01-0.42-0.1-0.53-0.44C110.85,13.14,110.81,12.95,110.76,12.74z
		"/>
	<path fill="#EEF2F5" d="M108.99,12.93c-0.01,0.29,0.29,0.41,0.35,0.66c0.01,0.05-0.01,0.13-0.04,0.15
		c-0.03,0.02-0.13,0.02-0.15-0.01c-0.16-0.22-0.3-0.45-0.46-0.67c-0.04-0.05-0.09-0.17-0.19,0.01c-0.13,0.25-0.35,0.47-0.53,0.69
		c-0.01,0.02-0.08,0.01-0.11-0.01c-0.01-0.01-0.02-0.06-0.01-0.08c0.14-0.23,0.28-0.47,0.45-0.68c0.14-0.17,0.13-0.3,0-0.47
		c-0.14-0.18-0.25-0.39-0.37-0.59c-0.03-0.05-0.04-0.12-0.06-0.17c0.09,0.01,0.21,0,0.27,0.05c0.1,0.09,0.16,0.22,0.23,0.33
		c0.04,0.06,0.06,0.14,0.11,0.2c0.11,0.16,0.17,0.15,0.29-0.02c0.14-0.19,0.27-0.38,0.41-0.56c0.02-0.02,0.11,0,0.15,0.02
		c0.02,0.01,0.04,0.08,0.02,0.1c-0.16,0.24-0.31,0.5-0.48,0.72C108.71,12.81,108.84,12.87,108.99,12.93L108.99,12.93z"/>
	<path fill="#C1D2DE" d="M109,12.93c-0.07-0.27,0.21-0.23,0.31-0.35c0.35,0.23,0.73,0.05,1.1,0.11c0.05,0.01,0.14,0.05,0.14,0.06
		c-0.02,0.07-0.04,0.17-0.09,0.19c-0.12,0.05-0.26,0.09-0.38,0.09c-0.19-0.01-0.4-0.15-0.55-0.09
		C109.32,13.01,109.16,12.91,109,12.93L109,12.93z"/>
	<path fill="#276997" d="M106.36,12.32c0-0.35,0-0.35,0.29-0.35c0.32,0.01,0.42,0.09,0.43,0.34c0.01,0.28-0.11,0.38-0.45,0.38
		C106.36,12.69,106.36,12.69,106.36,12.32z"/>
	<path fill="#276A98" d="M111.15,12.75c0-0.16-0.01-0.32,0-0.47c0.02-0.21,0.12-0.3,0.34-0.31c0.24-0.01,0.37,0.09,0.38,0.33
		c0.01,0.29,0.01,0.59,0,0.88c-0.01,0.25-0.13,0.35-0.37,0.34c-0.24-0.01-0.33-0.1-0.35-0.36
		C111.14,13.03,111.15,12.89,111.15,12.75C111.15,12.75,111.15,12.75,111.15,12.75z"/>
</g>
<g>
	<path fill="#F6F7F7" stroke="#FFFFFF" stroke-width="0.05" stroke-miterlimit="10" d="M86.64,11.6c0.29,0,0.51,0.09,0.66,0.26
		c0.15,0.17,0.23,0.4,0.23,0.69c0,0.29-0.08,0.53-0.23,0.72c-0.15,0.19-0.37,0.29-0.66,0.29H86V11.6H86.64z M86.64,13.34
		c0.2,0,0.36-0.08,0.47-0.23c0.11-0.15,0.17-0.34,0.17-0.56c0-0.22-0.05-0.39-0.16-0.53c-0.11-0.13-0.27-0.2-0.47-0.2h-0.41v1.52
		H86.64z"/>
	<path fill="#F6F7F7" stroke="#FFFFFF" stroke-width="0.05" stroke-miterlimit="10" d="M87.78,12.12c0.01-0.15,0.06-0.27,0.16-0.38
		c0.1-0.11,0.24-0.17,0.41-0.17c0.16,0,0.3,0.05,0.41,0.15c0.11,0.1,0.16,0.24,0.16,0.41c0,0.09-0.02,0.17-0.04,0.24
		c-0.03,0.07-0.07,0.13-0.12,0.18c-0.05,0.05-0.1,0.09-0.16,0.13c-0.06,0.04-0.12,0.08-0.18,0.12c-0.06,0.04-0.12,0.09-0.17,0.13
		c-0.05,0.05-0.1,0.1-0.14,0.17c-0.04,0.07-0.06,0.15-0.07,0.24h0.89v0.21h-1.17c0.01-0.14,0.03-0.27,0.06-0.38s0.08-0.2,0.14-0.27
		c0.06-0.07,0.12-0.13,0.18-0.18c0.06-0.05,0.13-0.1,0.2-0.14c0.07-0.04,0.12-0.08,0.18-0.12c0.05-0.04,0.1-0.09,0.13-0.14
		c0.03-0.06,0.05-0.12,0.05-0.19c0-0.1-0.03-0.18-0.09-0.25c-0.06-0.06-0.14-0.1-0.24-0.1c-0.11,0-0.2,0.04-0.26,0.11
		c-0.06,0.08-0.09,0.17-0.1,0.29L87.78,12.12z"/>
</g>
<g>
	<path fill="#F6F7F7" stroke="#FFFFFF" stroke-width="0.05" stroke-miterlimit="10" d="M79.42,11.75c0.29,0,0.51,0.09,0.66,0.26
		s0.23,0.4,0.23,0.69c0,0.29-0.08,0.53-0.23,0.72c-0.15,0.19-0.37,0.29-0.66,0.29h-0.64v-1.96H79.42z M79.42,13.49
		c0.2,0,0.36-0.08,0.47-0.23c0.11-0.15,0.17-0.34,0.17-0.56c0-0.22-0.05-0.39-0.16-0.53c-0.11-0.13-0.27-0.2-0.47-0.2h-0.41v1.52
		H79.42z"/>
	<path fill="#F6F7F7" stroke="#FFFFFF" stroke-width="0.05" stroke-miterlimit="10" d="M81.39,12.69c0.23,0.09,0.35,0.26,0.35,0.5
		c0,0.17-0.06,0.3-0.17,0.4c-0.11,0.1-0.26,0.15-0.44,0.15c-0.1,0-0.19-0.02-0.27-0.05s-0.14-0.07-0.19-0.13
		c-0.05-0.05-0.08-0.11-0.11-0.16c-0.03-0.06-0.04-0.11-0.05-0.17l0.21-0.06c0.01,0.04,0.02,0.08,0.03,0.12
		c0.02,0.04,0.04,0.08,0.07,0.11c0.03,0.04,0.07,0.07,0.12,0.09c0.05,0.02,0.11,0.04,0.18,0.04c0.11,0,0.2-0.03,0.27-0.09
		c0.07-0.06,0.1-0.14,0.1-0.25c0-0.11-0.04-0.21-0.12-0.28c-0.08-0.07-0.2-0.11-0.35-0.11h-0.08v-0.19h0.07
		c0.13,0,0.23-0.03,0.31-0.09c0.08-0.06,0.12-0.14,0.12-0.26c0-0.1-0.03-0.18-0.09-0.24c-0.06-0.06-0.14-0.09-0.24-0.09
		c-0.11,0-0.2,0.04-0.26,0.11c-0.06,0.07-0.1,0.15-0.11,0.23l-0.21-0.06c0.01-0.05,0.02-0.1,0.05-0.15c0.02-0.05,0.06-0.11,0.1-0.16
		c0.05-0.05,0.11-0.1,0.18-0.13c0.08-0.03,0.16-0.05,0.26-0.05c0.16,0,0.3,0.05,0.4,0.14c0.11,0.09,0.16,0.22,0.16,0.37
		C81.7,12.45,81.6,12.61,81.39,12.69z"/>
</g>
<g>
	<path fill="#F6F7F7" stroke="#FFFFFF" stroke-width="0.05" stroke-miterlimit="10" d="M14.1,11.75c0.29,0,0.51,0.09,0.66,0.26
		c0.15,0.17,0.23,0.4,0.23,0.69c0,0.29-0.08,0.53-0.23,0.72c-0.15,0.19-0.37,0.29-0.66,0.29h-0.64v-1.96H14.1z M14.1,13.49
		c0.2,0,0.36-0.08,0.47-0.23c0.11-0.15,0.17-0.34,0.17-0.56c0-0.22-0.05-0.39-0.16-0.53c-0.11-0.13-0.27-0.2-0.47-0.2h-0.41v1.52
		H14.1z"/>
	<path fill="#F6F7F7" stroke="#FFFFFF" stroke-width="0.05" stroke-miterlimit="10" d="M15.9,11.75v1.96h-0.23v-1.65l-0.4,0.28V12.1
		l0.48-0.35H15.9z"/>
	<path fill="#F6F7F7" stroke="#FFFFFF" stroke-width="0.05" stroke-miterlimit="10" d="M16.28,12.27c0.01-0.15,0.06-0.27,0.16-0.38
		c0.1-0.11,0.24-0.17,0.41-0.17c0.16,0,0.3,0.05,0.41,0.15c0.11,0.1,0.16,0.24,0.16,0.41c0,0.09-0.02,0.17-0.04,0.24
		c-0.03,0.07-0.07,0.13-0.12,0.18c-0.05,0.05-0.1,0.09-0.16,0.13c-0.06,0.04-0.12,0.08-0.18,0.12c-0.06,0.04-0.12,0.09-0.17,0.13
		c-0.05,0.05-0.1,0.1-0.14,0.17c-0.04,0.07-0.06,0.15-0.07,0.24h0.89v0.21h-1.17c0.01-0.14,0.03-0.27,0.06-0.38
		c0.04-0.11,0.08-0.2,0.14-0.27c0.06-0.07,0.12-0.13,0.18-0.18c0.06-0.05,0.13-0.1,0.2-0.14c0.07-0.04,0.12-0.08,0.18-0.12
		c0.05-0.04,0.1-0.09,0.13-0.14c0.03-0.06,0.05-0.12,0.05-0.19c0-0.1-0.03-0.18-0.09-0.25c-0.06-0.06-0.14-0.1-0.24-0.1
		c-0.11,0-0.2,0.04-0.26,0.11c-0.06,0.08-0.09,0.17-0.1,0.29L16.28,12.27z"/>
</g>
<g>
	<path fill="#F6F7F7" stroke="#FFFFFF" stroke-width="0.05" stroke-miterlimit="10" d="M14.15,44.48c0.28,0,0.48,0.08,0.63,0.25
		c0.14,0.17,0.21,0.38,0.21,0.65c0,0.27-0.07,0.5-0.22,0.68c-0.14,0.18-0.35,0.27-0.62,0.27h-0.61v-1.85H14.15z M14.15,46.13
		c0.19,0,0.34-0.07,0.45-0.22c0.1-0.14,0.16-0.32,0.16-0.53c0-0.2-0.05-0.37-0.16-0.5c-0.1-0.13-0.25-0.19-0.45-0.19h-0.38v1.44
		H14.15z"/>
	<path fill="#F6F7F7" stroke="#FFFFFF" stroke-width="0.05" stroke-miterlimit="10" d="M15.86,44.48v1.85h-0.22v-1.56l-0.38,0.27
		v-0.23l0.45-0.33H15.86z"/>
	<path fill="#F6F7F7" stroke="#FFFFFF" stroke-width="0.05" stroke-miterlimit="10" d="M17,45.37c0.22,0.09,0.33,0.24,0.33,0.47
		c0,0.16-0.05,0.28-0.16,0.37c-0.11,0.09-0.25,0.14-0.42,0.14c-0.1,0-0.18-0.02-0.26-0.05c-0.08-0.03-0.14-0.07-0.18-0.12
		c-0.05-0.05-0.08-0.1-0.1-0.16c-0.02-0.05-0.04-0.11-0.04-0.16l0.2-0.06c0.01,0.04,0.02,0.08,0.03,0.11
		c0.02,0.03,0.04,0.07,0.07,0.11c0.03,0.04,0.07,0.06,0.12,0.09c0.05,0.02,0.11,0.03,0.17,0.03c0.11,0,0.19-0.03,0.26-0.09
		c0.07-0.06,0.1-0.14,0.1-0.24c0-0.11-0.04-0.2-0.12-0.26c-0.08-0.07-0.19-0.1-0.33-0.1h-0.07v-0.18h0.07
		c0.12,0,0.22-0.03,0.29-0.08c0.07-0.05,0.11-0.14,0.11-0.24c0-0.09-0.03-0.17-0.09-0.23c-0.06-0.06-0.13-0.09-0.22-0.09
		c-0.11,0-0.19,0.03-0.24,0.1c-0.06,0.07-0.09,0.14-0.11,0.22l-0.2-0.06c0.01-0.05,0.02-0.09,0.04-0.14c0.02-0.05,0.06-0.1,0.1-0.15
		c0.04-0.05,0.1-0.09,0.17-0.12c0.07-0.03,0.15-0.05,0.24-0.05c0.15,0,0.28,0.05,0.38,0.14c0.1,0.09,0.15,0.21,0.15,0.35
		C17.29,45.14,17.19,45.29,17,45.37z"/>
</g>
<g>
	<path fill="#F6F7F7" stroke="#FFFFFF" stroke-width="0.05" stroke-miterlimit="10" d="M80.33,46.56l-0.18-0.52h-0.76l-0.18,0.52
		h-0.25l0.67-1.85h0.27l0.67,1.85H80.33z M79.46,45.83h0.61l-0.31-0.85L79.46,45.83z"/>
	<path fill="#F6F7F7" stroke="#FFFFFF" stroke-width="0.05" stroke-miterlimit="10" d="M81.65,45.16c-0.07-0.19-0.19-0.28-0.36-0.28
		c-0.14,0-0.26,0.07-0.33,0.21c-0.08,0.14-0.12,0.34-0.12,0.62c0.03-0.08,0.08-0.15,0.16-0.22c0.07-0.07,0.18-0.1,0.3-0.1
		c0.15,0,0.28,0.05,0.39,0.16c0.11,0.1,0.16,0.25,0.16,0.42c0,0.18-0.05,0.32-0.16,0.44c-0.11,0.12-0.25,0.17-0.43,0.17
		c-0.2,0-0.35-0.08-0.46-0.24c-0.11-0.16-0.16-0.38-0.16-0.68c0-0.32,0.06-0.56,0.17-0.73c0.11-0.17,0.28-0.26,0.49-0.26
		c0.13,0,0.25,0.03,0.35,0.1c0.1,0.07,0.17,0.17,0.2,0.29L81.65,45.16z M81.25,46.38c0.11,0,0.2-0.04,0.27-0.12
		c0.07-0.08,0.11-0.18,0.11-0.29c0-0.11-0.03-0.2-0.1-0.27c-0.07-0.07-0.16-0.11-0.26-0.11c-0.11,0-0.2,0.04-0.27,0.12
		c-0.07,0.08-0.11,0.17-0.11,0.28c0,0.11,0.03,0.2,0.1,0.28C81.06,46.34,81.15,46.38,81.25,46.38z"/>
</g>
<g>
	<path fill="#F6F7F7" stroke="#FFFFFF" stroke-width="0.05" stroke-miterlimit="10" d="M73.12,46.56l-0.18-0.52h-0.76L72,46.56
		h-0.25l0.67-1.85h0.27l0.67,1.85H73.12z M72.25,45.83h0.61l-0.31-0.85L72.25,45.83z"/>
	<path fill="#F6F7F7" stroke="#FFFFFF" stroke-width="0.05" stroke-miterlimit="10" d="M73.68,46.15c0.02,0.06,0.06,0.12,0.13,0.16
		c0.06,0.05,0.13,0.07,0.22,0.07c0.11,0,0.2-0.03,0.27-0.1c0.07-0.07,0.11-0.17,0.11-0.29s-0.04-0.22-0.11-0.3
		c-0.07-0.07-0.16-0.11-0.26-0.11c-0.08,0-0.16,0.02-0.22,0.07c-0.07,0.04-0.11,0.1-0.14,0.17l-0.17-0.04l0.15-1.06h0.9v0.21h-0.72
		l-0.07,0.6c0.03-0.03,0.07-0.06,0.13-0.09c0.06-0.03,0.12-0.04,0.2-0.04c0.15,0,0.28,0.05,0.39,0.16c0.11,0.11,0.16,0.26,0.16,0.44
		c0,0.19-0.06,0.33-0.17,0.44s-0.25,0.16-0.43,0.16c-0.14,0-0.26-0.03-0.35-0.1c-0.09-0.07-0.16-0.15-0.2-0.25L73.68,46.15z"/>
</g>
<g>
	<path fill="#F6F7F7" stroke="#FFFFFF" stroke-width="0.05" stroke-miterlimit="10" d="M65.81,46.56l-0.18-0.52h-0.76l-0.18,0.52
		h-0.24l0.67-1.85h0.27l0.67,1.85H65.81z M64.95,45.83h0.61l-0.31-0.85L64.95,45.83z"/>
	<path fill="#F6F7F7" stroke="#FFFFFF" stroke-width="0.05" stroke-miterlimit="10" d="M67.09,45.51v0.39h0.4v0.2h-0.4v0.45h-0.22
		v-0.45h-0.75v-0.15l0.63-1.25h0.23l-0.6,1.2h0.48v-0.39H67.09z"/>
</g>
<g>
	<path fill="#F6F7F7" stroke="#FFFFFF" stroke-width="0.05" stroke-miterlimit="10" d="M58.68,46.56l-0.18-0.52h-0.76l-0.18,0.52
		h-0.24l0.67-1.85h0.27l0.67,1.85H58.68z M57.81,45.83h0.61l-0.31-0.85L57.81,45.83z"/>
	<path fill="#F6F7F7" stroke="#FFFFFF" stroke-width="0.05" stroke-miterlimit="10" d="M59.87,45.6c0.22,0.09,0.33,0.24,0.33,0.47
		c0,0.16-0.05,0.28-0.16,0.37c-0.11,0.09-0.25,0.14-0.42,0.14c-0.1,0-0.18-0.02-0.26-0.05s-0.14-0.07-0.18-0.12
		c-0.05-0.05-0.08-0.1-0.1-0.16s-0.04-0.11-0.04-0.16l0.2-0.06c0.01,0.04,0.02,0.08,0.03,0.11c0.02,0.03,0.04,0.07,0.07,0.11
		c0.03,0.04,0.07,0.06,0.12,0.09c0.05,0.02,0.11,0.03,0.17,0.03c0.11,0,0.19-0.03,0.26-0.09c0.07-0.06,0.1-0.14,0.1-0.24
		c0-0.11-0.04-0.2-0.12-0.26c-0.08-0.07-0.19-0.1-0.33-0.1h-0.07v-0.18h0.07c0.12,0,0.22-0.03,0.29-0.08
		c0.07-0.05,0.11-0.14,0.11-0.24c0-0.09-0.03-0.17-0.09-0.23c-0.06-0.06-0.13-0.09-0.22-0.09c-0.11,0-0.19,0.03-0.24,0.1
		c-0.06,0.07-0.09,0.14-0.11,0.22l-0.2-0.06c0.01-0.05,0.02-0.09,0.04-0.14c0.02-0.05,0.06-0.1,0.1-0.15
		c0.04-0.05,0.1-0.09,0.17-0.12c0.07-0.03,0.15-0.05,0.24-0.05c0.15,0,0.28,0.05,0.38,0.14c0.1,0.09,0.15,0.21,0.15,0.35
		C60.17,45.37,60.07,45.51,59.87,45.6z"/>
</g>
<g>
	<path fill="#F6F7F7" stroke="#FFFFFF" stroke-width="0.05" stroke-miterlimit="10" d="M51.46,46.56l-0.18-0.52h-0.76l-0.18,0.52
		h-0.24l0.67-1.85h0.27l0.67,1.85H51.46z M50.59,45.83h0.61l-0.31-0.85L50.59,45.83z"/>
	<path fill="#F6F7F7" stroke="#FFFFFF" stroke-width="0.05" stroke-miterlimit="10" d="M51.92,45.2c0.01-0.14,0.06-0.26,0.15-0.36
		c0.1-0.1,0.22-0.16,0.39-0.16c0.16,0,0.28,0.05,0.38,0.14c0.1,0.09,0.15,0.22,0.15,0.39c0,0.08-0.01,0.16-0.04,0.23
		c-0.03,0.07-0.07,0.12-0.11,0.17c-0.05,0.05-0.1,0.09-0.15,0.13c-0.06,0.04-0.12,0.08-0.17,0.12c-0.06,0.04-0.11,0.08-0.16,0.13
		c-0.05,0.04-0.09,0.1-0.13,0.17c-0.04,0.07-0.06,0.14-0.07,0.22h0.84v0.2h-1.11c0.01-0.13,0.03-0.25,0.06-0.36
		c0.03-0.1,0.08-0.19,0.13-0.26c0.05-0.06,0.11-0.12,0.17-0.17c0.06-0.05,0.12-0.09,0.18-0.13c0.06-0.04,0.12-0.08,0.17-0.11
		c0.05-0.04,0.09-0.08,0.12-0.14c0.03-0.05,0.05-0.11,0.05-0.18c0-0.1-0.03-0.17-0.08-0.23c-0.06-0.06-0.13-0.09-0.22-0.09
		c-0.1,0-0.18,0.04-0.24,0.11c-0.06,0.07-0.09,0.16-0.09,0.27L51.92,45.2z"/>
</g>
<g>
	<path fill="#F6F7F7" stroke="#FFFFFF" stroke-width="0.05" stroke-miterlimit="10" d="M44.57,46.56l-0.18-0.52h-0.76l-0.18,0.52
		h-0.24l0.67-1.85h0.27l0.67,1.85H44.57z M43.71,45.83h0.61l-0.31-0.85L43.71,45.83z"/>
	<path fill="#F6F7F7" stroke="#FFFFFF" stroke-width="0.05" stroke-miterlimit="10" d="M45.45,44.71v1.85h-0.22V45l-0.38,0.27v-0.23
		l0.45-0.33H45.45z"/>
</g>
<g>
	<path fill="#F6F7F7" stroke="#FFFFFF" stroke-width="0.05" stroke-miterlimit="10" d="M37.02,46.56l-0.18-0.52h-0.76l-0.18,0.52
		h-0.24l0.67-1.85h0.27l0.67,1.85H37.02z M36.15,45.83h0.61l-0.31-0.85L36.15,45.83z"/>
	<path fill="#F6F7F7" stroke="#FFFFFF" stroke-width="0.05" stroke-miterlimit="10" d="M38.41,46.33c-0.11,0.17-0.27,0.25-0.46,0.25
		c-0.2,0-0.35-0.08-0.46-0.25s-0.17-0.4-0.17-0.7c0-0.3,0.06-0.54,0.17-0.7c0.11-0.17,0.27-0.25,0.46-0.25
		c0.19,0,0.35,0.08,0.46,0.25c0.11,0.17,0.17,0.4,0.17,0.7C38.58,45.93,38.52,46.16,38.41,46.33z M37.94,46.37
		c0.13,0,0.23-0.06,0.3-0.19c0.07-0.13,0.11-0.31,0.11-0.55c0-0.24-0.04-0.42-0.11-0.55c-0.07-0.13-0.17-0.19-0.3-0.19
		c-0.13,0-0.22,0.06-0.3,0.19c-0.07,0.13-0.11,0.31-0.11,0.55c0,0.24,0.03,0.42,0.11,0.55C37.72,46.31,37.82,46.37,37.94,46.37z"/>
</g>
<g>
	<path fill="#F6F7F7" stroke="#FFFFFF" stroke-width="0.05" stroke-miterlimit="10" d="M87.59,46.56l-0.18-0.52h-0.76l-0.18,0.52
		h-0.24l0.67-1.85h0.27l0.67,1.85H87.59z M86.73,45.83h0.61l-0.31-0.85L86.73,45.83z"/>
	<path fill="#F6F7F7" stroke="#FFFFFF" stroke-width="0.05" stroke-miterlimit="10" d="M87.91,44.71H89v0.14l-0.71,1.71h-0.25
		l0.7-1.65h-0.83V44.71z"/>
</g>
<g>
	<path fill="#F6F7F7" stroke="#FFFFFF" stroke-width="0.05" stroke-miterlimit="10" d="M21.57,11.75c0.29,0,0.51,0.09,0.66,0.26
		c0.15,0.17,0.23,0.4,0.23,0.69c0,0.29-0.08,0.53-0.23,0.72c-0.15,0.19-0.37,0.29-0.66,0.29h-0.64v-1.96H21.57z M21.57,13.49
		c0.2,0,0.36-0.08,0.47-0.23c0.11-0.15,0.17-0.34,0.17-0.56c0-0.22-0.05-0.39-0.16-0.53c-0.11-0.13-0.27-0.2-0.47-0.2h-0.41v1.52
		H21.57z"/>
	<path fill="#F6F7F7" stroke="#FFFFFF" stroke-width="0.05" stroke-miterlimit="10" d="M23.36,11.75v1.96h-0.23v-1.65l-0.4,0.28
		V12.1l0.48-0.35H23.36z"/>
	<path fill="#F6F7F7" stroke="#FFFFFF" stroke-width="0.05" stroke-miterlimit="10" d="M24.36,11.75v1.96h-0.23v-1.65l-0.4,0.28
		V12.1l0.48-0.35H24.36z"/>
</g>
<g>
	<path fill="#F6F7F7" stroke="#FFFFFF" stroke-width="0.05" stroke-miterlimit="10" d="M28.41,11.75c0.29,0,0.51,0.09,0.66,0.26
		s0.23,0.4,0.23,0.69c0,0.29-0.08,0.53-0.23,0.72c-0.15,0.19-0.37,0.29-0.66,0.29h-0.64v-1.96H28.41z M28.41,13.49
		c0.2,0,0.36-0.08,0.47-0.23c0.11-0.15,0.17-0.34,0.17-0.56c0-0.22-0.05-0.39-0.16-0.53c-0.11-0.13-0.27-0.2-0.47-0.2h-0.41v1.52
		H28.41z"/>
	<path fill="#F6F7F7" stroke="#FFFFFF" stroke-width="0.05" stroke-miterlimit="10" d="M30.21,11.75v1.96h-0.23v-1.65l-0.4,0.28
		V12.1l0.48-0.35H30.21z"/>
	<path fill="#F6F7F7" stroke="#FFFFFF" stroke-width="0.05" stroke-miterlimit="10" d="M31.73,13.47c-0.12,0.18-0.28,0.27-0.49,0.27
		c-0.21,0-0.37-0.09-0.49-0.27s-0.18-0.42-0.18-0.74c0-0.32,0.06-0.57,0.18-0.74c0.12-0.18,0.28-0.26,0.49-0.26
		c0.2,0,0.37,0.09,0.49,0.26c0.12,0.17,0.18,0.42,0.18,0.74C31.91,13.05,31.85,13.29,31.73,13.47z M31.24,13.51
		c0.14,0,0.24-0.07,0.32-0.2c0.08-0.14,0.11-0.33,0.11-0.58c0-0.25-0.04-0.44-0.11-0.58c-0.08-0.13-0.18-0.2-0.32-0.2
		c-0.13,0-0.24,0.07-0.31,0.2c-0.08,0.14-0.11,0.33-0.11,0.58c0,0.25,0.04,0.45,0.11,0.58C31,13.44,31.11,13.51,31.24,13.51z"/>
</g>
<g>
	<path fill="#F6F7F7" stroke="#FFFFFF" stroke-width="0.05" stroke-miterlimit="10" d="M36.16,11.75c0.29,0,0.51,0.09,0.66,0.26
		s0.23,0.4,0.23,0.69c0,0.29-0.08,0.53-0.23,0.72c-0.15,0.19-0.37,0.29-0.66,0.29h-0.64v-1.96H36.16z M36.16,13.49
		c0.2,0,0.36-0.08,0.47-0.23c0.11-0.15,0.17-0.34,0.17-0.56c0-0.22-0.05-0.39-0.16-0.53c-0.11-0.13-0.27-0.2-0.47-0.2h-0.41v1.52
		H36.16z"/>
	<path fill="#F6F7F7" stroke="#FFFFFF" stroke-width="0.05" stroke-miterlimit="10" d="M37.5,13.22c0.07,0.2,0.2,0.3,0.38,0.3
		c0.15,0,0.27-0.07,0.35-0.22c0.08-0.14,0.13-0.36,0.13-0.65c-0.03,0.08-0.08,0.16-0.16,0.23c-0.08,0.07-0.19,0.1-0.32,0.1
		c-0.16,0-0.29-0.05-0.41-0.17c-0.11-0.11-0.17-0.26-0.17-0.45c0-0.19,0.06-0.34,0.17-0.46c0.11-0.12,0.26-0.18,0.45-0.18
		c0.21,0,0.37,0.08,0.48,0.25c0.11,0.17,0.17,0.41,0.17,0.72c0,0.33-0.06,0.59-0.18,0.78c-0.12,0.18-0.29,0.27-0.52,0.27
		c-0.14,0-0.26-0.04-0.36-0.11c-0.1-0.07-0.17-0.18-0.22-0.31L37.5,13.22z M37.91,11.94c-0.11,0-0.21,0.04-0.28,0.13
		c-0.08,0.08-0.11,0.19-0.11,0.31c0,0.11,0.04,0.21,0.11,0.29c0.07,0.08,0.16,0.12,0.28,0.12c0.12,0,0.21-0.04,0.29-0.12
		c0.07-0.08,0.11-0.18,0.11-0.3c0-0.12-0.04-0.21-0.11-0.3C38.11,11.98,38.02,11.94,37.91,11.94z"/>
</g>
<g>
	<path fill="#F6F7F7" stroke="#FFFFFF" stroke-width="0.05" stroke-miterlimit="10" d="M43.36,11.75c0.29,0,0.51,0.09,0.66,0.26
		c0.15,0.17,0.23,0.4,0.23,0.69c0,0.29-0.08,0.53-0.23,0.72c-0.15,0.19-0.37,0.29-0.66,0.29h-0.64v-1.96H43.36z M43.36,13.49
		c0.2,0,0.36-0.08,0.47-0.23c0.11-0.15,0.17-0.34,0.17-0.56c0-0.22-0.05-0.39-0.16-0.53c-0.11-0.13-0.27-0.2-0.47-0.2h-0.41v1.52
		H43.36z"/>
	<path fill="#F6F7F7" stroke="#FFFFFF" stroke-width="0.05" stroke-miterlimit="10" d="M45.43,12.67c0.1,0.04,0.18,0.11,0.25,0.19
		s0.1,0.19,0.1,0.32c0,0.17-0.06,0.3-0.17,0.4c-0.11,0.1-0.27,0.15-0.47,0.15c-0.2,0-0.35-0.05-0.47-0.15
		c-0.11-0.1-0.17-0.23-0.17-0.4c0-0.13,0.03-0.24,0.1-0.32s0.15-0.15,0.25-0.19c-0.08-0.03-0.14-0.09-0.19-0.16
		c-0.05-0.07-0.08-0.17-0.08-0.27c0-0.14,0.05-0.27,0.16-0.37c0.11-0.1,0.24-0.15,0.4-0.15c0.17,0,0.3,0.05,0.41,0.15
		c0.11,0.1,0.16,0.22,0.16,0.37c0,0.11-0.03,0.2-0.08,0.27C45.57,12.59,45.5,12.64,45.43,12.67z M45.14,13.52
		c0.13,0,0.23-0.03,0.3-0.1c0.07-0.07,0.11-0.15,0.11-0.26c0-0.1-0.04-0.19-0.11-0.26c-0.07-0.07-0.17-0.11-0.3-0.11
		c-0.12,0-0.22,0.04-0.3,0.11c-0.08,0.07-0.11,0.16-0.11,0.26c0,0.1,0.04,0.19,0.11,0.26C44.91,13.49,45.01,13.52,45.14,13.52z
		 M44.81,12.26c0,0.09,0.03,0.16,0.09,0.23s0.14,0.1,0.24,0.1c0.1,0,0.18-0.03,0.24-0.1c0.06-0.06,0.09-0.14,0.09-0.23
		c0-0.09-0.03-0.17-0.09-0.23c-0.06-0.06-0.14-0.09-0.24-0.09c-0.1,0-0.18,0.03-0.24,0.09C44.84,12.09,44.81,12.16,44.81,12.26z"/>
</g>
<g>
	<path fill="#F6F7F7" stroke="#FFFFFF" stroke-width="0.05" stroke-miterlimit="10" d="M50.67,11.75c0.29,0,0.51,0.09,0.66,0.26
		c0.15,0.17,0.23,0.4,0.23,0.69c0,0.29-0.08,0.53-0.23,0.72c-0.15,0.19-0.37,0.29-0.66,0.29h-0.64v-1.96H50.67z M50.67,13.49
		c0.2,0,0.36-0.08,0.47-0.23c0.11-0.15,0.17-0.34,0.17-0.56c0-0.22-0.05-0.39-0.16-0.53c-0.11-0.13-0.27-0.2-0.48-0.2h-0.4v1.52
		H50.67z"/>
	<path fill="#F6F7F7" stroke="#FFFFFF" stroke-width="0.05" stroke-miterlimit="10" d="M51.71,11.75h1.16v0.15l-0.75,1.8h-0.26
		l0.74-1.75h-0.88V11.75z"/>
</g>
<g>
	<path fill="#F6F7F7" stroke="#FFFFFF" stroke-width="0.05" stroke-miterlimit="10" d="M57.76,11.75c0.29,0,0.51,0.09,0.66,0.26
		s0.23,0.4,0.23,0.69c0,0.29-0.08,0.53-0.23,0.72c-0.15,0.19-0.37,0.29-0.66,0.29h-0.64v-1.96H57.76z M57.76,13.49
		c0.2,0,0.36-0.08,0.47-0.23c0.11-0.15,0.17-0.34,0.17-0.56c0-0.22-0.05-0.39-0.16-0.53c-0.11-0.13-0.27-0.2-0.47-0.2h-0.41v1.52
		H57.76z"/>
	<path fill="#F6F7F7" stroke="#FFFFFF" stroke-width="0.05" stroke-miterlimit="10" d="M59.98,12.23c-0.07-0.2-0.2-0.3-0.38-0.3
		c-0.15,0-0.27,0.07-0.35,0.22c-0.08,0.14-0.13,0.36-0.13,0.65c0.03-0.08,0.08-0.16,0.16-0.23c0.08-0.07,0.18-0.1,0.32-0.1
		c0.16,0,0.29,0.05,0.41,0.17c0.12,0.11,0.17,0.26,0.17,0.45c0,0.19-0.06,0.34-0.17,0.46c-0.11,0.12-0.26,0.18-0.45,0.18
		c-0.21,0-0.37-0.08-0.48-0.25c-0.11-0.17-0.17-0.4-0.17-0.72c0-0.34,0.06-0.59,0.18-0.78c0.12-0.18,0.29-0.27,0.52-0.27
		c0.14,0,0.26,0.04,0.36,0.11c0.1,0.07,0.17,0.18,0.22,0.31L59.98,12.23z M59.57,13.52c0.11,0,0.21-0.04,0.28-0.13
		c0.08-0.08,0.11-0.19,0.11-0.31c0-0.11-0.04-0.21-0.11-0.29c-0.07-0.08-0.16-0.12-0.27-0.12c-0.12,0-0.21,0.04-0.29,0.12
		c-0.08,0.08-0.11,0.18-0.11,0.3c0,0.12,0.04,0.21,0.11,0.3S59.46,13.52,59.57,13.52z"/>
</g>
<g>
	<path fill="#F6F7F7" stroke="#FFFFFF" stroke-width="0.05" stroke-miterlimit="10" d="M65,11.75c0.29,0,0.51,0.09,0.66,0.26
		s0.23,0.4,0.23,0.69c0,0.29-0.08,0.53-0.23,0.72c-0.15,0.19-0.37,0.29-0.66,0.29h-0.64v-1.96H65z M65,13.49
		c0.2,0,0.36-0.08,0.47-0.23c0.11-0.15,0.17-0.34,0.17-0.56c0-0.22-0.05-0.39-0.16-0.53c-0.11-0.13-0.27-0.2-0.47-0.2H64.6v1.52H65z
		"/>
	<path fill="#F6F7F7" stroke="#FFFFFF" stroke-width="0.05" stroke-miterlimit="10" d="M66.35,13.28c0.02,0.07,0.07,0.12,0.13,0.17
		s0.14,0.07,0.24,0.07c0.12,0,0.21-0.04,0.29-0.11c0.07-0.07,0.11-0.18,0.11-0.31s-0.04-0.24-0.11-0.32
		c-0.08-0.08-0.17-0.12-0.28-0.12c-0.09,0-0.17,0.02-0.24,0.07c-0.07,0.05-0.12,0.11-0.15,0.17l-0.18-0.05l0.15-1.12h0.95v0.22
		h-0.76l-0.08,0.63c0.03-0.03,0.08-0.06,0.14-0.09c0.06-0.03,0.13-0.04,0.21-0.04c0.16,0,0.29,0.06,0.41,0.17
		c0.11,0.11,0.17,0.27,0.17,0.47c0,0.2-0.06,0.35-0.17,0.46c-0.12,0.11-0.27,0.17-0.45,0.17c-0.15,0-0.28-0.04-0.37-0.11
		c-0.1-0.07-0.17-0.16-0.21-0.27L66.35,13.28z"/>
</g>
<g>
	<path fill="#F6F7F7" stroke="#FFFFFF" stroke-width="0.05" stroke-miterlimit="10" d="M72.1,11.75c0.29,0,0.51,0.09,0.66,0.26
		c0.15,0.17,0.23,0.4,0.23,0.69c0,0.29-0.08,0.53-0.23,0.72c-0.15,0.19-0.37,0.29-0.66,0.29h-0.64v-1.96H72.1z M72.1,13.49
		c0.2,0,0.36-0.08,0.47-0.23c0.11-0.15,0.17-0.34,0.17-0.56c0-0.22-0.05-0.39-0.16-0.53c-0.11-0.13-0.27-0.2-0.47-0.2H71.7v1.52
		H72.1z"/>
	<path fill="#F6F7F7" stroke="#FFFFFF" stroke-width="0.05" stroke-miterlimit="10" d="M74.23,12.61v0.42h0.42v0.21h-0.42v0.48H74
		v-0.48h-0.8v-0.15l0.67-1.33h0.24l-0.63,1.27H74v-0.42H74.23z"/>
</g>
<g>
	<path fill="#FFFFFF" stroke="#FFFFFF" stroke-width="0.05" stroke-miterlimit="10" d="M103.58,30.31c0,0.18-0.05,0.32-0.15,0.42
		c-0.1,0.1-0.23,0.14-0.39,0.14c-0.16,0-0.29-0.05-0.39-0.14c-0.1-0.09-0.15-0.24-0.15-0.42v-0.33h-0.63v-0.16h1.7V30.31z
		 M102.66,30.32c0,0.13,0.04,0.23,0.11,0.29c0.07,0.07,0.16,0.1,0.27,0.1c0.11,0,0.2-0.03,0.27-0.1c0.07-0.07,0.11-0.17,0.11-0.29
		v-0.34h-0.76V30.32z"/>
	<path fill="#FFFFFF" stroke="#FFFFFF" stroke-width="0.05" stroke-miterlimit="10" d="M103.58,33.15l-1.7-0.43v-0.21l1.07-0.43
		l-1.07-0.43v-0.21l1.7-0.43v0.18l-1.51,0.37l1.05,0.42v0.21l-1.05,0.41l1.51,0.38V33.15z"/>
	<path fill="#FFFFFF" stroke="#FFFFFF" stroke-width="0.05" stroke-miterlimit="10" d="M101.88,34.51v-0.22l0.71-0.75h-0.71v-0.16
		h1.7v0.49c0,0.17-0.04,0.31-0.13,0.4c-0.09,0.09-0.2,0.14-0.34,0.14c-0.15,0-0.26-0.04-0.35-0.13c-0.09-0.09-0.13-0.22-0.13-0.39
		V33.7L101.88,34.51z M103.43,33.88v-0.34h-0.66v0.34c0,0.12,0.03,0.21,0.09,0.27c0.06,0.06,0.14,0.09,0.24,0.09
		c0.1,0,0.18-0.03,0.24-0.09C103.4,34.09,103.43,34,103.43,33.88z"/>
</g>
</svg>
