<svg xmlns="http://www.w3.org/2000/svg" viewBox="0 0 385.97 252.9"><defs><style>.cls-1,.cls-3{fill:#f5f5f5;}.cls-2,.cls-9{fill:#ececec;}.cls-2,.cls-3{opacity:0.57;}.cls-4{fill:#575756;}.cls-5,.cls-6,.cls-7{fill:#31a1c1;}.cls-5,.cls-8{stroke:#31a1c1;}.cls-5,.cls-6,.cls-7,.cls-8{stroke-linecap:round;stroke-miterlimit:10;}.cls-6,.cls-7{stroke:#e01811;}.cls-7,.cls-8{stroke-width:0.75px;}.cls-8{fill:#e01811;}</style></defs><title>breadboard_v0</title><g id="Capa_2" data-name="Capa 2"><g id="Capa_24" data-name="Capa 24"><path class="cls-1" d="M386,5.81V247.08a5.81,5.81,0,0,1-5.81,5.82H5.81A5.82,5.82,0,0,1,0,247.08V5.81A5.82,5.82,0,0,1,5.81,0H380.15A5.81,5.81,0,0,1,386,5.81Z"/><path class="cls-2" d="M18.17,252.9H5.81A5.82,5.82,0,0,1,0,247.08V5.81A5.82,5.82,0,0,1,5.81,0H18.17a5.81,5.81,0,0,0-5.81,5.81V247.08A5.81,5.81,0,0,0,18.17,252.9Z"/><path class="cls-3" d="M386,5.81V247.08a5.81,5.81,0,0,1-5.81,5.82h-362a5.81,5.81,0,0,1-5.81-5.82V5.81A5.81,5.81,0,0,1,18.17,0h362A5.81,5.81,0,0,1,386,5.81Z"/><path class="cls-3" d="M386,5.81V247.08a5.81,5.81,0,0,1-5.81,5.82h-362a5.81,5.81,0,0,1-5.81-5.82V5.81A5.81,5.81,0,0,1,18.17,0h362A5.81,5.81,0,0,1,386,5.81Z"/><rect class="cls-4" x="25.4" y="13.38" width="4.33" height="4.33"/><rect class="cls-4" x="25.4" y="24.54" width="4.33" height="4.33"/><rect class="cls-4" x="19.19" y="83.89" width="4.33" height="4.33"/><rect class="cls-4" x="19.19" y="95.97" width="4.33" height="4.33"/><rect class="cls-4" x="19.19" y="108.06" width="4.33" height="4.33"/><rect class="cls-4" x="37.6" y="13.38" width="4.33" height="4.33"/><rect class="cls-4" x="37.6" y="24.54" width="4.33" height="4.33"/><rect class="cls-4" x="31.39" y="83.89" width="4.33" height="4.33"/><rect class="cls-4" x="31.39" y="95.97" width="4.33" height="4.33"/><rect class="cls-4" x="31.39" y="108.06" width="4.33" height="4.33"/><rect class="cls-4" x="50.12" y="13.38" width="4.33" height="4.33"/><rect class="cls-4" x="50.12" y="24.54" width="4.33" height="4.33"/><rect class="cls-4" x="43.9" y="83.89" width="4.33" height="4.33"/><rect class="cls-4" x="43.9" y="95.97" width="4.33" height="4.33"/><rect class="cls-4" x="43.9" y="108.06" width="4.33" height="4.33"/><rect class="cls-4" x="62.31" y="13.38" width="4.33" height="4.33"/><rect class="cls-4" x="62.31" y="24.54" width="4.33" height="4.33"/><rect class="cls-4" x="56.1" y="83.89" width="4.33" height="4.33"/><rect class="cls-4" x="56.1" y="95.97" width="4.33" height="4.33"/><rect class="cls-4" x="56.1" y="108.06" width="4.33" height="4.33"/><rect class="cls-4" x="73.29" y="13.38" width="4.33" height="4.33"/><rect class="cls-4" x="73.29" y="24.54" width="4.33" height="4.33"/><rect class="cls-4" x="67.07" y="83.89" width="4.33" height="4.33"/><rect class="cls-4" x="67.07" y="95.97" width="4.33" height="4.33"/><rect class="cls-4" x="67.07" y="108.06" width="4.33" height="4.33"/><rect class="cls-4" x="79.27" y="83.89" width="4.33" height="4.33"/><rect class="cls-4" x="79.27" y="95.97" width="4.33" height="4.33"/><rect class="cls-4" x="79.27" y="108.06" width="4.33" height="4.33"/><rect class="cls-4" x="98" y="13.38" width="4.33" height="4.33"/><rect class="cls-4" x="98" y="24.54" width="4.33" height="4.33"/><rect class="cls-4" x="91.79" y="83.89" width="4.33" height="4.33"/><rect class="cls-4" x="91.79" y="95.97" width="4.33" height="4.33"/><rect class="cls-4" x="91.79" y="108.06" width="4.33" height="4.33"/><rect class="cls-4" x="110.19" y="13.38" width="4.33" height="4.33"/><rect class="cls-4" x="110.19" y="24.54" width="4.33" height="4.33"/><rect class="cls-4" x="103.98" y="83.89" width="4.33" height="4.33"/><rect class="cls-4" x="103.98" y="95.97" width="4.33" height="4.33"/><rect class="cls-4" x="103.98" y="108.06" width="4.33" height="4.33"/><rect class="cls-4" x="120.55" y="13.38" width="4.33" height="4.33"/><rect class="cls-4" x="120.55" y="24.54" width="4.33" height="4.33"/><rect class="cls-4" x="114.34" y="83.89" width="4.33" height="4.33"/><rect class="cls-4" x="114.34" y="95.97" width="4.33" height="4.33"/><rect class="cls-4" x="114.34" y="108.06" width="4.33" height="4.33"/><rect class="cls-4" x="132.74" y="13.38" width="4.33" height="4.33"/><rect class="cls-4" x="132.74" y="24.54" width="4.33" height="4.33"/><rect class="cls-4" x="126.53" y="83.89" width="4.33" height="4.33"/><rect class="cls-4" x="126.53" y="95.97" width="4.33" height="4.33"/><rect class="cls-4" x="126.53" y="108.06" width="4.33" height="4.33"/><rect class="cls-4" x="145.26" y="13.38" width="4.33" height="4.33"/><rect class="cls-4" x="145.26" y="24.54" width="4.33" height="4.33"/><rect class="cls-4" x="139.05" y="83.89" width="4.33" height="4.33"/><rect class="cls-4" x="139.05" y="95.97" width="4.33" height="4.33"/><rect class="cls-4" x="139.05" y="108.06" width="4.33" height="4.33"/><rect class="cls-4" x="151.24" y="83.89" width="4.33" height="4.33"/><rect class="cls-4" x="151.24" y="95.97" width="4.33" height="4.33"/><rect class="cls-4" x="151.24" y="108.06" width="4.33" height="4.33"/><rect class="cls-4" x="168.43" y="13.38" width="4.33" height="4.33"/><rect class="cls-4" x="168.43" y="24.54" width="4.33" height="4.33"/><rect class="cls-4" x="162.22" y="83.89" width="4.33" height="4.33"/><rect class="cls-4" x="162.22" y="95.97" width="4.33" height="4.33"/><rect class="cls-4" x="162.22" y="108.06" width="4.33" height="4.33"/><rect class="cls-4" x="180.63" y="13.38" width="4.33" height="4.33"/><rect class="cls-4" x="180.63" y="24.54" width="4.33" height="4.33"/><rect class="cls-4" x="174.41" y="83.89" width="4.33" height="4.33"/><rect class="cls-4" x="174.41" y="95.97" width="4.33" height="4.33"/><rect class="cls-4" x="174.41" y="108.06" width="4.33" height="4.33"/><rect class="cls-4" x="193.14" y="13.38" width="4.33" height="4.33"/><rect class="cls-4" x="193.14" y="24.54" width="4.33" height="4.33"/><rect class="cls-4" x="186.93" y="83.89" width="4.33" height="4.33"/><rect class="cls-4" x="186.93" y="95.97" width="4.33" height="4.33"/><rect class="cls-4" x="186.93" y="108.06" width="4.33" height="4.33"/><rect class="cls-4" x="205.34" y="13.38" width="4.33" height="4.33"/><rect class="cls-4" x="205.34" y="24.54" width="4.33" height="4.33"/><rect class="cls-4" x="199.12" y="83.89" width="4.33" height="4.33"/><rect class="cls-4" x="199.12" y="95.97" width="4.33" height="4.33"/><rect class="cls-4" x="199.12" y="108.06" width="4.33" height="4.33"/><rect class="cls-4" x="215.87" y="13.38" width="4.33" height="4.33"/><rect class="cls-4" x="215.87" y="24.54" width="4.33" height="4.33"/><rect class="cls-4" x="209.65" y="83.89" width="4.33" height="4.33"/><rect class="cls-4" x="209.65" y="95.97" width="4.33" height="4.33"/><rect class="cls-4" x="209.65" y="108.06" width="4.33" height="4.33"/><rect class="cls-4" x="221.85" y="83.89" width="4.33" height="4.33"/><rect class="cls-4" x="221.85" y="95.97" width="4.33" height="4.33"/><rect class="cls-4" x="221.85" y="108.06" width="4.33" height="4.33"/><rect class="cls-4" x="240.58" y="13.38" width="4.33" height="4.33"/><rect class="cls-4" x="240.58" y="24.54" width="4.33" height="4.33"/><rect class="cls-4" x="234.36" y="83.89" width="4.33" height="4.33"/><rect class="cls-4" x="234.36" y="95.97" width="4.33" height="4.33"/><rect class="cls-4" x="234.36" y="108.06" width="4.33" height="4.33"/><rect class="cls-4" x="252.77" y="13.38" width="4.33" height="4.33"/><rect class="cls-4" x="252.77" y="24.54" width="4.33" height="4.33"/><rect class="cls-4" x="246.56" y="83.89" width="4.33" height="4.33"/><rect class="cls-4" x="246.56" y="95.97" width="4.33" height="4.33"/><rect class="cls-4" x="246.56" y="108.06" width="4.33" height="4.33"/><rect class="cls-4" x="263.75" y="13.38" width="4.33" height="4.33"/><rect class="cls-4" x="263.75" y="24.54" width="4.33" height="4.33"/><rect class="cls-4" x="257.53" y="83.89" width="4.33" height="4.33"/><rect class="cls-4" x="257.53" y="95.97" width="4.33" height="4.33"/><rect class="cls-4" x="257.53" y="108.06" width="4.33" height="4.33"/><rect class="cls-4" x="275.94" y="13.38" width="4.33" height="4.33"/><rect class="cls-4" x="275.94" y="24.54" width="4.33" height="4.33"/><rect class="cls-4" x="269.73" y="83.89" width="4.33" height="4.33"/><rect class="cls-4" x="269.73" y="95.97" width="4.33" height="4.33"/><rect class="cls-4" x="269.73" y="108.06" width="4.33" height="4.33"/><rect class="cls-4" x="288.46" y="13.38" width="4.33" height="4.33"/><rect class="cls-4" x="288.46" y="24.54" width="4.33" height="4.33"/><rect class="cls-4" x="282.25" y="83.89" width="4.33" height="4.33"/><rect class="cls-4" x="282.25" y="95.97" width="4.33" height="4.33"/><rect class="cls-4" x="282.25" y="108.06" width="4.33" height="4.33"/><rect class="cls-4" x="294.44" y="83.89" width="4.33" height="4.33"/><rect class="cls-4" x="294.44" y="95.97" width="4.33" height="4.33"/><rect class="cls-4" x="294.44" y="108.06" width="4.33" height="4.33"/><rect class="cls-4" x="311.01" y="13.38" width="4.33" height="4.33"/><rect class="cls-4" x="311.01" y="24.54" width="4.33" height="4.33"/><rect class="cls-4" x="304.8" y="83.89" width="4.33" height="4.33"/><rect class="cls-4" x="304.8" y="95.97" width="4.33" height="4.33"/><rect class="cls-4" x="304.8" y="108.06" width="4.33" height="4.33"/><rect class="cls-4" x="323.21" y="13.38" width="4.33" height="4.33"/><rect class="cls-4" x="323.21" y="24.54" width="4.33" height="4.33"/><rect class="cls-4" x="316.99" y="83.89" width="4.33" height="4.33"/><rect class="cls-4" x="316.99" y="95.97" width="4.33" height="4.33"/><rect class="cls-4" x="316.99" y="108.06" width="4.33" height="4.33"/><rect class="cls-4" x="335.72" y="13.38" width="4.33" height="4.33"/><rect class="cls-4" x="335.72" y="24.54" width="4.33" height="4.33"/><rect class="cls-4" x="329.51" y="83.89" width="4.33" height="4.33"/><rect class="cls-4" x="329.51" y="95.97" width="4.33" height="4.33"/><rect class="cls-4" x="329.51" y="108.06" width="4.33" height="4.33"/><rect class="cls-4" x="347.92" y="13.38" width="4.33" height="4.33"/><rect class="cls-4" x="347.92" y="24.54" width="4.33" height="4.33"/><rect class="cls-4" x="341.7" y="83.89" width="4.33" height="4.33"/><rect class="cls-4" x="341.7" y="95.97" width="4.33" height="4.33"/><rect class="cls-4" x="341.7" y="108.06" width="4.33" height="4.33"/><rect class="cls-4" x="358.89" y="13.38" width="4.33" height="4.33"/><rect class="cls-4" x="358.89" y="24.54" width="4.33" height="4.33"/><rect class="cls-4" x="25.4" y="223.5" width="4.33" height="4.33"/><rect class="cls-4" x="25.4" y="234.66" width="4.33" height="4.33"/><rect class="cls-4" x="37.6" y="223.5" width="4.33" height="4.33"/><rect class="cls-4" x="37.6" y="234.66" width="4.33" height="4.33"/><rect class="cls-4" x="50.12" y="223.5" width="4.33" height="4.33"/><rect class="cls-4" x="50.12" y="234.66" width="4.33" height="4.33"/><rect class="cls-4" x="62.31" y="223.5" width="4.33" height="4.33"/><rect class="cls-4" x="62.31" y="234.66" width="4.33" height="4.33"/><rect class="cls-4" x="73.29" y="223.5" width="4.33" height="4.33"/><rect class="cls-4" x="73.29" y="234.66" width="4.33" height="4.33"/><rect class="cls-4" x="98" y="223.5" width="4.33" height="4.33"/><rect class="cls-4" x="98" y="234.66" width="4.33" height="4.33"/><rect class="cls-4" x="110.19" y="223.5" width="4.33" height="4.33"/><rect class="cls-4" x="110.19" y="234.66" width="4.33" height="4.33"/><rect class="cls-4" x="120.55" y="223.5" width="4.33" height="4.33"/><rect class="cls-4" x="120.55" y="234.66" width="4.33" height="4.33"/><rect class="cls-4" x="132.74" y="223.5" width="4.33" height="4.33"/><rect class="cls-4" x="132.74" y="234.66" width="4.33" height="4.33"/><rect class="cls-4" x="145.26" y="223.5" width="4.33" height="4.33"/><rect class="cls-4" x="145.26" y="234.66" width="4.33" height="4.33"/><rect class="cls-4" x="168.43" y="223.5" width="4.33" height="4.33"/><rect class="cls-4" x="168.43" y="234.66" width="4.33" height="4.33"/><rect class="cls-4" x="180.63" y="223.5" width="4.33" height="4.33"/><rect class="cls-4" x="180.63" y="234.66" width="4.33" height="4.33"/><rect class="cls-4" x="193.14" y="223.5" width="4.33" height="4.33"/><rect class="cls-4" x="193.14" y="234.66" width="4.33" height="4.33"/><rect class="cls-4" x="205.34" y="223.5" width="4.33" height="4.33"/><rect class="cls-4" x="205.34" y="234.66" width="4.33" height="4.33"/><rect class="cls-4" x="215.87" y="223.5" width="4.33" height="4.33"/><rect class="cls-4" x="215.87" y="234.66" width="4.33" height="4.33"/><rect class="cls-4" x="240.58" y="223.5" width="4.33" height="4.33"/><rect class="cls-4" x="240.58" y="234.66" width="4.33" height="4.33"/><rect class="cls-4" x="252.77" y="223.5" width="4.33" height="4.33"/><rect class="cls-4" x="252.77" y="234.66" width="4.33" height="4.33"/><rect class="cls-4" x="263.75" y="223.5" width="4.33" height="4.33"/><rect class="cls-4" x="263.75" y="234.66" width="4.33" height="4.33"/><rect class="cls-4" x="275.94" y="223.5" width="4.33" height="4.33"/><rect class="cls-4" x="275.94" y="234.66" width="4.33" height="4.33"/><rect class="cls-4" x="288.46" y="223.5" width="4.33" height="4.33"/><rect class="cls-4" x="288.46" y="234.66" width="4.33" height="4.33"/><rect class="cls-4" x="311.01" y="223.5" width="4.33" height="4.33"/><rect class="cls-4" x="311.01" y="234.66" width="4.33" height="4.33"/><rect class="cls-4" x="323.21" y="223.5" width="4.33" height="4.33"/><rect class="cls-4" x="323.21" y="234.66" width="4.33" height="4.33"/><rect class="cls-4" x="335.72" y="223.5" width="4.33" height="4.33"/><rect class="cls-4" x="335.72" y="234.66" width="4.33" height="4.33"/><rect class="cls-4" x="347.92" y="223.5" width="4.33" height="4.33"/><rect class="cls-4" x="347.92" y="234.66" width="4.33" height="4.33"/><rect class="cls-4" x="358.89" y="223.5" width="4.33" height="4.33"/><rect class="cls-4" x="358.89" y="234.66" width="4.33" height="4.33"/><rect class="cls-4" x="352.68" y="83.89" width="4.33" height="4.33"/><rect class="cls-4" x="352.68" y="95.97" width="4.33" height="4.33"/><rect class="cls-4" x="352.68" y="108.06" width="4.33" height="4.33"/><rect class="cls-4" x="364.87" y="83.89" width="4.33" height="4.33"/><rect class="cls-4" x="364.87" y="95.97" width="4.33" height="4.33"/><rect class="cls-4" x="19.19" y="60.25" width="4.33" height="4.33"/><rect class="cls-4" x="19.19" y="72.34" width="4.33" height="4.33"/><rect class="cls-4" x="31.39" y="60.25" width="4.33" height="4.33"/><rect class="cls-4" x="31.39" y="72.34" width="4.33" height="4.33"/><rect class="cls-4" x="43.9" y="60.25" width="4.33" height="4.33"/><rect class="cls-4" x="43.9" y="72.34" width="4.33" height="4.33"/><rect class="cls-4" x="56.1" y="60.25" width="4.33" height="4.33"/><rect class="cls-4" x="56.1" y="72.34" width="4.33" height="4.33"/><rect class="cls-4" x="67.07" y="60.25" width="4.33" height="4.33"/><rect class="cls-4" x="67.07" y="72.34" width="4.33" height="4.33"/><rect class="cls-4" x="79.27" y="60.25" width="4.33" height="4.33"/><rect class="cls-4" x="79.27" y="72.34" width="4.33" height="4.33"/><rect class="cls-4" x="91.79" y="60.25" width="4.33" height="4.33"/><rect class="cls-4" x="91.79" y="72.34" width="4.33" height="4.33"/><rect class="cls-4" x="103.98" y="60.25" width="4.33" height="4.33"/><rect class="cls-4" x="103.98" y="72.34" width="4.33" height="4.33"/><rect class="cls-4" x="114.34" y="60.25" width="4.33" height="4.33"/><rect class="cls-4" x="114.34" y="72.34" width="4.33" height="4.33"/><rect class="cls-4" x="126.53" y="60.25" width="4.33" height="4.33"/><rect class="cls-4" x="126.53" y="72.34" width="4.33" height="4.33"/><rect class="cls-4" x="139.05" y="60.25" width="4.33" height="4.33"/><rect class="cls-4" x="139.05" y="72.34" width="4.33" height="4.33"/><rect class="cls-4" x="151.24" y="60.25" width="4.33" height="4.33"/><rect class="cls-4" x="151.24" y="72.34" width="4.33" height="4.33"/><rect class="cls-4" x="162.22" y="60.25" width="4.33" height="4.33"/><rect class="cls-4" x="162.22" y="72.34" width="4.33" height="4.33"/><rect class="cls-4" x="174.41" y="60.25" width="4.33" height="4.33"/><rect class="cls-4" x="174.41" y="72.34" width="4.33" height="4.33"/><rect class="cls-4" x="186.93" y="60.25" width="4.33" height="4.33"/><rect class="cls-4" x="186.93" y="72.34" width="4.33" height="4.33"/><rect class="cls-4" x="199.12" y="60.25" width="4.33" height="4.33"/><rect class="cls-4" x="199.12" y="72.34" width="4.33" height="4.33"/><rect class="cls-4" x="209.65" y="60.25" width="4.33" height="4.33"/><rect class="cls-4" x="209.65" y="72.34" width="4.33" height="4.33"/><rect class="cls-4" x="221.85" y="60.25" width="4.33" height="4.33"/><rect class="cls-4" x="221.85" y="72.34" width="4.33" height="4.33"/><rect class="cls-4" x="234.36" y="60.25" width="4.33" height="4.33"/><rect class="cls-4" x="234.36" y="72.34" width="4.33" height="4.33"/><rect class="cls-4" x="246.56" y="60.25" width="4.33" height="4.33"/><rect class="cls-4" x="246.56" y="72.34" width="4.33" height="4.33"/><rect class="cls-4" x="257.53" y="60.25" width="4.33" height="4.33"/><rect class="cls-4" x="257.53" y="72.34" width="4.33" height="4.33"/><rect class="cls-4" x="269.73" y="60.25" width="4.33" height="4.33"/><rect class="cls-4" x="269.73" y="72.34" width="4.33" height="4.33"/><rect class="cls-4" x="282.25" y="60.25" width="4.33" height="4.33"/><rect class="cls-4" x="282.25" y="72.34" width="4.33" height="4.33"/><rect class="cls-4" x="294.44" y="60.25" width="4.33" height="4.33"/><rect class="cls-4" x="294.44" y="72.34" width="4.33" height="4.33"/><rect class="cls-4" x="304.8" y="60.25" width="4.33" height="4.33"/><rect class="cls-4" x="304.8" y="72.34" width="4.33" height="4.33"/><rect class="cls-4" x="316.99" y="60.25" width="4.33" height="4.33"/><rect class="cls-4" x="316.99" y="72.34" width="4.33" height="4.33"/><rect class="cls-4" x="329.51" y="60.25" width="4.33" height="4.33"/><rect class="cls-4" x="329.51" y="72.34" width="4.33" height="4.33"/><rect class="cls-4" x="341.7" y="60.25" width="4.33" height="4.33"/><rect class="cls-4" x="341.7" y="72.34" width="4.33" height="4.33"/><rect class="cls-4" x="352.68" y="60.25" width="4.33" height="4.33"/><rect class="cls-4" x="352.68" y="72.34" width="4.33" height="4.33"/><rect class="cls-4" x="364.87" y="60.25" width="4.33" height="4.33"/><rect class="cls-4" x="364.87" y="72.34" width="4.33" height="4.33"/><rect class="cls-4" x="364.87" y="108.06" width="4.33" height="4.33"/><rect class="cls-4" x="19.19" y="144.11" width="4.33" height="4.33"/><rect class="cls-4" x="19.19" y="155.27" width="4.33" height="4.33"/><rect class="cls-4" x="19.19" y="167.15" width="4.33" height="4.33"/><rect class="cls-4" x="19.19" y="179.23" width="4.33" height="4.33"/><rect class="cls-4" x="19.19" y="191.32" width="4.33" height="4.33"/><rect class="cls-4" x="31.39" y="144.11" width="4.33" height="4.33"/><rect class="cls-4" x="31.39" y="155.27" width="4.33" height="4.33"/><rect class="cls-4" x="31.39" y="167.15" width="4.33" height="4.33"/><rect class="cls-4" x="31.39" y="179.23" width="4.33" height="4.33"/><rect class="cls-4" x="31.39" y="191.32" width="4.33" height="4.33"/><rect class="cls-4" x="43.9" y="144.11" width="4.33" height="4.33"/><rect class="cls-4" x="43.9" y="155.27" width="4.33" height="4.33"/><rect class="cls-4" x="43.9" y="167.15" width="4.33" height="4.33"/><rect class="cls-4" x="43.9" y="179.23" width="4.33" height="4.33"/><rect class="cls-4" x="43.9" y="191.32" width="4.33" height="4.33"/><rect class="cls-4" x="56.1" y="144.11" width="4.33" height="4.33"/><rect class="cls-4" x="56.1" y="155.27" width="4.33" height="4.33"/><rect class="cls-4" x="56.1" y="167.15" width="4.33" height="4.33"/><rect class="cls-4" x="56.1" y="179.23" width="4.33" height="4.33"/><rect class="cls-4" x="56.1" y="191.32" width="4.33" height="4.33"/><rect class="cls-4" x="67.07" y="144.11" width="4.33" height="4.33"/><rect class="cls-4" x="67.07" y="155.27" width="4.33" height="4.33"/><rect class="cls-4" x="67.07" y="167.15" width="4.33" height="4.33"/><rect class="cls-4" x="67.07" y="179.23" width="4.33" height="4.33"/><rect class="cls-4" x="67.07" y="191.32" width="4.33" height="4.33"/><rect class="cls-4" x="79.27" y="144.11" width="4.33" height="4.33"/><rect class="cls-4" x="79.27" y="155.27" width="4.33" height="4.33"/><rect class="cls-4" x="79.27" y="167.15" width="4.33" height="4.33"/><rect class="cls-4" x="79.27" y="179.23" width="4.33" height="4.33"/><rect class="cls-4" x="79.27" y="191.32" width="4.33" height="4.33"/><rect class="cls-4" x="91.79" y="144.11" width="4.33" height="4.33"/><rect class="cls-4" x="91.79" y="155.27" width="4.33" height="4.33"/><rect class="cls-4" x="91.79" y="167.15" width="4.33" height="4.33"/><rect class="cls-4" x="91.79" y="179.23" width="4.33" height="4.33"/><rect class="cls-4" x="91.79" y="191.32" width="4.33" height="4.33"/><rect class="cls-4" x="103.98" y="144.11" width="4.33" height="4.33"/><rect class="cls-4" x="103.98" y="155.27" width="4.33" height="4.33"/><rect class="cls-4" x="103.98" y="167.15" width="4.33" height="4.33"/><rect class="cls-4" x="103.98" y="179.23" width="4.33" height="4.33"/><rect class="cls-4" x="103.98" y="191.32" width="4.33" height="4.33"/><rect class="cls-4" x="114.34" y="144.11" width="4.33" height="4.33"/><rect class="cls-4" x="114.34" y="155.27" width="4.33" height="4.33"/><rect class="cls-4" x="114.34" y="167.15" width="4.33" height="4.33"/><rect class="cls-4" x="114.34" y="179.23" width="4.33" height="4.33"/><rect class="cls-4" x="114.34" y="191.32" width="4.33" height="4.33"/><rect class="cls-4" x="126.53" y="144.11" width="4.33" height="4.33"/><rect class="cls-4" x="126.53" y="155.27" width="4.33" height="4.33"/><rect class="cls-4" x="126.53" y="167.15" width="4.33" height="4.33"/><rect class="cls-4" x="126.53" y="179.23" width="4.33" height="4.33"/><rect class="cls-4" x="126.53" y="191.32" width="4.33" height="4.33"/><rect class="cls-4" x="139.05" y="144.11" width="4.33" height="4.33"/><rect class="cls-4" x="139.05" y="155.27" width="4.33" height="4.33"/><rect class="cls-4" x="139.05" y="167.15" width="4.33" height="4.33"/><rect class="cls-4" x="139.05" y="179.23" width="4.33" height="4.33"/><rect class="cls-4" x="139.05" y="191.32" width="4.33" height="4.33"/><rect class="cls-4" x="151.24" y="144.11" width="4.33" height="4.33"/><rect class="cls-4" x="151.24" y="155.27" width="4.33" height="4.33"/><rect class="cls-4" x="151.24" y="167.15" width="4.33" height="4.33"/><rect class="cls-4" x="151.24" y="179.23" width="4.33" height="4.33"/><rect class="cls-4" x="151.24" y="191.32" width="4.33" height="4.33"/><rect class="cls-4" x="162.22" y="144.11" width="4.33" height="4.33"/><rect class="cls-4" x="162.22" y="155.27" width="4.33" height="4.33"/><rect class="cls-4" x="162.22" y="167.15" width="4.33" height="4.33"/><rect class="cls-4" x="162.22" y="179.23" width="4.33" height="4.33"/><rect class="cls-4" x="162.22" y="191.32" width="4.33" height="4.33"/><rect class="cls-4" x="174.41" y="144.11" width="4.33" height="4.33"/><rect class="cls-4" x="174.41" y="155.27" width="4.33" height="4.33"/><rect class="cls-4" x="174.41" y="167.15" width="4.33" height="4.33"/><rect class="cls-4" x="174.41" y="179.23" width="4.33" height="4.33"/><rect class="cls-4" x="174.41" y="191.32" width="4.33" height="4.33"/><rect class="cls-4" x="186.93" y="144.11" width="4.33" height="4.33"/><rect class="cls-4" x="186.93" y="155.27" width="4.33" height="4.33"/><rect class="cls-4" x="186.93" y="167.15" width="4.33" height="4.33"/><rect class="cls-4" x="186.93" y="179.23" width="4.33" height="4.33"/><rect class="cls-4" x="186.93" y="191.32" width="4.33" height="4.33"/><rect class="cls-4" x="199.12" y="144.11" width="4.33" height="4.33"/><rect class="cls-4" x="199.12" y="155.27" width="4.33" height="4.33"/><rect class="cls-4" x="199.12" y="167.15" width="4.33" height="4.33"/><rect class="cls-4" x="199.12" y="179.23" width="4.33" height="4.33"/><rect class="cls-4" x="199.12" y="191.32" width="4.33" height="4.33"/><rect class="cls-4" x="209.65" y="144.11" width="4.33" height="4.33"/><rect class="cls-4" x="209.65" y="155.27" width="4.33" height="4.33"/><rect class="cls-4" x="209.65" y="167.15" width="4.33" height="4.33"/><rect class="cls-4" x="209.65" y="179.23" width="4.33" height="4.33"/><rect class="cls-4" x="209.65" y="191.32" width="4.33" height="4.33"/><rect class="cls-4" x="221.85" y="144.11" width="4.33" height="4.33"/><rect class="cls-4" x="221.85" y="155.27" width="4.33" height="4.33"/><rect class="cls-4" x="221.85" y="167.15" width="4.33" height="4.33"/><rect class="cls-4" x="221.85" y="179.23" width="4.33" height="4.33"/><rect class="cls-4" x="221.85" y="191.32" width="4.33" height="4.33"/><rect class="cls-4" x="234.36" y="144.11" width="4.33" height="4.33"/><rect class="cls-4" x="234.36" y="155.27" width="4.33" height="4.33"/><rect class="cls-4" x="234.36" y="167.15" width="4.33" height="4.33"/><rect class="cls-4" x="234.36" y="179.23" width="4.33" height="4.33"/><rect class="cls-4" x="234.36" y="191.32" width="4.33" height="4.33"/><rect class="cls-4" x="246.56" y="144.11" width="4.33" height="4.33"/><rect class="cls-4" x="246.56" y="155.27" width="4.33" height="4.33"/><rect class="cls-4" x="246.56" y="167.15" width="4.33" height="4.33"/><rect class="cls-4" x="246.56" y="179.23" width="4.33" height="4.33"/><rect class="cls-4" x="246.56" y="191.32" width="4.33" height="4.33"/><rect class="cls-4" x="257.53" y="144.11" width="4.33" height="4.33"/><rect class="cls-4" x="257.53" y="155.27" width="4.33" height="4.33"/><rect class="cls-4" x="257.53" y="167.15" width="4.33" height="4.33"/><rect class="cls-4" x="257.53" y="179.23" width="4.33" height="4.33"/><rect class="cls-4" x="257.53" y="191.32" width="4.33" height="4.33"/><rect class="cls-4" x="269.73" y="144.11" width="4.33" height="4.33"/><rect class="cls-4" x="269.73" y="155.27" width="4.33" height="4.33"/><rect class="cls-4" x="269.73" y="167.15" width="4.33" height="4.33"/><rect class="cls-4" x="269.73" y="179.23" width="4.33" height="4.33"/><rect class="cls-4" x="269.73" y="191.32" width="4.33" height="4.33"/><rect class="cls-4" x="282.25" y="144.11" width="4.33" height="4.33"/><rect class="cls-4" x="282.25" y="155.27" width="4.33" height="4.33"/><rect class="cls-4" x="282.25" y="167.15" width="4.33" height="4.33"/><rect class="cls-4" x="282.25" y="179.23" width="4.33" height="4.33"/><rect class="cls-4" x="282.25" y="191.32" width="4.33" height="4.33"/><rect class="cls-4" x="294.44" y="144.11" width="4.33" height="4.33"/><rect class="cls-4" x="294.44" y="155.27" width="4.33" height="4.33"/><rect class="cls-4" x="294.44" y="167.15" width="4.33" height="4.33"/><rect class="cls-4" x="294.44" y="179.23" width="4.33" height="4.33"/><rect class="cls-4" x="294.44" y="191.32" width="4.33" height="4.33"/><rect class="cls-4" x="304.8" y="144.11" width="4.33" height="4.33"/><rect class="cls-4" x="304.8" y="155.27" width="4.33" height="4.33"/><rect class="cls-4" x="304.8" y="167.15" width="4.33" height="4.33"/><rect class="cls-4" x="304.8" y="179.23" width="4.33" height="4.33"/><rect class="cls-4" x="304.8" y="191.32" width="4.33" height="4.33"/><rect class="cls-4" x="316.99" y="144.11" width="4.33" height="4.33"/><rect class="cls-4" x="316.99" y="155.27" width="4.33" height="4.33"/><rect class="cls-4" x="316.99" y="167.15" width="4.33" height="4.33"/><rect class="cls-4" x="316.99" y="179.23" width="4.33" height="4.33"/><rect class="cls-4" x="316.99" y="191.32" width="4.33" height="4.33"/><rect class="cls-4" x="329.51" y="144.11" width="4.33" height="4.33"/><rect class="cls-4" x="329.51" y="155.27" width="4.33" height="4.33"/><rect class="cls-4" x="329.51" y="167.15" width="4.33" height="4.33"/><rect class="cls-4" x="329.51" y="179.23" width="4.33" height="4.33"/><rect class="cls-4" x="329.51" y="191.32" width="4.33" height="4.33"/><rect class="cls-4" x="341.7" y="144.11" width="4.33" height="4.33"/><rect class="cls-4" x="341.7" y="155.27" width="4.33" height="4.33"/><rect class="cls-4" x="341.7" y="167.15" width="4.33" height="4.33"/><rect class="cls-4" x="341.7" y="179.23" width="4.33" height="4.33"/><rect class="cls-4" x="341.7" y="191.32" width="4.33" height="4.33"/><rect class="cls-4" x="352.68" y="144.11" width="4.33" height="4.33"/><rect class="cls-4" x="352.68" y="155.27" width="4.33" height="4.33"/><rect class="cls-4" x="352.68" y="167.15" width="4.33" height="4.33"/><rect class="cls-4" x="352.68" y="179.23" width="4.33" height="4.33"/><rect class="cls-4" x="352.68" y="191.32" width="4.33" height="4.33"/><rect class="cls-4" x="364.87" y="144.11" width="4.33" height="4.33"/><rect class="cls-4" x="364.87" y="155.27" width="4.33" height="4.33"/><rect class="cls-4" x="364.87" y="167.15" width="4.33" height="4.33"/><rect class="cls-4" x="364.87" y="179.23" width="4.33" height="4.33"/><rect class="cls-4" x="364.87" y="191.32" width="4.33" height="4.33"/><line class="cls-5" x1="16.2" y1="36" x2="369.21" y2="36"/><line class="cls-6" x1="16.2" y1="6.37" x2="369.21" y2="6.37"/><line class="cls-7" x1="366.43" y1="12.45" x2="371.16" y2="12.45"/><line class="cls-8" x1="366.43" y1="42.08" x2="371.16" y2="42.08"/><line class="cls-7" x1="368.79" y1="14.81" x2="368.79" y2="10.08"/><line class="cls-7" x1="6.18" y1="6.37" x2="10.91" y2="6.37"/><line class="cls-8" x1="6.18" y1="36" x2="10.91" y2="36"/><line class="cls-7" x1="8.55" y1="8.73" x2="8.55" y2="4"/><line class="cls-5" x1="16.2" y1="247.23" x2="369.21" y2="247.23"/><line class="cls-6" x1="16.2" y1="217.6" x2="369.21" y2="217.6"/><line class="cls-7" x1="366.43" y1="223.68" x2="371.16" y2="223.68"/><line class="cls-8" x1="374.73" y1="247.23" x2="379.46" y2="247.23"/><line class="cls-7" x1="368.79" y1="226.05" x2="368.79" y2="221.32"/><line class="cls-7" x1="6.18" y1="217.6" x2="10.91" y2="217.6"/><line class="cls-8" x1="6.18" y1="247.23" x2="10.91" y2="247.23"/><line class="cls-7" x1="8.55" y1="219.97" x2="8.55" y2="215.24"/><rect class="cls-9" y="124.18" width="385.97" height="5.81"/></g></g></svg>