<svg xmlns="http://www.w3.org/2000/svg" viewBox="0 0 170.43 64.38"><defs><style>.cls-1{fill:#878787;}.cls-2{fill:#938293;}.cls-3{fill:#b2a4b2;}.cls-4{fill:#fafaf9;}.cls-5{fill:none;stroke:#fdfdfd;stroke-linecap:round;stroke-miterlimit:10;stroke-width:0.5px;}.cls-6{fill:#b3b3b3;}.cls-7{fill:#e5e5e5;}.cls-8{fill:#999;}</style></defs><title>ir_v0</title><g id="Capa_2" data-name="Capa 2"><g id="Capa_31" data-name="Capa 31"><path class="cls-1" d="M138.24,64.38a32.15,32.15,0,0,0,31.88-27.85,29.66,29.66,0,0,0,.31-4.34,32.2,32.2,0,0,0-57.58-19.81V52A32.25,32.25,0,0,0,138.24,64.38Z"/><path class="cls-1" d="M138.24,64.38a32.15,32.15,0,0,0,31.88-27.85,32.15,32.15,0,0,0-57.27-15.47V52A32.25,32.25,0,0,0,138.24,64.38Z"/><path class="cls-2" d="M138.66,60.38A28.16,28.16,0,0,0,166.58,36a25.19,25.19,0,0,0,.28-3.8,28.21,28.21,0,0,0-50.44-17.35v34.7A28.24,28.24,0,0,0,138.66,60.38Z"/><path class="cls-3" d="M138.66,60.38A28.16,28.16,0,0,0,166.58,36a28.16,28.16,0,0,0-50.16-13.55v27.1A28.24,28.24,0,0,0,138.66,60.38Z"/><circle class="cls-2" cx="139.19" cy="32.19" r="17.35"/><rect class="cls-4" x="136.91" y="15.44" width="4.58" height="14.68" rx="0.34" ry="0.34"/><rect class="cls-4" x="136.91" y="34.25" width="4.58" height="14.68" rx="0.34" ry="0.34"/><path class="cls-5" d="M123.19,49.54a12,12,0,0,0,6.52,4.24"/><path class="cls-6" d="M71.94,39.91V6.77a4.43,4.43,0,0,0-4.43-4.43H4.45A4.43,4.43,0,0,0,0,6.77V39.91a4.43,4.43,0,0,0,4.45,4.43H67.51A4.43,4.43,0,0,0,71.94,39.91Z"/><path class="cls-7" d="M71.94,39.91V6.77a4.43,4.43,0,0,0-4.43-4.43h-57A4.42,4.42,0,0,0,6.07,6.77V39.91a4.42,4.42,0,0,0,4.42,4.43h57A4.43,4.43,0,0,0,71.94,39.91Z"/><path class="cls-8" d="M62.92,44.34H9A29.72,29.72,0,0,0,36,61.47c.66,0,1.31,0,2-.08A29.76,29.76,0,0,0,62.92,44.34Z"/><path class="cls-6" d="M62.92,44.34H13a29.7,29.7,0,0,0,25,17A29.76,29.76,0,0,0,62.92,44.34Z"/><rect class="cls-7" x="35.04" y="43.06" width="2.58" height="21" rx="0.21" ry="0.21"/><rect class="cls-7" x="50.5" y="38.54" width="2.58" height="21" rx="0.21" ry="0.21"/><rect class="cls-7" x="18.56" y="38.54" width="2.58" height="21" rx="0.21" ry="0.21"/><rect class="cls-7" x="13.35" y="51.59" width="44.85" height="2.58" rx="0.21" ry="0.21"/></g></g></svg>