<svg xmlns="http://www.w3.org/2000/svg" viewBox="0 0 322.56 104.11"><defs><style>.cls-1{fill:#333;}.cls-2{fill:#216096;}.cls-3{fill:#1f6fa6;}.cls-4{fill:#101010;}.cls-5{font-size:33px;fill:#fff;font-family:DJBGetDigital, DJB Get Digital;}</style></defs><title>ldr_vo</title><g id="Capa_2" data-name="Capa 2"><g id="Capa_31" data-name="Capa 31"><rect class="cls-1" width="322.56" height="104.11" rx="3.25" ry="3.25"/><path class="cls-2" d="M48.32,82.4H20.08a5.39,5.39,0,0,1-5.4-5.4V25.17a5.39,5.39,0,0,1,5.4-5.4H48.32a5.39,5.39,0,0,0-5.4,5.4V77A5.39,5.39,0,0,0,48.32,82.4Z"/><path class="cls-3" d="M307.9,25.17V77a5.4,5.4,0,0,1-5.4,5.4H48.32a5.39,5.39,0,0,1-5.4-5.4V25.17a5.39,5.39,0,0,1,5.4-5.4H302.5A5.4,5.4,0,0,1,307.9,25.17Z"/><rect class="cls-4" x="14.68" y="7.09" width="293.21" height="5.47" rx="1.65" ry="1.65"/><rect class="cls-4" x="14.68" y="89.68" width="293.21" height="5.47" rx="1.65" ry="1.65"/><text class="cls-5" transform="translate(70.64 63.79)">HELLO, WORLD!</text></g></g></svg>