<?xml version="1.0" encoding="utf-8"?>
<!-- Generator: Adobe Illustrator 22.0.0, SVG Export Plug-In . SVG Version: 6.00 Build 0)  -->
<svg version="1.1" xmlns="http://www.w3.org/2000/svg" xmlns:xlink="http://www.w3.org/1999/xlink" x="0px" y="0px"
	 viewBox="0 0 216.7 157.7" style="enable-background:new 0 0 216.7 157.7;" xml:space="preserve">
<style type="text/css">
	.st0{fill:#FFFFFF;}
	.st1{fill:#FEC542;}
	.st2{fill:#3EAA5F;}
	.st3{fill:#FA504B;}
	.st4{fill:#23234B;}
	.st5{fill:#F4CA5D;}
	.st6{fill:none;stroke:#FFFFFF;stroke-linecap:round;stroke-miterlimit:10;}
</style>
<g id="Capa_3">
</g>
<g id="Capa_1">
</g>
<g id="Capa_4">
	<g>
		<path class="st0" d="M161.1,82.9h26.5c2.7,0,4.9,2.1,4.9,4.7v28.5c0,2.6-2.2,4.7-4.9,4.7H39.5c-3.4,0-6.1-2.6-6.1-5.8V86.9
			c0-2,1.1-3.8,2.7-4.8c-1.7-1.4-2.7-3.5-2.7-5.8V44.5c0-4.2,3.4-7.6,7.6-7.6h116.5c4.2,0,7.6,3.4,7.6,7.6v5.4h23.2
			c2.4,0,4.3,1.9,4.3,4.3v15.9c0,2.4-1.9,4.3-4.3,4.3H165v1.8C165,79.2,163.4,81.7,161.1,82.9z"/>
		<polygon class="st0" points="62.2,47.4 66.8,47.4 66.8,70.7 62.2,70.7 62.2,61 53,61 53,70.7 48.3,70.7 48.3,47.4 53,47.4 
			53,56.8 62.2,56.8 		"/>
		<path class="st0" d="M84,56.6c1.3,1.9,1.8,4.3,1.4,7.3H74.3c0.4,2.3,1.7,3.4,4,3.4c1.5,0,2.6-0.6,3.4-1.7l3.3,2
			c-0.6,1.1-1.5,1.9-2.8,2.6c-1.2,0.6-2.6,1-4.1,1c-2.4,0-4.4-0.8-5.9-2.3c-1.5-1.6-2.3-3.6-2.3-6.2c0-2.6,0.7-4.7,2.2-6.3
			s3.4-2.4,5.8-2.4C80.7,53.8,82.7,54.7,84,56.6z"/>
		<rect x="88.7" y="45.9" class="st0" width="4.5" height="24.8"/>
		<rect x="97" y="45.9" class="st0" width="4.5" height="24.8"/>
		<path class="st0" d="M121.2,62.4c0,2.5-0.8,4.5-2.3,6.2c-1.5,1.6-3.5,2.5-6,2.5c-2.5,0-4.5-0.8-6-2.5c-1.5-1.6-2.3-3.7-2.3-6.2
			c0-2.5,0.8-4.6,2.3-6.2c1.5-1.6,3.5-2.4,6-2.4c2.5,0,4.5,0.8,6,2.4S121.2,59.9,121.2,62.4z"/>
		<polygon class="st0" points="128.2,65.2 128.2,70.7 125.6,74.7 121,74.7 123.8,70 123.8,65.2 		"/>
		<path class="st1" d="M53.8,101.4c0.2,2,1.8,3.8,3.9,4.1c1.6,0.2,3.1-0.4,4.1-1.4v0l0.1-0.1l0,0c0.5-0.5,1.1-0.8,1.8-0.9h0.6
			c0.7,0.1,1.3,0.4,1.8,0.9v11.6c0,1.7-1.4,3-3.2,3h-24c-1.8,0-3.2-1.3-3.2-3V86.8c0-1.7,1.4-3,3.2-3h9.8l0.2,0.2l0.1,0.1l4.5,4.2
			c1.1,1,3.1,1,4.1,0l4.5-4.2l0.1-0.1l0.2-0.2h0.5c0.5,0,0.9,0.1,1.3,0.3c0.2,0.1,0.3,0.2,0.5,0.2c0.1,0.1,0.3,0.2,0.4,0.3
			c0.6,0.5,1,1.3,1,2.2v11.1c-0.5,0.5-1.1,0.8-1.8,0.9h-0.6c-0.7-0.1-1.3-0.4-1.8-0.9l0,0l-0.1-0.1c-0.8-0.9-2.1-1.5-3.4-1.5
			C55.6,96.3,53.4,98.7,53.8,101.4z"/>
		<path class="st2" d="M66.8,70.7h-4.6V61H53v9.8h-4.6V47.4H53v9.4h9.2v-9.4h4.6V70.7z M85.4,63.9H74.3c0.4,2.3,1.7,3.4,4,3.4
			c1.5,0,2.6-0.6,3.4-1.7l3.3,2c-0.6,1.1-1.5,1.9-2.8,2.6c-1.2,0.6-2.6,1-4.1,1c-2.4,0-4.4-0.8-5.9-2.3c-1.5-1.6-2.3-3.6-2.3-6.2
			c0-2.6,0.7-4.7,2.2-6.3s3.4-2.4,5.8-2.4c2.6,0,4.6,0.9,6,2.8C85.3,58.4,85.8,60.9,85.4,63.9z M93.2,70.7h-4.5V45.9h4.5V70.7z
			 M101.5,70.7H97V45.9h4.5V70.7z M112.9,71.1c-2.5,0-4.5-0.8-6-2.5c-1.5-1.6-2.3-3.7-2.3-6.2c0-2.5,0.8-4.6,2.3-6.2
			c1.5-1.6,3.5-2.4,6-2.4c2.5,0,4.5,0.8,6,2.4s2.3,3.7,2.3,6.2c0,2.5-0.8,4.5-2.3,6.2C117.4,70.2,115.4,71.1,112.9,71.1z
			 M128.2,70.7l-2.6,4H121l2.8-4.8v-4.8h4.4V70.7z"/>
		<path class="st2" d="M140.6,59.3v5.8c0,1,0.4,1.9,1.1,2.6c0.7,0.7,1.6,1,2.5,1c0.4,0,0.9-0.1,1.3-0.2v1.8c0,2.4,1.9,4.3,4.3,4.3
			h13v1.8c0,2.9-2.4,5.3-5.3,5.3H64.9l-0.4,0.4l-0.5,0.5l-1.5,1.4L62.2,84l-0.1,0.1l-4.5,4.2c-1.1,1-3.1,1-4.1,0l-4.5-4.2L48.8,84
			l-0.2-0.2L47,82.4l-0.7-0.6l-0.2-0.2h-5.2c-0.7,0-1.3-0.1-1.9-0.4h0c-2-0.8-3.4-2.7-3.4-4.9V44.4c0-2.9,2.4-5.3,5.3-5.3h116.5
			c2.9,0,5.3,2.4,5.3,5.3v5.5h-13c-2.4,0-4.3,1.9-4.3,4.3V56c-0.4-0.2-0.8-0.2-1.3-0.2C142.2,55.7,140.6,57.4,140.6,59.3z"/>
		<polygon class="st2" points="62.2,47.4 66.8,47.4 66.8,70.7 62.2,70.7 62.2,61 53,61 53,70.7 48.3,70.7 48.3,47.4 53,47.4 
			53,56.8 62.2,56.8 		"/>
		<rect x="88.7" y="45.9" class="st2" width="4.5" height="24.8"/>
		<rect x="97" y="45.9" class="st2" width="4.5" height="24.8"/>
		<polygon class="st2" points="128.2,65.2 128.2,70.7 125.6,74.7 121,74.7 123.8,70 123.8,65.2 		"/>
		<g>
			<path class="st0" d="M186.1,61.3l-1.1,1.3l-1.4,1.7c-0.2,0.3-0.6,0.3-0.9,0l-1.4-1.7l-1.1-1.3c-0.3-0.4,0-1,0.4-1h5
				C186.2,60.4,186.5,60.9,186.1,61.3z"/>
			<path class="st3" d="M190.2,54.2V69c0,0,0,0,0,0v1.1c0,1.1-0.9,2-2,2h-38.4c-1.1,0-2-0.9-2-2V66c0-0.7-0.7-1.1-1.3-0.8l-1.6,0.9
				c-0.9,0.5-1.9-0.1-1.9-1.1v-5.8c0-1,1.1-1.6,1.9-1.1l1.6,0.9c0.6,0.3,1.3-0.1,1.3-0.8v-4.1c0-1.1,0.9-2,2-2h38.4
				C189.3,52.2,190.2,53.1,190.2,54.2z"/>
			<path class="st3" d="M186.1,61.3l-1.1,1.3l-1.4,1.7c-0.2,0.3-0.6,0.3-0.9,0l-1.4-1.7l-1.1-1.3c-0.3-0.4,0-1,0.4-1h5
				C186.2,60.4,186.5,60.9,186.1,61.3z"/>
			<path class="st0" d="M186.1,61.3l-1.1,1.3l-1.4,1.7c-0.2,0.3-0.6,0.3-0.9,0l-1.4-1.7l-1.1-1.3c-0.3-0.4,0-1,0.4-1h5
				C186.2,60.4,186.5,60.9,186.1,61.3z"/>
			<g>
				<path class="st0" d="M176.1,63.9c0,0.3-0.2,0.5-0.5,0.5H153c-0.3,0-0.5-0.2-0.5-0.5c0-0.3,0.2-0.5,0.5-0.5h22.6
					C175.9,63.4,176.1,63.7,176.1,63.9z"/>
			</g>
			<g>
				<path class="st0" d="M176.1,60.9c0,0.3-0.2,0.5-0.5,0.5H153c-0.3,0-0.5-0.2-0.5-0.5c0-0.3,0.2-0.5,0.5-0.5h22.6
					C175.9,60.4,176.1,60.6,176.1,60.9z"/>
			</g>
		</g>
		<rect x="98.4" y="87.2" class="st0" width="4.5" height="24.8"/>
		<path class="st0" d="M140.5,108c-0.5,1.2-1.4,2.3-2.6,3.1c-1.2,0.8-2.8,1.3-4.7,1.3c-2.4,0-4.3-0.8-5.9-2.4
			c-1.5-1.6-2.3-3.7-2.3-6.3c0-2.6,0.8-4.7,2.3-6.3c1.5-1.5,3.5-2.3,5.8-2.3c1.8,0,3.3,0.5,4.6,1.4c1.2,0.9,2.1,2,2.5,3.3l-3.4,1.7
			c-0.7-1.6-1.9-2.4-3.6-2.4c-1.2,0-2.1,0.4-2.8,1.3c-0.7,0.9-1.1,2-1.1,3.4c0,1.4,0.4,2.5,1.1,3.4c0.7,0.9,1.7,1.3,2.9,1.3
			c1.7,0,2.8-0.8,3.5-2.2L140.5,108z"/>
		<polygon class="st0" points="158.5,112 153.6,112 149.2,104.4 147.3,106.4 147.3,112 143,112 143,87.2 147.3,87.2 147.3,100.7 
			152.6,95.4 158.2,95.4 152.5,101.1 		"/>
		<path class="st0" d="M170.6,104.1c0.8,0.8,1.2,1.9,1.2,3.4c0,1.5-0.6,2.7-1.8,3.6c-1.2,0.9-2.6,1.3-4.2,1.3
			c-1.8,0-3.3-0.4-4.5-1.3c-1.2-0.8-1.9-2-2.3-3.6l3.8-1c0.4,1.6,1.3,2.4,2.8,2.4c0.6,0,1-0.1,1.4-0.4c0.4-0.3,0.5-0.6,0.5-1
			c0-0.2,0-0.3-0.1-0.5c-0.1-0.2-0.1-0.3-0.2-0.4c-0.1-0.1-0.2-0.2-0.3-0.3c-0.1-0.1-0.3-0.2-0.4-0.3c-0.1-0.1-0.3-0.1-0.5-0.3
			c-0.2-0.1-0.4-0.2-0.5-0.2c-0.1-0.1-0.3-0.1-0.6-0.3c-0.3-0.1-0.5-0.2-0.6-0.2c-1.4-0.5-2.5-1.2-3.2-2c-0.7-0.8-1-1.7-1-2.9
			c0-1.5,0.6-2.8,1.7-3.7c1.1-0.9,2.6-1.4,4.2-1.4c1.6,0,2.9,0.4,4,1.2c1.1,0.8,1.8,1.9,2,3.3l-3.6,1c-0.4-1.4-1.3-2.1-2.5-2.1
			c-0.5,0-0.9,0.1-1.3,0.4c-0.3,0.3-0.5,0.6-0.5,1.1c0,0.5,0.2,0.8,0.5,1.1c0.4,0.3,1,0.5,1.8,0.9
			C168.5,102.6,169.8,103.3,170.6,104.1z"/>
		<rect x="176" y="106.5" class="st0" width="4.4" height="5.6"/>
		<polygon class="st0" points="181,88.7 180.1,104.4 176.4,104.4 175.6,88.7 		"/>
		<polygon class="st0" points="66.8,47.4 66.8,70.7 62.2,70.7 62.2,61 53,61 53,70.7 48.3,70.7 48.3,47.4 53,47.4 53,56.8 
			62.2,56.8 62.2,47.4 		"/>
		<path class="st0" d="M84,56.6c-1.3-1.9-3.3-2.8-6-2.8c-2.4,0-4.3,0.8-5.8,2.4S70,59.9,70,62.5c0,2.6,0.8,4.6,2.3,6.2
			c1.5,1.6,3.5,2.3,5.9,2.3c1.5,0,2.9-0.3,4.1-1c1.2-0.7,2.2-1.5,2.8-2.6l-3.3-2c-0.8,1.2-1.9,1.7-3.4,1.7c-2.3,0-3.6-1.1-4-3.4
			h11.1C85.8,60.9,85.3,58.4,84,56.6z M74.4,60.7c0.2-1,0.6-1.8,1.3-2.4c0.6-0.6,1.4-0.8,2.4-0.8c1.1,0,1.9,0.3,2.5,1
			s0.9,1.4,0.9,2.3H74.4z"/>
		<rect x="88.7" y="45.9" class="st0" width="4.5" height="24.8"/>
		<rect x="97" y="45.9" class="st0" width="4.5" height="24.8"/>
		<path class="st0" d="M118.9,56.2c-1.5-1.6-3.5-2.4-6-2.4c-2.5,0-4.5,0.8-6,2.4c-1.5,1.6-2.3,3.7-2.3,6.2c0,2.5,0.8,4.5,2.3,6.2
			c1.5,1.6,3.5,2.5,6,2.5c2.5,0,4.5-0.8,6-2.5c1.5-1.6,2.3-3.7,2.3-6.2C121.2,59.9,120.5,57.8,118.9,56.2z M115.7,65.7
			c-0.7,0.9-1.7,1.3-2.8,1.3c-1.1,0-2.1-0.4-2.8-1.3c-0.7-0.9-1.1-2-1.1-3.3c0-1.3,0.4-2.4,1.1-3.3c0.8-0.8,1.7-1.3,2.8-1.3
			c1.1,0,2.1,0.4,2.8,1.3c0.7,0.9,1.1,2,1.1,3.3C116.8,63.7,116.5,64.8,115.7,65.7z"/>
		<polygon class="st0" points="128.2,65.2 128.2,70.7 125.6,74.7 121,74.7 123.8,70 123.8,65.2 		"/>
		<rect x="98.4" y="87.2" class="st4" width="4.5" height="24.8"/>
		<path class="st4" d="M120.3,97.5c-1.5-1.6-3.5-2.4-6-2.4c-2.5,0-4.5,0.8-6,2.4c-1.5,1.6-2.3,3.7-2.3,6.2c0,2.5,0.8,4.5,2.3,6.2
			c1.5,1.6,3.5,2.5,6,2.5c2.5,0,4.5-0.8,6-2.5c1.5-1.6,2.3-3.7,2.3-6.2C122.6,101.2,121.8,99.1,120.3,97.5z M117.1,107
			c-0.8,0.8-1.7,1.3-2.8,1.3c-1.1,0-2.1-0.4-2.8-1.3c-0.7-0.9-1.1-2-1.1-3.3s0.4-2.4,1.1-3.3c0.8-0.9,1.7-1.3,2.8-1.3
			c1.1,0,2.1,0.4,2.8,1.3c0.7,0.8,1.1,1.9,1.1,3.3S117.8,106.1,117.1,107z"/>
		<path class="st4" d="M140.5,108c-0.5,1.2-1.4,2.3-2.6,3.1c-1.2,0.8-2.8,1.3-4.7,1.3c-2.4,0-4.3-0.8-5.9-2.4
			c-1.5-1.6-2.3-3.7-2.3-6.3c0-2.6,0.8-4.7,2.3-6.3c1.5-1.5,3.5-2.3,5.8-2.3c1.8,0,3.3,0.5,4.6,1.4c1.2,0.9,2.1,2,2.5,3.3l-3.4,1.7
			c-0.7-1.6-1.9-2.4-3.6-2.4c-1.2,0-2.1,0.4-2.8,1.3c-0.7,0.9-1.1,2-1.1,3.4c0,1.4,0.4,2.5,1.1,3.4c0.7,0.9,1.7,1.3,2.9,1.3
			c1.7,0,2.8-0.8,3.5-2.2L140.5,108z"/>
		<polygon class="st4" points="158.5,112 153.6,112 149.2,104.4 147.3,106.4 147.3,112 143,112 143,87.2 147.3,87.2 147.3,100.7 
			152.6,95.4 158.2,95.4 152.5,101.1 		"/>
		<path class="st4" d="M170.6,104.1c0.8,0.8,1.2,1.9,1.2,3.4c0,1.5-0.6,2.7-1.8,3.6c-1.2,0.9-2.6,1.3-4.2,1.3
			c-1.8,0-3.3-0.4-4.5-1.3c-1.2-0.8-1.9-2-2.3-3.6l3.8-1c0.4,1.6,1.3,2.4,2.8,2.4c0.6,0,1-0.1,1.4-0.4c0.4-0.3,0.5-0.6,0.5-1
			c0-0.2,0-0.3-0.1-0.5c-0.1-0.2-0.1-0.3-0.2-0.4c-0.1-0.1-0.2-0.2-0.3-0.3c-0.1-0.1-0.3-0.2-0.4-0.3c-0.1-0.1-0.3-0.1-0.5-0.3
			c-0.2-0.1-0.4-0.2-0.5-0.2c-0.1-0.1-0.3-0.1-0.6-0.3c-0.3-0.1-0.5-0.2-0.6-0.2c-1.4-0.5-2.5-1.2-3.2-2c-0.7-0.8-1-1.7-1-2.9
			c0-1.5,0.6-2.8,1.7-3.7c1.1-0.9,2.6-1.4,4.2-1.4c1.6,0,2.9,0.4,4,1.2c1.1,0.8,1.8,1.9,2,3.3l-3.6,1c-0.4-1.4-1.3-2.1-2.5-2.1
			c-0.5,0-0.9,0.1-1.3,0.4c-0.3,0.3-0.5,0.6-0.5,1.1c0,0.5,0.2,0.8,0.5,1.1c0.4,0.3,1,0.5,1.8,0.9
			C168.5,102.6,169.8,103.3,170.6,104.1z"/>
		<path class="st4" d="M176,106.5v5.6h4.4v-5.6H176z M175.6,88.7l0.9,15.6h3.6l0.9-15.6H175.6z"/>
		<path class="st4" d="M94.1,102.1c-0.7-1.1-1.7-1.8-2.9-2.2c1-0.4,1.8-1.1,2.4-2c0.7-0.9,1-2,1-3.3c0-1.8-0.6-3.2-1.8-4.3
			c-1.2-1.1-2.9-1.6-5-1.6h-8.8V112h8.5c2.5,0,4.4-0.6,5.7-1.7c1.3-1.1,2-2.6,2-4.5C95.1,104.4,94.8,103.2,94.1,102.1z M83.4,92.7
			h4.3c0.9,0,1.6,0.3,2.1,0.7c0.5,0.5,0.7,1.1,0.7,1.9c0,0.8-0.3,1.4-0.7,1.9c-0.5,0.5-1.2,0.7-2.1,0.7h-4.3V92.7z M89.8,107.2
			c-0.6,0.5-1.4,0.8-2.5,0.8h-3.9v-6h3.7c1.2,0,2.1,0.3,2.7,0.8c0.6,0.5,0.9,1.3,0.9,2.3C90.7,106,90.4,106.7,89.8,107.2z"/>
		<rect x="98.4" y="87.2" class="st4" width="4.5" height="24.8"/>
	</g>
</g>
<g id="Capa_2">
</g>
<g id="Capa_5">
</g>
</svg>
